%TF.GenerationSoftware,KiCad,Pcbnew,5.1.5+dfsg1-2build2*%
%TF.CreationDate,2020-12-29T02:51:23+01:00*%
%TF.ProjectId,avr-prog,6176722d-7072-46f6-972e-6b696361645f,1.0*%
%TF.SameCoordinates,PX1e47770PY6a95280*%
%TF.FileFunction,Copper,L1,Top*%
%TF.FilePolarity,Positive*%
%FSLAX46Y46*%
G04 Gerber Fmt 4.6, Leading zero omitted, Abs format (unit mm)*
G04 Created by KiCad (PCBNEW 5.1.5+dfsg1-2build2) date 2020-12-29 02:51:23*
%MOMM*%
%LPD*%
G04 APERTURE LIST*
%TA.AperFunction,ComponentPad*%
%ADD10C,1.600000*%
%TD*%
%TA.AperFunction,ComponentPad*%
%ADD11R,1.800000X1.800000*%
%TD*%
%TA.AperFunction,ComponentPad*%
%ADD12C,1.800000*%
%TD*%
%TA.AperFunction,ComponentPad*%
%ADD13R,1.600000X1.600000*%
%TD*%
%TA.AperFunction,ComponentPad*%
%ADD14O,1.600000X1.600000*%
%TD*%
%TA.AperFunction,ComponentPad*%
%ADD15R,1.727200X1.727200*%
%TD*%
%TA.AperFunction,ComponentPad*%
%ADD16O,1.727200X1.727200*%
%TD*%
%TA.AperFunction,ComponentPad*%
%ADD17R,1.700000X1.700000*%
%TD*%
%TA.AperFunction,ComponentPad*%
%ADD18O,1.700000X1.700000*%
%TD*%
%TA.AperFunction,ComponentPad*%
%ADD19R,2.000000X1.440000*%
%TD*%
%TA.AperFunction,ComponentPad*%
%ADD20O,2.000000X1.440000*%
%TD*%
%TA.AperFunction,ComponentPad*%
%ADD21C,1.500000*%
%TD*%
%TA.AperFunction,Conductor*%
%ADD22C,0.400000*%
%TD*%
%TA.AperFunction,Conductor*%
%ADD23C,0.254000*%
%TD*%
G04 APERTURE END LIST*
D10*
%TO.P,C1,2*%
%TO.N,GND*%
X81280000Y25400000D03*
%TO.P,C1,1*%
%TO.N,+5V*%
X86280000Y25400000D03*
%TD*%
%TO.P,C2,2*%
%TO.N,/XTAL1*%
X44450000Y21510000D03*
%TO.P,C2,1*%
%TO.N,GND*%
X44450000Y16510000D03*
%TD*%
%TO.P,C3,1*%
%TO.N,GND*%
X62230000Y16510000D03*
%TO.P,C3,2*%
%TO.N,/XTAL2*%
X62230000Y21510000D03*
%TD*%
%TO.P,C4,1*%
%TO.N,/~RESET*%
X86360000Y31750000D03*
%TO.P,C4,2*%
%TO.N,GND*%
X81360000Y31750000D03*
%TD*%
D11*
%TO.P,D1,1*%
%TO.N,GND*%
X99060000Y77470000D03*
D12*
%TO.P,D1,2*%
%TO.N,Net-(D1-Pad2)*%
X99060000Y74930000D03*
%TD*%
D13*
%TO.P,D2,1*%
%TO.N,+5V*%
X100330000Y36830000D03*
D14*
%TO.P,D2,2*%
%TO.N,/~RESET*%
X100330000Y44450000D03*
%TD*%
D15*
%TO.P,J1,1*%
%TO.N,/MOSI*%
X107950000Y7620000D03*
D16*
%TO.P,J1,2*%
%TO.N,+5V*%
X107950000Y5080000D03*
%TO.P,J1,3*%
%TO.N,Net-(J1-Pad3)*%
X105410000Y7620000D03*
%TO.P,J1,4*%
%TO.N,GND*%
X105410000Y5080000D03*
%TO.P,J1,5*%
%TO.N,/~RESET*%
X102870000Y7620000D03*
%TO.P,J1,6*%
%TO.N,GND*%
X102870000Y5080000D03*
%TO.P,J1,7*%
%TO.N,/SCK*%
X100330000Y7620000D03*
%TO.P,J1,8*%
%TO.N,GND*%
X100330000Y5080000D03*
%TO.P,J1,9*%
%TO.N,/MISO*%
X97790000Y7620000D03*
%TO.P,J1,10*%
%TO.N,GND*%
X97790000Y5080000D03*
%TD*%
D17*
%TO.P,J2,1*%
%TO.N,+5V*%
X80010000Y5080000D03*
D18*
%TO.P,J2,2*%
%TO.N,GND*%
X77470000Y5080000D03*
%TO.P,J2,3*%
%TO.N,Net-(J2-Pad3)*%
X74930000Y5080000D03*
%TO.P,J2,4*%
%TO.N,Net-(J2-Pad4)*%
X72390000Y5080000D03*
%TO.P,J2,5*%
%TO.N,/~RESET*%
X69850000Y5080000D03*
%TD*%
D10*
%TO.P,R1,1*%
%TO.N,/Tx*%
X76200000Y19050000D03*
D14*
%TO.P,R1,2*%
%TO.N,Net-(J2-Pad3)*%
X76200000Y11430000D03*
%TD*%
%TO.P,R2,2*%
%TO.N,Net-(J2-Pad4)*%
X72390000Y11430000D03*
D10*
%TO.P,R2,1*%
%TO.N,/Rx*%
X72390000Y19050000D03*
%TD*%
D14*
%TO.P,R3,2*%
%TO.N,/led0*%
X99060000Y62230000D03*
D10*
%TO.P,R3,1*%
%TO.N,Net-(D1-Pad2)*%
X99060000Y69850000D03*
%TD*%
%TO.P,R4,1*%
%TO.N,+5V*%
X100330000Y31750000D03*
D14*
%TO.P,R4,2*%
%TO.N,/~RESET*%
X92710000Y31750000D03*
%TD*%
D19*
%TO.P,U1,1*%
%TO.N,/~RESET*%
X81280000Y67310000D03*
D20*
%TO.P,U1,20*%
%TO.N,+5V*%
X88900000Y67310000D03*
%TO.P,U1,2*%
%TO.N,/Rx*%
X81280000Y64770000D03*
%TO.P,U1,19*%
%TO.N,/SCK*%
X88900000Y64770000D03*
%TO.P,U1,3*%
%TO.N,/Tx*%
X81280000Y62230000D03*
%TO.P,U1,18*%
%TO.N,/MISO*%
X88900000Y62230000D03*
%TO.P,U1,4*%
%TO.N,/XTAL2*%
X81280000Y59690000D03*
%TO.P,U1,17*%
%TO.N,/MOSI*%
X88900000Y59690000D03*
%TO.P,U1,5*%
%TO.N,/XTAL1*%
X81280000Y57150000D03*
%TO.P,U1,16*%
%TO.N,Net-(U1-Pad16)*%
X88900000Y57150000D03*
%TO.P,U1,6*%
%TO.N,Net-(U1-Pad6)*%
X81280000Y54610000D03*
%TO.P,U1,15*%
%TO.N,Net-(U1-Pad15)*%
X88900000Y54610000D03*
%TO.P,U1,7*%
%TO.N,Net-(U1-Pad7)*%
X81280000Y52070000D03*
%TO.P,U1,14*%
%TO.N,Net-(U1-Pad14)*%
X88900000Y52070000D03*
%TO.P,U1,8*%
%TO.N,Net-(U1-Pad8)*%
X81280000Y49530000D03*
%TO.P,U1,13*%
%TO.N,Net-(U1-Pad13)*%
X88900000Y49530000D03*
%TO.P,U1,9*%
%TO.N,Net-(U1-Pad9)*%
X81280000Y46990000D03*
%TO.P,U1,12*%
%TO.N,/led0*%
X88900000Y46990000D03*
%TO.P,U1,10*%
%TO.N,GND*%
X81280000Y44450000D03*
%TO.P,U1,11*%
%TO.N,Net-(U1-Pad11)*%
X88900000Y44450000D03*
%TD*%
D19*
%TO.P,U2,1*%
%TO.N,/~RESET*%
X58600000Y67310000D03*
D20*
%TO.P,U2,28*%
%TO.N,Net-(U2-Pad28)*%
X68760000Y67310000D03*
%TO.P,U2,2*%
%TO.N,/Rx*%
X58600000Y64770000D03*
%TO.P,U2,27*%
%TO.N,Net-(U2-Pad27)*%
X68760000Y64770000D03*
%TO.P,U2,3*%
%TO.N,/Tx*%
X58600000Y62230000D03*
%TO.P,U2,26*%
%TO.N,Net-(U2-Pad26)*%
X68760000Y62230000D03*
%TO.P,U2,4*%
%TO.N,Net-(U2-Pad4)*%
X58600000Y59690000D03*
%TO.P,U2,25*%
%TO.N,Net-(U2-Pad25)*%
X68760000Y59690000D03*
%TO.P,U2,5*%
%TO.N,Net-(U2-Pad5)*%
X58600000Y57150000D03*
%TO.P,U2,24*%
%TO.N,Net-(U2-Pad24)*%
X68760000Y57150000D03*
%TO.P,U2,6*%
%TO.N,Net-(U2-Pad6)*%
X58600000Y54610000D03*
%TO.P,U2,23*%
%TO.N,Net-(U2-Pad23)*%
X68760000Y54610000D03*
%TO.P,U2,7*%
%TO.N,+5V*%
X58600000Y52070000D03*
%TO.P,U2,22*%
%TO.N,GND*%
X68760000Y52070000D03*
%TO.P,U2,8*%
X58600000Y49530000D03*
%TO.P,U2,21*%
%TO.N,+5V*%
X68760000Y49530000D03*
%TO.P,U2,9*%
%TO.N,/XTAL1*%
X58600000Y46990000D03*
%TO.P,U2,20*%
%TO.N,+5V*%
X68760000Y46990000D03*
%TO.P,U2,10*%
%TO.N,/XTAL2*%
X58600000Y44450000D03*
%TO.P,U2,19*%
%TO.N,/SCK*%
X68760000Y44450000D03*
%TO.P,U2,11*%
%TO.N,Net-(U2-Pad11)*%
X58600000Y41910000D03*
%TO.P,U2,18*%
%TO.N,/MISO*%
X68760000Y41910000D03*
%TO.P,U2,12*%
%TO.N,Net-(U2-Pad12)*%
X58600000Y39370000D03*
%TO.P,U2,17*%
%TO.N,/MOSI*%
X68760000Y39370000D03*
%TO.P,U2,13*%
%TO.N,Net-(U2-Pad13)*%
X58600000Y36830000D03*
%TO.P,U2,16*%
%TO.N,Net-(U2-Pad16)*%
X68760000Y36830000D03*
%TO.P,U2,14*%
%TO.N,/led0*%
X58600000Y34290000D03*
%TO.P,U2,15*%
%TO.N,Net-(U2-Pad15)*%
X68760000Y34290000D03*
%TD*%
D19*
%TO.P,U3,1*%
%TO.N,/led0*%
X7620000Y67310000D03*
D20*
%TO.P,U3,40*%
%TO.N,Net-(U3-Pad40)*%
X22860000Y67310000D03*
%TO.P,U3,2*%
%TO.N,Net-(U3-Pad2)*%
X7620000Y64770000D03*
%TO.P,U3,39*%
%TO.N,Net-(U3-Pad39)*%
X22860000Y64770000D03*
%TO.P,U3,3*%
%TO.N,Net-(U3-Pad3)*%
X7620000Y62230000D03*
%TO.P,U3,38*%
%TO.N,Net-(U3-Pad38)*%
X22860000Y62230000D03*
%TO.P,U3,4*%
%TO.N,Net-(U3-Pad4)*%
X7620000Y59690000D03*
%TO.P,U3,37*%
%TO.N,Net-(U3-Pad37)*%
X22860000Y59690000D03*
%TO.P,U3,5*%
%TO.N,Net-(U3-Pad5)*%
X7620000Y57150000D03*
%TO.P,U3,36*%
%TO.N,Net-(U3-Pad36)*%
X22860000Y57150000D03*
%TO.P,U3,6*%
%TO.N,/MOSI*%
X7620000Y54610000D03*
%TO.P,U3,35*%
%TO.N,Net-(U3-Pad35)*%
X22860000Y54610000D03*
%TO.P,U3,7*%
%TO.N,/MISO*%
X7620000Y52070000D03*
%TO.P,U3,34*%
%TO.N,Net-(U3-Pad34)*%
X22860000Y52070000D03*
%TO.P,U3,8*%
%TO.N,/SCK*%
X7620000Y49530000D03*
%TO.P,U3,33*%
%TO.N,Net-(U3-Pad33)*%
X22860000Y49530000D03*
%TO.P,U3,9*%
%TO.N,/~RESET*%
X7620000Y46990000D03*
%TO.P,U3,32*%
%TO.N,+5V*%
X22860000Y46990000D03*
%TO.P,U3,10*%
X7620000Y44450000D03*
%TO.P,U3,31*%
%TO.N,GND*%
X22860000Y44450000D03*
%TO.P,U3,11*%
X7620000Y41910000D03*
%TO.P,U3,30*%
%TO.N,+5V*%
X22860000Y41910000D03*
%TO.P,U3,12*%
%TO.N,/XTAL2*%
X7620000Y39370000D03*
%TO.P,U3,29*%
%TO.N,Net-(U3-Pad29)*%
X22860000Y39370000D03*
%TO.P,U3,13*%
%TO.N,/XTAL1*%
X7620000Y36830000D03*
%TO.P,U3,28*%
%TO.N,Net-(U3-Pad28)*%
X22860000Y36830000D03*
%TO.P,U3,14*%
%TO.N,/Rx*%
X7620000Y34290000D03*
%TO.P,U3,27*%
%TO.N,Net-(U3-Pad27)*%
X22860000Y34290000D03*
%TO.P,U3,15*%
%TO.N,/Tx*%
X7620000Y31750000D03*
%TO.P,U3,26*%
%TO.N,Net-(U3-Pad26)*%
X22860000Y31750000D03*
%TO.P,U3,16*%
%TO.N,Net-(U3-Pad16)*%
X7620000Y29210000D03*
%TO.P,U3,25*%
%TO.N,Net-(U3-Pad25)*%
X22860000Y29210000D03*
%TO.P,U3,17*%
%TO.N,Net-(U3-Pad17)*%
X7620000Y26670000D03*
%TO.P,U3,24*%
%TO.N,Net-(U3-Pad24)*%
X22860000Y26670000D03*
%TO.P,U3,18*%
%TO.N,Net-(U3-Pad18)*%
X7620000Y24130000D03*
%TO.P,U3,23*%
%TO.N,Net-(U3-Pad23)*%
X22860000Y24130000D03*
%TO.P,U3,19*%
%TO.N,Net-(U3-Pad19)*%
X7620000Y21590000D03*
%TO.P,U3,22*%
%TO.N,Net-(U3-Pad22)*%
X22860000Y21590000D03*
%TO.P,U3,20*%
%TO.N,Net-(U3-Pad20)*%
X7620000Y19050000D03*
%TO.P,U3,21*%
%TO.N,Net-(U3-Pad21)*%
X22860000Y19050000D03*
%TD*%
%TO.P,U4,15*%
%TO.N,Net-(U4-Pad15)*%
X45720000Y34290000D03*
%TO.P,U4,14*%
%TO.N,/led0*%
X35560000Y34290000D03*
%TO.P,U4,16*%
%TO.N,Net-(U4-Pad16)*%
X45720000Y36830000D03*
%TO.P,U4,13*%
%TO.N,Net-(U4-Pad13)*%
X35560000Y36830000D03*
%TO.P,U4,17*%
%TO.N,/MOSI*%
X45720000Y39370000D03*
%TO.P,U4,12*%
%TO.N,Net-(U4-Pad12)*%
X35560000Y39370000D03*
%TO.P,U4,18*%
%TO.N,/MISO*%
X45720000Y41910000D03*
%TO.P,U4,11*%
%TO.N,Net-(U4-Pad11)*%
X35560000Y41910000D03*
%TO.P,U4,19*%
%TO.N,/SCK*%
X45720000Y44450000D03*
%TO.P,U4,10*%
%TO.N,/XTAL2*%
X35560000Y44450000D03*
%TO.P,U4,20*%
%TO.N,+5V*%
X45720000Y46990000D03*
%TO.P,U4,9*%
%TO.N,/XTAL1*%
X35560000Y46990000D03*
%TO.P,U4,21*%
%TO.N,+5V*%
X45720000Y49530000D03*
%TO.P,U4,8*%
%TO.N,GND*%
X35560000Y49530000D03*
%TO.P,U4,22*%
X45720000Y52070000D03*
%TO.P,U4,7*%
%TO.N,+5V*%
X35560000Y52070000D03*
%TO.P,U4,23*%
%TO.N,Net-(U4-Pad23)*%
X45720000Y54610000D03*
%TO.P,U4,6*%
%TO.N,Net-(U4-Pad6)*%
X35560000Y54610000D03*
%TO.P,U4,24*%
%TO.N,Net-(U4-Pad24)*%
X45720000Y57150000D03*
%TO.P,U4,5*%
%TO.N,Net-(U4-Pad5)*%
X35560000Y57150000D03*
%TO.P,U4,25*%
%TO.N,Net-(U4-Pad25)*%
X45720000Y59690000D03*
%TO.P,U4,4*%
%TO.N,Net-(U4-Pad4)*%
X35560000Y59690000D03*
%TO.P,U4,26*%
%TO.N,Net-(U4-Pad26)*%
X45720000Y62230000D03*
%TO.P,U4,3*%
%TO.N,/Tx*%
X35560000Y62230000D03*
%TO.P,U4,27*%
%TO.N,Net-(U4-Pad27)*%
X45720000Y64770000D03*
%TO.P,U4,2*%
%TO.N,/Rx*%
X35560000Y64770000D03*
%TO.P,U4,28*%
%TO.N,Net-(U4-Pad28)*%
X45720000Y67310000D03*
D19*
%TO.P,U4,1*%
%TO.N,/~RESET*%
X35560000Y67310000D03*
%TD*%
D21*
%TO.P,Y1,1*%
%TO.N,/XTAL1*%
X51085000Y21225000D03*
%TO.P,Y1,2*%
%TO.N,/XTAL2*%
X55965000Y21225000D03*
%TD*%
D22*
%TO.N,GND*%
X22860000Y44450000D02*
X27940000Y49530000D01*
X27940000Y49530000D02*
X35560000Y49530000D01*
X81360000Y31750000D02*
X81280000Y31670000D01*
X81280000Y31670000D02*
X81280000Y25400000D01*
X97790000Y5080000D02*
X96426100Y5080000D01*
X77470000Y5080000D02*
X78820300Y6430300D01*
X78820300Y6430300D02*
X95075800Y6430300D01*
X95075800Y6430300D02*
X96426100Y5080000D01*
X62230000Y16510000D02*
X44450000Y16510000D01*
X7620000Y41910000D02*
X7620000Y43130300D01*
X22860000Y44450000D02*
X22860000Y43229700D01*
X7620000Y43130300D02*
X22760600Y43130300D01*
X22760600Y43130300D02*
X22860000Y43229700D01*
X102870000Y5080000D02*
X105410000Y5080000D01*
X100330000Y5080000D02*
X102870000Y5080000D01*
X97790000Y5080000D02*
X100330000Y5080000D01*
X81280000Y44450000D02*
X81280000Y45670300D01*
X68760000Y52070000D02*
X68760000Y50849700D01*
X68760000Y50849700D02*
X74880300Y50849700D01*
X74880300Y50849700D02*
X80059700Y45670300D01*
X80059700Y45670300D02*
X81280000Y45670300D01*
X45720000Y52070000D02*
X48260000Y49530000D01*
X48260000Y49530000D02*
X58600000Y49530000D01*
%TO.N,+5V*%
X22860000Y46990000D02*
X22860000Y48210300D01*
X35560000Y52070000D02*
X27940000Y52070000D01*
X27940000Y52070000D02*
X24080300Y48210300D01*
X24080300Y48210300D02*
X22860000Y48210300D01*
X43686800Y52090100D02*
X43666700Y52070000D01*
X43666700Y52070000D02*
X35560000Y52070000D01*
X100330000Y31750000D02*
X93980000Y25400000D01*
X93980000Y25400000D02*
X86280000Y25400000D01*
X100330000Y36830000D02*
X100330000Y38130300D01*
X88900000Y67310000D02*
X88900000Y66089700D01*
X88900000Y66089700D02*
X89586400Y66089700D01*
X89586400Y66089700D02*
X101630300Y54045800D01*
X101630300Y54045800D02*
X101630300Y39430600D01*
X101630300Y39430600D02*
X100330000Y38130300D01*
X43686800Y52090100D02*
X44887000Y53290300D01*
X44887000Y53290300D02*
X58600000Y53290300D01*
X45720000Y50750300D02*
X45026500Y50750300D01*
X45026500Y50750300D02*
X43686800Y52090100D01*
X58600000Y52070000D02*
X58600000Y53290300D01*
X45720000Y49530000D02*
X45720000Y50750300D01*
X7620000Y44450000D02*
X7620000Y45670300D01*
X22860000Y46990000D02*
X22860000Y45769700D01*
X7620000Y45670300D02*
X22760600Y45670300D01*
X22760600Y45670300D02*
X22860000Y45769700D01*
%TO.N,/XTAL1*%
X35560000Y46990000D02*
X35560000Y48210300D01*
X35560000Y48210300D02*
X58600000Y48210300D01*
X58600000Y46990000D02*
X58600000Y48210300D01*
X81280000Y57150000D02*
X81280000Y55929700D01*
X81280000Y55929700D02*
X67539700Y55929700D01*
X67539700Y55929700D02*
X59820300Y48210300D01*
X59820300Y48210300D02*
X58600000Y48210300D01*
%TO.N,/XTAL2*%
X55965000Y21225000D02*
X61945000Y21225000D01*
X61945000Y21225000D02*
X62230000Y21510000D01*
X7620000Y39370000D02*
X7620000Y40590300D01*
X35560000Y44964800D02*
X31185500Y40590300D01*
X31185500Y40590300D02*
X7620000Y40590300D01*
X35560000Y44964800D02*
X35560000Y45670300D01*
X35560000Y44450000D02*
X35560000Y44964800D01*
X58600000Y45670300D02*
X35560000Y45670300D01*
X58600000Y45495200D02*
X58600000Y45670300D01*
X58600000Y44450000D02*
X58600000Y45495200D01*
X81280000Y58469700D02*
X81966400Y58469700D01*
X81966400Y58469700D02*
X82804900Y57631200D01*
X82804900Y57631200D02*
X82804900Y54113200D01*
X82804900Y54113200D02*
X82031700Y53340000D01*
X82031700Y53340000D02*
X67490000Y53340000D01*
X67490000Y53340000D02*
X59820300Y45670300D01*
X59820300Y45670300D02*
X58600000Y45670300D01*
X81280000Y59690000D02*
X81280000Y58469700D01*
%TO.N,/~RESET*%
X84896700Y22097700D02*
X84896700Y30286700D01*
X84896700Y30286700D02*
X86360000Y31750000D01*
X69850000Y5080000D02*
X69850000Y7051000D01*
X69850000Y7051000D02*
X84896700Y22097700D01*
X84896700Y22097700D02*
X88392300Y22097700D01*
X88392300Y22097700D02*
X102870000Y7620000D01*
X92710000Y31750000D02*
X86360000Y31750000D01*
X35560000Y67310000D02*
X35560000Y66089700D01*
X35560000Y66089700D02*
X57814700Y66089700D01*
X57814700Y66089700D02*
X58600000Y66875000D01*
X100330000Y44450000D02*
X100330000Y43149700D01*
X100330000Y43149700D02*
X92710000Y35529700D01*
X92710000Y35529700D02*
X92710000Y31750000D01*
X81280000Y67310000D02*
X81280000Y68530300D01*
X58600000Y66875000D02*
X60255300Y68530300D01*
X60255300Y68530300D02*
X81280000Y68530300D01*
X58600000Y67310000D02*
X58600000Y66875000D01*
%TO.N,/MOSI*%
X88900000Y58469700D02*
X88212600Y58469700D01*
X88212600Y58469700D02*
X86988900Y57246000D01*
X86988900Y57246000D02*
X86988900Y47158400D01*
X86988900Y47158400D02*
X78590400Y38759900D01*
X78590400Y38759900D02*
X68760000Y38759900D01*
X88900000Y59690000D02*
X88900000Y58469700D01*
X68760000Y38759900D02*
X68760000Y38149700D01*
X68760000Y39370000D02*
X68760000Y38759900D01*
X7620000Y54610000D02*
X7620000Y53389700D01*
X7620000Y53389700D02*
X6933600Y53389700D01*
X6933600Y53389700D02*
X6089200Y52545300D01*
X6089200Y52545300D02*
X6089200Y38864400D01*
X6089200Y38864400D02*
X6803900Y38149700D01*
X6803900Y38149700D02*
X45720000Y38149700D01*
X45720000Y39370000D02*
X45720000Y38149700D01*
X45720000Y38149700D02*
X68760000Y38149700D01*
%TO.N,/MISO*%
X85127700Y57924800D02*
X85127700Y46287700D01*
X85127700Y46287700D02*
X80750000Y41910000D01*
X80750000Y41910000D02*
X68760000Y41910000D01*
X88900000Y61009700D02*
X88212600Y61009700D01*
X88212600Y61009700D02*
X85127700Y57924800D01*
X85127700Y57924800D02*
X82099100Y60953400D01*
X82099100Y60953400D02*
X16503400Y60953400D01*
X16503400Y60953400D02*
X7620000Y52070000D01*
X68760000Y41910000D02*
X68760000Y40689700D01*
X45720000Y41910000D02*
X45720000Y40689700D01*
X45720000Y40689700D02*
X68760000Y40689700D01*
X88900000Y62230000D02*
X88900000Y61009700D01*
%TO.N,/Tx*%
X81280000Y62230000D02*
X81280000Y63450300D01*
X58600000Y62230000D02*
X59820300Y63450300D01*
X59820300Y63450300D02*
X81280000Y63450300D01*
%TO.N,/Rx*%
X35560000Y64770000D02*
X35560000Y63549700D01*
X35560000Y63549700D02*
X57597200Y63549700D01*
X57597200Y63549700D02*
X58600000Y64552500D01*
X81280000Y65380200D02*
X83160200Y63500000D01*
X83160200Y63500000D02*
X89664300Y63500000D01*
X89664300Y63500000D02*
X90422000Y62742300D01*
X90422000Y62742300D02*
X90422000Y43914600D01*
X90422000Y43914600D02*
X72390000Y25882600D01*
X72390000Y25882600D02*
X72390000Y19050000D01*
X81280000Y65380200D02*
X81280000Y65990300D01*
X81280000Y64770000D02*
X81280000Y65380200D01*
X58600000Y64552500D02*
X60037800Y65990300D01*
X60037800Y65990300D02*
X81280000Y65990300D01*
X58600000Y64770000D02*
X58600000Y64552500D01*
%TO.N,/led0*%
X88900000Y46990000D02*
X88900000Y45769700D01*
X58600000Y35510300D02*
X77420300Y35510300D01*
X77420300Y35510300D02*
X87679700Y45769700D01*
X87679700Y45769700D02*
X88900000Y45769700D01*
X58600000Y35335200D02*
X58600000Y35510300D01*
X58600000Y34290000D02*
X58600000Y35335200D01*
X35560000Y35510300D02*
X58600000Y35510300D01*
X7620000Y66089700D02*
X6933600Y66089700D01*
X6933600Y66089700D02*
X5357900Y64514000D01*
X5357900Y64514000D02*
X5357900Y37079600D01*
X5357900Y37079600D02*
X6927200Y35510300D01*
X6927200Y35510300D02*
X35560000Y35510300D01*
X7620000Y67310000D02*
X7620000Y66089700D01*
X35560000Y34290000D02*
X35560000Y35510300D01*
%TD*%
D23*
%TO.N,GND*%
G36*
X114910001Y660000D02*
G01*
X660000Y660000D01*
X660000Y15517298D01*
X43636903Y15517298D01*
X43708486Y15273329D01*
X43963996Y15152429D01*
X44238184Y15083700D01*
X44520512Y15069783D01*
X44800130Y15111213D01*
X45066292Y15206397D01*
X45191514Y15273329D01*
X45263097Y15517298D01*
X61416903Y15517298D01*
X61488486Y15273329D01*
X61743996Y15152429D01*
X62018184Y15083700D01*
X62300512Y15069783D01*
X62580130Y15111213D01*
X62846292Y15206397D01*
X62971514Y15273329D01*
X63043097Y15517298D01*
X62230000Y16330395D01*
X61416903Y15517298D01*
X45263097Y15517298D01*
X44450000Y16330395D01*
X43636903Y15517298D01*
X660000Y15517298D01*
X660000Y16439488D01*
X43009783Y16439488D01*
X43051213Y16159870D01*
X43146397Y15893708D01*
X43213329Y15768486D01*
X43457298Y15696903D01*
X44270395Y16510000D01*
X44629605Y16510000D01*
X45442702Y15696903D01*
X45686671Y15768486D01*
X45807571Y16023996D01*
X45876300Y16298184D01*
X45883265Y16439488D01*
X60789783Y16439488D01*
X60831213Y16159870D01*
X60926397Y15893708D01*
X60993329Y15768486D01*
X61237298Y15696903D01*
X62050395Y16510000D01*
X62409605Y16510000D01*
X63222702Y15696903D01*
X63466671Y15768486D01*
X63587571Y16023996D01*
X63656300Y16298184D01*
X63670217Y16580512D01*
X63628787Y16860130D01*
X63533603Y17126292D01*
X63466671Y17251514D01*
X63222702Y17323097D01*
X62409605Y16510000D01*
X62050395Y16510000D01*
X61237298Y17323097D01*
X60993329Y17251514D01*
X60872429Y16996004D01*
X60803700Y16721816D01*
X60789783Y16439488D01*
X45883265Y16439488D01*
X45890217Y16580512D01*
X45848787Y16860130D01*
X45753603Y17126292D01*
X45686671Y17251514D01*
X45442702Y17323097D01*
X44629605Y16510000D01*
X44270395Y16510000D01*
X43457298Y17323097D01*
X43213329Y17251514D01*
X43092429Y16996004D01*
X43023700Y16721816D01*
X43009783Y16439488D01*
X660000Y16439488D01*
X660000Y17502702D01*
X43636903Y17502702D01*
X44450000Y16689605D01*
X45263097Y17502702D01*
X61416903Y17502702D01*
X62230000Y16689605D01*
X63043097Y17502702D01*
X62971514Y17746671D01*
X62716004Y17867571D01*
X62441816Y17936300D01*
X62159488Y17950217D01*
X61879870Y17908787D01*
X61613708Y17813603D01*
X61488486Y17746671D01*
X61416903Y17502702D01*
X45263097Y17502702D01*
X45191514Y17746671D01*
X44936004Y17867571D01*
X44661816Y17936300D01*
X44379488Y17950217D01*
X44099870Y17908787D01*
X43833708Y17813603D01*
X43708486Y17746671D01*
X43636903Y17502702D01*
X660000Y17502702D01*
X660000Y64514000D01*
X4518860Y64514000D01*
X4522900Y64472982D01*
X4522901Y37120629D01*
X4518860Y37079600D01*
X4534982Y36915912D01*
X4582728Y36758514D01*
X4632012Y36666311D01*
X4660265Y36613454D01*
X4764610Y36486309D01*
X4796474Y36460159D01*
X6208938Y35047695D01*
X6207908Y35046440D01*
X6082086Y34811045D01*
X6004606Y34555626D01*
X5978444Y34290000D01*
X6004606Y34024374D01*
X6082086Y33768955D01*
X6207908Y33533560D01*
X6377235Y33327235D01*
X6583560Y33157908D01*
X6818955Y33032086D01*
X6858797Y33020000D01*
X6818955Y33007914D01*
X6583560Y32882092D01*
X6377235Y32712765D01*
X6207908Y32506440D01*
X6082086Y32271045D01*
X6004606Y32015626D01*
X5978444Y31750000D01*
X6004606Y31484374D01*
X6082086Y31228955D01*
X6207908Y30993560D01*
X6377235Y30787235D01*
X6583560Y30617908D01*
X6818955Y30492086D01*
X6858797Y30480000D01*
X6818955Y30467914D01*
X6583560Y30342092D01*
X6377235Y30172765D01*
X6207908Y29966440D01*
X6082086Y29731045D01*
X6004606Y29475626D01*
X5978444Y29210000D01*
X6004606Y28944374D01*
X6082086Y28688955D01*
X6207908Y28453560D01*
X6377235Y28247235D01*
X6583560Y28077908D01*
X6818955Y27952086D01*
X6858797Y27940000D01*
X6818955Y27927914D01*
X6583560Y27802092D01*
X6377235Y27632765D01*
X6207908Y27426440D01*
X6082086Y27191045D01*
X6004606Y26935626D01*
X5978444Y26670000D01*
X6004606Y26404374D01*
X6082086Y26148955D01*
X6207908Y25913560D01*
X6377235Y25707235D01*
X6583560Y25537908D01*
X6818955Y25412086D01*
X6858797Y25400000D01*
X6818955Y25387914D01*
X6583560Y25262092D01*
X6377235Y25092765D01*
X6207908Y24886440D01*
X6082086Y24651045D01*
X6004606Y24395626D01*
X5978444Y24130000D01*
X6004606Y23864374D01*
X6082086Y23608955D01*
X6207908Y23373560D01*
X6377235Y23167235D01*
X6583560Y22997908D01*
X6818955Y22872086D01*
X6858797Y22860000D01*
X6818955Y22847914D01*
X6583560Y22722092D01*
X6377235Y22552765D01*
X6207908Y22346440D01*
X6082086Y22111045D01*
X6004606Y21855626D01*
X5978444Y21590000D01*
X6004606Y21324374D01*
X6082086Y21068955D01*
X6207908Y20833560D01*
X6377235Y20627235D01*
X6583560Y20457908D01*
X6818955Y20332086D01*
X6858797Y20320000D01*
X6818955Y20307914D01*
X6583560Y20182092D01*
X6377235Y20012765D01*
X6207908Y19806440D01*
X6082086Y19571045D01*
X6004606Y19315626D01*
X5978444Y19050000D01*
X6004606Y18784374D01*
X6082086Y18528955D01*
X6207908Y18293560D01*
X6377235Y18087235D01*
X6583560Y17917908D01*
X6818955Y17792086D01*
X7074374Y17714606D01*
X7273436Y17695000D01*
X7966564Y17695000D01*
X8165626Y17714606D01*
X8421045Y17792086D01*
X8656440Y17917908D01*
X8862765Y18087235D01*
X9032092Y18293560D01*
X9157914Y18528955D01*
X9235394Y18784374D01*
X9261556Y19050000D01*
X9235394Y19315626D01*
X9157914Y19571045D01*
X9032092Y19806440D01*
X8862765Y20012765D01*
X8656440Y20182092D01*
X8421045Y20307914D01*
X8381203Y20320000D01*
X8421045Y20332086D01*
X8656440Y20457908D01*
X8862765Y20627235D01*
X9032092Y20833560D01*
X9157914Y21068955D01*
X9235394Y21324374D01*
X9261556Y21590000D01*
X9235394Y21855626D01*
X9157914Y22111045D01*
X9032092Y22346440D01*
X8862765Y22552765D01*
X8656440Y22722092D01*
X8421045Y22847914D01*
X8381203Y22860000D01*
X8421045Y22872086D01*
X8656440Y22997908D01*
X8862765Y23167235D01*
X9032092Y23373560D01*
X9157914Y23608955D01*
X9235394Y23864374D01*
X9261556Y24130000D01*
X9235394Y24395626D01*
X9157914Y24651045D01*
X9032092Y24886440D01*
X8862765Y25092765D01*
X8656440Y25262092D01*
X8421045Y25387914D01*
X8381203Y25400000D01*
X8421045Y25412086D01*
X8656440Y25537908D01*
X8862765Y25707235D01*
X9032092Y25913560D01*
X9157914Y26148955D01*
X9235394Y26404374D01*
X9261556Y26670000D01*
X9235394Y26935626D01*
X9157914Y27191045D01*
X9032092Y27426440D01*
X8862765Y27632765D01*
X8656440Y27802092D01*
X8421045Y27927914D01*
X8381203Y27940000D01*
X8421045Y27952086D01*
X8656440Y28077908D01*
X8862765Y28247235D01*
X9032092Y28453560D01*
X9157914Y28688955D01*
X9235394Y28944374D01*
X9261556Y29210000D01*
X9235394Y29475626D01*
X9157914Y29731045D01*
X9032092Y29966440D01*
X8862765Y30172765D01*
X8656440Y30342092D01*
X8421045Y30467914D01*
X8381203Y30480000D01*
X8421045Y30492086D01*
X8656440Y30617908D01*
X8862765Y30787235D01*
X9032092Y30993560D01*
X9157914Y31228955D01*
X9235394Y31484374D01*
X9261556Y31750000D01*
X9235394Y32015626D01*
X9157914Y32271045D01*
X9032092Y32506440D01*
X8862765Y32712765D01*
X8656440Y32882092D01*
X8421045Y33007914D01*
X8381203Y33020000D01*
X8421045Y33032086D01*
X8656440Y33157908D01*
X8862765Y33327235D01*
X9032092Y33533560D01*
X9157914Y33768955D01*
X9235394Y34024374D01*
X9261556Y34290000D01*
X9235394Y34555626D01*
X9199092Y34675300D01*
X21280908Y34675300D01*
X21244606Y34555626D01*
X21218444Y34290000D01*
X21244606Y34024374D01*
X21322086Y33768955D01*
X21447908Y33533560D01*
X21617235Y33327235D01*
X21823560Y33157908D01*
X22058955Y33032086D01*
X22098797Y33020000D01*
X22058955Y33007914D01*
X21823560Y32882092D01*
X21617235Y32712765D01*
X21447908Y32506440D01*
X21322086Y32271045D01*
X21244606Y32015626D01*
X21218444Y31750000D01*
X21244606Y31484374D01*
X21322086Y31228955D01*
X21447908Y30993560D01*
X21617235Y30787235D01*
X21823560Y30617908D01*
X22058955Y30492086D01*
X22098797Y30480000D01*
X22058955Y30467914D01*
X21823560Y30342092D01*
X21617235Y30172765D01*
X21447908Y29966440D01*
X21322086Y29731045D01*
X21244606Y29475626D01*
X21218444Y29210000D01*
X21244606Y28944374D01*
X21322086Y28688955D01*
X21447908Y28453560D01*
X21617235Y28247235D01*
X21823560Y28077908D01*
X22058955Y27952086D01*
X22098797Y27940000D01*
X22058955Y27927914D01*
X21823560Y27802092D01*
X21617235Y27632765D01*
X21447908Y27426440D01*
X21322086Y27191045D01*
X21244606Y26935626D01*
X21218444Y26670000D01*
X21244606Y26404374D01*
X21322086Y26148955D01*
X21447908Y25913560D01*
X21617235Y25707235D01*
X21823560Y25537908D01*
X22058955Y25412086D01*
X22098797Y25400000D01*
X22058955Y25387914D01*
X21823560Y25262092D01*
X21617235Y25092765D01*
X21447908Y24886440D01*
X21322086Y24651045D01*
X21244606Y24395626D01*
X21218444Y24130000D01*
X21244606Y23864374D01*
X21322086Y23608955D01*
X21447908Y23373560D01*
X21617235Y23167235D01*
X21823560Y22997908D01*
X22058955Y22872086D01*
X22098797Y22860000D01*
X22058955Y22847914D01*
X21823560Y22722092D01*
X21617235Y22552765D01*
X21447908Y22346440D01*
X21322086Y22111045D01*
X21244606Y21855626D01*
X21218444Y21590000D01*
X21244606Y21324374D01*
X21322086Y21068955D01*
X21447908Y20833560D01*
X21617235Y20627235D01*
X21823560Y20457908D01*
X22058955Y20332086D01*
X22098797Y20320000D01*
X22058955Y20307914D01*
X21823560Y20182092D01*
X21617235Y20012765D01*
X21447908Y19806440D01*
X21322086Y19571045D01*
X21244606Y19315626D01*
X21218444Y19050000D01*
X21244606Y18784374D01*
X21322086Y18528955D01*
X21447908Y18293560D01*
X21617235Y18087235D01*
X21823560Y17917908D01*
X22058955Y17792086D01*
X22314374Y17714606D01*
X22513436Y17695000D01*
X23206564Y17695000D01*
X23405626Y17714606D01*
X23661045Y17792086D01*
X23896440Y17917908D01*
X24102765Y18087235D01*
X24272092Y18293560D01*
X24397914Y18528955D01*
X24475394Y18784374D01*
X24501556Y19050000D01*
X24475394Y19315626D01*
X24397914Y19571045D01*
X24272092Y19806440D01*
X24102765Y20012765D01*
X23896440Y20182092D01*
X23661045Y20307914D01*
X23621203Y20320000D01*
X23661045Y20332086D01*
X23896440Y20457908D01*
X24102765Y20627235D01*
X24272092Y20833560D01*
X24397914Y21068955D01*
X24475394Y21324374D01*
X24501556Y21590000D01*
X24495516Y21651335D01*
X43015000Y21651335D01*
X43015000Y21368665D01*
X43070147Y21091426D01*
X43178320Y20830273D01*
X43335363Y20595241D01*
X43535241Y20395363D01*
X43770273Y20238320D01*
X44031426Y20130147D01*
X44308665Y20075000D01*
X44591335Y20075000D01*
X44868574Y20130147D01*
X45129727Y20238320D01*
X45364759Y20395363D01*
X45564637Y20595241D01*
X45721680Y20830273D01*
X45829853Y21091426D01*
X45883557Y21361411D01*
X49700000Y21361411D01*
X49700000Y21088589D01*
X49753225Y20821011D01*
X49857629Y20568957D01*
X50009201Y20342114D01*
X50202114Y20149201D01*
X50428957Y19997629D01*
X50681011Y19893225D01*
X50948589Y19840000D01*
X51221411Y19840000D01*
X51488989Y19893225D01*
X51741043Y19997629D01*
X51967886Y20149201D01*
X52160799Y20342114D01*
X52312371Y20568957D01*
X52416775Y20821011D01*
X52470000Y21088589D01*
X52470000Y21361411D01*
X54580000Y21361411D01*
X54580000Y21088589D01*
X54633225Y20821011D01*
X54737629Y20568957D01*
X54889201Y20342114D01*
X55082114Y20149201D01*
X55308957Y19997629D01*
X55561011Y19893225D01*
X55828589Y19840000D01*
X56101411Y19840000D01*
X56368989Y19893225D01*
X56621043Y19997629D01*
X56847886Y20149201D01*
X57040799Y20342114D01*
X57072795Y20390000D01*
X61323267Y20390000D01*
X61550273Y20238320D01*
X61811426Y20130147D01*
X62088665Y20075000D01*
X62371335Y20075000D01*
X62648574Y20130147D01*
X62909727Y20238320D01*
X63144759Y20395363D01*
X63344637Y20595241D01*
X63501680Y20830273D01*
X63609853Y21091426D01*
X63665000Y21368665D01*
X63665000Y21651335D01*
X63609853Y21928574D01*
X63501680Y22189727D01*
X63344637Y22424759D01*
X63144759Y22624637D01*
X62909727Y22781680D01*
X62648574Y22889853D01*
X62371335Y22945000D01*
X62088665Y22945000D01*
X61811426Y22889853D01*
X61550273Y22781680D01*
X61315241Y22624637D01*
X61115363Y22424759D01*
X60958320Y22189727D01*
X60904585Y22060000D01*
X57072795Y22060000D01*
X57040799Y22107886D01*
X56847886Y22300799D01*
X56621043Y22452371D01*
X56368989Y22556775D01*
X56101411Y22610000D01*
X55828589Y22610000D01*
X55561011Y22556775D01*
X55308957Y22452371D01*
X55082114Y22300799D01*
X54889201Y22107886D01*
X54737629Y21881043D01*
X54633225Y21628989D01*
X54580000Y21361411D01*
X52470000Y21361411D01*
X52416775Y21628989D01*
X52312371Y21881043D01*
X52160799Y22107886D01*
X51967886Y22300799D01*
X51741043Y22452371D01*
X51488989Y22556775D01*
X51221411Y22610000D01*
X50948589Y22610000D01*
X50681011Y22556775D01*
X50428957Y22452371D01*
X50202114Y22300799D01*
X50009201Y22107886D01*
X49857629Y21881043D01*
X49753225Y21628989D01*
X49700000Y21361411D01*
X45883557Y21361411D01*
X45885000Y21368665D01*
X45885000Y21651335D01*
X45829853Y21928574D01*
X45721680Y22189727D01*
X45564637Y22424759D01*
X45364759Y22624637D01*
X45129727Y22781680D01*
X44868574Y22889853D01*
X44591335Y22945000D01*
X44308665Y22945000D01*
X44031426Y22889853D01*
X43770273Y22781680D01*
X43535241Y22624637D01*
X43335363Y22424759D01*
X43178320Y22189727D01*
X43070147Y21928574D01*
X43015000Y21651335D01*
X24495516Y21651335D01*
X24475394Y21855626D01*
X24397914Y22111045D01*
X24272092Y22346440D01*
X24102765Y22552765D01*
X23896440Y22722092D01*
X23661045Y22847914D01*
X23621203Y22860000D01*
X23661045Y22872086D01*
X23896440Y22997908D01*
X24102765Y23167235D01*
X24272092Y23373560D01*
X24397914Y23608955D01*
X24475394Y23864374D01*
X24501556Y24130000D01*
X24475394Y24395626D01*
X24397914Y24651045D01*
X24272092Y24886440D01*
X24102765Y25092765D01*
X23896440Y25262092D01*
X23661045Y25387914D01*
X23621203Y25400000D01*
X23661045Y25412086D01*
X23896440Y25537908D01*
X24102765Y25707235D01*
X24272092Y25913560D01*
X24397914Y26148955D01*
X24475394Y26404374D01*
X24501556Y26670000D01*
X24475394Y26935626D01*
X24397914Y27191045D01*
X24272092Y27426440D01*
X24102765Y27632765D01*
X23896440Y27802092D01*
X23661045Y27927914D01*
X23621203Y27940000D01*
X23661045Y27952086D01*
X23896440Y28077908D01*
X24102765Y28247235D01*
X24272092Y28453560D01*
X24397914Y28688955D01*
X24475394Y28944374D01*
X24501556Y29210000D01*
X24475394Y29475626D01*
X24397914Y29731045D01*
X24272092Y29966440D01*
X24102765Y30172765D01*
X23896440Y30342092D01*
X23661045Y30467914D01*
X23621203Y30480000D01*
X23661045Y30492086D01*
X23896440Y30617908D01*
X24102765Y30787235D01*
X24272092Y30993560D01*
X24397914Y31228955D01*
X24475394Y31484374D01*
X24501556Y31750000D01*
X24475394Y32015626D01*
X24397914Y32271045D01*
X24272092Y32506440D01*
X24102765Y32712765D01*
X23896440Y32882092D01*
X23661045Y33007914D01*
X23621203Y33020000D01*
X23661045Y33032086D01*
X23896440Y33157908D01*
X24102765Y33327235D01*
X24272092Y33533560D01*
X24397914Y33768955D01*
X24475394Y34024374D01*
X24501556Y34290000D01*
X24475394Y34555626D01*
X24439092Y34675300D01*
X33980908Y34675300D01*
X33944606Y34555626D01*
X33918444Y34290000D01*
X33944606Y34024374D01*
X34022086Y33768955D01*
X34147908Y33533560D01*
X34317235Y33327235D01*
X34523560Y33157908D01*
X34758955Y33032086D01*
X35014374Y32954606D01*
X35213436Y32935000D01*
X35906564Y32935000D01*
X36105626Y32954606D01*
X36361045Y33032086D01*
X36596440Y33157908D01*
X36802765Y33327235D01*
X36972092Y33533560D01*
X37097914Y33768955D01*
X37175394Y34024374D01*
X37201556Y34290000D01*
X37175394Y34555626D01*
X37139092Y34675300D01*
X44140908Y34675300D01*
X44104606Y34555626D01*
X44078444Y34290000D01*
X44104606Y34024374D01*
X44182086Y33768955D01*
X44307908Y33533560D01*
X44477235Y33327235D01*
X44683560Y33157908D01*
X44918955Y33032086D01*
X45174374Y32954606D01*
X45373436Y32935000D01*
X46066564Y32935000D01*
X46265626Y32954606D01*
X46521045Y33032086D01*
X46756440Y33157908D01*
X46962765Y33327235D01*
X47132092Y33533560D01*
X47257914Y33768955D01*
X47335394Y34024374D01*
X47361556Y34290000D01*
X47335394Y34555626D01*
X47299092Y34675300D01*
X57020908Y34675300D01*
X56984606Y34555626D01*
X56958444Y34290000D01*
X56984606Y34024374D01*
X57062086Y33768955D01*
X57187908Y33533560D01*
X57357235Y33327235D01*
X57563560Y33157908D01*
X57798955Y33032086D01*
X58054374Y32954606D01*
X58253436Y32935000D01*
X58946564Y32935000D01*
X59145626Y32954606D01*
X59401045Y33032086D01*
X59636440Y33157908D01*
X59842765Y33327235D01*
X60012092Y33533560D01*
X60137914Y33768955D01*
X60215394Y34024374D01*
X60241556Y34290000D01*
X60215394Y34555626D01*
X60179092Y34675300D01*
X67180908Y34675300D01*
X67144606Y34555626D01*
X67118444Y34290000D01*
X67144606Y34024374D01*
X67222086Y33768955D01*
X67347908Y33533560D01*
X67517235Y33327235D01*
X67723560Y33157908D01*
X67958955Y33032086D01*
X68214374Y32954606D01*
X68413436Y32935000D01*
X69106564Y32935000D01*
X69305626Y32954606D01*
X69561045Y33032086D01*
X69796440Y33157908D01*
X70002765Y33327235D01*
X70172092Y33533560D01*
X70297914Y33768955D01*
X70375394Y34024374D01*
X70401556Y34290000D01*
X70375394Y34555626D01*
X70339092Y34675300D01*
X77379282Y34675300D01*
X77420300Y34671260D01*
X77461318Y34675300D01*
X77461319Y34675300D01*
X77583989Y34687382D01*
X77741387Y34735128D01*
X77886446Y34812664D01*
X78013591Y34917009D01*
X78039746Y34948879D01*
X87283766Y44192898D01*
X87284606Y44184374D01*
X87362086Y43928955D01*
X87487908Y43693560D01*
X87657235Y43487235D01*
X87863560Y43317908D01*
X88098955Y43192086D01*
X88354374Y43114606D01*
X88433358Y43106827D01*
X71828579Y26502046D01*
X71796709Y26475891D01*
X71692365Y26348746D01*
X71692364Y26348745D01*
X71614828Y26203686D01*
X71567082Y26046288D01*
X71550960Y25882600D01*
X71555000Y25841581D01*
X71555001Y20217931D01*
X71475241Y20164637D01*
X71275363Y19964759D01*
X71118320Y19729727D01*
X71010147Y19468574D01*
X70955000Y19191335D01*
X70955000Y18908665D01*
X71010147Y18631426D01*
X71118320Y18370273D01*
X71275363Y18135241D01*
X71475241Y17935363D01*
X71710273Y17778320D01*
X71971426Y17670147D01*
X72248665Y17615000D01*
X72531335Y17615000D01*
X72808574Y17670147D01*
X73069727Y17778320D01*
X73304759Y17935363D01*
X73504637Y18135241D01*
X73661680Y18370273D01*
X73769853Y18631426D01*
X73825000Y18908665D01*
X73825000Y19191335D01*
X74765000Y19191335D01*
X74765000Y18908665D01*
X74820147Y18631426D01*
X74928320Y18370273D01*
X75085363Y18135241D01*
X75285241Y17935363D01*
X75520273Y17778320D01*
X75781426Y17670147D01*
X76058665Y17615000D01*
X76341335Y17615000D01*
X76618574Y17670147D01*
X76879727Y17778320D01*
X77114759Y17935363D01*
X77314637Y18135241D01*
X77471680Y18370273D01*
X77579853Y18631426D01*
X77635000Y18908665D01*
X77635000Y19191335D01*
X77579853Y19468574D01*
X77471680Y19729727D01*
X77314637Y19964759D01*
X77114759Y20164637D01*
X76879727Y20321680D01*
X76618574Y20429853D01*
X76341335Y20485000D01*
X76058665Y20485000D01*
X75781426Y20429853D01*
X75520273Y20321680D01*
X75285241Y20164637D01*
X75085363Y19964759D01*
X74928320Y19729727D01*
X74820147Y19468574D01*
X74765000Y19191335D01*
X73825000Y19191335D01*
X73769853Y19468574D01*
X73661680Y19729727D01*
X73504637Y19964759D01*
X73304759Y20164637D01*
X73225000Y20217930D01*
X73225000Y24407298D01*
X80466903Y24407298D01*
X80538486Y24163329D01*
X80793996Y24042429D01*
X81068184Y23973700D01*
X81350512Y23959783D01*
X81630130Y24001213D01*
X81896292Y24096397D01*
X82021514Y24163329D01*
X82093097Y24407298D01*
X81280000Y25220395D01*
X80466903Y24407298D01*
X73225000Y24407298D01*
X73225000Y25329488D01*
X79839783Y25329488D01*
X79881213Y25049870D01*
X79976397Y24783708D01*
X80043329Y24658486D01*
X80287298Y24586903D01*
X81100395Y25400000D01*
X81459605Y25400000D01*
X82272702Y24586903D01*
X82516671Y24658486D01*
X82637571Y24913996D01*
X82706300Y25188184D01*
X82720217Y25470512D01*
X82678787Y25750130D01*
X82583603Y26016292D01*
X82516671Y26141514D01*
X82272702Y26213097D01*
X81459605Y25400000D01*
X81100395Y25400000D01*
X80287298Y26213097D01*
X80043329Y26141514D01*
X79922429Y25886004D01*
X79853700Y25611816D01*
X79839783Y25329488D01*
X73225000Y25329488D01*
X73225000Y25536733D01*
X74080969Y26392702D01*
X80466903Y26392702D01*
X81280000Y25579605D01*
X82093097Y26392702D01*
X82021514Y26636671D01*
X81766004Y26757571D01*
X81491816Y26826300D01*
X81209488Y26840217D01*
X80929870Y26798787D01*
X80663708Y26703603D01*
X80538486Y26636671D01*
X80466903Y26392702D01*
X74080969Y26392702D01*
X78445565Y30757298D01*
X80546903Y30757298D01*
X80618486Y30513329D01*
X80873996Y30392429D01*
X81148184Y30323700D01*
X81430512Y30309783D01*
X81710130Y30351213D01*
X81976292Y30446397D01*
X82101514Y30513329D01*
X82173097Y30757298D01*
X81360000Y31570395D01*
X80546903Y30757298D01*
X78445565Y30757298D01*
X80072626Y32384358D01*
X80002429Y32236004D01*
X79933700Y31961816D01*
X79919783Y31679488D01*
X79961213Y31399870D01*
X80056397Y31133708D01*
X80123329Y31008486D01*
X80367298Y30936903D01*
X81180395Y31750000D01*
X81539605Y31750000D01*
X82352702Y30936903D01*
X82596671Y31008486D01*
X82717571Y31263996D01*
X82786300Y31538184D01*
X82800217Y31820512D01*
X82758787Y32100130D01*
X82663603Y32366292D01*
X82596671Y32491514D01*
X82352702Y32563097D01*
X81539605Y31750000D01*
X81180395Y31750000D01*
X81166253Y31764142D01*
X81345858Y31943747D01*
X81360000Y31929605D01*
X82173097Y32742702D01*
X82101514Y32986671D01*
X81846004Y33107571D01*
X81571816Y33176300D01*
X81289488Y33190217D01*
X81009870Y33148787D01*
X80743708Y33053603D01*
X80739761Y33051493D01*
X90983432Y43295163D01*
X91015291Y43321309D01*
X91119636Y43448454D01*
X91197172Y43593513D01*
X91244918Y43750911D01*
X91257000Y43873581D01*
X91261040Y43914600D01*
X91257000Y43955618D01*
X91257000Y62701282D01*
X91261040Y62742300D01*
X91244918Y62905988D01*
X91244700Y62906709D01*
X91197172Y63063387D01*
X91119636Y63208446D01*
X91015291Y63335591D01*
X90983433Y63361736D01*
X90318890Y64026278D01*
X90371162Y64124071D01*
X100795300Y53699931D01*
X100795301Y45810498D01*
X100748574Y45829853D01*
X100471335Y45885000D01*
X100188665Y45885000D01*
X99911426Y45829853D01*
X99650273Y45721680D01*
X99415241Y45564637D01*
X99215363Y45364759D01*
X99058320Y45129727D01*
X98950147Y44868574D01*
X98895000Y44591335D01*
X98895000Y44308665D01*
X98950147Y44031426D01*
X99058320Y43770273D01*
X99215363Y43535241D01*
X99375018Y43375586D01*
X92148579Y36149146D01*
X92116709Y36122991D01*
X92040394Y36030000D01*
X92012364Y35995845D01*
X91934828Y35850786D01*
X91887082Y35693388D01*
X91870960Y35529700D01*
X91875000Y35488681D01*
X91875001Y32917931D01*
X91795241Y32864637D01*
X91595363Y32664759D01*
X91542070Y32585000D01*
X87527930Y32585000D01*
X87474637Y32664759D01*
X87274759Y32864637D01*
X87039727Y33021680D01*
X86778574Y33129853D01*
X86501335Y33185000D01*
X86218665Y33185000D01*
X85941426Y33129853D01*
X85680273Y33021680D01*
X85445241Y32864637D01*
X85245363Y32664759D01*
X85088320Y32429727D01*
X84980147Y32168574D01*
X84925000Y31891335D01*
X84925000Y31608665D01*
X84943714Y31514582D01*
X84335274Y30906141D01*
X84303410Y30879991D01*
X84277262Y30848129D01*
X84199064Y30752845D01*
X84121528Y30607786D01*
X84073782Y30450388D01*
X84057660Y30286700D01*
X84061701Y30245671D01*
X84061700Y22443568D01*
X73681064Y12062931D01*
X73661680Y12109727D01*
X73504637Y12344759D01*
X73304759Y12544637D01*
X73069727Y12701680D01*
X72808574Y12809853D01*
X72531335Y12865000D01*
X72248665Y12865000D01*
X71971426Y12809853D01*
X71710273Y12701680D01*
X71475241Y12544637D01*
X71275363Y12344759D01*
X71118320Y12109727D01*
X71010147Y11848574D01*
X70955000Y11571335D01*
X70955000Y11288665D01*
X71010147Y11011426D01*
X71118320Y10750273D01*
X71275363Y10515241D01*
X71475241Y10315363D01*
X71710273Y10158320D01*
X71757069Y10138936D01*
X69288574Y7670441D01*
X69256710Y7644291D01*
X69230562Y7612429D01*
X69152364Y7517145D01*
X69074828Y7372086D01*
X69027082Y7214688D01*
X69010960Y7051000D01*
X69015001Y7009972D01*
X69015001Y6308065D01*
X68903368Y6233475D01*
X68696525Y6026632D01*
X68534010Y5783411D01*
X68422068Y5513158D01*
X68365000Y5226260D01*
X68365000Y4933740D01*
X68422068Y4646842D01*
X68534010Y4376589D01*
X68696525Y4133368D01*
X68903368Y3926525D01*
X69146589Y3764010D01*
X69416842Y3652068D01*
X69703740Y3595000D01*
X69996260Y3595000D01*
X70283158Y3652068D01*
X70553411Y3764010D01*
X70796632Y3926525D01*
X71003475Y4133368D01*
X71120000Y4307760D01*
X71236525Y4133368D01*
X71443368Y3926525D01*
X71686589Y3764010D01*
X71956842Y3652068D01*
X72243740Y3595000D01*
X72536260Y3595000D01*
X72823158Y3652068D01*
X73093411Y3764010D01*
X73336632Y3926525D01*
X73543475Y4133368D01*
X73660000Y4307760D01*
X73776525Y4133368D01*
X73983368Y3926525D01*
X74226589Y3764010D01*
X74496842Y3652068D01*
X74783740Y3595000D01*
X75076260Y3595000D01*
X75363158Y3652068D01*
X75633411Y3764010D01*
X75876632Y3926525D01*
X76083475Y4133368D01*
X76205195Y4315534D01*
X76274822Y4198645D01*
X76469731Y3982412D01*
X76703080Y3808359D01*
X76965901Y3683175D01*
X77113110Y3638524D01*
X77343000Y3759845D01*
X77343000Y4953000D01*
X77323000Y4953000D01*
X77323000Y5207000D01*
X77343000Y5207000D01*
X77343000Y6400155D01*
X77597000Y6400155D01*
X77597000Y5207000D01*
X77617000Y5207000D01*
X77617000Y4953000D01*
X77597000Y4953000D01*
X77597000Y3759845D01*
X77826890Y3638524D01*
X77974099Y3683175D01*
X78236920Y3808359D01*
X78470269Y3982412D01*
X78546034Y4066466D01*
X78570498Y3985820D01*
X78629463Y3875506D01*
X78708815Y3778815D01*
X78805506Y3699463D01*
X78915820Y3640498D01*
X79035518Y3604188D01*
X79160000Y3591928D01*
X80860000Y3591928D01*
X80984482Y3604188D01*
X81104180Y3640498D01*
X81214494Y3699463D01*
X81311185Y3778815D01*
X81390537Y3875506D01*
X81449502Y3985820D01*
X81485812Y4105518D01*
X81498072Y4230000D01*
X81498072Y4720973D01*
X96335037Y4720973D01*
X96433036Y4444022D01*
X96583183Y4191512D01*
X96779707Y3973146D01*
X97015056Y3797316D01*
X97280186Y3670778D01*
X97430974Y3625042D01*
X97663000Y3746183D01*
X97663000Y4953000D01*
X97917000Y4953000D01*
X97917000Y3746183D01*
X98149026Y3625042D01*
X98299814Y3670778D01*
X98564944Y3797316D01*
X98800293Y3973146D01*
X98996817Y4191512D01*
X99060000Y4297770D01*
X99123183Y4191512D01*
X99319707Y3973146D01*
X99555056Y3797316D01*
X99820186Y3670778D01*
X99970974Y3625042D01*
X100203000Y3746183D01*
X100203000Y4953000D01*
X100457000Y4953000D01*
X100457000Y3746183D01*
X100689026Y3625042D01*
X100839814Y3670778D01*
X101104944Y3797316D01*
X101340293Y3973146D01*
X101536817Y4191512D01*
X101600000Y4297770D01*
X101663183Y4191512D01*
X101859707Y3973146D01*
X102095056Y3797316D01*
X102360186Y3670778D01*
X102510974Y3625042D01*
X102743000Y3746183D01*
X102743000Y4953000D01*
X102997000Y4953000D01*
X102997000Y3746183D01*
X103229026Y3625042D01*
X103379814Y3670778D01*
X103644944Y3797316D01*
X103880293Y3973146D01*
X104076817Y4191512D01*
X104140000Y4297770D01*
X104203183Y4191512D01*
X104399707Y3973146D01*
X104635056Y3797316D01*
X104900186Y3670778D01*
X105050974Y3625042D01*
X105283000Y3746183D01*
X105283000Y4953000D01*
X102997000Y4953000D01*
X102743000Y4953000D01*
X100457000Y4953000D01*
X100203000Y4953000D01*
X97917000Y4953000D01*
X97663000Y4953000D01*
X96455536Y4953000D01*
X96335037Y4720973D01*
X81498072Y4720973D01*
X81498072Y5930000D01*
X81485812Y6054482D01*
X81449502Y6174180D01*
X81390537Y6284494D01*
X81311185Y6381185D01*
X81214494Y6460537D01*
X81104180Y6519502D01*
X80984482Y6555812D01*
X80860000Y6568072D01*
X79160000Y6568072D01*
X79035518Y6555812D01*
X78915820Y6519502D01*
X78805506Y6460537D01*
X78708815Y6381185D01*
X78629463Y6284494D01*
X78570498Y6174180D01*
X78546034Y6093534D01*
X78470269Y6177588D01*
X78236920Y6351641D01*
X77974099Y6476825D01*
X77826890Y6521476D01*
X77597000Y6400155D01*
X77343000Y6400155D01*
X77113110Y6521476D01*
X76965901Y6476825D01*
X76703080Y6351641D01*
X76469731Y6177588D01*
X76274822Y5961355D01*
X76205195Y5844466D01*
X76083475Y6026632D01*
X75876632Y6233475D01*
X75633411Y6395990D01*
X75363158Y6507932D01*
X75076260Y6565000D01*
X74783740Y6565000D01*
X74496842Y6507932D01*
X74226589Y6395990D01*
X73983368Y6233475D01*
X73776525Y6026632D01*
X73660000Y5852240D01*
X73543475Y6026632D01*
X73336632Y6233475D01*
X73093411Y6395990D01*
X72823158Y6507932D01*
X72536260Y6565000D01*
X72243740Y6565000D01*
X71956842Y6507932D01*
X71686589Y6395990D01*
X71443368Y6233475D01*
X71236525Y6026632D01*
X71120000Y5852240D01*
X71003475Y6026632D01*
X70796632Y6233475D01*
X70685000Y6308065D01*
X70685000Y6705133D01*
X74870275Y10890407D01*
X74928320Y10750273D01*
X75085363Y10515241D01*
X75285241Y10315363D01*
X75520273Y10158320D01*
X75781426Y10050147D01*
X76058665Y9995000D01*
X76341335Y9995000D01*
X76618574Y10050147D01*
X76879727Y10158320D01*
X77114759Y10315363D01*
X77314637Y10515241D01*
X77471680Y10750273D01*
X77579853Y11011426D01*
X77635000Y11288665D01*
X77635000Y11571335D01*
X77579853Y11848574D01*
X77471680Y12109727D01*
X77314637Y12344759D01*
X77114759Y12544637D01*
X76879727Y12701680D01*
X76739593Y12759725D01*
X85242568Y21262700D01*
X88046433Y21262700D01*
X100190531Y9118600D01*
X100182401Y9118600D01*
X99892875Y9061010D01*
X99620147Y8948042D01*
X99374698Y8784039D01*
X99165961Y8575302D01*
X99060000Y8416719D01*
X98954039Y8575302D01*
X98745302Y8784039D01*
X98499853Y8948042D01*
X98227125Y9061010D01*
X97937599Y9118600D01*
X97642401Y9118600D01*
X97352875Y9061010D01*
X97080147Y8948042D01*
X96834698Y8784039D01*
X96625961Y8575302D01*
X96461958Y8329853D01*
X96348990Y8057125D01*
X96291400Y7767599D01*
X96291400Y7472401D01*
X96348990Y7182875D01*
X96461958Y6910147D01*
X96625961Y6664698D01*
X96834698Y6455961D01*
X96995813Y6348308D01*
X96779707Y6186854D01*
X96583183Y5968488D01*
X96433036Y5715978D01*
X96335037Y5439027D01*
X96455536Y5207000D01*
X97663000Y5207000D01*
X97663000Y5227000D01*
X97917000Y5227000D01*
X97917000Y5207000D01*
X100203000Y5207000D01*
X100203000Y5227000D01*
X100457000Y5227000D01*
X100457000Y5207000D01*
X102743000Y5207000D01*
X102743000Y5227000D01*
X102997000Y5227000D01*
X102997000Y5207000D01*
X105283000Y5207000D01*
X105283000Y5227000D01*
X105537000Y5227000D01*
X105537000Y5207000D01*
X105557000Y5207000D01*
X105557000Y4953000D01*
X105537000Y4953000D01*
X105537000Y3746183D01*
X105769026Y3625042D01*
X105919814Y3670778D01*
X106184944Y3797316D01*
X106420293Y3973146D01*
X106616817Y4191512D01*
X106675441Y4290103D01*
X106785961Y4124698D01*
X106994698Y3915961D01*
X107240147Y3751958D01*
X107512875Y3638990D01*
X107802401Y3581400D01*
X108097599Y3581400D01*
X108387125Y3638990D01*
X108659853Y3751958D01*
X108905302Y3915961D01*
X109114039Y4124698D01*
X109278042Y4370147D01*
X109391010Y4642875D01*
X109448600Y4932401D01*
X109448600Y5227599D01*
X109391010Y5517125D01*
X109278042Y5789853D01*
X109114039Y6035302D01*
X108999977Y6149364D01*
X109057780Y6166898D01*
X109168094Y6225863D01*
X109264785Y6305215D01*
X109344137Y6401906D01*
X109403102Y6512220D01*
X109439412Y6631918D01*
X109451672Y6756400D01*
X109451672Y8483600D01*
X109439412Y8608082D01*
X109403102Y8727780D01*
X109344137Y8838094D01*
X109264785Y8934785D01*
X109168094Y9014137D01*
X109057780Y9073102D01*
X108938082Y9109412D01*
X108813600Y9121672D01*
X107086400Y9121672D01*
X106961918Y9109412D01*
X106842220Y9073102D01*
X106731906Y9014137D01*
X106635215Y8934785D01*
X106555863Y8838094D01*
X106496898Y8727780D01*
X106479364Y8669977D01*
X106365302Y8784039D01*
X106119853Y8948042D01*
X105847125Y9061010D01*
X105557599Y9118600D01*
X105262401Y9118600D01*
X104972875Y9061010D01*
X104700147Y8948042D01*
X104454698Y8784039D01*
X104245961Y8575302D01*
X104140000Y8416719D01*
X104034039Y8575302D01*
X103825302Y8784039D01*
X103579853Y8948042D01*
X103307125Y9061010D01*
X103017599Y9118600D01*
X102722401Y9118600D01*
X102580495Y9090373D01*
X89011746Y22659121D01*
X88985591Y22690991D01*
X88858446Y22795336D01*
X88713387Y22872872D01*
X88555989Y22920618D01*
X88433319Y22932700D01*
X88433318Y22932700D01*
X88392300Y22936740D01*
X88351282Y22932700D01*
X85731700Y22932700D01*
X85731700Y24073881D01*
X85861426Y24020147D01*
X86138665Y23965000D01*
X86421335Y23965000D01*
X86698574Y24020147D01*
X86959727Y24128320D01*
X87194759Y24285363D01*
X87394637Y24485241D01*
X87447930Y24565000D01*
X93938982Y24565000D01*
X93980000Y24560960D01*
X94021018Y24565000D01*
X94021019Y24565000D01*
X94143689Y24577082D01*
X94301087Y24624828D01*
X94446146Y24702364D01*
X94573291Y24806709D01*
X94599446Y24838579D01*
X100094582Y30333714D01*
X100188665Y30315000D01*
X100471335Y30315000D01*
X100748574Y30370147D01*
X101009727Y30478320D01*
X101244759Y30635363D01*
X101444637Y30835241D01*
X101601680Y31070273D01*
X101709853Y31331426D01*
X101765000Y31608665D01*
X101765000Y31891335D01*
X101709853Y32168574D01*
X101601680Y32429727D01*
X101444637Y32664759D01*
X101244759Y32864637D01*
X101009727Y33021680D01*
X100748574Y33129853D01*
X100471335Y33185000D01*
X100188665Y33185000D01*
X99911426Y33129853D01*
X99650273Y33021680D01*
X99415241Y32864637D01*
X99215363Y32664759D01*
X99058320Y32429727D01*
X98950147Y32168574D01*
X98895000Y31891335D01*
X98895000Y31608665D01*
X98913714Y31514582D01*
X93634133Y26235000D01*
X87447930Y26235000D01*
X87394637Y26314759D01*
X87194759Y26514637D01*
X86959727Y26671680D01*
X86698574Y26779853D01*
X86421335Y26835000D01*
X86138665Y26835000D01*
X85861426Y26779853D01*
X85731700Y26726119D01*
X85731700Y29940833D01*
X86124582Y30333714D01*
X86218665Y30315000D01*
X86501335Y30315000D01*
X86778574Y30370147D01*
X87039727Y30478320D01*
X87274759Y30635363D01*
X87474637Y30835241D01*
X87527930Y30915000D01*
X91542070Y30915000D01*
X91595363Y30835241D01*
X91795241Y30635363D01*
X92030273Y30478320D01*
X92291426Y30370147D01*
X92568665Y30315000D01*
X92851335Y30315000D01*
X93128574Y30370147D01*
X93389727Y30478320D01*
X93624759Y30635363D01*
X93824637Y30835241D01*
X93981680Y31070273D01*
X94089853Y31331426D01*
X94145000Y31608665D01*
X94145000Y31891335D01*
X94089853Y32168574D01*
X93981680Y32429727D01*
X93824637Y32664759D01*
X93624759Y32864637D01*
X93545000Y32917930D01*
X93545000Y35183833D01*
X100795301Y42434133D01*
X100795301Y39776470D01*
X99768574Y38749741D01*
X99736710Y38723591D01*
X99710562Y38691729D01*
X99632364Y38596445D01*
X99554828Y38451386D01*
X99507082Y38293988D01*
X99504280Y38265539D01*
X99405518Y38255812D01*
X99285820Y38219502D01*
X99175506Y38160537D01*
X99078815Y38081185D01*
X98999463Y37984494D01*
X98940498Y37874180D01*
X98904188Y37754482D01*
X98891928Y37630000D01*
X98891928Y36030000D01*
X98904188Y35905518D01*
X98940498Y35785820D01*
X98999463Y35675506D01*
X99078815Y35578815D01*
X99175506Y35499463D01*
X99285820Y35440498D01*
X99405518Y35404188D01*
X99530000Y35391928D01*
X101130000Y35391928D01*
X101254482Y35404188D01*
X101374180Y35440498D01*
X101484494Y35499463D01*
X101581185Y35578815D01*
X101660537Y35675506D01*
X101719502Y35785820D01*
X101755812Y35905518D01*
X101768072Y36030000D01*
X101768072Y37630000D01*
X101755812Y37754482D01*
X101719502Y37874180D01*
X101660537Y37984494D01*
X101581185Y38081185D01*
X101515587Y38135019D01*
X102191732Y38811163D01*
X102223591Y38837309D01*
X102327936Y38964454D01*
X102405472Y39109513D01*
X102453218Y39266911D01*
X102465300Y39389581D01*
X102469340Y39430600D01*
X102465300Y39471618D01*
X102465300Y54004782D01*
X102469340Y54045800D01*
X102453218Y54209488D01*
X102405472Y54366887D01*
X102327936Y54511946D01*
X102249739Y54607230D01*
X102249737Y54607232D01*
X102223591Y54639091D01*
X102191733Y54665236D01*
X94485633Y62371335D01*
X97625000Y62371335D01*
X97625000Y62088665D01*
X97680147Y61811426D01*
X97788320Y61550273D01*
X97945363Y61315241D01*
X98145241Y61115363D01*
X98380273Y60958320D01*
X98641426Y60850147D01*
X98918665Y60795000D01*
X99201335Y60795000D01*
X99478574Y60850147D01*
X99739727Y60958320D01*
X99974759Y61115363D01*
X100174637Y61315241D01*
X100331680Y61550273D01*
X100439853Y61811426D01*
X100495000Y62088665D01*
X100495000Y62371335D01*
X100439853Y62648574D01*
X100331680Y62909727D01*
X100174637Y63144759D01*
X99974759Y63344637D01*
X99739727Y63501680D01*
X99478574Y63609853D01*
X99201335Y63665000D01*
X98918665Y63665000D01*
X98641426Y63609853D01*
X98380273Y63501680D01*
X98145241Y63344637D01*
X97945363Y63144759D01*
X97788320Y62909727D01*
X97680147Y62648574D01*
X97625000Y62371335D01*
X94485633Y62371335D01*
X90308177Y66548790D01*
X90312092Y66553560D01*
X90437914Y66788955D01*
X90515394Y67044374D01*
X90541556Y67310000D01*
X90515394Y67575626D01*
X90437914Y67831045D01*
X90312092Y68066440D01*
X90142765Y68272765D01*
X89936440Y68442092D01*
X89701045Y68567914D01*
X89445626Y68645394D01*
X89246564Y68665000D01*
X88553436Y68665000D01*
X88354374Y68645394D01*
X88098955Y68567914D01*
X87863560Y68442092D01*
X87657235Y68272765D01*
X87487908Y68066440D01*
X87362086Y67831045D01*
X87284606Y67575626D01*
X87258444Y67310000D01*
X87284606Y67044374D01*
X87362086Y66788955D01*
X87487908Y66553560D01*
X87657235Y66347235D01*
X87863560Y66177908D01*
X88062759Y66071433D01*
X88068641Y66011711D01*
X87863560Y65902092D01*
X87657235Y65732765D01*
X87487908Y65526440D01*
X87362086Y65291045D01*
X87284606Y65035626D01*
X87258444Y64770000D01*
X87284606Y64504374D01*
X87335985Y64335000D01*
X83506068Y64335000D01*
X82905222Y64935846D01*
X82895394Y65035626D01*
X82817914Y65291045D01*
X82692092Y65526440D01*
X82522765Y65732765D01*
X82316440Y65902092D01*
X82223204Y65951928D01*
X82280000Y65951928D01*
X82404482Y65964188D01*
X82524180Y66000498D01*
X82634494Y66059463D01*
X82731185Y66138815D01*
X82810537Y66235506D01*
X82869502Y66345820D01*
X82905812Y66465518D01*
X82918072Y66590000D01*
X82918072Y68030000D01*
X82905812Y68154482D01*
X82869502Y68274180D01*
X82810537Y68384494D01*
X82731185Y68481185D01*
X82634494Y68560537D01*
X82524180Y68619502D01*
X82404482Y68655812D01*
X82280000Y68668072D01*
X82105471Y68668072D01*
X82102918Y68693989D01*
X82055172Y68851387D01*
X81977636Y68996446D01*
X81873291Y69123591D01*
X81746146Y69227936D01*
X81601087Y69305472D01*
X81443689Y69353218D01*
X81321019Y69365300D01*
X81280000Y69369340D01*
X81238982Y69365300D01*
X60296318Y69365300D01*
X60255300Y69369340D01*
X60214282Y69365300D01*
X60214281Y69365300D01*
X60091611Y69353218D01*
X59934213Y69305472D01*
X59789154Y69227936D01*
X59662009Y69123591D01*
X59635863Y69091732D01*
X59212204Y68668072D01*
X57600000Y68668072D01*
X57475518Y68655812D01*
X57355820Y68619502D01*
X57245506Y68560537D01*
X57148815Y68481185D01*
X57069463Y68384494D01*
X57010498Y68274180D01*
X56974188Y68154482D01*
X56961928Y68030000D01*
X56961928Y66924700D01*
X47299092Y66924700D01*
X47335394Y67044374D01*
X47361556Y67310000D01*
X47335394Y67575626D01*
X47257914Y67831045D01*
X47132092Y68066440D01*
X46962765Y68272765D01*
X46756440Y68442092D01*
X46521045Y68567914D01*
X46265626Y68645394D01*
X46066564Y68665000D01*
X45373436Y68665000D01*
X45174374Y68645394D01*
X44918955Y68567914D01*
X44683560Y68442092D01*
X44477235Y68272765D01*
X44307908Y68066440D01*
X44182086Y67831045D01*
X44104606Y67575626D01*
X44078444Y67310000D01*
X44104606Y67044374D01*
X44140908Y66924700D01*
X37198072Y66924700D01*
X37198072Y68030000D01*
X37185812Y68154482D01*
X37149502Y68274180D01*
X37090537Y68384494D01*
X37011185Y68481185D01*
X36914494Y68560537D01*
X36804180Y68619502D01*
X36684482Y68655812D01*
X36560000Y68668072D01*
X34560000Y68668072D01*
X34435518Y68655812D01*
X34315820Y68619502D01*
X34205506Y68560537D01*
X34108815Y68481185D01*
X34029463Y68384494D01*
X33970498Y68274180D01*
X33934188Y68154482D01*
X33921928Y68030000D01*
X33921928Y66590000D01*
X33934188Y66465518D01*
X33970498Y66345820D01*
X34029463Y66235506D01*
X34108815Y66138815D01*
X34205506Y66059463D01*
X34315820Y66000498D01*
X34435518Y65964188D01*
X34560000Y65951928D01*
X34616796Y65951928D01*
X34523560Y65902092D01*
X34317235Y65732765D01*
X34147908Y65526440D01*
X34022086Y65291045D01*
X33944606Y65035626D01*
X33918444Y64770000D01*
X33944606Y64504374D01*
X34022086Y64248955D01*
X34147908Y64013560D01*
X34317235Y63807235D01*
X34523560Y63637908D01*
X34722759Y63531433D01*
X34728641Y63471711D01*
X34523560Y63362092D01*
X34317235Y63192765D01*
X34147908Y62986440D01*
X34022086Y62751045D01*
X33944606Y62495626D01*
X33918444Y62230000D01*
X33944606Y61964374D01*
X33997987Y61788400D01*
X24422013Y61788400D01*
X24475394Y61964374D01*
X24501556Y62230000D01*
X24475394Y62495626D01*
X24397914Y62751045D01*
X24272092Y62986440D01*
X24102765Y63192765D01*
X23896440Y63362092D01*
X23661045Y63487914D01*
X23621203Y63500000D01*
X23661045Y63512086D01*
X23896440Y63637908D01*
X24102765Y63807235D01*
X24272092Y64013560D01*
X24397914Y64248955D01*
X24475394Y64504374D01*
X24501556Y64770000D01*
X24475394Y65035626D01*
X24397914Y65291045D01*
X24272092Y65526440D01*
X24102765Y65732765D01*
X23896440Y65902092D01*
X23661045Y66027914D01*
X23621203Y66040000D01*
X23661045Y66052086D01*
X23896440Y66177908D01*
X24102765Y66347235D01*
X24272092Y66553560D01*
X24397914Y66788955D01*
X24475394Y67044374D01*
X24501556Y67310000D01*
X24475394Y67575626D01*
X24397914Y67831045D01*
X24272092Y68066440D01*
X24102765Y68272765D01*
X23896440Y68442092D01*
X23661045Y68567914D01*
X23405626Y68645394D01*
X23206564Y68665000D01*
X22513436Y68665000D01*
X22314374Y68645394D01*
X22058955Y68567914D01*
X21823560Y68442092D01*
X21617235Y68272765D01*
X21447908Y68066440D01*
X21322086Y67831045D01*
X21244606Y67575626D01*
X21218444Y67310000D01*
X21244606Y67044374D01*
X21322086Y66788955D01*
X21447908Y66553560D01*
X21617235Y66347235D01*
X21823560Y66177908D01*
X22058955Y66052086D01*
X22098797Y66040000D01*
X22058955Y66027914D01*
X21823560Y65902092D01*
X21617235Y65732765D01*
X21447908Y65526440D01*
X21322086Y65291045D01*
X21244606Y65035626D01*
X21218444Y64770000D01*
X21244606Y64504374D01*
X21322086Y64248955D01*
X21447908Y64013560D01*
X21617235Y63807235D01*
X21823560Y63637908D01*
X22058955Y63512086D01*
X22098797Y63500000D01*
X22058955Y63487914D01*
X21823560Y63362092D01*
X21617235Y63192765D01*
X21447908Y62986440D01*
X21322086Y62751045D01*
X21244606Y62495626D01*
X21218444Y62230000D01*
X21244606Y61964374D01*
X21297987Y61788400D01*
X16544418Y61788400D01*
X16503400Y61792440D01*
X16462382Y61788400D01*
X16462381Y61788400D01*
X16339711Y61776318D01*
X16298623Y61763854D01*
X16182313Y61728572D01*
X16037254Y61651036D01*
X15978710Y61602990D01*
X15910109Y61546691D01*
X15883963Y61514832D01*
X9236234Y54867101D01*
X9235394Y54875626D01*
X9157914Y55131045D01*
X9032092Y55366440D01*
X8862765Y55572765D01*
X8656440Y55742092D01*
X8421045Y55867914D01*
X8381203Y55880000D01*
X8421045Y55892086D01*
X8656440Y56017908D01*
X8862765Y56187235D01*
X9032092Y56393560D01*
X9157914Y56628955D01*
X9235394Y56884374D01*
X9261556Y57150000D01*
X9235394Y57415626D01*
X9157914Y57671045D01*
X9032092Y57906440D01*
X8862765Y58112765D01*
X8656440Y58282092D01*
X8421045Y58407914D01*
X8381203Y58420000D01*
X8421045Y58432086D01*
X8656440Y58557908D01*
X8862765Y58727235D01*
X9032092Y58933560D01*
X9157914Y59168955D01*
X9235394Y59424374D01*
X9261556Y59690000D01*
X9235394Y59955626D01*
X9157914Y60211045D01*
X9032092Y60446440D01*
X8862765Y60652765D01*
X8656440Y60822092D01*
X8421045Y60947914D01*
X8381203Y60960000D01*
X8421045Y60972086D01*
X8656440Y61097908D01*
X8862765Y61267235D01*
X9032092Y61473560D01*
X9157914Y61708955D01*
X9235394Y61964374D01*
X9261556Y62230000D01*
X9235394Y62495626D01*
X9157914Y62751045D01*
X9032092Y62986440D01*
X8862765Y63192765D01*
X8656440Y63362092D01*
X8421045Y63487914D01*
X8381203Y63500000D01*
X8421045Y63512086D01*
X8656440Y63637908D01*
X8862765Y63807235D01*
X9032092Y64013560D01*
X9157914Y64248955D01*
X9235394Y64504374D01*
X9261556Y64770000D01*
X9235394Y65035626D01*
X9157914Y65291045D01*
X9032092Y65526440D01*
X8862765Y65732765D01*
X8656440Y65902092D01*
X8563204Y65951928D01*
X8620000Y65951928D01*
X8744482Y65964188D01*
X8864180Y66000498D01*
X8974494Y66059463D01*
X9071185Y66138815D01*
X9150537Y66235506D01*
X9209502Y66345820D01*
X9245812Y66465518D01*
X9258072Y66590000D01*
X9258072Y68030000D01*
X9245812Y68154482D01*
X9209502Y68274180D01*
X9150537Y68384494D01*
X9071185Y68481185D01*
X8974494Y68560537D01*
X8864180Y68619502D01*
X8744482Y68655812D01*
X8620000Y68668072D01*
X6620000Y68668072D01*
X6495518Y68655812D01*
X6375820Y68619502D01*
X6265506Y68560537D01*
X6168815Y68481185D01*
X6089463Y68384494D01*
X6030498Y68274180D01*
X5994188Y68154482D01*
X5981928Y68030000D01*
X5981928Y66590000D01*
X5994188Y66465518D01*
X6025460Y66362428D01*
X4796479Y65133446D01*
X4764609Y65107291D01*
X4705796Y65035626D01*
X4660264Y64980145D01*
X4582728Y64835086D01*
X4534982Y64677688D01*
X4518860Y64514000D01*
X660000Y64514000D01*
X660000Y69991335D01*
X97625000Y69991335D01*
X97625000Y69708665D01*
X97680147Y69431426D01*
X97788320Y69170273D01*
X97945363Y68935241D01*
X98145241Y68735363D01*
X98380273Y68578320D01*
X98641426Y68470147D01*
X98918665Y68415000D01*
X99201335Y68415000D01*
X99478574Y68470147D01*
X99739727Y68578320D01*
X99974759Y68735363D01*
X100174637Y68935241D01*
X100331680Y69170273D01*
X100439853Y69431426D01*
X100495000Y69708665D01*
X100495000Y69991335D01*
X100439853Y70268574D01*
X100331680Y70529727D01*
X100174637Y70764759D01*
X99974759Y70964637D01*
X99739727Y71121680D01*
X99478574Y71229853D01*
X99201335Y71285000D01*
X98918665Y71285000D01*
X98641426Y71229853D01*
X98380273Y71121680D01*
X98145241Y70964637D01*
X97945363Y70764759D01*
X97788320Y70529727D01*
X97680147Y70268574D01*
X97625000Y69991335D01*
X660000Y69991335D01*
X660000Y76570000D01*
X97521928Y76570000D01*
X97534188Y76445518D01*
X97570498Y76325820D01*
X97629463Y76215506D01*
X97708815Y76118815D01*
X97805506Y76039463D01*
X97915820Y75980498D01*
X97934127Y75974944D01*
X97867688Y75908505D01*
X97699701Y75657095D01*
X97583989Y75377743D01*
X97525000Y75081184D01*
X97525000Y74778816D01*
X97583989Y74482257D01*
X97699701Y74202905D01*
X97867688Y73951495D01*
X98081495Y73737688D01*
X98332905Y73569701D01*
X98612257Y73453989D01*
X98908816Y73395000D01*
X99211184Y73395000D01*
X99507743Y73453989D01*
X99787095Y73569701D01*
X100038505Y73737688D01*
X100252312Y73951495D01*
X100420299Y74202905D01*
X100536011Y74482257D01*
X100595000Y74778816D01*
X100595000Y75081184D01*
X100536011Y75377743D01*
X100420299Y75657095D01*
X100252312Y75908505D01*
X100185873Y75974944D01*
X100204180Y75980498D01*
X100314494Y76039463D01*
X100411185Y76118815D01*
X100490537Y76215506D01*
X100549502Y76325820D01*
X100585812Y76445518D01*
X100598072Y76570000D01*
X100595000Y77184250D01*
X100436250Y77343000D01*
X99187000Y77343000D01*
X99187000Y77323000D01*
X98933000Y77323000D01*
X98933000Y77343000D01*
X97683750Y77343000D01*
X97525000Y77184250D01*
X97521928Y76570000D01*
X660000Y76570000D01*
X660000Y78370000D01*
X97521928Y78370000D01*
X97525000Y77755750D01*
X97683750Y77597000D01*
X98933000Y77597000D01*
X98933000Y78846250D01*
X99187000Y78846250D01*
X99187000Y77597000D01*
X100436250Y77597000D01*
X100595000Y77755750D01*
X100598072Y78370000D01*
X100585812Y78494482D01*
X100549502Y78614180D01*
X100490537Y78724494D01*
X100411185Y78821185D01*
X100314494Y78900537D01*
X100204180Y78959502D01*
X100084482Y78995812D01*
X99960000Y79008072D01*
X99345750Y79005000D01*
X99187000Y78846250D01*
X98933000Y78846250D01*
X98774250Y79005000D01*
X98160000Y79008072D01*
X98035518Y78995812D01*
X97915820Y78959502D01*
X97805506Y78900537D01*
X97708815Y78821185D01*
X97629463Y78724494D01*
X97570498Y78614180D01*
X97534188Y78494482D01*
X97521928Y78370000D01*
X660000Y78370000D01*
X660000Y80620000D01*
X114910000Y80620000D01*
X114910001Y660000D01*
G37*
X114910001Y660000D02*
X660000Y660000D01*
X660000Y15517298D01*
X43636903Y15517298D01*
X43708486Y15273329D01*
X43963996Y15152429D01*
X44238184Y15083700D01*
X44520512Y15069783D01*
X44800130Y15111213D01*
X45066292Y15206397D01*
X45191514Y15273329D01*
X45263097Y15517298D01*
X61416903Y15517298D01*
X61488486Y15273329D01*
X61743996Y15152429D01*
X62018184Y15083700D01*
X62300512Y15069783D01*
X62580130Y15111213D01*
X62846292Y15206397D01*
X62971514Y15273329D01*
X63043097Y15517298D01*
X62230000Y16330395D01*
X61416903Y15517298D01*
X45263097Y15517298D01*
X44450000Y16330395D01*
X43636903Y15517298D01*
X660000Y15517298D01*
X660000Y16439488D01*
X43009783Y16439488D01*
X43051213Y16159870D01*
X43146397Y15893708D01*
X43213329Y15768486D01*
X43457298Y15696903D01*
X44270395Y16510000D01*
X44629605Y16510000D01*
X45442702Y15696903D01*
X45686671Y15768486D01*
X45807571Y16023996D01*
X45876300Y16298184D01*
X45883265Y16439488D01*
X60789783Y16439488D01*
X60831213Y16159870D01*
X60926397Y15893708D01*
X60993329Y15768486D01*
X61237298Y15696903D01*
X62050395Y16510000D01*
X62409605Y16510000D01*
X63222702Y15696903D01*
X63466671Y15768486D01*
X63587571Y16023996D01*
X63656300Y16298184D01*
X63670217Y16580512D01*
X63628787Y16860130D01*
X63533603Y17126292D01*
X63466671Y17251514D01*
X63222702Y17323097D01*
X62409605Y16510000D01*
X62050395Y16510000D01*
X61237298Y17323097D01*
X60993329Y17251514D01*
X60872429Y16996004D01*
X60803700Y16721816D01*
X60789783Y16439488D01*
X45883265Y16439488D01*
X45890217Y16580512D01*
X45848787Y16860130D01*
X45753603Y17126292D01*
X45686671Y17251514D01*
X45442702Y17323097D01*
X44629605Y16510000D01*
X44270395Y16510000D01*
X43457298Y17323097D01*
X43213329Y17251514D01*
X43092429Y16996004D01*
X43023700Y16721816D01*
X43009783Y16439488D01*
X660000Y16439488D01*
X660000Y17502702D01*
X43636903Y17502702D01*
X44450000Y16689605D01*
X45263097Y17502702D01*
X61416903Y17502702D01*
X62230000Y16689605D01*
X63043097Y17502702D01*
X62971514Y17746671D01*
X62716004Y17867571D01*
X62441816Y17936300D01*
X62159488Y17950217D01*
X61879870Y17908787D01*
X61613708Y17813603D01*
X61488486Y17746671D01*
X61416903Y17502702D01*
X45263097Y17502702D01*
X45191514Y17746671D01*
X44936004Y17867571D01*
X44661816Y17936300D01*
X44379488Y17950217D01*
X44099870Y17908787D01*
X43833708Y17813603D01*
X43708486Y17746671D01*
X43636903Y17502702D01*
X660000Y17502702D01*
X660000Y64514000D01*
X4518860Y64514000D01*
X4522900Y64472982D01*
X4522901Y37120629D01*
X4518860Y37079600D01*
X4534982Y36915912D01*
X4582728Y36758514D01*
X4632012Y36666311D01*
X4660265Y36613454D01*
X4764610Y36486309D01*
X4796474Y36460159D01*
X6208938Y35047695D01*
X6207908Y35046440D01*
X6082086Y34811045D01*
X6004606Y34555626D01*
X5978444Y34290000D01*
X6004606Y34024374D01*
X6082086Y33768955D01*
X6207908Y33533560D01*
X6377235Y33327235D01*
X6583560Y33157908D01*
X6818955Y33032086D01*
X6858797Y33020000D01*
X6818955Y33007914D01*
X6583560Y32882092D01*
X6377235Y32712765D01*
X6207908Y32506440D01*
X6082086Y32271045D01*
X6004606Y32015626D01*
X5978444Y31750000D01*
X6004606Y31484374D01*
X6082086Y31228955D01*
X6207908Y30993560D01*
X6377235Y30787235D01*
X6583560Y30617908D01*
X6818955Y30492086D01*
X6858797Y30480000D01*
X6818955Y30467914D01*
X6583560Y30342092D01*
X6377235Y30172765D01*
X6207908Y29966440D01*
X6082086Y29731045D01*
X6004606Y29475626D01*
X5978444Y29210000D01*
X6004606Y28944374D01*
X6082086Y28688955D01*
X6207908Y28453560D01*
X6377235Y28247235D01*
X6583560Y28077908D01*
X6818955Y27952086D01*
X6858797Y27940000D01*
X6818955Y27927914D01*
X6583560Y27802092D01*
X6377235Y27632765D01*
X6207908Y27426440D01*
X6082086Y27191045D01*
X6004606Y26935626D01*
X5978444Y26670000D01*
X6004606Y26404374D01*
X6082086Y26148955D01*
X6207908Y25913560D01*
X6377235Y25707235D01*
X6583560Y25537908D01*
X6818955Y25412086D01*
X6858797Y25400000D01*
X6818955Y25387914D01*
X6583560Y25262092D01*
X6377235Y25092765D01*
X6207908Y24886440D01*
X6082086Y24651045D01*
X6004606Y24395626D01*
X5978444Y24130000D01*
X6004606Y23864374D01*
X6082086Y23608955D01*
X6207908Y23373560D01*
X6377235Y23167235D01*
X6583560Y22997908D01*
X6818955Y22872086D01*
X6858797Y22860000D01*
X6818955Y22847914D01*
X6583560Y22722092D01*
X6377235Y22552765D01*
X6207908Y22346440D01*
X6082086Y22111045D01*
X6004606Y21855626D01*
X5978444Y21590000D01*
X6004606Y21324374D01*
X6082086Y21068955D01*
X6207908Y20833560D01*
X6377235Y20627235D01*
X6583560Y20457908D01*
X6818955Y20332086D01*
X6858797Y20320000D01*
X6818955Y20307914D01*
X6583560Y20182092D01*
X6377235Y20012765D01*
X6207908Y19806440D01*
X6082086Y19571045D01*
X6004606Y19315626D01*
X5978444Y19050000D01*
X6004606Y18784374D01*
X6082086Y18528955D01*
X6207908Y18293560D01*
X6377235Y18087235D01*
X6583560Y17917908D01*
X6818955Y17792086D01*
X7074374Y17714606D01*
X7273436Y17695000D01*
X7966564Y17695000D01*
X8165626Y17714606D01*
X8421045Y17792086D01*
X8656440Y17917908D01*
X8862765Y18087235D01*
X9032092Y18293560D01*
X9157914Y18528955D01*
X9235394Y18784374D01*
X9261556Y19050000D01*
X9235394Y19315626D01*
X9157914Y19571045D01*
X9032092Y19806440D01*
X8862765Y20012765D01*
X8656440Y20182092D01*
X8421045Y20307914D01*
X8381203Y20320000D01*
X8421045Y20332086D01*
X8656440Y20457908D01*
X8862765Y20627235D01*
X9032092Y20833560D01*
X9157914Y21068955D01*
X9235394Y21324374D01*
X9261556Y21590000D01*
X9235394Y21855626D01*
X9157914Y22111045D01*
X9032092Y22346440D01*
X8862765Y22552765D01*
X8656440Y22722092D01*
X8421045Y22847914D01*
X8381203Y22860000D01*
X8421045Y22872086D01*
X8656440Y22997908D01*
X8862765Y23167235D01*
X9032092Y23373560D01*
X9157914Y23608955D01*
X9235394Y23864374D01*
X9261556Y24130000D01*
X9235394Y24395626D01*
X9157914Y24651045D01*
X9032092Y24886440D01*
X8862765Y25092765D01*
X8656440Y25262092D01*
X8421045Y25387914D01*
X8381203Y25400000D01*
X8421045Y25412086D01*
X8656440Y25537908D01*
X8862765Y25707235D01*
X9032092Y25913560D01*
X9157914Y26148955D01*
X9235394Y26404374D01*
X9261556Y26670000D01*
X9235394Y26935626D01*
X9157914Y27191045D01*
X9032092Y27426440D01*
X8862765Y27632765D01*
X8656440Y27802092D01*
X8421045Y27927914D01*
X8381203Y27940000D01*
X8421045Y27952086D01*
X8656440Y28077908D01*
X8862765Y28247235D01*
X9032092Y28453560D01*
X9157914Y28688955D01*
X9235394Y28944374D01*
X9261556Y29210000D01*
X9235394Y29475626D01*
X9157914Y29731045D01*
X9032092Y29966440D01*
X8862765Y30172765D01*
X8656440Y30342092D01*
X8421045Y30467914D01*
X8381203Y30480000D01*
X8421045Y30492086D01*
X8656440Y30617908D01*
X8862765Y30787235D01*
X9032092Y30993560D01*
X9157914Y31228955D01*
X9235394Y31484374D01*
X9261556Y31750000D01*
X9235394Y32015626D01*
X9157914Y32271045D01*
X9032092Y32506440D01*
X8862765Y32712765D01*
X8656440Y32882092D01*
X8421045Y33007914D01*
X8381203Y33020000D01*
X8421045Y33032086D01*
X8656440Y33157908D01*
X8862765Y33327235D01*
X9032092Y33533560D01*
X9157914Y33768955D01*
X9235394Y34024374D01*
X9261556Y34290000D01*
X9235394Y34555626D01*
X9199092Y34675300D01*
X21280908Y34675300D01*
X21244606Y34555626D01*
X21218444Y34290000D01*
X21244606Y34024374D01*
X21322086Y33768955D01*
X21447908Y33533560D01*
X21617235Y33327235D01*
X21823560Y33157908D01*
X22058955Y33032086D01*
X22098797Y33020000D01*
X22058955Y33007914D01*
X21823560Y32882092D01*
X21617235Y32712765D01*
X21447908Y32506440D01*
X21322086Y32271045D01*
X21244606Y32015626D01*
X21218444Y31750000D01*
X21244606Y31484374D01*
X21322086Y31228955D01*
X21447908Y30993560D01*
X21617235Y30787235D01*
X21823560Y30617908D01*
X22058955Y30492086D01*
X22098797Y30480000D01*
X22058955Y30467914D01*
X21823560Y30342092D01*
X21617235Y30172765D01*
X21447908Y29966440D01*
X21322086Y29731045D01*
X21244606Y29475626D01*
X21218444Y29210000D01*
X21244606Y28944374D01*
X21322086Y28688955D01*
X21447908Y28453560D01*
X21617235Y28247235D01*
X21823560Y28077908D01*
X22058955Y27952086D01*
X22098797Y27940000D01*
X22058955Y27927914D01*
X21823560Y27802092D01*
X21617235Y27632765D01*
X21447908Y27426440D01*
X21322086Y27191045D01*
X21244606Y26935626D01*
X21218444Y26670000D01*
X21244606Y26404374D01*
X21322086Y26148955D01*
X21447908Y25913560D01*
X21617235Y25707235D01*
X21823560Y25537908D01*
X22058955Y25412086D01*
X22098797Y25400000D01*
X22058955Y25387914D01*
X21823560Y25262092D01*
X21617235Y25092765D01*
X21447908Y24886440D01*
X21322086Y24651045D01*
X21244606Y24395626D01*
X21218444Y24130000D01*
X21244606Y23864374D01*
X21322086Y23608955D01*
X21447908Y23373560D01*
X21617235Y23167235D01*
X21823560Y22997908D01*
X22058955Y22872086D01*
X22098797Y22860000D01*
X22058955Y22847914D01*
X21823560Y22722092D01*
X21617235Y22552765D01*
X21447908Y22346440D01*
X21322086Y22111045D01*
X21244606Y21855626D01*
X21218444Y21590000D01*
X21244606Y21324374D01*
X21322086Y21068955D01*
X21447908Y20833560D01*
X21617235Y20627235D01*
X21823560Y20457908D01*
X22058955Y20332086D01*
X22098797Y20320000D01*
X22058955Y20307914D01*
X21823560Y20182092D01*
X21617235Y20012765D01*
X21447908Y19806440D01*
X21322086Y19571045D01*
X21244606Y19315626D01*
X21218444Y19050000D01*
X21244606Y18784374D01*
X21322086Y18528955D01*
X21447908Y18293560D01*
X21617235Y18087235D01*
X21823560Y17917908D01*
X22058955Y17792086D01*
X22314374Y17714606D01*
X22513436Y17695000D01*
X23206564Y17695000D01*
X23405626Y17714606D01*
X23661045Y17792086D01*
X23896440Y17917908D01*
X24102765Y18087235D01*
X24272092Y18293560D01*
X24397914Y18528955D01*
X24475394Y18784374D01*
X24501556Y19050000D01*
X24475394Y19315626D01*
X24397914Y19571045D01*
X24272092Y19806440D01*
X24102765Y20012765D01*
X23896440Y20182092D01*
X23661045Y20307914D01*
X23621203Y20320000D01*
X23661045Y20332086D01*
X23896440Y20457908D01*
X24102765Y20627235D01*
X24272092Y20833560D01*
X24397914Y21068955D01*
X24475394Y21324374D01*
X24501556Y21590000D01*
X24495516Y21651335D01*
X43015000Y21651335D01*
X43015000Y21368665D01*
X43070147Y21091426D01*
X43178320Y20830273D01*
X43335363Y20595241D01*
X43535241Y20395363D01*
X43770273Y20238320D01*
X44031426Y20130147D01*
X44308665Y20075000D01*
X44591335Y20075000D01*
X44868574Y20130147D01*
X45129727Y20238320D01*
X45364759Y20395363D01*
X45564637Y20595241D01*
X45721680Y20830273D01*
X45829853Y21091426D01*
X45883557Y21361411D01*
X49700000Y21361411D01*
X49700000Y21088589D01*
X49753225Y20821011D01*
X49857629Y20568957D01*
X50009201Y20342114D01*
X50202114Y20149201D01*
X50428957Y19997629D01*
X50681011Y19893225D01*
X50948589Y19840000D01*
X51221411Y19840000D01*
X51488989Y19893225D01*
X51741043Y19997629D01*
X51967886Y20149201D01*
X52160799Y20342114D01*
X52312371Y20568957D01*
X52416775Y20821011D01*
X52470000Y21088589D01*
X52470000Y21361411D01*
X54580000Y21361411D01*
X54580000Y21088589D01*
X54633225Y20821011D01*
X54737629Y20568957D01*
X54889201Y20342114D01*
X55082114Y20149201D01*
X55308957Y19997629D01*
X55561011Y19893225D01*
X55828589Y19840000D01*
X56101411Y19840000D01*
X56368989Y19893225D01*
X56621043Y19997629D01*
X56847886Y20149201D01*
X57040799Y20342114D01*
X57072795Y20390000D01*
X61323267Y20390000D01*
X61550273Y20238320D01*
X61811426Y20130147D01*
X62088665Y20075000D01*
X62371335Y20075000D01*
X62648574Y20130147D01*
X62909727Y20238320D01*
X63144759Y20395363D01*
X63344637Y20595241D01*
X63501680Y20830273D01*
X63609853Y21091426D01*
X63665000Y21368665D01*
X63665000Y21651335D01*
X63609853Y21928574D01*
X63501680Y22189727D01*
X63344637Y22424759D01*
X63144759Y22624637D01*
X62909727Y22781680D01*
X62648574Y22889853D01*
X62371335Y22945000D01*
X62088665Y22945000D01*
X61811426Y22889853D01*
X61550273Y22781680D01*
X61315241Y22624637D01*
X61115363Y22424759D01*
X60958320Y22189727D01*
X60904585Y22060000D01*
X57072795Y22060000D01*
X57040799Y22107886D01*
X56847886Y22300799D01*
X56621043Y22452371D01*
X56368989Y22556775D01*
X56101411Y22610000D01*
X55828589Y22610000D01*
X55561011Y22556775D01*
X55308957Y22452371D01*
X55082114Y22300799D01*
X54889201Y22107886D01*
X54737629Y21881043D01*
X54633225Y21628989D01*
X54580000Y21361411D01*
X52470000Y21361411D01*
X52416775Y21628989D01*
X52312371Y21881043D01*
X52160799Y22107886D01*
X51967886Y22300799D01*
X51741043Y22452371D01*
X51488989Y22556775D01*
X51221411Y22610000D01*
X50948589Y22610000D01*
X50681011Y22556775D01*
X50428957Y22452371D01*
X50202114Y22300799D01*
X50009201Y22107886D01*
X49857629Y21881043D01*
X49753225Y21628989D01*
X49700000Y21361411D01*
X45883557Y21361411D01*
X45885000Y21368665D01*
X45885000Y21651335D01*
X45829853Y21928574D01*
X45721680Y22189727D01*
X45564637Y22424759D01*
X45364759Y22624637D01*
X45129727Y22781680D01*
X44868574Y22889853D01*
X44591335Y22945000D01*
X44308665Y22945000D01*
X44031426Y22889853D01*
X43770273Y22781680D01*
X43535241Y22624637D01*
X43335363Y22424759D01*
X43178320Y22189727D01*
X43070147Y21928574D01*
X43015000Y21651335D01*
X24495516Y21651335D01*
X24475394Y21855626D01*
X24397914Y22111045D01*
X24272092Y22346440D01*
X24102765Y22552765D01*
X23896440Y22722092D01*
X23661045Y22847914D01*
X23621203Y22860000D01*
X23661045Y22872086D01*
X23896440Y22997908D01*
X24102765Y23167235D01*
X24272092Y23373560D01*
X24397914Y23608955D01*
X24475394Y23864374D01*
X24501556Y24130000D01*
X24475394Y24395626D01*
X24397914Y24651045D01*
X24272092Y24886440D01*
X24102765Y25092765D01*
X23896440Y25262092D01*
X23661045Y25387914D01*
X23621203Y25400000D01*
X23661045Y25412086D01*
X23896440Y25537908D01*
X24102765Y25707235D01*
X24272092Y25913560D01*
X24397914Y26148955D01*
X24475394Y26404374D01*
X24501556Y26670000D01*
X24475394Y26935626D01*
X24397914Y27191045D01*
X24272092Y27426440D01*
X24102765Y27632765D01*
X23896440Y27802092D01*
X23661045Y27927914D01*
X23621203Y27940000D01*
X23661045Y27952086D01*
X23896440Y28077908D01*
X24102765Y28247235D01*
X24272092Y28453560D01*
X24397914Y28688955D01*
X24475394Y28944374D01*
X24501556Y29210000D01*
X24475394Y29475626D01*
X24397914Y29731045D01*
X24272092Y29966440D01*
X24102765Y30172765D01*
X23896440Y30342092D01*
X23661045Y30467914D01*
X23621203Y30480000D01*
X23661045Y30492086D01*
X23896440Y30617908D01*
X24102765Y30787235D01*
X24272092Y30993560D01*
X24397914Y31228955D01*
X24475394Y31484374D01*
X24501556Y31750000D01*
X24475394Y32015626D01*
X24397914Y32271045D01*
X24272092Y32506440D01*
X24102765Y32712765D01*
X23896440Y32882092D01*
X23661045Y33007914D01*
X23621203Y33020000D01*
X23661045Y33032086D01*
X23896440Y33157908D01*
X24102765Y33327235D01*
X24272092Y33533560D01*
X24397914Y33768955D01*
X24475394Y34024374D01*
X24501556Y34290000D01*
X24475394Y34555626D01*
X24439092Y34675300D01*
X33980908Y34675300D01*
X33944606Y34555626D01*
X33918444Y34290000D01*
X33944606Y34024374D01*
X34022086Y33768955D01*
X34147908Y33533560D01*
X34317235Y33327235D01*
X34523560Y33157908D01*
X34758955Y33032086D01*
X35014374Y32954606D01*
X35213436Y32935000D01*
X35906564Y32935000D01*
X36105626Y32954606D01*
X36361045Y33032086D01*
X36596440Y33157908D01*
X36802765Y33327235D01*
X36972092Y33533560D01*
X37097914Y33768955D01*
X37175394Y34024374D01*
X37201556Y34290000D01*
X37175394Y34555626D01*
X37139092Y34675300D01*
X44140908Y34675300D01*
X44104606Y34555626D01*
X44078444Y34290000D01*
X44104606Y34024374D01*
X44182086Y33768955D01*
X44307908Y33533560D01*
X44477235Y33327235D01*
X44683560Y33157908D01*
X44918955Y33032086D01*
X45174374Y32954606D01*
X45373436Y32935000D01*
X46066564Y32935000D01*
X46265626Y32954606D01*
X46521045Y33032086D01*
X46756440Y33157908D01*
X46962765Y33327235D01*
X47132092Y33533560D01*
X47257914Y33768955D01*
X47335394Y34024374D01*
X47361556Y34290000D01*
X47335394Y34555626D01*
X47299092Y34675300D01*
X57020908Y34675300D01*
X56984606Y34555626D01*
X56958444Y34290000D01*
X56984606Y34024374D01*
X57062086Y33768955D01*
X57187908Y33533560D01*
X57357235Y33327235D01*
X57563560Y33157908D01*
X57798955Y33032086D01*
X58054374Y32954606D01*
X58253436Y32935000D01*
X58946564Y32935000D01*
X59145626Y32954606D01*
X59401045Y33032086D01*
X59636440Y33157908D01*
X59842765Y33327235D01*
X60012092Y33533560D01*
X60137914Y33768955D01*
X60215394Y34024374D01*
X60241556Y34290000D01*
X60215394Y34555626D01*
X60179092Y34675300D01*
X67180908Y34675300D01*
X67144606Y34555626D01*
X67118444Y34290000D01*
X67144606Y34024374D01*
X67222086Y33768955D01*
X67347908Y33533560D01*
X67517235Y33327235D01*
X67723560Y33157908D01*
X67958955Y33032086D01*
X68214374Y32954606D01*
X68413436Y32935000D01*
X69106564Y32935000D01*
X69305626Y32954606D01*
X69561045Y33032086D01*
X69796440Y33157908D01*
X70002765Y33327235D01*
X70172092Y33533560D01*
X70297914Y33768955D01*
X70375394Y34024374D01*
X70401556Y34290000D01*
X70375394Y34555626D01*
X70339092Y34675300D01*
X77379282Y34675300D01*
X77420300Y34671260D01*
X77461318Y34675300D01*
X77461319Y34675300D01*
X77583989Y34687382D01*
X77741387Y34735128D01*
X77886446Y34812664D01*
X78013591Y34917009D01*
X78039746Y34948879D01*
X87283766Y44192898D01*
X87284606Y44184374D01*
X87362086Y43928955D01*
X87487908Y43693560D01*
X87657235Y43487235D01*
X87863560Y43317908D01*
X88098955Y43192086D01*
X88354374Y43114606D01*
X88433358Y43106827D01*
X71828579Y26502046D01*
X71796709Y26475891D01*
X71692365Y26348746D01*
X71692364Y26348745D01*
X71614828Y26203686D01*
X71567082Y26046288D01*
X71550960Y25882600D01*
X71555000Y25841581D01*
X71555001Y20217931D01*
X71475241Y20164637D01*
X71275363Y19964759D01*
X71118320Y19729727D01*
X71010147Y19468574D01*
X70955000Y19191335D01*
X70955000Y18908665D01*
X71010147Y18631426D01*
X71118320Y18370273D01*
X71275363Y18135241D01*
X71475241Y17935363D01*
X71710273Y17778320D01*
X71971426Y17670147D01*
X72248665Y17615000D01*
X72531335Y17615000D01*
X72808574Y17670147D01*
X73069727Y17778320D01*
X73304759Y17935363D01*
X73504637Y18135241D01*
X73661680Y18370273D01*
X73769853Y18631426D01*
X73825000Y18908665D01*
X73825000Y19191335D01*
X74765000Y19191335D01*
X74765000Y18908665D01*
X74820147Y18631426D01*
X74928320Y18370273D01*
X75085363Y18135241D01*
X75285241Y17935363D01*
X75520273Y17778320D01*
X75781426Y17670147D01*
X76058665Y17615000D01*
X76341335Y17615000D01*
X76618574Y17670147D01*
X76879727Y17778320D01*
X77114759Y17935363D01*
X77314637Y18135241D01*
X77471680Y18370273D01*
X77579853Y18631426D01*
X77635000Y18908665D01*
X77635000Y19191335D01*
X77579853Y19468574D01*
X77471680Y19729727D01*
X77314637Y19964759D01*
X77114759Y20164637D01*
X76879727Y20321680D01*
X76618574Y20429853D01*
X76341335Y20485000D01*
X76058665Y20485000D01*
X75781426Y20429853D01*
X75520273Y20321680D01*
X75285241Y20164637D01*
X75085363Y19964759D01*
X74928320Y19729727D01*
X74820147Y19468574D01*
X74765000Y19191335D01*
X73825000Y19191335D01*
X73769853Y19468574D01*
X73661680Y19729727D01*
X73504637Y19964759D01*
X73304759Y20164637D01*
X73225000Y20217930D01*
X73225000Y24407298D01*
X80466903Y24407298D01*
X80538486Y24163329D01*
X80793996Y24042429D01*
X81068184Y23973700D01*
X81350512Y23959783D01*
X81630130Y24001213D01*
X81896292Y24096397D01*
X82021514Y24163329D01*
X82093097Y24407298D01*
X81280000Y25220395D01*
X80466903Y24407298D01*
X73225000Y24407298D01*
X73225000Y25329488D01*
X79839783Y25329488D01*
X79881213Y25049870D01*
X79976397Y24783708D01*
X80043329Y24658486D01*
X80287298Y24586903D01*
X81100395Y25400000D01*
X81459605Y25400000D01*
X82272702Y24586903D01*
X82516671Y24658486D01*
X82637571Y24913996D01*
X82706300Y25188184D01*
X82720217Y25470512D01*
X82678787Y25750130D01*
X82583603Y26016292D01*
X82516671Y26141514D01*
X82272702Y26213097D01*
X81459605Y25400000D01*
X81100395Y25400000D01*
X80287298Y26213097D01*
X80043329Y26141514D01*
X79922429Y25886004D01*
X79853700Y25611816D01*
X79839783Y25329488D01*
X73225000Y25329488D01*
X73225000Y25536733D01*
X74080969Y26392702D01*
X80466903Y26392702D01*
X81280000Y25579605D01*
X82093097Y26392702D01*
X82021514Y26636671D01*
X81766004Y26757571D01*
X81491816Y26826300D01*
X81209488Y26840217D01*
X80929870Y26798787D01*
X80663708Y26703603D01*
X80538486Y26636671D01*
X80466903Y26392702D01*
X74080969Y26392702D01*
X78445565Y30757298D01*
X80546903Y30757298D01*
X80618486Y30513329D01*
X80873996Y30392429D01*
X81148184Y30323700D01*
X81430512Y30309783D01*
X81710130Y30351213D01*
X81976292Y30446397D01*
X82101514Y30513329D01*
X82173097Y30757298D01*
X81360000Y31570395D01*
X80546903Y30757298D01*
X78445565Y30757298D01*
X80072626Y32384358D01*
X80002429Y32236004D01*
X79933700Y31961816D01*
X79919783Y31679488D01*
X79961213Y31399870D01*
X80056397Y31133708D01*
X80123329Y31008486D01*
X80367298Y30936903D01*
X81180395Y31750000D01*
X81539605Y31750000D01*
X82352702Y30936903D01*
X82596671Y31008486D01*
X82717571Y31263996D01*
X82786300Y31538184D01*
X82800217Y31820512D01*
X82758787Y32100130D01*
X82663603Y32366292D01*
X82596671Y32491514D01*
X82352702Y32563097D01*
X81539605Y31750000D01*
X81180395Y31750000D01*
X81166253Y31764142D01*
X81345858Y31943747D01*
X81360000Y31929605D01*
X82173097Y32742702D01*
X82101514Y32986671D01*
X81846004Y33107571D01*
X81571816Y33176300D01*
X81289488Y33190217D01*
X81009870Y33148787D01*
X80743708Y33053603D01*
X80739761Y33051493D01*
X90983432Y43295163D01*
X91015291Y43321309D01*
X91119636Y43448454D01*
X91197172Y43593513D01*
X91244918Y43750911D01*
X91257000Y43873581D01*
X91261040Y43914600D01*
X91257000Y43955618D01*
X91257000Y62701282D01*
X91261040Y62742300D01*
X91244918Y62905988D01*
X91244700Y62906709D01*
X91197172Y63063387D01*
X91119636Y63208446D01*
X91015291Y63335591D01*
X90983433Y63361736D01*
X90318890Y64026278D01*
X90371162Y64124071D01*
X100795300Y53699931D01*
X100795301Y45810498D01*
X100748574Y45829853D01*
X100471335Y45885000D01*
X100188665Y45885000D01*
X99911426Y45829853D01*
X99650273Y45721680D01*
X99415241Y45564637D01*
X99215363Y45364759D01*
X99058320Y45129727D01*
X98950147Y44868574D01*
X98895000Y44591335D01*
X98895000Y44308665D01*
X98950147Y44031426D01*
X99058320Y43770273D01*
X99215363Y43535241D01*
X99375018Y43375586D01*
X92148579Y36149146D01*
X92116709Y36122991D01*
X92040394Y36030000D01*
X92012364Y35995845D01*
X91934828Y35850786D01*
X91887082Y35693388D01*
X91870960Y35529700D01*
X91875000Y35488681D01*
X91875001Y32917931D01*
X91795241Y32864637D01*
X91595363Y32664759D01*
X91542070Y32585000D01*
X87527930Y32585000D01*
X87474637Y32664759D01*
X87274759Y32864637D01*
X87039727Y33021680D01*
X86778574Y33129853D01*
X86501335Y33185000D01*
X86218665Y33185000D01*
X85941426Y33129853D01*
X85680273Y33021680D01*
X85445241Y32864637D01*
X85245363Y32664759D01*
X85088320Y32429727D01*
X84980147Y32168574D01*
X84925000Y31891335D01*
X84925000Y31608665D01*
X84943714Y31514582D01*
X84335274Y30906141D01*
X84303410Y30879991D01*
X84277262Y30848129D01*
X84199064Y30752845D01*
X84121528Y30607786D01*
X84073782Y30450388D01*
X84057660Y30286700D01*
X84061701Y30245671D01*
X84061700Y22443568D01*
X73681064Y12062931D01*
X73661680Y12109727D01*
X73504637Y12344759D01*
X73304759Y12544637D01*
X73069727Y12701680D01*
X72808574Y12809853D01*
X72531335Y12865000D01*
X72248665Y12865000D01*
X71971426Y12809853D01*
X71710273Y12701680D01*
X71475241Y12544637D01*
X71275363Y12344759D01*
X71118320Y12109727D01*
X71010147Y11848574D01*
X70955000Y11571335D01*
X70955000Y11288665D01*
X71010147Y11011426D01*
X71118320Y10750273D01*
X71275363Y10515241D01*
X71475241Y10315363D01*
X71710273Y10158320D01*
X71757069Y10138936D01*
X69288574Y7670441D01*
X69256710Y7644291D01*
X69230562Y7612429D01*
X69152364Y7517145D01*
X69074828Y7372086D01*
X69027082Y7214688D01*
X69010960Y7051000D01*
X69015001Y7009972D01*
X69015001Y6308065D01*
X68903368Y6233475D01*
X68696525Y6026632D01*
X68534010Y5783411D01*
X68422068Y5513158D01*
X68365000Y5226260D01*
X68365000Y4933740D01*
X68422068Y4646842D01*
X68534010Y4376589D01*
X68696525Y4133368D01*
X68903368Y3926525D01*
X69146589Y3764010D01*
X69416842Y3652068D01*
X69703740Y3595000D01*
X69996260Y3595000D01*
X70283158Y3652068D01*
X70553411Y3764010D01*
X70796632Y3926525D01*
X71003475Y4133368D01*
X71120000Y4307760D01*
X71236525Y4133368D01*
X71443368Y3926525D01*
X71686589Y3764010D01*
X71956842Y3652068D01*
X72243740Y3595000D01*
X72536260Y3595000D01*
X72823158Y3652068D01*
X73093411Y3764010D01*
X73336632Y3926525D01*
X73543475Y4133368D01*
X73660000Y4307760D01*
X73776525Y4133368D01*
X73983368Y3926525D01*
X74226589Y3764010D01*
X74496842Y3652068D01*
X74783740Y3595000D01*
X75076260Y3595000D01*
X75363158Y3652068D01*
X75633411Y3764010D01*
X75876632Y3926525D01*
X76083475Y4133368D01*
X76205195Y4315534D01*
X76274822Y4198645D01*
X76469731Y3982412D01*
X76703080Y3808359D01*
X76965901Y3683175D01*
X77113110Y3638524D01*
X77343000Y3759845D01*
X77343000Y4953000D01*
X77323000Y4953000D01*
X77323000Y5207000D01*
X77343000Y5207000D01*
X77343000Y6400155D01*
X77597000Y6400155D01*
X77597000Y5207000D01*
X77617000Y5207000D01*
X77617000Y4953000D01*
X77597000Y4953000D01*
X77597000Y3759845D01*
X77826890Y3638524D01*
X77974099Y3683175D01*
X78236920Y3808359D01*
X78470269Y3982412D01*
X78546034Y4066466D01*
X78570498Y3985820D01*
X78629463Y3875506D01*
X78708815Y3778815D01*
X78805506Y3699463D01*
X78915820Y3640498D01*
X79035518Y3604188D01*
X79160000Y3591928D01*
X80860000Y3591928D01*
X80984482Y3604188D01*
X81104180Y3640498D01*
X81214494Y3699463D01*
X81311185Y3778815D01*
X81390537Y3875506D01*
X81449502Y3985820D01*
X81485812Y4105518D01*
X81498072Y4230000D01*
X81498072Y4720973D01*
X96335037Y4720973D01*
X96433036Y4444022D01*
X96583183Y4191512D01*
X96779707Y3973146D01*
X97015056Y3797316D01*
X97280186Y3670778D01*
X97430974Y3625042D01*
X97663000Y3746183D01*
X97663000Y4953000D01*
X97917000Y4953000D01*
X97917000Y3746183D01*
X98149026Y3625042D01*
X98299814Y3670778D01*
X98564944Y3797316D01*
X98800293Y3973146D01*
X98996817Y4191512D01*
X99060000Y4297770D01*
X99123183Y4191512D01*
X99319707Y3973146D01*
X99555056Y3797316D01*
X99820186Y3670778D01*
X99970974Y3625042D01*
X100203000Y3746183D01*
X100203000Y4953000D01*
X100457000Y4953000D01*
X100457000Y3746183D01*
X100689026Y3625042D01*
X100839814Y3670778D01*
X101104944Y3797316D01*
X101340293Y3973146D01*
X101536817Y4191512D01*
X101600000Y4297770D01*
X101663183Y4191512D01*
X101859707Y3973146D01*
X102095056Y3797316D01*
X102360186Y3670778D01*
X102510974Y3625042D01*
X102743000Y3746183D01*
X102743000Y4953000D01*
X102997000Y4953000D01*
X102997000Y3746183D01*
X103229026Y3625042D01*
X103379814Y3670778D01*
X103644944Y3797316D01*
X103880293Y3973146D01*
X104076817Y4191512D01*
X104140000Y4297770D01*
X104203183Y4191512D01*
X104399707Y3973146D01*
X104635056Y3797316D01*
X104900186Y3670778D01*
X105050974Y3625042D01*
X105283000Y3746183D01*
X105283000Y4953000D01*
X102997000Y4953000D01*
X102743000Y4953000D01*
X100457000Y4953000D01*
X100203000Y4953000D01*
X97917000Y4953000D01*
X97663000Y4953000D01*
X96455536Y4953000D01*
X96335037Y4720973D01*
X81498072Y4720973D01*
X81498072Y5930000D01*
X81485812Y6054482D01*
X81449502Y6174180D01*
X81390537Y6284494D01*
X81311185Y6381185D01*
X81214494Y6460537D01*
X81104180Y6519502D01*
X80984482Y6555812D01*
X80860000Y6568072D01*
X79160000Y6568072D01*
X79035518Y6555812D01*
X78915820Y6519502D01*
X78805506Y6460537D01*
X78708815Y6381185D01*
X78629463Y6284494D01*
X78570498Y6174180D01*
X78546034Y6093534D01*
X78470269Y6177588D01*
X78236920Y6351641D01*
X77974099Y6476825D01*
X77826890Y6521476D01*
X77597000Y6400155D01*
X77343000Y6400155D01*
X77113110Y6521476D01*
X76965901Y6476825D01*
X76703080Y6351641D01*
X76469731Y6177588D01*
X76274822Y5961355D01*
X76205195Y5844466D01*
X76083475Y6026632D01*
X75876632Y6233475D01*
X75633411Y6395990D01*
X75363158Y6507932D01*
X75076260Y6565000D01*
X74783740Y6565000D01*
X74496842Y6507932D01*
X74226589Y6395990D01*
X73983368Y6233475D01*
X73776525Y6026632D01*
X73660000Y5852240D01*
X73543475Y6026632D01*
X73336632Y6233475D01*
X73093411Y6395990D01*
X72823158Y6507932D01*
X72536260Y6565000D01*
X72243740Y6565000D01*
X71956842Y6507932D01*
X71686589Y6395990D01*
X71443368Y6233475D01*
X71236525Y6026632D01*
X71120000Y5852240D01*
X71003475Y6026632D01*
X70796632Y6233475D01*
X70685000Y6308065D01*
X70685000Y6705133D01*
X74870275Y10890407D01*
X74928320Y10750273D01*
X75085363Y10515241D01*
X75285241Y10315363D01*
X75520273Y10158320D01*
X75781426Y10050147D01*
X76058665Y9995000D01*
X76341335Y9995000D01*
X76618574Y10050147D01*
X76879727Y10158320D01*
X77114759Y10315363D01*
X77314637Y10515241D01*
X77471680Y10750273D01*
X77579853Y11011426D01*
X77635000Y11288665D01*
X77635000Y11571335D01*
X77579853Y11848574D01*
X77471680Y12109727D01*
X77314637Y12344759D01*
X77114759Y12544637D01*
X76879727Y12701680D01*
X76739593Y12759725D01*
X85242568Y21262700D01*
X88046433Y21262700D01*
X100190531Y9118600D01*
X100182401Y9118600D01*
X99892875Y9061010D01*
X99620147Y8948042D01*
X99374698Y8784039D01*
X99165961Y8575302D01*
X99060000Y8416719D01*
X98954039Y8575302D01*
X98745302Y8784039D01*
X98499853Y8948042D01*
X98227125Y9061010D01*
X97937599Y9118600D01*
X97642401Y9118600D01*
X97352875Y9061010D01*
X97080147Y8948042D01*
X96834698Y8784039D01*
X96625961Y8575302D01*
X96461958Y8329853D01*
X96348990Y8057125D01*
X96291400Y7767599D01*
X96291400Y7472401D01*
X96348990Y7182875D01*
X96461958Y6910147D01*
X96625961Y6664698D01*
X96834698Y6455961D01*
X96995813Y6348308D01*
X96779707Y6186854D01*
X96583183Y5968488D01*
X96433036Y5715978D01*
X96335037Y5439027D01*
X96455536Y5207000D01*
X97663000Y5207000D01*
X97663000Y5227000D01*
X97917000Y5227000D01*
X97917000Y5207000D01*
X100203000Y5207000D01*
X100203000Y5227000D01*
X100457000Y5227000D01*
X100457000Y5207000D01*
X102743000Y5207000D01*
X102743000Y5227000D01*
X102997000Y5227000D01*
X102997000Y5207000D01*
X105283000Y5207000D01*
X105283000Y5227000D01*
X105537000Y5227000D01*
X105537000Y5207000D01*
X105557000Y5207000D01*
X105557000Y4953000D01*
X105537000Y4953000D01*
X105537000Y3746183D01*
X105769026Y3625042D01*
X105919814Y3670778D01*
X106184944Y3797316D01*
X106420293Y3973146D01*
X106616817Y4191512D01*
X106675441Y4290103D01*
X106785961Y4124698D01*
X106994698Y3915961D01*
X107240147Y3751958D01*
X107512875Y3638990D01*
X107802401Y3581400D01*
X108097599Y3581400D01*
X108387125Y3638990D01*
X108659853Y3751958D01*
X108905302Y3915961D01*
X109114039Y4124698D01*
X109278042Y4370147D01*
X109391010Y4642875D01*
X109448600Y4932401D01*
X109448600Y5227599D01*
X109391010Y5517125D01*
X109278042Y5789853D01*
X109114039Y6035302D01*
X108999977Y6149364D01*
X109057780Y6166898D01*
X109168094Y6225863D01*
X109264785Y6305215D01*
X109344137Y6401906D01*
X109403102Y6512220D01*
X109439412Y6631918D01*
X109451672Y6756400D01*
X109451672Y8483600D01*
X109439412Y8608082D01*
X109403102Y8727780D01*
X109344137Y8838094D01*
X109264785Y8934785D01*
X109168094Y9014137D01*
X109057780Y9073102D01*
X108938082Y9109412D01*
X108813600Y9121672D01*
X107086400Y9121672D01*
X106961918Y9109412D01*
X106842220Y9073102D01*
X106731906Y9014137D01*
X106635215Y8934785D01*
X106555863Y8838094D01*
X106496898Y8727780D01*
X106479364Y8669977D01*
X106365302Y8784039D01*
X106119853Y8948042D01*
X105847125Y9061010D01*
X105557599Y9118600D01*
X105262401Y9118600D01*
X104972875Y9061010D01*
X104700147Y8948042D01*
X104454698Y8784039D01*
X104245961Y8575302D01*
X104140000Y8416719D01*
X104034039Y8575302D01*
X103825302Y8784039D01*
X103579853Y8948042D01*
X103307125Y9061010D01*
X103017599Y9118600D01*
X102722401Y9118600D01*
X102580495Y9090373D01*
X89011746Y22659121D01*
X88985591Y22690991D01*
X88858446Y22795336D01*
X88713387Y22872872D01*
X88555989Y22920618D01*
X88433319Y22932700D01*
X88433318Y22932700D01*
X88392300Y22936740D01*
X88351282Y22932700D01*
X85731700Y22932700D01*
X85731700Y24073881D01*
X85861426Y24020147D01*
X86138665Y23965000D01*
X86421335Y23965000D01*
X86698574Y24020147D01*
X86959727Y24128320D01*
X87194759Y24285363D01*
X87394637Y24485241D01*
X87447930Y24565000D01*
X93938982Y24565000D01*
X93980000Y24560960D01*
X94021018Y24565000D01*
X94021019Y24565000D01*
X94143689Y24577082D01*
X94301087Y24624828D01*
X94446146Y24702364D01*
X94573291Y24806709D01*
X94599446Y24838579D01*
X100094582Y30333714D01*
X100188665Y30315000D01*
X100471335Y30315000D01*
X100748574Y30370147D01*
X101009727Y30478320D01*
X101244759Y30635363D01*
X101444637Y30835241D01*
X101601680Y31070273D01*
X101709853Y31331426D01*
X101765000Y31608665D01*
X101765000Y31891335D01*
X101709853Y32168574D01*
X101601680Y32429727D01*
X101444637Y32664759D01*
X101244759Y32864637D01*
X101009727Y33021680D01*
X100748574Y33129853D01*
X100471335Y33185000D01*
X100188665Y33185000D01*
X99911426Y33129853D01*
X99650273Y33021680D01*
X99415241Y32864637D01*
X99215363Y32664759D01*
X99058320Y32429727D01*
X98950147Y32168574D01*
X98895000Y31891335D01*
X98895000Y31608665D01*
X98913714Y31514582D01*
X93634133Y26235000D01*
X87447930Y26235000D01*
X87394637Y26314759D01*
X87194759Y26514637D01*
X86959727Y26671680D01*
X86698574Y26779853D01*
X86421335Y26835000D01*
X86138665Y26835000D01*
X85861426Y26779853D01*
X85731700Y26726119D01*
X85731700Y29940833D01*
X86124582Y30333714D01*
X86218665Y30315000D01*
X86501335Y30315000D01*
X86778574Y30370147D01*
X87039727Y30478320D01*
X87274759Y30635363D01*
X87474637Y30835241D01*
X87527930Y30915000D01*
X91542070Y30915000D01*
X91595363Y30835241D01*
X91795241Y30635363D01*
X92030273Y30478320D01*
X92291426Y30370147D01*
X92568665Y30315000D01*
X92851335Y30315000D01*
X93128574Y30370147D01*
X93389727Y30478320D01*
X93624759Y30635363D01*
X93824637Y30835241D01*
X93981680Y31070273D01*
X94089853Y31331426D01*
X94145000Y31608665D01*
X94145000Y31891335D01*
X94089853Y32168574D01*
X93981680Y32429727D01*
X93824637Y32664759D01*
X93624759Y32864637D01*
X93545000Y32917930D01*
X93545000Y35183833D01*
X100795301Y42434133D01*
X100795301Y39776470D01*
X99768574Y38749741D01*
X99736710Y38723591D01*
X99710562Y38691729D01*
X99632364Y38596445D01*
X99554828Y38451386D01*
X99507082Y38293988D01*
X99504280Y38265539D01*
X99405518Y38255812D01*
X99285820Y38219502D01*
X99175506Y38160537D01*
X99078815Y38081185D01*
X98999463Y37984494D01*
X98940498Y37874180D01*
X98904188Y37754482D01*
X98891928Y37630000D01*
X98891928Y36030000D01*
X98904188Y35905518D01*
X98940498Y35785820D01*
X98999463Y35675506D01*
X99078815Y35578815D01*
X99175506Y35499463D01*
X99285820Y35440498D01*
X99405518Y35404188D01*
X99530000Y35391928D01*
X101130000Y35391928D01*
X101254482Y35404188D01*
X101374180Y35440498D01*
X101484494Y35499463D01*
X101581185Y35578815D01*
X101660537Y35675506D01*
X101719502Y35785820D01*
X101755812Y35905518D01*
X101768072Y36030000D01*
X101768072Y37630000D01*
X101755812Y37754482D01*
X101719502Y37874180D01*
X101660537Y37984494D01*
X101581185Y38081185D01*
X101515587Y38135019D01*
X102191732Y38811163D01*
X102223591Y38837309D01*
X102327936Y38964454D01*
X102405472Y39109513D01*
X102453218Y39266911D01*
X102465300Y39389581D01*
X102469340Y39430600D01*
X102465300Y39471618D01*
X102465300Y54004782D01*
X102469340Y54045800D01*
X102453218Y54209488D01*
X102405472Y54366887D01*
X102327936Y54511946D01*
X102249739Y54607230D01*
X102249737Y54607232D01*
X102223591Y54639091D01*
X102191733Y54665236D01*
X94485633Y62371335D01*
X97625000Y62371335D01*
X97625000Y62088665D01*
X97680147Y61811426D01*
X97788320Y61550273D01*
X97945363Y61315241D01*
X98145241Y61115363D01*
X98380273Y60958320D01*
X98641426Y60850147D01*
X98918665Y60795000D01*
X99201335Y60795000D01*
X99478574Y60850147D01*
X99739727Y60958320D01*
X99974759Y61115363D01*
X100174637Y61315241D01*
X100331680Y61550273D01*
X100439853Y61811426D01*
X100495000Y62088665D01*
X100495000Y62371335D01*
X100439853Y62648574D01*
X100331680Y62909727D01*
X100174637Y63144759D01*
X99974759Y63344637D01*
X99739727Y63501680D01*
X99478574Y63609853D01*
X99201335Y63665000D01*
X98918665Y63665000D01*
X98641426Y63609853D01*
X98380273Y63501680D01*
X98145241Y63344637D01*
X97945363Y63144759D01*
X97788320Y62909727D01*
X97680147Y62648574D01*
X97625000Y62371335D01*
X94485633Y62371335D01*
X90308177Y66548790D01*
X90312092Y66553560D01*
X90437914Y66788955D01*
X90515394Y67044374D01*
X90541556Y67310000D01*
X90515394Y67575626D01*
X90437914Y67831045D01*
X90312092Y68066440D01*
X90142765Y68272765D01*
X89936440Y68442092D01*
X89701045Y68567914D01*
X89445626Y68645394D01*
X89246564Y68665000D01*
X88553436Y68665000D01*
X88354374Y68645394D01*
X88098955Y68567914D01*
X87863560Y68442092D01*
X87657235Y68272765D01*
X87487908Y68066440D01*
X87362086Y67831045D01*
X87284606Y67575626D01*
X87258444Y67310000D01*
X87284606Y67044374D01*
X87362086Y66788955D01*
X87487908Y66553560D01*
X87657235Y66347235D01*
X87863560Y66177908D01*
X88062759Y66071433D01*
X88068641Y66011711D01*
X87863560Y65902092D01*
X87657235Y65732765D01*
X87487908Y65526440D01*
X87362086Y65291045D01*
X87284606Y65035626D01*
X87258444Y64770000D01*
X87284606Y64504374D01*
X87335985Y64335000D01*
X83506068Y64335000D01*
X82905222Y64935846D01*
X82895394Y65035626D01*
X82817914Y65291045D01*
X82692092Y65526440D01*
X82522765Y65732765D01*
X82316440Y65902092D01*
X82223204Y65951928D01*
X82280000Y65951928D01*
X82404482Y65964188D01*
X82524180Y66000498D01*
X82634494Y66059463D01*
X82731185Y66138815D01*
X82810537Y66235506D01*
X82869502Y66345820D01*
X82905812Y66465518D01*
X82918072Y66590000D01*
X82918072Y68030000D01*
X82905812Y68154482D01*
X82869502Y68274180D01*
X82810537Y68384494D01*
X82731185Y68481185D01*
X82634494Y68560537D01*
X82524180Y68619502D01*
X82404482Y68655812D01*
X82280000Y68668072D01*
X82105471Y68668072D01*
X82102918Y68693989D01*
X82055172Y68851387D01*
X81977636Y68996446D01*
X81873291Y69123591D01*
X81746146Y69227936D01*
X81601087Y69305472D01*
X81443689Y69353218D01*
X81321019Y69365300D01*
X81280000Y69369340D01*
X81238982Y69365300D01*
X60296318Y69365300D01*
X60255300Y69369340D01*
X60214282Y69365300D01*
X60214281Y69365300D01*
X60091611Y69353218D01*
X59934213Y69305472D01*
X59789154Y69227936D01*
X59662009Y69123591D01*
X59635863Y69091732D01*
X59212204Y68668072D01*
X57600000Y68668072D01*
X57475518Y68655812D01*
X57355820Y68619502D01*
X57245506Y68560537D01*
X57148815Y68481185D01*
X57069463Y68384494D01*
X57010498Y68274180D01*
X56974188Y68154482D01*
X56961928Y68030000D01*
X56961928Y66924700D01*
X47299092Y66924700D01*
X47335394Y67044374D01*
X47361556Y67310000D01*
X47335394Y67575626D01*
X47257914Y67831045D01*
X47132092Y68066440D01*
X46962765Y68272765D01*
X46756440Y68442092D01*
X46521045Y68567914D01*
X46265626Y68645394D01*
X46066564Y68665000D01*
X45373436Y68665000D01*
X45174374Y68645394D01*
X44918955Y68567914D01*
X44683560Y68442092D01*
X44477235Y68272765D01*
X44307908Y68066440D01*
X44182086Y67831045D01*
X44104606Y67575626D01*
X44078444Y67310000D01*
X44104606Y67044374D01*
X44140908Y66924700D01*
X37198072Y66924700D01*
X37198072Y68030000D01*
X37185812Y68154482D01*
X37149502Y68274180D01*
X37090537Y68384494D01*
X37011185Y68481185D01*
X36914494Y68560537D01*
X36804180Y68619502D01*
X36684482Y68655812D01*
X36560000Y68668072D01*
X34560000Y68668072D01*
X34435518Y68655812D01*
X34315820Y68619502D01*
X34205506Y68560537D01*
X34108815Y68481185D01*
X34029463Y68384494D01*
X33970498Y68274180D01*
X33934188Y68154482D01*
X33921928Y68030000D01*
X33921928Y66590000D01*
X33934188Y66465518D01*
X33970498Y66345820D01*
X34029463Y66235506D01*
X34108815Y66138815D01*
X34205506Y66059463D01*
X34315820Y66000498D01*
X34435518Y65964188D01*
X34560000Y65951928D01*
X34616796Y65951928D01*
X34523560Y65902092D01*
X34317235Y65732765D01*
X34147908Y65526440D01*
X34022086Y65291045D01*
X33944606Y65035626D01*
X33918444Y64770000D01*
X33944606Y64504374D01*
X34022086Y64248955D01*
X34147908Y64013560D01*
X34317235Y63807235D01*
X34523560Y63637908D01*
X34722759Y63531433D01*
X34728641Y63471711D01*
X34523560Y63362092D01*
X34317235Y63192765D01*
X34147908Y62986440D01*
X34022086Y62751045D01*
X33944606Y62495626D01*
X33918444Y62230000D01*
X33944606Y61964374D01*
X33997987Y61788400D01*
X24422013Y61788400D01*
X24475394Y61964374D01*
X24501556Y62230000D01*
X24475394Y62495626D01*
X24397914Y62751045D01*
X24272092Y62986440D01*
X24102765Y63192765D01*
X23896440Y63362092D01*
X23661045Y63487914D01*
X23621203Y63500000D01*
X23661045Y63512086D01*
X23896440Y63637908D01*
X24102765Y63807235D01*
X24272092Y64013560D01*
X24397914Y64248955D01*
X24475394Y64504374D01*
X24501556Y64770000D01*
X24475394Y65035626D01*
X24397914Y65291045D01*
X24272092Y65526440D01*
X24102765Y65732765D01*
X23896440Y65902092D01*
X23661045Y66027914D01*
X23621203Y66040000D01*
X23661045Y66052086D01*
X23896440Y66177908D01*
X24102765Y66347235D01*
X24272092Y66553560D01*
X24397914Y66788955D01*
X24475394Y67044374D01*
X24501556Y67310000D01*
X24475394Y67575626D01*
X24397914Y67831045D01*
X24272092Y68066440D01*
X24102765Y68272765D01*
X23896440Y68442092D01*
X23661045Y68567914D01*
X23405626Y68645394D01*
X23206564Y68665000D01*
X22513436Y68665000D01*
X22314374Y68645394D01*
X22058955Y68567914D01*
X21823560Y68442092D01*
X21617235Y68272765D01*
X21447908Y68066440D01*
X21322086Y67831045D01*
X21244606Y67575626D01*
X21218444Y67310000D01*
X21244606Y67044374D01*
X21322086Y66788955D01*
X21447908Y66553560D01*
X21617235Y66347235D01*
X21823560Y66177908D01*
X22058955Y66052086D01*
X22098797Y66040000D01*
X22058955Y66027914D01*
X21823560Y65902092D01*
X21617235Y65732765D01*
X21447908Y65526440D01*
X21322086Y65291045D01*
X21244606Y65035626D01*
X21218444Y64770000D01*
X21244606Y64504374D01*
X21322086Y64248955D01*
X21447908Y64013560D01*
X21617235Y63807235D01*
X21823560Y63637908D01*
X22058955Y63512086D01*
X22098797Y63500000D01*
X22058955Y63487914D01*
X21823560Y63362092D01*
X21617235Y63192765D01*
X21447908Y62986440D01*
X21322086Y62751045D01*
X21244606Y62495626D01*
X21218444Y62230000D01*
X21244606Y61964374D01*
X21297987Y61788400D01*
X16544418Y61788400D01*
X16503400Y61792440D01*
X16462382Y61788400D01*
X16462381Y61788400D01*
X16339711Y61776318D01*
X16298623Y61763854D01*
X16182313Y61728572D01*
X16037254Y61651036D01*
X15978710Y61602990D01*
X15910109Y61546691D01*
X15883963Y61514832D01*
X9236234Y54867101D01*
X9235394Y54875626D01*
X9157914Y55131045D01*
X9032092Y55366440D01*
X8862765Y55572765D01*
X8656440Y55742092D01*
X8421045Y55867914D01*
X8381203Y55880000D01*
X8421045Y55892086D01*
X8656440Y56017908D01*
X8862765Y56187235D01*
X9032092Y56393560D01*
X9157914Y56628955D01*
X9235394Y56884374D01*
X9261556Y57150000D01*
X9235394Y57415626D01*
X9157914Y57671045D01*
X9032092Y57906440D01*
X8862765Y58112765D01*
X8656440Y58282092D01*
X8421045Y58407914D01*
X8381203Y58420000D01*
X8421045Y58432086D01*
X8656440Y58557908D01*
X8862765Y58727235D01*
X9032092Y58933560D01*
X9157914Y59168955D01*
X9235394Y59424374D01*
X9261556Y59690000D01*
X9235394Y59955626D01*
X9157914Y60211045D01*
X9032092Y60446440D01*
X8862765Y60652765D01*
X8656440Y60822092D01*
X8421045Y60947914D01*
X8381203Y60960000D01*
X8421045Y60972086D01*
X8656440Y61097908D01*
X8862765Y61267235D01*
X9032092Y61473560D01*
X9157914Y61708955D01*
X9235394Y61964374D01*
X9261556Y62230000D01*
X9235394Y62495626D01*
X9157914Y62751045D01*
X9032092Y62986440D01*
X8862765Y63192765D01*
X8656440Y63362092D01*
X8421045Y63487914D01*
X8381203Y63500000D01*
X8421045Y63512086D01*
X8656440Y63637908D01*
X8862765Y63807235D01*
X9032092Y64013560D01*
X9157914Y64248955D01*
X9235394Y64504374D01*
X9261556Y64770000D01*
X9235394Y65035626D01*
X9157914Y65291045D01*
X9032092Y65526440D01*
X8862765Y65732765D01*
X8656440Y65902092D01*
X8563204Y65951928D01*
X8620000Y65951928D01*
X8744482Y65964188D01*
X8864180Y66000498D01*
X8974494Y66059463D01*
X9071185Y66138815D01*
X9150537Y66235506D01*
X9209502Y66345820D01*
X9245812Y66465518D01*
X9258072Y66590000D01*
X9258072Y68030000D01*
X9245812Y68154482D01*
X9209502Y68274180D01*
X9150537Y68384494D01*
X9071185Y68481185D01*
X8974494Y68560537D01*
X8864180Y68619502D01*
X8744482Y68655812D01*
X8620000Y68668072D01*
X6620000Y68668072D01*
X6495518Y68655812D01*
X6375820Y68619502D01*
X6265506Y68560537D01*
X6168815Y68481185D01*
X6089463Y68384494D01*
X6030498Y68274180D01*
X5994188Y68154482D01*
X5981928Y68030000D01*
X5981928Y66590000D01*
X5994188Y66465518D01*
X6025460Y66362428D01*
X4796479Y65133446D01*
X4764609Y65107291D01*
X4705796Y65035626D01*
X4660264Y64980145D01*
X4582728Y64835086D01*
X4534982Y64677688D01*
X4518860Y64514000D01*
X660000Y64514000D01*
X660000Y69991335D01*
X97625000Y69991335D01*
X97625000Y69708665D01*
X97680147Y69431426D01*
X97788320Y69170273D01*
X97945363Y68935241D01*
X98145241Y68735363D01*
X98380273Y68578320D01*
X98641426Y68470147D01*
X98918665Y68415000D01*
X99201335Y68415000D01*
X99478574Y68470147D01*
X99739727Y68578320D01*
X99974759Y68735363D01*
X100174637Y68935241D01*
X100331680Y69170273D01*
X100439853Y69431426D01*
X100495000Y69708665D01*
X100495000Y69991335D01*
X100439853Y70268574D01*
X100331680Y70529727D01*
X100174637Y70764759D01*
X99974759Y70964637D01*
X99739727Y71121680D01*
X99478574Y71229853D01*
X99201335Y71285000D01*
X98918665Y71285000D01*
X98641426Y71229853D01*
X98380273Y71121680D01*
X98145241Y70964637D01*
X97945363Y70764759D01*
X97788320Y70529727D01*
X97680147Y70268574D01*
X97625000Y69991335D01*
X660000Y69991335D01*
X660000Y76570000D01*
X97521928Y76570000D01*
X97534188Y76445518D01*
X97570498Y76325820D01*
X97629463Y76215506D01*
X97708815Y76118815D01*
X97805506Y76039463D01*
X97915820Y75980498D01*
X97934127Y75974944D01*
X97867688Y75908505D01*
X97699701Y75657095D01*
X97583989Y75377743D01*
X97525000Y75081184D01*
X97525000Y74778816D01*
X97583989Y74482257D01*
X97699701Y74202905D01*
X97867688Y73951495D01*
X98081495Y73737688D01*
X98332905Y73569701D01*
X98612257Y73453989D01*
X98908816Y73395000D01*
X99211184Y73395000D01*
X99507743Y73453989D01*
X99787095Y73569701D01*
X100038505Y73737688D01*
X100252312Y73951495D01*
X100420299Y74202905D01*
X100536011Y74482257D01*
X100595000Y74778816D01*
X100595000Y75081184D01*
X100536011Y75377743D01*
X100420299Y75657095D01*
X100252312Y75908505D01*
X100185873Y75974944D01*
X100204180Y75980498D01*
X100314494Y76039463D01*
X100411185Y76118815D01*
X100490537Y76215506D01*
X100549502Y76325820D01*
X100585812Y76445518D01*
X100598072Y76570000D01*
X100595000Y77184250D01*
X100436250Y77343000D01*
X99187000Y77343000D01*
X99187000Y77323000D01*
X98933000Y77323000D01*
X98933000Y77343000D01*
X97683750Y77343000D01*
X97525000Y77184250D01*
X97521928Y76570000D01*
X660000Y76570000D01*
X660000Y78370000D01*
X97521928Y78370000D01*
X97525000Y77755750D01*
X97683750Y77597000D01*
X98933000Y77597000D01*
X98933000Y78846250D01*
X99187000Y78846250D01*
X99187000Y77597000D01*
X100436250Y77597000D01*
X100595000Y77755750D01*
X100598072Y78370000D01*
X100585812Y78494482D01*
X100549502Y78614180D01*
X100490537Y78724494D01*
X100411185Y78821185D01*
X100314494Y78900537D01*
X100204180Y78959502D01*
X100084482Y78995812D01*
X99960000Y79008072D01*
X99345750Y79005000D01*
X99187000Y78846250D01*
X98933000Y78846250D01*
X98774250Y79005000D01*
X98160000Y79008072D01*
X98035518Y78995812D01*
X97915820Y78959502D01*
X97805506Y78900537D01*
X97708815Y78821185D01*
X97629463Y78724494D01*
X97570498Y78614180D01*
X97534188Y78494482D01*
X97521928Y78370000D01*
X660000Y78370000D01*
X660000Y80620000D01*
X114910000Y80620000D01*
X114910001Y660000D01*
G36*
X34317235Y51107235D02*
G01*
X34523560Y50937908D01*
X34758955Y50812086D01*
X34803759Y50798495D01*
X34644131Y50733256D01*
X34421605Y50586084D01*
X34232067Y50398327D01*
X34082801Y50177201D01*
X33979542Y49931203D01*
X33967441Y49866472D01*
X34090511Y49657000D01*
X35433000Y49657000D01*
X35433000Y49677000D01*
X35687000Y49677000D01*
X35687000Y49657000D01*
X37029489Y49657000D01*
X37152559Y49866472D01*
X37140458Y49931203D01*
X37037199Y50177201D01*
X36887933Y50398327D01*
X36698395Y50586084D01*
X36475869Y50733256D01*
X36316241Y50798495D01*
X36361045Y50812086D01*
X36596440Y50937908D01*
X36802765Y51107235D01*
X36907619Y51235000D01*
X43361013Y51235000D01*
X44308626Y50287315D01*
X44307908Y50286440D01*
X44182086Y50051045D01*
X44104606Y49795626D01*
X44078444Y49530000D01*
X44104606Y49264374D01*
X44171061Y49045300D01*
X37105410Y49045300D01*
X37140458Y49128797D01*
X37152559Y49193528D01*
X37029489Y49403000D01*
X35687000Y49403000D01*
X35687000Y49383000D01*
X35433000Y49383000D01*
X35433000Y49403000D01*
X34090511Y49403000D01*
X33967441Y49193528D01*
X33979542Y49128797D01*
X34082801Y48882799D01*
X34232067Y48661673D01*
X34421605Y48473916D01*
X34644131Y48326744D01*
X34729012Y48292054D01*
X34722759Y48228567D01*
X34523560Y48122092D01*
X34317235Y47952765D01*
X34147908Y47746440D01*
X34022086Y47511045D01*
X33944606Y47255626D01*
X33918444Y46990000D01*
X33944606Y46724374D01*
X34022086Y46468955D01*
X34147908Y46233560D01*
X34317235Y46027235D01*
X34523560Y45857908D01*
X34728641Y45748289D01*
X34726021Y45721680D01*
X34722759Y45688567D01*
X34523560Y45582092D01*
X34317235Y45412765D01*
X34147908Y45206440D01*
X34022086Y44971045D01*
X33944606Y44715626D01*
X33924356Y44510024D01*
X30839633Y41425300D01*
X24408939Y41425300D01*
X24475394Y41644374D01*
X24501556Y41910000D01*
X24475394Y42175626D01*
X24397914Y42431045D01*
X24272092Y42666440D01*
X24102765Y42872765D01*
X23896440Y43042092D01*
X23661045Y43167914D01*
X23616241Y43181505D01*
X23775869Y43246744D01*
X23998395Y43393916D01*
X24187933Y43581673D01*
X24337199Y43802799D01*
X24440458Y44048797D01*
X24452559Y44113528D01*
X24329489Y44323000D01*
X22987000Y44323000D01*
X22987000Y44303000D01*
X22733000Y44303000D01*
X22733000Y44323000D01*
X21390511Y44323000D01*
X21267441Y44113528D01*
X21279542Y44048797D01*
X21382801Y43802799D01*
X21532067Y43581673D01*
X21721605Y43393916D01*
X21944131Y43246744D01*
X22103759Y43181505D01*
X22058955Y43167914D01*
X21823560Y43042092D01*
X21617235Y42872765D01*
X21447908Y42666440D01*
X21322086Y42431045D01*
X21244606Y42175626D01*
X21218444Y41910000D01*
X21244606Y41644374D01*
X21311061Y41425300D01*
X9165410Y41425300D01*
X9200458Y41508797D01*
X9212559Y41573528D01*
X9089489Y41783000D01*
X7747000Y41783000D01*
X7747000Y41763000D01*
X7493000Y41763000D01*
X7493000Y41783000D01*
X7473000Y41783000D01*
X7473000Y42037000D01*
X7493000Y42037000D01*
X7493000Y42057000D01*
X7747000Y42057000D01*
X7747000Y42037000D01*
X9089489Y42037000D01*
X9212559Y42246472D01*
X9200458Y42311203D01*
X9097199Y42557201D01*
X8947933Y42778327D01*
X8758395Y42966084D01*
X8535869Y43113256D01*
X8376241Y43178495D01*
X8421045Y43192086D01*
X8656440Y43317908D01*
X8862765Y43487235D01*
X9032092Y43693560D01*
X9157914Y43928955D01*
X9235394Y44184374D01*
X9261556Y44450000D01*
X9235394Y44715626D01*
X9199092Y44835300D01*
X21276569Y44835300D01*
X21267441Y44786472D01*
X21390511Y44577000D01*
X22733000Y44577000D01*
X22733000Y44597000D01*
X22987000Y44597000D01*
X22987000Y44577000D01*
X24329489Y44577000D01*
X24452559Y44786472D01*
X24440458Y44851203D01*
X24337199Y45097201D01*
X24187933Y45318327D01*
X23998395Y45506084D01*
X23775869Y45653256D01*
X23690988Y45687946D01*
X23695000Y45728681D01*
X23695000Y45728682D01*
X23697241Y45751433D01*
X23896440Y45857908D01*
X24102765Y46027235D01*
X24272092Y46233560D01*
X24397914Y46468955D01*
X24475394Y46724374D01*
X24501556Y46990000D01*
X24475394Y47255626D01*
X24418215Y47444123D01*
X24546446Y47512664D01*
X24673591Y47617009D01*
X24699746Y47648879D01*
X28285868Y51235000D01*
X34212381Y51235000D01*
X34317235Y51107235D01*
G37*
X34317235Y51107235D02*
X34523560Y50937908D01*
X34758955Y50812086D01*
X34803759Y50798495D01*
X34644131Y50733256D01*
X34421605Y50586084D01*
X34232067Y50398327D01*
X34082801Y50177201D01*
X33979542Y49931203D01*
X33967441Y49866472D01*
X34090511Y49657000D01*
X35433000Y49657000D01*
X35433000Y49677000D01*
X35687000Y49677000D01*
X35687000Y49657000D01*
X37029489Y49657000D01*
X37152559Y49866472D01*
X37140458Y49931203D01*
X37037199Y50177201D01*
X36887933Y50398327D01*
X36698395Y50586084D01*
X36475869Y50733256D01*
X36316241Y50798495D01*
X36361045Y50812086D01*
X36596440Y50937908D01*
X36802765Y51107235D01*
X36907619Y51235000D01*
X43361013Y51235000D01*
X44308626Y50287315D01*
X44307908Y50286440D01*
X44182086Y50051045D01*
X44104606Y49795626D01*
X44078444Y49530000D01*
X44104606Y49264374D01*
X44171061Y49045300D01*
X37105410Y49045300D01*
X37140458Y49128797D01*
X37152559Y49193528D01*
X37029489Y49403000D01*
X35687000Y49403000D01*
X35687000Y49383000D01*
X35433000Y49383000D01*
X35433000Y49403000D01*
X34090511Y49403000D01*
X33967441Y49193528D01*
X33979542Y49128797D01*
X34082801Y48882799D01*
X34232067Y48661673D01*
X34421605Y48473916D01*
X34644131Y48326744D01*
X34729012Y48292054D01*
X34722759Y48228567D01*
X34523560Y48122092D01*
X34317235Y47952765D01*
X34147908Y47746440D01*
X34022086Y47511045D01*
X33944606Y47255626D01*
X33918444Y46990000D01*
X33944606Y46724374D01*
X34022086Y46468955D01*
X34147908Y46233560D01*
X34317235Y46027235D01*
X34523560Y45857908D01*
X34728641Y45748289D01*
X34726021Y45721680D01*
X34722759Y45688567D01*
X34523560Y45582092D01*
X34317235Y45412765D01*
X34147908Y45206440D01*
X34022086Y44971045D01*
X33944606Y44715626D01*
X33924356Y44510024D01*
X30839633Y41425300D01*
X24408939Y41425300D01*
X24475394Y41644374D01*
X24501556Y41910000D01*
X24475394Y42175626D01*
X24397914Y42431045D01*
X24272092Y42666440D01*
X24102765Y42872765D01*
X23896440Y43042092D01*
X23661045Y43167914D01*
X23616241Y43181505D01*
X23775869Y43246744D01*
X23998395Y43393916D01*
X24187933Y43581673D01*
X24337199Y43802799D01*
X24440458Y44048797D01*
X24452559Y44113528D01*
X24329489Y44323000D01*
X22987000Y44323000D01*
X22987000Y44303000D01*
X22733000Y44303000D01*
X22733000Y44323000D01*
X21390511Y44323000D01*
X21267441Y44113528D01*
X21279542Y44048797D01*
X21382801Y43802799D01*
X21532067Y43581673D01*
X21721605Y43393916D01*
X21944131Y43246744D01*
X22103759Y43181505D01*
X22058955Y43167914D01*
X21823560Y43042092D01*
X21617235Y42872765D01*
X21447908Y42666440D01*
X21322086Y42431045D01*
X21244606Y42175626D01*
X21218444Y41910000D01*
X21244606Y41644374D01*
X21311061Y41425300D01*
X9165410Y41425300D01*
X9200458Y41508797D01*
X9212559Y41573528D01*
X9089489Y41783000D01*
X7747000Y41783000D01*
X7747000Y41763000D01*
X7493000Y41763000D01*
X7493000Y41783000D01*
X7473000Y41783000D01*
X7473000Y42037000D01*
X7493000Y42037000D01*
X7493000Y42057000D01*
X7747000Y42057000D01*
X7747000Y42037000D01*
X9089489Y42037000D01*
X9212559Y42246472D01*
X9200458Y42311203D01*
X9097199Y42557201D01*
X8947933Y42778327D01*
X8758395Y42966084D01*
X8535869Y43113256D01*
X8376241Y43178495D01*
X8421045Y43192086D01*
X8656440Y43317908D01*
X8862765Y43487235D01*
X9032092Y43693560D01*
X9157914Y43928955D01*
X9235394Y44184374D01*
X9261556Y44450000D01*
X9235394Y44715626D01*
X9199092Y44835300D01*
X21276569Y44835300D01*
X21267441Y44786472D01*
X21390511Y44577000D01*
X22733000Y44577000D01*
X22733000Y44597000D01*
X22987000Y44597000D01*
X22987000Y44577000D01*
X24329489Y44577000D01*
X24452559Y44786472D01*
X24440458Y44851203D01*
X24337199Y45097201D01*
X24187933Y45318327D01*
X23998395Y45506084D01*
X23775869Y45653256D01*
X23690988Y45687946D01*
X23695000Y45728681D01*
X23695000Y45728682D01*
X23697241Y45751433D01*
X23896440Y45857908D01*
X24102765Y46027235D01*
X24272092Y46233560D01*
X24397914Y46468955D01*
X24475394Y46724374D01*
X24501556Y46990000D01*
X24475394Y47255626D01*
X24418215Y47444123D01*
X24546446Y47512664D01*
X24673591Y47617009D01*
X24699746Y47648879D01*
X28285868Y51235000D01*
X34212381Y51235000D01*
X34317235Y51107235D01*
G36*
X79664606Y52335626D02*
G01*
X79638444Y52070000D01*
X79664606Y51804374D01*
X79742086Y51548955D01*
X79867908Y51313560D01*
X80037235Y51107235D01*
X80243560Y50937908D01*
X80478955Y50812086D01*
X80518797Y50800000D01*
X80478955Y50787914D01*
X80243560Y50662092D01*
X80037235Y50492765D01*
X79867908Y50286440D01*
X79742086Y50051045D01*
X79664606Y49795626D01*
X79638444Y49530000D01*
X79664606Y49264374D01*
X79742086Y49008955D01*
X79867908Y48773560D01*
X80037235Y48567235D01*
X80243560Y48397908D01*
X80478955Y48272086D01*
X80518797Y48260000D01*
X80478955Y48247914D01*
X80243560Y48122092D01*
X80037235Y47952765D01*
X79867908Y47746440D01*
X79742086Y47511045D01*
X79664606Y47255626D01*
X79638444Y46990000D01*
X79664606Y46724374D01*
X79742086Y46468955D01*
X79867908Y46233560D01*
X80037235Y46027235D01*
X80243560Y45857908D01*
X80478955Y45732086D01*
X80523759Y45718495D01*
X80364131Y45653256D01*
X80141605Y45506084D01*
X79952067Y45318327D01*
X79802801Y45097201D01*
X79699542Y44851203D01*
X79687441Y44786472D01*
X79810511Y44577000D01*
X81153000Y44577000D01*
X81153000Y44597000D01*
X81407000Y44597000D01*
X81407000Y44577000D01*
X81427000Y44577000D01*
X81427000Y44323000D01*
X81407000Y44323000D01*
X81407000Y44303000D01*
X81153000Y44303000D01*
X81153000Y44323000D01*
X79810511Y44323000D01*
X79687441Y44113528D01*
X79699542Y44048797D01*
X79802801Y43802799D01*
X79952067Y43581673D01*
X80141605Y43393916D01*
X80364131Y43246744D01*
X80611093Y43145812D01*
X80773447Y43114314D01*
X80404133Y42745000D01*
X70107619Y42745000D01*
X70002765Y42872765D01*
X69796440Y43042092D01*
X69561045Y43167914D01*
X69521203Y43180000D01*
X69561045Y43192086D01*
X69796440Y43317908D01*
X70002765Y43487235D01*
X70172092Y43693560D01*
X70297914Y43928955D01*
X70375394Y44184374D01*
X70401556Y44450000D01*
X70375394Y44715626D01*
X70297914Y44971045D01*
X70172092Y45206440D01*
X70002765Y45412765D01*
X69796440Y45582092D01*
X69561045Y45707914D01*
X69521203Y45720000D01*
X69561045Y45732086D01*
X69796440Y45857908D01*
X70002765Y46027235D01*
X70172092Y46233560D01*
X70297914Y46468955D01*
X70375394Y46724374D01*
X70401556Y46990000D01*
X70375394Y47255626D01*
X70297914Y47511045D01*
X70172092Y47746440D01*
X70002765Y47952765D01*
X69796440Y48122092D01*
X69561045Y48247914D01*
X69521203Y48260000D01*
X69561045Y48272086D01*
X69796440Y48397908D01*
X70002765Y48567235D01*
X70172092Y48773560D01*
X70297914Y49008955D01*
X70375394Y49264374D01*
X70401556Y49530000D01*
X70375394Y49795626D01*
X70297914Y50051045D01*
X70172092Y50286440D01*
X70002765Y50492765D01*
X69796440Y50662092D01*
X69561045Y50787914D01*
X69516241Y50801505D01*
X69675869Y50866744D01*
X69898395Y51013916D01*
X70087933Y51201673D01*
X70237199Y51422799D01*
X70340458Y51668797D01*
X70352559Y51733528D01*
X70229489Y51943000D01*
X68887000Y51943000D01*
X68887000Y51923000D01*
X68633000Y51923000D01*
X68633000Y51943000D01*
X68613000Y51943000D01*
X68613000Y52197000D01*
X68633000Y52197000D01*
X68633000Y52217000D01*
X68887000Y52217000D01*
X68887000Y52197000D01*
X70229489Y52197000D01*
X70352559Y52406472D01*
X70340458Y52471203D01*
X70326272Y52505000D01*
X79715985Y52505000D01*
X79664606Y52335626D01*
G37*
X79664606Y52335626D02*
X79638444Y52070000D01*
X79664606Y51804374D01*
X79742086Y51548955D01*
X79867908Y51313560D01*
X80037235Y51107235D01*
X80243560Y50937908D01*
X80478955Y50812086D01*
X80518797Y50800000D01*
X80478955Y50787914D01*
X80243560Y50662092D01*
X80037235Y50492765D01*
X79867908Y50286440D01*
X79742086Y50051045D01*
X79664606Y49795626D01*
X79638444Y49530000D01*
X79664606Y49264374D01*
X79742086Y49008955D01*
X79867908Y48773560D01*
X80037235Y48567235D01*
X80243560Y48397908D01*
X80478955Y48272086D01*
X80518797Y48260000D01*
X80478955Y48247914D01*
X80243560Y48122092D01*
X80037235Y47952765D01*
X79867908Y47746440D01*
X79742086Y47511045D01*
X79664606Y47255626D01*
X79638444Y46990000D01*
X79664606Y46724374D01*
X79742086Y46468955D01*
X79867908Y46233560D01*
X80037235Y46027235D01*
X80243560Y45857908D01*
X80478955Y45732086D01*
X80523759Y45718495D01*
X80364131Y45653256D01*
X80141605Y45506084D01*
X79952067Y45318327D01*
X79802801Y45097201D01*
X79699542Y44851203D01*
X79687441Y44786472D01*
X79810511Y44577000D01*
X81153000Y44577000D01*
X81153000Y44597000D01*
X81407000Y44597000D01*
X81407000Y44577000D01*
X81427000Y44577000D01*
X81427000Y44323000D01*
X81407000Y44323000D01*
X81407000Y44303000D01*
X81153000Y44303000D01*
X81153000Y44323000D01*
X79810511Y44323000D01*
X79687441Y44113528D01*
X79699542Y44048797D01*
X79802801Y43802799D01*
X79952067Y43581673D01*
X80141605Y43393916D01*
X80364131Y43246744D01*
X80611093Y43145812D01*
X80773447Y43114314D01*
X80404133Y42745000D01*
X70107619Y42745000D01*
X70002765Y42872765D01*
X69796440Y43042092D01*
X69561045Y43167914D01*
X69521203Y43180000D01*
X69561045Y43192086D01*
X69796440Y43317908D01*
X70002765Y43487235D01*
X70172092Y43693560D01*
X70297914Y43928955D01*
X70375394Y44184374D01*
X70401556Y44450000D01*
X70375394Y44715626D01*
X70297914Y44971045D01*
X70172092Y45206440D01*
X70002765Y45412765D01*
X69796440Y45582092D01*
X69561045Y45707914D01*
X69521203Y45720000D01*
X69561045Y45732086D01*
X69796440Y45857908D01*
X70002765Y46027235D01*
X70172092Y46233560D01*
X70297914Y46468955D01*
X70375394Y46724374D01*
X70401556Y46990000D01*
X70375394Y47255626D01*
X70297914Y47511045D01*
X70172092Y47746440D01*
X70002765Y47952765D01*
X69796440Y48122092D01*
X69561045Y48247914D01*
X69521203Y48260000D01*
X69561045Y48272086D01*
X69796440Y48397908D01*
X70002765Y48567235D01*
X70172092Y48773560D01*
X70297914Y49008955D01*
X70375394Y49264374D01*
X70401556Y49530000D01*
X70375394Y49795626D01*
X70297914Y50051045D01*
X70172092Y50286440D01*
X70002765Y50492765D01*
X69796440Y50662092D01*
X69561045Y50787914D01*
X69516241Y50801505D01*
X69675869Y50866744D01*
X69898395Y51013916D01*
X70087933Y51201673D01*
X70237199Y51422799D01*
X70340458Y51668797D01*
X70352559Y51733528D01*
X70229489Y51943000D01*
X68887000Y51943000D01*
X68887000Y51923000D01*
X68633000Y51923000D01*
X68633000Y51943000D01*
X68613000Y51943000D01*
X68613000Y52197000D01*
X68633000Y52197000D01*
X68633000Y52217000D01*
X68887000Y52217000D01*
X68887000Y52197000D01*
X70229489Y52197000D01*
X70352559Y52406472D01*
X70340458Y52471203D01*
X70326272Y52505000D01*
X79715985Y52505000D01*
X79664606Y52335626D01*
G36*
X56984606Y52335626D02*
G01*
X56958444Y52070000D01*
X56984606Y51804374D01*
X57062086Y51548955D01*
X57187908Y51313560D01*
X57357235Y51107235D01*
X57563560Y50937908D01*
X57798955Y50812086D01*
X57843759Y50798495D01*
X57684131Y50733256D01*
X57461605Y50586084D01*
X57272067Y50398327D01*
X57122801Y50177201D01*
X57019542Y49931203D01*
X57007441Y49866472D01*
X57130511Y49657000D01*
X58473000Y49657000D01*
X58473000Y49677000D01*
X58727000Y49677000D01*
X58727000Y49657000D01*
X58747000Y49657000D01*
X58747000Y49403000D01*
X58727000Y49403000D01*
X58727000Y49383000D01*
X58473000Y49383000D01*
X58473000Y49403000D01*
X57130511Y49403000D01*
X57007441Y49193528D01*
X57019542Y49128797D01*
X57054590Y49045300D01*
X47268939Y49045300D01*
X47335394Y49264374D01*
X47361556Y49530000D01*
X47335394Y49795626D01*
X47257914Y50051045D01*
X47132092Y50286440D01*
X46962765Y50492765D01*
X46756440Y50662092D01*
X46557241Y50768567D01*
X46550988Y50832054D01*
X46635869Y50866744D01*
X46858395Y51013916D01*
X47047933Y51201673D01*
X47197199Y51422799D01*
X47300458Y51668797D01*
X47312559Y51733528D01*
X47189489Y51943000D01*
X45847000Y51943000D01*
X45847000Y51923000D01*
X45593000Y51923000D01*
X45593000Y51943000D01*
X45573000Y51943000D01*
X45573000Y52197000D01*
X45593000Y52197000D01*
X45593000Y52217000D01*
X45847000Y52217000D01*
X45847000Y52197000D01*
X47189489Y52197000D01*
X47312559Y52406472D01*
X47303431Y52455300D01*
X57020908Y52455300D01*
X56984606Y52335626D01*
G37*
X56984606Y52335626D02*
X56958444Y52070000D01*
X56984606Y51804374D01*
X57062086Y51548955D01*
X57187908Y51313560D01*
X57357235Y51107235D01*
X57563560Y50937908D01*
X57798955Y50812086D01*
X57843759Y50798495D01*
X57684131Y50733256D01*
X57461605Y50586084D01*
X57272067Y50398327D01*
X57122801Y50177201D01*
X57019542Y49931203D01*
X57007441Y49866472D01*
X57130511Y49657000D01*
X58473000Y49657000D01*
X58473000Y49677000D01*
X58727000Y49677000D01*
X58727000Y49657000D01*
X58747000Y49657000D01*
X58747000Y49403000D01*
X58727000Y49403000D01*
X58727000Y49383000D01*
X58473000Y49383000D01*
X58473000Y49403000D01*
X57130511Y49403000D01*
X57007441Y49193528D01*
X57019542Y49128797D01*
X57054590Y49045300D01*
X47268939Y49045300D01*
X47335394Y49264374D01*
X47361556Y49530000D01*
X47335394Y49795626D01*
X47257914Y50051045D01*
X47132092Y50286440D01*
X46962765Y50492765D01*
X46756440Y50662092D01*
X46557241Y50768567D01*
X46550988Y50832054D01*
X46635869Y50866744D01*
X46858395Y51013916D01*
X47047933Y51201673D01*
X47197199Y51422799D01*
X47300458Y51668797D01*
X47312559Y51733528D01*
X47189489Y51943000D01*
X45847000Y51943000D01*
X45847000Y51923000D01*
X45593000Y51923000D01*
X45593000Y51943000D01*
X45573000Y51943000D01*
X45573000Y52197000D01*
X45593000Y52197000D01*
X45593000Y52217000D01*
X45847000Y52217000D01*
X45847000Y52197000D01*
X47189489Y52197000D01*
X47312559Y52406472D01*
X47303431Y52455300D01*
X57020908Y52455300D01*
X56984606Y52335626D01*
%TD*%
M02*
