%TF.GenerationSoftware,KiCad,Pcbnew,5.1.5+dfsg1-2build2*%
%TF.CreationDate,2020-12-29T02:51:23+01:00*%
%TF.ProjectId,avr-prog,6176722d-7072-46f6-972e-6b696361645f,1.0*%
%TF.SameCoordinates,PX1e47770PY6a95280*%
%TF.FileFunction,Legend,Top*%
%TF.FilePolarity,Positive*%
%FSLAX46Y46*%
G04 Gerber Fmt 4.6, Leading zero omitted, Abs format (unit mm)*
G04 Created by KiCad (PCBNEW 5.1.5+dfsg1-2build2) date 2020-12-29 02:51:23*
%MOMM*%
%LPD*%
G04 APERTURE LIST*
%ADD10C,0.120000*%
%ADD11C,0.150000*%
%ADD12C,0.010000*%
%ADD13C,1.702000*%
%ADD14R,1.902000X1.902000*%
%ADD15C,1.902000*%
%ADD16R,1.702000X1.702000*%
%ADD17O,1.702000X1.702000*%
%ADD18R,1.829200X1.829200*%
%ADD19O,1.829200X1.829200*%
%ADD20R,1.802000X1.802000*%
%ADD21O,1.802000X1.802000*%
%ADD22R,2.102000X1.542000*%
%ADD23O,2.102000X1.542000*%
%ADD24C,1.602000*%
G04 APERTURE END LIST*
D10*
X53340000Y2540000D02*
X53340000Y7620000D01*
X82550000Y2540000D02*
X53340000Y2540000D01*
X82550000Y7620000D02*
X82550000Y2540000D01*
X53340000Y7620000D02*
X82550000Y7620000D01*
D11*
X55525000Y7341905D02*
X55525000Y6341905D01*
X54157619Y6532381D02*
X54633809Y6865715D01*
X54157619Y7103810D02*
X55157619Y7103810D01*
X55157619Y6722858D01*
X55110000Y6627620D01*
X55062380Y6580000D01*
X54967142Y6532381D01*
X54824285Y6532381D01*
X54729047Y6580000D01*
X54681428Y6627620D01*
X54633809Y6722858D01*
X54633809Y7103810D01*
X55525000Y6341905D02*
X55525000Y5437143D01*
X54681428Y6103810D02*
X54681428Y5770477D01*
X54157619Y5627620D02*
X54157619Y6103810D01*
X55157619Y6103810D01*
X55157619Y5627620D01*
X55525000Y5437143D02*
X55525000Y4484762D01*
X54205238Y5246667D02*
X54157619Y5103810D01*
X54157619Y4865715D01*
X54205238Y4770477D01*
X54252857Y4722858D01*
X54348095Y4675239D01*
X54443333Y4675239D01*
X54538571Y4722858D01*
X54586190Y4770477D01*
X54633809Y4865715D01*
X54681428Y5056191D01*
X54729047Y5151429D01*
X54776666Y5199048D01*
X54871904Y5246667D01*
X54967142Y5246667D01*
X55062380Y5199048D01*
X55110000Y5151429D01*
X55157619Y5056191D01*
X55157619Y4818096D01*
X55110000Y4675239D01*
X55525000Y4484762D02*
X55525000Y3580000D01*
X54681428Y4246667D02*
X54681428Y3913334D01*
X54157619Y3770477D02*
X54157619Y4246667D01*
X55157619Y4246667D01*
X55157619Y3770477D01*
X55525000Y3580000D02*
X55525000Y2818096D01*
X55157619Y3484762D02*
X55157619Y2913334D01*
X54157619Y3199048D02*
X55157619Y3199048D01*
X56697619Y5175239D02*
X57173809Y5508572D01*
X56697619Y5746667D02*
X57697619Y5746667D01*
X57697619Y5365715D01*
X57650000Y5270477D01*
X57602380Y5222858D01*
X57507142Y5175239D01*
X57364285Y5175239D01*
X57269047Y5222858D01*
X57221428Y5270477D01*
X57173809Y5365715D01*
X57173809Y5746667D01*
X56697619Y4841905D02*
X57364285Y4318096D01*
X57364285Y4841905D02*
X56697619Y4318096D01*
X60237619Y5770477D02*
X60237619Y5199048D01*
X59237619Y5484762D02*
X60237619Y5484762D01*
X59237619Y4960953D02*
X59904285Y4437143D01*
X59904285Y4960953D02*
X59237619Y4437143D01*
X62730000Y5841905D02*
X62777619Y5937143D01*
X62777619Y6080000D01*
X62730000Y6222858D01*
X62634761Y6318096D01*
X62539523Y6365715D01*
X62349047Y6413334D01*
X62206190Y6413334D01*
X62015714Y6365715D01*
X61920476Y6318096D01*
X61825238Y6222858D01*
X61777619Y6080000D01*
X61777619Y5984762D01*
X61825238Y5841905D01*
X61872857Y5794286D01*
X62206190Y5794286D01*
X62206190Y5984762D01*
X61777619Y5365715D02*
X62777619Y5365715D01*
X61777619Y4794286D01*
X62777619Y4794286D01*
X61777619Y4318096D02*
X62777619Y4318096D01*
X62777619Y4080000D01*
X62730000Y3937143D01*
X62634761Y3841905D01*
X62539523Y3794286D01*
X62349047Y3746667D01*
X62206190Y3746667D01*
X62015714Y3794286D01*
X61920476Y3841905D01*
X61825238Y3937143D01*
X61777619Y4080000D01*
X61777619Y4318096D01*
X65317619Y6270477D02*
X64317619Y5937143D01*
X65317619Y5603810D01*
X64365238Y4841905D02*
X64317619Y4937143D01*
X64317619Y5127620D01*
X64365238Y5222858D01*
X64412857Y5270477D01*
X64508095Y5318096D01*
X64793809Y5318096D01*
X64889047Y5270477D01*
X64936666Y5222858D01*
X64984285Y5127620D01*
X64984285Y4937143D01*
X64936666Y4841905D01*
X64365238Y3984762D02*
X64317619Y4080000D01*
X64317619Y4270477D01*
X64365238Y4365715D01*
X64412857Y4413334D01*
X64508095Y4460953D01*
X64793809Y4460953D01*
X64889047Y4413334D01*
X64936666Y4365715D01*
X64984285Y4270477D01*
X64984285Y4080000D01*
X64936666Y3984762D01*
X97337619Y19351429D02*
X98337619Y19351429D01*
X97623333Y19018096D01*
X98337619Y18684762D01*
X97337619Y18684762D01*
X97337619Y18208572D02*
X98337619Y18208572D01*
X97385238Y17780000D02*
X97337619Y17637143D01*
X97337619Y17399048D01*
X97385238Y17303810D01*
X97432857Y17256191D01*
X97528095Y17208572D01*
X97623333Y17208572D01*
X97718571Y17256191D01*
X97766190Y17303810D01*
X97813809Y17399048D01*
X97861428Y17589524D01*
X97909047Y17684762D01*
X97956666Y17732381D01*
X98051904Y17780000D01*
X98147142Y17780000D01*
X98242380Y17732381D01*
X98290000Y17684762D01*
X98337619Y17589524D01*
X98337619Y17351429D01*
X98290000Y17208572D01*
X98337619Y16589524D02*
X98337619Y16399048D01*
X98290000Y16303810D01*
X98194761Y16208572D01*
X98004285Y16160953D01*
X97670952Y16160953D01*
X97480476Y16208572D01*
X97385238Y16303810D01*
X97337619Y16399048D01*
X97337619Y16589524D01*
X97385238Y16684762D01*
X97480476Y16780000D01*
X97670952Y16827620D01*
X98004285Y16827620D01*
X98194761Y16780000D01*
X98290000Y16684762D01*
X98337619Y16589524D01*
X99925238Y19065715D02*
X99877619Y18922858D01*
X99877619Y18684762D01*
X99925238Y18589524D01*
X99972857Y18541905D01*
X100068095Y18494286D01*
X100163333Y18494286D01*
X100258571Y18541905D01*
X100306190Y18589524D01*
X100353809Y18684762D01*
X100401428Y18875239D01*
X100449047Y18970477D01*
X100496666Y19018096D01*
X100591904Y19065715D01*
X100687142Y19065715D01*
X100782380Y19018096D01*
X100830000Y18970477D01*
X100877619Y18875239D01*
X100877619Y18637143D01*
X100830000Y18494286D01*
X99972857Y17494286D02*
X99925238Y17541905D01*
X99877619Y17684762D01*
X99877619Y17780000D01*
X99925238Y17922858D01*
X100020476Y18018096D01*
X100115714Y18065715D01*
X100306190Y18113334D01*
X100449047Y18113334D01*
X100639523Y18065715D01*
X100734761Y18018096D01*
X100830000Y17922858D01*
X100877619Y17780000D01*
X100877619Y17684762D01*
X100830000Y17541905D01*
X100782380Y17494286D01*
X99877619Y17065715D02*
X100877619Y17065715D01*
X99877619Y16494286D02*
X100449047Y16922858D01*
X100877619Y16494286D02*
X100306190Y17065715D01*
X107497619Y19351429D02*
X108497619Y19351429D01*
X107783333Y19018096D01*
X108497619Y18684762D01*
X107497619Y18684762D01*
X108497619Y18018096D02*
X108497619Y17827620D01*
X108450000Y17732381D01*
X108354761Y17637143D01*
X108164285Y17589524D01*
X107830952Y17589524D01*
X107640476Y17637143D01*
X107545238Y17732381D01*
X107497619Y17827620D01*
X107497619Y18018096D01*
X107545238Y18113334D01*
X107640476Y18208572D01*
X107830952Y18256191D01*
X108164285Y18256191D01*
X108354761Y18208572D01*
X108450000Y18113334D01*
X108497619Y18018096D01*
X107545238Y17208572D02*
X107497619Y17065715D01*
X107497619Y16827620D01*
X107545238Y16732381D01*
X107592857Y16684762D01*
X107688095Y16637143D01*
X107783333Y16637143D01*
X107878571Y16684762D01*
X107926190Y16732381D01*
X107973809Y16827620D01*
X108021428Y17018096D01*
X108069047Y17113334D01*
X108116666Y17160953D01*
X108211904Y17208572D01*
X108307142Y17208572D01*
X108402380Y17160953D01*
X108450000Y17113334D01*
X108497619Y17018096D01*
X108497619Y16780000D01*
X108450000Y16637143D01*
X107497619Y16208572D02*
X108497619Y16208572D01*
X103785000Y19137143D02*
X103785000Y18137143D01*
X102417619Y18327620D02*
X102893809Y18660953D01*
X102417619Y18899048D02*
X103417619Y18899048D01*
X103417619Y18518096D01*
X103370000Y18422858D01*
X103322380Y18375239D01*
X103227142Y18327620D01*
X103084285Y18327620D01*
X102989047Y18375239D01*
X102941428Y18422858D01*
X102893809Y18518096D01*
X102893809Y18899048D01*
X103785000Y18137143D02*
X103785000Y17184762D01*
X102465238Y17946667D02*
X102417619Y17803810D01*
X102417619Y17565715D01*
X102465238Y17470477D01*
X102512857Y17422858D01*
X102608095Y17375239D01*
X102703333Y17375239D01*
X102798571Y17422858D01*
X102846190Y17470477D01*
X102893809Y17565715D01*
X102941428Y17756191D01*
X102989047Y17851429D01*
X103036666Y17899048D01*
X103131904Y17946667D01*
X103227142Y17946667D01*
X103322380Y17899048D01*
X103370000Y17851429D01*
X103417619Y17756191D01*
X103417619Y17518096D01*
X103370000Y17375239D01*
X103785000Y17184762D02*
X103785000Y16422858D01*
X103417619Y17089524D02*
X103417619Y16518096D01*
X102417619Y16803810D02*
X103417619Y16803810D01*
X104957619Y18565715D02*
X105957619Y18565715D01*
X104957619Y17994286D01*
X105957619Y17994286D01*
X105052857Y16946667D02*
X105005238Y16994286D01*
X104957619Y17137143D01*
X104957619Y17232381D01*
X105005238Y17375239D01*
X105100476Y17470477D01*
X105195714Y17518096D01*
X105386190Y17565715D01*
X105529047Y17565715D01*
X105719523Y17518096D01*
X105814761Y17470477D01*
X105910000Y17375239D01*
X105957619Y17232381D01*
X105957619Y17137143D01*
X105910000Y16994286D01*
X105862380Y16946667D01*
X98290000Y14731905D02*
X98337619Y14827143D01*
X98337619Y14970000D01*
X98290000Y15112858D01*
X98194761Y15208096D01*
X98099523Y15255715D01*
X97909047Y15303334D01*
X97766190Y15303334D01*
X97575714Y15255715D01*
X97480476Y15208096D01*
X97385238Y15112858D01*
X97337619Y14970000D01*
X97337619Y14874762D01*
X97385238Y14731905D01*
X97432857Y14684286D01*
X97766190Y14684286D01*
X97766190Y14874762D01*
X97337619Y14255715D02*
X98337619Y14255715D01*
X97337619Y13684286D01*
X98337619Y13684286D01*
X97337619Y13208096D02*
X98337619Y13208096D01*
X98337619Y12970000D01*
X98290000Y12827143D01*
X98194761Y12731905D01*
X98099523Y12684286D01*
X97909047Y12636667D01*
X97766190Y12636667D01*
X97575714Y12684286D01*
X97480476Y12731905D01*
X97385238Y12827143D01*
X97337619Y12970000D01*
X97337619Y13208096D01*
X100830000Y14731905D02*
X100877619Y14827143D01*
X100877619Y14970000D01*
X100830000Y15112858D01*
X100734761Y15208096D01*
X100639523Y15255715D01*
X100449047Y15303334D01*
X100306190Y15303334D01*
X100115714Y15255715D01*
X100020476Y15208096D01*
X99925238Y15112858D01*
X99877619Y14970000D01*
X99877619Y14874762D01*
X99925238Y14731905D01*
X99972857Y14684286D01*
X100306190Y14684286D01*
X100306190Y14874762D01*
X99877619Y14255715D02*
X100877619Y14255715D01*
X99877619Y13684286D01*
X100877619Y13684286D01*
X99877619Y13208096D02*
X100877619Y13208096D01*
X100877619Y12970000D01*
X100830000Y12827143D01*
X100734761Y12731905D01*
X100639523Y12684286D01*
X100449047Y12636667D01*
X100306190Y12636667D01*
X100115714Y12684286D01*
X100020476Y12731905D01*
X99925238Y12827143D01*
X99877619Y12970000D01*
X99877619Y13208096D01*
X103370000Y14731905D02*
X103417619Y14827143D01*
X103417619Y14970000D01*
X103370000Y15112858D01*
X103274761Y15208096D01*
X103179523Y15255715D01*
X102989047Y15303334D01*
X102846190Y15303334D01*
X102655714Y15255715D01*
X102560476Y15208096D01*
X102465238Y15112858D01*
X102417619Y14970000D01*
X102417619Y14874762D01*
X102465238Y14731905D01*
X102512857Y14684286D01*
X102846190Y14684286D01*
X102846190Y14874762D01*
X102417619Y14255715D02*
X103417619Y14255715D01*
X102417619Y13684286D01*
X103417619Y13684286D01*
X102417619Y13208096D02*
X103417619Y13208096D01*
X103417619Y12970000D01*
X103370000Y12827143D01*
X103274761Y12731905D01*
X103179523Y12684286D01*
X102989047Y12636667D01*
X102846190Y12636667D01*
X102655714Y12684286D01*
X102560476Y12731905D01*
X102465238Y12827143D01*
X102417619Y12970000D01*
X102417619Y13208096D01*
X105910000Y14731905D02*
X105957619Y14827143D01*
X105957619Y14970000D01*
X105910000Y15112858D01*
X105814761Y15208096D01*
X105719523Y15255715D01*
X105529047Y15303334D01*
X105386190Y15303334D01*
X105195714Y15255715D01*
X105100476Y15208096D01*
X105005238Y15112858D01*
X104957619Y14970000D01*
X104957619Y14874762D01*
X105005238Y14731905D01*
X105052857Y14684286D01*
X105386190Y14684286D01*
X105386190Y14874762D01*
X104957619Y14255715D02*
X105957619Y14255715D01*
X104957619Y13684286D01*
X105957619Y13684286D01*
X104957619Y13208096D02*
X105957619Y13208096D01*
X105957619Y12970000D01*
X105910000Y12827143D01*
X105814761Y12731905D01*
X105719523Y12684286D01*
X105529047Y12636667D01*
X105386190Y12636667D01*
X105195714Y12684286D01*
X105100476Y12731905D01*
X105005238Y12827143D01*
X104957619Y12970000D01*
X104957619Y13208096D01*
X108497619Y15160477D02*
X107497619Y14827143D01*
X108497619Y14493810D01*
X107545238Y13731905D02*
X107497619Y13827143D01*
X107497619Y14017620D01*
X107545238Y14112858D01*
X107592857Y14160477D01*
X107688095Y14208096D01*
X107973809Y14208096D01*
X108069047Y14160477D01*
X108116666Y14112858D01*
X108164285Y14017620D01*
X108164285Y13827143D01*
X108116666Y13731905D01*
X107545238Y12874762D02*
X107497619Y12970000D01*
X107497619Y13160477D01*
X107545238Y13255715D01*
X107592857Y13303334D01*
X107688095Y13350953D01*
X107973809Y13350953D01*
X108069047Y13303334D01*
X108116666Y13255715D01*
X108164285Y13160477D01*
X108164285Y12970000D01*
X108116666Y12874762D01*
D12*
%TO.C,LOGO1*%
G36*
X35769014Y15707002D02*
G01*
X35927006Y15706137D01*
X36041347Y15703795D01*
X36119407Y15699238D01*
X36168554Y15691730D01*
X36196159Y15680534D01*
X36209592Y15664912D01*
X36216221Y15644127D01*
X36216865Y15641437D01*
X36226935Y15592887D01*
X36245575Y15497095D01*
X36270845Y15364257D01*
X36300807Y15204569D01*
X36333522Y15028226D01*
X36334664Y15022033D01*
X36367433Y14849218D01*
X36398093Y14696531D01*
X36424664Y14573129D01*
X36445167Y14488169D01*
X36457626Y14450810D01*
X36458220Y14450148D01*
X36494919Y14431905D01*
X36570586Y14401503D01*
X36668878Y14365507D01*
X36669425Y14365315D01*
X36793233Y14318778D01*
X36939196Y14259496D01*
X37076781Y14199891D01*
X37083293Y14196944D01*
X37307390Y14095235D01*
X37803619Y14434103D01*
X37955846Y14537408D01*
X38093741Y14629763D01*
X38209315Y14705916D01*
X38294579Y14760615D01*
X38341544Y14788607D01*
X38346004Y14790683D01*
X38380134Y14781440D01*
X38443881Y14736844D01*
X38539731Y14654791D01*
X38670169Y14533179D01*
X38803328Y14403795D01*
X38931694Y14276298D01*
X39046581Y14159954D01*
X39141073Y14061948D01*
X39208253Y13989464D01*
X39241206Y13949687D01*
X39242432Y13947639D01*
X39246074Y13920344D01*
X39232350Y13875766D01*
X39197869Y13807888D01*
X39139239Y13710689D01*
X39053070Y13578149D01*
X38938200Y13407524D01*
X38836254Y13257345D01*
X38745123Y13122650D01*
X38670073Y13011260D01*
X38616369Y12930995D01*
X38589280Y12889675D01*
X38587574Y12886870D01*
X38590882Y12847279D01*
X38615953Y12770331D01*
X38657798Y12670568D01*
X38672712Y12638709D01*
X38737786Y12496774D01*
X38807212Y12335727D01*
X38863609Y12196379D01*
X38904247Y12092956D01*
X38936526Y12014358D01*
X38955178Y11973280D01*
X38957497Y11970115D01*
X38991803Y11964872D01*
X39072669Y11950506D01*
X39189343Y11929063D01*
X39331075Y11902587D01*
X39487110Y11873123D01*
X39646698Y11842717D01*
X39799085Y11813412D01*
X39933521Y11787255D01*
X40039252Y11766290D01*
X40105526Y11752561D01*
X40121782Y11748680D01*
X40138573Y11739100D01*
X40151249Y11717464D01*
X40160378Y11676469D01*
X40166531Y11608811D01*
X40170280Y11507188D01*
X40172192Y11364297D01*
X40172840Y11172835D01*
X40172874Y11094355D01*
X40172874Y10456094D01*
X40019598Y10425840D01*
X39934322Y10409436D01*
X39807070Y10385491D01*
X39653315Y10356893D01*
X39488534Y10326533D01*
X39442989Y10318194D01*
X39290932Y10288630D01*
X39158468Y10259558D01*
X39056714Y10233671D01*
X38996788Y10213663D01*
X38986805Y10207699D01*
X38962293Y10165466D01*
X38927148Y10083630D01*
X38888173Y9978317D01*
X38880442Y9955632D01*
X38829360Y9814982D01*
X38765954Y9656286D01*
X38703904Y9513775D01*
X38703598Y9513114D01*
X38600267Y9289560D01*
X39279961Y8289768D01*
X38843621Y7852700D01*
X38711649Y7722619D01*
X38591279Y7607952D01*
X38489273Y7514819D01*
X38412391Y7449342D01*
X38367393Y7417643D01*
X38360938Y7415632D01*
X38323040Y7431471D01*
X38245708Y7475504D01*
X38137389Y7542510D01*
X38006532Y7627266D01*
X37865052Y7722184D01*
X37721461Y7819002D01*
X37593435Y7903249D01*
X37489105Y7969742D01*
X37416600Y8013298D01*
X37384158Y8028736D01*
X37344576Y8015672D01*
X37269519Y7981250D01*
X37174468Y7932620D01*
X37164392Y7927215D01*
X37036391Y7863020D01*
X36948618Y7831537D01*
X36894028Y7831202D01*
X36865575Y7860452D01*
X36865410Y7860862D01*
X36851188Y7895502D01*
X36817269Y7977731D01*
X36766284Y8101186D01*
X36700862Y8259502D01*
X36623634Y8446314D01*
X36537229Y8655258D01*
X36453551Y8857554D01*
X36361588Y9080800D01*
X36277150Y9287608D01*
X36202769Y9471638D01*
X36140974Y9626549D01*
X36094297Y9746004D01*
X36065268Y9823661D01*
X36056322Y9852644D01*
X36078756Y9885890D01*
X36137439Y9938877D01*
X36215689Y9997296D01*
X36438534Y10182048D01*
X36612718Y10393818D01*
X36736154Y10628144D01*
X36806754Y10880566D01*
X36822431Y11146623D01*
X36811036Y11269425D01*
X36748950Y11524207D01*
X36642023Y11749199D01*
X36496889Y11942183D01*
X36320178Y12100939D01*
X36118522Y12223250D01*
X35898554Y12306895D01*
X35666906Y12349656D01*
X35430209Y12349313D01*
X35195095Y12303648D01*
X34968196Y12210441D01*
X34756144Y12067473D01*
X34667636Y11986617D01*
X34497889Y11778993D01*
X34379699Y11552105D01*
X34312278Y11312567D01*
X34294840Y11066993D01*
X34326598Y10821997D01*
X34406765Y10584192D01*
X34534555Y10360193D01*
X34709180Y10156613D01*
X34904312Y9997296D01*
X34985591Y9936398D01*
X35043009Y9883985D01*
X35063678Y9852594D01*
X35052856Y9818361D01*
X35022077Y9736581D01*
X34973874Y9613593D01*
X34910778Y9455737D01*
X34835322Y9269351D01*
X34750038Y9060774D01*
X34666219Y8857504D01*
X34573745Y8634067D01*
X34488089Y8427016D01*
X34411882Y8242714D01*
X34347753Y8087525D01*
X34298332Y7967812D01*
X34266248Y7889939D01*
X34254359Y7860862D01*
X34226274Y7831323D01*
X34171949Y7831409D01*
X34084395Y7862674D01*
X33956619Y7926671D01*
X33955608Y7927215D01*
X33859402Y7976879D01*
X33781631Y8013055D01*
X33737777Y8028592D01*
X33735842Y8028736D01*
X33702829Y8012976D01*
X33629946Y7969150D01*
X33525322Y7902443D01*
X33397090Y7818036D01*
X33254948Y7722184D01*
X33110233Y7625133D01*
X32979804Y7540730D01*
X32872110Y7474199D01*
X32795598Y7430762D01*
X32759062Y7415632D01*
X32725418Y7435518D01*
X32657776Y7491097D01*
X32562893Y7576246D01*
X32447530Y7684847D01*
X32318445Y7810779D01*
X32276229Y7852851D01*
X31839739Y8290069D01*
X32171977Y8777660D01*
X32272946Y8927395D01*
X32361562Y9061780D01*
X32432854Y9173031D01*
X32481850Y9253361D01*
X32503578Y9294986D01*
X32504215Y9297947D01*
X32492760Y9337182D01*
X32461949Y9416105D01*
X32417116Y9521491D01*
X32385647Y9592046D01*
X32326808Y9727124D01*
X32271396Y9863591D01*
X32228436Y9978897D01*
X32216766Y10014023D01*
X32183611Y10107826D01*
X32151201Y10180306D01*
X32133399Y10207699D01*
X32094114Y10224464D01*
X32008374Y10248230D01*
X31887303Y10276303D01*
X31742027Y10305991D01*
X31677012Y10318194D01*
X31511913Y10348532D01*
X31353552Y10377907D01*
X31217404Y10403431D01*
X31118943Y10422215D01*
X31100402Y10425840D01*
X30947127Y10456094D01*
X30947127Y11094355D01*
X30947471Y11304230D01*
X30948884Y11463020D01*
X30951936Y11578027D01*
X30957197Y11656554D01*
X30965237Y11705904D01*
X30976627Y11733381D01*
X30991937Y11746287D01*
X30998218Y11748680D01*
X31036104Y11757167D01*
X31119805Y11774100D01*
X31238567Y11797434D01*
X31381639Y11825125D01*
X31538268Y11855127D01*
X31697703Y11885396D01*
X31849191Y11913885D01*
X31981981Y11938551D01*
X32085319Y11957349D01*
X32148455Y11968233D01*
X32162503Y11970115D01*
X32175230Y11995296D01*
X32203400Y12062378D01*
X32241748Y12158667D01*
X32256391Y12196379D01*
X32315452Y12342079D01*
X32385000Y12503049D01*
X32447288Y12638709D01*
X32493121Y12742439D01*
X32523613Y12827674D01*
X32533792Y12879874D01*
X32532169Y12886870D01*
X32510657Y12919898D01*
X32461535Y12993357D01*
X32390077Y13099423D01*
X32301555Y13230274D01*
X32201241Y13378088D01*
X32181406Y13407266D01*
X32065012Y13580137D01*
X31979452Y13711774D01*
X31921316Y13808239D01*
X31887192Y13875592D01*
X31873669Y13919894D01*
X31877336Y13947206D01*
X31877430Y13947380D01*
X31906293Y13983254D01*
X31970133Y14052609D01*
X32062031Y14148255D01*
X32175067Y14263001D01*
X32302321Y14389659D01*
X32316672Y14403795D01*
X32477043Y14559097D01*
X32600805Y14673130D01*
X32690445Y14747998D01*
X32748448Y14785804D01*
X32773996Y14790683D01*
X32811282Y14769397D01*
X32888657Y14720227D01*
X32998133Y14648425D01*
X33131720Y14559245D01*
X33281430Y14457937D01*
X33316382Y14434103D01*
X33812610Y14095235D01*
X34036707Y14196944D01*
X34172989Y14256217D01*
X34319276Y14315830D01*
X34445035Y14363360D01*
X34450575Y14365315D01*
X34548943Y14401323D01*
X34624771Y14431771D01*
X34661718Y14450095D01*
X34661780Y14450148D01*
X34673504Y14483271D01*
X34693432Y14564733D01*
X34719587Y14685375D01*
X34749990Y14836041D01*
X34782663Y15007572D01*
X34785336Y15022033D01*
X34818110Y15198765D01*
X34848198Y15359190D01*
X34873661Y15493112D01*
X34892559Y15590337D01*
X34902953Y15640668D01*
X34903135Y15641437D01*
X34909461Y15662847D01*
X34921761Y15679012D01*
X34947406Y15690669D01*
X34993765Y15698555D01*
X35068208Y15703407D01*
X35178105Y15705961D01*
X35330825Y15706955D01*
X35533738Y15707126D01*
X35560000Y15707126D01*
X35769014Y15707002D01*
G37*
X35769014Y15707002D02*
X35927006Y15706137D01*
X36041347Y15703795D01*
X36119407Y15699238D01*
X36168554Y15691730D01*
X36196159Y15680534D01*
X36209592Y15664912D01*
X36216221Y15644127D01*
X36216865Y15641437D01*
X36226935Y15592887D01*
X36245575Y15497095D01*
X36270845Y15364257D01*
X36300807Y15204569D01*
X36333522Y15028226D01*
X36334664Y15022033D01*
X36367433Y14849218D01*
X36398093Y14696531D01*
X36424664Y14573129D01*
X36445167Y14488169D01*
X36457626Y14450810D01*
X36458220Y14450148D01*
X36494919Y14431905D01*
X36570586Y14401503D01*
X36668878Y14365507D01*
X36669425Y14365315D01*
X36793233Y14318778D01*
X36939196Y14259496D01*
X37076781Y14199891D01*
X37083293Y14196944D01*
X37307390Y14095235D01*
X37803619Y14434103D01*
X37955846Y14537408D01*
X38093741Y14629763D01*
X38209315Y14705916D01*
X38294579Y14760615D01*
X38341544Y14788607D01*
X38346004Y14790683D01*
X38380134Y14781440D01*
X38443881Y14736844D01*
X38539731Y14654791D01*
X38670169Y14533179D01*
X38803328Y14403795D01*
X38931694Y14276298D01*
X39046581Y14159954D01*
X39141073Y14061948D01*
X39208253Y13989464D01*
X39241206Y13949687D01*
X39242432Y13947639D01*
X39246074Y13920344D01*
X39232350Y13875766D01*
X39197869Y13807888D01*
X39139239Y13710689D01*
X39053070Y13578149D01*
X38938200Y13407524D01*
X38836254Y13257345D01*
X38745123Y13122650D01*
X38670073Y13011260D01*
X38616369Y12930995D01*
X38589280Y12889675D01*
X38587574Y12886870D01*
X38590882Y12847279D01*
X38615953Y12770331D01*
X38657798Y12670568D01*
X38672712Y12638709D01*
X38737786Y12496774D01*
X38807212Y12335727D01*
X38863609Y12196379D01*
X38904247Y12092956D01*
X38936526Y12014358D01*
X38955178Y11973280D01*
X38957497Y11970115D01*
X38991803Y11964872D01*
X39072669Y11950506D01*
X39189343Y11929063D01*
X39331075Y11902587D01*
X39487110Y11873123D01*
X39646698Y11842717D01*
X39799085Y11813412D01*
X39933521Y11787255D01*
X40039252Y11766290D01*
X40105526Y11752561D01*
X40121782Y11748680D01*
X40138573Y11739100D01*
X40151249Y11717464D01*
X40160378Y11676469D01*
X40166531Y11608811D01*
X40170280Y11507188D01*
X40172192Y11364297D01*
X40172840Y11172835D01*
X40172874Y11094355D01*
X40172874Y10456094D01*
X40019598Y10425840D01*
X39934322Y10409436D01*
X39807070Y10385491D01*
X39653315Y10356893D01*
X39488534Y10326533D01*
X39442989Y10318194D01*
X39290932Y10288630D01*
X39158468Y10259558D01*
X39056714Y10233671D01*
X38996788Y10213663D01*
X38986805Y10207699D01*
X38962293Y10165466D01*
X38927148Y10083630D01*
X38888173Y9978317D01*
X38880442Y9955632D01*
X38829360Y9814982D01*
X38765954Y9656286D01*
X38703904Y9513775D01*
X38703598Y9513114D01*
X38600267Y9289560D01*
X39279961Y8289768D01*
X38843621Y7852700D01*
X38711649Y7722619D01*
X38591279Y7607952D01*
X38489273Y7514819D01*
X38412391Y7449342D01*
X38367393Y7417643D01*
X38360938Y7415632D01*
X38323040Y7431471D01*
X38245708Y7475504D01*
X38137389Y7542510D01*
X38006532Y7627266D01*
X37865052Y7722184D01*
X37721461Y7819002D01*
X37593435Y7903249D01*
X37489105Y7969742D01*
X37416600Y8013298D01*
X37384158Y8028736D01*
X37344576Y8015672D01*
X37269519Y7981250D01*
X37174468Y7932620D01*
X37164392Y7927215D01*
X37036391Y7863020D01*
X36948618Y7831537D01*
X36894028Y7831202D01*
X36865575Y7860452D01*
X36865410Y7860862D01*
X36851188Y7895502D01*
X36817269Y7977731D01*
X36766284Y8101186D01*
X36700862Y8259502D01*
X36623634Y8446314D01*
X36537229Y8655258D01*
X36453551Y8857554D01*
X36361588Y9080800D01*
X36277150Y9287608D01*
X36202769Y9471638D01*
X36140974Y9626549D01*
X36094297Y9746004D01*
X36065268Y9823661D01*
X36056322Y9852644D01*
X36078756Y9885890D01*
X36137439Y9938877D01*
X36215689Y9997296D01*
X36438534Y10182048D01*
X36612718Y10393818D01*
X36736154Y10628144D01*
X36806754Y10880566D01*
X36822431Y11146623D01*
X36811036Y11269425D01*
X36748950Y11524207D01*
X36642023Y11749199D01*
X36496889Y11942183D01*
X36320178Y12100939D01*
X36118522Y12223250D01*
X35898554Y12306895D01*
X35666906Y12349656D01*
X35430209Y12349313D01*
X35195095Y12303648D01*
X34968196Y12210441D01*
X34756144Y12067473D01*
X34667636Y11986617D01*
X34497889Y11778993D01*
X34379699Y11552105D01*
X34312278Y11312567D01*
X34294840Y11066993D01*
X34326598Y10821997D01*
X34406765Y10584192D01*
X34534555Y10360193D01*
X34709180Y10156613D01*
X34904312Y9997296D01*
X34985591Y9936398D01*
X35043009Y9883985D01*
X35063678Y9852594D01*
X35052856Y9818361D01*
X35022077Y9736581D01*
X34973874Y9613593D01*
X34910778Y9455737D01*
X34835322Y9269351D01*
X34750038Y9060774D01*
X34666219Y8857504D01*
X34573745Y8634067D01*
X34488089Y8427016D01*
X34411882Y8242714D01*
X34347753Y8087525D01*
X34298332Y7967812D01*
X34266248Y7889939D01*
X34254359Y7860862D01*
X34226274Y7831323D01*
X34171949Y7831409D01*
X34084395Y7862674D01*
X33956619Y7926671D01*
X33955608Y7927215D01*
X33859402Y7976879D01*
X33781631Y8013055D01*
X33737777Y8028592D01*
X33735842Y8028736D01*
X33702829Y8012976D01*
X33629946Y7969150D01*
X33525322Y7902443D01*
X33397090Y7818036D01*
X33254948Y7722184D01*
X33110233Y7625133D01*
X32979804Y7540730D01*
X32872110Y7474199D01*
X32795598Y7430762D01*
X32759062Y7415632D01*
X32725418Y7435518D01*
X32657776Y7491097D01*
X32562893Y7576246D01*
X32447530Y7684847D01*
X32318445Y7810779D01*
X32276229Y7852851D01*
X31839739Y8290069D01*
X32171977Y8777660D01*
X32272946Y8927395D01*
X32361562Y9061780D01*
X32432854Y9173031D01*
X32481850Y9253361D01*
X32503578Y9294986D01*
X32504215Y9297947D01*
X32492760Y9337182D01*
X32461949Y9416105D01*
X32417116Y9521491D01*
X32385647Y9592046D01*
X32326808Y9727124D01*
X32271396Y9863591D01*
X32228436Y9978897D01*
X32216766Y10014023D01*
X32183611Y10107826D01*
X32151201Y10180306D01*
X32133399Y10207699D01*
X32094114Y10224464D01*
X32008374Y10248230D01*
X31887303Y10276303D01*
X31742027Y10305991D01*
X31677012Y10318194D01*
X31511913Y10348532D01*
X31353552Y10377907D01*
X31217404Y10403431D01*
X31118943Y10422215D01*
X31100402Y10425840D01*
X30947127Y10456094D01*
X30947127Y11094355D01*
X30947471Y11304230D01*
X30948884Y11463020D01*
X30951936Y11578027D01*
X30957197Y11656554D01*
X30965237Y11705904D01*
X30976627Y11733381D01*
X30991937Y11746287D01*
X30998218Y11748680D01*
X31036104Y11757167D01*
X31119805Y11774100D01*
X31238567Y11797434D01*
X31381639Y11825125D01*
X31538268Y11855127D01*
X31697703Y11885396D01*
X31849191Y11913885D01*
X31981981Y11938551D01*
X32085319Y11957349D01*
X32148455Y11968233D01*
X32162503Y11970115D01*
X32175230Y11995296D01*
X32203400Y12062378D01*
X32241748Y12158667D01*
X32256391Y12196379D01*
X32315452Y12342079D01*
X32385000Y12503049D01*
X32447288Y12638709D01*
X32493121Y12742439D01*
X32523613Y12827674D01*
X32533792Y12879874D01*
X32532169Y12886870D01*
X32510657Y12919898D01*
X32461535Y12993357D01*
X32390077Y13099423D01*
X32301555Y13230274D01*
X32201241Y13378088D01*
X32181406Y13407266D01*
X32065012Y13580137D01*
X31979452Y13711774D01*
X31921316Y13808239D01*
X31887192Y13875592D01*
X31873669Y13919894D01*
X31877336Y13947206D01*
X31877430Y13947380D01*
X31906293Y13983254D01*
X31970133Y14052609D01*
X32062031Y14148255D01*
X32175067Y14263001D01*
X32302321Y14389659D01*
X32316672Y14403795D01*
X32477043Y14559097D01*
X32600805Y14673130D01*
X32690445Y14747998D01*
X32748448Y14785804D01*
X32773996Y14790683D01*
X32811282Y14769397D01*
X32888657Y14720227D01*
X32998133Y14648425D01*
X33131720Y14559245D01*
X33281430Y14457937D01*
X33316382Y14434103D01*
X33812610Y14095235D01*
X34036707Y14196944D01*
X34172989Y14256217D01*
X34319276Y14315830D01*
X34445035Y14363360D01*
X34450575Y14365315D01*
X34548943Y14401323D01*
X34624771Y14431771D01*
X34661718Y14450095D01*
X34661780Y14450148D01*
X34673504Y14483271D01*
X34693432Y14564733D01*
X34719587Y14685375D01*
X34749990Y14836041D01*
X34782663Y15007572D01*
X34785336Y15022033D01*
X34818110Y15198765D01*
X34848198Y15359190D01*
X34873661Y15493112D01*
X34892559Y15590337D01*
X34902953Y15640668D01*
X34903135Y15641437D01*
X34909461Y15662847D01*
X34921761Y15679012D01*
X34947406Y15690669D01*
X34993765Y15698555D01*
X35068208Y15703407D01*
X35178105Y15705961D01*
X35330825Y15706955D01*
X35533738Y15707126D01*
X35560000Y15707126D01*
X35769014Y15707002D01*
G36*
X41903439Y6203460D02*
G01*
X42018950Y6127966D01*
X42074664Y6060383D01*
X42118804Y5937745D01*
X42122309Y5840702D01*
X42114368Y5710944D01*
X41815115Y5579961D01*
X41669611Y5513042D01*
X41574537Y5459210D01*
X41525101Y5412584D01*
X41516511Y5367280D01*
X41543972Y5317418D01*
X41574253Y5284368D01*
X41662363Y5231367D01*
X41758196Y5227653D01*
X41846212Y5268959D01*
X41910869Y5351017D01*
X41922433Y5379992D01*
X41977825Y5470491D01*
X42041553Y5509060D01*
X42128966Y5542054D01*
X42128966Y5416966D01*
X42121238Y5331844D01*
X42090966Y5260062D01*
X42027518Y5177644D01*
X42018088Y5166934D01*
X41947513Y5093609D01*
X41886847Y5054258D01*
X41810950Y5036155D01*
X41748030Y5030226D01*
X41635487Y5028749D01*
X41555370Y5047465D01*
X41505390Y5075253D01*
X41426838Y5136359D01*
X41372463Y5202446D01*
X41338052Y5285559D01*
X41319388Y5397746D01*
X41312256Y5551054D01*
X41311687Y5628864D01*
X41313622Y5722147D01*
X41489899Y5722147D01*
X41491944Y5672104D01*
X41497039Y5663908D01*
X41530666Y5675042D01*
X41603030Y5704507D01*
X41699747Y5746399D01*
X41719973Y5755403D01*
X41842203Y5817558D01*
X41909547Y5872185D01*
X41924348Y5923351D01*
X41888947Y5975124D01*
X41859711Y5998000D01*
X41754216Y6043750D01*
X41655476Y6036192D01*
X41572812Y5980349D01*
X41515548Y5881247D01*
X41497188Y5802586D01*
X41489899Y5722147D01*
X41313622Y5722147D01*
X41315459Y5810649D01*
X41329359Y5945147D01*
X41356894Y6043084D01*
X41401572Y6115189D01*
X41466901Y6172187D01*
X41495383Y6190607D01*
X41624763Y6238578D01*
X41766412Y6241597D01*
X41903439Y6203460D01*
G37*
X41903439Y6203460D02*
X42018950Y6127966D01*
X42074664Y6060383D01*
X42118804Y5937745D01*
X42122309Y5840702D01*
X42114368Y5710944D01*
X41815115Y5579961D01*
X41669611Y5513042D01*
X41574537Y5459210D01*
X41525101Y5412584D01*
X41516511Y5367280D01*
X41543972Y5317418D01*
X41574253Y5284368D01*
X41662363Y5231367D01*
X41758196Y5227653D01*
X41846212Y5268959D01*
X41910869Y5351017D01*
X41922433Y5379992D01*
X41977825Y5470491D01*
X42041553Y5509060D01*
X42128966Y5542054D01*
X42128966Y5416966D01*
X42121238Y5331844D01*
X42090966Y5260062D01*
X42027518Y5177644D01*
X42018088Y5166934D01*
X41947513Y5093609D01*
X41886847Y5054258D01*
X41810950Y5036155D01*
X41748030Y5030226D01*
X41635487Y5028749D01*
X41555370Y5047465D01*
X41505390Y5075253D01*
X41426838Y5136359D01*
X41372463Y5202446D01*
X41338052Y5285559D01*
X41319388Y5397746D01*
X41312256Y5551054D01*
X41311687Y5628864D01*
X41313622Y5722147D01*
X41489899Y5722147D01*
X41491944Y5672104D01*
X41497039Y5663908D01*
X41530666Y5675042D01*
X41603030Y5704507D01*
X41699747Y5746399D01*
X41719973Y5755403D01*
X41842203Y5817558D01*
X41909547Y5872185D01*
X41924348Y5923351D01*
X41888947Y5975124D01*
X41859711Y5998000D01*
X41754216Y6043750D01*
X41655476Y6036192D01*
X41572812Y5980349D01*
X41515548Y5881247D01*
X41497188Y5802586D01*
X41489899Y5722147D01*
X41313622Y5722147D01*
X41315459Y5810649D01*
X41329359Y5945147D01*
X41356894Y6043084D01*
X41401572Y6115189D01*
X41466901Y6172187D01*
X41495383Y6190607D01*
X41624763Y6238578D01*
X41766412Y6241597D01*
X41903439Y6203460D01*
G36*
X40895690Y6219982D02*
G01*
X40930585Y6204731D01*
X41013877Y6138765D01*
X41085103Y6043382D01*
X41129153Y5941594D01*
X41136322Y5891413D01*
X41112285Y5821353D01*
X41059561Y5784283D01*
X41003031Y5761836D01*
X40977146Y5757700D01*
X40964542Y5787717D01*
X40939654Y5853039D01*
X40928735Y5882555D01*
X40867508Y5984652D01*
X40778861Y6035577D01*
X40665193Y6034011D01*
X40656774Y6032006D01*
X40596088Y6003233D01*
X40551474Y5947141D01*
X40521002Y5856837D01*
X40502744Y5725429D01*
X40494771Y5546026D01*
X40494023Y5450567D01*
X40493652Y5300087D01*
X40491223Y5197505D01*
X40484760Y5132328D01*
X40472288Y5094062D01*
X40451833Y5072215D01*
X40421419Y5056293D01*
X40419661Y5055491D01*
X40361091Y5030728D01*
X40332075Y5021609D01*
X40327616Y5049178D01*
X40323799Y5125380D01*
X40320899Y5240459D01*
X40319191Y5384659D01*
X40318851Y5490186D01*
X40320588Y5694387D01*
X40327382Y5849303D01*
X40341607Y5963976D01*
X40365638Y6047449D01*
X40401848Y6108764D01*
X40452612Y6156966D01*
X40502739Y6190607D01*
X40623275Y6235381D01*
X40763557Y6245479D01*
X40895690Y6219982D01*
G37*
X40895690Y6219982D02*
X40930585Y6204731D01*
X41013877Y6138765D01*
X41085103Y6043382D01*
X41129153Y5941594D01*
X41136322Y5891413D01*
X41112285Y5821353D01*
X41059561Y5784283D01*
X41003031Y5761836D01*
X40977146Y5757700D01*
X40964542Y5787717D01*
X40939654Y5853039D01*
X40928735Y5882555D01*
X40867508Y5984652D01*
X40778861Y6035577D01*
X40665193Y6034011D01*
X40656774Y6032006D01*
X40596088Y6003233D01*
X40551474Y5947141D01*
X40521002Y5856837D01*
X40502744Y5725429D01*
X40494771Y5546026D01*
X40494023Y5450567D01*
X40493652Y5300087D01*
X40491223Y5197505D01*
X40484760Y5132328D01*
X40472288Y5094062D01*
X40451833Y5072215D01*
X40421419Y5056293D01*
X40419661Y5055491D01*
X40361091Y5030728D01*
X40332075Y5021609D01*
X40327616Y5049178D01*
X40323799Y5125380D01*
X40320899Y5240459D01*
X40319191Y5384659D01*
X40318851Y5490186D01*
X40320588Y5694387D01*
X40327382Y5849303D01*
X40341607Y5963976D01*
X40365638Y6047449D01*
X40401848Y6108764D01*
X40452612Y6156966D01*
X40502739Y6190607D01*
X40623275Y6235381D01*
X40763557Y6245479D01*
X40895690Y6219982D01*
G36*
X39874406Y6224844D02*
G01*
X39958469Y6186607D01*
X40024450Y6140274D01*
X40072794Y6088468D01*
X40106172Y6021637D01*
X40127253Y5930231D01*
X40138707Y5804699D01*
X40143203Y5635492D01*
X40143678Y5524067D01*
X40143678Y5089373D01*
X40069316Y5055491D01*
X40010746Y5030728D01*
X39981730Y5021609D01*
X39976179Y5048743D01*
X39971775Y5121906D01*
X39969078Y5228737D01*
X39968506Y5313563D01*
X39966046Y5436113D01*
X39959412Y5533332D01*
X39949726Y5592866D01*
X39942032Y5605517D01*
X39890311Y5592598D01*
X39809117Y5559461D01*
X39715102Y5514539D01*
X39624917Y5466265D01*
X39555215Y5423072D01*
X39522648Y5393392D01*
X39522519Y5393071D01*
X39525320Y5338143D01*
X39550439Y5285708D01*
X39594541Y5243119D01*
X39658909Y5228874D01*
X39713921Y5230534D01*
X39791835Y5231755D01*
X39832732Y5213502D01*
X39857295Y5165274D01*
X39860392Y5156180D01*
X39871040Y5087402D01*
X39842565Y5045640D01*
X39768344Y5025737D01*
X39688168Y5022056D01*
X39543890Y5049342D01*
X39469203Y5088310D01*
X39376963Y5179852D01*
X39328043Y5292218D01*
X39323654Y5410949D01*
X39365001Y5521589D01*
X39427197Y5590920D01*
X39489294Y5629735D01*
X39586895Y5678875D01*
X39700632Y5728708D01*
X39719590Y5736323D01*
X39844521Y5791455D01*
X39916539Y5840046D01*
X39939700Y5888353D01*
X39918064Y5942630D01*
X39880920Y5985057D01*
X39793127Y6037298D01*
X39696530Y6041216D01*
X39607944Y6000959D01*
X39544186Y5920674D01*
X39535817Y5899960D01*
X39487096Y5823775D01*
X39415965Y5767215D01*
X39326207Y5720799D01*
X39326207Y5852416D01*
X39331490Y5932832D01*
X39354142Y5996214D01*
X39404367Y6063837D01*
X39452582Y6115924D01*
X39527554Y6189678D01*
X39585806Y6229298D01*
X39648372Y6245190D01*
X39719193Y6247816D01*
X39874406Y6224844D01*
G37*
X39874406Y6224844D02*
X39958469Y6186607D01*
X40024450Y6140274D01*
X40072794Y6088468D01*
X40106172Y6021637D01*
X40127253Y5930231D01*
X40138707Y5804699D01*
X40143203Y5635492D01*
X40143678Y5524067D01*
X40143678Y5089373D01*
X40069316Y5055491D01*
X40010746Y5030728D01*
X39981730Y5021609D01*
X39976179Y5048743D01*
X39971775Y5121906D01*
X39969078Y5228737D01*
X39968506Y5313563D01*
X39966046Y5436113D01*
X39959412Y5533332D01*
X39949726Y5592866D01*
X39942032Y5605517D01*
X39890311Y5592598D01*
X39809117Y5559461D01*
X39715102Y5514539D01*
X39624917Y5466265D01*
X39555215Y5423072D01*
X39522648Y5393392D01*
X39522519Y5393071D01*
X39525320Y5338143D01*
X39550439Y5285708D01*
X39594541Y5243119D01*
X39658909Y5228874D01*
X39713921Y5230534D01*
X39791835Y5231755D01*
X39832732Y5213502D01*
X39857295Y5165274D01*
X39860392Y5156180D01*
X39871040Y5087402D01*
X39842565Y5045640D01*
X39768344Y5025737D01*
X39688168Y5022056D01*
X39543890Y5049342D01*
X39469203Y5088310D01*
X39376963Y5179852D01*
X39328043Y5292218D01*
X39323654Y5410949D01*
X39365001Y5521589D01*
X39427197Y5590920D01*
X39489294Y5629735D01*
X39586895Y5678875D01*
X39700632Y5728708D01*
X39719590Y5736323D01*
X39844521Y5791455D01*
X39916539Y5840046D01*
X39939700Y5888353D01*
X39918064Y5942630D01*
X39880920Y5985057D01*
X39793127Y6037298D01*
X39696530Y6041216D01*
X39607944Y6000959D01*
X39544186Y5920674D01*
X39535817Y5899960D01*
X39487096Y5823775D01*
X39415965Y5767215D01*
X39326207Y5720799D01*
X39326207Y5852416D01*
X39331490Y5932832D01*
X39354142Y5996214D01*
X39404367Y6063837D01*
X39452582Y6115924D01*
X39527554Y6189678D01*
X39585806Y6229298D01*
X39648372Y6245190D01*
X39719193Y6247816D01*
X39874406Y6224844D01*
G36*
X39140124Y6220160D02*
G01*
X39144579Y6143347D01*
X39148071Y6026609D01*
X39150315Y5879179D01*
X39151035Y5724545D01*
X39151035Y5201273D01*
X39058645Y5108883D01*
X38994978Y5051953D01*
X38939089Y5028893D01*
X38862702Y5030353D01*
X38832380Y5034066D01*
X38737610Y5044874D01*
X38659222Y5051067D01*
X38640115Y5051639D01*
X38575699Y5047898D01*
X38483571Y5038506D01*
X38447850Y5034066D01*
X38360114Y5027199D01*
X38301153Y5042115D01*
X38242690Y5088165D01*
X38221585Y5108883D01*
X38129195Y5201273D01*
X38129195Y6180053D01*
X38203558Y6213934D01*
X38267590Y6239030D01*
X38305052Y6247816D01*
X38314657Y6220050D01*
X38323635Y6142470D01*
X38331386Y6023652D01*
X38337314Y5872172D01*
X38340173Y5744195D01*
X38348161Y5240575D01*
X38417848Y5230722D01*
X38481229Y5237611D01*
X38512286Y5259917D01*
X38520967Y5301621D01*
X38528378Y5390456D01*
X38533931Y5515166D01*
X38537036Y5664493D01*
X38537484Y5741339D01*
X38537931Y6183713D01*
X38629874Y6215765D01*
X38694949Y6237557D01*
X38730347Y6247719D01*
X38731368Y6247816D01*
X38734920Y6220191D01*
X38738823Y6143589D01*
X38742751Y6027421D01*
X38746376Y5881096D01*
X38748908Y5744195D01*
X38756897Y5240575D01*
X38932069Y5240575D01*
X38940107Y5700035D01*
X38948146Y6159495D01*
X39033543Y6203656D01*
X39096593Y6233981D01*
X39133910Y6247742D01*
X39134987Y6247816D01*
X39140124Y6220160D01*
G37*
X39140124Y6220160D02*
X39144579Y6143347D01*
X39148071Y6026609D01*
X39150315Y5879179D01*
X39151035Y5724545D01*
X39151035Y5201273D01*
X39058645Y5108883D01*
X38994978Y5051953D01*
X38939089Y5028893D01*
X38862702Y5030353D01*
X38832380Y5034066D01*
X38737610Y5044874D01*
X38659222Y5051067D01*
X38640115Y5051639D01*
X38575699Y5047898D01*
X38483571Y5038506D01*
X38447850Y5034066D01*
X38360114Y5027199D01*
X38301153Y5042115D01*
X38242690Y5088165D01*
X38221585Y5108883D01*
X38129195Y5201273D01*
X38129195Y6180053D01*
X38203558Y6213934D01*
X38267590Y6239030D01*
X38305052Y6247816D01*
X38314657Y6220050D01*
X38323635Y6142470D01*
X38331386Y6023652D01*
X38337314Y5872172D01*
X38340173Y5744195D01*
X38348161Y5240575D01*
X38417848Y5230722D01*
X38481229Y5237611D01*
X38512286Y5259917D01*
X38520967Y5301621D01*
X38528378Y5390456D01*
X38533931Y5515166D01*
X38537036Y5664493D01*
X38537484Y5741339D01*
X38537931Y6183713D01*
X38629874Y6215765D01*
X38694949Y6237557D01*
X38730347Y6247719D01*
X38731368Y6247816D01*
X38734920Y6220191D01*
X38738823Y6143589D01*
X38742751Y6027421D01*
X38746376Y5881096D01*
X38748908Y5744195D01*
X38756897Y5240575D01*
X38932069Y5240575D01*
X38940107Y5700035D01*
X38948146Y6159495D01*
X39033543Y6203656D01*
X39096593Y6233981D01*
X39133910Y6247742D01*
X39134987Y6247816D01*
X39140124Y6220160D01*
G36*
X37953914Y6005545D02*
G01*
X37953543Y5787339D01*
X37952108Y5619481D01*
X37949002Y5493930D01*
X37943622Y5402645D01*
X37935362Y5337585D01*
X37923616Y5290709D01*
X37907781Y5253976D01*
X37895790Y5233009D01*
X37796490Y5119306D01*
X37670588Y5048035D01*
X37531291Y5022462D01*
X37391805Y5045850D01*
X37308743Y5087881D01*
X37221545Y5160589D01*
X37162117Y5249388D01*
X37126261Y5365680D01*
X37109781Y5520865D01*
X37107447Y5634713D01*
X37107761Y5642894D01*
X37311724Y5642894D01*
X37312970Y5512343D01*
X37318678Y5425920D01*
X37331804Y5369382D01*
X37355306Y5328486D01*
X37383386Y5297638D01*
X37477688Y5238095D01*
X37578940Y5233008D01*
X37674636Y5282721D01*
X37682084Y5289457D01*
X37713874Y5324498D01*
X37733808Y5366189D01*
X37744600Y5428238D01*
X37748965Y5524356D01*
X37749655Y5630621D01*
X37748159Y5764120D01*
X37741964Y5853178D01*
X37728514Y5911707D01*
X37705251Y5953618D01*
X37686175Y5975877D01*
X37597563Y6032015D01*
X37495508Y6038765D01*
X37398095Y5995886D01*
X37379296Y5979968D01*
X37347293Y5944618D01*
X37327318Y5902498D01*
X37316593Y5839749D01*
X37312339Y5742513D01*
X37311724Y5642894D01*
X37107761Y5642894D01*
X37114504Y5818053D01*
X37138472Y5955805D01*
X37183548Y6059368D01*
X37253928Y6140144D01*
X37308743Y6181545D01*
X37408376Y6226272D01*
X37523855Y6247033D01*
X37631199Y6241475D01*
X37691264Y6219057D01*
X37714835Y6212677D01*
X37730477Y6236465D01*
X37741395Y6300212D01*
X37749655Y6397313D01*
X37758699Y6505459D01*
X37771261Y6570525D01*
X37794119Y6607732D01*
X37834051Y6632301D01*
X37859138Y6643181D01*
X37954023Y6682928D01*
X37953914Y6005545D01*
G37*
X37953914Y6005545D02*
X37953543Y5787339D01*
X37952108Y5619481D01*
X37949002Y5493930D01*
X37943622Y5402645D01*
X37935362Y5337585D01*
X37923616Y5290709D01*
X37907781Y5253976D01*
X37895790Y5233009D01*
X37796490Y5119306D01*
X37670588Y5048035D01*
X37531291Y5022462D01*
X37391805Y5045850D01*
X37308743Y5087881D01*
X37221545Y5160589D01*
X37162117Y5249388D01*
X37126261Y5365680D01*
X37109781Y5520865D01*
X37107447Y5634713D01*
X37107761Y5642894D01*
X37311724Y5642894D01*
X37312970Y5512343D01*
X37318678Y5425920D01*
X37331804Y5369382D01*
X37355306Y5328486D01*
X37383386Y5297638D01*
X37477688Y5238095D01*
X37578940Y5233008D01*
X37674636Y5282721D01*
X37682084Y5289457D01*
X37713874Y5324498D01*
X37733808Y5366189D01*
X37744600Y5428238D01*
X37748965Y5524356D01*
X37749655Y5630621D01*
X37748159Y5764120D01*
X37741964Y5853178D01*
X37728514Y5911707D01*
X37705251Y5953618D01*
X37686175Y5975877D01*
X37597563Y6032015D01*
X37495508Y6038765D01*
X37398095Y5995886D01*
X37379296Y5979968D01*
X37347293Y5944618D01*
X37327318Y5902498D01*
X37316593Y5839749D01*
X37312339Y5742513D01*
X37311724Y5642894D01*
X37107761Y5642894D01*
X37114504Y5818053D01*
X37138472Y5955805D01*
X37183548Y6059368D01*
X37253928Y6140144D01*
X37308743Y6181545D01*
X37408376Y6226272D01*
X37523855Y6247033D01*
X37631199Y6241475D01*
X37691264Y6219057D01*
X37714835Y6212677D01*
X37730477Y6236465D01*
X37741395Y6300212D01*
X37749655Y6397313D01*
X37758699Y6505459D01*
X37771261Y6570525D01*
X37794119Y6607732D01*
X37834051Y6632301D01*
X37859138Y6643181D01*
X37954023Y6682928D01*
X37953914Y6005545D01*
G36*
X36625943Y6238080D02*
G01*
X36758565Y6189141D01*
X36866010Y6102581D01*
X36908032Y6041648D01*
X36953843Y5929839D01*
X36952891Y5848994D01*
X36904808Y5794622D01*
X36887017Y5785376D01*
X36810204Y5756550D01*
X36770976Y5763935D01*
X36757689Y5812342D01*
X36757012Y5839080D01*
X36732686Y5937452D01*
X36669281Y6006266D01*
X36581154Y6039502D01*
X36482663Y6031139D01*
X36402602Y5987704D01*
X36375561Y5962928D01*
X36356394Y5932871D01*
X36343446Y5887435D01*
X36335064Y5816524D01*
X36329593Y5710040D01*
X36325378Y5557888D01*
X36324287Y5509713D01*
X36320307Y5344905D01*
X36315781Y5228912D01*
X36308995Y5152167D01*
X36298231Y5105107D01*
X36281773Y5078165D01*
X36257906Y5061777D01*
X36242626Y5054537D01*
X36177733Y5029780D01*
X36139534Y5021609D01*
X36126912Y5048897D01*
X36119208Y5131397D01*
X36116380Y5270059D01*
X36118386Y5465838D01*
X36119011Y5496035D01*
X36123421Y5674651D01*
X36128635Y5805077D01*
X36136055Y5897508D01*
X36147082Y5962142D01*
X36163117Y6009175D01*
X36185561Y6048804D01*
X36197302Y6065785D01*
X36264619Y6140920D01*
X36339910Y6199362D01*
X36349128Y6204464D01*
X36484133Y6244740D01*
X36625943Y6238080D01*
G37*
X36625943Y6238080D02*
X36758565Y6189141D01*
X36866010Y6102581D01*
X36908032Y6041648D01*
X36953843Y5929839D01*
X36952891Y5848994D01*
X36904808Y5794622D01*
X36887017Y5785376D01*
X36810204Y5756550D01*
X36770976Y5763935D01*
X36757689Y5812342D01*
X36757012Y5839080D01*
X36732686Y5937452D01*
X36669281Y6006266D01*
X36581154Y6039502D01*
X36482663Y6031139D01*
X36402602Y5987704D01*
X36375561Y5962928D01*
X36356394Y5932871D01*
X36343446Y5887435D01*
X36335064Y5816524D01*
X36329593Y5710040D01*
X36325378Y5557888D01*
X36324287Y5509713D01*
X36320307Y5344905D01*
X36315781Y5228912D01*
X36308995Y5152167D01*
X36298231Y5105107D01*
X36281773Y5078165D01*
X36257906Y5061777D01*
X36242626Y5054537D01*
X36177733Y5029780D01*
X36139534Y5021609D01*
X36126912Y5048897D01*
X36119208Y5131397D01*
X36116380Y5270059D01*
X36118386Y5465838D01*
X36119011Y5496035D01*
X36123421Y5674651D01*
X36128635Y5805077D01*
X36136055Y5897508D01*
X36147082Y5962142D01*
X36163117Y6009175D01*
X36185561Y6048804D01*
X36197302Y6065785D01*
X36264619Y6140920D01*
X36339910Y6199362D01*
X36349128Y6204464D01*
X36484133Y6244740D01*
X36625943Y6238080D01*
G36*
X35639944Y6235640D02*
G01*
X35754343Y6193158D01*
X35755652Y6192342D01*
X35826403Y6140270D01*
X35878636Y6079416D01*
X35915371Y6000113D01*
X35939634Y5892691D01*
X35954445Y5747483D01*
X35962829Y5554821D01*
X35963564Y5527372D01*
X35974120Y5113479D01*
X35885291Y5067544D01*
X35821018Y5036502D01*
X35782210Y5021794D01*
X35780415Y5021609D01*
X35773700Y5048750D01*
X35768365Y5121959D01*
X35765083Y5228919D01*
X35764368Y5315531D01*
X35764351Y5455838D01*
X35757937Y5543949D01*
X35735580Y5585975D01*
X35687732Y5588025D01*
X35604849Y5556210D01*
X35479713Y5497728D01*
X35387697Y5449155D01*
X35340371Y5407014D01*
X35326458Y5361084D01*
X35326437Y5358811D01*
X35349395Y5279689D01*
X35417370Y5236945D01*
X35521398Y5230754D01*
X35596330Y5231828D01*
X35635839Y5210247D01*
X35660478Y5158409D01*
X35674659Y5092368D01*
X35654223Y5054896D01*
X35646528Y5049533D01*
X35574083Y5027994D01*
X35472633Y5024945D01*
X35368157Y5039222D01*
X35294125Y5065312D01*
X35191772Y5152215D01*
X35133591Y5273184D01*
X35122069Y5367692D01*
X35130862Y5452938D01*
X35162680Y5522524D01*
X35225684Y5584328D01*
X35328031Y5646228D01*
X35477882Y5716103D01*
X35487012Y5720052D01*
X35621997Y5782412D01*
X35705294Y5833554D01*
X35740997Y5879512D01*
X35733203Y5926317D01*
X35686007Y5980002D01*
X35671894Y5992356D01*
X35577359Y6040259D01*
X35479406Y6038242D01*
X35394097Y5991276D01*
X35337496Y5904331D01*
X35332237Y5887266D01*
X35281023Y5804496D01*
X35216037Y5764628D01*
X35122069Y5725118D01*
X35122069Y5827342D01*
X35150653Y5975928D01*
X35235495Y6112216D01*
X35279645Y6157809D01*
X35380005Y6216326D01*
X35507635Y6242816D01*
X35639944Y6235640D01*
G37*
X35639944Y6235640D02*
X35754343Y6193158D01*
X35755652Y6192342D01*
X35826403Y6140270D01*
X35878636Y6079416D01*
X35915371Y6000113D01*
X35939634Y5892691D01*
X35954445Y5747483D01*
X35962829Y5554821D01*
X35963564Y5527372D01*
X35974120Y5113479D01*
X35885291Y5067544D01*
X35821018Y5036502D01*
X35782210Y5021794D01*
X35780415Y5021609D01*
X35773700Y5048750D01*
X35768365Y5121959D01*
X35765083Y5228919D01*
X35764368Y5315531D01*
X35764351Y5455838D01*
X35757937Y5543949D01*
X35735580Y5585975D01*
X35687732Y5588025D01*
X35604849Y5556210D01*
X35479713Y5497728D01*
X35387697Y5449155D01*
X35340371Y5407014D01*
X35326458Y5361084D01*
X35326437Y5358811D01*
X35349395Y5279689D01*
X35417370Y5236945D01*
X35521398Y5230754D01*
X35596330Y5231828D01*
X35635839Y5210247D01*
X35660478Y5158409D01*
X35674659Y5092368D01*
X35654223Y5054896D01*
X35646528Y5049533D01*
X35574083Y5027994D01*
X35472633Y5024945D01*
X35368157Y5039222D01*
X35294125Y5065312D01*
X35191772Y5152215D01*
X35133591Y5273184D01*
X35122069Y5367692D01*
X35130862Y5452938D01*
X35162680Y5522524D01*
X35225684Y5584328D01*
X35328031Y5646228D01*
X35477882Y5716103D01*
X35487012Y5720052D01*
X35621997Y5782412D01*
X35705294Y5833554D01*
X35740997Y5879512D01*
X35733203Y5926317D01*
X35686007Y5980002D01*
X35671894Y5992356D01*
X35577359Y6040259D01*
X35479406Y6038242D01*
X35394097Y5991276D01*
X35337496Y5904331D01*
X35332237Y5887266D01*
X35281023Y5804496D01*
X35216037Y5764628D01*
X35122069Y5725118D01*
X35122069Y5827342D01*
X35150653Y5975928D01*
X35235495Y6112216D01*
X35279645Y6157809D01*
X35380005Y6216326D01*
X35507635Y6242816D01*
X35639944Y6235640D01*
G36*
X34304598Y6436143D02*
G01*
X34313154Y6316812D01*
X34322981Y6246494D01*
X34336599Y6215821D01*
X34356527Y6215429D01*
X34362989Y6219090D01*
X34448940Y6245602D01*
X34560745Y6244054D01*
X34674414Y6216801D01*
X34745510Y6181545D01*
X34818405Y6125222D01*
X34871693Y6061481D01*
X34908275Y5980490D01*
X34931050Y5872414D01*
X34942919Y5727420D01*
X34946782Y5535674D01*
X34946851Y5498891D01*
X34946897Y5085712D01*
X34854954Y5053661D01*
X34789652Y5031856D01*
X34753824Y5021703D01*
X34752770Y5021609D01*
X34749242Y5049140D01*
X34746239Y5125077D01*
X34743990Y5239435D01*
X34742724Y5382231D01*
X34742529Y5469049D01*
X34742123Y5640227D01*
X34740032Y5762912D01*
X34734947Y5847000D01*
X34725560Y5902386D01*
X34710561Y5938968D01*
X34688642Y5966641D01*
X34674957Y5979968D01*
X34580949Y6033672D01*
X34478364Y6037693D01*
X34385290Y5992275D01*
X34368078Y5975877D01*
X34342832Y5945043D01*
X34325320Y5908469D01*
X34314142Y5855585D01*
X34307896Y5775823D01*
X34305182Y5658615D01*
X34304598Y5497009D01*
X34304598Y5085712D01*
X34212655Y5053661D01*
X34147353Y5031856D01*
X34111525Y5021703D01*
X34110471Y5021609D01*
X34107775Y5049552D01*
X34105345Y5128370D01*
X34103278Y5250547D01*
X34101671Y5408568D01*
X34100623Y5594917D01*
X34100231Y5802080D01*
X34100230Y5811294D01*
X34100230Y6600980D01*
X34195115Y6641003D01*
X34290000Y6681027D01*
X34304598Y6436143D01*
G37*
X34304598Y6436143D02*
X34313154Y6316812D01*
X34322981Y6246494D01*
X34336599Y6215821D01*
X34356527Y6215429D01*
X34362989Y6219090D01*
X34448940Y6245602D01*
X34560745Y6244054D01*
X34674414Y6216801D01*
X34745510Y6181545D01*
X34818405Y6125222D01*
X34871693Y6061481D01*
X34908275Y5980490D01*
X34931050Y5872414D01*
X34942919Y5727420D01*
X34946782Y5535674D01*
X34946851Y5498891D01*
X34946897Y5085712D01*
X34854954Y5053661D01*
X34789652Y5031856D01*
X34753824Y5021703D01*
X34752770Y5021609D01*
X34749242Y5049140D01*
X34746239Y5125077D01*
X34743990Y5239435D01*
X34742724Y5382231D01*
X34742529Y5469049D01*
X34742123Y5640227D01*
X34740032Y5762912D01*
X34734947Y5847000D01*
X34725560Y5902386D01*
X34710561Y5938968D01*
X34688642Y5966641D01*
X34674957Y5979968D01*
X34580949Y6033672D01*
X34478364Y6037693D01*
X34385290Y5992275D01*
X34368078Y5975877D01*
X34342832Y5945043D01*
X34325320Y5908469D01*
X34314142Y5855585D01*
X34307896Y5775823D01*
X34305182Y5658615D01*
X34304598Y5497009D01*
X34304598Y5085712D01*
X34212655Y5053661D01*
X34147353Y5031856D01*
X34111525Y5021703D01*
X34110471Y5021609D01*
X34107775Y5049552D01*
X34105345Y5128370D01*
X34103278Y5250547D01*
X34101671Y5408568D01*
X34100623Y5594917D01*
X34100231Y5802080D01*
X34100230Y5811294D01*
X34100230Y6600980D01*
X34195115Y6641003D01*
X34290000Y6681027D01*
X34304598Y6436143D01*
G36*
X31875552Y6275324D02*
G01*
X31990658Y6197889D01*
X32079611Y6086051D01*
X32132749Y5943735D01*
X32143497Y5838985D01*
X32142276Y5795274D01*
X32132056Y5761806D01*
X32103961Y5731821D01*
X32049116Y5698560D01*
X31958645Y5655262D01*
X31823672Y5595167D01*
X31822989Y5594866D01*
X31698751Y5537963D01*
X31596873Y5487435D01*
X31527767Y5448720D01*
X31501846Y5427260D01*
X31501839Y5427087D01*
X31524685Y5380356D01*
X31578109Y5328846D01*
X31639442Y5291739D01*
X31670515Y5284368D01*
X31755289Y5309862D01*
X31828293Y5373709D01*
X31863913Y5443906D01*
X31898180Y5495657D01*
X31965303Y5554591D01*
X32044208Y5605504D01*
X32113821Y5633191D01*
X32128377Y5634713D01*
X32144763Y5609679D01*
X32145750Y5545689D01*
X32133708Y5459407D01*
X32111007Y5367499D01*
X32080014Y5286631D01*
X32078448Y5283491D01*
X31985181Y5153266D01*
X31864304Y5064689D01*
X31727027Y5021214D01*
X31584560Y5026294D01*
X31448112Y5083384D01*
X31442045Y5087398D01*
X31334710Y5184674D01*
X31264132Y5311591D01*
X31225074Y5478474D01*
X31219832Y5525361D01*
X31210548Y5746671D01*
X31221678Y5849876D01*
X31501839Y5849876D01*
X31505479Y5785497D01*
X31525389Y5766709D01*
X31575026Y5780765D01*
X31653267Y5813991D01*
X31740726Y5855641D01*
X31742899Y5856744D01*
X31817030Y5895735D01*
X31846781Y5921756D01*
X31839445Y5949035D01*
X31808553Y5984879D01*
X31729960Y6036749D01*
X31645323Y6040561D01*
X31569403Y6002811D01*
X31516965Y5929999D01*
X31501839Y5849876D01*
X31221678Y5849876D01*
X31229644Y5923739D01*
X31278634Y6064171D01*
X31346836Y6162553D01*
X31469935Y6261970D01*
X31605528Y6311289D01*
X31743955Y6314432D01*
X31875552Y6275324D01*
G37*
X31875552Y6275324D02*
X31990658Y6197889D01*
X32079611Y6086051D01*
X32132749Y5943735D01*
X32143497Y5838985D01*
X32142276Y5795274D01*
X32132056Y5761806D01*
X32103961Y5731821D01*
X32049116Y5698560D01*
X31958645Y5655262D01*
X31823672Y5595167D01*
X31822989Y5594866D01*
X31698751Y5537963D01*
X31596873Y5487435D01*
X31527767Y5448720D01*
X31501846Y5427260D01*
X31501839Y5427087D01*
X31524685Y5380356D01*
X31578109Y5328846D01*
X31639442Y5291739D01*
X31670515Y5284368D01*
X31755289Y5309862D01*
X31828293Y5373709D01*
X31863913Y5443906D01*
X31898180Y5495657D01*
X31965303Y5554591D01*
X32044208Y5605504D01*
X32113821Y5633191D01*
X32128377Y5634713D01*
X32144763Y5609679D01*
X32145750Y5545689D01*
X32133708Y5459407D01*
X32111007Y5367499D01*
X32080014Y5286631D01*
X32078448Y5283491D01*
X31985181Y5153266D01*
X31864304Y5064689D01*
X31727027Y5021214D01*
X31584560Y5026294D01*
X31448112Y5083384D01*
X31442045Y5087398D01*
X31334710Y5184674D01*
X31264132Y5311591D01*
X31225074Y5478474D01*
X31219832Y5525361D01*
X31210548Y5746671D01*
X31221678Y5849876D01*
X31501839Y5849876D01*
X31505479Y5785497D01*
X31525389Y5766709D01*
X31575026Y5780765D01*
X31653267Y5813991D01*
X31740726Y5855641D01*
X31742899Y5856744D01*
X31817030Y5895735D01*
X31846781Y5921756D01*
X31839445Y5949035D01*
X31808553Y5984879D01*
X31729960Y6036749D01*
X31645323Y6040561D01*
X31569403Y6002811D01*
X31516965Y5929999D01*
X31501839Y5849876D01*
X31221678Y5849876D01*
X31229644Y5923739D01*
X31278634Y6064171D01*
X31346836Y6162553D01*
X31469935Y6261970D01*
X31605528Y6311289D01*
X31743955Y6314432D01*
X31875552Y6275324D01*
G36*
X29608221Y6293985D02*
G01*
X29745061Y6222032D01*
X29846051Y6106234D01*
X29881925Y6031787D01*
X29909839Y5920008D01*
X29924129Y5778773D01*
X29925484Y5624629D01*
X29914595Y5474121D01*
X29892153Y5343795D01*
X29858850Y5250197D01*
X29848615Y5234078D01*
X29727382Y5113751D01*
X29583387Y5041683D01*
X29427139Y5020592D01*
X29269148Y5053198D01*
X29225180Y5072747D01*
X29139556Y5132988D01*
X29064408Y5212865D01*
X29057306Y5222996D01*
X29028439Y5271819D01*
X29009357Y5324010D01*
X28998084Y5392715D01*
X28992645Y5491082D01*
X28991062Y5632256D01*
X28991035Y5663908D01*
X28991107Y5673981D01*
X29282989Y5673981D01*
X29284687Y5540744D01*
X29291372Y5452326D01*
X29305425Y5395215D01*
X29329229Y5355898D01*
X29341379Y5342759D01*
X29411236Y5292828D01*
X29479059Y5295105D01*
X29547635Y5338416D01*
X29588535Y5384654D01*
X29612758Y5452143D01*
X29626361Y5558567D01*
X29627294Y5570980D01*
X29629616Y5763853D01*
X29605350Y5907100D01*
X29554824Y5999840D01*
X29478368Y6041193D01*
X29451076Y6043448D01*
X29379411Y6032107D01*
X29330390Y5992816D01*
X29300418Y5917674D01*
X29285899Y5798778D01*
X29282989Y5673981D01*
X28991107Y5673981D01*
X28992122Y5814341D01*
X28996688Y5919451D01*
X29006688Y5992286D01*
X29024079Y6045892D01*
X29050816Y6093319D01*
X29056724Y6102136D01*
X29156032Y6220993D01*
X29264242Y6289992D01*
X29395981Y6317381D01*
X29440717Y6318719D01*
X29608221Y6293985D01*
G37*
X29608221Y6293985D02*
X29745061Y6222032D01*
X29846051Y6106234D01*
X29881925Y6031787D01*
X29909839Y5920008D01*
X29924129Y5778773D01*
X29925484Y5624629D01*
X29914595Y5474121D01*
X29892153Y5343795D01*
X29858850Y5250197D01*
X29848615Y5234078D01*
X29727382Y5113751D01*
X29583387Y5041683D01*
X29427139Y5020592D01*
X29269148Y5053198D01*
X29225180Y5072747D01*
X29139556Y5132988D01*
X29064408Y5212865D01*
X29057306Y5222996D01*
X29028439Y5271819D01*
X29009357Y5324010D01*
X28998084Y5392715D01*
X28992645Y5491082D01*
X28991062Y5632256D01*
X28991035Y5663908D01*
X28991107Y5673981D01*
X29282989Y5673981D01*
X29284687Y5540744D01*
X29291372Y5452326D01*
X29305425Y5395215D01*
X29329229Y5355898D01*
X29341379Y5342759D01*
X29411236Y5292828D01*
X29479059Y5295105D01*
X29547635Y5338416D01*
X29588535Y5384654D01*
X29612758Y5452143D01*
X29626361Y5558567D01*
X29627294Y5570980D01*
X29629616Y5763853D01*
X29605350Y5907100D01*
X29554824Y5999840D01*
X29478368Y6041193D01*
X29451076Y6043448D01*
X29379411Y6032107D01*
X29330390Y5992816D01*
X29300418Y5917674D01*
X29285899Y5798778D01*
X29282989Y5673981D01*
X28991107Y5673981D01*
X28992122Y5814341D01*
X28996688Y5919451D01*
X29006688Y5992286D01*
X29024079Y6045892D01*
X29050816Y6093319D01*
X29056724Y6102136D01*
X29156032Y6220993D01*
X29264242Y6289992D01*
X29395981Y6317381D01*
X29440717Y6318719D01*
X29608221Y6293985D01*
G36*
X32977429Y6282281D02*
G01*
X33071123Y6228086D01*
X33136264Y6174293D01*
X33183907Y6117934D01*
X33216728Y6049013D01*
X33237406Y5957532D01*
X33248620Y5833494D01*
X33253049Y5666902D01*
X33253563Y5547149D01*
X33253563Y5106341D01*
X33129483Y5050717D01*
X33005402Y4995093D01*
X32990805Y5477905D01*
X32984773Y5658221D01*
X32978445Y5789099D01*
X32970606Y5879489D01*
X32960037Y5938336D01*
X32945523Y5974587D01*
X32925848Y5997190D01*
X32919535Y6002083D01*
X32823888Y6040294D01*
X32727207Y6025173D01*
X32669655Y5985057D01*
X32646245Y5956630D01*
X32630039Y5919328D01*
X32619741Y5862777D01*
X32614049Y5776606D01*
X32611664Y5650442D01*
X32611264Y5518958D01*
X32611186Y5354001D01*
X32608361Y5237239D01*
X32598907Y5158490D01*
X32578940Y5107569D01*
X32544576Y5074294D01*
X32491932Y5048480D01*
X32421617Y5021656D01*
X32344820Y4992458D01*
X32353962Y5510654D01*
X32357643Y5697461D01*
X32361950Y5835510D01*
X32368123Y5934432D01*
X32377402Y6003855D01*
X32391027Y6053410D01*
X32410239Y6092727D01*
X32433402Y6127416D01*
X32545152Y6238230D01*
X32681513Y6302311D01*
X32829825Y6317661D01*
X32977429Y6282281D01*
G37*
X32977429Y6282281D02*
X33071123Y6228086D01*
X33136264Y6174293D01*
X33183907Y6117934D01*
X33216728Y6049013D01*
X33237406Y5957532D01*
X33248620Y5833494D01*
X33253049Y5666902D01*
X33253563Y5547149D01*
X33253563Y5106341D01*
X33129483Y5050717D01*
X33005402Y4995093D01*
X32990805Y5477905D01*
X32984773Y5658221D01*
X32978445Y5789099D01*
X32970606Y5879489D01*
X32960037Y5938336D01*
X32945523Y5974587D01*
X32925848Y5997190D01*
X32919535Y6002083D01*
X32823888Y6040294D01*
X32727207Y6025173D01*
X32669655Y5985057D01*
X32646245Y5956630D01*
X32630039Y5919328D01*
X32619741Y5862777D01*
X32614049Y5776606D01*
X32611664Y5650442D01*
X32611264Y5518958D01*
X32611186Y5354001D01*
X32608361Y5237239D01*
X32598907Y5158490D01*
X32578940Y5107569D01*
X32544576Y5074294D01*
X32491932Y5048480D01*
X32421617Y5021656D01*
X32344820Y4992458D01*
X32353962Y5510654D01*
X32357643Y5697461D01*
X32361950Y5835510D01*
X32368123Y5934432D01*
X32377402Y6003855D01*
X32391027Y6053410D01*
X32410239Y6092727D01*
X32433402Y6127416D01*
X32545152Y6238230D01*
X32681513Y6302311D01*
X32829825Y6317661D01*
X32977429Y6282281D01*
G36*
X30731900Y6298097D02*
G01*
X30843450Y6242478D01*
X30941908Y6140069D01*
X30969023Y6102136D01*
X30998562Y6052500D01*
X31017728Y5998588D01*
X31028693Y5926636D01*
X31033629Y5822878D01*
X31034713Y5685899D01*
X31029818Y5498185D01*
X31012804Y5357242D01*
X30980177Y5252092D01*
X30928442Y5171757D01*
X30854104Y5105259D01*
X30848642Y5101322D01*
X30775380Y5061047D01*
X30687160Y5041120D01*
X30574962Y5036207D01*
X30392567Y5036207D01*
X30392491Y4859143D01*
X30390793Y4760530D01*
X30380450Y4702686D01*
X30353422Y4667994D01*
X30301668Y4638836D01*
X30289239Y4632879D01*
X30231077Y4604961D01*
X30186044Y4587328D01*
X30152559Y4585806D01*
X30129038Y4606219D01*
X30113900Y4654393D01*
X30105563Y4736154D01*
X30102444Y4857328D01*
X30102960Y5023740D01*
X30105529Y5241215D01*
X30106332Y5306264D01*
X30109222Y5530498D01*
X30111812Y5677179D01*
X30392414Y5677179D01*
X30393991Y5552674D01*
X30401000Y5471213D01*
X30416858Y5417485D01*
X30444981Y5376177D01*
X30464075Y5356029D01*
X30542135Y5297079D01*
X30611247Y5292280D01*
X30682560Y5340962D01*
X30684368Y5342759D01*
X30713383Y5380382D01*
X30731033Y5431516D01*
X30739936Y5510262D01*
X30742709Y5630724D01*
X30742759Y5657412D01*
X30736058Y5823417D01*
X30714248Y5938495D01*
X30674765Y6008746D01*
X30615044Y6040271D01*
X30580528Y6043448D01*
X30498611Y6028540D01*
X30442421Y5979452D01*
X30408598Y5889638D01*
X30393780Y5752555D01*
X30392414Y5677179D01*
X30111812Y5677179D01*
X30112287Y5704048D01*
X30116247Y5834618D01*
X30121826Y5929913D01*
X30129746Y5997636D01*
X30140731Y6045493D01*
X30155501Y6081187D01*
X30174782Y6112422D01*
X30183049Y6124176D01*
X30292712Y6235203D01*
X30431365Y6298153D01*
X30591754Y6315703D01*
X30731900Y6298097D01*
G37*
X30731900Y6298097D02*
X30843450Y6242478D01*
X30941908Y6140069D01*
X30969023Y6102136D01*
X30998562Y6052500D01*
X31017728Y5998588D01*
X31028693Y5926636D01*
X31033629Y5822878D01*
X31034713Y5685899D01*
X31029818Y5498185D01*
X31012804Y5357242D01*
X30980177Y5252092D01*
X30928442Y5171757D01*
X30854104Y5105259D01*
X30848642Y5101322D01*
X30775380Y5061047D01*
X30687160Y5041120D01*
X30574962Y5036207D01*
X30392567Y5036207D01*
X30392491Y4859143D01*
X30390793Y4760530D01*
X30380450Y4702686D01*
X30353422Y4667994D01*
X30301668Y4638836D01*
X30289239Y4632879D01*
X30231077Y4604961D01*
X30186044Y4587328D01*
X30152559Y4585806D01*
X30129038Y4606219D01*
X30113900Y4654393D01*
X30105563Y4736154D01*
X30102444Y4857328D01*
X30102960Y5023740D01*
X30105529Y5241215D01*
X30106332Y5306264D01*
X30109222Y5530498D01*
X30111812Y5677179D01*
X30392414Y5677179D01*
X30393991Y5552674D01*
X30401000Y5471213D01*
X30416858Y5417485D01*
X30444981Y5376177D01*
X30464075Y5356029D01*
X30542135Y5297079D01*
X30611247Y5292280D01*
X30682560Y5340962D01*
X30684368Y5342759D01*
X30713383Y5380382D01*
X30731033Y5431516D01*
X30739936Y5510262D01*
X30742709Y5630724D01*
X30742759Y5657412D01*
X30736058Y5823417D01*
X30714248Y5938495D01*
X30674765Y6008746D01*
X30615044Y6040271D01*
X30580528Y6043448D01*
X30498611Y6028540D01*
X30442421Y5979452D01*
X30408598Y5889638D01*
X30393780Y5752555D01*
X30392414Y5677179D01*
X30111812Y5677179D01*
X30112287Y5704048D01*
X30116247Y5834618D01*
X30121826Y5929913D01*
X30129746Y5997636D01*
X30140731Y6045493D01*
X30155501Y6081187D01*
X30174782Y6112422D01*
X30183049Y6124176D01*
X30292712Y6235203D01*
X30431365Y6298153D01*
X30591754Y6315703D01*
X30731900Y6298097D01*
%TO.C,G1*%
G36*
X106553000Y61293375D02*
G01*
X106553000Y60452000D01*
X106918125Y60452000D01*
X106918125Y61245750D01*
X107283250Y61245750D01*
X107283250Y60452000D01*
X107727750Y60452000D01*
X107727750Y61325125D01*
X108108750Y61325125D01*
X108108750Y59943754D01*
X107144343Y59947845D01*
X106179937Y59951937D01*
X106171655Y61293375D01*
X106553000Y61293375D01*
G37*
X106553000Y61293375D02*
X106553000Y60452000D01*
X106918125Y60452000D01*
X106918125Y61245750D01*
X107283250Y61245750D01*
X107283250Y60452000D01*
X107727750Y60452000D01*
X107727750Y61325125D01*
X108108750Y61325125D01*
X108108750Y59943754D01*
X107144343Y59947845D01*
X106179937Y59951937D01*
X106171655Y61293375D01*
X106553000Y61293375D01*
G36*
X106553000Y57229375D02*
G01*
X106553000Y56388000D01*
X106918125Y56388000D01*
X106918125Y57181750D01*
X107282695Y57181750D01*
X107286941Y56788843D01*
X107291187Y56395937D01*
X107509468Y56391520D01*
X107727750Y56387104D01*
X107727750Y57261125D01*
X108108750Y57261125D01*
X108108750Y55895875D01*
X106172000Y55895875D01*
X106172000Y57229375D01*
X106553000Y57229375D01*
G37*
X106553000Y57229375D02*
X106553000Y56388000D01*
X106918125Y56388000D01*
X106918125Y57181750D01*
X107282695Y57181750D01*
X107286941Y56788843D01*
X107291187Y56395937D01*
X107509468Y56391520D01*
X107727750Y56387104D01*
X107727750Y57261125D01*
X108108750Y57261125D01*
X108108750Y55895875D01*
X106172000Y55895875D01*
X106172000Y57229375D01*
X106553000Y57229375D01*
G36*
X106468967Y55435500D02*
G01*
X107284890Y55063404D01*
X108100812Y54691309D01*
X108105194Y54452217D01*
X108106049Y54369183D01*
X108105504Y54298675D01*
X108103701Y54246167D01*
X108100786Y54217131D01*
X108098916Y54213125D01*
X108082828Y54219506D01*
X108040576Y54237835D01*
X107974887Y54266890D01*
X107888488Y54305450D01*
X107784104Y54352292D01*
X107664463Y54406196D01*
X107532290Y54465939D01*
X107390313Y54530300D01*
X107333724Y54556002D01*
X107188267Y54622073D01*
X107051240Y54684262D01*
X106925420Y54741311D01*
X106813584Y54791964D01*
X106718511Y54834963D01*
X106642979Y54869053D01*
X106589764Y54892975D01*
X106561645Y54905473D01*
X106558158Y54906950D01*
X106551941Y54904239D01*
X106547025Y54888830D01*
X106543273Y54857770D01*
X106540548Y54808103D01*
X106538714Y54736877D01*
X106537633Y54641138D01*
X106537169Y54517930D01*
X106537125Y54452948D01*
X106537125Y53990875D01*
X106172000Y53990875D01*
X106172000Y55435500D01*
X106468967Y55435500D01*
G37*
X106468967Y55435500D02*
X107284890Y55063404D01*
X108100812Y54691309D01*
X108105194Y54452217D01*
X108106049Y54369183D01*
X108105504Y54298675D01*
X108103701Y54246167D01*
X108100786Y54217131D01*
X108098916Y54213125D01*
X108082828Y54219506D01*
X108040576Y54237835D01*
X107974887Y54266890D01*
X107888488Y54305450D01*
X107784104Y54352292D01*
X107664463Y54406196D01*
X107532290Y54465939D01*
X107390313Y54530300D01*
X107333724Y54556002D01*
X107188267Y54622073D01*
X107051240Y54684262D01*
X106925420Y54741311D01*
X106813584Y54791964D01*
X106718511Y54834963D01*
X106642979Y54869053D01*
X106589764Y54892975D01*
X106561645Y54905473D01*
X106558158Y54906950D01*
X106551941Y54904239D01*
X106547025Y54888830D01*
X106543273Y54857770D01*
X106540548Y54808103D01*
X106538714Y54736877D01*
X106537633Y54641138D01*
X106537169Y54517930D01*
X106537125Y54452948D01*
X106537125Y53990875D01*
X106172000Y53990875D01*
X106172000Y55435500D01*
X106468967Y55435500D01*
G36*
X107142191Y49379397D02*
G01*
X107146728Y49401424D01*
X107148536Y49403000D01*
X107163677Y49394597D01*
X107200937Y49371214D01*
X107256086Y49335582D01*
X107324895Y49290436D01*
X107403135Y49238509D01*
X107406428Y49236312D01*
X107656157Y49069625D01*
X108108750Y49069625D01*
X108108750Y48942625D01*
X107647354Y48942625D01*
X107403419Y48775937D01*
X107325938Y48723359D01*
X107257472Y48677594D01*
X107202305Y48641450D01*
X107164721Y48617733D01*
X107149016Y48609250D01*
X107143654Y48623331D01*
X107142510Y48658761D01*
X107143430Y48676718D01*
X107146021Y48703178D01*
X107152101Y48724671D01*
X107165706Y48745217D01*
X107190870Y48768837D01*
X107231628Y48799550D01*
X107292015Y48841377D01*
X107344224Y48876780D01*
X107540136Y49009372D01*
X107340255Y49142869D01*
X107140375Y49276366D01*
X107140375Y49339683D01*
X107142191Y49379397D01*
G37*
X107142191Y49379397D02*
X107146728Y49401424D01*
X107148536Y49403000D01*
X107163677Y49394597D01*
X107200937Y49371214D01*
X107256086Y49335582D01*
X107324895Y49290436D01*
X107403135Y49238509D01*
X107406428Y49236312D01*
X107656157Y49069625D01*
X108108750Y49069625D01*
X108108750Y48942625D01*
X107647354Y48942625D01*
X107403419Y48775937D01*
X107325938Y48723359D01*
X107257472Y48677594D01*
X107202305Y48641450D01*
X107164721Y48617733D01*
X107149016Y48609250D01*
X107143654Y48623331D01*
X107142510Y48658761D01*
X107143430Y48676718D01*
X107146021Y48703178D01*
X107152101Y48724671D01*
X107165706Y48745217D01*
X107190870Y48768837D01*
X107231628Y48799550D01*
X107292015Y48841377D01*
X107344224Y48876780D01*
X107540136Y49009372D01*
X107340255Y49142869D01*
X107140375Y49276366D01*
X107140375Y49339683D01*
X107142191Y49379397D01*
G36*
X107143285Y48129031D02*
G01*
X107147432Y48236795D01*
X107154197Y48318282D01*
X107165089Y48378942D01*
X107181615Y48424227D01*
X107205284Y48459591D01*
X107237603Y48490484D01*
X107244855Y48496306D01*
X107309835Y48530549D01*
X107382265Y48542100D01*
X107453639Y48532047D01*
X107515453Y48501478D01*
X107556406Y48456441D01*
X107589305Y48400680D01*
X107622809Y48459656D01*
X107674252Y48523593D01*
X107742125Y48561520D01*
X107828417Y48574397D01*
X107858932Y48573471D01*
X107941735Y48559325D01*
X108003613Y48526243D01*
X108052015Y48469526D01*
X108067973Y48441662D01*
X108081076Y48412691D01*
X108090547Y48379589D01*
X108097144Y48336303D01*
X108101628Y48276778D01*
X108104757Y48194957D01*
X108106206Y48136968D01*
X108111599Y47894875D01*
X107648375Y47894875D01*
X107648375Y48021875D01*
X108000515Y48021875D01*
X107995101Y48188237D01*
X107992089Y48263762D01*
X107987840Y48314762D01*
X107980722Y48348463D01*
X107969106Y48372088D01*
X107951365Y48392860D01*
X107948238Y48396013D01*
X107895784Y48428898D01*
X107832838Y48440275D01*
X107768399Y48431745D01*
X107711467Y48404906D01*
X107671038Y48361355D01*
X107663541Y48345448D01*
X107656642Y48311680D01*
X107651385Y48256204D01*
X107648607Y48189049D01*
X107648375Y48163716D01*
X107648375Y48021875D01*
X107648375Y47894875D01*
X107251500Y47894875D01*
X107251500Y48021875D01*
X107540225Y48021875D01*
X107534768Y48178996D01*
X107530940Y48256324D01*
X107524991Y48308788D01*
X107515631Y48343264D01*
X107501572Y48366626D01*
X107499070Y48369496D01*
X107459820Y48393018D01*
X107404251Y48403631D01*
X107345788Y48399535D01*
X107323648Y48393013D01*
X107288970Y48364402D01*
X107265743Y48308894D01*
X107253609Y48225323D01*
X107251500Y48157600D01*
X107251500Y48021875D01*
X107251500Y47894875D01*
X107136914Y47894875D01*
X107143285Y48129031D01*
G37*
X107143285Y48129031D02*
X107147432Y48236795D01*
X107154197Y48318282D01*
X107165089Y48378942D01*
X107181615Y48424227D01*
X107205284Y48459591D01*
X107237603Y48490484D01*
X107244855Y48496306D01*
X107309835Y48530549D01*
X107382265Y48542100D01*
X107453639Y48532047D01*
X107515453Y48501478D01*
X107556406Y48456441D01*
X107589305Y48400680D01*
X107622809Y48459656D01*
X107674252Y48523593D01*
X107742125Y48561520D01*
X107828417Y48574397D01*
X107858932Y48573471D01*
X107941735Y48559325D01*
X108003613Y48526243D01*
X108052015Y48469526D01*
X108067973Y48441662D01*
X108081076Y48412691D01*
X108090547Y48379589D01*
X108097144Y48336303D01*
X108101628Y48276778D01*
X108104757Y48194957D01*
X108106206Y48136968D01*
X108111599Y47894875D01*
X107648375Y47894875D01*
X107648375Y48021875D01*
X108000515Y48021875D01*
X107995101Y48188237D01*
X107992089Y48263762D01*
X107987840Y48314762D01*
X107980722Y48348463D01*
X107969106Y48372088D01*
X107951365Y48392860D01*
X107948238Y48396013D01*
X107895784Y48428898D01*
X107832838Y48440275D01*
X107768399Y48431745D01*
X107711467Y48404906D01*
X107671038Y48361355D01*
X107663541Y48345448D01*
X107656642Y48311680D01*
X107651385Y48256204D01*
X107648607Y48189049D01*
X107648375Y48163716D01*
X107648375Y48021875D01*
X107648375Y47894875D01*
X107251500Y47894875D01*
X107251500Y48021875D01*
X107540225Y48021875D01*
X107534768Y48178996D01*
X107530940Y48256324D01*
X107524991Y48308788D01*
X107515631Y48343264D01*
X107501572Y48366626D01*
X107499070Y48369496D01*
X107459820Y48393018D01*
X107404251Y48403631D01*
X107345788Y48399535D01*
X107323648Y48393013D01*
X107288970Y48364402D01*
X107265743Y48308894D01*
X107253609Y48225323D01*
X107251500Y48157600D01*
X107251500Y48021875D01*
X107251500Y47894875D01*
X107136914Y47894875D01*
X107143285Y48129031D01*
G36*
X106155080Y50753232D02*
G01*
X106172727Y50912632D01*
X106200146Y51074002D01*
X106213696Y51137343D01*
X106238044Y51244500D01*
X106646032Y51244500D01*
X106600394Y51119449D01*
X106557497Y50982551D01*
X106527360Y50844893D01*
X106510428Y50712196D01*
X106507149Y50590180D01*
X106517971Y50484567D01*
X106543339Y50401077D01*
X106544125Y50399403D01*
X106585787Y50342448D01*
X106641336Y50308099D01*
X106703416Y50297141D01*
X106764672Y50310360D01*
X106817748Y50348542D01*
X106833410Y50368512D01*
X106854186Y50410312D01*
X106875657Y50470918D01*
X106893433Y50537797D01*
X106894584Y50543137D01*
X106931638Y50710502D01*
X106966415Y50849525D01*
X107000071Y50963426D01*
X107033762Y51055427D01*
X107068646Y51128747D01*
X107105879Y51186609D01*
X107139567Y51225375D01*
X107231756Y51295489D01*
X107342656Y51341618D01*
X107469278Y51362955D01*
X107608631Y51358689D01*
X107624782Y51356599D01*
X107761245Y51325215D01*
X107875592Y51271622D01*
X107968692Y51194980D01*
X108041415Y51094449D01*
X108094629Y50969189D01*
X108117840Y50880476D01*
X108125867Y50824341D01*
X108132087Y50745642D01*
X108136296Y50653527D01*
X108138289Y50557140D01*
X108137863Y50465628D01*
X108134813Y50388138D01*
X108129925Y50339625D01*
X108115574Y50261498D01*
X108095287Y50167261D01*
X108072333Y50071050D01*
X108049978Y49986998D01*
X108042755Y49962593D01*
X108012224Y49863375D01*
X107804788Y49863375D01*
X107716711Y49864076D01*
X107656655Y49866427D01*
X107620917Y49870795D01*
X107605793Y49877548D01*
X107605193Y49883218D01*
X107614451Y49905925D01*
X107632743Y49950268D01*
X107656896Y50008574D01*
X107670437Y50041180D01*
X107725237Y50189531D01*
X107759933Y50325795D01*
X107776809Y50460397D01*
X107779326Y50538062D01*
X107772597Y50658707D01*
X107751081Y50751999D01*
X107714113Y50819019D01*
X107661029Y50860852D01*
X107591164Y50878580D01*
X107569852Y50879375D01*
X107507057Y50872456D01*
X107464068Y50849887D01*
X107461037Y50847164D01*
X107439894Y50825872D01*
X107421901Y50802489D01*
X107405635Y50772930D01*
X107389672Y50733112D01*
X107372589Y50678948D01*
X107352963Y50606356D01*
X107329368Y50511250D01*
X107300383Y50389546D01*
X107297971Y50379312D01*
X107252035Y50223491D01*
X107193747Y50096321D01*
X107121873Y49996716D01*
X107035181Y49923589D01*
X106932438Y49875852D01*
X106812412Y49852417D01*
X106698562Y49850656D01*
X106562890Y49869049D01*
X106447903Y49910406D01*
X106351826Y49976097D01*
X106272888Y50067494D01*
X106209314Y50185967D01*
X106185728Y50247094D01*
X106162529Y50342733D01*
X106149806Y50462694D01*
X106147381Y50601390D01*
X106155080Y50753232D01*
G37*
X106155080Y50753232D02*
X106172727Y50912632D01*
X106200146Y51074002D01*
X106213696Y51137343D01*
X106238044Y51244500D01*
X106646032Y51244500D01*
X106600394Y51119449D01*
X106557497Y50982551D01*
X106527360Y50844893D01*
X106510428Y50712196D01*
X106507149Y50590180D01*
X106517971Y50484567D01*
X106543339Y50401077D01*
X106544125Y50399403D01*
X106585787Y50342448D01*
X106641336Y50308099D01*
X106703416Y50297141D01*
X106764672Y50310360D01*
X106817748Y50348542D01*
X106833410Y50368512D01*
X106854186Y50410312D01*
X106875657Y50470918D01*
X106893433Y50537797D01*
X106894584Y50543137D01*
X106931638Y50710502D01*
X106966415Y50849525D01*
X107000071Y50963426D01*
X107033762Y51055427D01*
X107068646Y51128747D01*
X107105879Y51186609D01*
X107139567Y51225375D01*
X107231756Y51295489D01*
X107342656Y51341618D01*
X107469278Y51362955D01*
X107608631Y51358689D01*
X107624782Y51356599D01*
X107761245Y51325215D01*
X107875592Y51271622D01*
X107968692Y51194980D01*
X108041415Y51094449D01*
X108094629Y50969189D01*
X108117840Y50880476D01*
X108125867Y50824341D01*
X108132087Y50745642D01*
X108136296Y50653527D01*
X108138289Y50557140D01*
X108137863Y50465628D01*
X108134813Y50388138D01*
X108129925Y50339625D01*
X108115574Y50261498D01*
X108095287Y50167261D01*
X108072333Y50071050D01*
X108049978Y49986998D01*
X108042755Y49962593D01*
X108012224Y49863375D01*
X107804788Y49863375D01*
X107716711Y49864076D01*
X107656655Y49866427D01*
X107620917Y49870795D01*
X107605793Y49877548D01*
X107605193Y49883218D01*
X107614451Y49905925D01*
X107632743Y49950268D01*
X107656896Y50008574D01*
X107670437Y50041180D01*
X107725237Y50189531D01*
X107759933Y50325795D01*
X107776809Y50460397D01*
X107779326Y50538062D01*
X107772597Y50658707D01*
X107751081Y50751999D01*
X107714113Y50819019D01*
X107661029Y50860852D01*
X107591164Y50878580D01*
X107569852Y50879375D01*
X107507057Y50872456D01*
X107464068Y50849887D01*
X107461037Y50847164D01*
X107439894Y50825872D01*
X107421901Y50802489D01*
X107405635Y50772930D01*
X107389672Y50733112D01*
X107372589Y50678948D01*
X107352963Y50606356D01*
X107329368Y50511250D01*
X107300383Y50389546D01*
X107297971Y50379312D01*
X107252035Y50223491D01*
X107193747Y50096321D01*
X107121873Y49996716D01*
X107035181Y49923589D01*
X106932438Y49875852D01*
X106812412Y49852417D01*
X106698562Y49850656D01*
X106562890Y49869049D01*
X106447903Y49910406D01*
X106351826Y49976097D01*
X106272888Y50067494D01*
X106209314Y50185967D01*
X106185728Y50247094D01*
X106162529Y50342733D01*
X106149806Y50462694D01*
X106147381Y50601390D01*
X106155080Y50753232D01*
G36*
X106152156Y58697612D02*
G01*
X106161285Y58803582D01*
X106176520Y58889532D01*
X106178274Y58896250D01*
X106237107Y59061306D01*
X106318042Y59203578D01*
X106421034Y59323030D01*
X106546037Y59419628D01*
X106693007Y59493335D01*
X106861897Y59544118D01*
X107052664Y59571941D01*
X107053062Y59571973D01*
X107238881Y59573268D01*
X107414666Y59547256D01*
X107577876Y59495111D01*
X107725967Y59418004D01*
X107856397Y59317110D01*
X107966624Y59193599D01*
X108008784Y59131234D01*
X108066422Y59037854D01*
X108123304Y59091065D01*
X108157239Y59122428D01*
X108207989Y59168864D01*
X108268782Y59224192D01*
X108332843Y59282235D01*
X108334968Y59284156D01*
X108489750Y59424034D01*
X108489750Y58946267D01*
X108317332Y58792172D01*
X108144915Y58638078D01*
X108135628Y58493320D01*
X108110817Y58308860D01*
X108061678Y58143275D01*
X107988895Y57997517D01*
X107893150Y57872542D01*
X107775127Y57769303D01*
X107635509Y57688754D01*
X107530543Y57648058D01*
X107407524Y57618383D01*
X107266124Y57600710D01*
X107211552Y57598832D01*
X107211552Y58107536D01*
X107341149Y58122708D01*
X107461929Y58153322D01*
X107568072Y58199299D01*
X107653759Y58260559D01*
X107673083Y58280206D01*
X107735162Y58371660D01*
X107772508Y58477457D01*
X107784158Y58590891D01*
X107769147Y58705255D01*
X107744518Y58777187D01*
X107700143Y58847430D01*
X107632788Y58915416D01*
X107550816Y58973816D01*
X107480398Y59008682D01*
X107439953Y59023496D01*
X107401069Y59033849D01*
X107356757Y59040537D01*
X107300024Y59044357D01*
X107223878Y59046107D01*
X107148312Y59046544D01*
X107053011Y59046283D01*
X106982254Y59044482D01*
X106928843Y59040326D01*
X106885580Y59033003D01*
X106845267Y59021700D01*
X106807000Y59007999D01*
X106695535Y58951100D01*
X106608836Y58875067D01*
X106548056Y58781679D01*
X106514351Y58672713D01*
X106508874Y58549948D01*
X106508952Y58548845D01*
X106529196Y58435130D01*
X106573460Y58339674D01*
X106634952Y58266078D01*
X106721358Y58202852D01*
X106828040Y58155464D01*
X106949178Y58123835D01*
X107078955Y58107885D01*
X107211552Y58107536D01*
X107211552Y57598832D01*
X107117576Y57595596D01*
X106973112Y57603597D01*
X106886375Y57616160D01*
X106719304Y57662575D01*
X106570183Y57734735D01*
X106440552Y57831206D01*
X106331950Y57950552D01*
X106245918Y58091338D01*
X106183996Y58252129D01*
X106177083Y58277125D01*
X106161595Y58361378D01*
X106152291Y58466330D01*
X106149151Y58581802D01*
X106152156Y58697612D01*
G37*
X106152156Y58697612D02*
X106161285Y58803582D01*
X106176520Y58889532D01*
X106178274Y58896250D01*
X106237107Y59061306D01*
X106318042Y59203578D01*
X106421034Y59323030D01*
X106546037Y59419628D01*
X106693007Y59493335D01*
X106861897Y59544118D01*
X107052664Y59571941D01*
X107053062Y59571973D01*
X107238881Y59573268D01*
X107414666Y59547256D01*
X107577876Y59495111D01*
X107725967Y59418004D01*
X107856397Y59317110D01*
X107966624Y59193599D01*
X108008784Y59131234D01*
X108066422Y59037854D01*
X108123304Y59091065D01*
X108157239Y59122428D01*
X108207989Y59168864D01*
X108268782Y59224192D01*
X108332843Y59282235D01*
X108334968Y59284156D01*
X108489750Y59424034D01*
X108489750Y58946267D01*
X108317332Y58792172D01*
X108144915Y58638078D01*
X108135628Y58493320D01*
X108110817Y58308860D01*
X108061678Y58143275D01*
X107988895Y57997517D01*
X107893150Y57872542D01*
X107775127Y57769303D01*
X107635509Y57688754D01*
X107530543Y57648058D01*
X107407524Y57618383D01*
X107266124Y57600710D01*
X107211552Y57598832D01*
X107211552Y58107536D01*
X107341149Y58122708D01*
X107461929Y58153322D01*
X107568072Y58199299D01*
X107653759Y58260559D01*
X107673083Y58280206D01*
X107735162Y58371660D01*
X107772508Y58477457D01*
X107784158Y58590891D01*
X107769147Y58705255D01*
X107744518Y58777187D01*
X107700143Y58847430D01*
X107632788Y58915416D01*
X107550816Y58973816D01*
X107480398Y59008682D01*
X107439953Y59023496D01*
X107401069Y59033849D01*
X107356757Y59040537D01*
X107300024Y59044357D01*
X107223878Y59046107D01*
X107148312Y59046544D01*
X107053011Y59046283D01*
X106982254Y59044482D01*
X106928843Y59040326D01*
X106885580Y59033003D01*
X106845267Y59021700D01*
X106807000Y59007999D01*
X106695535Y58951100D01*
X106608836Y58875067D01*
X106548056Y58781679D01*
X106514351Y58672713D01*
X106508874Y58549948D01*
X106508952Y58548845D01*
X106529196Y58435130D01*
X106573460Y58339674D01*
X106634952Y58266078D01*
X106721358Y58202852D01*
X106828040Y58155464D01*
X106949178Y58123835D01*
X107078955Y58107885D01*
X107211552Y58107536D01*
X107211552Y57598832D01*
X107117576Y57595596D01*
X106973112Y57603597D01*
X106886375Y57616160D01*
X106719304Y57662575D01*
X106570183Y57734735D01*
X106440552Y57831206D01*
X106331950Y57950552D01*
X106245918Y58091338D01*
X106183996Y58252129D01*
X106177083Y58277125D01*
X106161595Y58361378D01*
X106152291Y58466330D01*
X106149151Y58581802D01*
X106152156Y58697612D01*
G36*
X106157735Y52854999D02*
G01*
X106182149Y53005822D01*
X106225048Y53138596D01*
X106288125Y53258264D01*
X106373074Y53369768D01*
X106394089Y53392864D01*
X106514067Y53498388D01*
X106653200Y53578852D01*
X106811635Y53634307D01*
X106989519Y53664801D01*
X107187001Y53670387D01*
X107202946Y53669789D01*
X107298328Y53664123D01*
X107374109Y53654902D01*
X107442406Y53640055D01*
X107515335Y53617507D01*
X107522076Y53615190D01*
X107676466Y53547741D01*
X107810997Y53459930D01*
X107922756Y53354097D01*
X108008828Y53232583D01*
X108016818Y53217953D01*
X108040169Y53178218D01*
X108059055Y53153520D01*
X108065281Y53149500D01*
X108080788Y53159595D01*
X108115194Y53187353D01*
X108163996Y53228981D01*
X108222689Y53280683D01*
X108247870Y53303285D01*
X108311986Y53361089D01*
X108370402Y53413668D01*
X108417730Y53456180D01*
X108448582Y53483780D01*
X108454031Y53488615D01*
X108489750Y53520159D01*
X108489718Y53283235D01*
X108489687Y53046312D01*
X108317554Y52892533D01*
X108145420Y52738755D01*
X108135187Y52590908D01*
X108113535Y52418718D01*
X108072919Y52268791D01*
X108011471Y52136639D01*
X107927326Y52017771D01*
X107871883Y51957616D01*
X107761598Y51863244D01*
X107640149Y51791287D01*
X107503127Y51739970D01*
X107346126Y51707518D01*
X107219750Y51694932D01*
X107140375Y51695324D01*
X107140375Y52221294D01*
X107262071Y52222806D01*
X107358396Y52228777D01*
X107435576Y52240559D01*
X107499838Y52259505D01*
X107557408Y52286966D01*
X107614417Y52324225D01*
X107690980Y52398393D01*
X107745107Y52490578D01*
X107775626Y52595225D01*
X107781368Y52706775D01*
X107761163Y52819671D01*
X107733723Y52890802D01*
X107701871Y52946067D01*
X107663987Y52995953D01*
X107643595Y53016371D01*
X107549006Y53077954D01*
X107434926Y53122710D01*
X107307508Y53150725D01*
X107172907Y53162090D01*
X107037277Y53156893D01*
X106906773Y53135223D01*
X106787548Y53097169D01*
X106685758Y53042820D01*
X106634952Y53001796D01*
X106567480Y52918663D01*
X106525901Y52821468D01*
X106508952Y52719029D01*
X106514573Y52596553D01*
X106548745Y52486582D01*
X106609890Y52391610D01*
X106696428Y52314131D01*
X106800000Y52259287D01*
X106839724Y52244665D01*
X106877749Y52234368D01*
X106920863Y52227638D01*
X106975853Y52223719D01*
X107049507Y52221852D01*
X107140375Y52221294D01*
X107140375Y51695324D01*
X107033298Y51695855D01*
X106858613Y51722219D01*
X106698112Y51772851D01*
X106554213Y51846582D01*
X106429334Y51942241D01*
X106325893Y52058656D01*
X106264633Y52157360D01*
X106217799Y52255867D01*
X106184942Y52349441D01*
X106164050Y52447284D01*
X106153112Y52558598D01*
X106150111Y52681187D01*
X106157735Y52854999D01*
G37*
X106157735Y52854999D02*
X106182149Y53005822D01*
X106225048Y53138596D01*
X106288125Y53258264D01*
X106373074Y53369768D01*
X106394089Y53392864D01*
X106514067Y53498388D01*
X106653200Y53578852D01*
X106811635Y53634307D01*
X106989519Y53664801D01*
X107187001Y53670387D01*
X107202946Y53669789D01*
X107298328Y53664123D01*
X107374109Y53654902D01*
X107442406Y53640055D01*
X107515335Y53617507D01*
X107522076Y53615190D01*
X107676466Y53547741D01*
X107810997Y53459930D01*
X107922756Y53354097D01*
X108008828Y53232583D01*
X108016818Y53217953D01*
X108040169Y53178218D01*
X108059055Y53153520D01*
X108065281Y53149500D01*
X108080788Y53159595D01*
X108115194Y53187353D01*
X108163996Y53228981D01*
X108222689Y53280683D01*
X108247870Y53303285D01*
X108311986Y53361089D01*
X108370402Y53413668D01*
X108417730Y53456180D01*
X108448582Y53483780D01*
X108454031Y53488615D01*
X108489750Y53520159D01*
X108489718Y53283235D01*
X108489687Y53046312D01*
X108317554Y52892533D01*
X108145420Y52738755D01*
X108135187Y52590908D01*
X108113535Y52418718D01*
X108072919Y52268791D01*
X108011471Y52136639D01*
X107927326Y52017771D01*
X107871883Y51957616D01*
X107761598Y51863244D01*
X107640149Y51791287D01*
X107503127Y51739970D01*
X107346126Y51707518D01*
X107219750Y51694932D01*
X107140375Y51695324D01*
X107140375Y52221294D01*
X107262071Y52222806D01*
X107358396Y52228777D01*
X107435576Y52240559D01*
X107499838Y52259505D01*
X107557408Y52286966D01*
X107614417Y52324225D01*
X107690980Y52398393D01*
X107745107Y52490578D01*
X107775626Y52595225D01*
X107781368Y52706775D01*
X107761163Y52819671D01*
X107733723Y52890802D01*
X107701871Y52946067D01*
X107663987Y52995953D01*
X107643595Y53016371D01*
X107549006Y53077954D01*
X107434926Y53122710D01*
X107307508Y53150725D01*
X107172907Y53162090D01*
X107037277Y53156893D01*
X106906773Y53135223D01*
X106787548Y53097169D01*
X106685758Y53042820D01*
X106634952Y53001796D01*
X106567480Y52918663D01*
X106525901Y52821468D01*
X106508952Y52719029D01*
X106514573Y52596553D01*
X106548745Y52486582D01*
X106609890Y52391610D01*
X106696428Y52314131D01*
X106800000Y52259287D01*
X106839724Y52244665D01*
X106877749Y52234368D01*
X106920863Y52227638D01*
X106975853Y52223719D01*
X107049507Y52221852D01*
X107140375Y52221294D01*
X107140375Y51695324D01*
X107033298Y51695855D01*
X106858613Y51722219D01*
X106698112Y51772851D01*
X106554213Y51846582D01*
X106429334Y51942241D01*
X106325893Y52058656D01*
X106264633Y52157360D01*
X106217799Y52255867D01*
X106184942Y52349441D01*
X106164050Y52447284D01*
X106153112Y52558598D01*
X106150111Y52681187D01*
X106157735Y52854999D01*
G36*
X109339062Y52808187D02*
G01*
X109390656Y52813162D01*
X109442250Y52818136D01*
X109442250Y52466875D01*
X109330050Y52466875D01*
X109339062Y52808187D01*
G37*
X109339062Y52808187D02*
X109390656Y52813162D01*
X109442250Y52818136D01*
X109442250Y52466875D01*
X109330050Y52466875D01*
X109339062Y52808187D01*
G36*
X109442250Y50292000D02*
G01*
X109442250Y49940738D01*
X109390656Y49945712D01*
X109339062Y49950687D01*
X109334556Y50121343D01*
X109330050Y50292000D01*
X109442250Y50292000D01*
G37*
X109442250Y50292000D02*
X109442250Y49940738D01*
X109390656Y49945712D01*
X109339062Y49950687D01*
X109334556Y50121343D01*
X109330050Y50292000D01*
X109442250Y50292000D01*
G36*
X108790332Y60024518D02*
G01*
X108818822Y60101743D01*
X108827232Y60115684D01*
X108886395Y60178258D01*
X108961670Y60216721D01*
X109046952Y60229643D01*
X109136137Y60215596D01*
X109179858Y60198219D01*
X109212981Y60176808D01*
X109263402Y60137515D01*
X109325830Y60084772D01*
X109394976Y60023009D01*
X109446808Y59974628D01*
X109648625Y59782567D01*
X109648625Y60229750D01*
X109759750Y60229750D01*
X109759750Y59626500D01*
X109701789Y59626500D01*
X109679512Y59628193D01*
X109657218Y59635265D01*
X109631003Y59650707D01*
X109596966Y59677508D01*
X109551206Y59718658D01*
X109489820Y59777146D01*
X109432714Y59832692D01*
X109336252Y59924782D01*
X109257152Y59994938D01*
X109192087Y60045308D01*
X109137729Y60078044D01*
X109090753Y60095294D01*
X109047831Y60099209D01*
X109024593Y60096428D01*
X108960519Y60070282D01*
X108915715Y60021693D01*
X108891093Y59954122D01*
X108887566Y59871031D01*
X108906045Y59775882D01*
X108925556Y59720558D01*
X108964487Y59624748D01*
X108898340Y59629592D01*
X108861963Y59633444D01*
X108839602Y59643199D01*
X108824231Y59666207D01*
X108808821Y59709815D01*
X108802620Y59729687D01*
X108781645Y59829299D01*
X108777745Y59930640D01*
X108790332Y60024518D01*
G37*
X108790332Y60024518D02*
X108818822Y60101743D01*
X108827232Y60115684D01*
X108886395Y60178258D01*
X108961670Y60216721D01*
X109046952Y60229643D01*
X109136137Y60215596D01*
X109179858Y60198219D01*
X109212981Y60176808D01*
X109263402Y60137515D01*
X109325830Y60084772D01*
X109394976Y60023009D01*
X109446808Y59974628D01*
X109648625Y59782567D01*
X109648625Y60229750D01*
X109759750Y60229750D01*
X109759750Y59626500D01*
X109701789Y59626500D01*
X109679512Y59628193D01*
X109657218Y59635265D01*
X109631003Y59650707D01*
X109596966Y59677508D01*
X109551206Y59718658D01*
X109489820Y59777146D01*
X109432714Y59832692D01*
X109336252Y59924782D01*
X109257152Y59994938D01*
X109192087Y60045308D01*
X109137729Y60078044D01*
X109090753Y60095294D01*
X109047831Y60099209D01*
X109024593Y60096428D01*
X108960519Y60070282D01*
X108915715Y60021693D01*
X108891093Y59954122D01*
X108887566Y59871031D01*
X108906045Y59775882D01*
X108925556Y59720558D01*
X108964487Y59624748D01*
X108898340Y59629592D01*
X108861963Y59633444D01*
X108839602Y59643199D01*
X108824231Y59666207D01*
X108808821Y59709815D01*
X108802620Y59729687D01*
X108781645Y59829299D01*
X108777745Y59930640D01*
X108790332Y60024518D01*
G36*
X108795727Y57957706D02*
G01*
X108833406Y58036630D01*
X108888552Y58096880D01*
X108959439Y58135132D01*
X109044345Y58148062D01*
X109066638Y58147027D01*
X109111287Y58140481D01*
X109154440Y58126779D01*
X109200103Y58103196D01*
X109252283Y58067008D01*
X109314985Y58015491D01*
X109392214Y57945919D01*
X109470031Y57872691D01*
X109648625Y57702637D01*
X109648625Y58150125D01*
X109759750Y58150125D01*
X109759750Y57546875D01*
X109702386Y57546875D01*
X109680158Y57548666D01*
X109657618Y57556021D01*
X109630856Y57571911D01*
X109595961Y57599309D01*
X109549023Y57641186D01*
X109486133Y57700514D01*
X109433063Y57751566D01*
X109353127Y57826753D01*
X109279216Y57892473D01*
X109215814Y57944947D01*
X109167405Y57980393D01*
X109148592Y57991360D01*
X109071009Y58016556D01*
X109003537Y58011808D01*
X108945405Y57977000D01*
X108927269Y57957867D01*
X108895957Y57897194D01*
X108885738Y57818406D01*
X108896647Y57727148D01*
X108925259Y57637313D01*
X108963140Y57545189D01*
X108897579Y57550000D01*
X108860208Y57554194D01*
X108837729Y57564975D01*
X108822345Y57590081D01*
X108806253Y57637252D01*
X108804729Y57642125D01*
X108779664Y57757129D01*
X108777238Y57863431D01*
X108795727Y57957706D01*
G37*
X108795727Y57957706D02*
X108833406Y58036630D01*
X108888552Y58096880D01*
X108959439Y58135132D01*
X109044345Y58148062D01*
X109066638Y58147027D01*
X109111287Y58140481D01*
X109154440Y58126779D01*
X109200103Y58103196D01*
X109252283Y58067008D01*
X109314985Y58015491D01*
X109392214Y57945919D01*
X109470031Y57872691D01*
X109648625Y57702637D01*
X109648625Y58150125D01*
X109759750Y58150125D01*
X109759750Y57546875D01*
X109702386Y57546875D01*
X109680158Y57548666D01*
X109657618Y57556021D01*
X109630856Y57571911D01*
X109595961Y57599309D01*
X109549023Y57641186D01*
X109486133Y57700514D01*
X109433063Y57751566D01*
X109353127Y57826753D01*
X109279216Y57892473D01*
X109215814Y57944947D01*
X109167405Y57980393D01*
X109148592Y57991360D01*
X109071009Y58016556D01*
X109003537Y58011808D01*
X108945405Y57977000D01*
X108927269Y57957867D01*
X108895957Y57897194D01*
X108885738Y57818406D01*
X108896647Y57727148D01*
X108925259Y57637313D01*
X108963140Y57545189D01*
X108897579Y57550000D01*
X108860208Y57554194D01*
X108837729Y57564975D01*
X108822345Y57590081D01*
X108806253Y57637252D01*
X108804729Y57642125D01*
X108779664Y57757129D01*
X108777238Y57863431D01*
X108795727Y57957706D01*
G36*
X109263284Y54844330D02*
G01*
X109378996Y54887953D01*
X109485189Y54927716D01*
X109578225Y54962277D01*
X109654465Y54990296D01*
X109710270Y55010430D01*
X109742001Y55021340D01*
X109747843Y55022924D01*
X109755359Y55008730D01*
X109759481Y54973563D01*
X109759750Y54960390D01*
X109758212Y54924843D01*
X109748823Y54902716D01*
X109724422Y54886176D01*
X109677844Y54867388D01*
X109673084Y54865605D01*
X109617716Y54845743D01*
X109568451Y54829504D01*
X109546084Y54823056D01*
X109505750Y54812933D01*
X109505750Y54374500D01*
X109581156Y54346802D01*
X109656355Y54319101D01*
X109706825Y54299070D01*
X109737483Y54283021D01*
X109753249Y54267264D01*
X109759042Y54248112D01*
X109759779Y54221874D01*
X109759750Y54212865D01*
X109757697Y54171732D01*
X109749281Y54155337D01*
X109731968Y54156524D01*
X109710597Y54164287D01*
X109663463Y54181913D01*
X109594460Y54207929D01*
X109507482Y54240862D01*
X109406424Y54279240D01*
X109384254Y54287680D01*
X109384254Y54419500D01*
X109388439Y54434300D01*
X109391816Y54474410D01*
X109393998Y54533392D01*
X109394625Y54592479D01*
X109394625Y54765458D01*
X109176343Y54685361D01*
X109098194Y54656277D01*
X109030687Y54630388D01*
X108979455Y54609910D01*
X108950129Y54597064D01*
X108945725Y54594501D01*
X108956291Y54586528D01*
X108990541Y54570012D01*
X109042369Y54547390D01*
X109105669Y54521100D01*
X109174333Y54493577D01*
X109242254Y54467259D01*
X109303327Y54444584D01*
X109351445Y54427987D01*
X109380501Y54419905D01*
X109384254Y54419500D01*
X109384254Y54287680D01*
X109295180Y54321590D01*
X109251750Y54338150D01*
X108799312Y54510736D01*
X108794972Y54588149D01*
X108790631Y54665562D01*
X109263284Y54844330D01*
G37*
X109263284Y54844330D02*
X109378996Y54887953D01*
X109485189Y54927716D01*
X109578225Y54962277D01*
X109654465Y54990296D01*
X109710270Y55010430D01*
X109742001Y55021340D01*
X109747843Y55022924D01*
X109755359Y55008730D01*
X109759481Y54973563D01*
X109759750Y54960390D01*
X109758212Y54924843D01*
X109748823Y54902716D01*
X109724422Y54886176D01*
X109677844Y54867388D01*
X109673084Y54865605D01*
X109617716Y54845743D01*
X109568451Y54829504D01*
X109546084Y54823056D01*
X109505750Y54812933D01*
X109505750Y54374500D01*
X109581156Y54346802D01*
X109656355Y54319101D01*
X109706825Y54299070D01*
X109737483Y54283021D01*
X109753249Y54267264D01*
X109759042Y54248112D01*
X109759779Y54221874D01*
X109759750Y54212865D01*
X109757697Y54171732D01*
X109749281Y54155337D01*
X109731968Y54156524D01*
X109710597Y54164287D01*
X109663463Y54181913D01*
X109594460Y54207929D01*
X109507482Y54240862D01*
X109406424Y54279240D01*
X109384254Y54287680D01*
X109384254Y54419500D01*
X109388439Y54434300D01*
X109391816Y54474410D01*
X109393998Y54533392D01*
X109394625Y54592479D01*
X109394625Y54765458D01*
X109176343Y54685361D01*
X109098194Y54656277D01*
X109030687Y54630388D01*
X108979455Y54609910D01*
X108950129Y54597064D01*
X108945725Y54594501D01*
X108956291Y54586528D01*
X108990541Y54570012D01*
X109042369Y54547390D01*
X109105669Y54521100D01*
X109174333Y54493577D01*
X109242254Y54467259D01*
X109303327Y54444584D01*
X109351445Y54427987D01*
X109380501Y54419905D01*
X109384254Y54419500D01*
X109384254Y54287680D01*
X109295180Y54321590D01*
X109251750Y54338150D01*
X108799312Y54510736D01*
X108794972Y54588149D01*
X108790631Y54665562D01*
X109263284Y54844330D01*
G36*
X108981875Y51816000D02*
G01*
X109049519Y51862092D01*
X109106545Y51902423D01*
X109148270Y51933566D01*
X109170016Y51952095D01*
X109172071Y51955219D01*
X109159406Y51967618D01*
X109124801Y51993823D01*
X109072996Y52030431D01*
X109008731Y52074037D01*
X108981571Y52092035D01*
X108791375Y52217259D01*
X108791375Y52356258D01*
X109033468Y52193285D01*
X109275562Y52030312D01*
X109513687Y52022375D01*
X109751812Y52014437D01*
X109756536Y51958307D01*
X109756770Y51917853D01*
X109751140Y51892425D01*
X109749922Y51890838D01*
X109730780Y51886799D01*
X109685861Y51883394D01*
X109621135Y51880906D01*
X109542574Y51879617D01*
X109509589Y51879500D01*
X109280595Y51879500D01*
X109035985Y51712070D01*
X108791375Y51544641D01*
X108791375Y51688373D01*
X108981875Y51816000D01*
G37*
X108981875Y51816000D02*
X109049519Y51862092D01*
X109106545Y51902423D01*
X109148270Y51933566D01*
X109170016Y51952095D01*
X109172071Y51955219D01*
X109159406Y51967618D01*
X109124801Y51993823D01*
X109072996Y52030431D01*
X109008731Y52074037D01*
X108981571Y52092035D01*
X108791375Y52217259D01*
X108791375Y52356258D01*
X109033468Y52193285D01*
X109275562Y52030312D01*
X109513687Y52022375D01*
X109751812Y52014437D01*
X109756536Y51958307D01*
X109756770Y51917853D01*
X109751140Y51892425D01*
X109749922Y51890838D01*
X109730780Y51886799D01*
X109685861Y51883394D01*
X109621135Y51880906D01*
X109542574Y51879617D01*
X109509589Y51879500D01*
X109280595Y51879500D01*
X109035985Y51712070D01*
X108791375Y51544641D01*
X108791375Y51688373D01*
X108981875Y51816000D01*
G36*
X108793918Y50883343D02*
G01*
X108797631Y50993853D01*
X108804378Y51077626D01*
X108815962Y51139651D01*
X108834185Y51184919D01*
X108860850Y51218417D01*
X108897760Y51245136D01*
X108930957Y51262623D01*
X109007490Y51284947D01*
X109083015Y51281052D01*
X109150260Y51252994D01*
X109201953Y51202830D01*
X109213955Y51182577D01*
X109226116Y51161972D01*
X109237005Y51161747D01*
X109253596Y51184808D01*
X109264928Y51203808D01*
X109315081Y51267802D01*
X109377201Y51305832D01*
X109456566Y51320490D01*
X109501505Y51320033D01*
X109561799Y51314245D01*
X109602706Y51302324D01*
X109636538Y51279928D01*
X109650304Y51267577D01*
X109685129Y51230793D01*
X109710997Y51191557D01*
X109729436Y51144210D01*
X109741976Y51083095D01*
X109750144Y51002555D01*
X109755468Y50896932D01*
X109756222Y50875406D01*
X109764064Y50641250D01*
X109299375Y50641250D01*
X109299375Y50768250D01*
X109648625Y50768250D01*
X109648625Y50903697D01*
X109645576Y50984239D01*
X109637205Y51051680D01*
X109626156Y51092919D01*
X109590804Y51146777D01*
X109537777Y51176797D01*
X109470031Y51185329D01*
X109395055Y51174195D01*
X109340966Y51141696D01*
X109317003Y51107071D01*
X109309206Y51074382D01*
X109303174Y51019450D01*
X109299794Y50951768D01*
X109299375Y50918315D01*
X109299375Y50768250D01*
X109299375Y50641250D01*
X108902500Y50641250D01*
X108902500Y50768250D01*
X109188250Y50768250D01*
X109188250Y50892881D01*
X109186001Y50960192D01*
X109180073Y51021583D01*
X109171695Y51064803D01*
X109170705Y51067841D01*
X109145365Y51114318D01*
X109105363Y51140075D01*
X109043899Y51149094D01*
X109031695Y51149250D01*
X108981894Y51143354D01*
X108947532Y51121377D01*
X108935402Y51107421D01*
X108919404Y51082440D01*
X108909510Y51051824D01*
X108904357Y51007676D01*
X108902579Y50942097D01*
X108902500Y50916921D01*
X108902500Y50768250D01*
X108902500Y50641250D01*
X108788525Y50641250D01*
X108793918Y50883343D01*
G37*
X108793918Y50883343D02*
X108797631Y50993853D01*
X108804378Y51077626D01*
X108815962Y51139651D01*
X108834185Y51184919D01*
X108860850Y51218417D01*
X108897760Y51245136D01*
X108930957Y51262623D01*
X109007490Y51284947D01*
X109083015Y51281052D01*
X109150260Y51252994D01*
X109201953Y51202830D01*
X109213955Y51182577D01*
X109226116Y51161972D01*
X109237005Y51161747D01*
X109253596Y51184808D01*
X109264928Y51203808D01*
X109315081Y51267802D01*
X109377201Y51305832D01*
X109456566Y51320490D01*
X109501505Y51320033D01*
X109561799Y51314245D01*
X109602706Y51302324D01*
X109636538Y51279928D01*
X109650304Y51267577D01*
X109685129Y51230793D01*
X109710997Y51191557D01*
X109729436Y51144210D01*
X109741976Y51083095D01*
X109750144Y51002555D01*
X109755468Y50896932D01*
X109756222Y50875406D01*
X109764064Y50641250D01*
X109299375Y50641250D01*
X109299375Y50768250D01*
X109648625Y50768250D01*
X109648625Y50903697D01*
X109645576Y50984239D01*
X109637205Y51051680D01*
X109626156Y51092919D01*
X109590804Y51146777D01*
X109537777Y51176797D01*
X109470031Y51185329D01*
X109395055Y51174195D01*
X109340966Y51141696D01*
X109317003Y51107071D01*
X109309206Y51074382D01*
X109303174Y51019450D01*
X109299794Y50951768D01*
X109299375Y50918315D01*
X109299375Y50768250D01*
X109299375Y50641250D01*
X108902500Y50641250D01*
X108902500Y50768250D01*
X109188250Y50768250D01*
X109188250Y50892881D01*
X109186001Y50960192D01*
X109180073Y51021583D01*
X109171695Y51064803D01*
X109170705Y51067841D01*
X109145365Y51114318D01*
X109105363Y51140075D01*
X109043899Y51149094D01*
X109031695Y51149250D01*
X108981894Y51143354D01*
X108947532Y51121377D01*
X108935402Y51107421D01*
X108919404Y51082440D01*
X108909510Y51051824D01*
X108904357Y51007676D01*
X108902579Y50942097D01*
X108902500Y50916921D01*
X108902500Y50768250D01*
X108902500Y50641250D01*
X108788525Y50641250D01*
X108793918Y50883343D01*
G36*
X108783937Y61067557D02*
G01*
X108815471Y61148086D01*
X108874142Y61213233D01*
X108929129Y61249368D01*
X109027808Y61288784D01*
X109145343Y61312959D01*
X109272527Y61321500D01*
X109400153Y61314014D01*
X109519012Y61290110D01*
X109560866Y61276303D01*
X109651305Y61227376D01*
X109718067Y61159273D01*
X109759156Y61075954D01*
X109772578Y60981378D01*
X109757976Y60885025D01*
X109727728Y60826922D01*
X109675118Y60769984D01*
X109608787Y60722231D01*
X109555959Y60697525D01*
X109487508Y60680410D01*
X109398505Y60668321D01*
X109318715Y60663045D01*
X109318715Y60789689D01*
X109419951Y60798037D01*
X109507789Y60816500D01*
X109535860Y60826258D01*
X109584880Y60852165D01*
X109625469Y60884060D01*
X109633047Y60892545D01*
X109659050Y60948873D01*
X109662537Y61014161D01*
X109643541Y61075017D01*
X109632548Y61091587D01*
X109579628Y61134367D01*
X109498585Y61164732D01*
X109390661Y61182350D01*
X109275562Y61187051D01*
X109160691Y61183147D01*
X109071369Y61171325D01*
X109002104Y61150336D01*
X108947404Y61118933D01*
X108936138Y61109965D01*
X108892072Y61055025D01*
X108875686Y60992776D01*
X108886430Y60930437D01*
X108923752Y60875227D01*
X108955966Y60850170D01*
X109022706Y60821695D01*
X109111283Y60801881D01*
X109212889Y60791091D01*
X109318715Y60789689D01*
X109318715Y60663045D01*
X109299832Y60661796D01*
X109202369Y60661373D01*
X109116997Y60667593D01*
X109079609Y60673935D01*
X108967550Y60707699D01*
X108883366Y60754056D01*
X108824991Y60815031D01*
X108790360Y60892647D01*
X108778283Y60969318D01*
X108783937Y61067557D01*
G37*
X108783937Y61067557D02*
X108815471Y61148086D01*
X108874142Y61213233D01*
X108929129Y61249368D01*
X109027808Y61288784D01*
X109145343Y61312959D01*
X109272527Y61321500D01*
X109400153Y61314014D01*
X109519012Y61290110D01*
X109560866Y61276303D01*
X109651305Y61227376D01*
X109718067Y61159273D01*
X109759156Y61075954D01*
X109772578Y60981378D01*
X109757976Y60885025D01*
X109727728Y60826922D01*
X109675118Y60769984D01*
X109608787Y60722231D01*
X109555959Y60697525D01*
X109487508Y60680410D01*
X109398505Y60668321D01*
X109318715Y60663045D01*
X109318715Y60789689D01*
X109419951Y60798037D01*
X109507789Y60816500D01*
X109535860Y60826258D01*
X109584880Y60852165D01*
X109625469Y60884060D01*
X109633047Y60892545D01*
X109659050Y60948873D01*
X109662537Y61014161D01*
X109643541Y61075017D01*
X109632548Y61091587D01*
X109579628Y61134367D01*
X109498585Y61164732D01*
X109390661Y61182350D01*
X109275562Y61187051D01*
X109160691Y61183147D01*
X109071369Y61171325D01*
X109002104Y61150336D01*
X108947404Y61118933D01*
X108936138Y61109965D01*
X108892072Y61055025D01*
X108875686Y60992776D01*
X108886430Y60930437D01*
X108923752Y60875227D01*
X108955966Y60850170D01*
X109022706Y60821695D01*
X109111283Y60801881D01*
X109212889Y60791091D01*
X109318715Y60789689D01*
X109318715Y60663045D01*
X109299832Y60661796D01*
X109202369Y60661373D01*
X109116997Y60667593D01*
X109079609Y60673935D01*
X108967550Y60707699D01*
X108883366Y60754056D01*
X108824991Y60815031D01*
X108790360Y60892647D01*
X108778283Y60969318D01*
X108783937Y61067557D01*
G36*
X108784127Y58984985D02*
G01*
X108814090Y59064852D01*
X108870366Y59128780D01*
X108935472Y59170444D01*
X109038937Y59210661D01*
X109154651Y59234414D01*
X109275807Y59242148D01*
X109395594Y59234308D01*
X109507204Y59211340D01*
X109603827Y59173688D01*
X109678586Y59121863D01*
X109738269Y59044706D01*
X109768748Y58956135D01*
X109769441Y58858478D01*
X109757890Y58805070D01*
X109721377Y58734405D01*
X109657188Y58673850D01*
X109568500Y58626026D01*
X109520201Y58608978D01*
X109418070Y58587309D01*
X109341767Y58581227D01*
X109341767Y58708558D01*
X109457525Y58722178D01*
X109548818Y58750751D01*
X109614486Y58793768D01*
X109653367Y58850722D01*
X109664500Y58912105D01*
X109658749Y58964126D01*
X109636557Y59003110D01*
X109617338Y59022816D01*
X109572032Y59054097D01*
X109514704Y59079950D01*
X109494307Y59086146D01*
X109432384Y59096442D01*
X109350895Y59102610D01*
X109260418Y59104615D01*
X109171533Y59102425D01*
X109094819Y59096008D01*
X109048269Y59087529D01*
X108970537Y59054943D01*
X108915252Y59008359D01*
X108883276Y58952910D01*
X108875472Y58893729D01*
X108892702Y58835949D01*
X108935829Y58784704D01*
X108991702Y58750903D01*
X109057560Y58730344D01*
X109145548Y58715578D01*
X109202708Y58710398D01*
X109341767Y58708558D01*
X109341767Y58581227D01*
X109303063Y58578141D01*
X109185281Y58581103D01*
X109074827Y58595826D01*
X108981804Y58621938D01*
X108964301Y58629349D01*
X108878873Y58679585D01*
X108821368Y58741030D01*
X108788734Y58817908D01*
X108778862Y58886249D01*
X108784127Y58984985D01*
G37*
X108784127Y58984985D02*
X108814090Y59064852D01*
X108870366Y59128780D01*
X108935472Y59170444D01*
X109038937Y59210661D01*
X109154651Y59234414D01*
X109275807Y59242148D01*
X109395594Y59234308D01*
X109507204Y59211340D01*
X109603827Y59173688D01*
X109678586Y59121863D01*
X109738269Y59044706D01*
X109768748Y58956135D01*
X109769441Y58858478D01*
X109757890Y58805070D01*
X109721377Y58734405D01*
X109657188Y58673850D01*
X109568500Y58626026D01*
X109520201Y58608978D01*
X109418070Y58587309D01*
X109341767Y58581227D01*
X109341767Y58708558D01*
X109457525Y58722178D01*
X109548818Y58750751D01*
X109614486Y58793768D01*
X109653367Y58850722D01*
X109664500Y58912105D01*
X109658749Y58964126D01*
X109636557Y59003110D01*
X109617338Y59022816D01*
X109572032Y59054097D01*
X109514704Y59079950D01*
X109494307Y59086146D01*
X109432384Y59096442D01*
X109350895Y59102610D01*
X109260418Y59104615D01*
X109171533Y59102425D01*
X109094819Y59096008D01*
X109048269Y59087529D01*
X108970537Y59054943D01*
X108915252Y59008359D01*
X108883276Y58952910D01*
X108875472Y58893729D01*
X108892702Y58835949D01*
X108935829Y58784704D01*
X108991702Y58750903D01*
X109057560Y58730344D01*
X109145548Y58715578D01*
X109202708Y58710398D01*
X109341767Y58708558D01*
X109341767Y58581227D01*
X109303063Y58578141D01*
X109185281Y58581103D01*
X109074827Y58595826D01*
X108981804Y58621938D01*
X108964301Y58629349D01*
X108878873Y58679585D01*
X108821368Y58741030D01*
X108788734Y58817908D01*
X108778862Y58886249D01*
X108784127Y58984985D01*
G36*
X108779878Y53571177D02*
G01*
X108786938Y53652203D01*
X108795700Y53697187D01*
X108809585Y53743774D01*
X108824338Y53767894D01*
X108848594Y53777861D01*
X108883171Y53781422D01*
X108949249Y53786282D01*
X108924465Y53726966D01*
X108895607Y53635921D01*
X108882668Y53544162D01*
X108885290Y53458539D01*
X108903112Y53385900D01*
X108935775Y53333094D01*
X108945613Y53324266D01*
X108998315Y53298651D01*
X109056466Y53294126D01*
X109107956Y53310759D01*
X109123912Y53323287D01*
X109147267Y53358272D01*
X109167499Y53407484D01*
X109171737Y53422506D01*
X109196421Y53521073D01*
X109215834Y53594140D01*
X109232040Y53647098D01*
X109247101Y53685340D01*
X109263080Y53714257D01*
X109282040Y53739241D01*
X109300953Y53760247D01*
X109360596Y53824187D01*
X109619153Y53824187D01*
X109679634Y53759348D01*
X109728596Y53686150D01*
X109761191Y53593735D01*
X109775463Y53491176D01*
X109769457Y53387545D01*
X109764846Y53363812D01*
X109756605Y53330669D01*
X109743324Y53280785D01*
X109734494Y53248718D01*
X109720141Y53200907D01*
X109706268Y53176125D01*
X109684884Y53166804D01*
X109647995Y53165375D01*
X109646483Y53165375D01*
X109606001Y53167231D01*
X109590553Y53175125D01*
X109593523Y53192543D01*
X109593787Y53193156D01*
X109634745Y53306463D01*
X109656931Y53411245D01*
X109661113Y53504478D01*
X109648061Y53583140D01*
X109618542Y53644209D01*
X109573325Y53684663D01*
X109513179Y53701480D01*
X109465400Y53698110D01*
X109416466Y53679351D01*
X109378201Y53641105D01*
X109347900Y53579373D01*
X109322859Y53490152D01*
X109321890Y53485778D01*
X109290509Y53369503D01*
X109252689Y53282081D01*
X109206178Y53220890D01*
X109148722Y53183310D01*
X109078068Y53166721D01*
X109046434Y53165375D01*
X108955488Y53178339D01*
X108881883Y53217673D01*
X108828993Y53276779D01*
X108806564Y53314913D01*
X108792585Y53353061D01*
X108784598Y53401379D01*
X108780146Y53470024D01*
X108779719Y53480435D01*
X108779878Y53571177D01*
G37*
X108779878Y53571177D02*
X108786938Y53652203D01*
X108795700Y53697187D01*
X108809585Y53743774D01*
X108824338Y53767894D01*
X108848594Y53777861D01*
X108883171Y53781422D01*
X108949249Y53786282D01*
X108924465Y53726966D01*
X108895607Y53635921D01*
X108882668Y53544162D01*
X108885290Y53458539D01*
X108903112Y53385900D01*
X108935775Y53333094D01*
X108945613Y53324266D01*
X108998315Y53298651D01*
X109056466Y53294126D01*
X109107956Y53310759D01*
X109123912Y53323287D01*
X109147267Y53358272D01*
X109167499Y53407484D01*
X109171737Y53422506D01*
X109196421Y53521073D01*
X109215834Y53594140D01*
X109232040Y53647098D01*
X109247101Y53685340D01*
X109263080Y53714257D01*
X109282040Y53739241D01*
X109300953Y53760247D01*
X109360596Y53824187D01*
X109619153Y53824187D01*
X109679634Y53759348D01*
X109728596Y53686150D01*
X109761191Y53593735D01*
X109775463Y53491176D01*
X109769457Y53387545D01*
X109764846Y53363812D01*
X109756605Y53330669D01*
X109743324Y53280785D01*
X109734494Y53248718D01*
X109720141Y53200907D01*
X109706268Y53176125D01*
X109684884Y53166804D01*
X109647995Y53165375D01*
X109646483Y53165375D01*
X109606001Y53167231D01*
X109590553Y53175125D01*
X109593523Y53192543D01*
X109593787Y53193156D01*
X109634745Y53306463D01*
X109656931Y53411245D01*
X109661113Y53504478D01*
X109648061Y53583140D01*
X109618542Y53644209D01*
X109573325Y53684663D01*
X109513179Y53701480D01*
X109465400Y53698110D01*
X109416466Y53679351D01*
X109378201Y53641105D01*
X109347900Y53579373D01*
X109322859Y53490152D01*
X109321890Y53485778D01*
X109290509Y53369503D01*
X109252689Y53282081D01*
X109206178Y53220890D01*
X109148722Y53183310D01*
X109078068Y53166721D01*
X109046434Y53165375D01*
X108955488Y53178339D01*
X108881883Y53217673D01*
X108828993Y53276779D01*
X108806564Y53314913D01*
X108792585Y53353061D01*
X108784598Y53401379D01*
X108780146Y53470024D01*
X108779719Y53480435D01*
X108779878Y53571177D01*
G36*
X108790170Y49436002D02*
G01*
X108816906Y49527874D01*
X108819540Y49533968D01*
X108840929Y49578267D01*
X108860168Y49600606D01*
X108886982Y49608471D01*
X108917482Y49609375D01*
X108957594Y49607789D01*
X108980105Y49603824D01*
X108981875Y49602142D01*
X108973763Y49585801D01*
X108953332Y49553125D01*
X108942607Y49537045D01*
X108910060Y49477233D01*
X108892162Y49410993D01*
X108887092Y49329170D01*
X108889396Y49269639D01*
X108907378Y49173857D01*
X108949269Y49097730D01*
X109017392Y49037630D01*
X109050263Y49018438D01*
X109089612Y49000881D01*
X109132303Y48990122D01*
X109187696Y48984631D01*
X109265154Y48982876D01*
X109267625Y48982866D01*
X109344999Y48983879D01*
X109400696Y48988677D01*
X109444713Y48998892D01*
X109487051Y49016156D01*
X109494891Y49019954D01*
X109571225Y49073835D01*
X109625457Y49146501D01*
X109656718Y49233135D01*
X109664141Y49328915D01*
X109646856Y49429025D01*
X109603996Y49528643D01*
X109590545Y49550798D01*
X109551660Y49611284D01*
X109619986Y49606360D01*
X109661716Y49601049D01*
X109687992Y49587414D01*
X109709525Y49557443D01*
X109724794Y49527941D01*
X109750234Y49454661D01*
X109765820Y49364504D01*
X109770208Y49271185D01*
X109762052Y49188416D01*
X109759292Y49176265D01*
X109717449Y49068094D01*
X109650894Y48979288D01*
X109558690Y48908754D01*
X109506987Y48881953D01*
X109417758Y48853961D01*
X109311863Y48840724D01*
X109200910Y48842551D01*
X109096508Y48859757D01*
X109062176Y48869977D01*
X108970179Y48916560D01*
X108889176Y48986118D01*
X108826919Y49070913D01*
X108799672Y49132041D01*
X108780879Y49224442D01*
X108777936Y49330310D01*
X108790170Y49436002D01*
G37*
X108790170Y49436002D02*
X108816906Y49527874D01*
X108819540Y49533968D01*
X108840929Y49578267D01*
X108860168Y49600606D01*
X108886982Y49608471D01*
X108917482Y49609375D01*
X108957594Y49607789D01*
X108980105Y49603824D01*
X108981875Y49602142D01*
X108973763Y49585801D01*
X108953332Y49553125D01*
X108942607Y49537045D01*
X108910060Y49477233D01*
X108892162Y49410993D01*
X108887092Y49329170D01*
X108889396Y49269639D01*
X108907378Y49173857D01*
X108949269Y49097730D01*
X109017392Y49037630D01*
X109050263Y49018438D01*
X109089612Y49000881D01*
X109132303Y48990122D01*
X109187696Y48984631D01*
X109265154Y48982876D01*
X109267625Y48982866D01*
X109344999Y48983879D01*
X109400696Y48988677D01*
X109444713Y48998892D01*
X109487051Y49016156D01*
X109494891Y49019954D01*
X109571225Y49073835D01*
X109625457Y49146501D01*
X109656718Y49233135D01*
X109664141Y49328915D01*
X109646856Y49429025D01*
X109603996Y49528643D01*
X109590545Y49550798D01*
X109551660Y49611284D01*
X109619986Y49606360D01*
X109661716Y49601049D01*
X109687992Y49587414D01*
X109709525Y49557443D01*
X109724794Y49527941D01*
X109750234Y49454661D01*
X109765820Y49364504D01*
X109770208Y49271185D01*
X109762052Y49188416D01*
X109759292Y49176265D01*
X109717449Y49068094D01*
X109650894Y48979288D01*
X109558690Y48908754D01*
X109506987Y48881953D01*
X109417758Y48853961D01*
X109311863Y48840724D01*
X109200910Y48842551D01*
X109096508Y48859757D01*
X109062176Y48869977D01*
X108970179Y48916560D01*
X108889176Y48986118D01*
X108826919Y49070913D01*
X108799672Y49132041D01*
X108780879Y49224442D01*
X108777936Y49330310D01*
X108790170Y49436002D01*
G36*
X108784671Y48257327D02*
G01*
X108789536Y48312468D01*
X108799781Y48356181D01*
X108817151Y48398597D01*
X108823125Y48410812D01*
X108847792Y48456586D01*
X108869218Y48480945D01*
X108897058Y48491489D01*
X108930190Y48495064D01*
X108997567Y48499941D01*
X108946066Y48417093D01*
X108917959Y48367284D01*
X108901371Y48322016D01*
X108892667Y48268228D01*
X108889025Y48212254D01*
X108892805Y48107659D01*
X108916013Y48025041D01*
X108960498Y47959934D01*
X109010645Y47918775D01*
X109096055Y47878314D01*
X109195634Y47856653D01*
X109301082Y47853368D01*
X109404096Y47868033D01*
X109496375Y47900225D01*
X109567158Y47947226D01*
X109621569Y48017724D01*
X109653700Y48104364D01*
X109663185Y48200313D01*
X109649657Y48298736D01*
X109612748Y48392801D01*
X109592835Y48425511D01*
X109568938Y48462212D01*
X109554915Y48486623D01*
X109553375Y48490892D01*
X109567486Y48495398D01*
X109602789Y48497926D01*
X109617753Y48498125D01*
X109654396Y48496511D01*
X109677958Y48487058D01*
X109696802Y48462847D01*
X109719288Y48416959D01*
X109721392Y48412366D01*
X109750026Y48326611D01*
X109766617Y48227959D01*
X109769447Y48131004D01*
X109761796Y48069500D01*
X109724333Y47965231D01*
X109662704Y47873414D01*
X109582095Y47799810D01*
X109487690Y47750180D01*
X109468800Y47743988D01*
X109379847Y47726463D01*
X109278431Y47720398D01*
X109177079Y47725584D01*
X109088314Y47741810D01*
X109060482Y47750831D01*
X108966446Y47795932D01*
X108895156Y47853762D01*
X108838093Y47931499D01*
X108830655Y47944559D01*
X108808117Y47988117D01*
X108794139Y48026224D01*
X108786713Y48068927D01*
X108783829Y48126270D01*
X108783437Y48180625D01*
X108784671Y48257327D01*
G37*
X108784671Y48257327D02*
X108789536Y48312468D01*
X108799781Y48356181D01*
X108817151Y48398597D01*
X108823125Y48410812D01*
X108847792Y48456586D01*
X108869218Y48480945D01*
X108897058Y48491489D01*
X108930190Y48495064D01*
X108997567Y48499941D01*
X108946066Y48417093D01*
X108917959Y48367284D01*
X108901371Y48322016D01*
X108892667Y48268228D01*
X108889025Y48212254D01*
X108892805Y48107659D01*
X108916013Y48025041D01*
X108960498Y47959934D01*
X109010645Y47918775D01*
X109096055Y47878314D01*
X109195634Y47856653D01*
X109301082Y47853368D01*
X109404096Y47868033D01*
X109496375Y47900225D01*
X109567158Y47947226D01*
X109621569Y48017724D01*
X109653700Y48104364D01*
X109663185Y48200313D01*
X109649657Y48298736D01*
X109612748Y48392801D01*
X109592835Y48425511D01*
X109568938Y48462212D01*
X109554915Y48486623D01*
X109553375Y48490892D01*
X109567486Y48495398D01*
X109602789Y48497926D01*
X109617753Y48498125D01*
X109654396Y48496511D01*
X109677958Y48487058D01*
X109696802Y48462847D01*
X109719288Y48416959D01*
X109721392Y48412366D01*
X109750026Y48326611D01*
X109766617Y48227959D01*
X109769447Y48131004D01*
X109761796Y48069500D01*
X109724333Y47965231D01*
X109662704Y47873414D01*
X109582095Y47799810D01*
X109487690Y47750180D01*
X109468800Y47743988D01*
X109379847Y47726463D01*
X109278431Y47720398D01*
X109177079Y47725584D01*
X109088314Y47741810D01*
X109060482Y47750831D01*
X108966446Y47795932D01*
X108895156Y47853762D01*
X108838093Y47931499D01*
X108830655Y47944559D01*
X108808117Y47988117D01*
X108794139Y48026224D01*
X108786713Y48068927D01*
X108783829Y48126270D01*
X108783437Y48180625D01*
X108784671Y48257327D01*
G36*
X105728421Y61528328D02*
G01*
X105780933Y61614848D01*
X105844683Y61680501D01*
X105928631Y61733874D01*
X105957687Y61748120D01*
X106037062Y61785189D01*
X109878812Y61785189D01*
X109958187Y61748120D01*
X110049579Y61696683D01*
X110118204Y61635430D01*
X110173023Y61555771D01*
X110187453Y61528328D01*
X110236000Y61431178D01*
X110236000Y47788821D01*
X110187453Y47691671D01*
X110134941Y47605151D01*
X110071191Y47539498D01*
X109987243Y47486125D01*
X109958187Y47471879D01*
X109878812Y47434810D01*
X108788471Y47434810D01*
X108788471Y47611183D01*
X108983975Y47611350D01*
X109163267Y47611681D01*
X109324238Y47612171D01*
X109464781Y47612813D01*
X109582787Y47613603D01*
X109676147Y47614535D01*
X109742755Y47615603D01*
X109780501Y47616802D01*
X109786730Y47617277D01*
X109879836Y47642168D01*
X109957544Y47690571D01*
X110015002Y47758434D01*
X110045513Y47833324D01*
X110046376Y47852720D01*
X110047213Y47902824D01*
X110048022Y47982596D01*
X110048802Y48090994D01*
X110049551Y48226977D01*
X110050267Y48389503D01*
X110050949Y48577532D01*
X110051596Y48790022D01*
X110052206Y49025931D01*
X110052777Y49284220D01*
X110053308Y49563845D01*
X110053796Y49863766D01*
X110054242Y50182942D01*
X110054642Y50520332D01*
X110054995Y50874893D01*
X110055301Y51245586D01*
X110055556Y51631368D01*
X110055760Y52031198D01*
X110055912Y52444035D01*
X110056008Y52868838D01*
X110056049Y53304566D01*
X110056032Y53750177D01*
X110055956Y54204629D01*
X110055827Y54641750D01*
X110055627Y55194527D01*
X110055425Y55716445D01*
X110055217Y56208392D01*
X110055001Y56671258D01*
X110054771Y57105934D01*
X110054525Y57513309D01*
X110054258Y57894272D01*
X110053966Y58249714D01*
X110053646Y58580525D01*
X110053293Y58887593D01*
X110052904Y59171810D01*
X110052475Y59434064D01*
X110052001Y59675246D01*
X110051480Y59896245D01*
X110050908Y60097952D01*
X110050279Y60281255D01*
X110049591Y60447045D01*
X110048840Y60596211D01*
X110048022Y60729644D01*
X110047132Y60848233D01*
X110046167Y60952868D01*
X110045124Y61044439D01*
X110043998Y61123835D01*
X110042785Y61191947D01*
X110041482Y61249663D01*
X110040085Y61297875D01*
X110038589Y61337471D01*
X110036991Y61369342D01*
X110035288Y61394377D01*
X110033474Y61413466D01*
X110031547Y61427499D01*
X110029502Y61437366D01*
X110027336Y61443956D01*
X110026226Y61446265D01*
X109984482Y61502935D01*
X109929044Y61552950D01*
X109871519Y61586336D01*
X109857745Y61591035D01*
X109836645Y61592571D01*
X109785810Y61594048D01*
X109707258Y61595456D01*
X109603005Y61596781D01*
X109475065Y61598010D01*
X109325456Y61599132D01*
X109156194Y61600134D01*
X108969294Y61601003D01*
X108766773Y61601727D01*
X108550646Y61602293D01*
X108322930Y61602689D01*
X108085641Y61602902D01*
X107942062Y61602937D01*
X107657740Y61602914D01*
X107403447Y61602827D01*
X107177463Y61602654D01*
X106978066Y61602368D01*
X106803536Y61601947D01*
X106652152Y61601365D01*
X106522194Y61600599D01*
X106411940Y61599624D01*
X106319670Y61598415D01*
X106243662Y61596948D01*
X106182197Y61595200D01*
X106133554Y61593144D01*
X106096011Y61590758D01*
X106067847Y61588017D01*
X106047343Y61584897D01*
X106032778Y61581372D01*
X106022429Y61577419D01*
X106019109Y61575726D01*
X105962439Y61533982D01*
X105912424Y61478544D01*
X105879038Y61421019D01*
X105874339Y61407245D01*
X105873430Y61388276D01*
X105872559Y61338818D01*
X105871724Y61260131D01*
X105870926Y61153475D01*
X105870165Y61020112D01*
X105869441Y60861302D01*
X105868753Y60678305D01*
X105868103Y60472382D01*
X105867489Y60244793D01*
X105866911Y59996800D01*
X105866371Y59729662D01*
X105865867Y59444640D01*
X105865401Y59142995D01*
X105864971Y58825988D01*
X105864577Y58494878D01*
X105864221Y58150926D01*
X105863901Y57795394D01*
X105863619Y57429541D01*
X105863373Y57054628D01*
X105863163Y56671916D01*
X105862991Y56282664D01*
X105862855Y55888135D01*
X105862756Y55489588D01*
X105862694Y55088284D01*
X105862669Y54685483D01*
X105862681Y54282446D01*
X105862729Y53880434D01*
X105862814Y53480707D01*
X105862936Y53084525D01*
X105863094Y52693150D01*
X105863290Y52307841D01*
X105863522Y51929860D01*
X105863791Y51560467D01*
X105864097Y51200922D01*
X105864440Y50852486D01*
X105864819Y50516419D01*
X105865235Y50193983D01*
X105865688Y49886438D01*
X105866178Y49595043D01*
X105866705Y49321061D01*
X105867268Y49065750D01*
X105867868Y48830373D01*
X105868505Y48616189D01*
X105869179Y48424460D01*
X105869890Y48256444D01*
X105870637Y48113404D01*
X105871421Y47996600D01*
X105872242Y47907292D01*
X105873100Y47846741D01*
X105873994Y47816207D01*
X105874339Y47812754D01*
X105901810Y47756576D01*
X105948486Y47699487D01*
X106004393Y47653095D01*
X106019109Y47644273D01*
X106028452Y47640078D01*
X106041482Y47636322D01*
X106059946Y47632976D01*
X106085590Y47630008D01*
X106120162Y47627390D01*
X106165408Y47625091D01*
X106223076Y47623082D01*
X106294910Y47621332D01*
X106382660Y47619811D01*
X106488070Y47618490D01*
X106612889Y47617339D01*
X106758862Y47616327D01*
X106927737Y47615426D01*
X107121260Y47614604D01*
X107341179Y47613832D01*
X107589239Y47613079D01*
X107867188Y47612317D01*
X107886500Y47612266D01*
X108125769Y47611722D01*
X108357260Y47611363D01*
X108578864Y47611185D01*
X108788471Y47611183D01*
X108788471Y47434810D01*
X106037062Y47434810D01*
X105957687Y47471879D01*
X105866295Y47523316D01*
X105797670Y47584569D01*
X105742851Y47664228D01*
X105728421Y47691671D01*
X105679875Y47788821D01*
X105679875Y61431178D01*
X105728421Y61528328D01*
G37*
X105728421Y61528328D02*
X105780933Y61614848D01*
X105844683Y61680501D01*
X105928631Y61733874D01*
X105957687Y61748120D01*
X106037062Y61785189D01*
X109878812Y61785189D01*
X109958187Y61748120D01*
X110049579Y61696683D01*
X110118204Y61635430D01*
X110173023Y61555771D01*
X110187453Y61528328D01*
X110236000Y61431178D01*
X110236000Y47788821D01*
X110187453Y47691671D01*
X110134941Y47605151D01*
X110071191Y47539498D01*
X109987243Y47486125D01*
X109958187Y47471879D01*
X109878812Y47434810D01*
X108788471Y47434810D01*
X108788471Y47611183D01*
X108983975Y47611350D01*
X109163267Y47611681D01*
X109324238Y47612171D01*
X109464781Y47612813D01*
X109582787Y47613603D01*
X109676147Y47614535D01*
X109742755Y47615603D01*
X109780501Y47616802D01*
X109786730Y47617277D01*
X109879836Y47642168D01*
X109957544Y47690571D01*
X110015002Y47758434D01*
X110045513Y47833324D01*
X110046376Y47852720D01*
X110047213Y47902824D01*
X110048022Y47982596D01*
X110048802Y48090994D01*
X110049551Y48226977D01*
X110050267Y48389503D01*
X110050949Y48577532D01*
X110051596Y48790022D01*
X110052206Y49025931D01*
X110052777Y49284220D01*
X110053308Y49563845D01*
X110053796Y49863766D01*
X110054242Y50182942D01*
X110054642Y50520332D01*
X110054995Y50874893D01*
X110055301Y51245586D01*
X110055556Y51631368D01*
X110055760Y52031198D01*
X110055912Y52444035D01*
X110056008Y52868838D01*
X110056049Y53304566D01*
X110056032Y53750177D01*
X110055956Y54204629D01*
X110055827Y54641750D01*
X110055627Y55194527D01*
X110055425Y55716445D01*
X110055217Y56208392D01*
X110055001Y56671258D01*
X110054771Y57105934D01*
X110054525Y57513309D01*
X110054258Y57894272D01*
X110053966Y58249714D01*
X110053646Y58580525D01*
X110053293Y58887593D01*
X110052904Y59171810D01*
X110052475Y59434064D01*
X110052001Y59675246D01*
X110051480Y59896245D01*
X110050908Y60097952D01*
X110050279Y60281255D01*
X110049591Y60447045D01*
X110048840Y60596211D01*
X110048022Y60729644D01*
X110047132Y60848233D01*
X110046167Y60952868D01*
X110045124Y61044439D01*
X110043998Y61123835D01*
X110042785Y61191947D01*
X110041482Y61249663D01*
X110040085Y61297875D01*
X110038589Y61337471D01*
X110036991Y61369342D01*
X110035288Y61394377D01*
X110033474Y61413466D01*
X110031547Y61427499D01*
X110029502Y61437366D01*
X110027336Y61443956D01*
X110026226Y61446265D01*
X109984482Y61502935D01*
X109929044Y61552950D01*
X109871519Y61586336D01*
X109857745Y61591035D01*
X109836645Y61592571D01*
X109785810Y61594048D01*
X109707258Y61595456D01*
X109603005Y61596781D01*
X109475065Y61598010D01*
X109325456Y61599132D01*
X109156194Y61600134D01*
X108969294Y61601003D01*
X108766773Y61601727D01*
X108550646Y61602293D01*
X108322930Y61602689D01*
X108085641Y61602902D01*
X107942062Y61602937D01*
X107657740Y61602914D01*
X107403447Y61602827D01*
X107177463Y61602654D01*
X106978066Y61602368D01*
X106803536Y61601947D01*
X106652152Y61601365D01*
X106522194Y61600599D01*
X106411940Y61599624D01*
X106319670Y61598415D01*
X106243662Y61596948D01*
X106182197Y61595200D01*
X106133554Y61593144D01*
X106096011Y61590758D01*
X106067847Y61588017D01*
X106047343Y61584897D01*
X106032778Y61581372D01*
X106022429Y61577419D01*
X106019109Y61575726D01*
X105962439Y61533982D01*
X105912424Y61478544D01*
X105879038Y61421019D01*
X105874339Y61407245D01*
X105873430Y61388276D01*
X105872559Y61338818D01*
X105871724Y61260131D01*
X105870926Y61153475D01*
X105870165Y61020112D01*
X105869441Y60861302D01*
X105868753Y60678305D01*
X105868103Y60472382D01*
X105867489Y60244793D01*
X105866911Y59996800D01*
X105866371Y59729662D01*
X105865867Y59444640D01*
X105865401Y59142995D01*
X105864971Y58825988D01*
X105864577Y58494878D01*
X105864221Y58150926D01*
X105863901Y57795394D01*
X105863619Y57429541D01*
X105863373Y57054628D01*
X105863163Y56671916D01*
X105862991Y56282664D01*
X105862855Y55888135D01*
X105862756Y55489588D01*
X105862694Y55088284D01*
X105862669Y54685483D01*
X105862681Y54282446D01*
X105862729Y53880434D01*
X105862814Y53480707D01*
X105862936Y53084525D01*
X105863094Y52693150D01*
X105863290Y52307841D01*
X105863522Y51929860D01*
X105863791Y51560467D01*
X105864097Y51200922D01*
X105864440Y50852486D01*
X105864819Y50516419D01*
X105865235Y50193983D01*
X105865688Y49886438D01*
X105866178Y49595043D01*
X105866705Y49321061D01*
X105867268Y49065750D01*
X105867868Y48830373D01*
X105868505Y48616189D01*
X105869179Y48424460D01*
X105869890Y48256444D01*
X105870637Y48113404D01*
X105871421Y47996600D01*
X105872242Y47907292D01*
X105873100Y47846741D01*
X105873994Y47816207D01*
X105874339Y47812754D01*
X105901810Y47756576D01*
X105948486Y47699487D01*
X106004393Y47653095D01*
X106019109Y47644273D01*
X106028452Y47640078D01*
X106041482Y47636322D01*
X106059946Y47632976D01*
X106085590Y47630008D01*
X106120162Y47627390D01*
X106165408Y47625091D01*
X106223076Y47623082D01*
X106294910Y47621332D01*
X106382660Y47619811D01*
X106488070Y47618490D01*
X106612889Y47617339D01*
X106758862Y47616327D01*
X106927737Y47615426D01*
X107121260Y47614604D01*
X107341179Y47613832D01*
X107589239Y47613079D01*
X107867188Y47612317D01*
X107886500Y47612266D01*
X108125769Y47611722D01*
X108357260Y47611363D01*
X108578864Y47611185D01*
X108788471Y47611183D01*
X108788471Y47434810D01*
X106037062Y47434810D01*
X105957687Y47471879D01*
X105866295Y47523316D01*
X105797670Y47584569D01*
X105742851Y47664228D01*
X105728421Y47691671D01*
X105679875Y47788821D01*
X105679875Y61431178D01*
X105728421Y61528328D01*
D10*
%TO.C,C1*%
X80160000Y24280000D02*
X80160000Y26520000D01*
X87400000Y24280000D02*
X87400000Y26520000D01*
X87400000Y26520000D02*
X80160000Y26520000D01*
X87400000Y24280000D02*
X80160000Y24280000D01*
%TO.C,C2*%
X45505000Y21280000D02*
X45520000Y21280000D01*
X43380000Y21280000D02*
X43395000Y21280000D01*
X45505000Y16740000D02*
X45520000Y16740000D01*
X43380000Y16740000D02*
X43395000Y16740000D01*
X45520000Y16740000D02*
X45520000Y21280000D01*
X43380000Y16740000D02*
X43380000Y21280000D01*
%TO.C,C3*%
X61160000Y16740000D02*
X61160000Y21280000D01*
X63300000Y16740000D02*
X63300000Y21280000D01*
X61160000Y16740000D02*
X61175000Y16740000D01*
X63285000Y16740000D02*
X63300000Y16740000D01*
X61160000Y21280000D02*
X61175000Y21280000D01*
X63285000Y21280000D02*
X63300000Y21280000D01*
%TO.C,C4*%
X87480000Y30630000D02*
X80240000Y30630000D01*
X87480000Y32870000D02*
X80240000Y32870000D01*
X87480000Y30630000D02*
X87480000Y32870000D01*
X80240000Y30630000D02*
X80240000Y32870000D01*
%TO.C,D1*%
X100138608Y74527665D02*
G75*
G03X100295516Y77760000I-1078608J1672335D01*
G01*
X97981392Y74527665D02*
G75*
G02X97824484Y77760000I1078608J1672335D01*
G01*
X100139837Y75158870D02*
G75*
G03X100140000Y77240961I-1079837J1041130D01*
G01*
X97980163Y75158870D02*
G75*
G02X97980000Y77240961I1079837J1041130D01*
G01*
X100296000Y77760000D02*
X100140000Y77760000D01*
X97980000Y77760000D02*
X97824000Y77760000D01*
%TO.C,D2*%
X99210000Y38520000D02*
X101450000Y38520000D01*
X101450000Y38520000D02*
X101450000Y42760000D01*
X101450000Y42760000D02*
X99210000Y42760000D01*
X99210000Y42760000D02*
X99210000Y38520000D01*
X100330000Y37870000D02*
X100330000Y38520000D01*
X100330000Y43410000D02*
X100330000Y42760000D01*
X99210000Y39240000D02*
X101450000Y39240000D01*
X99210000Y39360000D02*
X101450000Y39360000D01*
X99210000Y39120000D02*
X101450000Y39120000D01*
%TO.C,J1*%
X113300000Y1675000D02*
X92440000Y1675000D01*
X92440000Y1675000D02*
X92440000Y11025000D01*
X92440000Y11025000D02*
X113300000Y11025000D01*
X113300000Y11025000D02*
X113300000Y1675000D01*
X113550000Y11275000D02*
X111010000Y11275000D01*
X113550000Y11275000D02*
X113550000Y8735000D01*
%TO.C,J2*%
X68520000Y6410000D02*
X68520000Y3750000D01*
X78740000Y6410000D02*
X68520000Y6410000D01*
X78740000Y3750000D02*
X68520000Y3750000D01*
X78740000Y6410000D02*
X78740000Y3750000D01*
X80010000Y6410000D02*
X81340000Y6410000D01*
X81340000Y6410000D02*
X81340000Y5080000D01*
%TO.C,R1*%
X77240000Y18510000D02*
X77570000Y18510000D01*
X77570000Y18510000D02*
X77570000Y11970000D01*
X77570000Y11970000D02*
X77240000Y11970000D01*
X75160000Y18510000D02*
X74830000Y18510000D01*
X74830000Y18510000D02*
X74830000Y11970000D01*
X74830000Y11970000D02*
X75160000Y11970000D01*
%TO.C,R2*%
X71020000Y11970000D02*
X71350000Y11970000D01*
X71020000Y18510000D02*
X71020000Y11970000D01*
X71350000Y18510000D02*
X71020000Y18510000D01*
X73760000Y11970000D02*
X73430000Y11970000D01*
X73760000Y18510000D02*
X73760000Y11970000D01*
X73430000Y18510000D02*
X73760000Y18510000D01*
%TO.C,R3*%
X97690000Y62770000D02*
X98020000Y62770000D01*
X97690000Y69310000D02*
X97690000Y62770000D01*
X98020000Y69310000D02*
X97690000Y69310000D01*
X100430000Y62770000D02*
X100100000Y62770000D01*
X100430000Y69310000D02*
X100430000Y62770000D01*
X100100000Y69310000D02*
X100430000Y69310000D01*
%TO.C,R4*%
X99790000Y30710000D02*
X99790000Y30380000D01*
X99790000Y30380000D02*
X93250000Y30380000D01*
X93250000Y30380000D02*
X93250000Y30710000D01*
X99790000Y32790000D02*
X99790000Y33120000D01*
X99790000Y33120000D02*
X93250000Y33120000D01*
X93250000Y33120000D02*
X93250000Y32790000D01*
%TO.C,U1*%
X80630000Y73660000D02*
G75*
G03X80630000Y73660000I-2550000J0D01*
G01*
X78980000Y73660000D02*
G75*
G03X78980000Y73660000I-900000J0D01*
G01*
X77390000Y71210000D02*
X77390000Y37370000D01*
X77390000Y37370000D02*
X92790000Y37370000D01*
X92790000Y37370000D02*
X92790000Y77970000D01*
X92790000Y77970000D02*
X77390000Y77970000D01*
X77390000Y77970000D02*
X77390000Y76110000D01*
X79630000Y77970000D02*
X79630000Y75710000D01*
X76330000Y66040000D02*
X76330000Y68580000D01*
%TO.C,U2*%
X57950000Y73660000D02*
G75*
G03X57950000Y73660000I-2550000J0D01*
G01*
X56300000Y73660000D02*
G75*
G03X56300000Y73660000I-900000J0D01*
G01*
X54680000Y71210000D02*
X54680000Y27270000D01*
X54680000Y27270000D02*
X72680000Y27270000D01*
X72680000Y27270000D02*
X72680000Y77970000D01*
X72680000Y77970000D02*
X54680000Y77970000D01*
X54680000Y77970000D02*
X54680000Y76110000D01*
X56950000Y77970000D02*
X56950000Y75710000D01*
X53650000Y66040000D02*
X53650000Y68580000D01*
%TO.C,U3*%
X6970000Y73660000D02*
G75*
G03X6970000Y73660000I-2550000J0D01*
G01*
X5320000Y73660000D02*
G75*
G03X5320000Y73660000I-900000J0D01*
G01*
X3690000Y71210000D02*
X3690000Y12170000D01*
X3690000Y12170000D02*
X26790000Y12170000D01*
X26790000Y12170000D02*
X26790000Y77970000D01*
X26790000Y77970000D02*
X3690000Y77970000D01*
X3690000Y77970000D02*
X3690000Y76110000D01*
X5970000Y77970000D02*
X5970000Y75710000D01*
X2670000Y66040000D02*
X2670000Y68580000D01*
%TO.C,U4*%
X30610000Y66040000D02*
X30610000Y68580000D01*
X33910000Y77970000D02*
X33910000Y75710000D01*
X31640000Y77970000D02*
X31640000Y76110000D01*
X49640000Y77970000D02*
X31640000Y77970000D01*
X49640000Y27270000D02*
X49640000Y77970000D01*
X31640000Y27270000D02*
X49640000Y27270000D01*
X31640000Y71210000D02*
X31640000Y27270000D01*
X33260000Y73660000D02*
G75*
G03X33260000Y73660000I-900000J0D01*
G01*
X34910000Y73660000D02*
G75*
G03X34910000Y73660000I-2550000J0D01*
G01*
%TO.C,Y1*%
X50400000Y23750000D02*
X56650000Y23750000D01*
X50400000Y18700000D02*
X56650000Y18700000D01*
X50400000Y18700000D02*
G75*
G02X50400000Y23750000I0J2525000D01*
G01*
X56650000Y18700000D02*
G75*
G03X56650000Y23750000I0J2525000D01*
G01*
%TO.C,C1*%
D11*
X83613333Y22792858D02*
X83565714Y22745239D01*
X83422857Y22697620D01*
X83327619Y22697620D01*
X83184761Y22745239D01*
X83089523Y22840477D01*
X83041904Y22935715D01*
X82994285Y23126191D01*
X82994285Y23269048D01*
X83041904Y23459524D01*
X83089523Y23554762D01*
X83184761Y23650000D01*
X83327619Y23697620D01*
X83422857Y23697620D01*
X83565714Y23650000D01*
X83613333Y23602381D01*
X84565714Y22697620D02*
X83994285Y22697620D01*
X84280000Y22697620D02*
X84280000Y23697620D01*
X84184761Y23554762D01*
X84089523Y23459524D01*
X83994285Y23411905D01*
%TO.C,C2*%
X42607142Y18843334D02*
X42654761Y18795715D01*
X42702380Y18652858D01*
X42702380Y18557620D01*
X42654761Y18414762D01*
X42559523Y18319524D01*
X42464285Y18271905D01*
X42273809Y18224286D01*
X42130952Y18224286D01*
X41940476Y18271905D01*
X41845238Y18319524D01*
X41750000Y18414762D01*
X41702380Y18557620D01*
X41702380Y18652858D01*
X41750000Y18795715D01*
X41797619Y18843334D01*
X41797619Y19224286D02*
X41750000Y19271905D01*
X41702380Y19367143D01*
X41702380Y19605239D01*
X41750000Y19700477D01*
X41797619Y19748096D01*
X41892857Y19795715D01*
X41988095Y19795715D01*
X42130952Y19748096D01*
X42702380Y19176667D01*
X42702380Y19795715D01*
%TO.C,C3*%
X60387142Y18843334D02*
X60434761Y18795715D01*
X60482380Y18652858D01*
X60482380Y18557620D01*
X60434761Y18414762D01*
X60339523Y18319524D01*
X60244285Y18271905D01*
X60053809Y18224286D01*
X59910952Y18224286D01*
X59720476Y18271905D01*
X59625238Y18319524D01*
X59530000Y18414762D01*
X59482380Y18557620D01*
X59482380Y18652858D01*
X59530000Y18795715D01*
X59577619Y18843334D01*
X59482380Y19176667D02*
X59482380Y19795715D01*
X59863333Y19462381D01*
X59863333Y19605239D01*
X59910952Y19700477D01*
X59958571Y19748096D01*
X60053809Y19795715D01*
X60291904Y19795715D01*
X60387142Y19748096D01*
X60434761Y19700477D01*
X60482380Y19605239D01*
X60482380Y19319524D01*
X60434761Y19224286D01*
X60387142Y19176667D01*
%TO.C,C4*%
X83693333Y29142858D02*
X83645714Y29095239D01*
X83502857Y29047620D01*
X83407619Y29047620D01*
X83264761Y29095239D01*
X83169523Y29190477D01*
X83121904Y29285715D01*
X83074285Y29476191D01*
X83074285Y29619048D01*
X83121904Y29809524D01*
X83169523Y29904762D01*
X83264761Y30000000D01*
X83407619Y30047620D01*
X83502857Y30047620D01*
X83645714Y30000000D01*
X83693333Y29952381D01*
X84550476Y29714286D02*
X84550476Y29047620D01*
X84312380Y30095239D02*
X84074285Y29380953D01*
X84693333Y29380953D01*
%TO.C,D1*%
X102472380Y75461905D02*
X101472380Y75461905D01*
X101472380Y75700000D01*
X101520000Y75842858D01*
X101615238Y75938096D01*
X101710476Y75985715D01*
X101900952Y76033334D01*
X102043809Y76033334D01*
X102234285Y75985715D01*
X102329523Y75938096D01*
X102424761Y75842858D01*
X102472380Y75700000D01*
X102472380Y75461905D01*
X102472380Y76985715D02*
X102472380Y76414286D01*
X102472380Y76700000D02*
X101472380Y76700000D01*
X101615238Y76604762D01*
X101710476Y76509524D01*
X101758095Y76414286D01*
%TO.C,D2*%
X98662380Y39901905D02*
X97662380Y39901905D01*
X97662380Y40140000D01*
X97710000Y40282858D01*
X97805238Y40378096D01*
X97900476Y40425715D01*
X98090952Y40473334D01*
X98233809Y40473334D01*
X98424285Y40425715D01*
X98519523Y40378096D01*
X98614761Y40282858D01*
X98662380Y40140000D01*
X98662380Y39901905D01*
X97757619Y40854286D02*
X97710000Y40901905D01*
X97662380Y40997143D01*
X97662380Y41235239D01*
X97710000Y41330477D01*
X97757619Y41378096D01*
X97852857Y41425715D01*
X97948095Y41425715D01*
X98090952Y41378096D01*
X98662380Y40806667D01*
X98662380Y41425715D01*
X98982380Y36568096D02*
X97982380Y36568096D01*
X98982380Y37139524D02*
X98410952Y36710953D01*
X97982380Y37139524D02*
X98553809Y36568096D01*
%TO.C,J1*%
X114006380Y6016667D02*
X114720666Y6016667D01*
X114863523Y5969048D01*
X114958761Y5873810D01*
X115006380Y5730953D01*
X115006380Y5635715D01*
X115006380Y7016667D02*
X115006380Y6445239D01*
X115006380Y6730953D02*
X114006380Y6730953D01*
X114149238Y6635715D01*
X114244476Y6540477D01*
X114292095Y6445239D01*
%TO.C,J2*%
X83272380Y4746667D02*
X83986666Y4746667D01*
X84129523Y4699048D01*
X84224761Y4603810D01*
X84272380Y4460953D01*
X84272380Y4365715D01*
X83367619Y5175239D02*
X83320000Y5222858D01*
X83272380Y5318096D01*
X83272380Y5556191D01*
X83320000Y5651429D01*
X83367619Y5699048D01*
X83462857Y5746667D01*
X83558095Y5746667D01*
X83700952Y5699048D01*
X84272380Y5127620D01*
X84272380Y5746667D01*
%TO.C,R1*%
X76652380Y21423334D02*
X76176190Y21090000D01*
X76652380Y20851905D02*
X75652380Y20851905D01*
X75652380Y21232858D01*
X75700000Y21328096D01*
X75747619Y21375715D01*
X75842857Y21423334D01*
X75985714Y21423334D01*
X76080952Y21375715D01*
X76128571Y21328096D01*
X76176190Y21232858D01*
X76176190Y20851905D01*
X76652380Y22375715D02*
X76652380Y21804286D01*
X76652380Y22090000D02*
X75652380Y22090000D01*
X75795238Y21994762D01*
X75890476Y21899524D01*
X75938095Y21804286D01*
%TO.C,R2*%
X72842380Y21423334D02*
X72366190Y21090000D01*
X72842380Y20851905D02*
X71842380Y20851905D01*
X71842380Y21232858D01*
X71890000Y21328096D01*
X71937619Y21375715D01*
X72032857Y21423334D01*
X72175714Y21423334D01*
X72270952Y21375715D01*
X72318571Y21328096D01*
X72366190Y21232858D01*
X72366190Y20851905D01*
X71937619Y21804286D02*
X71890000Y21851905D01*
X71842380Y21947143D01*
X71842380Y22185239D01*
X71890000Y22280477D01*
X71937619Y22328096D01*
X72032857Y22375715D01*
X72128095Y22375715D01*
X72270952Y22328096D01*
X72842380Y21756667D01*
X72842380Y22375715D01*
%TO.C,R3*%
X101882380Y65873334D02*
X101406190Y65540000D01*
X101882380Y65301905D02*
X100882380Y65301905D01*
X100882380Y65682858D01*
X100930000Y65778096D01*
X100977619Y65825715D01*
X101072857Y65873334D01*
X101215714Y65873334D01*
X101310952Y65825715D01*
X101358571Y65778096D01*
X101406190Y65682858D01*
X101406190Y65301905D01*
X100882380Y66206667D02*
X100882380Y66825715D01*
X101263333Y66492381D01*
X101263333Y66635239D01*
X101310952Y66730477D01*
X101358571Y66778096D01*
X101453809Y66825715D01*
X101691904Y66825715D01*
X101787142Y66778096D01*
X101834761Y66730477D01*
X101882380Y66635239D01*
X101882380Y66349524D01*
X101834761Y66254286D01*
X101787142Y66206667D01*
%TO.C,R4*%
X96353333Y28927620D02*
X96020000Y29403810D01*
X95781904Y28927620D02*
X95781904Y29927620D01*
X96162857Y29927620D01*
X96258095Y29880000D01*
X96305714Y29832381D01*
X96353333Y29737143D01*
X96353333Y29594286D01*
X96305714Y29499048D01*
X96258095Y29451429D01*
X96162857Y29403810D01*
X95781904Y29403810D01*
X97210476Y29594286D02*
X97210476Y28927620D01*
X96972380Y29975239D02*
X96734285Y29260953D01*
X97353333Y29260953D01*
%TO.C,U1*%
X84328095Y79417620D02*
X84328095Y78608096D01*
X84375714Y78512858D01*
X84423333Y78465239D01*
X84518571Y78417620D01*
X84709047Y78417620D01*
X84804285Y78465239D01*
X84851904Y78512858D01*
X84899523Y78608096D01*
X84899523Y79417620D01*
X85899523Y78417620D02*
X85328095Y78417620D01*
X85613809Y78417620D02*
X85613809Y79417620D01*
X85518571Y79274762D01*
X85423333Y79179524D01*
X85328095Y79131905D01*
%TO.C,U2*%
X62918095Y79417620D02*
X62918095Y78608096D01*
X62965714Y78512858D01*
X63013333Y78465239D01*
X63108571Y78417620D01*
X63299047Y78417620D01*
X63394285Y78465239D01*
X63441904Y78512858D01*
X63489523Y78608096D01*
X63489523Y79417620D01*
X63918095Y79322381D02*
X63965714Y79370000D01*
X64060952Y79417620D01*
X64299047Y79417620D01*
X64394285Y79370000D01*
X64441904Y79322381D01*
X64489523Y79227143D01*
X64489523Y79131905D01*
X64441904Y78989048D01*
X63870476Y78417620D01*
X64489523Y78417620D01*
%TO.C,U3*%
X14478095Y79417620D02*
X14478095Y78608096D01*
X14525714Y78512858D01*
X14573333Y78465239D01*
X14668571Y78417620D01*
X14859047Y78417620D01*
X14954285Y78465239D01*
X15001904Y78512858D01*
X15049523Y78608096D01*
X15049523Y79417620D01*
X15430476Y79417620D02*
X16049523Y79417620D01*
X15716190Y79036667D01*
X15859047Y79036667D01*
X15954285Y78989048D01*
X16001904Y78941429D01*
X16049523Y78846191D01*
X16049523Y78608096D01*
X16001904Y78512858D01*
X15954285Y78465239D01*
X15859047Y78417620D01*
X15573333Y78417620D01*
X15478095Y78465239D01*
X15430476Y78512858D01*
%TO.C,U4*%
X39878095Y79417620D02*
X39878095Y78608096D01*
X39925714Y78512858D01*
X39973333Y78465239D01*
X40068571Y78417620D01*
X40259047Y78417620D01*
X40354285Y78465239D01*
X40401904Y78512858D01*
X40449523Y78608096D01*
X40449523Y79417620D01*
X41354285Y79084286D02*
X41354285Y78417620D01*
X41116190Y79465239D02*
X40878095Y78750953D01*
X41497142Y78750953D01*
%TO.C,Y1*%
X53048809Y24773810D02*
X53048809Y24297620D01*
X52715476Y25297620D02*
X53048809Y24773810D01*
X53382142Y25297620D01*
X54239285Y24297620D02*
X53667857Y24297620D01*
X53953571Y24297620D02*
X53953571Y25297620D01*
X53858333Y25154762D01*
X53763095Y25059524D01*
X53667857Y25011905D01*
%TD*%
%LPC*%
D13*
%TO.C,C1*%
X81280000Y25400000D03*
X86280000Y25400000D03*
%TD*%
%TO.C,C2*%
X44450000Y21510000D03*
X44450000Y16510000D03*
%TD*%
%TO.C,C3*%
X62230000Y16510000D03*
X62230000Y21510000D03*
%TD*%
%TO.C,C4*%
X86360000Y31750000D03*
X81360000Y31750000D03*
%TD*%
D14*
%TO.C,D1*%
X99060000Y77470000D03*
D15*
X99060000Y74930000D03*
%TD*%
D16*
%TO.C,D2*%
X100330000Y36830000D03*
D17*
X100330000Y44450000D03*
%TD*%
D18*
%TO.C,J1*%
X107950000Y7620000D03*
D19*
X107950000Y5080000D03*
X105410000Y7620000D03*
X105410000Y5080000D03*
X102870000Y7620000D03*
X102870000Y5080000D03*
X100330000Y7620000D03*
X100330000Y5080000D03*
X97790000Y7620000D03*
X97790000Y5080000D03*
%TD*%
D20*
%TO.C,J2*%
X80010000Y5080000D03*
D21*
X77470000Y5080000D03*
X74930000Y5080000D03*
X72390000Y5080000D03*
X69850000Y5080000D03*
%TD*%
D13*
%TO.C,R1*%
X76200000Y19050000D03*
D17*
X76200000Y11430000D03*
%TD*%
%TO.C,R2*%
X72390000Y11430000D03*
D13*
X72390000Y19050000D03*
%TD*%
D17*
%TO.C,R3*%
X99060000Y62230000D03*
D13*
X99060000Y69850000D03*
%TD*%
%TO.C,R4*%
X100330000Y31750000D03*
D17*
X92710000Y31750000D03*
%TD*%
D22*
%TO.C,U1*%
X81280000Y67310000D03*
D23*
X88900000Y67310000D03*
X81280000Y64770000D03*
X88900000Y64770000D03*
X81280000Y62230000D03*
X88900000Y62230000D03*
X81280000Y59690000D03*
X88900000Y59690000D03*
X81280000Y57150000D03*
X88900000Y57150000D03*
X81280000Y54610000D03*
X88900000Y54610000D03*
X81280000Y52070000D03*
X88900000Y52070000D03*
X81280000Y49530000D03*
X88900000Y49530000D03*
X81280000Y46990000D03*
X88900000Y46990000D03*
X81280000Y44450000D03*
X88900000Y44450000D03*
%TD*%
D22*
%TO.C,U2*%
X58600000Y67310000D03*
D23*
X68760000Y67310000D03*
X58600000Y64770000D03*
X68760000Y64770000D03*
X58600000Y62230000D03*
X68760000Y62230000D03*
X58600000Y59690000D03*
X68760000Y59690000D03*
X58600000Y57150000D03*
X68760000Y57150000D03*
X58600000Y54610000D03*
X68760000Y54610000D03*
X58600000Y52070000D03*
X68760000Y52070000D03*
X58600000Y49530000D03*
X68760000Y49530000D03*
X58600000Y46990000D03*
X68760000Y46990000D03*
X58600000Y44450000D03*
X68760000Y44450000D03*
X58600000Y41910000D03*
X68760000Y41910000D03*
X58600000Y39370000D03*
X68760000Y39370000D03*
X58600000Y36830000D03*
X68760000Y36830000D03*
X58600000Y34290000D03*
X68760000Y34290000D03*
%TD*%
D22*
%TO.C,U3*%
X7620000Y67310000D03*
D23*
X22860000Y67310000D03*
X7620000Y64770000D03*
X22860000Y64770000D03*
X7620000Y62230000D03*
X22860000Y62230000D03*
X7620000Y59690000D03*
X22860000Y59690000D03*
X7620000Y57150000D03*
X22860000Y57150000D03*
X7620000Y54610000D03*
X22860000Y54610000D03*
X7620000Y52070000D03*
X22860000Y52070000D03*
X7620000Y49530000D03*
X22860000Y49530000D03*
X7620000Y46990000D03*
X22860000Y46990000D03*
X7620000Y44450000D03*
X22860000Y44450000D03*
X7620000Y41910000D03*
X22860000Y41910000D03*
X7620000Y39370000D03*
X22860000Y39370000D03*
X7620000Y36830000D03*
X22860000Y36830000D03*
X7620000Y34290000D03*
X22860000Y34290000D03*
X7620000Y31750000D03*
X22860000Y31750000D03*
X7620000Y29210000D03*
X22860000Y29210000D03*
X7620000Y26670000D03*
X22860000Y26670000D03*
X7620000Y24130000D03*
X22860000Y24130000D03*
X7620000Y21590000D03*
X22860000Y21590000D03*
X7620000Y19050000D03*
X22860000Y19050000D03*
%TD*%
%TO.C,U4*%
X45720000Y34290000D03*
X35560000Y34290000D03*
X45720000Y36830000D03*
X35560000Y36830000D03*
X45720000Y39370000D03*
X35560000Y39370000D03*
X45720000Y41910000D03*
X35560000Y41910000D03*
X45720000Y44450000D03*
X35560000Y44450000D03*
X45720000Y46990000D03*
X35560000Y46990000D03*
X45720000Y49530000D03*
X35560000Y49530000D03*
X45720000Y52070000D03*
X35560000Y52070000D03*
X45720000Y54610000D03*
X35560000Y54610000D03*
X45720000Y57150000D03*
X35560000Y57150000D03*
X45720000Y59690000D03*
X35560000Y59690000D03*
X45720000Y62230000D03*
X35560000Y62230000D03*
X45720000Y64770000D03*
X35560000Y64770000D03*
X45720000Y67310000D03*
D22*
X35560000Y67310000D03*
%TD*%
D24*
%TO.C,Y1*%
X51085000Y21225000D03*
X55965000Y21225000D03*
%TD*%
M02*
