%TF.GenerationSoftware,KiCad,Pcbnew,5.1.5+dfsg1-2build2*%
%TF.CreationDate,2020-12-29T02:51:23+01:00*%
%TF.ProjectId,avr-prog,6176722d-7072-46f6-972e-6b696361645f,1.0*%
%TF.SameCoordinates,PX1e47770PY6a95280*%
%TF.FileFunction,Copper,L2,Bot*%
%TF.FilePolarity,Positive*%
%FSLAX46Y46*%
G04 Gerber Fmt 4.6, Leading zero omitted, Abs format (unit mm)*
G04 Created by KiCad (PCBNEW 5.1.5+dfsg1-2build2) date 2020-12-29 02:51:23*
%MOMM*%
%LPD*%
G04 APERTURE LIST*
%TA.AperFunction,ComponentPad*%
%ADD10C,1.600000*%
%TD*%
%TA.AperFunction,ComponentPad*%
%ADD11R,1.800000X1.800000*%
%TD*%
%TA.AperFunction,ComponentPad*%
%ADD12C,1.800000*%
%TD*%
%TA.AperFunction,ComponentPad*%
%ADD13R,1.600000X1.600000*%
%TD*%
%TA.AperFunction,ComponentPad*%
%ADD14O,1.600000X1.600000*%
%TD*%
%TA.AperFunction,ComponentPad*%
%ADD15R,1.727200X1.727200*%
%TD*%
%TA.AperFunction,ComponentPad*%
%ADD16O,1.727200X1.727200*%
%TD*%
%TA.AperFunction,ComponentPad*%
%ADD17R,1.700000X1.700000*%
%TD*%
%TA.AperFunction,ComponentPad*%
%ADD18O,1.700000X1.700000*%
%TD*%
%TA.AperFunction,ComponentPad*%
%ADD19R,2.000000X1.440000*%
%TD*%
%TA.AperFunction,ComponentPad*%
%ADD20O,2.000000X1.440000*%
%TD*%
%TA.AperFunction,ComponentPad*%
%ADD21C,1.500000*%
%TD*%
%TA.AperFunction,Conductor*%
%ADD22C,0.400000*%
%TD*%
G04 APERTURE END LIST*
D10*
%TO.P,C1,2*%
%TO.N,GND*%
X81280000Y25400000D03*
%TO.P,C1,1*%
%TO.N,+5V*%
X86280000Y25400000D03*
%TD*%
%TO.P,C2,2*%
%TO.N,/XTAL1*%
X44450000Y21510000D03*
%TO.P,C2,1*%
%TO.N,GND*%
X44450000Y16510000D03*
%TD*%
%TO.P,C3,1*%
%TO.N,GND*%
X62230000Y16510000D03*
%TO.P,C3,2*%
%TO.N,/XTAL2*%
X62230000Y21510000D03*
%TD*%
%TO.P,C4,1*%
%TO.N,/~RESET*%
X86360000Y31750000D03*
%TO.P,C4,2*%
%TO.N,GND*%
X81360000Y31750000D03*
%TD*%
D11*
%TO.P,D1,1*%
%TO.N,GND*%
X99060000Y77470000D03*
D12*
%TO.P,D1,2*%
%TO.N,Net-(D1-Pad2)*%
X99060000Y74930000D03*
%TD*%
D13*
%TO.P,D2,1*%
%TO.N,+5V*%
X100330000Y36830000D03*
D14*
%TO.P,D2,2*%
%TO.N,/~RESET*%
X100330000Y44450000D03*
%TD*%
D15*
%TO.P,J1,1*%
%TO.N,/MOSI*%
X107950000Y7620000D03*
D16*
%TO.P,J1,2*%
%TO.N,+5V*%
X107950000Y5080000D03*
%TO.P,J1,3*%
%TO.N,Net-(J1-Pad3)*%
X105410000Y7620000D03*
%TO.P,J1,4*%
%TO.N,GND*%
X105410000Y5080000D03*
%TO.P,J1,5*%
%TO.N,/~RESET*%
X102870000Y7620000D03*
%TO.P,J1,6*%
%TO.N,GND*%
X102870000Y5080000D03*
%TO.P,J1,7*%
%TO.N,/SCK*%
X100330000Y7620000D03*
%TO.P,J1,8*%
%TO.N,GND*%
X100330000Y5080000D03*
%TO.P,J1,9*%
%TO.N,/MISO*%
X97790000Y7620000D03*
%TO.P,J1,10*%
%TO.N,GND*%
X97790000Y5080000D03*
%TD*%
D17*
%TO.P,J2,1*%
%TO.N,+5V*%
X80010000Y5080000D03*
D18*
%TO.P,J2,2*%
%TO.N,GND*%
X77470000Y5080000D03*
%TO.P,J2,3*%
%TO.N,Net-(J2-Pad3)*%
X74930000Y5080000D03*
%TO.P,J2,4*%
%TO.N,Net-(J2-Pad4)*%
X72390000Y5080000D03*
%TO.P,J2,5*%
%TO.N,/~RESET*%
X69850000Y5080000D03*
%TD*%
D10*
%TO.P,R1,1*%
%TO.N,/Tx*%
X76200000Y19050000D03*
D14*
%TO.P,R1,2*%
%TO.N,Net-(J2-Pad3)*%
X76200000Y11430000D03*
%TD*%
%TO.P,R2,2*%
%TO.N,Net-(J2-Pad4)*%
X72390000Y11430000D03*
D10*
%TO.P,R2,1*%
%TO.N,/Rx*%
X72390000Y19050000D03*
%TD*%
D14*
%TO.P,R3,2*%
%TO.N,/led0*%
X99060000Y62230000D03*
D10*
%TO.P,R3,1*%
%TO.N,Net-(D1-Pad2)*%
X99060000Y69850000D03*
%TD*%
%TO.P,R4,1*%
%TO.N,+5V*%
X100330000Y31750000D03*
D14*
%TO.P,R4,2*%
%TO.N,/~RESET*%
X92710000Y31750000D03*
%TD*%
D19*
%TO.P,U1,1*%
%TO.N,/~RESET*%
X81280000Y67310000D03*
D20*
%TO.P,U1,20*%
%TO.N,+5V*%
X88900000Y67310000D03*
%TO.P,U1,2*%
%TO.N,/Rx*%
X81280000Y64770000D03*
%TO.P,U1,19*%
%TO.N,/SCK*%
X88900000Y64770000D03*
%TO.P,U1,3*%
%TO.N,/Tx*%
X81280000Y62230000D03*
%TO.P,U1,18*%
%TO.N,/MISO*%
X88900000Y62230000D03*
%TO.P,U1,4*%
%TO.N,/XTAL2*%
X81280000Y59690000D03*
%TO.P,U1,17*%
%TO.N,/MOSI*%
X88900000Y59690000D03*
%TO.P,U1,5*%
%TO.N,/XTAL1*%
X81280000Y57150000D03*
%TO.P,U1,16*%
%TO.N,Net-(U1-Pad16)*%
X88900000Y57150000D03*
%TO.P,U1,6*%
%TO.N,Net-(U1-Pad6)*%
X81280000Y54610000D03*
%TO.P,U1,15*%
%TO.N,Net-(U1-Pad15)*%
X88900000Y54610000D03*
%TO.P,U1,7*%
%TO.N,Net-(U1-Pad7)*%
X81280000Y52070000D03*
%TO.P,U1,14*%
%TO.N,Net-(U1-Pad14)*%
X88900000Y52070000D03*
%TO.P,U1,8*%
%TO.N,Net-(U1-Pad8)*%
X81280000Y49530000D03*
%TO.P,U1,13*%
%TO.N,Net-(U1-Pad13)*%
X88900000Y49530000D03*
%TO.P,U1,9*%
%TO.N,Net-(U1-Pad9)*%
X81280000Y46990000D03*
%TO.P,U1,12*%
%TO.N,/led0*%
X88900000Y46990000D03*
%TO.P,U1,10*%
%TO.N,GND*%
X81280000Y44450000D03*
%TO.P,U1,11*%
%TO.N,Net-(U1-Pad11)*%
X88900000Y44450000D03*
%TD*%
D19*
%TO.P,U2,1*%
%TO.N,/~RESET*%
X58600000Y67310000D03*
D20*
%TO.P,U2,28*%
%TO.N,Net-(U2-Pad28)*%
X68760000Y67310000D03*
%TO.P,U2,2*%
%TO.N,/Rx*%
X58600000Y64770000D03*
%TO.P,U2,27*%
%TO.N,Net-(U2-Pad27)*%
X68760000Y64770000D03*
%TO.P,U2,3*%
%TO.N,/Tx*%
X58600000Y62230000D03*
%TO.P,U2,26*%
%TO.N,Net-(U2-Pad26)*%
X68760000Y62230000D03*
%TO.P,U2,4*%
%TO.N,Net-(U2-Pad4)*%
X58600000Y59690000D03*
%TO.P,U2,25*%
%TO.N,Net-(U2-Pad25)*%
X68760000Y59690000D03*
%TO.P,U2,5*%
%TO.N,Net-(U2-Pad5)*%
X58600000Y57150000D03*
%TO.P,U2,24*%
%TO.N,Net-(U2-Pad24)*%
X68760000Y57150000D03*
%TO.P,U2,6*%
%TO.N,Net-(U2-Pad6)*%
X58600000Y54610000D03*
%TO.P,U2,23*%
%TO.N,Net-(U2-Pad23)*%
X68760000Y54610000D03*
%TO.P,U2,7*%
%TO.N,+5V*%
X58600000Y52070000D03*
%TO.P,U2,22*%
%TO.N,GND*%
X68760000Y52070000D03*
%TO.P,U2,8*%
X58600000Y49530000D03*
%TO.P,U2,21*%
%TO.N,+5V*%
X68760000Y49530000D03*
%TO.P,U2,9*%
%TO.N,/XTAL1*%
X58600000Y46990000D03*
%TO.P,U2,20*%
%TO.N,+5V*%
X68760000Y46990000D03*
%TO.P,U2,10*%
%TO.N,/XTAL2*%
X58600000Y44450000D03*
%TO.P,U2,19*%
%TO.N,/SCK*%
X68760000Y44450000D03*
%TO.P,U2,11*%
%TO.N,Net-(U2-Pad11)*%
X58600000Y41910000D03*
%TO.P,U2,18*%
%TO.N,/MISO*%
X68760000Y41910000D03*
%TO.P,U2,12*%
%TO.N,Net-(U2-Pad12)*%
X58600000Y39370000D03*
%TO.P,U2,17*%
%TO.N,/MOSI*%
X68760000Y39370000D03*
%TO.P,U2,13*%
%TO.N,Net-(U2-Pad13)*%
X58600000Y36830000D03*
%TO.P,U2,16*%
%TO.N,Net-(U2-Pad16)*%
X68760000Y36830000D03*
%TO.P,U2,14*%
%TO.N,/led0*%
X58600000Y34290000D03*
%TO.P,U2,15*%
%TO.N,Net-(U2-Pad15)*%
X68760000Y34290000D03*
%TD*%
D19*
%TO.P,U3,1*%
%TO.N,/led0*%
X7620000Y67310000D03*
D20*
%TO.P,U3,40*%
%TO.N,Net-(U3-Pad40)*%
X22860000Y67310000D03*
%TO.P,U3,2*%
%TO.N,Net-(U3-Pad2)*%
X7620000Y64770000D03*
%TO.P,U3,39*%
%TO.N,Net-(U3-Pad39)*%
X22860000Y64770000D03*
%TO.P,U3,3*%
%TO.N,Net-(U3-Pad3)*%
X7620000Y62230000D03*
%TO.P,U3,38*%
%TO.N,Net-(U3-Pad38)*%
X22860000Y62230000D03*
%TO.P,U3,4*%
%TO.N,Net-(U3-Pad4)*%
X7620000Y59690000D03*
%TO.P,U3,37*%
%TO.N,Net-(U3-Pad37)*%
X22860000Y59690000D03*
%TO.P,U3,5*%
%TO.N,Net-(U3-Pad5)*%
X7620000Y57150000D03*
%TO.P,U3,36*%
%TO.N,Net-(U3-Pad36)*%
X22860000Y57150000D03*
%TO.P,U3,6*%
%TO.N,/MOSI*%
X7620000Y54610000D03*
%TO.P,U3,35*%
%TO.N,Net-(U3-Pad35)*%
X22860000Y54610000D03*
%TO.P,U3,7*%
%TO.N,/MISO*%
X7620000Y52070000D03*
%TO.P,U3,34*%
%TO.N,Net-(U3-Pad34)*%
X22860000Y52070000D03*
%TO.P,U3,8*%
%TO.N,/SCK*%
X7620000Y49530000D03*
%TO.P,U3,33*%
%TO.N,Net-(U3-Pad33)*%
X22860000Y49530000D03*
%TO.P,U3,9*%
%TO.N,/~RESET*%
X7620000Y46990000D03*
%TO.P,U3,32*%
%TO.N,+5V*%
X22860000Y46990000D03*
%TO.P,U3,10*%
X7620000Y44450000D03*
%TO.P,U3,31*%
%TO.N,GND*%
X22860000Y44450000D03*
%TO.P,U3,11*%
X7620000Y41910000D03*
%TO.P,U3,30*%
%TO.N,+5V*%
X22860000Y41910000D03*
%TO.P,U3,12*%
%TO.N,/XTAL2*%
X7620000Y39370000D03*
%TO.P,U3,29*%
%TO.N,Net-(U3-Pad29)*%
X22860000Y39370000D03*
%TO.P,U3,13*%
%TO.N,/XTAL1*%
X7620000Y36830000D03*
%TO.P,U3,28*%
%TO.N,Net-(U3-Pad28)*%
X22860000Y36830000D03*
%TO.P,U3,14*%
%TO.N,/Rx*%
X7620000Y34290000D03*
%TO.P,U3,27*%
%TO.N,Net-(U3-Pad27)*%
X22860000Y34290000D03*
%TO.P,U3,15*%
%TO.N,/Tx*%
X7620000Y31750000D03*
%TO.P,U3,26*%
%TO.N,Net-(U3-Pad26)*%
X22860000Y31750000D03*
%TO.P,U3,16*%
%TO.N,Net-(U3-Pad16)*%
X7620000Y29210000D03*
%TO.P,U3,25*%
%TO.N,Net-(U3-Pad25)*%
X22860000Y29210000D03*
%TO.P,U3,17*%
%TO.N,Net-(U3-Pad17)*%
X7620000Y26670000D03*
%TO.P,U3,24*%
%TO.N,Net-(U3-Pad24)*%
X22860000Y26670000D03*
%TO.P,U3,18*%
%TO.N,Net-(U3-Pad18)*%
X7620000Y24130000D03*
%TO.P,U3,23*%
%TO.N,Net-(U3-Pad23)*%
X22860000Y24130000D03*
%TO.P,U3,19*%
%TO.N,Net-(U3-Pad19)*%
X7620000Y21590000D03*
%TO.P,U3,22*%
%TO.N,Net-(U3-Pad22)*%
X22860000Y21590000D03*
%TO.P,U3,20*%
%TO.N,Net-(U3-Pad20)*%
X7620000Y19050000D03*
%TO.P,U3,21*%
%TO.N,Net-(U3-Pad21)*%
X22860000Y19050000D03*
%TD*%
%TO.P,U4,15*%
%TO.N,Net-(U4-Pad15)*%
X45720000Y34290000D03*
%TO.P,U4,14*%
%TO.N,/led0*%
X35560000Y34290000D03*
%TO.P,U4,16*%
%TO.N,Net-(U4-Pad16)*%
X45720000Y36830000D03*
%TO.P,U4,13*%
%TO.N,Net-(U4-Pad13)*%
X35560000Y36830000D03*
%TO.P,U4,17*%
%TO.N,/MOSI*%
X45720000Y39370000D03*
%TO.P,U4,12*%
%TO.N,Net-(U4-Pad12)*%
X35560000Y39370000D03*
%TO.P,U4,18*%
%TO.N,/MISO*%
X45720000Y41910000D03*
%TO.P,U4,11*%
%TO.N,Net-(U4-Pad11)*%
X35560000Y41910000D03*
%TO.P,U4,19*%
%TO.N,/SCK*%
X45720000Y44450000D03*
%TO.P,U4,10*%
%TO.N,/XTAL2*%
X35560000Y44450000D03*
%TO.P,U4,20*%
%TO.N,+5V*%
X45720000Y46990000D03*
%TO.P,U4,9*%
%TO.N,/XTAL1*%
X35560000Y46990000D03*
%TO.P,U4,21*%
%TO.N,+5V*%
X45720000Y49530000D03*
%TO.P,U4,8*%
%TO.N,GND*%
X35560000Y49530000D03*
%TO.P,U4,22*%
X45720000Y52070000D03*
%TO.P,U4,7*%
%TO.N,+5V*%
X35560000Y52070000D03*
%TO.P,U4,23*%
%TO.N,Net-(U4-Pad23)*%
X45720000Y54610000D03*
%TO.P,U4,6*%
%TO.N,Net-(U4-Pad6)*%
X35560000Y54610000D03*
%TO.P,U4,24*%
%TO.N,Net-(U4-Pad24)*%
X45720000Y57150000D03*
%TO.P,U4,5*%
%TO.N,Net-(U4-Pad5)*%
X35560000Y57150000D03*
%TO.P,U4,25*%
%TO.N,Net-(U4-Pad25)*%
X45720000Y59690000D03*
%TO.P,U4,4*%
%TO.N,Net-(U4-Pad4)*%
X35560000Y59690000D03*
%TO.P,U4,26*%
%TO.N,Net-(U4-Pad26)*%
X45720000Y62230000D03*
%TO.P,U4,3*%
%TO.N,/Tx*%
X35560000Y62230000D03*
%TO.P,U4,27*%
%TO.N,Net-(U4-Pad27)*%
X45720000Y64770000D03*
%TO.P,U4,2*%
%TO.N,/Rx*%
X35560000Y64770000D03*
%TO.P,U4,28*%
%TO.N,Net-(U4-Pad28)*%
X45720000Y67310000D03*
D19*
%TO.P,U4,1*%
%TO.N,/~RESET*%
X35560000Y67310000D03*
%TD*%
D21*
%TO.P,Y1,1*%
%TO.N,/XTAL1*%
X51085000Y21225000D03*
%TO.P,Y1,2*%
%TO.N,/XTAL2*%
X55965000Y21225000D03*
%TD*%
D22*
%TO.N,GND*%
X74255100Y15254700D02*
X72999700Y16510000D01*
X72999700Y16510000D02*
X62230000Y16510000D01*
X77470000Y6430300D02*
X77549300Y6509600D01*
X77549300Y6509600D02*
X77549300Y11960400D01*
X77549300Y11960400D02*
X74255100Y15254700D01*
X81280000Y25400000D02*
X81280000Y22279600D01*
X81280000Y22279600D02*
X74255100Y15254700D01*
X77470000Y5080000D02*
X77470000Y6430300D01*
X58600000Y49530000D02*
X58600000Y50750300D01*
X99060000Y77470000D02*
X88977800Y77470000D01*
X88977800Y77470000D02*
X70680200Y59172400D01*
X70680200Y59172400D02*
X70680200Y54513400D01*
X70680200Y54513400D02*
X69457100Y53290300D01*
X69457100Y53290300D02*
X68760000Y53290300D01*
X81280000Y44450000D02*
X81280000Y43229700D01*
X81280000Y43229700D02*
X81360000Y43149700D01*
X81360000Y43149700D02*
X81360000Y31750000D01*
X68760000Y52070000D02*
X68760000Y53290300D01*
X58600000Y50750300D02*
X57913600Y50750300D01*
X57913600Y50750300D02*
X57083700Y51580200D01*
X57083700Y51580200D02*
X57083700Y52586500D01*
X57083700Y52586500D02*
X57787500Y53290300D01*
X57787500Y53290300D02*
X68760000Y53290300D01*
X35560000Y49530000D02*
X35560000Y50750300D01*
X45720000Y52070000D02*
X45720000Y50849700D01*
X35560000Y50750300D02*
X45620600Y50750300D01*
X45620600Y50750300D02*
X45720000Y50849700D01*
%TO.N,+5V*%
X86280000Y6518300D02*
X89118800Y3679500D01*
X89118800Y3679500D02*
X106549500Y3679500D01*
X106549500Y3679500D02*
X107950000Y5080000D01*
X80010000Y6430300D02*
X80098000Y6518300D01*
X80098000Y6518300D02*
X86280000Y6518300D01*
X86280000Y25400000D02*
X86280000Y6518300D01*
X88900000Y67310000D02*
X88900000Y66089700D01*
X68760000Y50044800D02*
X79675200Y60960000D01*
X79675200Y60960000D02*
X82550000Y60960000D01*
X82550000Y60960000D02*
X87679700Y66089700D01*
X87679700Y66089700D02*
X88900000Y66089700D01*
X68760000Y50044800D02*
X68760000Y50750300D01*
X68760000Y49530000D02*
X68760000Y50044800D01*
X58600000Y52070000D02*
X59919700Y50750300D01*
X59919700Y50750300D02*
X68760000Y50750300D01*
X80010000Y5080000D02*
X80010000Y6430300D01*
X100330000Y31750000D02*
X100330000Y36830000D01*
X68760000Y46990000D02*
X68760000Y49530000D01*
X22860000Y46990000D02*
X22860000Y45769700D01*
X22860000Y41910000D02*
X22860000Y43130300D01*
X22860000Y43130300D02*
X22173600Y43130300D01*
X22173600Y43130300D02*
X21359400Y43944500D01*
X21359400Y43944500D02*
X21359400Y44956500D01*
X21359400Y44956500D02*
X22172600Y45769700D01*
X22172600Y45769700D02*
X22860000Y45769700D01*
X45720000Y49530000D02*
X45720000Y46990000D01*
%TO.N,/XTAL1*%
X51085000Y21225000D02*
X44735000Y21225000D01*
X44735000Y21225000D02*
X44450000Y21510000D01*
X37089300Y30480000D02*
X6880800Y30480000D01*
X6880800Y30480000D02*
X6085700Y31275100D01*
X6085700Y31275100D02*
X6085700Y34762800D01*
X6085700Y34762800D02*
X6932600Y35609700D01*
X6932600Y35609700D02*
X7620000Y35609700D01*
X44450000Y21510000D02*
X37089300Y28870700D01*
X37089300Y28870700D02*
X37089300Y30480000D01*
X37089300Y30480000D02*
X37089300Y44927800D01*
X37089300Y44927800D02*
X36247400Y45769700D01*
X36247400Y45769700D02*
X35560000Y45769700D01*
X7620000Y36830000D02*
X7620000Y35609700D01*
X35560000Y46990000D02*
X35560000Y45769700D01*
%TO.N,/XTAL2*%
X58600000Y44450000D02*
X58600000Y43229700D01*
X58600000Y43229700D02*
X59286400Y43229700D01*
X59286400Y43229700D02*
X62230000Y40286100D01*
X62230000Y40286100D02*
X62230000Y21510000D01*
%TO.N,/~RESET*%
X100330000Y44450000D02*
X100330000Y45750300D01*
X81280000Y67310000D02*
X81280000Y68530300D01*
X81280000Y68530300D02*
X94644800Y68530300D01*
X94644800Y68530300D02*
X100385900Y62789200D01*
X100385900Y62789200D02*
X100385900Y45806200D01*
X100385900Y45806200D02*
X100330000Y45750300D01*
X35560000Y67310000D02*
X35560000Y66089700D01*
X7620000Y46990000D02*
X7620000Y48210300D01*
X7620000Y48210300D02*
X8840300Y48210300D01*
X8840300Y48210300D02*
X16510000Y55880000D01*
X16510000Y55880000D02*
X24130000Y55880000D01*
X24130000Y55880000D02*
X34339700Y66089700D01*
X34339700Y66089700D02*
X35560000Y66089700D01*
%TO.N,Net-(D1-Pad2)*%
X99060000Y69850000D02*
X99060000Y74930000D01*
%TO.N,/MOSI*%
X88900000Y59690000D02*
X88900000Y58469700D01*
X88900000Y58469700D02*
X88213600Y58469700D01*
X88213600Y58469700D02*
X87390900Y57647000D01*
X87390900Y57647000D02*
X87390900Y42065600D01*
X87390900Y42065600D02*
X107950000Y21506500D01*
X107950000Y21506500D02*
X107950000Y7620000D01*
%TO.N,/SCK*%
X83599400Y45670300D02*
X83599400Y44729800D01*
X83599400Y44729800D02*
X100330000Y27999200D01*
X100330000Y27999200D02*
X100330000Y7620000D01*
X88900000Y63549700D02*
X88140600Y63549700D01*
X88140600Y63549700D02*
X83599400Y59008500D01*
X83599400Y59008500D02*
X83599400Y45670300D01*
X68760000Y45670300D02*
X83599400Y45670300D01*
X56380700Y45670300D02*
X68760000Y45670300D01*
X45720000Y45670300D02*
X56380700Y45670300D01*
X7620000Y50750300D02*
X8840300Y50750300D01*
X8840300Y50750300D02*
X19050000Y60960000D01*
X19050000Y60960000D02*
X24360400Y60960000D01*
X24360400Y60960000D02*
X31930800Y68530400D01*
X31930800Y68530400D02*
X49903900Y68530400D01*
X49903900Y68530400D02*
X54934300Y63500000D01*
X54934300Y63500000D02*
X59382200Y63500000D01*
X59382200Y63500000D02*
X60137600Y62744600D01*
X60137600Y62744600D02*
X60137600Y59158600D01*
X60137600Y59158600D02*
X59388000Y58409000D01*
X59388000Y58409000D02*
X57771400Y58409000D01*
X57771400Y58409000D02*
X56380700Y57018300D01*
X56380700Y57018300D02*
X56380700Y45670300D01*
X7620000Y49530000D02*
X7620000Y50750300D01*
X45720000Y44450000D02*
X45720000Y45670300D01*
X68760000Y44450000D02*
X68760000Y45670300D01*
X88900000Y64770000D02*
X88900000Y63549700D01*
%TO.N,/MISO*%
X68760000Y41910000D02*
X68760000Y40689700D01*
X68760000Y40689700D02*
X69980300Y40689700D01*
X69980300Y40689700D02*
X80220400Y30449600D01*
X80220400Y30449600D02*
X83080200Y30449600D01*
X83080200Y30449600D02*
X97790000Y15739800D01*
X97790000Y15739800D02*
X97790000Y7620000D01*
%TO.N,Net-(J2-Pad3)*%
X76200000Y11430000D02*
X76200000Y10129700D01*
X76200000Y10129700D02*
X74930000Y8859700D01*
X74930000Y8859700D02*
X74930000Y5080000D01*
%TO.N,Net-(J2-Pad4)*%
X72390000Y11430000D02*
X72390000Y5080000D01*
%TO.N,/Tx*%
X29242100Y53840500D02*
X33649400Y58247800D01*
X33649400Y58247800D02*
X33649400Y59792500D01*
X33649400Y59792500D02*
X34866600Y61009700D01*
X34866600Y61009700D02*
X35560000Y61009700D01*
X7620000Y32970300D02*
X8306400Y32970300D01*
X8306400Y32970300D02*
X16125100Y40789000D01*
X16125100Y40789000D02*
X16125100Y42261200D01*
X16125100Y42261200D02*
X22123900Y48260000D01*
X22123900Y48260000D02*
X23661600Y48260000D01*
X23661600Y48260000D02*
X29242100Y53840500D01*
X29242100Y53840500D02*
X34822500Y48260000D01*
X34822500Y48260000D02*
X36298800Y48260000D01*
X36298800Y48260000D02*
X43859200Y40699600D01*
X43859200Y40699600D02*
X43859200Y39150500D01*
X43859200Y39150500D02*
X44909700Y38100000D01*
X44909700Y38100000D02*
X46501200Y38100000D01*
X46501200Y38100000D02*
X60404300Y24196900D01*
X60404300Y24196900D02*
X60404300Y21483700D01*
X60404300Y21483700D02*
X64139100Y17748900D01*
X64139100Y17748900D02*
X74898900Y17748900D01*
X74898900Y17748900D02*
X76200000Y19050000D01*
X7620000Y31750000D02*
X7620000Y32970300D01*
X58600000Y62230000D02*
X58600000Y61009700D01*
X35560000Y62230000D02*
X35560000Y61009700D01*
X35560000Y61009700D02*
X58600000Y61009700D01*
%TO.N,/Rx*%
X35560000Y64770000D02*
X35560000Y63549700D01*
X35560000Y63549700D02*
X34873600Y63549700D01*
X34873600Y63549700D02*
X24753800Y53429900D01*
X24753800Y53429900D02*
X24753800Y51941000D01*
X24753800Y51941000D02*
X23612800Y50800000D01*
X23612800Y50800000D02*
X22121200Y50800000D01*
X22121200Y50800000D02*
X10685600Y39364400D01*
X10685600Y39364400D02*
X10685600Y37355600D01*
X10685600Y37355600D02*
X7620000Y34290000D01*
%TO.N,/led0*%
X88900000Y46990000D02*
X88900000Y48210300D01*
X88900000Y48210300D02*
X89586400Y48210300D01*
X89586400Y48210300D02*
X99060000Y57683900D01*
X99060000Y57683900D02*
X99060000Y62230000D01*
%TD*%
M02*
