%TF.GenerationSoftware,KiCad,Pcbnew,5.1.5+dfsg1-2build2*%
%TF.CreationDate,2020-12-29T02:51:23+01:00*%
%TF.ProjectId,avr-prog,6176722d-7072-46f6-972e-6b696361645f,1.0*%
%TF.SameCoordinates,PX1e47770PY6a95280*%
%TF.FileFunction,Soldermask,Bot*%
%TF.FilePolarity,Negative*%
%FSLAX46Y46*%
G04 Gerber Fmt 4.6, Leading zero omitted, Abs format (unit mm)*
G04 Created by KiCad (PCBNEW 5.1.5+dfsg1-2build2) date 2020-12-29 02:51:23*
%MOMM*%
%LPD*%
G04 APERTURE LIST*
%ADD10C,0.150000*%
G04 APERTURE END LIST*
D10*
G36*
X103136778Y5959453D02*
G01*
X103303224Y5890509D01*
X103453022Y5790417D01*
X103580417Y5663022D01*
X103680509Y5513224D01*
X103749453Y5346778D01*
X103784600Y5170082D01*
X103784600Y4989918D01*
X103749453Y4813222D01*
X103680509Y4646776D01*
X103580417Y4496978D01*
X103453022Y4369583D01*
X103303224Y4269491D01*
X103136778Y4200547D01*
X102960082Y4165400D01*
X102779918Y4165400D01*
X102603222Y4200547D01*
X102436776Y4269491D01*
X102286978Y4369583D01*
X102159583Y4496978D01*
X102059491Y4646776D01*
X101990547Y4813222D01*
X101955400Y4989918D01*
X101955400Y5170082D01*
X101990547Y5346778D01*
X102059491Y5513224D01*
X102159583Y5663022D01*
X102286978Y5790417D01*
X102436776Y5890509D01*
X102603222Y5959453D01*
X102779918Y5994600D01*
X102960082Y5994600D01*
X103136778Y5959453D01*
G37*
G36*
X105676778Y5959453D02*
G01*
X105843224Y5890509D01*
X105993022Y5790417D01*
X106120417Y5663022D01*
X106220509Y5513224D01*
X106289453Y5346778D01*
X106324600Y5170082D01*
X106324600Y4989918D01*
X106289453Y4813222D01*
X106220509Y4646776D01*
X106120417Y4496978D01*
X105993022Y4369583D01*
X105843224Y4269491D01*
X105676778Y4200547D01*
X105500082Y4165400D01*
X105319918Y4165400D01*
X105143222Y4200547D01*
X104976776Y4269491D01*
X104826978Y4369583D01*
X104699583Y4496978D01*
X104599491Y4646776D01*
X104530547Y4813222D01*
X104495400Y4989918D01*
X104495400Y5170082D01*
X104530547Y5346778D01*
X104599491Y5513224D01*
X104699583Y5663022D01*
X104826978Y5790417D01*
X104976776Y5890509D01*
X105143222Y5959453D01*
X105319918Y5994600D01*
X105500082Y5994600D01*
X105676778Y5959453D01*
G37*
G36*
X108216778Y5959453D02*
G01*
X108383224Y5890509D01*
X108533022Y5790417D01*
X108660417Y5663022D01*
X108760509Y5513224D01*
X108829453Y5346778D01*
X108864600Y5170082D01*
X108864600Y4989918D01*
X108829453Y4813222D01*
X108760509Y4646776D01*
X108660417Y4496978D01*
X108533022Y4369583D01*
X108383224Y4269491D01*
X108216778Y4200547D01*
X108040082Y4165400D01*
X107859918Y4165400D01*
X107683222Y4200547D01*
X107516776Y4269491D01*
X107366978Y4369583D01*
X107239583Y4496978D01*
X107139491Y4646776D01*
X107070547Y4813222D01*
X107035400Y4989918D01*
X107035400Y5170082D01*
X107070547Y5346778D01*
X107139491Y5513224D01*
X107239583Y5663022D01*
X107366978Y5790417D01*
X107516776Y5890509D01*
X107683222Y5959453D01*
X107859918Y5994600D01*
X108040082Y5994600D01*
X108216778Y5959453D01*
G37*
G36*
X100596778Y5959453D02*
G01*
X100763224Y5890509D01*
X100913022Y5790417D01*
X101040417Y5663022D01*
X101140509Y5513224D01*
X101209453Y5346778D01*
X101244600Y5170082D01*
X101244600Y4989918D01*
X101209453Y4813222D01*
X101140509Y4646776D01*
X101040417Y4496978D01*
X100913022Y4369583D01*
X100763224Y4269491D01*
X100596778Y4200547D01*
X100420082Y4165400D01*
X100239918Y4165400D01*
X100063222Y4200547D01*
X99896776Y4269491D01*
X99746978Y4369583D01*
X99619583Y4496978D01*
X99519491Y4646776D01*
X99450547Y4813222D01*
X99415400Y4989918D01*
X99415400Y5170082D01*
X99450547Y5346778D01*
X99519491Y5513224D01*
X99619583Y5663022D01*
X99746978Y5790417D01*
X99896776Y5890509D01*
X100063222Y5959453D01*
X100239918Y5994600D01*
X100420082Y5994600D01*
X100596778Y5959453D01*
G37*
G36*
X98056778Y5959453D02*
G01*
X98223224Y5890509D01*
X98373022Y5790417D01*
X98500417Y5663022D01*
X98600509Y5513224D01*
X98669453Y5346778D01*
X98704600Y5170082D01*
X98704600Y4989918D01*
X98669453Y4813222D01*
X98600509Y4646776D01*
X98500417Y4496978D01*
X98373022Y4369583D01*
X98223224Y4269491D01*
X98056778Y4200547D01*
X97880082Y4165400D01*
X97699918Y4165400D01*
X97523222Y4200547D01*
X97356776Y4269491D01*
X97206978Y4369583D01*
X97079583Y4496978D01*
X96979491Y4646776D01*
X96910547Y4813222D01*
X96875400Y4989918D01*
X96875400Y5170082D01*
X96910547Y5346778D01*
X96979491Y5513224D01*
X97079583Y5663022D01*
X97206978Y5790417D01*
X97356776Y5890509D01*
X97523222Y5959453D01*
X97699918Y5994600D01*
X97880082Y5994600D01*
X98056778Y5959453D01*
G37*
G36*
X80911000Y4179000D02*
G01*
X79109000Y4179000D01*
X79109000Y5981000D01*
X80911000Y5981000D01*
X80911000Y4179000D01*
G37*
G36*
X77583512Y5976073D02*
G01*
X77732812Y5946376D01*
X77896784Y5878456D01*
X78044354Y5779853D01*
X78169853Y5654354D01*
X78268456Y5506784D01*
X78336376Y5342812D01*
X78371000Y5168741D01*
X78371000Y4991259D01*
X78336376Y4817188D01*
X78268456Y4653216D01*
X78169853Y4505646D01*
X78044354Y4380147D01*
X77896784Y4281544D01*
X77732812Y4213624D01*
X77583512Y4183927D01*
X77558742Y4179000D01*
X77381258Y4179000D01*
X77356488Y4183927D01*
X77207188Y4213624D01*
X77043216Y4281544D01*
X76895646Y4380147D01*
X76770147Y4505646D01*
X76671544Y4653216D01*
X76603624Y4817188D01*
X76569000Y4991259D01*
X76569000Y5168741D01*
X76603624Y5342812D01*
X76671544Y5506784D01*
X76770147Y5654354D01*
X76895646Y5779853D01*
X77043216Y5878456D01*
X77207188Y5946376D01*
X77356488Y5976073D01*
X77381258Y5981000D01*
X77558742Y5981000D01*
X77583512Y5976073D01*
G37*
G36*
X75043512Y5976073D02*
G01*
X75192812Y5946376D01*
X75356784Y5878456D01*
X75504354Y5779853D01*
X75629853Y5654354D01*
X75728456Y5506784D01*
X75796376Y5342812D01*
X75831000Y5168741D01*
X75831000Y4991259D01*
X75796376Y4817188D01*
X75728456Y4653216D01*
X75629853Y4505646D01*
X75504354Y4380147D01*
X75356784Y4281544D01*
X75192812Y4213624D01*
X75043512Y4183927D01*
X75018742Y4179000D01*
X74841258Y4179000D01*
X74816488Y4183927D01*
X74667188Y4213624D01*
X74503216Y4281544D01*
X74355646Y4380147D01*
X74230147Y4505646D01*
X74131544Y4653216D01*
X74063624Y4817188D01*
X74029000Y4991259D01*
X74029000Y5168741D01*
X74063624Y5342812D01*
X74131544Y5506784D01*
X74230147Y5654354D01*
X74355646Y5779853D01*
X74503216Y5878456D01*
X74667188Y5946376D01*
X74816488Y5976073D01*
X74841258Y5981000D01*
X75018742Y5981000D01*
X75043512Y5976073D01*
G37*
G36*
X72503512Y5976073D02*
G01*
X72652812Y5946376D01*
X72816784Y5878456D01*
X72964354Y5779853D01*
X73089853Y5654354D01*
X73188456Y5506784D01*
X73256376Y5342812D01*
X73291000Y5168741D01*
X73291000Y4991259D01*
X73256376Y4817188D01*
X73188456Y4653216D01*
X73089853Y4505646D01*
X72964354Y4380147D01*
X72816784Y4281544D01*
X72652812Y4213624D01*
X72503512Y4183927D01*
X72478742Y4179000D01*
X72301258Y4179000D01*
X72276488Y4183927D01*
X72127188Y4213624D01*
X71963216Y4281544D01*
X71815646Y4380147D01*
X71690147Y4505646D01*
X71591544Y4653216D01*
X71523624Y4817188D01*
X71489000Y4991259D01*
X71489000Y5168741D01*
X71523624Y5342812D01*
X71591544Y5506784D01*
X71690147Y5654354D01*
X71815646Y5779853D01*
X71963216Y5878456D01*
X72127188Y5946376D01*
X72276488Y5976073D01*
X72301258Y5981000D01*
X72478742Y5981000D01*
X72503512Y5976073D01*
G37*
G36*
X69963512Y5976073D02*
G01*
X70112812Y5946376D01*
X70276784Y5878456D01*
X70424354Y5779853D01*
X70549853Y5654354D01*
X70648456Y5506784D01*
X70716376Y5342812D01*
X70751000Y5168741D01*
X70751000Y4991259D01*
X70716376Y4817188D01*
X70648456Y4653216D01*
X70549853Y4505646D01*
X70424354Y4380147D01*
X70276784Y4281544D01*
X70112812Y4213624D01*
X69963512Y4183927D01*
X69938742Y4179000D01*
X69761258Y4179000D01*
X69736488Y4183927D01*
X69587188Y4213624D01*
X69423216Y4281544D01*
X69275646Y4380147D01*
X69150147Y4505646D01*
X69051544Y4653216D01*
X68983624Y4817188D01*
X68949000Y4991259D01*
X68949000Y5168741D01*
X68983624Y5342812D01*
X69051544Y5506784D01*
X69150147Y5654354D01*
X69275646Y5779853D01*
X69423216Y5878456D01*
X69587188Y5946376D01*
X69736488Y5976073D01*
X69761258Y5981000D01*
X69938742Y5981000D01*
X69963512Y5976073D01*
G37*
G36*
X108864600Y6705400D02*
G01*
X107035400Y6705400D01*
X107035400Y8534600D01*
X108864600Y8534600D01*
X108864600Y6705400D01*
G37*
G36*
X98056778Y8499453D02*
G01*
X98223224Y8430509D01*
X98373022Y8330417D01*
X98500417Y8203022D01*
X98600509Y8053224D01*
X98669453Y7886778D01*
X98704600Y7710082D01*
X98704600Y7529918D01*
X98669453Y7353222D01*
X98600509Y7186776D01*
X98500417Y7036978D01*
X98373022Y6909583D01*
X98223224Y6809491D01*
X98056778Y6740547D01*
X97880082Y6705400D01*
X97699918Y6705400D01*
X97523222Y6740547D01*
X97356776Y6809491D01*
X97206978Y6909583D01*
X97079583Y7036978D01*
X96979491Y7186776D01*
X96910547Y7353222D01*
X96875400Y7529918D01*
X96875400Y7710082D01*
X96910547Y7886778D01*
X96979491Y8053224D01*
X97079583Y8203022D01*
X97206978Y8330417D01*
X97356776Y8430509D01*
X97523222Y8499453D01*
X97699918Y8534600D01*
X97880082Y8534600D01*
X98056778Y8499453D01*
G37*
G36*
X105676778Y8499453D02*
G01*
X105843224Y8430509D01*
X105993022Y8330417D01*
X106120417Y8203022D01*
X106220509Y8053224D01*
X106289453Y7886778D01*
X106324600Y7710082D01*
X106324600Y7529918D01*
X106289453Y7353222D01*
X106220509Y7186776D01*
X106120417Y7036978D01*
X105993022Y6909583D01*
X105843224Y6809491D01*
X105676778Y6740547D01*
X105500082Y6705400D01*
X105319918Y6705400D01*
X105143222Y6740547D01*
X104976776Y6809491D01*
X104826978Y6909583D01*
X104699583Y7036978D01*
X104599491Y7186776D01*
X104530547Y7353222D01*
X104495400Y7529918D01*
X104495400Y7710082D01*
X104530547Y7886778D01*
X104599491Y8053224D01*
X104699583Y8203022D01*
X104826978Y8330417D01*
X104976776Y8430509D01*
X105143222Y8499453D01*
X105319918Y8534600D01*
X105500082Y8534600D01*
X105676778Y8499453D01*
G37*
G36*
X100596778Y8499453D02*
G01*
X100763224Y8430509D01*
X100913022Y8330417D01*
X101040417Y8203022D01*
X101140509Y8053224D01*
X101209453Y7886778D01*
X101244600Y7710082D01*
X101244600Y7529918D01*
X101209453Y7353222D01*
X101140509Y7186776D01*
X101040417Y7036978D01*
X100913022Y6909583D01*
X100763224Y6809491D01*
X100596778Y6740547D01*
X100420082Y6705400D01*
X100239918Y6705400D01*
X100063222Y6740547D01*
X99896776Y6809491D01*
X99746978Y6909583D01*
X99619583Y7036978D01*
X99519491Y7186776D01*
X99450547Y7353222D01*
X99415400Y7529918D01*
X99415400Y7710082D01*
X99450547Y7886778D01*
X99519491Y8053224D01*
X99619583Y8203022D01*
X99746978Y8330417D01*
X99896776Y8430509D01*
X100063222Y8499453D01*
X100239918Y8534600D01*
X100420082Y8534600D01*
X100596778Y8499453D01*
G37*
G36*
X103136778Y8499453D02*
G01*
X103303224Y8430509D01*
X103453022Y8330417D01*
X103580417Y8203022D01*
X103680509Y8053224D01*
X103749453Y7886778D01*
X103784600Y7710082D01*
X103784600Y7529918D01*
X103749453Y7353222D01*
X103680509Y7186776D01*
X103580417Y7036978D01*
X103453022Y6909583D01*
X103303224Y6809491D01*
X103136778Y6740547D01*
X102960082Y6705400D01*
X102779918Y6705400D01*
X102603222Y6740547D01*
X102436776Y6809491D01*
X102286978Y6909583D01*
X102159583Y7036978D01*
X102059491Y7186776D01*
X101990547Y7353222D01*
X101955400Y7529918D01*
X101955400Y7710082D01*
X101990547Y7886778D01*
X102059491Y8053224D01*
X102159583Y8203022D01*
X102286978Y8330417D01*
X102436776Y8430509D01*
X102603222Y8499453D01*
X102779918Y8534600D01*
X102960082Y8534600D01*
X103136778Y8499453D01*
G37*
G36*
X72638228Y12248297D02*
G01*
X72793100Y12184147D01*
X72932481Y12091015D01*
X73051015Y11972481D01*
X73144147Y11833100D01*
X73208297Y11678228D01*
X73241000Y11513816D01*
X73241000Y11346184D01*
X73208297Y11181772D01*
X73144147Y11026900D01*
X73051015Y10887519D01*
X72932481Y10768985D01*
X72793100Y10675853D01*
X72638228Y10611703D01*
X72473816Y10579000D01*
X72306184Y10579000D01*
X72141772Y10611703D01*
X71986900Y10675853D01*
X71847519Y10768985D01*
X71728985Y10887519D01*
X71635853Y11026900D01*
X71571703Y11181772D01*
X71539000Y11346184D01*
X71539000Y11513816D01*
X71571703Y11678228D01*
X71635853Y11833100D01*
X71728985Y11972481D01*
X71847519Y12091015D01*
X71986900Y12184147D01*
X72141772Y12248297D01*
X72306184Y12281000D01*
X72473816Y12281000D01*
X72638228Y12248297D01*
G37*
G36*
X76448228Y12248297D02*
G01*
X76603100Y12184147D01*
X76742481Y12091015D01*
X76861015Y11972481D01*
X76954147Y11833100D01*
X77018297Y11678228D01*
X77051000Y11513816D01*
X77051000Y11346184D01*
X77018297Y11181772D01*
X76954147Y11026900D01*
X76861015Y10887519D01*
X76742481Y10768985D01*
X76603100Y10675853D01*
X76448228Y10611703D01*
X76283816Y10579000D01*
X76116184Y10579000D01*
X75951772Y10611703D01*
X75796900Y10675853D01*
X75657519Y10768985D01*
X75538985Y10887519D01*
X75445853Y11026900D01*
X75381703Y11181772D01*
X75349000Y11346184D01*
X75349000Y11513816D01*
X75381703Y11678228D01*
X75445853Y11833100D01*
X75538985Y11972481D01*
X75657519Y12091015D01*
X75796900Y12184147D01*
X75951772Y12248297D01*
X76116184Y12281000D01*
X76283816Y12281000D01*
X76448228Y12248297D01*
G37*
G36*
X62478228Y17328297D02*
G01*
X62633100Y17264147D01*
X62772481Y17171015D01*
X62891015Y17052481D01*
X62984147Y16913100D01*
X63048297Y16758228D01*
X63081000Y16593816D01*
X63081000Y16426184D01*
X63048297Y16261772D01*
X62984147Y16106900D01*
X62891015Y15967519D01*
X62772481Y15848985D01*
X62633100Y15755853D01*
X62478228Y15691703D01*
X62313816Y15659000D01*
X62146184Y15659000D01*
X61981772Y15691703D01*
X61826900Y15755853D01*
X61687519Y15848985D01*
X61568985Y15967519D01*
X61475853Y16106900D01*
X61411703Y16261772D01*
X61379000Y16426184D01*
X61379000Y16593816D01*
X61411703Y16758228D01*
X61475853Y16913100D01*
X61568985Y17052481D01*
X61687519Y17171015D01*
X61826900Y17264147D01*
X61981772Y17328297D01*
X62146184Y17361000D01*
X62313816Y17361000D01*
X62478228Y17328297D01*
G37*
G36*
X44698228Y17328297D02*
G01*
X44853100Y17264147D01*
X44992481Y17171015D01*
X45111015Y17052481D01*
X45204147Y16913100D01*
X45268297Y16758228D01*
X45301000Y16593816D01*
X45301000Y16426184D01*
X45268297Y16261772D01*
X45204147Y16106900D01*
X45111015Y15967519D01*
X44992481Y15848985D01*
X44853100Y15755853D01*
X44698228Y15691703D01*
X44533816Y15659000D01*
X44366184Y15659000D01*
X44201772Y15691703D01*
X44046900Y15755853D01*
X43907519Y15848985D01*
X43788985Y15967519D01*
X43695853Y16106900D01*
X43631703Y16261772D01*
X43599000Y16426184D01*
X43599000Y16593816D01*
X43631703Y16758228D01*
X43695853Y16913100D01*
X43788985Y17052481D01*
X43907519Y17171015D01*
X44046900Y17264147D01*
X44201772Y17328297D01*
X44366184Y17361000D01*
X44533816Y17361000D01*
X44698228Y17328297D01*
G37*
G36*
X76448228Y19868297D02*
G01*
X76603100Y19804147D01*
X76742481Y19711015D01*
X76861015Y19592481D01*
X76954147Y19453100D01*
X77018297Y19298228D01*
X77051000Y19133816D01*
X77051000Y18966184D01*
X77018297Y18801772D01*
X76954147Y18646900D01*
X76861015Y18507519D01*
X76742481Y18388985D01*
X76603100Y18295853D01*
X76448228Y18231703D01*
X76283816Y18199000D01*
X76116184Y18199000D01*
X75951772Y18231703D01*
X75796900Y18295853D01*
X75657519Y18388985D01*
X75538985Y18507519D01*
X75445853Y18646900D01*
X75381703Y18801772D01*
X75349000Y18966184D01*
X75349000Y19133816D01*
X75381703Y19298228D01*
X75445853Y19453100D01*
X75538985Y19592481D01*
X75657519Y19711015D01*
X75796900Y19804147D01*
X75951772Y19868297D01*
X76116184Y19901000D01*
X76283816Y19901000D01*
X76448228Y19868297D01*
G37*
G36*
X72638228Y19868297D02*
G01*
X72793100Y19804147D01*
X72932481Y19711015D01*
X73051015Y19592481D01*
X73144147Y19453100D01*
X73208297Y19298228D01*
X73241000Y19133816D01*
X73241000Y18966184D01*
X73208297Y18801772D01*
X73144147Y18646900D01*
X73051015Y18507519D01*
X72932481Y18388985D01*
X72793100Y18295853D01*
X72638228Y18231703D01*
X72473816Y18199000D01*
X72306184Y18199000D01*
X72141772Y18231703D01*
X71986900Y18295853D01*
X71847519Y18388985D01*
X71728985Y18507519D01*
X71635853Y18646900D01*
X71571703Y18801772D01*
X71539000Y18966184D01*
X71539000Y19133816D01*
X71571703Y19298228D01*
X71635853Y19453100D01*
X71728985Y19592481D01*
X71847519Y19711015D01*
X71986900Y19804147D01*
X72141772Y19868297D01*
X72306184Y19901000D01*
X72473816Y19901000D01*
X72638228Y19868297D01*
G37*
G36*
X7975629Y19817281D02*
G01*
X8051142Y19809844D01*
X8196476Y19765757D01*
X8196479Y19765756D01*
X8330416Y19694165D01*
X8447817Y19597817D01*
X8544165Y19480416D01*
X8615756Y19346479D01*
X8615757Y19346476D01*
X8659844Y19201142D01*
X8674730Y19050000D01*
X8659844Y18898858D01*
X8615757Y18753524D01*
X8615756Y18753521D01*
X8544165Y18619584D01*
X8447817Y18502183D01*
X8330416Y18405835D01*
X8196479Y18334244D01*
X8196476Y18334243D01*
X8051142Y18290156D01*
X7975629Y18282719D01*
X7937873Y18279000D01*
X7302127Y18279000D01*
X7264371Y18282719D01*
X7188858Y18290156D01*
X7043524Y18334243D01*
X7043521Y18334244D01*
X6909584Y18405835D01*
X6792183Y18502183D01*
X6695835Y18619584D01*
X6624244Y18753521D01*
X6624243Y18753524D01*
X6580156Y18898858D01*
X6565270Y19050000D01*
X6580156Y19201142D01*
X6624243Y19346476D01*
X6624244Y19346479D01*
X6695835Y19480416D01*
X6792183Y19597817D01*
X6909584Y19694165D01*
X7043521Y19765756D01*
X7043524Y19765757D01*
X7188858Y19809844D01*
X7264371Y19817281D01*
X7302127Y19821000D01*
X7937873Y19821000D01*
X7975629Y19817281D01*
G37*
G36*
X23215629Y19817281D02*
G01*
X23291142Y19809844D01*
X23436476Y19765757D01*
X23436479Y19765756D01*
X23570416Y19694165D01*
X23687817Y19597817D01*
X23784165Y19480416D01*
X23855756Y19346479D01*
X23855757Y19346476D01*
X23899844Y19201142D01*
X23914730Y19050000D01*
X23899844Y18898858D01*
X23855757Y18753524D01*
X23855756Y18753521D01*
X23784165Y18619584D01*
X23687817Y18502183D01*
X23570416Y18405835D01*
X23436479Y18334244D01*
X23436476Y18334243D01*
X23291142Y18290156D01*
X23215629Y18282719D01*
X23177873Y18279000D01*
X22542127Y18279000D01*
X22504371Y18282719D01*
X22428858Y18290156D01*
X22283524Y18334243D01*
X22283521Y18334244D01*
X22149584Y18405835D01*
X22032183Y18502183D01*
X21935835Y18619584D01*
X21864244Y18753521D01*
X21864243Y18753524D01*
X21820156Y18898858D01*
X21805270Y19050000D01*
X21820156Y19201142D01*
X21864243Y19346476D01*
X21864244Y19346479D01*
X21935835Y19480416D01*
X22032183Y19597817D01*
X22149584Y19694165D01*
X22283521Y19765756D01*
X22283524Y19765757D01*
X22428858Y19809844D01*
X22504371Y19817281D01*
X22542127Y19821000D01*
X23177873Y19821000D01*
X23215629Y19817281D01*
G37*
G36*
X51318642Y21995219D02*
G01*
X51464414Y21934838D01*
X51464416Y21934837D01*
X51595608Y21847178D01*
X51707178Y21735608D01*
X51794837Y21604416D01*
X51794838Y21604414D01*
X51855219Y21458642D01*
X51886000Y21303893D01*
X51886000Y21146107D01*
X51855219Y20991358D01*
X51806708Y20874243D01*
X51794837Y20845584D01*
X51707178Y20714392D01*
X51595608Y20602822D01*
X51464416Y20515163D01*
X51464415Y20515162D01*
X51464414Y20515162D01*
X51318642Y20454781D01*
X51163893Y20424000D01*
X51006107Y20424000D01*
X50851358Y20454781D01*
X50705586Y20515162D01*
X50705585Y20515162D01*
X50705584Y20515163D01*
X50574392Y20602822D01*
X50462822Y20714392D01*
X50375163Y20845584D01*
X50363292Y20874243D01*
X50314781Y20991358D01*
X50284000Y21146107D01*
X50284000Y21303893D01*
X50314781Y21458642D01*
X50375162Y21604414D01*
X50375163Y21604416D01*
X50462822Y21735608D01*
X50574392Y21847178D01*
X50705584Y21934837D01*
X50705586Y21934838D01*
X50851358Y21995219D01*
X51006107Y22026000D01*
X51163893Y22026000D01*
X51318642Y21995219D01*
G37*
G36*
X56198642Y21995219D02*
G01*
X56344414Y21934838D01*
X56344416Y21934837D01*
X56475608Y21847178D01*
X56587178Y21735608D01*
X56674837Y21604416D01*
X56674838Y21604414D01*
X56735219Y21458642D01*
X56766000Y21303893D01*
X56766000Y21146107D01*
X56735219Y20991358D01*
X56686708Y20874243D01*
X56674837Y20845584D01*
X56587178Y20714392D01*
X56475608Y20602822D01*
X56344416Y20515163D01*
X56344415Y20515162D01*
X56344414Y20515162D01*
X56198642Y20454781D01*
X56043893Y20424000D01*
X55886107Y20424000D01*
X55731358Y20454781D01*
X55585586Y20515162D01*
X55585585Y20515162D01*
X55585584Y20515163D01*
X55454392Y20602822D01*
X55342822Y20714392D01*
X55255163Y20845584D01*
X55243292Y20874243D01*
X55194781Y20991358D01*
X55164000Y21146107D01*
X55164000Y21303893D01*
X55194781Y21458642D01*
X55255162Y21604414D01*
X55255163Y21604416D01*
X55342822Y21735608D01*
X55454392Y21847178D01*
X55585584Y21934837D01*
X55585586Y21934838D01*
X55731358Y21995219D01*
X55886107Y22026000D01*
X56043893Y22026000D01*
X56198642Y21995219D01*
G37*
G36*
X62478228Y22328297D02*
G01*
X62633100Y22264147D01*
X62772481Y22171015D01*
X62891015Y22052481D01*
X62984147Y21913100D01*
X63048297Y21758228D01*
X63081000Y21593816D01*
X63081000Y21426184D01*
X63048297Y21261772D01*
X62984147Y21106900D01*
X62891015Y20967519D01*
X62772481Y20848985D01*
X62633100Y20755853D01*
X62478228Y20691703D01*
X62313816Y20659000D01*
X62146184Y20659000D01*
X61981772Y20691703D01*
X61826900Y20755853D01*
X61687519Y20848985D01*
X61568985Y20967519D01*
X61475853Y21106900D01*
X61411703Y21261772D01*
X61379000Y21426184D01*
X61379000Y21593816D01*
X61411703Y21758228D01*
X61475853Y21913100D01*
X61568985Y22052481D01*
X61687519Y22171015D01*
X61826900Y22264147D01*
X61981772Y22328297D01*
X62146184Y22361000D01*
X62313816Y22361000D01*
X62478228Y22328297D01*
G37*
G36*
X44698228Y22328297D02*
G01*
X44853100Y22264147D01*
X44992481Y22171015D01*
X45111015Y22052481D01*
X45204147Y21913100D01*
X45268297Y21758228D01*
X45301000Y21593816D01*
X45301000Y21426184D01*
X45268297Y21261772D01*
X45204147Y21106900D01*
X45111015Y20967519D01*
X44992481Y20848985D01*
X44853100Y20755853D01*
X44698228Y20691703D01*
X44533816Y20659000D01*
X44366184Y20659000D01*
X44201772Y20691703D01*
X44046900Y20755853D01*
X43907519Y20848985D01*
X43788985Y20967519D01*
X43695853Y21106900D01*
X43631703Y21261772D01*
X43599000Y21426184D01*
X43599000Y21593816D01*
X43631703Y21758228D01*
X43695853Y21913100D01*
X43788985Y22052481D01*
X43907519Y22171015D01*
X44046900Y22264147D01*
X44201772Y22328297D01*
X44366184Y22361000D01*
X44533816Y22361000D01*
X44698228Y22328297D01*
G37*
G36*
X23215629Y22357281D02*
G01*
X23291142Y22349844D01*
X23436476Y22305757D01*
X23436479Y22305756D01*
X23570416Y22234165D01*
X23687817Y22137817D01*
X23784165Y22020416D01*
X23855756Y21886479D01*
X23855757Y21886476D01*
X23899844Y21741142D01*
X23914730Y21590000D01*
X23899844Y21438858D01*
X23895999Y21426184D01*
X23855756Y21293521D01*
X23784165Y21159584D01*
X23687817Y21042183D01*
X23570416Y20945835D01*
X23436479Y20874244D01*
X23436476Y20874243D01*
X23291142Y20830156D01*
X23215629Y20822719D01*
X23177873Y20819000D01*
X22542127Y20819000D01*
X22504371Y20822719D01*
X22428858Y20830156D01*
X22283524Y20874243D01*
X22283521Y20874244D01*
X22149584Y20945835D01*
X22032183Y21042183D01*
X21935835Y21159584D01*
X21864244Y21293521D01*
X21824001Y21426184D01*
X21820156Y21438858D01*
X21805270Y21590000D01*
X21820156Y21741142D01*
X21864243Y21886476D01*
X21864244Y21886479D01*
X21935835Y22020416D01*
X22032183Y22137817D01*
X22149584Y22234165D01*
X22283521Y22305756D01*
X22283524Y22305757D01*
X22428858Y22349844D01*
X22504371Y22357281D01*
X22542127Y22361000D01*
X23177873Y22361000D01*
X23215629Y22357281D01*
G37*
G36*
X7975629Y22357281D02*
G01*
X8051142Y22349844D01*
X8196476Y22305757D01*
X8196479Y22305756D01*
X8330416Y22234165D01*
X8447817Y22137817D01*
X8544165Y22020416D01*
X8615756Y21886479D01*
X8615757Y21886476D01*
X8659844Y21741142D01*
X8674730Y21590000D01*
X8659844Y21438858D01*
X8655999Y21426184D01*
X8615756Y21293521D01*
X8544165Y21159584D01*
X8447817Y21042183D01*
X8330416Y20945835D01*
X8196479Y20874244D01*
X8196476Y20874243D01*
X8051142Y20830156D01*
X7975629Y20822719D01*
X7937873Y20819000D01*
X7302127Y20819000D01*
X7264371Y20822719D01*
X7188858Y20830156D01*
X7043524Y20874243D01*
X7043521Y20874244D01*
X6909584Y20945835D01*
X6792183Y21042183D01*
X6695835Y21159584D01*
X6624244Y21293521D01*
X6584001Y21426184D01*
X6580156Y21438858D01*
X6565270Y21590000D01*
X6580156Y21741142D01*
X6624243Y21886476D01*
X6624244Y21886479D01*
X6695835Y22020416D01*
X6792183Y22137817D01*
X6909584Y22234165D01*
X7043521Y22305756D01*
X7043524Y22305757D01*
X7188858Y22349844D01*
X7264371Y22357281D01*
X7302127Y22361000D01*
X7937873Y22361000D01*
X7975629Y22357281D01*
G37*
G36*
X7975629Y24897281D02*
G01*
X8051142Y24889844D01*
X8196476Y24845757D01*
X8196479Y24845756D01*
X8330416Y24774165D01*
X8447817Y24677817D01*
X8544165Y24560416D01*
X8615756Y24426479D01*
X8615757Y24426476D01*
X8659844Y24281142D01*
X8674730Y24130000D01*
X8659844Y23978858D01*
X8615757Y23833524D01*
X8615756Y23833521D01*
X8544165Y23699584D01*
X8447817Y23582183D01*
X8330416Y23485835D01*
X8196479Y23414244D01*
X8196476Y23414243D01*
X8051142Y23370156D01*
X7975629Y23362719D01*
X7937873Y23359000D01*
X7302127Y23359000D01*
X7264371Y23362719D01*
X7188858Y23370156D01*
X7043524Y23414243D01*
X7043521Y23414244D01*
X6909584Y23485835D01*
X6792183Y23582183D01*
X6695835Y23699584D01*
X6624244Y23833521D01*
X6624243Y23833524D01*
X6580156Y23978858D01*
X6565270Y24130000D01*
X6580156Y24281142D01*
X6624243Y24426476D01*
X6624244Y24426479D01*
X6695835Y24560416D01*
X6792183Y24677817D01*
X6909584Y24774165D01*
X7043521Y24845756D01*
X7043524Y24845757D01*
X7188858Y24889844D01*
X7264371Y24897281D01*
X7302127Y24901000D01*
X7937873Y24901000D01*
X7975629Y24897281D01*
G37*
G36*
X23215629Y24897281D02*
G01*
X23291142Y24889844D01*
X23436476Y24845757D01*
X23436479Y24845756D01*
X23570416Y24774165D01*
X23687817Y24677817D01*
X23784165Y24560416D01*
X23855756Y24426479D01*
X23855757Y24426476D01*
X23899844Y24281142D01*
X23914730Y24130000D01*
X23899844Y23978858D01*
X23855757Y23833524D01*
X23855756Y23833521D01*
X23784165Y23699584D01*
X23687817Y23582183D01*
X23570416Y23485835D01*
X23436479Y23414244D01*
X23436476Y23414243D01*
X23291142Y23370156D01*
X23215629Y23362719D01*
X23177873Y23359000D01*
X22542127Y23359000D01*
X22504371Y23362719D01*
X22428858Y23370156D01*
X22283524Y23414243D01*
X22283521Y23414244D01*
X22149584Y23485835D01*
X22032183Y23582183D01*
X21935835Y23699584D01*
X21864244Y23833521D01*
X21864243Y23833524D01*
X21820156Y23978858D01*
X21805270Y24130000D01*
X21820156Y24281142D01*
X21864243Y24426476D01*
X21864244Y24426479D01*
X21935835Y24560416D01*
X22032183Y24677817D01*
X22149584Y24774165D01*
X22283521Y24845756D01*
X22283524Y24845757D01*
X22428858Y24889844D01*
X22504371Y24897281D01*
X22542127Y24901000D01*
X23177873Y24901000D01*
X23215629Y24897281D01*
G37*
G36*
X86528228Y26218297D02*
G01*
X86683100Y26154147D01*
X86822481Y26061015D01*
X86941015Y25942481D01*
X87034147Y25803100D01*
X87098297Y25648228D01*
X87131000Y25483816D01*
X87131000Y25316184D01*
X87098297Y25151772D01*
X87034147Y24996900D01*
X86941015Y24857519D01*
X86822481Y24738985D01*
X86683100Y24645853D01*
X86528228Y24581703D01*
X86363816Y24549000D01*
X86196184Y24549000D01*
X86031772Y24581703D01*
X85876900Y24645853D01*
X85737519Y24738985D01*
X85618985Y24857519D01*
X85525853Y24996900D01*
X85461703Y25151772D01*
X85429000Y25316184D01*
X85429000Y25483816D01*
X85461703Y25648228D01*
X85525853Y25803100D01*
X85618985Y25942481D01*
X85737519Y26061015D01*
X85876900Y26154147D01*
X86031772Y26218297D01*
X86196184Y26251000D01*
X86363816Y26251000D01*
X86528228Y26218297D01*
G37*
G36*
X81528228Y26218297D02*
G01*
X81683100Y26154147D01*
X81822481Y26061015D01*
X81941015Y25942481D01*
X82034147Y25803100D01*
X82098297Y25648228D01*
X82131000Y25483816D01*
X82131000Y25316184D01*
X82098297Y25151772D01*
X82034147Y24996900D01*
X81941015Y24857519D01*
X81822481Y24738985D01*
X81683100Y24645853D01*
X81528228Y24581703D01*
X81363816Y24549000D01*
X81196184Y24549000D01*
X81031772Y24581703D01*
X80876900Y24645853D01*
X80737519Y24738985D01*
X80618985Y24857519D01*
X80525853Y24996900D01*
X80461703Y25151772D01*
X80429000Y25316184D01*
X80429000Y25483816D01*
X80461703Y25648228D01*
X80525853Y25803100D01*
X80618985Y25942481D01*
X80737519Y26061015D01*
X80876900Y26154147D01*
X81031772Y26218297D01*
X81196184Y26251000D01*
X81363816Y26251000D01*
X81528228Y26218297D01*
G37*
G36*
X23215629Y27437281D02*
G01*
X23291142Y27429844D01*
X23436476Y27385757D01*
X23436479Y27385756D01*
X23570416Y27314165D01*
X23687817Y27217817D01*
X23784165Y27100416D01*
X23855756Y26966479D01*
X23855757Y26966476D01*
X23899844Y26821142D01*
X23914730Y26670000D01*
X23899844Y26518858D01*
X23855757Y26373524D01*
X23855756Y26373521D01*
X23784165Y26239584D01*
X23687817Y26122183D01*
X23570416Y26025835D01*
X23436479Y25954244D01*
X23436476Y25954243D01*
X23291142Y25910156D01*
X23215629Y25902719D01*
X23177873Y25899000D01*
X22542127Y25899000D01*
X22504371Y25902719D01*
X22428858Y25910156D01*
X22283524Y25954243D01*
X22283521Y25954244D01*
X22149584Y26025835D01*
X22032183Y26122183D01*
X21935835Y26239584D01*
X21864244Y26373521D01*
X21864243Y26373524D01*
X21820156Y26518858D01*
X21805270Y26670000D01*
X21820156Y26821142D01*
X21864243Y26966476D01*
X21864244Y26966479D01*
X21935835Y27100416D01*
X22032183Y27217817D01*
X22149584Y27314165D01*
X22283521Y27385756D01*
X22283524Y27385757D01*
X22428858Y27429844D01*
X22504371Y27437281D01*
X22542127Y27441000D01*
X23177873Y27441000D01*
X23215629Y27437281D01*
G37*
G36*
X7975629Y27437281D02*
G01*
X8051142Y27429844D01*
X8196476Y27385757D01*
X8196479Y27385756D01*
X8330416Y27314165D01*
X8447817Y27217817D01*
X8544165Y27100416D01*
X8615756Y26966479D01*
X8615757Y26966476D01*
X8659844Y26821142D01*
X8674730Y26670000D01*
X8659844Y26518858D01*
X8615757Y26373524D01*
X8615756Y26373521D01*
X8544165Y26239584D01*
X8447817Y26122183D01*
X8330416Y26025835D01*
X8196479Y25954244D01*
X8196476Y25954243D01*
X8051142Y25910156D01*
X7975629Y25902719D01*
X7937873Y25899000D01*
X7302127Y25899000D01*
X7264371Y25902719D01*
X7188858Y25910156D01*
X7043524Y25954243D01*
X7043521Y25954244D01*
X6909584Y26025835D01*
X6792183Y26122183D01*
X6695835Y26239584D01*
X6624244Y26373521D01*
X6624243Y26373524D01*
X6580156Y26518858D01*
X6565270Y26670000D01*
X6580156Y26821142D01*
X6624243Y26966476D01*
X6624244Y26966479D01*
X6695835Y27100416D01*
X6792183Y27217817D01*
X6909584Y27314165D01*
X7043521Y27385756D01*
X7043524Y27385757D01*
X7188858Y27429844D01*
X7264371Y27437281D01*
X7302127Y27441000D01*
X7937873Y27441000D01*
X7975629Y27437281D01*
G37*
G36*
X7975629Y29977281D02*
G01*
X8051142Y29969844D01*
X8196476Y29925757D01*
X8196479Y29925756D01*
X8330416Y29854165D01*
X8447817Y29757817D01*
X8544165Y29640416D01*
X8615756Y29506479D01*
X8615757Y29506476D01*
X8659844Y29361142D01*
X8674730Y29210000D01*
X8659844Y29058858D01*
X8615757Y28913524D01*
X8615756Y28913521D01*
X8544165Y28779584D01*
X8447817Y28662183D01*
X8330416Y28565835D01*
X8196479Y28494244D01*
X8196476Y28494243D01*
X8051142Y28450156D01*
X7975629Y28442719D01*
X7937873Y28439000D01*
X7302127Y28439000D01*
X7264371Y28442719D01*
X7188858Y28450156D01*
X7043524Y28494243D01*
X7043521Y28494244D01*
X6909584Y28565835D01*
X6792183Y28662183D01*
X6695835Y28779584D01*
X6624244Y28913521D01*
X6624243Y28913524D01*
X6580156Y29058858D01*
X6565270Y29210000D01*
X6580156Y29361142D01*
X6624243Y29506476D01*
X6624244Y29506479D01*
X6695835Y29640416D01*
X6792183Y29757817D01*
X6909584Y29854165D01*
X7043521Y29925756D01*
X7043524Y29925757D01*
X7188858Y29969844D01*
X7264371Y29977281D01*
X7302127Y29981000D01*
X7937873Y29981000D01*
X7975629Y29977281D01*
G37*
G36*
X23215629Y29977281D02*
G01*
X23291142Y29969844D01*
X23436476Y29925757D01*
X23436479Y29925756D01*
X23570416Y29854165D01*
X23687817Y29757817D01*
X23784165Y29640416D01*
X23855756Y29506479D01*
X23855757Y29506476D01*
X23899844Y29361142D01*
X23914730Y29210000D01*
X23899844Y29058858D01*
X23855757Y28913524D01*
X23855756Y28913521D01*
X23784165Y28779584D01*
X23687817Y28662183D01*
X23570416Y28565835D01*
X23436479Y28494244D01*
X23436476Y28494243D01*
X23291142Y28450156D01*
X23215629Y28442719D01*
X23177873Y28439000D01*
X22542127Y28439000D01*
X22504371Y28442719D01*
X22428858Y28450156D01*
X22283524Y28494243D01*
X22283521Y28494244D01*
X22149584Y28565835D01*
X22032183Y28662183D01*
X21935835Y28779584D01*
X21864244Y28913521D01*
X21864243Y28913524D01*
X21820156Y29058858D01*
X21805270Y29210000D01*
X21820156Y29361142D01*
X21864243Y29506476D01*
X21864244Y29506479D01*
X21935835Y29640416D01*
X22032183Y29757817D01*
X22149584Y29854165D01*
X22283521Y29925756D01*
X22283524Y29925757D01*
X22428858Y29969844D01*
X22504371Y29977281D01*
X22542127Y29981000D01*
X23177873Y29981000D01*
X23215629Y29977281D01*
G37*
G36*
X92958228Y32568297D02*
G01*
X93113100Y32504147D01*
X93252481Y32411015D01*
X93371015Y32292481D01*
X93464147Y32153100D01*
X93528297Y31998228D01*
X93561000Y31833816D01*
X93561000Y31666184D01*
X93528297Y31501772D01*
X93464147Y31346900D01*
X93371015Y31207519D01*
X93252481Y31088985D01*
X93113100Y30995853D01*
X92958228Y30931703D01*
X92793816Y30899000D01*
X92626184Y30899000D01*
X92461772Y30931703D01*
X92306900Y30995853D01*
X92167519Y31088985D01*
X92048985Y31207519D01*
X91955853Y31346900D01*
X91891703Y31501772D01*
X91859000Y31666184D01*
X91859000Y31833816D01*
X91891703Y31998228D01*
X91955853Y32153100D01*
X92048985Y32292481D01*
X92167519Y32411015D01*
X92306900Y32504147D01*
X92461772Y32568297D01*
X92626184Y32601000D01*
X92793816Y32601000D01*
X92958228Y32568297D01*
G37*
G36*
X100578228Y32568297D02*
G01*
X100733100Y32504147D01*
X100872481Y32411015D01*
X100991015Y32292481D01*
X101084147Y32153100D01*
X101148297Y31998228D01*
X101181000Y31833816D01*
X101181000Y31666184D01*
X101148297Y31501772D01*
X101084147Y31346900D01*
X100991015Y31207519D01*
X100872481Y31088985D01*
X100733100Y30995853D01*
X100578228Y30931703D01*
X100413816Y30899000D01*
X100246184Y30899000D01*
X100081772Y30931703D01*
X99926900Y30995853D01*
X99787519Y31088985D01*
X99668985Y31207519D01*
X99575853Y31346900D01*
X99511703Y31501772D01*
X99479000Y31666184D01*
X99479000Y31833816D01*
X99511703Y31998228D01*
X99575853Y32153100D01*
X99668985Y32292481D01*
X99787519Y32411015D01*
X99926900Y32504147D01*
X100081772Y32568297D01*
X100246184Y32601000D01*
X100413816Y32601000D01*
X100578228Y32568297D01*
G37*
G36*
X86608228Y32568297D02*
G01*
X86763100Y32504147D01*
X86902481Y32411015D01*
X87021015Y32292481D01*
X87114147Y32153100D01*
X87178297Y31998228D01*
X87211000Y31833816D01*
X87211000Y31666184D01*
X87178297Y31501772D01*
X87114147Y31346900D01*
X87021015Y31207519D01*
X86902481Y31088985D01*
X86763100Y30995853D01*
X86608228Y30931703D01*
X86443816Y30899000D01*
X86276184Y30899000D01*
X86111772Y30931703D01*
X85956900Y30995853D01*
X85817519Y31088985D01*
X85698985Y31207519D01*
X85605853Y31346900D01*
X85541703Y31501772D01*
X85509000Y31666184D01*
X85509000Y31833816D01*
X85541703Y31998228D01*
X85605853Y32153100D01*
X85698985Y32292481D01*
X85817519Y32411015D01*
X85956900Y32504147D01*
X86111772Y32568297D01*
X86276184Y32601000D01*
X86443816Y32601000D01*
X86608228Y32568297D01*
G37*
G36*
X81608228Y32568297D02*
G01*
X81763100Y32504147D01*
X81902481Y32411015D01*
X82021015Y32292481D01*
X82114147Y32153100D01*
X82178297Y31998228D01*
X82211000Y31833816D01*
X82211000Y31666184D01*
X82178297Y31501772D01*
X82114147Y31346900D01*
X82021015Y31207519D01*
X81902481Y31088985D01*
X81763100Y30995853D01*
X81608228Y30931703D01*
X81443816Y30899000D01*
X81276184Y30899000D01*
X81111772Y30931703D01*
X80956900Y30995853D01*
X80817519Y31088985D01*
X80698985Y31207519D01*
X80605853Y31346900D01*
X80541703Y31501772D01*
X80509000Y31666184D01*
X80509000Y31833816D01*
X80541703Y31998228D01*
X80605853Y32153100D01*
X80698985Y32292481D01*
X80817519Y32411015D01*
X80956900Y32504147D01*
X81111772Y32568297D01*
X81276184Y32601000D01*
X81443816Y32601000D01*
X81608228Y32568297D01*
G37*
G36*
X23215629Y32517281D02*
G01*
X23291142Y32509844D01*
X23436476Y32465757D01*
X23436479Y32465756D01*
X23570416Y32394165D01*
X23687817Y32297817D01*
X23784165Y32180416D01*
X23855756Y32046479D01*
X23855757Y32046476D01*
X23899844Y31901142D01*
X23914730Y31750000D01*
X23899844Y31598858D01*
X23855757Y31453524D01*
X23855756Y31453521D01*
X23784165Y31319584D01*
X23687817Y31202183D01*
X23570416Y31105835D01*
X23436479Y31034244D01*
X23436476Y31034243D01*
X23291142Y30990156D01*
X23215629Y30982719D01*
X23177873Y30979000D01*
X22542127Y30979000D01*
X22504371Y30982719D01*
X22428858Y30990156D01*
X22283524Y31034243D01*
X22283521Y31034244D01*
X22149584Y31105835D01*
X22032183Y31202183D01*
X21935835Y31319584D01*
X21864244Y31453521D01*
X21864243Y31453524D01*
X21820156Y31598858D01*
X21805270Y31750000D01*
X21820156Y31901142D01*
X21864243Y32046476D01*
X21864244Y32046479D01*
X21935835Y32180416D01*
X22032183Y32297817D01*
X22149584Y32394165D01*
X22283521Y32465756D01*
X22283524Y32465757D01*
X22428858Y32509844D01*
X22504371Y32517281D01*
X22542127Y32521000D01*
X23177873Y32521000D01*
X23215629Y32517281D01*
G37*
G36*
X7975629Y32517281D02*
G01*
X8051142Y32509844D01*
X8196476Y32465757D01*
X8196479Y32465756D01*
X8330416Y32394165D01*
X8447817Y32297817D01*
X8544165Y32180416D01*
X8615756Y32046479D01*
X8615757Y32046476D01*
X8659844Y31901142D01*
X8674730Y31750000D01*
X8659844Y31598858D01*
X8615757Y31453524D01*
X8615756Y31453521D01*
X8544165Y31319584D01*
X8447817Y31202183D01*
X8330416Y31105835D01*
X8196479Y31034244D01*
X8196476Y31034243D01*
X8051142Y30990156D01*
X7975629Y30982719D01*
X7937873Y30979000D01*
X7302127Y30979000D01*
X7264371Y30982719D01*
X7188858Y30990156D01*
X7043524Y31034243D01*
X7043521Y31034244D01*
X6909584Y31105835D01*
X6792183Y31202183D01*
X6695835Y31319584D01*
X6624244Y31453521D01*
X6624243Y31453524D01*
X6580156Y31598858D01*
X6565270Y31750000D01*
X6580156Y31901142D01*
X6624243Y32046476D01*
X6624244Y32046479D01*
X6695835Y32180416D01*
X6792183Y32297817D01*
X6909584Y32394165D01*
X7043521Y32465756D01*
X7043524Y32465757D01*
X7188858Y32509844D01*
X7264371Y32517281D01*
X7302127Y32521000D01*
X7937873Y32521000D01*
X7975629Y32517281D01*
G37*
G36*
X58955629Y35057281D02*
G01*
X59031142Y35049844D01*
X59176476Y35005757D01*
X59176479Y35005756D01*
X59310416Y34934165D01*
X59427817Y34837817D01*
X59524165Y34720416D01*
X59595756Y34586479D01*
X59595757Y34586476D01*
X59639844Y34441142D01*
X59654730Y34290000D01*
X59639844Y34138858D01*
X59595757Y33993524D01*
X59595756Y33993521D01*
X59524165Y33859584D01*
X59427817Y33742183D01*
X59310416Y33645835D01*
X59176479Y33574244D01*
X59176476Y33574243D01*
X59031142Y33530156D01*
X58955629Y33522719D01*
X58917873Y33519000D01*
X58282127Y33519000D01*
X58244371Y33522719D01*
X58168858Y33530156D01*
X58023524Y33574243D01*
X58023521Y33574244D01*
X57889584Y33645835D01*
X57772183Y33742183D01*
X57675835Y33859584D01*
X57604244Y33993521D01*
X57604243Y33993524D01*
X57560156Y34138858D01*
X57545270Y34290000D01*
X57560156Y34441142D01*
X57604243Y34586476D01*
X57604244Y34586479D01*
X57675835Y34720416D01*
X57772183Y34837817D01*
X57889584Y34934165D01*
X58023521Y35005756D01*
X58023524Y35005757D01*
X58168858Y35049844D01*
X58244371Y35057281D01*
X58282127Y35061000D01*
X58917873Y35061000D01*
X58955629Y35057281D01*
G37*
G36*
X23215629Y35057281D02*
G01*
X23291142Y35049844D01*
X23436476Y35005757D01*
X23436479Y35005756D01*
X23570416Y34934165D01*
X23687817Y34837817D01*
X23784165Y34720416D01*
X23855756Y34586479D01*
X23855757Y34586476D01*
X23899844Y34441142D01*
X23914730Y34290000D01*
X23899844Y34138858D01*
X23855757Y33993524D01*
X23855756Y33993521D01*
X23784165Y33859584D01*
X23687817Y33742183D01*
X23570416Y33645835D01*
X23436479Y33574244D01*
X23436476Y33574243D01*
X23291142Y33530156D01*
X23215629Y33522719D01*
X23177873Y33519000D01*
X22542127Y33519000D01*
X22504371Y33522719D01*
X22428858Y33530156D01*
X22283524Y33574243D01*
X22283521Y33574244D01*
X22149584Y33645835D01*
X22032183Y33742183D01*
X21935835Y33859584D01*
X21864244Y33993521D01*
X21864243Y33993524D01*
X21820156Y34138858D01*
X21805270Y34290000D01*
X21820156Y34441142D01*
X21864243Y34586476D01*
X21864244Y34586479D01*
X21935835Y34720416D01*
X22032183Y34837817D01*
X22149584Y34934165D01*
X22283521Y35005756D01*
X22283524Y35005757D01*
X22428858Y35049844D01*
X22504371Y35057281D01*
X22542127Y35061000D01*
X23177873Y35061000D01*
X23215629Y35057281D01*
G37*
G36*
X7975629Y35057281D02*
G01*
X8051142Y35049844D01*
X8196476Y35005757D01*
X8196479Y35005756D01*
X8330416Y34934165D01*
X8447817Y34837817D01*
X8544165Y34720416D01*
X8615756Y34586479D01*
X8615757Y34586476D01*
X8659844Y34441142D01*
X8674730Y34290000D01*
X8659844Y34138858D01*
X8615757Y33993524D01*
X8615756Y33993521D01*
X8544165Y33859584D01*
X8447817Y33742183D01*
X8330416Y33645835D01*
X8196479Y33574244D01*
X8196476Y33574243D01*
X8051142Y33530156D01*
X7975629Y33522719D01*
X7937873Y33519000D01*
X7302127Y33519000D01*
X7264371Y33522719D01*
X7188858Y33530156D01*
X7043524Y33574243D01*
X7043521Y33574244D01*
X6909584Y33645835D01*
X6792183Y33742183D01*
X6695835Y33859584D01*
X6624244Y33993521D01*
X6624243Y33993524D01*
X6580156Y34138858D01*
X6565270Y34290000D01*
X6580156Y34441142D01*
X6624243Y34586476D01*
X6624244Y34586479D01*
X6695835Y34720416D01*
X6792183Y34837817D01*
X6909584Y34934165D01*
X7043521Y35005756D01*
X7043524Y35005757D01*
X7188858Y35049844D01*
X7264371Y35057281D01*
X7302127Y35061000D01*
X7937873Y35061000D01*
X7975629Y35057281D01*
G37*
G36*
X35915629Y35057281D02*
G01*
X35991142Y35049844D01*
X36136476Y35005757D01*
X36136479Y35005756D01*
X36270416Y34934165D01*
X36387817Y34837817D01*
X36484165Y34720416D01*
X36555756Y34586479D01*
X36555757Y34586476D01*
X36599844Y34441142D01*
X36614730Y34290000D01*
X36599844Y34138858D01*
X36555757Y33993524D01*
X36555756Y33993521D01*
X36484165Y33859584D01*
X36387817Y33742183D01*
X36270416Y33645835D01*
X36136479Y33574244D01*
X36136476Y33574243D01*
X35991142Y33530156D01*
X35915629Y33522719D01*
X35877873Y33519000D01*
X35242127Y33519000D01*
X35204371Y33522719D01*
X35128858Y33530156D01*
X34983524Y33574243D01*
X34983521Y33574244D01*
X34849584Y33645835D01*
X34732183Y33742183D01*
X34635835Y33859584D01*
X34564244Y33993521D01*
X34564243Y33993524D01*
X34520156Y34138858D01*
X34505270Y34290000D01*
X34520156Y34441142D01*
X34564243Y34586476D01*
X34564244Y34586479D01*
X34635835Y34720416D01*
X34732183Y34837817D01*
X34849584Y34934165D01*
X34983521Y35005756D01*
X34983524Y35005757D01*
X35128858Y35049844D01*
X35204371Y35057281D01*
X35242127Y35061000D01*
X35877873Y35061000D01*
X35915629Y35057281D01*
G37*
G36*
X69115629Y35057281D02*
G01*
X69191142Y35049844D01*
X69336476Y35005757D01*
X69336479Y35005756D01*
X69470416Y34934165D01*
X69587817Y34837817D01*
X69684165Y34720416D01*
X69755756Y34586479D01*
X69755757Y34586476D01*
X69799844Y34441142D01*
X69814730Y34290000D01*
X69799844Y34138858D01*
X69755757Y33993524D01*
X69755756Y33993521D01*
X69684165Y33859584D01*
X69587817Y33742183D01*
X69470416Y33645835D01*
X69336479Y33574244D01*
X69336476Y33574243D01*
X69191142Y33530156D01*
X69115629Y33522719D01*
X69077873Y33519000D01*
X68442127Y33519000D01*
X68404371Y33522719D01*
X68328858Y33530156D01*
X68183524Y33574243D01*
X68183521Y33574244D01*
X68049584Y33645835D01*
X67932183Y33742183D01*
X67835835Y33859584D01*
X67764244Y33993521D01*
X67764243Y33993524D01*
X67720156Y34138858D01*
X67705270Y34290000D01*
X67720156Y34441142D01*
X67764243Y34586476D01*
X67764244Y34586479D01*
X67835835Y34720416D01*
X67932183Y34837817D01*
X68049584Y34934165D01*
X68183521Y35005756D01*
X68183524Y35005757D01*
X68328858Y35049844D01*
X68404371Y35057281D01*
X68442127Y35061000D01*
X69077873Y35061000D01*
X69115629Y35057281D01*
G37*
G36*
X46075629Y35057281D02*
G01*
X46151142Y35049844D01*
X46296476Y35005757D01*
X46296479Y35005756D01*
X46430416Y34934165D01*
X46547817Y34837817D01*
X46644165Y34720416D01*
X46715756Y34586479D01*
X46715757Y34586476D01*
X46759844Y34441142D01*
X46774730Y34290000D01*
X46759844Y34138858D01*
X46715757Y33993524D01*
X46715756Y33993521D01*
X46644165Y33859584D01*
X46547817Y33742183D01*
X46430416Y33645835D01*
X46296479Y33574244D01*
X46296476Y33574243D01*
X46151142Y33530156D01*
X46075629Y33522719D01*
X46037873Y33519000D01*
X45402127Y33519000D01*
X45364371Y33522719D01*
X45288858Y33530156D01*
X45143524Y33574243D01*
X45143521Y33574244D01*
X45009584Y33645835D01*
X44892183Y33742183D01*
X44795835Y33859584D01*
X44724244Y33993521D01*
X44724243Y33993524D01*
X44680156Y34138858D01*
X44665270Y34290000D01*
X44680156Y34441142D01*
X44724243Y34586476D01*
X44724244Y34586479D01*
X44795835Y34720416D01*
X44892183Y34837817D01*
X45009584Y34934165D01*
X45143521Y35005756D01*
X45143524Y35005757D01*
X45288858Y35049844D01*
X45364371Y35057281D01*
X45402127Y35061000D01*
X46037873Y35061000D01*
X46075629Y35057281D01*
G37*
G36*
X101181000Y35979000D02*
G01*
X99479000Y35979000D01*
X99479000Y37681000D01*
X101181000Y37681000D01*
X101181000Y35979000D01*
G37*
G36*
X46075629Y37597281D02*
G01*
X46151142Y37589844D01*
X46296476Y37545757D01*
X46296479Y37545756D01*
X46430416Y37474165D01*
X46547817Y37377817D01*
X46644165Y37260416D01*
X46715756Y37126479D01*
X46715757Y37126476D01*
X46759844Y36981142D01*
X46774730Y36830000D01*
X46759844Y36678858D01*
X46715757Y36533524D01*
X46715756Y36533521D01*
X46644165Y36399584D01*
X46547817Y36282183D01*
X46430416Y36185835D01*
X46296479Y36114244D01*
X46296476Y36114243D01*
X46151142Y36070156D01*
X46075629Y36062719D01*
X46037873Y36059000D01*
X45402127Y36059000D01*
X45364371Y36062719D01*
X45288858Y36070156D01*
X45143524Y36114243D01*
X45143521Y36114244D01*
X45009584Y36185835D01*
X44892183Y36282183D01*
X44795835Y36399584D01*
X44724244Y36533521D01*
X44724243Y36533524D01*
X44680156Y36678858D01*
X44665270Y36830000D01*
X44680156Y36981142D01*
X44724243Y37126476D01*
X44724244Y37126479D01*
X44795835Y37260416D01*
X44892183Y37377817D01*
X45009584Y37474165D01*
X45143521Y37545756D01*
X45143524Y37545757D01*
X45288858Y37589844D01*
X45364371Y37597281D01*
X45402127Y37601000D01*
X46037873Y37601000D01*
X46075629Y37597281D01*
G37*
G36*
X7975629Y37597281D02*
G01*
X8051142Y37589844D01*
X8196476Y37545757D01*
X8196479Y37545756D01*
X8330416Y37474165D01*
X8447817Y37377817D01*
X8544165Y37260416D01*
X8615756Y37126479D01*
X8615757Y37126476D01*
X8659844Y36981142D01*
X8674730Y36830000D01*
X8659844Y36678858D01*
X8615757Y36533524D01*
X8615756Y36533521D01*
X8544165Y36399584D01*
X8447817Y36282183D01*
X8330416Y36185835D01*
X8196479Y36114244D01*
X8196476Y36114243D01*
X8051142Y36070156D01*
X7975629Y36062719D01*
X7937873Y36059000D01*
X7302127Y36059000D01*
X7264371Y36062719D01*
X7188858Y36070156D01*
X7043524Y36114243D01*
X7043521Y36114244D01*
X6909584Y36185835D01*
X6792183Y36282183D01*
X6695835Y36399584D01*
X6624244Y36533521D01*
X6624243Y36533524D01*
X6580156Y36678858D01*
X6565270Y36830000D01*
X6580156Y36981142D01*
X6624243Y37126476D01*
X6624244Y37126479D01*
X6695835Y37260416D01*
X6792183Y37377817D01*
X6909584Y37474165D01*
X7043521Y37545756D01*
X7043524Y37545757D01*
X7188858Y37589844D01*
X7264371Y37597281D01*
X7302127Y37601000D01*
X7937873Y37601000D01*
X7975629Y37597281D01*
G37*
G36*
X23215629Y37597281D02*
G01*
X23291142Y37589844D01*
X23436476Y37545757D01*
X23436479Y37545756D01*
X23570416Y37474165D01*
X23687817Y37377817D01*
X23784165Y37260416D01*
X23855756Y37126479D01*
X23855757Y37126476D01*
X23899844Y36981142D01*
X23914730Y36830000D01*
X23899844Y36678858D01*
X23855757Y36533524D01*
X23855756Y36533521D01*
X23784165Y36399584D01*
X23687817Y36282183D01*
X23570416Y36185835D01*
X23436479Y36114244D01*
X23436476Y36114243D01*
X23291142Y36070156D01*
X23215629Y36062719D01*
X23177873Y36059000D01*
X22542127Y36059000D01*
X22504371Y36062719D01*
X22428858Y36070156D01*
X22283524Y36114243D01*
X22283521Y36114244D01*
X22149584Y36185835D01*
X22032183Y36282183D01*
X21935835Y36399584D01*
X21864244Y36533521D01*
X21864243Y36533524D01*
X21820156Y36678858D01*
X21805270Y36830000D01*
X21820156Y36981142D01*
X21864243Y37126476D01*
X21864244Y37126479D01*
X21935835Y37260416D01*
X22032183Y37377817D01*
X22149584Y37474165D01*
X22283521Y37545756D01*
X22283524Y37545757D01*
X22428858Y37589844D01*
X22504371Y37597281D01*
X22542127Y37601000D01*
X23177873Y37601000D01*
X23215629Y37597281D01*
G37*
G36*
X35915629Y37597281D02*
G01*
X35991142Y37589844D01*
X36136476Y37545757D01*
X36136479Y37545756D01*
X36270416Y37474165D01*
X36387817Y37377817D01*
X36484165Y37260416D01*
X36555756Y37126479D01*
X36555757Y37126476D01*
X36599844Y36981142D01*
X36614730Y36830000D01*
X36599844Y36678858D01*
X36555757Y36533524D01*
X36555756Y36533521D01*
X36484165Y36399584D01*
X36387817Y36282183D01*
X36270416Y36185835D01*
X36136479Y36114244D01*
X36136476Y36114243D01*
X35991142Y36070156D01*
X35915629Y36062719D01*
X35877873Y36059000D01*
X35242127Y36059000D01*
X35204371Y36062719D01*
X35128858Y36070156D01*
X34983524Y36114243D01*
X34983521Y36114244D01*
X34849584Y36185835D01*
X34732183Y36282183D01*
X34635835Y36399584D01*
X34564244Y36533521D01*
X34564243Y36533524D01*
X34520156Y36678858D01*
X34505270Y36830000D01*
X34520156Y36981142D01*
X34564243Y37126476D01*
X34564244Y37126479D01*
X34635835Y37260416D01*
X34732183Y37377817D01*
X34849584Y37474165D01*
X34983521Y37545756D01*
X34983524Y37545757D01*
X35128858Y37589844D01*
X35204371Y37597281D01*
X35242127Y37601000D01*
X35877873Y37601000D01*
X35915629Y37597281D01*
G37*
G36*
X58955629Y37597281D02*
G01*
X59031142Y37589844D01*
X59176476Y37545757D01*
X59176479Y37545756D01*
X59310416Y37474165D01*
X59427817Y37377817D01*
X59524165Y37260416D01*
X59595756Y37126479D01*
X59595757Y37126476D01*
X59639844Y36981142D01*
X59654730Y36830000D01*
X59639844Y36678858D01*
X59595757Y36533524D01*
X59595756Y36533521D01*
X59524165Y36399584D01*
X59427817Y36282183D01*
X59310416Y36185835D01*
X59176479Y36114244D01*
X59176476Y36114243D01*
X59031142Y36070156D01*
X58955629Y36062719D01*
X58917873Y36059000D01*
X58282127Y36059000D01*
X58244371Y36062719D01*
X58168858Y36070156D01*
X58023524Y36114243D01*
X58023521Y36114244D01*
X57889584Y36185835D01*
X57772183Y36282183D01*
X57675835Y36399584D01*
X57604244Y36533521D01*
X57604243Y36533524D01*
X57560156Y36678858D01*
X57545270Y36830000D01*
X57560156Y36981142D01*
X57604243Y37126476D01*
X57604244Y37126479D01*
X57675835Y37260416D01*
X57772183Y37377817D01*
X57889584Y37474165D01*
X58023521Y37545756D01*
X58023524Y37545757D01*
X58168858Y37589844D01*
X58244371Y37597281D01*
X58282127Y37601000D01*
X58917873Y37601000D01*
X58955629Y37597281D01*
G37*
G36*
X69115629Y37597281D02*
G01*
X69191142Y37589844D01*
X69336476Y37545757D01*
X69336479Y37545756D01*
X69470416Y37474165D01*
X69587817Y37377817D01*
X69684165Y37260416D01*
X69755756Y37126479D01*
X69755757Y37126476D01*
X69799844Y36981142D01*
X69814730Y36830000D01*
X69799844Y36678858D01*
X69755757Y36533524D01*
X69755756Y36533521D01*
X69684165Y36399584D01*
X69587817Y36282183D01*
X69470416Y36185835D01*
X69336479Y36114244D01*
X69336476Y36114243D01*
X69191142Y36070156D01*
X69115629Y36062719D01*
X69077873Y36059000D01*
X68442127Y36059000D01*
X68404371Y36062719D01*
X68328858Y36070156D01*
X68183524Y36114243D01*
X68183521Y36114244D01*
X68049584Y36185835D01*
X67932183Y36282183D01*
X67835835Y36399584D01*
X67764244Y36533521D01*
X67764243Y36533524D01*
X67720156Y36678858D01*
X67705270Y36830000D01*
X67720156Y36981142D01*
X67764243Y37126476D01*
X67764244Y37126479D01*
X67835835Y37260416D01*
X67932183Y37377817D01*
X68049584Y37474165D01*
X68183521Y37545756D01*
X68183524Y37545757D01*
X68328858Y37589844D01*
X68404371Y37597281D01*
X68442127Y37601000D01*
X69077873Y37601000D01*
X69115629Y37597281D01*
G37*
G36*
X69115629Y40137281D02*
G01*
X69191142Y40129844D01*
X69336476Y40085757D01*
X69336479Y40085756D01*
X69470416Y40014165D01*
X69587817Y39917817D01*
X69684165Y39800416D01*
X69755756Y39666479D01*
X69755757Y39666476D01*
X69799844Y39521142D01*
X69814730Y39370000D01*
X69799844Y39218858D01*
X69755757Y39073524D01*
X69755756Y39073521D01*
X69684165Y38939584D01*
X69587817Y38822183D01*
X69470416Y38725835D01*
X69336479Y38654244D01*
X69336476Y38654243D01*
X69191142Y38610156D01*
X69115629Y38602719D01*
X69077873Y38599000D01*
X68442127Y38599000D01*
X68404371Y38602719D01*
X68328858Y38610156D01*
X68183524Y38654243D01*
X68183521Y38654244D01*
X68049584Y38725835D01*
X67932183Y38822183D01*
X67835835Y38939584D01*
X67764244Y39073521D01*
X67764243Y39073524D01*
X67720156Y39218858D01*
X67705270Y39370000D01*
X67720156Y39521142D01*
X67764243Y39666476D01*
X67764244Y39666479D01*
X67835835Y39800416D01*
X67932183Y39917817D01*
X68049584Y40014165D01*
X68183521Y40085756D01*
X68183524Y40085757D01*
X68328858Y40129844D01*
X68404371Y40137281D01*
X68442127Y40141000D01*
X69077873Y40141000D01*
X69115629Y40137281D01*
G37*
G36*
X7975629Y40137281D02*
G01*
X8051142Y40129844D01*
X8196476Y40085757D01*
X8196479Y40085756D01*
X8330416Y40014165D01*
X8447817Y39917817D01*
X8544165Y39800416D01*
X8615756Y39666479D01*
X8615757Y39666476D01*
X8659844Y39521142D01*
X8674730Y39370000D01*
X8659844Y39218858D01*
X8615757Y39073524D01*
X8615756Y39073521D01*
X8544165Y38939584D01*
X8447817Y38822183D01*
X8330416Y38725835D01*
X8196479Y38654244D01*
X8196476Y38654243D01*
X8051142Y38610156D01*
X7975629Y38602719D01*
X7937873Y38599000D01*
X7302127Y38599000D01*
X7264371Y38602719D01*
X7188858Y38610156D01*
X7043524Y38654243D01*
X7043521Y38654244D01*
X6909584Y38725835D01*
X6792183Y38822183D01*
X6695835Y38939584D01*
X6624244Y39073521D01*
X6624243Y39073524D01*
X6580156Y39218858D01*
X6565270Y39370000D01*
X6580156Y39521142D01*
X6624243Y39666476D01*
X6624244Y39666479D01*
X6695835Y39800416D01*
X6792183Y39917817D01*
X6909584Y40014165D01*
X7043521Y40085756D01*
X7043524Y40085757D01*
X7188858Y40129844D01*
X7264371Y40137281D01*
X7302127Y40141000D01*
X7937873Y40141000D01*
X7975629Y40137281D01*
G37*
G36*
X23215629Y40137281D02*
G01*
X23291142Y40129844D01*
X23436476Y40085757D01*
X23436479Y40085756D01*
X23570416Y40014165D01*
X23687817Y39917817D01*
X23784165Y39800416D01*
X23855756Y39666479D01*
X23855757Y39666476D01*
X23899844Y39521142D01*
X23914730Y39370000D01*
X23899844Y39218858D01*
X23855757Y39073524D01*
X23855756Y39073521D01*
X23784165Y38939584D01*
X23687817Y38822183D01*
X23570416Y38725835D01*
X23436479Y38654244D01*
X23436476Y38654243D01*
X23291142Y38610156D01*
X23215629Y38602719D01*
X23177873Y38599000D01*
X22542127Y38599000D01*
X22504371Y38602719D01*
X22428858Y38610156D01*
X22283524Y38654243D01*
X22283521Y38654244D01*
X22149584Y38725835D01*
X22032183Y38822183D01*
X21935835Y38939584D01*
X21864244Y39073521D01*
X21864243Y39073524D01*
X21820156Y39218858D01*
X21805270Y39370000D01*
X21820156Y39521142D01*
X21864243Y39666476D01*
X21864244Y39666479D01*
X21935835Y39800416D01*
X22032183Y39917817D01*
X22149584Y40014165D01*
X22283521Y40085756D01*
X22283524Y40085757D01*
X22428858Y40129844D01*
X22504371Y40137281D01*
X22542127Y40141000D01*
X23177873Y40141000D01*
X23215629Y40137281D01*
G37*
G36*
X35915629Y40137281D02*
G01*
X35991142Y40129844D01*
X36136476Y40085757D01*
X36136479Y40085756D01*
X36270416Y40014165D01*
X36387817Y39917817D01*
X36484165Y39800416D01*
X36555756Y39666479D01*
X36555757Y39666476D01*
X36599844Y39521142D01*
X36614730Y39370000D01*
X36599844Y39218858D01*
X36555757Y39073524D01*
X36555756Y39073521D01*
X36484165Y38939584D01*
X36387817Y38822183D01*
X36270416Y38725835D01*
X36136479Y38654244D01*
X36136476Y38654243D01*
X35991142Y38610156D01*
X35915629Y38602719D01*
X35877873Y38599000D01*
X35242127Y38599000D01*
X35204371Y38602719D01*
X35128858Y38610156D01*
X34983524Y38654243D01*
X34983521Y38654244D01*
X34849584Y38725835D01*
X34732183Y38822183D01*
X34635835Y38939584D01*
X34564244Y39073521D01*
X34564243Y39073524D01*
X34520156Y39218858D01*
X34505270Y39370000D01*
X34520156Y39521142D01*
X34564243Y39666476D01*
X34564244Y39666479D01*
X34635835Y39800416D01*
X34732183Y39917817D01*
X34849584Y40014165D01*
X34983521Y40085756D01*
X34983524Y40085757D01*
X35128858Y40129844D01*
X35204371Y40137281D01*
X35242127Y40141000D01*
X35877873Y40141000D01*
X35915629Y40137281D01*
G37*
G36*
X46075629Y40137281D02*
G01*
X46151142Y40129844D01*
X46296476Y40085757D01*
X46296479Y40085756D01*
X46430416Y40014165D01*
X46547817Y39917817D01*
X46644165Y39800416D01*
X46715756Y39666479D01*
X46715757Y39666476D01*
X46759844Y39521142D01*
X46774730Y39370000D01*
X46759844Y39218858D01*
X46715757Y39073524D01*
X46715756Y39073521D01*
X46644165Y38939584D01*
X46547817Y38822183D01*
X46430416Y38725835D01*
X46296479Y38654244D01*
X46296476Y38654243D01*
X46151142Y38610156D01*
X46075629Y38602719D01*
X46037873Y38599000D01*
X45402127Y38599000D01*
X45364371Y38602719D01*
X45288858Y38610156D01*
X45143524Y38654243D01*
X45143521Y38654244D01*
X45009584Y38725835D01*
X44892183Y38822183D01*
X44795835Y38939584D01*
X44724244Y39073521D01*
X44724243Y39073524D01*
X44680156Y39218858D01*
X44665270Y39370000D01*
X44680156Y39521142D01*
X44724243Y39666476D01*
X44724244Y39666479D01*
X44795835Y39800416D01*
X44892183Y39917817D01*
X45009584Y40014165D01*
X45143521Y40085756D01*
X45143524Y40085757D01*
X45288858Y40129844D01*
X45364371Y40137281D01*
X45402127Y40141000D01*
X46037873Y40141000D01*
X46075629Y40137281D01*
G37*
G36*
X58955629Y40137281D02*
G01*
X59031142Y40129844D01*
X59176476Y40085757D01*
X59176479Y40085756D01*
X59310416Y40014165D01*
X59427817Y39917817D01*
X59524165Y39800416D01*
X59595756Y39666479D01*
X59595757Y39666476D01*
X59639844Y39521142D01*
X59654730Y39370000D01*
X59639844Y39218858D01*
X59595757Y39073524D01*
X59595756Y39073521D01*
X59524165Y38939584D01*
X59427817Y38822183D01*
X59310416Y38725835D01*
X59176479Y38654244D01*
X59176476Y38654243D01*
X59031142Y38610156D01*
X58955629Y38602719D01*
X58917873Y38599000D01*
X58282127Y38599000D01*
X58244371Y38602719D01*
X58168858Y38610156D01*
X58023524Y38654243D01*
X58023521Y38654244D01*
X57889584Y38725835D01*
X57772183Y38822183D01*
X57675835Y38939584D01*
X57604244Y39073521D01*
X57604243Y39073524D01*
X57560156Y39218858D01*
X57545270Y39370000D01*
X57560156Y39521142D01*
X57604243Y39666476D01*
X57604244Y39666479D01*
X57675835Y39800416D01*
X57772183Y39917817D01*
X57889584Y40014165D01*
X58023521Y40085756D01*
X58023524Y40085757D01*
X58168858Y40129844D01*
X58244371Y40137281D01*
X58282127Y40141000D01*
X58917873Y40141000D01*
X58955629Y40137281D01*
G37*
G36*
X23215629Y42677281D02*
G01*
X23291142Y42669844D01*
X23436476Y42625757D01*
X23436479Y42625756D01*
X23570416Y42554165D01*
X23687817Y42457817D01*
X23784165Y42340416D01*
X23855756Y42206479D01*
X23855757Y42206476D01*
X23899844Y42061142D01*
X23914730Y41910000D01*
X23899844Y41758858D01*
X23855757Y41613524D01*
X23855756Y41613521D01*
X23784165Y41479584D01*
X23687817Y41362183D01*
X23570416Y41265835D01*
X23436479Y41194244D01*
X23436476Y41194243D01*
X23291142Y41150156D01*
X23215629Y41142719D01*
X23177873Y41139000D01*
X22542127Y41139000D01*
X22504371Y41142719D01*
X22428858Y41150156D01*
X22283524Y41194243D01*
X22283521Y41194244D01*
X22149584Y41265835D01*
X22032183Y41362183D01*
X21935835Y41479584D01*
X21864244Y41613521D01*
X21864243Y41613524D01*
X21820156Y41758858D01*
X21805270Y41910000D01*
X21820156Y42061142D01*
X21864243Y42206476D01*
X21864244Y42206479D01*
X21935835Y42340416D01*
X22032183Y42457817D01*
X22149584Y42554165D01*
X22283521Y42625756D01*
X22283524Y42625757D01*
X22428858Y42669844D01*
X22504371Y42677281D01*
X22542127Y42681000D01*
X23177873Y42681000D01*
X23215629Y42677281D01*
G37*
G36*
X69115629Y42677281D02*
G01*
X69191142Y42669844D01*
X69336476Y42625757D01*
X69336479Y42625756D01*
X69470416Y42554165D01*
X69587817Y42457817D01*
X69684165Y42340416D01*
X69755756Y42206479D01*
X69755757Y42206476D01*
X69799844Y42061142D01*
X69814730Y41910000D01*
X69799844Y41758858D01*
X69755757Y41613524D01*
X69755756Y41613521D01*
X69684165Y41479584D01*
X69587817Y41362183D01*
X69470416Y41265835D01*
X69336479Y41194244D01*
X69336476Y41194243D01*
X69191142Y41150156D01*
X69115629Y41142719D01*
X69077873Y41139000D01*
X68442127Y41139000D01*
X68404371Y41142719D01*
X68328858Y41150156D01*
X68183524Y41194243D01*
X68183521Y41194244D01*
X68049584Y41265835D01*
X67932183Y41362183D01*
X67835835Y41479584D01*
X67764244Y41613521D01*
X67764243Y41613524D01*
X67720156Y41758858D01*
X67705270Y41910000D01*
X67720156Y42061142D01*
X67764243Y42206476D01*
X67764244Y42206479D01*
X67835835Y42340416D01*
X67932183Y42457817D01*
X68049584Y42554165D01*
X68183521Y42625756D01*
X68183524Y42625757D01*
X68328858Y42669844D01*
X68404371Y42677281D01*
X68442127Y42681000D01*
X69077873Y42681000D01*
X69115629Y42677281D01*
G37*
G36*
X58955629Y42677281D02*
G01*
X59031142Y42669844D01*
X59176476Y42625757D01*
X59176479Y42625756D01*
X59310416Y42554165D01*
X59427817Y42457817D01*
X59524165Y42340416D01*
X59595756Y42206479D01*
X59595757Y42206476D01*
X59639844Y42061142D01*
X59654730Y41910000D01*
X59639844Y41758858D01*
X59595757Y41613524D01*
X59595756Y41613521D01*
X59524165Y41479584D01*
X59427817Y41362183D01*
X59310416Y41265835D01*
X59176479Y41194244D01*
X59176476Y41194243D01*
X59031142Y41150156D01*
X58955629Y41142719D01*
X58917873Y41139000D01*
X58282127Y41139000D01*
X58244371Y41142719D01*
X58168858Y41150156D01*
X58023524Y41194243D01*
X58023521Y41194244D01*
X57889584Y41265835D01*
X57772183Y41362183D01*
X57675835Y41479584D01*
X57604244Y41613521D01*
X57604243Y41613524D01*
X57560156Y41758858D01*
X57545270Y41910000D01*
X57560156Y42061142D01*
X57604243Y42206476D01*
X57604244Y42206479D01*
X57675835Y42340416D01*
X57772183Y42457817D01*
X57889584Y42554165D01*
X58023521Y42625756D01*
X58023524Y42625757D01*
X58168858Y42669844D01*
X58244371Y42677281D01*
X58282127Y42681000D01*
X58917873Y42681000D01*
X58955629Y42677281D01*
G37*
G36*
X7975629Y42677281D02*
G01*
X8051142Y42669844D01*
X8196476Y42625757D01*
X8196479Y42625756D01*
X8330416Y42554165D01*
X8447817Y42457817D01*
X8544165Y42340416D01*
X8615756Y42206479D01*
X8615757Y42206476D01*
X8659844Y42061142D01*
X8674730Y41910000D01*
X8659844Y41758858D01*
X8615757Y41613524D01*
X8615756Y41613521D01*
X8544165Y41479584D01*
X8447817Y41362183D01*
X8330416Y41265835D01*
X8196479Y41194244D01*
X8196476Y41194243D01*
X8051142Y41150156D01*
X7975629Y41142719D01*
X7937873Y41139000D01*
X7302127Y41139000D01*
X7264371Y41142719D01*
X7188858Y41150156D01*
X7043524Y41194243D01*
X7043521Y41194244D01*
X6909584Y41265835D01*
X6792183Y41362183D01*
X6695835Y41479584D01*
X6624244Y41613521D01*
X6624243Y41613524D01*
X6580156Y41758858D01*
X6565270Y41910000D01*
X6580156Y42061142D01*
X6624243Y42206476D01*
X6624244Y42206479D01*
X6695835Y42340416D01*
X6792183Y42457817D01*
X6909584Y42554165D01*
X7043521Y42625756D01*
X7043524Y42625757D01*
X7188858Y42669844D01*
X7264371Y42677281D01*
X7302127Y42681000D01*
X7937873Y42681000D01*
X7975629Y42677281D01*
G37*
G36*
X46075629Y42677281D02*
G01*
X46151142Y42669844D01*
X46296476Y42625757D01*
X46296479Y42625756D01*
X46430416Y42554165D01*
X46547817Y42457817D01*
X46644165Y42340416D01*
X46715756Y42206479D01*
X46715757Y42206476D01*
X46759844Y42061142D01*
X46774730Y41910000D01*
X46759844Y41758858D01*
X46715757Y41613524D01*
X46715756Y41613521D01*
X46644165Y41479584D01*
X46547817Y41362183D01*
X46430416Y41265835D01*
X46296479Y41194244D01*
X46296476Y41194243D01*
X46151142Y41150156D01*
X46075629Y41142719D01*
X46037873Y41139000D01*
X45402127Y41139000D01*
X45364371Y41142719D01*
X45288858Y41150156D01*
X45143524Y41194243D01*
X45143521Y41194244D01*
X45009584Y41265835D01*
X44892183Y41362183D01*
X44795835Y41479584D01*
X44724244Y41613521D01*
X44724243Y41613524D01*
X44680156Y41758858D01*
X44665270Y41910000D01*
X44680156Y42061142D01*
X44724243Y42206476D01*
X44724244Y42206479D01*
X44795835Y42340416D01*
X44892183Y42457817D01*
X45009584Y42554165D01*
X45143521Y42625756D01*
X45143524Y42625757D01*
X45288858Y42669844D01*
X45364371Y42677281D01*
X45402127Y42681000D01*
X46037873Y42681000D01*
X46075629Y42677281D01*
G37*
G36*
X35915629Y42677281D02*
G01*
X35991142Y42669844D01*
X36136476Y42625757D01*
X36136479Y42625756D01*
X36270416Y42554165D01*
X36387817Y42457817D01*
X36484165Y42340416D01*
X36555756Y42206479D01*
X36555757Y42206476D01*
X36599844Y42061142D01*
X36614730Y41910000D01*
X36599844Y41758858D01*
X36555757Y41613524D01*
X36555756Y41613521D01*
X36484165Y41479584D01*
X36387817Y41362183D01*
X36270416Y41265835D01*
X36136479Y41194244D01*
X36136476Y41194243D01*
X35991142Y41150156D01*
X35915629Y41142719D01*
X35877873Y41139000D01*
X35242127Y41139000D01*
X35204371Y41142719D01*
X35128858Y41150156D01*
X34983524Y41194243D01*
X34983521Y41194244D01*
X34849584Y41265835D01*
X34732183Y41362183D01*
X34635835Y41479584D01*
X34564244Y41613521D01*
X34564243Y41613524D01*
X34520156Y41758858D01*
X34505270Y41910000D01*
X34520156Y42061142D01*
X34564243Y42206476D01*
X34564244Y42206479D01*
X34635835Y42340416D01*
X34732183Y42457817D01*
X34849584Y42554165D01*
X34983521Y42625756D01*
X34983524Y42625757D01*
X35128858Y42669844D01*
X35204371Y42677281D01*
X35242127Y42681000D01*
X35877873Y42681000D01*
X35915629Y42677281D01*
G37*
G36*
X100578228Y45268297D02*
G01*
X100733100Y45204147D01*
X100872481Y45111015D01*
X100991015Y44992481D01*
X101084147Y44853100D01*
X101148297Y44698228D01*
X101181000Y44533816D01*
X101181000Y44366184D01*
X101148297Y44201772D01*
X101084147Y44046900D01*
X100991015Y43907519D01*
X100872481Y43788985D01*
X100733100Y43695853D01*
X100578228Y43631703D01*
X100413816Y43599000D01*
X100246184Y43599000D01*
X100081772Y43631703D01*
X99926900Y43695853D01*
X99787519Y43788985D01*
X99668985Y43907519D01*
X99575853Y44046900D01*
X99511703Y44201772D01*
X99479000Y44366184D01*
X99479000Y44533816D01*
X99511703Y44698228D01*
X99575853Y44853100D01*
X99668985Y44992481D01*
X99787519Y45111015D01*
X99926900Y45204147D01*
X100081772Y45268297D01*
X100246184Y45301000D01*
X100413816Y45301000D01*
X100578228Y45268297D01*
G37*
G36*
X23215629Y45217281D02*
G01*
X23291142Y45209844D01*
X23436476Y45165757D01*
X23436479Y45165756D01*
X23570416Y45094165D01*
X23687817Y44997817D01*
X23784165Y44880416D01*
X23855756Y44746479D01*
X23855757Y44746476D01*
X23899844Y44601142D01*
X23914730Y44450000D01*
X23899844Y44298858D01*
X23855757Y44153524D01*
X23855756Y44153521D01*
X23784165Y44019584D01*
X23687817Y43902183D01*
X23570416Y43805835D01*
X23436479Y43734244D01*
X23436476Y43734243D01*
X23291142Y43690156D01*
X23215629Y43682719D01*
X23177873Y43679000D01*
X22542127Y43679000D01*
X22504371Y43682719D01*
X22428858Y43690156D01*
X22283524Y43734243D01*
X22283521Y43734244D01*
X22149584Y43805835D01*
X22032183Y43902183D01*
X21935835Y44019584D01*
X21864244Y44153521D01*
X21864243Y44153524D01*
X21820156Y44298858D01*
X21805270Y44450000D01*
X21820156Y44601142D01*
X21864243Y44746476D01*
X21864244Y44746479D01*
X21935835Y44880416D01*
X22032183Y44997817D01*
X22149584Y45094165D01*
X22283521Y45165756D01*
X22283524Y45165757D01*
X22428858Y45209844D01*
X22504371Y45217281D01*
X22542127Y45221000D01*
X23177873Y45221000D01*
X23215629Y45217281D01*
G37*
G36*
X7975629Y45217281D02*
G01*
X8051142Y45209844D01*
X8196476Y45165757D01*
X8196479Y45165756D01*
X8330416Y45094165D01*
X8447817Y44997817D01*
X8544165Y44880416D01*
X8615756Y44746479D01*
X8615757Y44746476D01*
X8659844Y44601142D01*
X8674730Y44450000D01*
X8659844Y44298858D01*
X8615757Y44153524D01*
X8615756Y44153521D01*
X8544165Y44019584D01*
X8447817Y43902183D01*
X8330416Y43805835D01*
X8196479Y43734244D01*
X8196476Y43734243D01*
X8051142Y43690156D01*
X7975629Y43682719D01*
X7937873Y43679000D01*
X7302127Y43679000D01*
X7264371Y43682719D01*
X7188858Y43690156D01*
X7043524Y43734243D01*
X7043521Y43734244D01*
X6909584Y43805835D01*
X6792183Y43902183D01*
X6695835Y44019584D01*
X6624244Y44153521D01*
X6624243Y44153524D01*
X6580156Y44298858D01*
X6565270Y44450000D01*
X6580156Y44601142D01*
X6624243Y44746476D01*
X6624244Y44746479D01*
X6695835Y44880416D01*
X6792183Y44997817D01*
X6909584Y45094165D01*
X7043521Y45165756D01*
X7043524Y45165757D01*
X7188858Y45209844D01*
X7264371Y45217281D01*
X7302127Y45221000D01*
X7937873Y45221000D01*
X7975629Y45217281D01*
G37*
G36*
X69115629Y45217281D02*
G01*
X69191142Y45209844D01*
X69336476Y45165757D01*
X69336479Y45165756D01*
X69470416Y45094165D01*
X69587817Y44997817D01*
X69684165Y44880416D01*
X69755756Y44746479D01*
X69755757Y44746476D01*
X69799844Y44601142D01*
X69814730Y44450000D01*
X69799844Y44298858D01*
X69755757Y44153524D01*
X69755756Y44153521D01*
X69684165Y44019584D01*
X69587817Y43902183D01*
X69470416Y43805835D01*
X69336479Y43734244D01*
X69336476Y43734243D01*
X69191142Y43690156D01*
X69115629Y43682719D01*
X69077873Y43679000D01*
X68442127Y43679000D01*
X68404371Y43682719D01*
X68328858Y43690156D01*
X68183524Y43734243D01*
X68183521Y43734244D01*
X68049584Y43805835D01*
X67932183Y43902183D01*
X67835835Y44019584D01*
X67764244Y44153521D01*
X67764243Y44153524D01*
X67720156Y44298858D01*
X67705270Y44450000D01*
X67720156Y44601142D01*
X67764243Y44746476D01*
X67764244Y44746479D01*
X67835835Y44880416D01*
X67932183Y44997817D01*
X68049584Y45094165D01*
X68183521Y45165756D01*
X68183524Y45165757D01*
X68328858Y45209844D01*
X68404371Y45217281D01*
X68442127Y45221000D01*
X69077873Y45221000D01*
X69115629Y45217281D01*
G37*
G36*
X58955629Y45217281D02*
G01*
X59031142Y45209844D01*
X59176476Y45165757D01*
X59176479Y45165756D01*
X59310416Y45094165D01*
X59427817Y44997817D01*
X59524165Y44880416D01*
X59595756Y44746479D01*
X59595757Y44746476D01*
X59639844Y44601142D01*
X59654730Y44450000D01*
X59639844Y44298858D01*
X59595757Y44153524D01*
X59595756Y44153521D01*
X59524165Y44019584D01*
X59427817Y43902183D01*
X59310416Y43805835D01*
X59176479Y43734244D01*
X59176476Y43734243D01*
X59031142Y43690156D01*
X58955629Y43682719D01*
X58917873Y43679000D01*
X58282127Y43679000D01*
X58244371Y43682719D01*
X58168858Y43690156D01*
X58023524Y43734243D01*
X58023521Y43734244D01*
X57889584Y43805835D01*
X57772183Y43902183D01*
X57675835Y44019584D01*
X57604244Y44153521D01*
X57604243Y44153524D01*
X57560156Y44298858D01*
X57545270Y44450000D01*
X57560156Y44601142D01*
X57604243Y44746476D01*
X57604244Y44746479D01*
X57675835Y44880416D01*
X57772183Y44997817D01*
X57889584Y45094165D01*
X58023521Y45165756D01*
X58023524Y45165757D01*
X58168858Y45209844D01*
X58244371Y45217281D01*
X58282127Y45221000D01*
X58917873Y45221000D01*
X58955629Y45217281D01*
G37*
G36*
X35915629Y45217281D02*
G01*
X35991142Y45209844D01*
X36136476Y45165757D01*
X36136479Y45165756D01*
X36270416Y45094165D01*
X36387817Y44997817D01*
X36484165Y44880416D01*
X36555756Y44746479D01*
X36555757Y44746476D01*
X36599844Y44601142D01*
X36614730Y44450000D01*
X36599844Y44298858D01*
X36555757Y44153524D01*
X36555756Y44153521D01*
X36484165Y44019584D01*
X36387817Y43902183D01*
X36270416Y43805835D01*
X36136479Y43734244D01*
X36136476Y43734243D01*
X35991142Y43690156D01*
X35915629Y43682719D01*
X35877873Y43679000D01*
X35242127Y43679000D01*
X35204371Y43682719D01*
X35128858Y43690156D01*
X34983524Y43734243D01*
X34983521Y43734244D01*
X34849584Y43805835D01*
X34732183Y43902183D01*
X34635835Y44019584D01*
X34564244Y44153521D01*
X34564243Y44153524D01*
X34520156Y44298858D01*
X34505270Y44450000D01*
X34520156Y44601142D01*
X34564243Y44746476D01*
X34564244Y44746479D01*
X34635835Y44880416D01*
X34732183Y44997817D01*
X34849584Y45094165D01*
X34983521Y45165756D01*
X34983524Y45165757D01*
X35128858Y45209844D01*
X35204371Y45217281D01*
X35242127Y45221000D01*
X35877873Y45221000D01*
X35915629Y45217281D01*
G37*
G36*
X81635629Y45217281D02*
G01*
X81711142Y45209844D01*
X81856476Y45165757D01*
X81856479Y45165756D01*
X81990416Y45094165D01*
X82107817Y44997817D01*
X82204165Y44880416D01*
X82275756Y44746479D01*
X82275757Y44746476D01*
X82319844Y44601142D01*
X82334730Y44450000D01*
X82319844Y44298858D01*
X82275757Y44153524D01*
X82275756Y44153521D01*
X82204165Y44019584D01*
X82107817Y43902183D01*
X81990416Y43805835D01*
X81856479Y43734244D01*
X81856476Y43734243D01*
X81711142Y43690156D01*
X81635629Y43682719D01*
X81597873Y43679000D01*
X80962127Y43679000D01*
X80924371Y43682719D01*
X80848858Y43690156D01*
X80703524Y43734243D01*
X80703521Y43734244D01*
X80569584Y43805835D01*
X80452183Y43902183D01*
X80355835Y44019584D01*
X80284244Y44153521D01*
X80284243Y44153524D01*
X80240156Y44298858D01*
X80225270Y44450000D01*
X80240156Y44601142D01*
X80284243Y44746476D01*
X80284244Y44746479D01*
X80355835Y44880416D01*
X80452183Y44997817D01*
X80569584Y45094165D01*
X80703521Y45165756D01*
X80703524Y45165757D01*
X80848858Y45209844D01*
X80924371Y45217281D01*
X80962127Y45221000D01*
X81597873Y45221000D01*
X81635629Y45217281D01*
G37*
G36*
X89255629Y45217281D02*
G01*
X89331142Y45209844D01*
X89476476Y45165757D01*
X89476479Y45165756D01*
X89610416Y45094165D01*
X89727817Y44997817D01*
X89824165Y44880416D01*
X89895756Y44746479D01*
X89895757Y44746476D01*
X89939844Y44601142D01*
X89954730Y44450000D01*
X89939844Y44298858D01*
X89895757Y44153524D01*
X89895756Y44153521D01*
X89824165Y44019584D01*
X89727817Y43902183D01*
X89610416Y43805835D01*
X89476479Y43734244D01*
X89476476Y43734243D01*
X89331142Y43690156D01*
X89255629Y43682719D01*
X89217873Y43679000D01*
X88582127Y43679000D01*
X88544371Y43682719D01*
X88468858Y43690156D01*
X88323524Y43734243D01*
X88323521Y43734244D01*
X88189584Y43805835D01*
X88072183Y43902183D01*
X87975835Y44019584D01*
X87904244Y44153521D01*
X87904243Y44153524D01*
X87860156Y44298858D01*
X87845270Y44450000D01*
X87860156Y44601142D01*
X87904243Y44746476D01*
X87904244Y44746479D01*
X87975835Y44880416D01*
X88072183Y44997817D01*
X88189584Y45094165D01*
X88323521Y45165756D01*
X88323524Y45165757D01*
X88468858Y45209844D01*
X88544371Y45217281D01*
X88582127Y45221000D01*
X89217873Y45221000D01*
X89255629Y45217281D01*
G37*
G36*
X46075629Y45217281D02*
G01*
X46151142Y45209844D01*
X46296476Y45165757D01*
X46296479Y45165756D01*
X46430416Y45094165D01*
X46547817Y44997817D01*
X46644165Y44880416D01*
X46715756Y44746479D01*
X46715757Y44746476D01*
X46759844Y44601142D01*
X46774730Y44450000D01*
X46759844Y44298858D01*
X46715757Y44153524D01*
X46715756Y44153521D01*
X46644165Y44019584D01*
X46547817Y43902183D01*
X46430416Y43805835D01*
X46296479Y43734244D01*
X46296476Y43734243D01*
X46151142Y43690156D01*
X46075629Y43682719D01*
X46037873Y43679000D01*
X45402127Y43679000D01*
X45364371Y43682719D01*
X45288858Y43690156D01*
X45143524Y43734243D01*
X45143521Y43734244D01*
X45009584Y43805835D01*
X44892183Y43902183D01*
X44795835Y44019584D01*
X44724244Y44153521D01*
X44724243Y44153524D01*
X44680156Y44298858D01*
X44665270Y44450000D01*
X44680156Y44601142D01*
X44724243Y44746476D01*
X44724244Y44746479D01*
X44795835Y44880416D01*
X44892183Y44997817D01*
X45009584Y45094165D01*
X45143521Y45165756D01*
X45143524Y45165757D01*
X45288858Y45209844D01*
X45364371Y45217281D01*
X45402127Y45221000D01*
X46037873Y45221000D01*
X46075629Y45217281D01*
G37*
G36*
X89255629Y47757281D02*
G01*
X89331142Y47749844D01*
X89476476Y47705757D01*
X89476479Y47705756D01*
X89610416Y47634165D01*
X89727817Y47537817D01*
X89824165Y47420416D01*
X89895756Y47286479D01*
X89895757Y47286476D01*
X89939844Y47141142D01*
X89954730Y46990000D01*
X89939844Y46838858D01*
X89895757Y46693524D01*
X89895756Y46693521D01*
X89824165Y46559584D01*
X89727817Y46442183D01*
X89610416Y46345835D01*
X89476479Y46274244D01*
X89476476Y46274243D01*
X89331142Y46230156D01*
X89255629Y46222719D01*
X89217873Y46219000D01*
X88582127Y46219000D01*
X88544371Y46222719D01*
X88468858Y46230156D01*
X88323524Y46274243D01*
X88323521Y46274244D01*
X88189584Y46345835D01*
X88072183Y46442183D01*
X87975835Y46559584D01*
X87904244Y46693521D01*
X87904243Y46693524D01*
X87860156Y46838858D01*
X87845270Y46990000D01*
X87860156Y47141142D01*
X87904243Y47286476D01*
X87904244Y47286479D01*
X87975835Y47420416D01*
X88072183Y47537817D01*
X88189584Y47634165D01*
X88323521Y47705756D01*
X88323524Y47705757D01*
X88468858Y47749844D01*
X88544371Y47757281D01*
X88582127Y47761000D01*
X89217873Y47761000D01*
X89255629Y47757281D01*
G37*
G36*
X7975629Y47757281D02*
G01*
X8051142Y47749844D01*
X8196476Y47705757D01*
X8196479Y47705756D01*
X8330416Y47634165D01*
X8447817Y47537817D01*
X8544165Y47420416D01*
X8615756Y47286479D01*
X8615757Y47286476D01*
X8659844Y47141142D01*
X8674730Y46990000D01*
X8659844Y46838858D01*
X8615757Y46693524D01*
X8615756Y46693521D01*
X8544165Y46559584D01*
X8447817Y46442183D01*
X8330416Y46345835D01*
X8196479Y46274244D01*
X8196476Y46274243D01*
X8051142Y46230156D01*
X7975629Y46222719D01*
X7937873Y46219000D01*
X7302127Y46219000D01*
X7264371Y46222719D01*
X7188858Y46230156D01*
X7043524Y46274243D01*
X7043521Y46274244D01*
X6909584Y46345835D01*
X6792183Y46442183D01*
X6695835Y46559584D01*
X6624244Y46693521D01*
X6624243Y46693524D01*
X6580156Y46838858D01*
X6565270Y46990000D01*
X6580156Y47141142D01*
X6624243Y47286476D01*
X6624244Y47286479D01*
X6695835Y47420416D01*
X6792183Y47537817D01*
X6909584Y47634165D01*
X7043521Y47705756D01*
X7043524Y47705757D01*
X7188858Y47749844D01*
X7264371Y47757281D01*
X7302127Y47761000D01*
X7937873Y47761000D01*
X7975629Y47757281D01*
G37*
G36*
X23215629Y47757281D02*
G01*
X23291142Y47749844D01*
X23436476Y47705757D01*
X23436479Y47705756D01*
X23570416Y47634165D01*
X23687817Y47537817D01*
X23784165Y47420416D01*
X23855756Y47286479D01*
X23855757Y47286476D01*
X23899844Y47141142D01*
X23914730Y46990000D01*
X23899844Y46838858D01*
X23855757Y46693524D01*
X23855756Y46693521D01*
X23784165Y46559584D01*
X23687817Y46442183D01*
X23570416Y46345835D01*
X23436479Y46274244D01*
X23436476Y46274243D01*
X23291142Y46230156D01*
X23215629Y46222719D01*
X23177873Y46219000D01*
X22542127Y46219000D01*
X22504371Y46222719D01*
X22428858Y46230156D01*
X22283524Y46274243D01*
X22283521Y46274244D01*
X22149584Y46345835D01*
X22032183Y46442183D01*
X21935835Y46559584D01*
X21864244Y46693521D01*
X21864243Y46693524D01*
X21820156Y46838858D01*
X21805270Y46990000D01*
X21820156Y47141142D01*
X21864243Y47286476D01*
X21864244Y47286479D01*
X21935835Y47420416D01*
X22032183Y47537817D01*
X22149584Y47634165D01*
X22283521Y47705756D01*
X22283524Y47705757D01*
X22428858Y47749844D01*
X22504371Y47757281D01*
X22542127Y47761000D01*
X23177873Y47761000D01*
X23215629Y47757281D01*
G37*
G36*
X35915629Y47757281D02*
G01*
X35991142Y47749844D01*
X36136476Y47705757D01*
X36136479Y47705756D01*
X36270416Y47634165D01*
X36387817Y47537817D01*
X36484165Y47420416D01*
X36555756Y47286479D01*
X36555757Y47286476D01*
X36599844Y47141142D01*
X36614730Y46990000D01*
X36599844Y46838858D01*
X36555757Y46693524D01*
X36555756Y46693521D01*
X36484165Y46559584D01*
X36387817Y46442183D01*
X36270416Y46345835D01*
X36136479Y46274244D01*
X36136476Y46274243D01*
X35991142Y46230156D01*
X35915629Y46222719D01*
X35877873Y46219000D01*
X35242127Y46219000D01*
X35204371Y46222719D01*
X35128858Y46230156D01*
X34983524Y46274243D01*
X34983521Y46274244D01*
X34849584Y46345835D01*
X34732183Y46442183D01*
X34635835Y46559584D01*
X34564244Y46693521D01*
X34564243Y46693524D01*
X34520156Y46838858D01*
X34505270Y46990000D01*
X34520156Y47141142D01*
X34564243Y47286476D01*
X34564244Y47286479D01*
X34635835Y47420416D01*
X34732183Y47537817D01*
X34849584Y47634165D01*
X34983521Y47705756D01*
X34983524Y47705757D01*
X35128858Y47749844D01*
X35204371Y47757281D01*
X35242127Y47761000D01*
X35877873Y47761000D01*
X35915629Y47757281D01*
G37*
G36*
X46075629Y47757281D02*
G01*
X46151142Y47749844D01*
X46296476Y47705757D01*
X46296479Y47705756D01*
X46430416Y47634165D01*
X46547817Y47537817D01*
X46644165Y47420416D01*
X46715756Y47286479D01*
X46715757Y47286476D01*
X46759844Y47141142D01*
X46774730Y46990000D01*
X46759844Y46838858D01*
X46715757Y46693524D01*
X46715756Y46693521D01*
X46644165Y46559584D01*
X46547817Y46442183D01*
X46430416Y46345835D01*
X46296479Y46274244D01*
X46296476Y46274243D01*
X46151142Y46230156D01*
X46075629Y46222719D01*
X46037873Y46219000D01*
X45402127Y46219000D01*
X45364371Y46222719D01*
X45288858Y46230156D01*
X45143524Y46274243D01*
X45143521Y46274244D01*
X45009584Y46345835D01*
X44892183Y46442183D01*
X44795835Y46559584D01*
X44724244Y46693521D01*
X44724243Y46693524D01*
X44680156Y46838858D01*
X44665270Y46990000D01*
X44680156Y47141142D01*
X44724243Y47286476D01*
X44724244Y47286479D01*
X44795835Y47420416D01*
X44892183Y47537817D01*
X45009584Y47634165D01*
X45143521Y47705756D01*
X45143524Y47705757D01*
X45288858Y47749844D01*
X45364371Y47757281D01*
X45402127Y47761000D01*
X46037873Y47761000D01*
X46075629Y47757281D01*
G37*
G36*
X58955629Y47757281D02*
G01*
X59031142Y47749844D01*
X59176476Y47705757D01*
X59176479Y47705756D01*
X59310416Y47634165D01*
X59427817Y47537817D01*
X59524165Y47420416D01*
X59595756Y47286479D01*
X59595757Y47286476D01*
X59639844Y47141142D01*
X59654730Y46990000D01*
X59639844Y46838858D01*
X59595757Y46693524D01*
X59595756Y46693521D01*
X59524165Y46559584D01*
X59427817Y46442183D01*
X59310416Y46345835D01*
X59176479Y46274244D01*
X59176476Y46274243D01*
X59031142Y46230156D01*
X58955629Y46222719D01*
X58917873Y46219000D01*
X58282127Y46219000D01*
X58244371Y46222719D01*
X58168858Y46230156D01*
X58023524Y46274243D01*
X58023521Y46274244D01*
X57889584Y46345835D01*
X57772183Y46442183D01*
X57675835Y46559584D01*
X57604244Y46693521D01*
X57604243Y46693524D01*
X57560156Y46838858D01*
X57545270Y46990000D01*
X57560156Y47141142D01*
X57604243Y47286476D01*
X57604244Y47286479D01*
X57675835Y47420416D01*
X57772183Y47537817D01*
X57889584Y47634165D01*
X58023521Y47705756D01*
X58023524Y47705757D01*
X58168858Y47749844D01*
X58244371Y47757281D01*
X58282127Y47761000D01*
X58917873Y47761000D01*
X58955629Y47757281D01*
G37*
G36*
X69115629Y47757281D02*
G01*
X69191142Y47749844D01*
X69336476Y47705757D01*
X69336479Y47705756D01*
X69470416Y47634165D01*
X69587817Y47537817D01*
X69684165Y47420416D01*
X69755756Y47286479D01*
X69755757Y47286476D01*
X69799844Y47141142D01*
X69814730Y46990000D01*
X69799844Y46838858D01*
X69755757Y46693524D01*
X69755756Y46693521D01*
X69684165Y46559584D01*
X69587817Y46442183D01*
X69470416Y46345835D01*
X69336479Y46274244D01*
X69336476Y46274243D01*
X69191142Y46230156D01*
X69115629Y46222719D01*
X69077873Y46219000D01*
X68442127Y46219000D01*
X68404371Y46222719D01*
X68328858Y46230156D01*
X68183524Y46274243D01*
X68183521Y46274244D01*
X68049584Y46345835D01*
X67932183Y46442183D01*
X67835835Y46559584D01*
X67764244Y46693521D01*
X67764243Y46693524D01*
X67720156Y46838858D01*
X67705270Y46990000D01*
X67720156Y47141142D01*
X67764243Y47286476D01*
X67764244Y47286479D01*
X67835835Y47420416D01*
X67932183Y47537817D01*
X68049584Y47634165D01*
X68183521Y47705756D01*
X68183524Y47705757D01*
X68328858Y47749844D01*
X68404371Y47757281D01*
X68442127Y47761000D01*
X69077873Y47761000D01*
X69115629Y47757281D01*
G37*
G36*
X81635629Y47757281D02*
G01*
X81711142Y47749844D01*
X81856476Y47705757D01*
X81856479Y47705756D01*
X81990416Y47634165D01*
X82107817Y47537817D01*
X82204165Y47420416D01*
X82275756Y47286479D01*
X82275757Y47286476D01*
X82319844Y47141142D01*
X82334730Y46990000D01*
X82319844Y46838858D01*
X82275757Y46693524D01*
X82275756Y46693521D01*
X82204165Y46559584D01*
X82107817Y46442183D01*
X81990416Y46345835D01*
X81856479Y46274244D01*
X81856476Y46274243D01*
X81711142Y46230156D01*
X81635629Y46222719D01*
X81597873Y46219000D01*
X80962127Y46219000D01*
X80924371Y46222719D01*
X80848858Y46230156D01*
X80703524Y46274243D01*
X80703521Y46274244D01*
X80569584Y46345835D01*
X80452183Y46442183D01*
X80355835Y46559584D01*
X80284244Y46693521D01*
X80284243Y46693524D01*
X80240156Y46838858D01*
X80225270Y46990000D01*
X80240156Y47141142D01*
X80284243Y47286476D01*
X80284244Y47286479D01*
X80355835Y47420416D01*
X80452183Y47537817D01*
X80569584Y47634165D01*
X80703521Y47705756D01*
X80703524Y47705757D01*
X80848858Y47749844D01*
X80924371Y47757281D01*
X80962127Y47761000D01*
X81597873Y47761000D01*
X81635629Y47757281D01*
G37*
G36*
X7975629Y50297281D02*
G01*
X8051142Y50289844D01*
X8196476Y50245757D01*
X8196479Y50245756D01*
X8330416Y50174165D01*
X8447817Y50077817D01*
X8544165Y49960416D01*
X8615756Y49826479D01*
X8615757Y49826476D01*
X8659844Y49681142D01*
X8674730Y49530000D01*
X8659844Y49378858D01*
X8615757Y49233524D01*
X8615756Y49233521D01*
X8544165Y49099584D01*
X8447817Y48982183D01*
X8330416Y48885835D01*
X8196479Y48814244D01*
X8196476Y48814243D01*
X8051142Y48770156D01*
X7975629Y48762719D01*
X7937873Y48759000D01*
X7302127Y48759000D01*
X7264371Y48762719D01*
X7188858Y48770156D01*
X7043524Y48814243D01*
X7043521Y48814244D01*
X6909584Y48885835D01*
X6792183Y48982183D01*
X6695835Y49099584D01*
X6624244Y49233521D01*
X6624243Y49233524D01*
X6580156Y49378858D01*
X6565270Y49530000D01*
X6580156Y49681142D01*
X6624243Y49826476D01*
X6624244Y49826479D01*
X6695835Y49960416D01*
X6792183Y50077817D01*
X6909584Y50174165D01*
X7043521Y50245756D01*
X7043524Y50245757D01*
X7188858Y50289844D01*
X7264371Y50297281D01*
X7302127Y50301000D01*
X7937873Y50301000D01*
X7975629Y50297281D01*
G37*
G36*
X58955629Y50297281D02*
G01*
X59031142Y50289844D01*
X59176476Y50245757D01*
X59176479Y50245756D01*
X59310416Y50174165D01*
X59427817Y50077817D01*
X59524165Y49960416D01*
X59595756Y49826479D01*
X59595757Y49826476D01*
X59639844Y49681142D01*
X59654730Y49530000D01*
X59639844Y49378858D01*
X59595757Y49233524D01*
X59595756Y49233521D01*
X59524165Y49099584D01*
X59427817Y48982183D01*
X59310416Y48885835D01*
X59176479Y48814244D01*
X59176476Y48814243D01*
X59031142Y48770156D01*
X58955629Y48762719D01*
X58917873Y48759000D01*
X58282127Y48759000D01*
X58244371Y48762719D01*
X58168858Y48770156D01*
X58023524Y48814243D01*
X58023521Y48814244D01*
X57889584Y48885835D01*
X57772183Y48982183D01*
X57675835Y49099584D01*
X57604244Y49233521D01*
X57604243Y49233524D01*
X57560156Y49378858D01*
X57545270Y49530000D01*
X57560156Y49681142D01*
X57604243Y49826476D01*
X57604244Y49826479D01*
X57675835Y49960416D01*
X57772183Y50077817D01*
X57889584Y50174165D01*
X58023521Y50245756D01*
X58023524Y50245757D01*
X58168858Y50289844D01*
X58244371Y50297281D01*
X58282127Y50301000D01*
X58917873Y50301000D01*
X58955629Y50297281D01*
G37*
G36*
X46075629Y50297281D02*
G01*
X46151142Y50289844D01*
X46296476Y50245757D01*
X46296479Y50245756D01*
X46430416Y50174165D01*
X46547817Y50077817D01*
X46644165Y49960416D01*
X46715756Y49826479D01*
X46715757Y49826476D01*
X46759844Y49681142D01*
X46774730Y49530000D01*
X46759844Y49378858D01*
X46715757Y49233524D01*
X46715756Y49233521D01*
X46644165Y49099584D01*
X46547817Y48982183D01*
X46430416Y48885835D01*
X46296479Y48814244D01*
X46296476Y48814243D01*
X46151142Y48770156D01*
X46075629Y48762719D01*
X46037873Y48759000D01*
X45402127Y48759000D01*
X45364371Y48762719D01*
X45288858Y48770156D01*
X45143524Y48814243D01*
X45143521Y48814244D01*
X45009584Y48885835D01*
X44892183Y48982183D01*
X44795835Y49099584D01*
X44724244Y49233521D01*
X44724243Y49233524D01*
X44680156Y49378858D01*
X44665270Y49530000D01*
X44680156Y49681142D01*
X44724243Y49826476D01*
X44724244Y49826479D01*
X44795835Y49960416D01*
X44892183Y50077817D01*
X45009584Y50174165D01*
X45143521Y50245756D01*
X45143524Y50245757D01*
X45288858Y50289844D01*
X45364371Y50297281D01*
X45402127Y50301000D01*
X46037873Y50301000D01*
X46075629Y50297281D01*
G37*
G36*
X35915629Y50297281D02*
G01*
X35991142Y50289844D01*
X36136476Y50245757D01*
X36136479Y50245756D01*
X36270416Y50174165D01*
X36387817Y50077817D01*
X36484165Y49960416D01*
X36555756Y49826479D01*
X36555757Y49826476D01*
X36599844Y49681142D01*
X36614730Y49530000D01*
X36599844Y49378858D01*
X36555757Y49233524D01*
X36555756Y49233521D01*
X36484165Y49099584D01*
X36387817Y48982183D01*
X36270416Y48885835D01*
X36136479Y48814244D01*
X36136476Y48814243D01*
X35991142Y48770156D01*
X35915629Y48762719D01*
X35877873Y48759000D01*
X35242127Y48759000D01*
X35204371Y48762719D01*
X35128858Y48770156D01*
X34983524Y48814243D01*
X34983521Y48814244D01*
X34849584Y48885835D01*
X34732183Y48982183D01*
X34635835Y49099584D01*
X34564244Y49233521D01*
X34564243Y49233524D01*
X34520156Y49378858D01*
X34505270Y49530000D01*
X34520156Y49681142D01*
X34564243Y49826476D01*
X34564244Y49826479D01*
X34635835Y49960416D01*
X34732183Y50077817D01*
X34849584Y50174165D01*
X34983521Y50245756D01*
X34983524Y50245757D01*
X35128858Y50289844D01*
X35204371Y50297281D01*
X35242127Y50301000D01*
X35877873Y50301000D01*
X35915629Y50297281D01*
G37*
G36*
X69115629Y50297281D02*
G01*
X69191142Y50289844D01*
X69336476Y50245757D01*
X69336479Y50245756D01*
X69470416Y50174165D01*
X69587817Y50077817D01*
X69684165Y49960416D01*
X69755756Y49826479D01*
X69755757Y49826476D01*
X69799844Y49681142D01*
X69814730Y49530000D01*
X69799844Y49378858D01*
X69755757Y49233524D01*
X69755756Y49233521D01*
X69684165Y49099584D01*
X69587817Y48982183D01*
X69470416Y48885835D01*
X69336479Y48814244D01*
X69336476Y48814243D01*
X69191142Y48770156D01*
X69115629Y48762719D01*
X69077873Y48759000D01*
X68442127Y48759000D01*
X68404371Y48762719D01*
X68328858Y48770156D01*
X68183524Y48814243D01*
X68183521Y48814244D01*
X68049584Y48885835D01*
X67932183Y48982183D01*
X67835835Y49099584D01*
X67764244Y49233521D01*
X67764243Y49233524D01*
X67720156Y49378858D01*
X67705270Y49530000D01*
X67720156Y49681142D01*
X67764243Y49826476D01*
X67764244Y49826479D01*
X67835835Y49960416D01*
X67932183Y50077817D01*
X68049584Y50174165D01*
X68183521Y50245756D01*
X68183524Y50245757D01*
X68328858Y50289844D01*
X68404371Y50297281D01*
X68442127Y50301000D01*
X69077873Y50301000D01*
X69115629Y50297281D01*
G37*
G36*
X89255629Y50297281D02*
G01*
X89331142Y50289844D01*
X89476476Y50245757D01*
X89476479Y50245756D01*
X89610416Y50174165D01*
X89727817Y50077817D01*
X89824165Y49960416D01*
X89895756Y49826479D01*
X89895757Y49826476D01*
X89939844Y49681142D01*
X89954730Y49530000D01*
X89939844Y49378858D01*
X89895757Y49233524D01*
X89895756Y49233521D01*
X89824165Y49099584D01*
X89727817Y48982183D01*
X89610416Y48885835D01*
X89476479Y48814244D01*
X89476476Y48814243D01*
X89331142Y48770156D01*
X89255629Y48762719D01*
X89217873Y48759000D01*
X88582127Y48759000D01*
X88544371Y48762719D01*
X88468858Y48770156D01*
X88323524Y48814243D01*
X88323521Y48814244D01*
X88189584Y48885835D01*
X88072183Y48982183D01*
X87975835Y49099584D01*
X87904244Y49233521D01*
X87904243Y49233524D01*
X87860156Y49378858D01*
X87845270Y49530000D01*
X87860156Y49681142D01*
X87904243Y49826476D01*
X87904244Y49826479D01*
X87975835Y49960416D01*
X88072183Y50077817D01*
X88189584Y50174165D01*
X88323521Y50245756D01*
X88323524Y50245757D01*
X88468858Y50289844D01*
X88544371Y50297281D01*
X88582127Y50301000D01*
X89217873Y50301000D01*
X89255629Y50297281D01*
G37*
G36*
X81635629Y50297281D02*
G01*
X81711142Y50289844D01*
X81856476Y50245757D01*
X81856479Y50245756D01*
X81990416Y50174165D01*
X82107817Y50077817D01*
X82204165Y49960416D01*
X82275756Y49826479D01*
X82275757Y49826476D01*
X82319844Y49681142D01*
X82334730Y49530000D01*
X82319844Y49378858D01*
X82275757Y49233524D01*
X82275756Y49233521D01*
X82204165Y49099584D01*
X82107817Y48982183D01*
X81990416Y48885835D01*
X81856479Y48814244D01*
X81856476Y48814243D01*
X81711142Y48770156D01*
X81635629Y48762719D01*
X81597873Y48759000D01*
X80962127Y48759000D01*
X80924371Y48762719D01*
X80848858Y48770156D01*
X80703524Y48814243D01*
X80703521Y48814244D01*
X80569584Y48885835D01*
X80452183Y48982183D01*
X80355835Y49099584D01*
X80284244Y49233521D01*
X80284243Y49233524D01*
X80240156Y49378858D01*
X80225270Y49530000D01*
X80240156Y49681142D01*
X80284243Y49826476D01*
X80284244Y49826479D01*
X80355835Y49960416D01*
X80452183Y50077817D01*
X80569584Y50174165D01*
X80703521Y50245756D01*
X80703524Y50245757D01*
X80848858Y50289844D01*
X80924371Y50297281D01*
X80962127Y50301000D01*
X81597873Y50301000D01*
X81635629Y50297281D01*
G37*
G36*
X23215629Y50297281D02*
G01*
X23291142Y50289844D01*
X23436476Y50245757D01*
X23436479Y50245756D01*
X23570416Y50174165D01*
X23687817Y50077817D01*
X23784165Y49960416D01*
X23855756Y49826479D01*
X23855757Y49826476D01*
X23899844Y49681142D01*
X23914730Y49530000D01*
X23899844Y49378858D01*
X23855757Y49233524D01*
X23855756Y49233521D01*
X23784165Y49099584D01*
X23687817Y48982183D01*
X23570416Y48885835D01*
X23436479Y48814244D01*
X23436476Y48814243D01*
X23291142Y48770156D01*
X23215629Y48762719D01*
X23177873Y48759000D01*
X22542127Y48759000D01*
X22504371Y48762719D01*
X22428858Y48770156D01*
X22283524Y48814243D01*
X22283521Y48814244D01*
X22149584Y48885835D01*
X22032183Y48982183D01*
X21935835Y49099584D01*
X21864244Y49233521D01*
X21864243Y49233524D01*
X21820156Y49378858D01*
X21805270Y49530000D01*
X21820156Y49681142D01*
X21864243Y49826476D01*
X21864244Y49826479D01*
X21935835Y49960416D01*
X22032183Y50077817D01*
X22149584Y50174165D01*
X22283521Y50245756D01*
X22283524Y50245757D01*
X22428858Y50289844D01*
X22504371Y50297281D01*
X22542127Y50301000D01*
X23177873Y50301000D01*
X23215629Y50297281D01*
G37*
G36*
X69115629Y52837281D02*
G01*
X69191142Y52829844D01*
X69336476Y52785757D01*
X69336479Y52785756D01*
X69470416Y52714165D01*
X69587817Y52617817D01*
X69684165Y52500416D01*
X69755756Y52366479D01*
X69755757Y52366476D01*
X69799844Y52221142D01*
X69814730Y52070000D01*
X69799844Y51918858D01*
X69755757Y51773524D01*
X69755756Y51773521D01*
X69684165Y51639584D01*
X69587817Y51522183D01*
X69470416Y51425835D01*
X69336479Y51354244D01*
X69336476Y51354243D01*
X69191142Y51310156D01*
X69115629Y51302719D01*
X69077873Y51299000D01*
X68442127Y51299000D01*
X68404371Y51302719D01*
X68328858Y51310156D01*
X68183524Y51354243D01*
X68183521Y51354244D01*
X68049584Y51425835D01*
X67932183Y51522183D01*
X67835835Y51639584D01*
X67764244Y51773521D01*
X67764243Y51773524D01*
X67720156Y51918858D01*
X67705270Y52070000D01*
X67720156Y52221142D01*
X67764243Y52366476D01*
X67764244Y52366479D01*
X67835835Y52500416D01*
X67932183Y52617817D01*
X68049584Y52714165D01*
X68183521Y52785756D01*
X68183524Y52785757D01*
X68328858Y52829844D01*
X68404371Y52837281D01*
X68442127Y52841000D01*
X69077873Y52841000D01*
X69115629Y52837281D01*
G37*
G36*
X35915629Y52837281D02*
G01*
X35991142Y52829844D01*
X36136476Y52785757D01*
X36136479Y52785756D01*
X36270416Y52714165D01*
X36387817Y52617817D01*
X36484165Y52500416D01*
X36555756Y52366479D01*
X36555757Y52366476D01*
X36599844Y52221142D01*
X36614730Y52070000D01*
X36599844Y51918858D01*
X36555757Y51773524D01*
X36555756Y51773521D01*
X36484165Y51639584D01*
X36387817Y51522183D01*
X36270416Y51425835D01*
X36136479Y51354244D01*
X36136476Y51354243D01*
X35991142Y51310156D01*
X35915629Y51302719D01*
X35877873Y51299000D01*
X35242127Y51299000D01*
X35204371Y51302719D01*
X35128858Y51310156D01*
X34983524Y51354243D01*
X34983521Y51354244D01*
X34849584Y51425835D01*
X34732183Y51522183D01*
X34635835Y51639584D01*
X34564244Y51773521D01*
X34564243Y51773524D01*
X34520156Y51918858D01*
X34505270Y52070000D01*
X34520156Y52221142D01*
X34564243Y52366476D01*
X34564244Y52366479D01*
X34635835Y52500416D01*
X34732183Y52617817D01*
X34849584Y52714165D01*
X34983521Y52785756D01*
X34983524Y52785757D01*
X35128858Y52829844D01*
X35204371Y52837281D01*
X35242127Y52841000D01*
X35877873Y52841000D01*
X35915629Y52837281D01*
G37*
G36*
X46075629Y52837281D02*
G01*
X46151142Y52829844D01*
X46296476Y52785757D01*
X46296479Y52785756D01*
X46430416Y52714165D01*
X46547817Y52617817D01*
X46644165Y52500416D01*
X46715756Y52366479D01*
X46715757Y52366476D01*
X46759844Y52221142D01*
X46774730Y52070000D01*
X46759844Y51918858D01*
X46715757Y51773524D01*
X46715756Y51773521D01*
X46644165Y51639584D01*
X46547817Y51522183D01*
X46430416Y51425835D01*
X46296479Y51354244D01*
X46296476Y51354243D01*
X46151142Y51310156D01*
X46075629Y51302719D01*
X46037873Y51299000D01*
X45402127Y51299000D01*
X45364371Y51302719D01*
X45288858Y51310156D01*
X45143524Y51354243D01*
X45143521Y51354244D01*
X45009584Y51425835D01*
X44892183Y51522183D01*
X44795835Y51639584D01*
X44724244Y51773521D01*
X44724243Y51773524D01*
X44680156Y51918858D01*
X44665270Y52070000D01*
X44680156Y52221142D01*
X44724243Y52366476D01*
X44724244Y52366479D01*
X44795835Y52500416D01*
X44892183Y52617817D01*
X45009584Y52714165D01*
X45143521Y52785756D01*
X45143524Y52785757D01*
X45288858Y52829844D01*
X45364371Y52837281D01*
X45402127Y52841000D01*
X46037873Y52841000D01*
X46075629Y52837281D01*
G37*
G36*
X58955629Y52837281D02*
G01*
X59031142Y52829844D01*
X59176476Y52785757D01*
X59176479Y52785756D01*
X59310416Y52714165D01*
X59427817Y52617817D01*
X59524165Y52500416D01*
X59595756Y52366479D01*
X59595757Y52366476D01*
X59639844Y52221142D01*
X59654730Y52070000D01*
X59639844Y51918858D01*
X59595757Y51773524D01*
X59595756Y51773521D01*
X59524165Y51639584D01*
X59427817Y51522183D01*
X59310416Y51425835D01*
X59176479Y51354244D01*
X59176476Y51354243D01*
X59031142Y51310156D01*
X58955629Y51302719D01*
X58917873Y51299000D01*
X58282127Y51299000D01*
X58244371Y51302719D01*
X58168858Y51310156D01*
X58023524Y51354243D01*
X58023521Y51354244D01*
X57889584Y51425835D01*
X57772183Y51522183D01*
X57675835Y51639584D01*
X57604244Y51773521D01*
X57604243Y51773524D01*
X57560156Y51918858D01*
X57545270Y52070000D01*
X57560156Y52221142D01*
X57604243Y52366476D01*
X57604244Y52366479D01*
X57675835Y52500416D01*
X57772183Y52617817D01*
X57889584Y52714165D01*
X58023521Y52785756D01*
X58023524Y52785757D01*
X58168858Y52829844D01*
X58244371Y52837281D01*
X58282127Y52841000D01*
X58917873Y52841000D01*
X58955629Y52837281D01*
G37*
G36*
X23215629Y52837281D02*
G01*
X23291142Y52829844D01*
X23436476Y52785757D01*
X23436479Y52785756D01*
X23570416Y52714165D01*
X23687817Y52617817D01*
X23784165Y52500416D01*
X23855756Y52366479D01*
X23855757Y52366476D01*
X23899844Y52221142D01*
X23914730Y52070000D01*
X23899844Y51918858D01*
X23855757Y51773524D01*
X23855756Y51773521D01*
X23784165Y51639584D01*
X23687817Y51522183D01*
X23570416Y51425835D01*
X23436479Y51354244D01*
X23436476Y51354243D01*
X23291142Y51310156D01*
X23215629Y51302719D01*
X23177873Y51299000D01*
X22542127Y51299000D01*
X22504371Y51302719D01*
X22428858Y51310156D01*
X22283524Y51354243D01*
X22283521Y51354244D01*
X22149584Y51425835D01*
X22032183Y51522183D01*
X21935835Y51639584D01*
X21864244Y51773521D01*
X21864243Y51773524D01*
X21820156Y51918858D01*
X21805270Y52070000D01*
X21820156Y52221142D01*
X21864243Y52366476D01*
X21864244Y52366479D01*
X21935835Y52500416D01*
X22032183Y52617817D01*
X22149584Y52714165D01*
X22283521Y52785756D01*
X22283524Y52785757D01*
X22428858Y52829844D01*
X22504371Y52837281D01*
X22542127Y52841000D01*
X23177873Y52841000D01*
X23215629Y52837281D01*
G37*
G36*
X81635629Y52837281D02*
G01*
X81711142Y52829844D01*
X81856476Y52785757D01*
X81856479Y52785756D01*
X81990416Y52714165D01*
X82107817Y52617817D01*
X82204165Y52500416D01*
X82275756Y52366479D01*
X82275757Y52366476D01*
X82319844Y52221142D01*
X82334730Y52070000D01*
X82319844Y51918858D01*
X82275757Y51773524D01*
X82275756Y51773521D01*
X82204165Y51639584D01*
X82107817Y51522183D01*
X81990416Y51425835D01*
X81856479Y51354244D01*
X81856476Y51354243D01*
X81711142Y51310156D01*
X81635629Y51302719D01*
X81597873Y51299000D01*
X80962127Y51299000D01*
X80924371Y51302719D01*
X80848858Y51310156D01*
X80703524Y51354243D01*
X80703521Y51354244D01*
X80569584Y51425835D01*
X80452183Y51522183D01*
X80355835Y51639584D01*
X80284244Y51773521D01*
X80284243Y51773524D01*
X80240156Y51918858D01*
X80225270Y52070000D01*
X80240156Y52221142D01*
X80284243Y52366476D01*
X80284244Y52366479D01*
X80355835Y52500416D01*
X80452183Y52617817D01*
X80569584Y52714165D01*
X80703521Y52785756D01*
X80703524Y52785757D01*
X80848858Y52829844D01*
X80924371Y52837281D01*
X80962127Y52841000D01*
X81597873Y52841000D01*
X81635629Y52837281D01*
G37*
G36*
X89255629Y52837281D02*
G01*
X89331142Y52829844D01*
X89476476Y52785757D01*
X89476479Y52785756D01*
X89610416Y52714165D01*
X89727817Y52617817D01*
X89824165Y52500416D01*
X89895756Y52366479D01*
X89895757Y52366476D01*
X89939844Y52221142D01*
X89954730Y52070000D01*
X89939844Y51918858D01*
X89895757Y51773524D01*
X89895756Y51773521D01*
X89824165Y51639584D01*
X89727817Y51522183D01*
X89610416Y51425835D01*
X89476479Y51354244D01*
X89476476Y51354243D01*
X89331142Y51310156D01*
X89255629Y51302719D01*
X89217873Y51299000D01*
X88582127Y51299000D01*
X88544371Y51302719D01*
X88468858Y51310156D01*
X88323524Y51354243D01*
X88323521Y51354244D01*
X88189584Y51425835D01*
X88072183Y51522183D01*
X87975835Y51639584D01*
X87904244Y51773521D01*
X87904243Y51773524D01*
X87860156Y51918858D01*
X87845270Y52070000D01*
X87860156Y52221142D01*
X87904243Y52366476D01*
X87904244Y52366479D01*
X87975835Y52500416D01*
X88072183Y52617817D01*
X88189584Y52714165D01*
X88323521Y52785756D01*
X88323524Y52785757D01*
X88468858Y52829844D01*
X88544371Y52837281D01*
X88582127Y52841000D01*
X89217873Y52841000D01*
X89255629Y52837281D01*
G37*
G36*
X7975629Y52837281D02*
G01*
X8051142Y52829844D01*
X8196476Y52785757D01*
X8196479Y52785756D01*
X8330416Y52714165D01*
X8447817Y52617817D01*
X8544165Y52500416D01*
X8615756Y52366479D01*
X8615757Y52366476D01*
X8659844Y52221142D01*
X8674730Y52070000D01*
X8659844Y51918858D01*
X8615757Y51773524D01*
X8615756Y51773521D01*
X8544165Y51639584D01*
X8447817Y51522183D01*
X8330416Y51425835D01*
X8196479Y51354244D01*
X8196476Y51354243D01*
X8051142Y51310156D01*
X7975629Y51302719D01*
X7937873Y51299000D01*
X7302127Y51299000D01*
X7264371Y51302719D01*
X7188858Y51310156D01*
X7043524Y51354243D01*
X7043521Y51354244D01*
X6909584Y51425835D01*
X6792183Y51522183D01*
X6695835Y51639584D01*
X6624244Y51773521D01*
X6624243Y51773524D01*
X6580156Y51918858D01*
X6565270Y52070000D01*
X6580156Y52221142D01*
X6624243Y52366476D01*
X6624244Y52366479D01*
X6695835Y52500416D01*
X6792183Y52617817D01*
X6909584Y52714165D01*
X7043521Y52785756D01*
X7043524Y52785757D01*
X7188858Y52829844D01*
X7264371Y52837281D01*
X7302127Y52841000D01*
X7937873Y52841000D01*
X7975629Y52837281D01*
G37*
G36*
X35915629Y55377281D02*
G01*
X35991142Y55369844D01*
X36136476Y55325757D01*
X36136479Y55325756D01*
X36270416Y55254165D01*
X36387817Y55157817D01*
X36484165Y55040416D01*
X36555756Y54906479D01*
X36555757Y54906476D01*
X36599844Y54761142D01*
X36614730Y54610000D01*
X36599844Y54458858D01*
X36555757Y54313524D01*
X36555756Y54313521D01*
X36484165Y54179584D01*
X36387817Y54062183D01*
X36270416Y53965835D01*
X36136479Y53894244D01*
X36136476Y53894243D01*
X35991142Y53850156D01*
X35915629Y53842719D01*
X35877873Y53839000D01*
X35242127Y53839000D01*
X35204371Y53842719D01*
X35128858Y53850156D01*
X34983524Y53894243D01*
X34983521Y53894244D01*
X34849584Y53965835D01*
X34732183Y54062183D01*
X34635835Y54179584D01*
X34564244Y54313521D01*
X34564243Y54313524D01*
X34520156Y54458858D01*
X34505270Y54610000D01*
X34520156Y54761142D01*
X34564243Y54906476D01*
X34564244Y54906479D01*
X34635835Y55040416D01*
X34732183Y55157817D01*
X34849584Y55254165D01*
X34983521Y55325756D01*
X34983524Y55325757D01*
X35128858Y55369844D01*
X35204371Y55377281D01*
X35242127Y55381000D01*
X35877873Y55381000D01*
X35915629Y55377281D01*
G37*
G36*
X46075629Y55377281D02*
G01*
X46151142Y55369844D01*
X46296476Y55325757D01*
X46296479Y55325756D01*
X46430416Y55254165D01*
X46547817Y55157817D01*
X46644165Y55040416D01*
X46715756Y54906479D01*
X46715757Y54906476D01*
X46759844Y54761142D01*
X46774730Y54610000D01*
X46759844Y54458858D01*
X46715757Y54313524D01*
X46715756Y54313521D01*
X46644165Y54179584D01*
X46547817Y54062183D01*
X46430416Y53965835D01*
X46296479Y53894244D01*
X46296476Y53894243D01*
X46151142Y53850156D01*
X46075629Y53842719D01*
X46037873Y53839000D01*
X45402127Y53839000D01*
X45364371Y53842719D01*
X45288858Y53850156D01*
X45143524Y53894243D01*
X45143521Y53894244D01*
X45009584Y53965835D01*
X44892183Y54062183D01*
X44795835Y54179584D01*
X44724244Y54313521D01*
X44724243Y54313524D01*
X44680156Y54458858D01*
X44665270Y54610000D01*
X44680156Y54761142D01*
X44724243Y54906476D01*
X44724244Y54906479D01*
X44795835Y55040416D01*
X44892183Y55157817D01*
X45009584Y55254165D01*
X45143521Y55325756D01*
X45143524Y55325757D01*
X45288858Y55369844D01*
X45364371Y55377281D01*
X45402127Y55381000D01*
X46037873Y55381000D01*
X46075629Y55377281D01*
G37*
G36*
X58955629Y55377281D02*
G01*
X59031142Y55369844D01*
X59176476Y55325757D01*
X59176479Y55325756D01*
X59310416Y55254165D01*
X59427817Y55157817D01*
X59524165Y55040416D01*
X59595756Y54906479D01*
X59595757Y54906476D01*
X59639844Y54761142D01*
X59654730Y54610000D01*
X59639844Y54458858D01*
X59595757Y54313524D01*
X59595756Y54313521D01*
X59524165Y54179584D01*
X59427817Y54062183D01*
X59310416Y53965835D01*
X59176479Y53894244D01*
X59176476Y53894243D01*
X59031142Y53850156D01*
X58955629Y53842719D01*
X58917873Y53839000D01*
X58282127Y53839000D01*
X58244371Y53842719D01*
X58168858Y53850156D01*
X58023524Y53894243D01*
X58023521Y53894244D01*
X57889584Y53965835D01*
X57772183Y54062183D01*
X57675835Y54179584D01*
X57604244Y54313521D01*
X57604243Y54313524D01*
X57560156Y54458858D01*
X57545270Y54610000D01*
X57560156Y54761142D01*
X57604243Y54906476D01*
X57604244Y54906479D01*
X57675835Y55040416D01*
X57772183Y55157817D01*
X57889584Y55254165D01*
X58023521Y55325756D01*
X58023524Y55325757D01*
X58168858Y55369844D01*
X58244371Y55377281D01*
X58282127Y55381000D01*
X58917873Y55381000D01*
X58955629Y55377281D01*
G37*
G36*
X69115629Y55377281D02*
G01*
X69191142Y55369844D01*
X69336476Y55325757D01*
X69336479Y55325756D01*
X69470416Y55254165D01*
X69587817Y55157817D01*
X69684165Y55040416D01*
X69755756Y54906479D01*
X69755757Y54906476D01*
X69799844Y54761142D01*
X69814730Y54610000D01*
X69799844Y54458858D01*
X69755757Y54313524D01*
X69755756Y54313521D01*
X69684165Y54179584D01*
X69587817Y54062183D01*
X69470416Y53965835D01*
X69336479Y53894244D01*
X69336476Y53894243D01*
X69191142Y53850156D01*
X69115629Y53842719D01*
X69077873Y53839000D01*
X68442127Y53839000D01*
X68404371Y53842719D01*
X68328858Y53850156D01*
X68183524Y53894243D01*
X68183521Y53894244D01*
X68049584Y53965835D01*
X67932183Y54062183D01*
X67835835Y54179584D01*
X67764244Y54313521D01*
X67764243Y54313524D01*
X67720156Y54458858D01*
X67705270Y54610000D01*
X67720156Y54761142D01*
X67764243Y54906476D01*
X67764244Y54906479D01*
X67835835Y55040416D01*
X67932183Y55157817D01*
X68049584Y55254165D01*
X68183521Y55325756D01*
X68183524Y55325757D01*
X68328858Y55369844D01*
X68404371Y55377281D01*
X68442127Y55381000D01*
X69077873Y55381000D01*
X69115629Y55377281D01*
G37*
G36*
X23215629Y55377281D02*
G01*
X23291142Y55369844D01*
X23436476Y55325757D01*
X23436479Y55325756D01*
X23570416Y55254165D01*
X23687817Y55157817D01*
X23784165Y55040416D01*
X23855756Y54906479D01*
X23855757Y54906476D01*
X23899844Y54761142D01*
X23914730Y54610000D01*
X23899844Y54458858D01*
X23855757Y54313524D01*
X23855756Y54313521D01*
X23784165Y54179584D01*
X23687817Y54062183D01*
X23570416Y53965835D01*
X23436479Y53894244D01*
X23436476Y53894243D01*
X23291142Y53850156D01*
X23215629Y53842719D01*
X23177873Y53839000D01*
X22542127Y53839000D01*
X22504371Y53842719D01*
X22428858Y53850156D01*
X22283524Y53894243D01*
X22283521Y53894244D01*
X22149584Y53965835D01*
X22032183Y54062183D01*
X21935835Y54179584D01*
X21864244Y54313521D01*
X21864243Y54313524D01*
X21820156Y54458858D01*
X21805270Y54610000D01*
X21820156Y54761142D01*
X21864243Y54906476D01*
X21864244Y54906479D01*
X21935835Y55040416D01*
X22032183Y55157817D01*
X22149584Y55254165D01*
X22283521Y55325756D01*
X22283524Y55325757D01*
X22428858Y55369844D01*
X22504371Y55377281D01*
X22542127Y55381000D01*
X23177873Y55381000D01*
X23215629Y55377281D01*
G37*
G36*
X7975629Y55377281D02*
G01*
X8051142Y55369844D01*
X8196476Y55325757D01*
X8196479Y55325756D01*
X8330416Y55254165D01*
X8447817Y55157817D01*
X8544165Y55040416D01*
X8615756Y54906479D01*
X8615757Y54906476D01*
X8659844Y54761142D01*
X8674730Y54610000D01*
X8659844Y54458858D01*
X8615757Y54313524D01*
X8615756Y54313521D01*
X8544165Y54179584D01*
X8447817Y54062183D01*
X8330416Y53965835D01*
X8196479Y53894244D01*
X8196476Y53894243D01*
X8051142Y53850156D01*
X7975629Y53842719D01*
X7937873Y53839000D01*
X7302127Y53839000D01*
X7264371Y53842719D01*
X7188858Y53850156D01*
X7043524Y53894243D01*
X7043521Y53894244D01*
X6909584Y53965835D01*
X6792183Y54062183D01*
X6695835Y54179584D01*
X6624244Y54313521D01*
X6624243Y54313524D01*
X6580156Y54458858D01*
X6565270Y54610000D01*
X6580156Y54761142D01*
X6624243Y54906476D01*
X6624244Y54906479D01*
X6695835Y55040416D01*
X6792183Y55157817D01*
X6909584Y55254165D01*
X7043521Y55325756D01*
X7043524Y55325757D01*
X7188858Y55369844D01*
X7264371Y55377281D01*
X7302127Y55381000D01*
X7937873Y55381000D01*
X7975629Y55377281D01*
G37*
G36*
X89255629Y55377281D02*
G01*
X89331142Y55369844D01*
X89476476Y55325757D01*
X89476479Y55325756D01*
X89610416Y55254165D01*
X89727817Y55157817D01*
X89824165Y55040416D01*
X89895756Y54906479D01*
X89895757Y54906476D01*
X89939844Y54761142D01*
X89954730Y54610000D01*
X89939844Y54458858D01*
X89895757Y54313524D01*
X89895756Y54313521D01*
X89824165Y54179584D01*
X89727817Y54062183D01*
X89610416Y53965835D01*
X89476479Y53894244D01*
X89476476Y53894243D01*
X89331142Y53850156D01*
X89255629Y53842719D01*
X89217873Y53839000D01*
X88582127Y53839000D01*
X88544371Y53842719D01*
X88468858Y53850156D01*
X88323524Y53894243D01*
X88323521Y53894244D01*
X88189584Y53965835D01*
X88072183Y54062183D01*
X87975835Y54179584D01*
X87904244Y54313521D01*
X87904243Y54313524D01*
X87860156Y54458858D01*
X87845270Y54610000D01*
X87860156Y54761142D01*
X87904243Y54906476D01*
X87904244Y54906479D01*
X87975835Y55040416D01*
X88072183Y55157817D01*
X88189584Y55254165D01*
X88323521Y55325756D01*
X88323524Y55325757D01*
X88468858Y55369844D01*
X88544371Y55377281D01*
X88582127Y55381000D01*
X89217873Y55381000D01*
X89255629Y55377281D01*
G37*
G36*
X81635629Y55377281D02*
G01*
X81711142Y55369844D01*
X81856476Y55325757D01*
X81856479Y55325756D01*
X81990416Y55254165D01*
X82107817Y55157817D01*
X82204165Y55040416D01*
X82275756Y54906479D01*
X82275757Y54906476D01*
X82319844Y54761142D01*
X82334730Y54610000D01*
X82319844Y54458858D01*
X82275757Y54313524D01*
X82275756Y54313521D01*
X82204165Y54179584D01*
X82107817Y54062183D01*
X81990416Y53965835D01*
X81856479Y53894244D01*
X81856476Y53894243D01*
X81711142Y53850156D01*
X81635629Y53842719D01*
X81597873Y53839000D01*
X80962127Y53839000D01*
X80924371Y53842719D01*
X80848858Y53850156D01*
X80703524Y53894243D01*
X80703521Y53894244D01*
X80569584Y53965835D01*
X80452183Y54062183D01*
X80355835Y54179584D01*
X80284244Y54313521D01*
X80284243Y54313524D01*
X80240156Y54458858D01*
X80225270Y54610000D01*
X80240156Y54761142D01*
X80284243Y54906476D01*
X80284244Y54906479D01*
X80355835Y55040416D01*
X80452183Y55157817D01*
X80569584Y55254165D01*
X80703521Y55325756D01*
X80703524Y55325757D01*
X80848858Y55369844D01*
X80924371Y55377281D01*
X80962127Y55381000D01*
X81597873Y55381000D01*
X81635629Y55377281D01*
G37*
G36*
X23215629Y57917281D02*
G01*
X23291142Y57909844D01*
X23436476Y57865757D01*
X23436479Y57865756D01*
X23570416Y57794165D01*
X23687817Y57697817D01*
X23784165Y57580416D01*
X23855756Y57446479D01*
X23855757Y57446476D01*
X23899844Y57301142D01*
X23914730Y57150000D01*
X23899844Y56998858D01*
X23855757Y56853524D01*
X23855756Y56853521D01*
X23784165Y56719584D01*
X23687817Y56602183D01*
X23570416Y56505835D01*
X23436479Y56434244D01*
X23436476Y56434243D01*
X23291142Y56390156D01*
X23215629Y56382719D01*
X23177873Y56379000D01*
X22542127Y56379000D01*
X22504371Y56382719D01*
X22428858Y56390156D01*
X22283524Y56434243D01*
X22283521Y56434244D01*
X22149584Y56505835D01*
X22032183Y56602183D01*
X21935835Y56719584D01*
X21864244Y56853521D01*
X21864243Y56853524D01*
X21820156Y56998858D01*
X21805270Y57150000D01*
X21820156Y57301142D01*
X21864243Y57446476D01*
X21864244Y57446479D01*
X21935835Y57580416D01*
X22032183Y57697817D01*
X22149584Y57794165D01*
X22283521Y57865756D01*
X22283524Y57865757D01*
X22428858Y57909844D01*
X22504371Y57917281D01*
X22542127Y57921000D01*
X23177873Y57921000D01*
X23215629Y57917281D01*
G37*
G36*
X7975629Y57917281D02*
G01*
X8051142Y57909844D01*
X8196476Y57865757D01*
X8196479Y57865756D01*
X8330416Y57794165D01*
X8447817Y57697817D01*
X8544165Y57580416D01*
X8615756Y57446479D01*
X8615757Y57446476D01*
X8659844Y57301142D01*
X8674730Y57150000D01*
X8659844Y56998858D01*
X8615757Y56853524D01*
X8615756Y56853521D01*
X8544165Y56719584D01*
X8447817Y56602183D01*
X8330416Y56505835D01*
X8196479Y56434244D01*
X8196476Y56434243D01*
X8051142Y56390156D01*
X7975629Y56382719D01*
X7937873Y56379000D01*
X7302127Y56379000D01*
X7264371Y56382719D01*
X7188858Y56390156D01*
X7043524Y56434243D01*
X7043521Y56434244D01*
X6909584Y56505835D01*
X6792183Y56602183D01*
X6695835Y56719584D01*
X6624244Y56853521D01*
X6624243Y56853524D01*
X6580156Y56998858D01*
X6565270Y57150000D01*
X6580156Y57301142D01*
X6624243Y57446476D01*
X6624244Y57446479D01*
X6695835Y57580416D01*
X6792183Y57697817D01*
X6909584Y57794165D01*
X7043521Y57865756D01*
X7043524Y57865757D01*
X7188858Y57909844D01*
X7264371Y57917281D01*
X7302127Y57921000D01*
X7937873Y57921000D01*
X7975629Y57917281D01*
G37*
G36*
X89255629Y57917281D02*
G01*
X89331142Y57909844D01*
X89476476Y57865757D01*
X89476479Y57865756D01*
X89610416Y57794165D01*
X89727817Y57697817D01*
X89824165Y57580416D01*
X89895756Y57446479D01*
X89895757Y57446476D01*
X89939844Y57301142D01*
X89954730Y57150000D01*
X89939844Y56998858D01*
X89895757Y56853524D01*
X89895756Y56853521D01*
X89824165Y56719584D01*
X89727817Y56602183D01*
X89610416Y56505835D01*
X89476479Y56434244D01*
X89476476Y56434243D01*
X89331142Y56390156D01*
X89255629Y56382719D01*
X89217873Y56379000D01*
X88582127Y56379000D01*
X88544371Y56382719D01*
X88468858Y56390156D01*
X88323524Y56434243D01*
X88323521Y56434244D01*
X88189584Y56505835D01*
X88072183Y56602183D01*
X87975835Y56719584D01*
X87904244Y56853521D01*
X87904243Y56853524D01*
X87860156Y56998858D01*
X87845270Y57150000D01*
X87860156Y57301142D01*
X87904243Y57446476D01*
X87904244Y57446479D01*
X87975835Y57580416D01*
X88072183Y57697817D01*
X88189584Y57794165D01*
X88323521Y57865756D01*
X88323524Y57865757D01*
X88468858Y57909844D01*
X88544371Y57917281D01*
X88582127Y57921000D01*
X89217873Y57921000D01*
X89255629Y57917281D01*
G37*
G36*
X81635629Y57917281D02*
G01*
X81711142Y57909844D01*
X81856476Y57865757D01*
X81856479Y57865756D01*
X81990416Y57794165D01*
X82107817Y57697817D01*
X82204165Y57580416D01*
X82275756Y57446479D01*
X82275757Y57446476D01*
X82319844Y57301142D01*
X82334730Y57150000D01*
X82319844Y56998858D01*
X82275757Y56853524D01*
X82275756Y56853521D01*
X82204165Y56719584D01*
X82107817Y56602183D01*
X81990416Y56505835D01*
X81856479Y56434244D01*
X81856476Y56434243D01*
X81711142Y56390156D01*
X81635629Y56382719D01*
X81597873Y56379000D01*
X80962127Y56379000D01*
X80924371Y56382719D01*
X80848858Y56390156D01*
X80703524Y56434243D01*
X80703521Y56434244D01*
X80569584Y56505835D01*
X80452183Y56602183D01*
X80355835Y56719584D01*
X80284244Y56853521D01*
X80284243Y56853524D01*
X80240156Y56998858D01*
X80225270Y57150000D01*
X80240156Y57301142D01*
X80284243Y57446476D01*
X80284244Y57446479D01*
X80355835Y57580416D01*
X80452183Y57697817D01*
X80569584Y57794165D01*
X80703521Y57865756D01*
X80703524Y57865757D01*
X80848858Y57909844D01*
X80924371Y57917281D01*
X80962127Y57921000D01*
X81597873Y57921000D01*
X81635629Y57917281D01*
G37*
G36*
X58955629Y57917281D02*
G01*
X59031142Y57909844D01*
X59176476Y57865757D01*
X59176479Y57865756D01*
X59310416Y57794165D01*
X59427817Y57697817D01*
X59524165Y57580416D01*
X59595756Y57446479D01*
X59595757Y57446476D01*
X59639844Y57301142D01*
X59654730Y57150000D01*
X59639844Y56998858D01*
X59595757Y56853524D01*
X59595756Y56853521D01*
X59524165Y56719584D01*
X59427817Y56602183D01*
X59310416Y56505835D01*
X59176479Y56434244D01*
X59176476Y56434243D01*
X59031142Y56390156D01*
X58955629Y56382719D01*
X58917873Y56379000D01*
X58282127Y56379000D01*
X58244371Y56382719D01*
X58168858Y56390156D01*
X58023524Y56434243D01*
X58023521Y56434244D01*
X57889584Y56505835D01*
X57772183Y56602183D01*
X57675835Y56719584D01*
X57604244Y56853521D01*
X57604243Y56853524D01*
X57560156Y56998858D01*
X57545270Y57150000D01*
X57560156Y57301142D01*
X57604243Y57446476D01*
X57604244Y57446479D01*
X57675835Y57580416D01*
X57772183Y57697817D01*
X57889584Y57794165D01*
X58023521Y57865756D01*
X58023524Y57865757D01*
X58168858Y57909844D01*
X58244371Y57917281D01*
X58282127Y57921000D01*
X58917873Y57921000D01*
X58955629Y57917281D01*
G37*
G36*
X35915629Y57917281D02*
G01*
X35991142Y57909844D01*
X36136476Y57865757D01*
X36136479Y57865756D01*
X36270416Y57794165D01*
X36387817Y57697817D01*
X36484165Y57580416D01*
X36555756Y57446479D01*
X36555757Y57446476D01*
X36599844Y57301142D01*
X36614730Y57150000D01*
X36599844Y56998858D01*
X36555757Y56853524D01*
X36555756Y56853521D01*
X36484165Y56719584D01*
X36387817Y56602183D01*
X36270416Y56505835D01*
X36136479Y56434244D01*
X36136476Y56434243D01*
X35991142Y56390156D01*
X35915629Y56382719D01*
X35877873Y56379000D01*
X35242127Y56379000D01*
X35204371Y56382719D01*
X35128858Y56390156D01*
X34983524Y56434243D01*
X34983521Y56434244D01*
X34849584Y56505835D01*
X34732183Y56602183D01*
X34635835Y56719584D01*
X34564244Y56853521D01*
X34564243Y56853524D01*
X34520156Y56998858D01*
X34505270Y57150000D01*
X34520156Y57301142D01*
X34564243Y57446476D01*
X34564244Y57446479D01*
X34635835Y57580416D01*
X34732183Y57697817D01*
X34849584Y57794165D01*
X34983521Y57865756D01*
X34983524Y57865757D01*
X35128858Y57909844D01*
X35204371Y57917281D01*
X35242127Y57921000D01*
X35877873Y57921000D01*
X35915629Y57917281D01*
G37*
G36*
X46075629Y57917281D02*
G01*
X46151142Y57909844D01*
X46296476Y57865757D01*
X46296479Y57865756D01*
X46430416Y57794165D01*
X46547817Y57697817D01*
X46644165Y57580416D01*
X46715756Y57446479D01*
X46715757Y57446476D01*
X46759844Y57301142D01*
X46774730Y57150000D01*
X46759844Y56998858D01*
X46715757Y56853524D01*
X46715756Y56853521D01*
X46644165Y56719584D01*
X46547817Y56602183D01*
X46430416Y56505835D01*
X46296479Y56434244D01*
X46296476Y56434243D01*
X46151142Y56390156D01*
X46075629Y56382719D01*
X46037873Y56379000D01*
X45402127Y56379000D01*
X45364371Y56382719D01*
X45288858Y56390156D01*
X45143524Y56434243D01*
X45143521Y56434244D01*
X45009584Y56505835D01*
X44892183Y56602183D01*
X44795835Y56719584D01*
X44724244Y56853521D01*
X44724243Y56853524D01*
X44680156Y56998858D01*
X44665270Y57150000D01*
X44680156Y57301142D01*
X44724243Y57446476D01*
X44724244Y57446479D01*
X44795835Y57580416D01*
X44892183Y57697817D01*
X45009584Y57794165D01*
X45143521Y57865756D01*
X45143524Y57865757D01*
X45288858Y57909844D01*
X45364371Y57917281D01*
X45402127Y57921000D01*
X46037873Y57921000D01*
X46075629Y57917281D01*
G37*
G36*
X69115629Y57917281D02*
G01*
X69191142Y57909844D01*
X69336476Y57865757D01*
X69336479Y57865756D01*
X69470416Y57794165D01*
X69587817Y57697817D01*
X69684165Y57580416D01*
X69755756Y57446479D01*
X69755757Y57446476D01*
X69799844Y57301142D01*
X69814730Y57150000D01*
X69799844Y56998858D01*
X69755757Y56853524D01*
X69755756Y56853521D01*
X69684165Y56719584D01*
X69587817Y56602183D01*
X69470416Y56505835D01*
X69336479Y56434244D01*
X69336476Y56434243D01*
X69191142Y56390156D01*
X69115629Y56382719D01*
X69077873Y56379000D01*
X68442127Y56379000D01*
X68404371Y56382719D01*
X68328858Y56390156D01*
X68183524Y56434243D01*
X68183521Y56434244D01*
X68049584Y56505835D01*
X67932183Y56602183D01*
X67835835Y56719584D01*
X67764244Y56853521D01*
X67764243Y56853524D01*
X67720156Y56998858D01*
X67705270Y57150000D01*
X67720156Y57301142D01*
X67764243Y57446476D01*
X67764244Y57446479D01*
X67835835Y57580416D01*
X67932183Y57697817D01*
X68049584Y57794165D01*
X68183521Y57865756D01*
X68183524Y57865757D01*
X68328858Y57909844D01*
X68404371Y57917281D01*
X68442127Y57921000D01*
X69077873Y57921000D01*
X69115629Y57917281D01*
G37*
G36*
X69115629Y60457281D02*
G01*
X69191142Y60449844D01*
X69336476Y60405757D01*
X69336479Y60405756D01*
X69470416Y60334165D01*
X69587817Y60237817D01*
X69684165Y60120416D01*
X69755756Y59986479D01*
X69755757Y59986476D01*
X69799844Y59841142D01*
X69814730Y59690000D01*
X69799844Y59538858D01*
X69755757Y59393524D01*
X69755756Y59393521D01*
X69684165Y59259584D01*
X69587817Y59142183D01*
X69470416Y59045835D01*
X69336479Y58974244D01*
X69336476Y58974243D01*
X69191142Y58930156D01*
X69115629Y58922719D01*
X69077873Y58919000D01*
X68442127Y58919000D01*
X68404371Y58922719D01*
X68328858Y58930156D01*
X68183524Y58974243D01*
X68183521Y58974244D01*
X68049584Y59045835D01*
X67932183Y59142183D01*
X67835835Y59259584D01*
X67764244Y59393521D01*
X67764243Y59393524D01*
X67720156Y59538858D01*
X67705270Y59690000D01*
X67720156Y59841142D01*
X67764243Y59986476D01*
X67764244Y59986479D01*
X67835835Y60120416D01*
X67932183Y60237817D01*
X68049584Y60334165D01*
X68183521Y60405756D01*
X68183524Y60405757D01*
X68328858Y60449844D01*
X68404371Y60457281D01*
X68442127Y60461000D01*
X69077873Y60461000D01*
X69115629Y60457281D01*
G37*
G36*
X35915629Y60457281D02*
G01*
X35991142Y60449844D01*
X36136476Y60405757D01*
X36136479Y60405756D01*
X36270416Y60334165D01*
X36387817Y60237817D01*
X36484165Y60120416D01*
X36555756Y59986479D01*
X36555757Y59986476D01*
X36599844Y59841142D01*
X36614730Y59690000D01*
X36599844Y59538858D01*
X36555757Y59393524D01*
X36555756Y59393521D01*
X36484165Y59259584D01*
X36387817Y59142183D01*
X36270416Y59045835D01*
X36136479Y58974244D01*
X36136476Y58974243D01*
X35991142Y58930156D01*
X35915629Y58922719D01*
X35877873Y58919000D01*
X35242127Y58919000D01*
X35204371Y58922719D01*
X35128858Y58930156D01*
X34983524Y58974243D01*
X34983521Y58974244D01*
X34849584Y59045835D01*
X34732183Y59142183D01*
X34635835Y59259584D01*
X34564244Y59393521D01*
X34564243Y59393524D01*
X34520156Y59538858D01*
X34505270Y59690000D01*
X34520156Y59841142D01*
X34564243Y59986476D01*
X34564244Y59986479D01*
X34635835Y60120416D01*
X34732183Y60237817D01*
X34849584Y60334165D01*
X34983521Y60405756D01*
X34983524Y60405757D01*
X35128858Y60449844D01*
X35204371Y60457281D01*
X35242127Y60461000D01*
X35877873Y60461000D01*
X35915629Y60457281D01*
G37*
G36*
X89255629Y60457281D02*
G01*
X89331142Y60449844D01*
X89476476Y60405757D01*
X89476479Y60405756D01*
X89610416Y60334165D01*
X89727817Y60237817D01*
X89824165Y60120416D01*
X89895756Y59986479D01*
X89895757Y59986476D01*
X89939844Y59841142D01*
X89954730Y59690000D01*
X89939844Y59538858D01*
X89895757Y59393524D01*
X89895756Y59393521D01*
X89824165Y59259584D01*
X89727817Y59142183D01*
X89610416Y59045835D01*
X89476479Y58974244D01*
X89476476Y58974243D01*
X89331142Y58930156D01*
X89255629Y58922719D01*
X89217873Y58919000D01*
X88582127Y58919000D01*
X88544371Y58922719D01*
X88468858Y58930156D01*
X88323524Y58974243D01*
X88323521Y58974244D01*
X88189584Y59045835D01*
X88072183Y59142183D01*
X87975835Y59259584D01*
X87904244Y59393521D01*
X87904243Y59393524D01*
X87860156Y59538858D01*
X87845270Y59690000D01*
X87860156Y59841142D01*
X87904243Y59986476D01*
X87904244Y59986479D01*
X87975835Y60120416D01*
X88072183Y60237817D01*
X88189584Y60334165D01*
X88323521Y60405756D01*
X88323524Y60405757D01*
X88468858Y60449844D01*
X88544371Y60457281D01*
X88582127Y60461000D01*
X89217873Y60461000D01*
X89255629Y60457281D01*
G37*
G36*
X81635629Y60457281D02*
G01*
X81711142Y60449844D01*
X81856476Y60405757D01*
X81856479Y60405756D01*
X81990416Y60334165D01*
X82107817Y60237817D01*
X82204165Y60120416D01*
X82275756Y59986479D01*
X82275757Y59986476D01*
X82319844Y59841142D01*
X82334730Y59690000D01*
X82319844Y59538858D01*
X82275757Y59393524D01*
X82275756Y59393521D01*
X82204165Y59259584D01*
X82107817Y59142183D01*
X81990416Y59045835D01*
X81856479Y58974244D01*
X81856476Y58974243D01*
X81711142Y58930156D01*
X81635629Y58922719D01*
X81597873Y58919000D01*
X80962127Y58919000D01*
X80924371Y58922719D01*
X80848858Y58930156D01*
X80703524Y58974243D01*
X80703521Y58974244D01*
X80569584Y59045835D01*
X80452183Y59142183D01*
X80355835Y59259584D01*
X80284244Y59393521D01*
X80284243Y59393524D01*
X80240156Y59538858D01*
X80225270Y59690000D01*
X80240156Y59841142D01*
X80284243Y59986476D01*
X80284244Y59986479D01*
X80355835Y60120416D01*
X80452183Y60237817D01*
X80569584Y60334165D01*
X80703521Y60405756D01*
X80703524Y60405757D01*
X80848858Y60449844D01*
X80924371Y60457281D01*
X80962127Y60461000D01*
X81597873Y60461000D01*
X81635629Y60457281D01*
G37*
G36*
X58955629Y60457281D02*
G01*
X59031142Y60449844D01*
X59176476Y60405757D01*
X59176479Y60405756D01*
X59310416Y60334165D01*
X59427817Y60237817D01*
X59524165Y60120416D01*
X59595756Y59986479D01*
X59595757Y59986476D01*
X59639844Y59841142D01*
X59654730Y59690000D01*
X59639844Y59538858D01*
X59595757Y59393524D01*
X59595756Y59393521D01*
X59524165Y59259584D01*
X59427817Y59142183D01*
X59310416Y59045835D01*
X59176479Y58974244D01*
X59176476Y58974243D01*
X59031142Y58930156D01*
X58955629Y58922719D01*
X58917873Y58919000D01*
X58282127Y58919000D01*
X58244371Y58922719D01*
X58168858Y58930156D01*
X58023524Y58974243D01*
X58023521Y58974244D01*
X57889584Y59045835D01*
X57772183Y59142183D01*
X57675835Y59259584D01*
X57604244Y59393521D01*
X57604243Y59393524D01*
X57560156Y59538858D01*
X57545270Y59690000D01*
X57560156Y59841142D01*
X57604243Y59986476D01*
X57604244Y59986479D01*
X57675835Y60120416D01*
X57772183Y60237817D01*
X57889584Y60334165D01*
X58023521Y60405756D01*
X58023524Y60405757D01*
X58168858Y60449844D01*
X58244371Y60457281D01*
X58282127Y60461000D01*
X58917873Y60461000D01*
X58955629Y60457281D01*
G37*
G36*
X23215629Y60457281D02*
G01*
X23291142Y60449844D01*
X23436476Y60405757D01*
X23436479Y60405756D01*
X23570416Y60334165D01*
X23687817Y60237817D01*
X23784165Y60120416D01*
X23855756Y59986479D01*
X23855757Y59986476D01*
X23899844Y59841142D01*
X23914730Y59690000D01*
X23899844Y59538858D01*
X23855757Y59393524D01*
X23855756Y59393521D01*
X23784165Y59259584D01*
X23687817Y59142183D01*
X23570416Y59045835D01*
X23436479Y58974244D01*
X23436476Y58974243D01*
X23291142Y58930156D01*
X23215629Y58922719D01*
X23177873Y58919000D01*
X22542127Y58919000D01*
X22504371Y58922719D01*
X22428858Y58930156D01*
X22283524Y58974243D01*
X22283521Y58974244D01*
X22149584Y59045835D01*
X22032183Y59142183D01*
X21935835Y59259584D01*
X21864244Y59393521D01*
X21864243Y59393524D01*
X21820156Y59538858D01*
X21805270Y59690000D01*
X21820156Y59841142D01*
X21864243Y59986476D01*
X21864244Y59986479D01*
X21935835Y60120416D01*
X22032183Y60237817D01*
X22149584Y60334165D01*
X22283521Y60405756D01*
X22283524Y60405757D01*
X22428858Y60449844D01*
X22504371Y60457281D01*
X22542127Y60461000D01*
X23177873Y60461000D01*
X23215629Y60457281D01*
G37*
G36*
X7975629Y60457281D02*
G01*
X8051142Y60449844D01*
X8196476Y60405757D01*
X8196479Y60405756D01*
X8330416Y60334165D01*
X8447817Y60237817D01*
X8544165Y60120416D01*
X8615756Y59986479D01*
X8615757Y59986476D01*
X8659844Y59841142D01*
X8674730Y59690000D01*
X8659844Y59538858D01*
X8615757Y59393524D01*
X8615756Y59393521D01*
X8544165Y59259584D01*
X8447817Y59142183D01*
X8330416Y59045835D01*
X8196479Y58974244D01*
X8196476Y58974243D01*
X8051142Y58930156D01*
X7975629Y58922719D01*
X7937873Y58919000D01*
X7302127Y58919000D01*
X7264371Y58922719D01*
X7188858Y58930156D01*
X7043524Y58974243D01*
X7043521Y58974244D01*
X6909584Y59045835D01*
X6792183Y59142183D01*
X6695835Y59259584D01*
X6624244Y59393521D01*
X6624243Y59393524D01*
X6580156Y59538858D01*
X6565270Y59690000D01*
X6580156Y59841142D01*
X6624243Y59986476D01*
X6624244Y59986479D01*
X6695835Y60120416D01*
X6792183Y60237817D01*
X6909584Y60334165D01*
X7043521Y60405756D01*
X7043524Y60405757D01*
X7188858Y60449844D01*
X7264371Y60457281D01*
X7302127Y60461000D01*
X7937873Y60461000D01*
X7975629Y60457281D01*
G37*
G36*
X46075629Y60457281D02*
G01*
X46151142Y60449844D01*
X46296476Y60405757D01*
X46296479Y60405756D01*
X46430416Y60334165D01*
X46547817Y60237817D01*
X46644165Y60120416D01*
X46715756Y59986479D01*
X46715757Y59986476D01*
X46759844Y59841142D01*
X46774730Y59690000D01*
X46759844Y59538858D01*
X46715757Y59393524D01*
X46715756Y59393521D01*
X46644165Y59259584D01*
X46547817Y59142183D01*
X46430416Y59045835D01*
X46296479Y58974244D01*
X46296476Y58974243D01*
X46151142Y58930156D01*
X46075629Y58922719D01*
X46037873Y58919000D01*
X45402127Y58919000D01*
X45364371Y58922719D01*
X45288858Y58930156D01*
X45143524Y58974243D01*
X45143521Y58974244D01*
X45009584Y59045835D01*
X44892183Y59142183D01*
X44795835Y59259584D01*
X44724244Y59393521D01*
X44724243Y59393524D01*
X44680156Y59538858D01*
X44665270Y59690000D01*
X44680156Y59841142D01*
X44724243Y59986476D01*
X44724244Y59986479D01*
X44795835Y60120416D01*
X44892183Y60237817D01*
X45009584Y60334165D01*
X45143521Y60405756D01*
X45143524Y60405757D01*
X45288858Y60449844D01*
X45364371Y60457281D01*
X45402127Y60461000D01*
X46037873Y60461000D01*
X46075629Y60457281D01*
G37*
G36*
X99308228Y63048297D02*
G01*
X99463100Y62984147D01*
X99602481Y62891015D01*
X99721015Y62772481D01*
X99814147Y62633100D01*
X99878297Y62478228D01*
X99911000Y62313816D01*
X99911000Y62146184D01*
X99878297Y61981772D01*
X99814147Y61826900D01*
X99721015Y61687519D01*
X99602481Y61568985D01*
X99463100Y61475853D01*
X99308228Y61411703D01*
X99143816Y61379000D01*
X98976184Y61379000D01*
X98811772Y61411703D01*
X98656900Y61475853D01*
X98517519Y61568985D01*
X98398985Y61687519D01*
X98305853Y61826900D01*
X98241703Y61981772D01*
X98209000Y62146184D01*
X98209000Y62313816D01*
X98241703Y62478228D01*
X98305853Y62633100D01*
X98398985Y62772481D01*
X98517519Y62891015D01*
X98656900Y62984147D01*
X98811772Y63048297D01*
X98976184Y63081000D01*
X99143816Y63081000D01*
X99308228Y63048297D01*
G37*
G36*
X81635629Y62997281D02*
G01*
X81711142Y62989844D01*
X81856476Y62945757D01*
X81856479Y62945756D01*
X81990416Y62874165D01*
X82107817Y62777817D01*
X82204165Y62660416D01*
X82275756Y62526479D01*
X82275757Y62526476D01*
X82319844Y62381142D01*
X82334730Y62230000D01*
X82319844Y62078858D01*
X82275757Y61933524D01*
X82275756Y61933521D01*
X82204165Y61799584D01*
X82107817Y61682183D01*
X81990416Y61585835D01*
X81856479Y61514244D01*
X81856476Y61514243D01*
X81711142Y61470156D01*
X81635629Y61462719D01*
X81597873Y61459000D01*
X80962127Y61459000D01*
X80924371Y61462719D01*
X80848858Y61470156D01*
X80703524Y61514243D01*
X80703521Y61514244D01*
X80569584Y61585835D01*
X80452183Y61682183D01*
X80355835Y61799584D01*
X80284244Y61933521D01*
X80284243Y61933524D01*
X80240156Y62078858D01*
X80225270Y62230000D01*
X80240156Y62381142D01*
X80284243Y62526476D01*
X80284244Y62526479D01*
X80355835Y62660416D01*
X80452183Y62777817D01*
X80569584Y62874165D01*
X80703521Y62945756D01*
X80703524Y62945757D01*
X80848858Y62989844D01*
X80924371Y62997281D01*
X80962127Y63001000D01*
X81597873Y63001000D01*
X81635629Y62997281D01*
G37*
G36*
X89255629Y62997281D02*
G01*
X89331142Y62989844D01*
X89476476Y62945757D01*
X89476479Y62945756D01*
X89610416Y62874165D01*
X89727817Y62777817D01*
X89824165Y62660416D01*
X89895756Y62526479D01*
X89895757Y62526476D01*
X89939844Y62381142D01*
X89954730Y62230000D01*
X89939844Y62078858D01*
X89895757Y61933524D01*
X89895756Y61933521D01*
X89824165Y61799584D01*
X89727817Y61682183D01*
X89610416Y61585835D01*
X89476479Y61514244D01*
X89476476Y61514243D01*
X89331142Y61470156D01*
X89255629Y61462719D01*
X89217873Y61459000D01*
X88582127Y61459000D01*
X88544371Y61462719D01*
X88468858Y61470156D01*
X88323524Y61514243D01*
X88323521Y61514244D01*
X88189584Y61585835D01*
X88072183Y61682183D01*
X87975835Y61799584D01*
X87904244Y61933521D01*
X87904243Y61933524D01*
X87860156Y62078858D01*
X87845270Y62230000D01*
X87860156Y62381142D01*
X87904243Y62526476D01*
X87904244Y62526479D01*
X87975835Y62660416D01*
X88072183Y62777817D01*
X88189584Y62874165D01*
X88323521Y62945756D01*
X88323524Y62945757D01*
X88468858Y62989844D01*
X88544371Y62997281D01*
X88582127Y63001000D01*
X89217873Y63001000D01*
X89255629Y62997281D01*
G37*
G36*
X7975629Y62997281D02*
G01*
X8051142Y62989844D01*
X8196476Y62945757D01*
X8196479Y62945756D01*
X8330416Y62874165D01*
X8447817Y62777817D01*
X8544165Y62660416D01*
X8615756Y62526479D01*
X8615757Y62526476D01*
X8659844Y62381142D01*
X8674730Y62230000D01*
X8659844Y62078858D01*
X8615757Y61933524D01*
X8615756Y61933521D01*
X8544165Y61799584D01*
X8447817Y61682183D01*
X8330416Y61585835D01*
X8196479Y61514244D01*
X8196476Y61514243D01*
X8051142Y61470156D01*
X7975629Y61462719D01*
X7937873Y61459000D01*
X7302127Y61459000D01*
X7264371Y61462719D01*
X7188858Y61470156D01*
X7043524Y61514243D01*
X7043521Y61514244D01*
X6909584Y61585835D01*
X6792183Y61682183D01*
X6695835Y61799584D01*
X6624244Y61933521D01*
X6624243Y61933524D01*
X6580156Y62078858D01*
X6565270Y62230000D01*
X6580156Y62381142D01*
X6624243Y62526476D01*
X6624244Y62526479D01*
X6695835Y62660416D01*
X6792183Y62777817D01*
X6909584Y62874165D01*
X7043521Y62945756D01*
X7043524Y62945757D01*
X7188858Y62989844D01*
X7264371Y62997281D01*
X7302127Y63001000D01*
X7937873Y63001000D01*
X7975629Y62997281D01*
G37*
G36*
X35915629Y62997281D02*
G01*
X35991142Y62989844D01*
X36136476Y62945757D01*
X36136479Y62945756D01*
X36270416Y62874165D01*
X36387817Y62777817D01*
X36484165Y62660416D01*
X36555756Y62526479D01*
X36555757Y62526476D01*
X36599844Y62381142D01*
X36614730Y62230000D01*
X36599844Y62078858D01*
X36555757Y61933524D01*
X36555756Y61933521D01*
X36484165Y61799584D01*
X36387817Y61682183D01*
X36270416Y61585835D01*
X36136479Y61514244D01*
X36136476Y61514243D01*
X35991142Y61470156D01*
X35915629Y61462719D01*
X35877873Y61459000D01*
X35242127Y61459000D01*
X35204371Y61462719D01*
X35128858Y61470156D01*
X34983524Y61514243D01*
X34983521Y61514244D01*
X34849584Y61585835D01*
X34732183Y61682183D01*
X34635835Y61799584D01*
X34564244Y61933521D01*
X34564243Y61933524D01*
X34520156Y62078858D01*
X34505270Y62230000D01*
X34520156Y62381142D01*
X34564243Y62526476D01*
X34564244Y62526479D01*
X34635835Y62660416D01*
X34732183Y62777817D01*
X34849584Y62874165D01*
X34983521Y62945756D01*
X34983524Y62945757D01*
X35128858Y62989844D01*
X35204371Y62997281D01*
X35242127Y63001000D01*
X35877873Y63001000D01*
X35915629Y62997281D01*
G37*
G36*
X46075629Y62997281D02*
G01*
X46151142Y62989844D01*
X46296476Y62945757D01*
X46296479Y62945756D01*
X46430416Y62874165D01*
X46547817Y62777817D01*
X46644165Y62660416D01*
X46715756Y62526479D01*
X46715757Y62526476D01*
X46759844Y62381142D01*
X46774730Y62230000D01*
X46759844Y62078858D01*
X46715757Y61933524D01*
X46715756Y61933521D01*
X46644165Y61799584D01*
X46547817Y61682183D01*
X46430416Y61585835D01*
X46296479Y61514244D01*
X46296476Y61514243D01*
X46151142Y61470156D01*
X46075629Y61462719D01*
X46037873Y61459000D01*
X45402127Y61459000D01*
X45364371Y61462719D01*
X45288858Y61470156D01*
X45143524Y61514243D01*
X45143521Y61514244D01*
X45009584Y61585835D01*
X44892183Y61682183D01*
X44795835Y61799584D01*
X44724244Y61933521D01*
X44724243Y61933524D01*
X44680156Y62078858D01*
X44665270Y62230000D01*
X44680156Y62381142D01*
X44724243Y62526476D01*
X44724244Y62526479D01*
X44795835Y62660416D01*
X44892183Y62777817D01*
X45009584Y62874165D01*
X45143521Y62945756D01*
X45143524Y62945757D01*
X45288858Y62989844D01*
X45364371Y62997281D01*
X45402127Y63001000D01*
X46037873Y63001000D01*
X46075629Y62997281D01*
G37*
G36*
X69115629Y62997281D02*
G01*
X69191142Y62989844D01*
X69336476Y62945757D01*
X69336479Y62945756D01*
X69470416Y62874165D01*
X69587817Y62777817D01*
X69684165Y62660416D01*
X69755756Y62526479D01*
X69755757Y62526476D01*
X69799844Y62381142D01*
X69814730Y62230000D01*
X69799844Y62078858D01*
X69755757Y61933524D01*
X69755756Y61933521D01*
X69684165Y61799584D01*
X69587817Y61682183D01*
X69470416Y61585835D01*
X69336479Y61514244D01*
X69336476Y61514243D01*
X69191142Y61470156D01*
X69115629Y61462719D01*
X69077873Y61459000D01*
X68442127Y61459000D01*
X68404371Y61462719D01*
X68328858Y61470156D01*
X68183524Y61514243D01*
X68183521Y61514244D01*
X68049584Y61585835D01*
X67932183Y61682183D01*
X67835835Y61799584D01*
X67764244Y61933521D01*
X67764243Y61933524D01*
X67720156Y62078858D01*
X67705270Y62230000D01*
X67720156Y62381142D01*
X67764243Y62526476D01*
X67764244Y62526479D01*
X67835835Y62660416D01*
X67932183Y62777817D01*
X68049584Y62874165D01*
X68183521Y62945756D01*
X68183524Y62945757D01*
X68328858Y62989844D01*
X68404371Y62997281D01*
X68442127Y63001000D01*
X69077873Y63001000D01*
X69115629Y62997281D01*
G37*
G36*
X58955629Y62997281D02*
G01*
X59031142Y62989844D01*
X59176476Y62945757D01*
X59176479Y62945756D01*
X59310416Y62874165D01*
X59427817Y62777817D01*
X59524165Y62660416D01*
X59595756Y62526479D01*
X59595757Y62526476D01*
X59639844Y62381142D01*
X59654730Y62230000D01*
X59639844Y62078858D01*
X59595757Y61933524D01*
X59595756Y61933521D01*
X59524165Y61799584D01*
X59427817Y61682183D01*
X59310416Y61585835D01*
X59176479Y61514244D01*
X59176476Y61514243D01*
X59031142Y61470156D01*
X58955629Y61462719D01*
X58917873Y61459000D01*
X58282127Y61459000D01*
X58244371Y61462719D01*
X58168858Y61470156D01*
X58023524Y61514243D01*
X58023521Y61514244D01*
X57889584Y61585835D01*
X57772183Y61682183D01*
X57675835Y61799584D01*
X57604244Y61933521D01*
X57604243Y61933524D01*
X57560156Y62078858D01*
X57545270Y62230000D01*
X57560156Y62381142D01*
X57604243Y62526476D01*
X57604244Y62526479D01*
X57675835Y62660416D01*
X57772183Y62777817D01*
X57889584Y62874165D01*
X58023521Y62945756D01*
X58023524Y62945757D01*
X58168858Y62989844D01*
X58244371Y62997281D01*
X58282127Y63001000D01*
X58917873Y63001000D01*
X58955629Y62997281D01*
G37*
G36*
X23215629Y62997281D02*
G01*
X23291142Y62989844D01*
X23436476Y62945757D01*
X23436479Y62945756D01*
X23570416Y62874165D01*
X23687817Y62777817D01*
X23784165Y62660416D01*
X23855756Y62526479D01*
X23855757Y62526476D01*
X23899844Y62381142D01*
X23914730Y62230000D01*
X23899844Y62078858D01*
X23855757Y61933524D01*
X23855756Y61933521D01*
X23784165Y61799584D01*
X23687817Y61682183D01*
X23570416Y61585835D01*
X23436479Y61514244D01*
X23436476Y61514243D01*
X23291142Y61470156D01*
X23215629Y61462719D01*
X23177873Y61459000D01*
X22542127Y61459000D01*
X22504371Y61462719D01*
X22428858Y61470156D01*
X22283524Y61514243D01*
X22283521Y61514244D01*
X22149584Y61585835D01*
X22032183Y61682183D01*
X21935835Y61799584D01*
X21864244Y61933521D01*
X21864243Y61933524D01*
X21820156Y62078858D01*
X21805270Y62230000D01*
X21820156Y62381142D01*
X21864243Y62526476D01*
X21864244Y62526479D01*
X21935835Y62660416D01*
X22032183Y62777817D01*
X22149584Y62874165D01*
X22283521Y62945756D01*
X22283524Y62945757D01*
X22428858Y62989844D01*
X22504371Y62997281D01*
X22542127Y63001000D01*
X23177873Y63001000D01*
X23215629Y62997281D01*
G37*
G36*
X23215629Y65537281D02*
G01*
X23291142Y65529844D01*
X23436476Y65485757D01*
X23436479Y65485756D01*
X23570416Y65414165D01*
X23687817Y65317817D01*
X23784165Y65200416D01*
X23855756Y65066479D01*
X23855757Y65066476D01*
X23899844Y64921142D01*
X23914730Y64770000D01*
X23899844Y64618858D01*
X23855757Y64473524D01*
X23855756Y64473521D01*
X23784165Y64339584D01*
X23687817Y64222183D01*
X23570416Y64125835D01*
X23436479Y64054244D01*
X23436476Y64054243D01*
X23291142Y64010156D01*
X23215629Y64002719D01*
X23177873Y63999000D01*
X22542127Y63999000D01*
X22504371Y64002719D01*
X22428858Y64010156D01*
X22283524Y64054243D01*
X22283521Y64054244D01*
X22149584Y64125835D01*
X22032183Y64222183D01*
X21935835Y64339584D01*
X21864244Y64473521D01*
X21864243Y64473524D01*
X21820156Y64618858D01*
X21805270Y64770000D01*
X21820156Y64921142D01*
X21864243Y65066476D01*
X21864244Y65066479D01*
X21935835Y65200416D01*
X22032183Y65317817D01*
X22149584Y65414165D01*
X22283521Y65485756D01*
X22283524Y65485757D01*
X22428858Y65529844D01*
X22504371Y65537281D01*
X22542127Y65541000D01*
X23177873Y65541000D01*
X23215629Y65537281D01*
G37*
G36*
X35915629Y65537281D02*
G01*
X35991142Y65529844D01*
X36136476Y65485757D01*
X36136479Y65485756D01*
X36270416Y65414165D01*
X36387817Y65317817D01*
X36484165Y65200416D01*
X36555756Y65066479D01*
X36555757Y65066476D01*
X36599844Y64921142D01*
X36614730Y64770000D01*
X36599844Y64618858D01*
X36555757Y64473524D01*
X36555756Y64473521D01*
X36484165Y64339584D01*
X36387817Y64222183D01*
X36270416Y64125835D01*
X36136479Y64054244D01*
X36136476Y64054243D01*
X35991142Y64010156D01*
X35915629Y64002719D01*
X35877873Y63999000D01*
X35242127Y63999000D01*
X35204371Y64002719D01*
X35128858Y64010156D01*
X34983524Y64054243D01*
X34983521Y64054244D01*
X34849584Y64125835D01*
X34732183Y64222183D01*
X34635835Y64339584D01*
X34564244Y64473521D01*
X34564243Y64473524D01*
X34520156Y64618858D01*
X34505270Y64770000D01*
X34520156Y64921142D01*
X34564243Y65066476D01*
X34564244Y65066479D01*
X34635835Y65200416D01*
X34732183Y65317817D01*
X34849584Y65414165D01*
X34983521Y65485756D01*
X34983524Y65485757D01*
X35128858Y65529844D01*
X35204371Y65537281D01*
X35242127Y65541000D01*
X35877873Y65541000D01*
X35915629Y65537281D01*
G37*
G36*
X46075629Y65537281D02*
G01*
X46151142Y65529844D01*
X46296476Y65485757D01*
X46296479Y65485756D01*
X46430416Y65414165D01*
X46547817Y65317817D01*
X46644165Y65200416D01*
X46715756Y65066479D01*
X46715757Y65066476D01*
X46759844Y64921142D01*
X46774730Y64770000D01*
X46759844Y64618858D01*
X46715757Y64473524D01*
X46715756Y64473521D01*
X46644165Y64339584D01*
X46547817Y64222183D01*
X46430416Y64125835D01*
X46296479Y64054244D01*
X46296476Y64054243D01*
X46151142Y64010156D01*
X46075629Y64002719D01*
X46037873Y63999000D01*
X45402127Y63999000D01*
X45364371Y64002719D01*
X45288858Y64010156D01*
X45143524Y64054243D01*
X45143521Y64054244D01*
X45009584Y64125835D01*
X44892183Y64222183D01*
X44795835Y64339584D01*
X44724244Y64473521D01*
X44724243Y64473524D01*
X44680156Y64618858D01*
X44665270Y64770000D01*
X44680156Y64921142D01*
X44724243Y65066476D01*
X44724244Y65066479D01*
X44795835Y65200416D01*
X44892183Y65317817D01*
X45009584Y65414165D01*
X45143521Y65485756D01*
X45143524Y65485757D01*
X45288858Y65529844D01*
X45364371Y65537281D01*
X45402127Y65541000D01*
X46037873Y65541000D01*
X46075629Y65537281D01*
G37*
G36*
X58955629Y65537281D02*
G01*
X59031142Y65529844D01*
X59176476Y65485757D01*
X59176479Y65485756D01*
X59310416Y65414165D01*
X59427817Y65317817D01*
X59524165Y65200416D01*
X59595756Y65066479D01*
X59595757Y65066476D01*
X59639844Y64921142D01*
X59654730Y64770000D01*
X59639844Y64618858D01*
X59595757Y64473524D01*
X59595756Y64473521D01*
X59524165Y64339584D01*
X59427817Y64222183D01*
X59310416Y64125835D01*
X59176479Y64054244D01*
X59176476Y64054243D01*
X59031142Y64010156D01*
X58955629Y64002719D01*
X58917873Y63999000D01*
X58282127Y63999000D01*
X58244371Y64002719D01*
X58168858Y64010156D01*
X58023524Y64054243D01*
X58023521Y64054244D01*
X57889584Y64125835D01*
X57772183Y64222183D01*
X57675835Y64339584D01*
X57604244Y64473521D01*
X57604243Y64473524D01*
X57560156Y64618858D01*
X57545270Y64770000D01*
X57560156Y64921142D01*
X57604243Y65066476D01*
X57604244Y65066479D01*
X57675835Y65200416D01*
X57772183Y65317817D01*
X57889584Y65414165D01*
X58023521Y65485756D01*
X58023524Y65485757D01*
X58168858Y65529844D01*
X58244371Y65537281D01*
X58282127Y65541000D01*
X58917873Y65541000D01*
X58955629Y65537281D01*
G37*
G36*
X69115629Y65537281D02*
G01*
X69191142Y65529844D01*
X69336476Y65485757D01*
X69336479Y65485756D01*
X69470416Y65414165D01*
X69587817Y65317817D01*
X69684165Y65200416D01*
X69755756Y65066479D01*
X69755757Y65066476D01*
X69799844Y64921142D01*
X69814730Y64770000D01*
X69799844Y64618858D01*
X69755757Y64473524D01*
X69755756Y64473521D01*
X69684165Y64339584D01*
X69587817Y64222183D01*
X69470416Y64125835D01*
X69336479Y64054244D01*
X69336476Y64054243D01*
X69191142Y64010156D01*
X69115629Y64002719D01*
X69077873Y63999000D01*
X68442127Y63999000D01*
X68404371Y64002719D01*
X68328858Y64010156D01*
X68183524Y64054243D01*
X68183521Y64054244D01*
X68049584Y64125835D01*
X67932183Y64222183D01*
X67835835Y64339584D01*
X67764244Y64473521D01*
X67764243Y64473524D01*
X67720156Y64618858D01*
X67705270Y64770000D01*
X67720156Y64921142D01*
X67764243Y65066476D01*
X67764244Y65066479D01*
X67835835Y65200416D01*
X67932183Y65317817D01*
X68049584Y65414165D01*
X68183521Y65485756D01*
X68183524Y65485757D01*
X68328858Y65529844D01*
X68404371Y65537281D01*
X68442127Y65541000D01*
X69077873Y65541000D01*
X69115629Y65537281D01*
G37*
G36*
X81635629Y65537281D02*
G01*
X81711142Y65529844D01*
X81856476Y65485757D01*
X81856479Y65485756D01*
X81990416Y65414165D01*
X82107817Y65317817D01*
X82204165Y65200416D01*
X82275756Y65066479D01*
X82275757Y65066476D01*
X82319844Y64921142D01*
X82334730Y64770000D01*
X82319844Y64618858D01*
X82275757Y64473524D01*
X82275756Y64473521D01*
X82204165Y64339584D01*
X82107817Y64222183D01*
X81990416Y64125835D01*
X81856479Y64054244D01*
X81856476Y64054243D01*
X81711142Y64010156D01*
X81635629Y64002719D01*
X81597873Y63999000D01*
X80962127Y63999000D01*
X80924371Y64002719D01*
X80848858Y64010156D01*
X80703524Y64054243D01*
X80703521Y64054244D01*
X80569584Y64125835D01*
X80452183Y64222183D01*
X80355835Y64339584D01*
X80284244Y64473521D01*
X80284243Y64473524D01*
X80240156Y64618858D01*
X80225270Y64770000D01*
X80240156Y64921142D01*
X80284243Y65066476D01*
X80284244Y65066479D01*
X80355835Y65200416D01*
X80452183Y65317817D01*
X80569584Y65414165D01*
X80703521Y65485756D01*
X80703524Y65485757D01*
X80848858Y65529844D01*
X80924371Y65537281D01*
X80962127Y65541000D01*
X81597873Y65541000D01*
X81635629Y65537281D01*
G37*
G36*
X7975629Y65537281D02*
G01*
X8051142Y65529844D01*
X8196476Y65485757D01*
X8196479Y65485756D01*
X8330416Y65414165D01*
X8447817Y65317817D01*
X8544165Y65200416D01*
X8615756Y65066479D01*
X8615757Y65066476D01*
X8659844Y64921142D01*
X8674730Y64770000D01*
X8659844Y64618858D01*
X8615757Y64473524D01*
X8615756Y64473521D01*
X8544165Y64339584D01*
X8447817Y64222183D01*
X8330416Y64125835D01*
X8196479Y64054244D01*
X8196476Y64054243D01*
X8051142Y64010156D01*
X7975629Y64002719D01*
X7937873Y63999000D01*
X7302127Y63999000D01*
X7264371Y64002719D01*
X7188858Y64010156D01*
X7043524Y64054243D01*
X7043521Y64054244D01*
X6909584Y64125835D01*
X6792183Y64222183D01*
X6695835Y64339584D01*
X6624244Y64473521D01*
X6624243Y64473524D01*
X6580156Y64618858D01*
X6565270Y64770000D01*
X6580156Y64921142D01*
X6624243Y65066476D01*
X6624244Y65066479D01*
X6695835Y65200416D01*
X6792183Y65317817D01*
X6909584Y65414165D01*
X7043521Y65485756D01*
X7043524Y65485757D01*
X7188858Y65529844D01*
X7264371Y65537281D01*
X7302127Y65541000D01*
X7937873Y65541000D01*
X7975629Y65537281D01*
G37*
G36*
X89255629Y65537281D02*
G01*
X89331142Y65529844D01*
X89476476Y65485757D01*
X89476479Y65485756D01*
X89610416Y65414165D01*
X89727817Y65317817D01*
X89824165Y65200416D01*
X89895756Y65066479D01*
X89895757Y65066476D01*
X89939844Y64921142D01*
X89954730Y64770000D01*
X89939844Y64618858D01*
X89895757Y64473524D01*
X89895756Y64473521D01*
X89824165Y64339584D01*
X89727817Y64222183D01*
X89610416Y64125835D01*
X89476479Y64054244D01*
X89476476Y64054243D01*
X89331142Y64010156D01*
X89255629Y64002719D01*
X89217873Y63999000D01*
X88582127Y63999000D01*
X88544371Y64002719D01*
X88468858Y64010156D01*
X88323524Y64054243D01*
X88323521Y64054244D01*
X88189584Y64125835D01*
X88072183Y64222183D01*
X87975835Y64339584D01*
X87904244Y64473521D01*
X87904243Y64473524D01*
X87860156Y64618858D01*
X87845270Y64770000D01*
X87860156Y64921142D01*
X87904243Y65066476D01*
X87904244Y65066479D01*
X87975835Y65200416D01*
X88072183Y65317817D01*
X88189584Y65414165D01*
X88323521Y65485756D01*
X88323524Y65485757D01*
X88468858Y65529844D01*
X88544371Y65537281D01*
X88582127Y65541000D01*
X89217873Y65541000D01*
X89255629Y65537281D01*
G37*
G36*
X36611000Y66539000D02*
G01*
X34509000Y66539000D01*
X34509000Y68081000D01*
X36611000Y68081000D01*
X36611000Y66539000D01*
G37*
G36*
X46075629Y68077281D02*
G01*
X46151142Y68069844D01*
X46296476Y68025757D01*
X46296479Y68025756D01*
X46430416Y67954165D01*
X46547817Y67857817D01*
X46644165Y67740416D01*
X46715756Y67606479D01*
X46715757Y67606476D01*
X46759844Y67461142D01*
X46774730Y67310000D01*
X46759844Y67158858D01*
X46715757Y67013524D01*
X46715756Y67013521D01*
X46644165Y66879584D01*
X46547817Y66762183D01*
X46430416Y66665835D01*
X46296479Y66594244D01*
X46296476Y66594243D01*
X46151142Y66550156D01*
X46075629Y66542719D01*
X46037873Y66539000D01*
X45402127Y66539000D01*
X45364371Y66542719D01*
X45288858Y66550156D01*
X45143524Y66594243D01*
X45143521Y66594244D01*
X45009584Y66665835D01*
X44892183Y66762183D01*
X44795835Y66879584D01*
X44724244Y67013521D01*
X44724243Y67013524D01*
X44680156Y67158858D01*
X44665270Y67310000D01*
X44680156Y67461142D01*
X44724243Y67606476D01*
X44724244Y67606479D01*
X44795835Y67740416D01*
X44892183Y67857817D01*
X45009584Y67954165D01*
X45143521Y68025756D01*
X45143524Y68025757D01*
X45288858Y68069844D01*
X45364371Y68077281D01*
X45402127Y68081000D01*
X46037873Y68081000D01*
X46075629Y68077281D01*
G37*
G36*
X8671000Y66539000D02*
G01*
X6569000Y66539000D01*
X6569000Y68081000D01*
X8671000Y68081000D01*
X8671000Y66539000D01*
G37*
G36*
X59651000Y66539000D02*
G01*
X57549000Y66539000D01*
X57549000Y68081000D01*
X59651000Y68081000D01*
X59651000Y66539000D01*
G37*
G36*
X69115629Y68077281D02*
G01*
X69191142Y68069844D01*
X69336476Y68025757D01*
X69336479Y68025756D01*
X69470416Y67954165D01*
X69587817Y67857817D01*
X69684165Y67740416D01*
X69755756Y67606479D01*
X69755757Y67606476D01*
X69799844Y67461142D01*
X69814730Y67310000D01*
X69799844Y67158858D01*
X69755757Y67013524D01*
X69755756Y67013521D01*
X69684165Y66879584D01*
X69587817Y66762183D01*
X69470416Y66665835D01*
X69336479Y66594244D01*
X69336476Y66594243D01*
X69191142Y66550156D01*
X69115629Y66542719D01*
X69077873Y66539000D01*
X68442127Y66539000D01*
X68404371Y66542719D01*
X68328858Y66550156D01*
X68183524Y66594243D01*
X68183521Y66594244D01*
X68049584Y66665835D01*
X67932183Y66762183D01*
X67835835Y66879584D01*
X67764244Y67013521D01*
X67764243Y67013524D01*
X67720156Y67158858D01*
X67705270Y67310000D01*
X67720156Y67461142D01*
X67764243Y67606476D01*
X67764244Y67606479D01*
X67835835Y67740416D01*
X67932183Y67857817D01*
X68049584Y67954165D01*
X68183521Y68025756D01*
X68183524Y68025757D01*
X68328858Y68069844D01*
X68404371Y68077281D01*
X68442127Y68081000D01*
X69077873Y68081000D01*
X69115629Y68077281D01*
G37*
G36*
X82331000Y66539000D02*
G01*
X80229000Y66539000D01*
X80229000Y68081000D01*
X82331000Y68081000D01*
X82331000Y66539000D01*
G37*
G36*
X89255629Y68077281D02*
G01*
X89331142Y68069844D01*
X89476476Y68025757D01*
X89476479Y68025756D01*
X89610416Y67954165D01*
X89727817Y67857817D01*
X89824165Y67740416D01*
X89895756Y67606479D01*
X89895757Y67606476D01*
X89939844Y67461142D01*
X89954730Y67310000D01*
X89939844Y67158858D01*
X89895757Y67013524D01*
X89895756Y67013521D01*
X89824165Y66879584D01*
X89727817Y66762183D01*
X89610416Y66665835D01*
X89476479Y66594244D01*
X89476476Y66594243D01*
X89331142Y66550156D01*
X89255629Y66542719D01*
X89217873Y66539000D01*
X88582127Y66539000D01*
X88544371Y66542719D01*
X88468858Y66550156D01*
X88323524Y66594243D01*
X88323521Y66594244D01*
X88189584Y66665835D01*
X88072183Y66762183D01*
X87975835Y66879584D01*
X87904244Y67013521D01*
X87904243Y67013524D01*
X87860156Y67158858D01*
X87845270Y67310000D01*
X87860156Y67461142D01*
X87904243Y67606476D01*
X87904244Y67606479D01*
X87975835Y67740416D01*
X88072183Y67857817D01*
X88189584Y67954165D01*
X88323521Y68025756D01*
X88323524Y68025757D01*
X88468858Y68069844D01*
X88544371Y68077281D01*
X88582127Y68081000D01*
X89217873Y68081000D01*
X89255629Y68077281D01*
G37*
G36*
X23215629Y68077281D02*
G01*
X23291142Y68069844D01*
X23436476Y68025757D01*
X23436479Y68025756D01*
X23570416Y67954165D01*
X23687817Y67857817D01*
X23784165Y67740416D01*
X23855756Y67606479D01*
X23855757Y67606476D01*
X23899844Y67461142D01*
X23914730Y67310000D01*
X23899844Y67158858D01*
X23855757Y67013524D01*
X23855756Y67013521D01*
X23784165Y66879584D01*
X23687817Y66762183D01*
X23570416Y66665835D01*
X23436479Y66594244D01*
X23436476Y66594243D01*
X23291142Y66550156D01*
X23215629Y66542719D01*
X23177873Y66539000D01*
X22542127Y66539000D01*
X22504371Y66542719D01*
X22428858Y66550156D01*
X22283524Y66594243D01*
X22283521Y66594244D01*
X22149584Y66665835D01*
X22032183Y66762183D01*
X21935835Y66879584D01*
X21864244Y67013521D01*
X21864243Y67013524D01*
X21820156Y67158858D01*
X21805270Y67310000D01*
X21820156Y67461142D01*
X21864243Y67606476D01*
X21864244Y67606479D01*
X21935835Y67740416D01*
X22032183Y67857817D01*
X22149584Y67954165D01*
X22283521Y68025756D01*
X22283524Y68025757D01*
X22428858Y68069844D01*
X22504371Y68077281D01*
X22542127Y68081000D01*
X23177873Y68081000D01*
X23215629Y68077281D01*
G37*
G36*
X99308228Y70668297D02*
G01*
X99463100Y70604147D01*
X99602481Y70511015D01*
X99721015Y70392481D01*
X99814147Y70253100D01*
X99878297Y70098228D01*
X99911000Y69933816D01*
X99911000Y69766184D01*
X99878297Y69601772D01*
X99814147Y69446900D01*
X99721015Y69307519D01*
X99602481Y69188985D01*
X99463100Y69095853D01*
X99308228Y69031703D01*
X99143816Y68999000D01*
X98976184Y68999000D01*
X98811772Y69031703D01*
X98656900Y69095853D01*
X98517519Y69188985D01*
X98398985Y69307519D01*
X98305853Y69446900D01*
X98241703Y69601772D01*
X98209000Y69766184D01*
X98209000Y69933816D01*
X98241703Y70098228D01*
X98305853Y70253100D01*
X98398985Y70392481D01*
X98517519Y70511015D01*
X98656900Y70604147D01*
X98811772Y70668297D01*
X98976184Y70701000D01*
X99143816Y70701000D01*
X99308228Y70668297D01*
G37*
G36*
X99337395Y75844454D02*
G01*
X99510466Y75772766D01*
X99510467Y75772765D01*
X99666227Y75668690D01*
X99798690Y75536227D01*
X99798691Y75536225D01*
X99902766Y75380466D01*
X99974454Y75207395D01*
X100011000Y75023667D01*
X100011000Y74836333D01*
X99974454Y74652605D01*
X99902766Y74479534D01*
X99902765Y74479533D01*
X99798690Y74323773D01*
X99666227Y74191310D01*
X99587818Y74138919D01*
X99510466Y74087234D01*
X99337395Y74015546D01*
X99153667Y73979000D01*
X98966333Y73979000D01*
X98782605Y74015546D01*
X98609534Y74087234D01*
X98532182Y74138919D01*
X98453773Y74191310D01*
X98321310Y74323773D01*
X98217235Y74479533D01*
X98217234Y74479534D01*
X98145546Y74652605D01*
X98109000Y74836333D01*
X98109000Y75023667D01*
X98145546Y75207395D01*
X98217234Y75380466D01*
X98321309Y75536225D01*
X98321310Y75536227D01*
X98453773Y75668690D01*
X98609533Y75772765D01*
X98609534Y75772766D01*
X98782605Y75844454D01*
X98966333Y75881000D01*
X99153667Y75881000D01*
X99337395Y75844454D01*
G37*
G36*
X100011000Y76519000D02*
G01*
X98109000Y76519000D01*
X98109000Y78421000D01*
X100011000Y78421000D01*
X100011000Y76519000D01*
G37*
M02*
