M48
; DRILL file {KiCad 5.1.5+dfsg1-2build2} date wto, 29 gru 2020, 02:51:28
; FORMAT={-:-/ absolute / inch / decimal}
; #@! TF.CreationDate,2020-12-29T02:51:28+01:00
; #@! TF.GenerationSoftware,Kicad,Pcbnew,5.1.5+dfsg1-2build2
FMAT,2
INCH
T1C0.0315
T2C0.0354
T3C0.0394
T4C0.0400
%
G90
G05
T1
X3.4Y1.25
X3.9Y2.75
X3.9Y2.45
X1.75Y0.8469
X1.75Y0.65
X3.2Y1.0
X3.3969Y1.0
X3.0Y0.75
X3.0Y0.45
X3.65Y1.25
X3.95Y1.25
X2.0112Y0.8356
X2.2033Y0.8356
X2.45Y0.8469
X2.45Y0.65
X2.85Y0.75
X2.85Y0.45
X3.95Y1.75
X3.95Y1.45
X3.2031Y1.25
T2
X3.9Y3.05
X3.9Y2.95
T3
X2.75Y0.2
X2.85Y0.2
X2.95Y0.2
X3.05Y0.2
X3.15Y0.2
X3.2Y2.65
X3.2Y2.55
X3.2Y2.45
X3.2Y2.35
X3.2Y2.25
X3.2Y2.15
X3.2Y2.05
X3.2Y1.95
X3.2Y1.85
X3.2Y1.75
X3.5Y2.65
X3.5Y2.55
X3.5Y2.45
X3.5Y2.35
X3.5Y2.25
X3.5Y2.15
X3.5Y2.05
X3.5Y1.95
X3.5Y1.85
X3.5Y1.75
X1.4Y2.65
X1.4Y2.55
X1.4Y2.45
X1.4Y2.35
X1.4Y2.25
X1.4Y2.15
X1.4Y2.05
X1.4Y1.95
X1.4Y1.85
X1.4Y1.75
X1.4Y1.65
X1.4Y1.55
X1.4Y1.45
X1.4Y1.35
X1.8Y2.65
X1.8Y2.55
X1.8Y2.45
X1.8Y2.35
X1.8Y2.25
X1.8Y2.15
X1.8Y2.05
X1.8Y1.95
X1.8Y1.85
X1.8Y1.75
X1.8Y1.65
X1.8Y1.55
X1.8Y1.45
X1.8Y1.35
X0.3Y2.65
X0.3Y2.55
X0.3Y2.45
X0.3Y2.35
X0.3Y2.25
X0.3Y2.15
X0.3Y2.05
X0.3Y1.95
X0.3Y1.85
X0.3Y1.75
X0.3Y1.65
X0.3Y1.55
X0.3Y1.45
X0.3Y1.35
X0.3Y1.25
X0.3Y1.15
X0.3Y1.05
X0.3Y0.95
X0.3Y0.85
X0.3Y0.75
X0.9Y2.65
X0.9Y2.55
X0.9Y2.45
X0.9Y2.35
X0.9Y2.25
X0.9Y2.15
X0.9Y2.05
X0.9Y1.95
X0.9Y1.85
X0.9Y1.75
X0.9Y1.65
X0.9Y1.55
X0.9Y1.45
X0.9Y1.35
X0.9Y1.25
X0.9Y1.15
X0.9Y1.05
X0.9Y0.95
X0.9Y0.85
X0.9Y0.75
X2.3071Y2.65
X2.3071Y2.55
X2.3071Y2.45
X2.3071Y2.35
X2.3071Y2.25
X2.3071Y2.15
X2.3071Y2.05
X2.3071Y1.95
X2.3071Y1.85
X2.3071Y1.75
X2.3071Y1.65
X2.3071Y1.55
X2.3071Y1.45
X2.3071Y1.35
X2.7071Y2.65
X2.7071Y2.55
X2.7071Y2.45
X2.7071Y2.35
X2.7071Y2.25
X2.7071Y2.15
X2.7071Y2.05
X2.7071Y1.95
X2.7071Y1.85
X2.7071Y1.75
X2.7071Y1.65
X2.7071Y1.55
X2.7071Y1.45
X2.7071Y1.35
T4
X3.85Y0.3
X3.85Y0.2
X3.95Y0.3
X3.95Y0.2
X4.05Y0.3
X4.05Y0.2
X4.15Y0.3
X4.15Y0.2
X4.25Y0.3
X4.25Y0.2
T0
M30
