%TF.GenerationSoftware,KiCad,Pcbnew,5.1.5+dfsg1-2build2*%
%TF.CreationDate,2020-12-29T02:51:23+01:00*%
%TF.ProjectId,avr-prog,6176722d-7072-46f6-972e-6b696361645f,1.0*%
%TF.SameCoordinates,PX1e47770PY6a95280*%
%TF.FileFunction,Legend,Bot*%
%TF.FilePolarity,Positive*%
%FSLAX46Y46*%
G04 Gerber Fmt 4.6, Leading zero omitted, Abs format (unit mm)*
G04 Created by KiCad (PCBNEW 5.1.5+dfsg1-2build2) date 2020-12-29 02:51:23*
%MOMM*%
%LPD*%
G04 APERTURE LIST*
%ADD10C,1.702000*%
%ADD11R,1.902000X1.902000*%
%ADD12C,1.902000*%
%ADD13R,1.702000X1.702000*%
%ADD14O,1.702000X1.702000*%
%ADD15R,1.829200X1.829200*%
%ADD16O,1.829200X1.829200*%
%ADD17R,1.802000X1.802000*%
%ADD18O,1.802000X1.802000*%
%ADD19R,2.102000X1.542000*%
%ADD20O,2.102000X1.542000*%
%ADD21C,1.602000*%
G04 APERTURE END LIST*
%LPC*%
D10*
%TO.C,C1*%
X81280000Y25400000D03*
X86280000Y25400000D03*
%TD*%
%TO.C,C2*%
X44450000Y21510000D03*
X44450000Y16510000D03*
%TD*%
%TO.C,C3*%
X62230000Y16510000D03*
X62230000Y21510000D03*
%TD*%
%TO.C,C4*%
X86360000Y31750000D03*
X81360000Y31750000D03*
%TD*%
D11*
%TO.C,D1*%
X99060000Y77470000D03*
D12*
X99060000Y74930000D03*
%TD*%
D13*
%TO.C,D2*%
X100330000Y36830000D03*
D14*
X100330000Y44450000D03*
%TD*%
D15*
%TO.C,J1*%
X107950000Y7620000D03*
D16*
X107950000Y5080000D03*
X105410000Y7620000D03*
X105410000Y5080000D03*
X102870000Y7620000D03*
X102870000Y5080000D03*
X100330000Y7620000D03*
X100330000Y5080000D03*
X97790000Y7620000D03*
X97790000Y5080000D03*
%TD*%
D17*
%TO.C,J2*%
X80010000Y5080000D03*
D18*
X77470000Y5080000D03*
X74930000Y5080000D03*
X72390000Y5080000D03*
X69850000Y5080000D03*
%TD*%
D10*
%TO.C,R1*%
X76200000Y19050000D03*
D14*
X76200000Y11430000D03*
%TD*%
%TO.C,R2*%
X72390000Y11430000D03*
D10*
X72390000Y19050000D03*
%TD*%
D14*
%TO.C,R3*%
X99060000Y62230000D03*
D10*
X99060000Y69850000D03*
%TD*%
%TO.C,R4*%
X100330000Y31750000D03*
D14*
X92710000Y31750000D03*
%TD*%
D19*
%TO.C,U1*%
X81280000Y67310000D03*
D20*
X88900000Y67310000D03*
X81280000Y64770000D03*
X88900000Y64770000D03*
X81280000Y62230000D03*
X88900000Y62230000D03*
X81280000Y59690000D03*
X88900000Y59690000D03*
X81280000Y57150000D03*
X88900000Y57150000D03*
X81280000Y54610000D03*
X88900000Y54610000D03*
X81280000Y52070000D03*
X88900000Y52070000D03*
X81280000Y49530000D03*
X88900000Y49530000D03*
X81280000Y46990000D03*
X88900000Y46990000D03*
X81280000Y44450000D03*
X88900000Y44450000D03*
%TD*%
D19*
%TO.C,U2*%
X58600000Y67310000D03*
D20*
X68760000Y67310000D03*
X58600000Y64770000D03*
X68760000Y64770000D03*
X58600000Y62230000D03*
X68760000Y62230000D03*
X58600000Y59690000D03*
X68760000Y59690000D03*
X58600000Y57150000D03*
X68760000Y57150000D03*
X58600000Y54610000D03*
X68760000Y54610000D03*
X58600000Y52070000D03*
X68760000Y52070000D03*
X58600000Y49530000D03*
X68760000Y49530000D03*
X58600000Y46990000D03*
X68760000Y46990000D03*
X58600000Y44450000D03*
X68760000Y44450000D03*
X58600000Y41910000D03*
X68760000Y41910000D03*
X58600000Y39370000D03*
X68760000Y39370000D03*
X58600000Y36830000D03*
X68760000Y36830000D03*
X58600000Y34290000D03*
X68760000Y34290000D03*
%TD*%
D19*
%TO.C,U3*%
X7620000Y67310000D03*
D20*
X22860000Y67310000D03*
X7620000Y64770000D03*
X22860000Y64770000D03*
X7620000Y62230000D03*
X22860000Y62230000D03*
X7620000Y59690000D03*
X22860000Y59690000D03*
X7620000Y57150000D03*
X22860000Y57150000D03*
X7620000Y54610000D03*
X22860000Y54610000D03*
X7620000Y52070000D03*
X22860000Y52070000D03*
X7620000Y49530000D03*
X22860000Y49530000D03*
X7620000Y46990000D03*
X22860000Y46990000D03*
X7620000Y44450000D03*
X22860000Y44450000D03*
X7620000Y41910000D03*
X22860000Y41910000D03*
X7620000Y39370000D03*
X22860000Y39370000D03*
X7620000Y36830000D03*
X22860000Y36830000D03*
X7620000Y34290000D03*
X22860000Y34290000D03*
X7620000Y31750000D03*
X22860000Y31750000D03*
X7620000Y29210000D03*
X22860000Y29210000D03*
X7620000Y26670000D03*
X22860000Y26670000D03*
X7620000Y24130000D03*
X22860000Y24130000D03*
X7620000Y21590000D03*
X22860000Y21590000D03*
X7620000Y19050000D03*
X22860000Y19050000D03*
%TD*%
%TO.C,U4*%
X45720000Y34290000D03*
X35560000Y34290000D03*
X45720000Y36830000D03*
X35560000Y36830000D03*
X45720000Y39370000D03*
X35560000Y39370000D03*
X45720000Y41910000D03*
X35560000Y41910000D03*
X45720000Y44450000D03*
X35560000Y44450000D03*
X45720000Y46990000D03*
X35560000Y46990000D03*
X45720000Y49530000D03*
X35560000Y49530000D03*
X45720000Y52070000D03*
X35560000Y52070000D03*
X45720000Y54610000D03*
X35560000Y54610000D03*
X45720000Y57150000D03*
X35560000Y57150000D03*
X45720000Y59690000D03*
X35560000Y59690000D03*
X45720000Y62230000D03*
X35560000Y62230000D03*
X45720000Y64770000D03*
X35560000Y64770000D03*
X45720000Y67310000D03*
D19*
X35560000Y67310000D03*
%TD*%
D21*
%TO.C,Y1*%
X51085000Y21225000D03*
X55965000Y21225000D03*
%TD*%
M02*
