  0
SECTION
  2
HEADER
  9
$ANGBASE
  50
0.0
  9
$ANGDIR
  70
1
  9
$MEASUREMENT
  70
1
  0
ENDSEC
  0
SECTION
  2
TABLES
  0
TABLE
  2
LTYPE
  70
4
  0
LTYPE
  5
40F
  2
CONTINUOUS
  70
0
  3
Solid line
  72
65
  73
0
  40
0.0
  0
LTYPE
  5
410
  2
DASHDOT
 70
0
  3
Dash Dot ____ _ ____ _
 72
65
 73
4
 40
2.0
 49
1.25
 49
-0.25
 49
0.25
 49
-0.25
  0
LTYPE
  5
411
  2
DASHED
 70
0
  3
Dashed __ __ __ __ __
 72
65
 73
2
 40
0.75
 49
0.5
 49
-0.25
  0
LTYPE
  5
43B
  2
DOTTED
 70
0
  3
Dotted .  .  .  .
 72
65
 73
2
 40
0.2
 49
0.0
 49
-0.2
  0
ENDTAB
  0
TABLE
  2
STYLE
  70
4
  0
STYLE
  2
KICAD
  70
0
  40
0
  41
1
  42
1
  50
0
  71
0
  3
isocp.shx
  0
STYLE
  2
KICADB
  70
0
  40
0
  41
1
  42
1
  50
0
  71
0
  3
isocp.shx
  0
STYLE
  2
KICADI
  70
0
  40
0
  41
1
  42
1
  50
15
  71
0
  3
isocp.shx
  0
STYLE
  2
KICADBI
  70
0
  40
0
  41
1
  42
1
  50
15
  71
0
  3
isocp.shx
  0
ENDTAB
  0
TABLE
  2
LAYER
  70
1
  0
LAYER
  2
BLACK
  70
0
  62
7
  6
CONTINUOUS
  0
ENDTAB
  0
ENDSEC
  0
SECTION
  2
ENTITIES
0
CIRCLE
8
BLACK
10
15.22
20
5.08
40
2.5
0
LINE
8
BLACK
6
CONTINUOUS
10
13.0864
20
6.1675
11
13.5864
21
6.1675
0
LINE
8
BLACK
6
CONTINUOUS
10
13.3364
20
6.4175
11
13.3364
21
5.9175
0
LINE
8
BLACK
6
CONTINUOUS
10
22.2236
20
20.2525
11
22.2236
21
20.7525
0
LINE
8
BLACK
6
CONTINUOUS
10
22.4736
20
20.5025
11
21.9736
21
20.5025
0
CIRCLE
8
BLACK
10
20.34
20
21.59
40
2.5
0
LINE
8
BLACK
6
CONTINUOUS
10
25.67
20
14.32
11
27.67
21
14.32
0
LINE
8
BLACK
6
CONTINUOUS
10
27.67
20
14.32
11
27.67
21
21.32
0
LINE
8
BLACK
6
CONTINUOUS
10
27.67
20
21.32
11
25.67
21
21.32
0
LINE
8
BLACK
6
CONTINUOUS
10
25.67
20
21.32
11
25.67
21
14.32
0
LINE
8
BLACK
6
CONTINUOUS
10
7.56
20
21.67
11
7.56
21
18.97
0
LINE
8
BLACK
6
CONTINUOUS
10
7.56
20
18.97
11
12.76
21
18.97
0
LINE
8
BLACK
6
CONTINUOUS
10
12.76
20
18.97
11
12.76
21
21.67
0
LINE
8
BLACK
6
CONTINUOUS
10
12.76
20
21.67
11
7.56
21
21.67
0
LINE
8
BLACK
6
CONTINUOUS
10
5.08
20
20.32
11
7.56
21
20.32
0
LINE
8
BLACK
6
CONTINUOUS
10
15.24
20
20.32
11
12.76
21
20.32
0
LINE
8
BLACK
6
CONTINUOUS
10
8.34
20
21.67
11
8.34
21
18.97
0
LINE
8
BLACK
6
CONTINUOUS
10
8.44
20
21.67
11
8.44
21
18.97
0
LINE
8
BLACK
6
CONTINUOUS
10
8.24
20
21.67
11
8.24
21
18.97
0
LINE
8
BLACK
6
CONTINUOUS
10
0.74
20
25.98
11
0.74
21
34.98
0
LINE
8
BLACK
6
CONTINUOUS
10
0.74
20
34.98
11
14.605
21
34.98
0
LINE
8
BLACK
6
CONTINUOUS
10
14.605
20
34.98
11
14.605
21
33.655
0
LINE
8
BLACK
6
CONTINUOUS
10
14.605
20
33.655
11
16.51
21
33.655
0
LINE
8
BLACK
6
CONTINUOUS
10
16.51
20
33.655
11
16.51
21
27.305
0
LINE
8
BLACK
6
CONTINUOUS
10
16.51
20
27.305
11
14.605
21
27.305
0
LINE
8
BLACK
6
CONTINUOUS
10
14.605
20
27.305
11
14.605
21
24.13
0
LINE
8
BLACK
6
CONTINUOUS
10
14.605
20
24.13
11
8.255
21
24.13
0
LINE
8
BLACK
6
CONTINUOUS
10
8.255
20
25.98
11
0.74
21
25.98
0
LINE
8
BLACK
6
CONTINUOUS
10
0.74
20
25.98
11
8.255
21
25.98
0
LINE
8
BLACK
6
CONTINUOUS
10
8.255
20
25.98
11
8.255
21
24.13
0
LINE
8
BLACK
6
CONTINUOUS
10
5.08
20
1.11
11
-1.42
21
1.11
0
LINE
8
BLACK
6
CONTINUOUS
10
-1.42
20
1.11
11
-1.42
21
12.51
0
LINE
8
BLACK
6
CONTINUOUS
10
-1.42
20
12.51
11
5.08
21
12.51
0
LINE
8
BLACK
6
CONTINUOUS
10
5.08
20
1.11
11
6.58
21
1.11
0
LINE
8
BLACK
6
CONTINUOUS
10
6.58
20
1.11
11
6.58
21
12.51
0
LINE
8
BLACK
6
CONTINUOUS
10
6.58
20
12.51
11
5.08
21
12.51
0
LINE
8
BLACK
6
CONTINUOUS
10
3.58
20
1.11
11
3.58
21
12.51
0
LINE
8
BLACK
6
CONTINUOUS
10
14.66
20
15.05
11
15.66
21
16.05
0
LINE
8
BLACK
6
CONTINUOUS
10
14.66
20
15.05
11
14.66
21
9.35
0
LINE
8
BLACK
6
CONTINUOUS
10
15.66
20
16.05
11
18.36
21
16.05
0
LINE
8
BLACK
6
CONTINUOUS
10
14.66
20
9.35
11
18.36
21
9.35
0
LINE
8
BLACK
6
CONTINUOUS
10
18.36
20
16.05
11
18.36
21
9.35
0
LINE
8
BLACK
6
CONTINUOUS
10
15.0533
20
4.72286
11
15.0057
21
4.67524
0
LINE
8
BLACK
6
CONTINUOUS
10
15.0057
20
4.67524
11
14.8629
21
4.62762
0
LINE
8
BLACK
6
CONTINUOUS
10
14.8629
20
4.62762
11
14.7676
21
4.62762
0
LINE
8
BLACK
6
CONTINUOUS
10
14.7676
20
4.62762
11
14.6248
21
4.67524
0
LINE
8
BLACK
6
CONTINUOUS
10
14.6248
20
4.67524
11
14.5295
21
4.77048
0
LINE
8
BLACK
6
CONTINUOUS
10
14.5295
20
4.77048
11
14.4819
21
4.86571
0
LINE
8
BLACK
6
CONTINUOUS
10
14.4819
20
4.86571
11
14.4343
21
5.05619
0
LINE
8
BLACK
6
CONTINUOUS
10
14.4343
20
5.05619
11
14.4343
21
5.19905
0
LINE
8
BLACK
6
CONTINUOUS
10
14.4343
20
5.19905
11
14.4819
21
5.38952
0
LINE
8
BLACK
6
CONTINUOUS
10
14.4819
20
5.38952
11
14.5295
21
5.48476
0
LINE
8
BLACK
6
CONTINUOUS
10
14.5295
20
5.48476
11
14.6248
21
5.58
0
LINE
8
BLACK
6
CONTINUOUS
10
14.6248
20
5.58
11
14.7676
21
5.62762
0
LINE
8
BLACK
6
CONTINUOUS
10
14.7676
20
5.62762
11
14.8629
21
5.62762
0
LINE
8
BLACK
6
CONTINUOUS
10
14.8629
20
5.62762
11
15.0057
21
5.58
0
LINE
8
BLACK
6
CONTINUOUS
10
15.0057
20
5.58
11
15.0533
21
5.53238
0
LINE
8
BLACK
6
CONTINUOUS
10
16.0057
20
4.62762
11
15.4343
21
4.62762
0
LINE
8
BLACK
6
CONTINUOUS
10
15.72
20
4.62762
11
15.72
21
5.62762
0
LINE
8
BLACK
6
CONTINUOUS
10
15.72
20
5.62762
11
15.6248
21
5.48476
0
LINE
8
BLACK
6
CONTINUOUS
10
15.6248
20
5.48476
11
15.5295
21
5.38952
0
LINE
8
BLACK
6
CONTINUOUS
10
15.5295
20
5.38952
11
15.4343
21
5.3419
0
LINE
8
BLACK
6
CONTINUOUS
10
20.1733
20
21.2329
11
20.1257
21
21.1852
0
LINE
8
BLACK
6
CONTINUOUS
10
20.1257
20
21.1852
11
19.9829
21
21.1376
0
LINE
8
BLACK
6
CONTINUOUS
10
19.9829
20
21.1376
11
19.8876
21
21.1376
0
LINE
8
BLACK
6
CONTINUOUS
10
19.8876
20
21.1376
11
19.7448
21
21.1852
0
LINE
8
BLACK
6
CONTINUOUS
10
19.7448
20
21.1852
11
19.6495
21
21.2805
0
LINE
8
BLACK
6
CONTINUOUS
10
19.6495
20
21.2805
11
19.6019
21
21.3757
0
LINE
8
BLACK
6
CONTINUOUS
10
19.6019
20
21.3757
11
19.5543
21
21.5662
0
LINE
8
BLACK
6
CONTINUOUS
10
19.5543
20
21.5662
11
19.5543
21
21.709
0
LINE
8
BLACK
6
CONTINUOUS
10
19.5543
20
21.709
11
19.6019
21
21.8995
0
LINE
8
BLACK
6
CONTINUOUS
10
19.6019
20
21.8995
11
19.6495
21
21.9948
0
LINE
8
BLACK
6
CONTINUOUS
10
19.6495
20
21.9948
11
19.7448
21
22.09
0
LINE
8
BLACK
6
CONTINUOUS
10
19.7448
20
22.09
11
19.8876
21
22.1376
0
LINE
8
BLACK
6
CONTINUOUS
10
19.8876
20
22.1376
11
19.9829
21
22.1376
0
LINE
8
BLACK
6
CONTINUOUS
10
19.9829
20
22.1376
11
20.1257
21
22.09
0
LINE
8
BLACK
6
CONTINUOUS
10
20.1257
20
22.09
11
20.1733
21
22.0424
0
LINE
8
BLACK
6
CONTINUOUS
10
20.5543
20
22.0424
11
20.6019
21
22.09
0
LINE
8
BLACK
6
CONTINUOUS
10
20.6019
20
22.09
11
20.6971
21
22.1376
0
LINE
8
BLACK
6
CONTINUOUS
10
20.6971
20
22.1376
11
20.9352
21
22.1376
0
LINE
8
BLACK
6
CONTINUOUS
10
20.9352
20
22.1376
11
21.0305
21
22.09
0
LINE
8
BLACK
6
CONTINUOUS
10
21.0305
20
22.09
11
21.0781
21
22.0424
0
LINE
8
BLACK
6
CONTINUOUS
10
21.0781
20
22.0424
11
21.1257
21
21.9471
0
LINE
8
BLACK
6
CONTINUOUS
10
21.1257
20
21.9471
11
21.1257
21
21.8519
0
LINE
8
BLACK
6
CONTINUOUS
10
21.1257
20
21.8519
11
21.0781
21
21.709
0
LINE
8
BLACK
6
CONTINUOUS
10
21.0781
20
21.709
11
20.5067
21
21.1376
0
LINE
8
BLACK
6
CONTINUOUS
10
20.5067
20
21.1376
11
21.1257
21
21.1376
0
LINE
8
BLACK
6
CONTINUOUS
10
27.0271
20
17.6533
11
27.0748
21
17.6057
0
LINE
8
BLACK
6
CONTINUOUS
10
27.0748
20
17.6057
11
27.1224
21
17.4629
0
LINE
8
BLACK
6
CONTINUOUS
10
27.1224
20
17.4629
11
27.1224
21
17.3676
0
LINE
8
BLACK
6
CONTINUOUS
10
27.1224
20
17.3676
11
27.0748
21
17.2248
0
LINE
8
BLACK
6
CONTINUOUS
10
27.0748
20
17.2248
11
26.9795
21
17.1295
0
LINE
8
BLACK
6
CONTINUOUS
10
26.9795
20
17.1295
11
26.8843
21
17.0819
0
LINE
8
BLACK
6
CONTINUOUS
10
26.8843
20
17.0819
11
26.6938
21
17.0343
0
LINE
8
BLACK
6
CONTINUOUS
10
26.6938
20
17.0343
11
26.551
21
17.0343
0
LINE
8
BLACK
6
CONTINUOUS
10
26.551
20
17.0343
11
26.3605
21
17.0819
0
LINE
8
BLACK
6
CONTINUOUS
10
26.3605
20
17.0819
11
26.2652
21
17.1295
0
LINE
8
BLACK
6
CONTINUOUS
10
26.2652
20
17.1295
11
26.17
21
17.2248
0
LINE
8
BLACK
6
CONTINUOUS
10
26.17
20
17.2248
11
26.1224
21
17.3676
0
LINE
8
BLACK
6
CONTINUOUS
10
26.1224
20
17.3676
11
26.1224
21
17.4629
0
LINE
8
BLACK
6
CONTINUOUS
10
26.1224
20
17.4629
11
26.17
21
17.6057
0
LINE
8
BLACK
6
CONTINUOUS
10
26.17
20
17.6057
11
26.2176
21
17.6533
0
LINE
8
BLACK
6
CONTINUOUS
10
26.1224
20
17.9867
11
26.1224
21
18.6057
0
LINE
8
BLACK
6
CONTINUOUS
10
26.1224
20
18.6057
11
26.5033
21
18.2724
0
LINE
8
BLACK
6
CONTINUOUS
10
26.5033
20
18.2724
11
26.5033
21
18.4152
0
LINE
8
BLACK
6
CONTINUOUS
10
26.5033
20
18.4152
11
26.551
21
18.5105
0
LINE
8
BLACK
6
CONTINUOUS
10
26.551
20
18.5105
11
26.5986
21
18.5581
0
LINE
8
BLACK
6
CONTINUOUS
10
26.5986
20
18.5581
11
26.6938
21
18.6057
0
LINE
8
BLACK
6
CONTINUOUS
10
26.6938
20
18.6057
11
26.9319
21
18.6057
0
LINE
8
BLACK
6
CONTINUOUS
10
26.9319
20
18.6057
11
27.0271
21
18.5581
0
LINE
8
BLACK
6
CONTINUOUS
10
27.0271
20
18.5581
11
27.0748
21
18.5105
0
LINE
8
BLACK
6
CONTINUOUS
10
27.0748
20
18.5105
11
27.1224
21
18.4152
0
LINE
8
BLACK
6
CONTINUOUS
10
27.1224
20
18.4152
11
27.1224
21
18.1295
0
LINE
8
BLACK
6
CONTINUOUS
10
27.1224
20
18.1295
11
27.0748
21
18.0343
0
LINE
8
BLACK
6
CONTINUOUS
10
27.0748
20
18.0343
11
27.0271
21
17.9867
0
LINE
8
BLACK
6
CONTINUOUS
10
9.8119
20
19.8676
11
9.8119
21
20.8676
0
LINE
8
BLACK
6
CONTINUOUS
10
9.8119
20
20.8676
11
10.05
21
20.8676
0
LINE
8
BLACK
6
CONTINUOUS
10
10.05
20
20.8676
11
10.1929
21
20.82
0
LINE
8
BLACK
6
CONTINUOUS
10
10.1929
20
20.82
11
10.2881
21
20.7248
0
LINE
8
BLACK
6
CONTINUOUS
10
10.2881
20
20.7248
11
10.3357
21
20.6295
0
LINE
8
BLACK
6
CONTINUOUS
10
10.3357
20
20.6295
11
10.3833
21
20.439
0
LINE
8
BLACK
6
CONTINUOUS
10
10.3833
20
20.439
11
10.3833
21
20.2962
0
LINE
8
BLACK
6
CONTINUOUS
10
10.3833
20
20.2962
11
10.3357
21
20.1057
0
LINE
8
BLACK
6
CONTINUOUS
10
10.3357
20
20.1057
11
10.2881
21
20.0105
0
LINE
8
BLACK
6
CONTINUOUS
10
10.2881
20
20.0105
11
10.1929
21
19.9152
0
LINE
8
BLACK
6
CONTINUOUS
10
10.1929
20
19.9152
11
10.05
21
19.8676
0
LINE
8
BLACK
6
CONTINUOUS
10
10.05
20
19.8676
11
9.8119
21
19.8676
0
LINE
8
BLACK
6
CONTINUOUS
10
11.3357
20
19.8676
11
10.7643
21
19.8676
0
LINE
8
BLACK
6
CONTINUOUS
10
11.05
20
19.8676
11
11.05
21
20.8676
0
LINE
8
BLACK
6
CONTINUOUS
10
11.05
20
20.8676
11
10.9548
21
20.7248
0
LINE
8
BLACK
6
CONTINUOUS
10
10.9548
20
20.7248
11
10.8595
21
20.6295
0
LINE
8
BLACK
6
CONTINUOUS
10
10.8595
20
20.6295
11
10.7643
21
20.5819
0
LINE
8
BLACK
6
CONTINUOUS
10
4.81809
20
21.9676
11
4.81809
21
22.9676
0
LINE
8
BLACK
6
CONTINUOUS
10
5.38952
20
21.9676
11
4.96095
21
22.539
0
LINE
8
BLACK
6
CONTINUOUS
10
5.38952
20
22.9676
11
4.81809
21
22.3962
0
LINE
8
BLACK
6
CONTINUOUS
10
1.65119
20
12.5226
11
1.65119
21
13.5226
0
LINE
8
BLACK
6
CONTINUOUS
10
1.65119
20
13.5226
11
1.98452
21
12.8083
0
LINE
8
BLACK
6
CONTINUOUS
10
1.98452
20
12.8083
11
2.31786
21
13.5226
0
LINE
8
BLACK
6
CONTINUOUS
10
2.31786
20
13.5226
11
2.31786
21
12.5226
0
LINE
8
BLACK
6
CONTINUOUS
10
2.74643
20
13.4274
11
2.79405
21
13.475
0
LINE
8
BLACK
6
CONTINUOUS
10
2.79405
20
13.475
11
2.88928
21
13.5226
0
LINE
8
BLACK
6
CONTINUOUS
10
2.88928
20
13.5226
11
3.12738
21
13.5226
0
LINE
8
BLACK
6
CONTINUOUS
10
3.12738
20
13.5226
11
3.22262
21
13.475
0
LINE
8
BLACK
6
CONTINUOUS
10
3.22262
20
13.475
11
3.27024
21
13.4274
0
LINE
8
BLACK
6
CONTINUOUS
10
3.27024
20
13.4274
11
3.31786
21
13.3321
0
LINE
8
BLACK
6
CONTINUOUS
10
3.31786
20
13.3321
11
3.31786
21
13.2369
0
LINE
8
BLACK
6
CONTINUOUS
10
3.31786
20
13.2369
11
3.27024
21
13.094
0
LINE
8
BLACK
6
CONTINUOUS
10
3.27024
20
13.094
11
2.69881
21
12.5226
0
LINE
8
BLACK
6
CONTINUOUS
10
2.69881
20
12.5226
11
3.31786
21
12.5226
0
LINE
8
BLACK
6
CONTINUOUS
10
3.74643
20
12.6179
11
3.79405
21
12.5702
0
LINE
8
BLACK
6
CONTINUOUS
10
3.79405
20
12.5702
11
3.74643
21
12.5226
0
LINE
8
BLACK
6
CONTINUOUS
10
3.74643
20
12.5226
11
3.69881
21
12.5702
0
LINE
8
BLACK
6
CONTINUOUS
10
3.69881
20
12.5702
11
3.74643
21
12.6179
0
LINE
8
BLACK
6
CONTINUOUS
10
3.74643
20
12.6179
11
3.74643
21
12.5226
0
LINE
8
BLACK
6
CONTINUOUS
10
4.175
20
13.4274
11
4.22262
21
13.475
0
LINE
8
BLACK
6
CONTINUOUS
10
4.22262
20
13.475
11
4.31786
21
13.5226
0
LINE
8
BLACK
6
CONTINUOUS
10
4.31786
20
13.5226
11
4.55595
21
13.5226
0
LINE
8
BLACK
6
CONTINUOUS
10
4.55595
20
13.5226
11
4.65119
21
13.475
0
LINE
8
BLACK
6
CONTINUOUS
10
4.65119
20
13.475
11
4.69881
21
13.4274
0
LINE
8
BLACK
6
CONTINUOUS
10
4.69881
20
13.4274
11
4.74643
21
13.3321
0
LINE
8
BLACK
6
CONTINUOUS
10
4.74643
20
13.3321
11
4.74643
21
13.2369
0
LINE
8
BLACK
6
CONTINUOUS
10
4.74643
20
13.2369
11
4.69881
21
13.094
0
LINE
8
BLACK
6
CONTINUOUS
10
4.69881
20
13.094
11
4.12738
21
12.5226
0
LINE
8
BLACK
6
CONTINUOUS
10
4.12738
20
12.5226
11
4.74643
21
12.5226
0
LINE
8
BLACK
6
CONTINUOUS
10
2.7131
20
15.4226
11
2.7131
21
16.4226
0
LINE
8
BLACK
6
CONTINUOUS
10
2.7131
20
15.9464
11
3.28452
21
15.9464
0
LINE
8
BLACK
6
CONTINUOUS
10
3.28452
20
15.4226
11
3.28452
21
16.4226
0
LINE
8
BLACK
6
CONTINUOUS
10
4.28452
20
15.4226
11
3.7131
21
15.4226
0
LINE
8
BLACK
6
CONTINUOUS
10
3.99881
20
15.4226
11
3.99881
21
16.4226
0
LINE
8
BLACK
6
CONTINUOUS
10
3.99881
20
16.4226
11
3.90357
21
16.2798
0
LINE
8
BLACK
6
CONTINUOUS
10
3.90357
20
16.2798
11
3.80833
21
16.1845
0
LINE
8
BLACK
6
CONTINUOUS
10
3.80833
20
16.1845
11
3.7131
21
16.1369
0
LINE
8
BLACK
6
CONTINUOUS
10
25.5731
20
33.2026
11
25.5731
21
34.2026
0
LINE
8
BLACK
6
CONTINUOUS
10
25.5731
20
33.7264
11
26.1445
21
33.7264
0
LINE
8
BLACK
6
CONTINUOUS
10
26.1445
20
33.2026
11
26.1445
21
34.2026
0
LINE
8
BLACK
6
CONTINUOUS
10
26.5255
20
34.2026
11
27.1445
21
34.2026
0
LINE
8
BLACK
6
CONTINUOUS
10
27.1445
20
34.2026
11
26.8112
21
33.8217
0
LINE
8
BLACK
6
CONTINUOUS
10
26.8112
20
33.8217
11
26.954
21
33.8217
0
LINE
8
BLACK
6
CONTINUOUS
10
26.954
20
33.8217
11
27.0493
21
33.774
0
LINE
8
BLACK
6
CONTINUOUS
10
27.0493
20
33.774
11
27.0969
21
33.7264
0
LINE
8
BLACK
6
CONTINUOUS
10
27.0969
20
33.7264
11
27.1445
21
33.6312
0
LINE
8
BLACK
6
CONTINUOUS
10
27.1445
20
33.6312
11
27.1445
21
33.3931
0
LINE
8
BLACK
6
CONTINUOUS
10
27.1445
20
33.3931
11
27.0969
21
33.2979
0
LINE
8
BLACK
6
CONTINUOUS
10
27.0969
20
33.2979
11
27.0493
21
33.2502
0
LINE
8
BLACK
6
CONTINUOUS
10
27.0493
20
33.2502
11
26.954
21
33.2026
0
LINE
8
BLACK
6
CONTINUOUS
10
26.954
20
33.2026
11
26.6683
21
33.2026
0
LINE
8
BLACK
6
CONTINUOUS
10
26.6683
20
33.2026
11
26.5731
21
33.2502
0
LINE
8
BLACK
6
CONTINUOUS
10
26.5731
20
33.2502
11
26.5255
21
33.2979
0
LINE
8
BLACK
6
CONTINUOUS
10
25.5731
20
2.72262
11
25.5731
21
3.72262
0
LINE
8
BLACK
6
CONTINUOUS
10
25.5731
20
3.24643
11
26.1445
21
3.24643
0
LINE
8
BLACK
6
CONTINUOUS
10
26.1445
20
2.72262
11
26.1445
21
3.72262
0
LINE
8
BLACK
6
CONTINUOUS
10
27.0493
20
3.38929
11
27.0493
21
2.72262
0
LINE
8
BLACK
6
CONTINUOUS
10
26.8112
20
3.77024
11
26.5731
21
3.05595
0
LINE
8
BLACK
6
CONTINUOUS
10
26.5731
20
3.05595
11
27.1921
21
3.05595
0
LINE
8
BLACK
6
CONTINUOUS
10
5.53238
20
26.7657
11
4.53238
21
26.7657
0
LINE
8
BLACK
6
CONTINUOUS
10
4.53238
20
26.7657
11
4.53238
21
27.0038
0
LINE
8
BLACK
6
CONTINUOUS
10
4.53238
20
27.0038
11
4.58
21
27.1467
0
LINE
8
BLACK
6
CONTINUOUS
10
4.58
20
27.1467
11
4.67524
21
27.2419
0
LINE
8
BLACK
6
CONTINUOUS
10
4.67524
20
27.2419
11
4.77048
21
27.2895
0
LINE
8
BLACK
6
CONTINUOUS
10
4.77048
20
27.2895
11
4.96095
21
27.3371
0
LINE
8
BLACK
6
CONTINUOUS
10
4.96095
20
27.3371
11
5.10381
21
27.3371
0
LINE
8
BLACK
6
CONTINUOUS
10
5.10381
20
27.3371
11
5.29428
21
27.2895
0
LINE
8
BLACK
6
CONTINUOUS
10
5.29428
20
27.2895
11
5.38952
21
27.2419
0
LINE
8
BLACK
6
CONTINUOUS
10
5.38952
20
27.2419
11
5.48476
21
27.1467
0
LINE
8
BLACK
6
CONTINUOUS
10
5.48476
20
27.1467
11
5.53238
21
27.0038
0
LINE
8
BLACK
6
CONTINUOUS
10
5.53238
20
27.0038
11
5.53238
21
26.7657
0
LINE
8
BLACK
6
CONTINUOUS
10
5.43714
20
28.3371
11
5.48476
21
28.2895
0
LINE
8
BLACK
6
CONTINUOUS
10
5.48476
20
28.2895
11
5.53238
21
28.1467
0
LINE
8
BLACK
6
CONTINUOUS
10
5.53238
20
28.1467
11
5.53238
21
28.0514
0
LINE
8
BLACK
6
CONTINUOUS
10
5.53238
20
28.0514
11
5.48476
21
27.9086
0
LINE
8
BLACK
6
CONTINUOUS
10
5.48476
20
27.9086
11
5.38952
21
27.8133
0
LINE
8
BLACK
6
CONTINUOUS
10
5.38952
20
27.8133
11
5.29428
21
27.7657
0
LINE
8
BLACK
6
CONTINUOUS
10
5.29428
20
27.7657
11
5.10381
21
27.7181
0
LINE
8
BLACK
6
CONTINUOUS
10
5.10381
20
27.7181
11
4.96095
21
27.7181
0
LINE
8
BLACK
6
CONTINUOUS
10
4.96095
20
27.7181
11
4.77048
21
27.7657
0
LINE
8
BLACK
6
CONTINUOUS
10
4.77048
20
27.7657
11
4.67524
21
27.8133
0
LINE
8
BLACK
6
CONTINUOUS
10
4.67524
20
27.8133
11
4.58
21
27.9086
0
LINE
8
BLACK
6
CONTINUOUS
10
4.58
20
27.9086
11
4.53238
21
28.0514
0
LINE
8
BLACK
6
CONTINUOUS
10
4.53238
20
28.0514
11
4.53238
21
28.1467
0
LINE
8
BLACK
6
CONTINUOUS
10
4.53238
20
28.1467
11
4.58
21
28.2895
0
LINE
8
BLACK
6
CONTINUOUS
10
4.58
20
28.2895
11
4.62762
21
28.3371
0
LINE
8
BLACK
6
CONTINUOUS
10
5.53238
20
29.5752
11
5.53238
21
29.7657
0
LINE
8
BLACK
6
CONTINUOUS
10
5.53238
20
29.7657
11
5.48476
21
29.861
0
LINE
8
BLACK
6
CONTINUOUS
10
5.48476
20
29.861
11
5.43714
21
29.9086
0
LINE
8
BLACK
6
CONTINUOUS
10
5.43714
20
29.9086
11
5.29428
21
30.0038
0
LINE
8
BLACK
6
CONTINUOUS
10
5.29428
20
30.0038
11
5.10381
21
30.0514
0
LINE
8
BLACK
6
CONTINUOUS
10
5.10381
20
30.0514
11
4.72286
21
30.0514
0
LINE
8
BLACK
6
CONTINUOUS
10
4.72286
20
30.0514
11
4.62762
21
30.0038
0
LINE
8
BLACK
6
CONTINUOUS
10
4.62762
20
30.0038
11
4.58
21
29.9562
0
LINE
8
BLACK
6
CONTINUOUS
10
4.58
20
29.9562
11
4.53238
21
29.861
0
LINE
8
BLACK
6
CONTINUOUS
10
4.53238
20
29.861
11
4.53238
21
29.6705
0
LINE
8
BLACK
6
CONTINUOUS
10
4.53238
20
29.6705
11
4.58
21
29.5752
0
LINE
8
BLACK
6
CONTINUOUS
10
4.58
20
29.5752
11
4.62762
21
29.5276
0
LINE
8
BLACK
6
CONTINUOUS
10
4.62762
20
29.5276
11
4.72286
21
29.48
0
LINE
8
BLACK
6
CONTINUOUS
10
4.72286
20
29.48
11
4.96095
21
29.48
0
LINE
8
BLACK
6
CONTINUOUS
10
4.96095
20
29.48
11
5.05619
21
29.5276
0
LINE
8
BLACK
6
CONTINUOUS
10
5.05619
20
29.5276
11
5.10381
21
29.5752
0
LINE
8
BLACK
6
CONTINUOUS
10
5.10381
20
29.5752
11
5.15143
21
29.6705
0
LINE
8
BLACK
6
CONTINUOUS
10
5.15143
20
29.6705
11
5.15143
21
29.861
0
LINE
8
BLACK
6
CONTINUOUS
10
5.15143
20
29.861
11
5.10381
21
29.9562
0
LINE
8
BLACK
6
CONTINUOUS
10
5.10381
20
29.9562
11
5.05619
21
30.0038
0
LINE
8
BLACK
6
CONTINUOUS
10
5.05619
20
30.0038
11
4.96095
21
30.0514
0
LINE
8
BLACK
6
CONTINUOUS
10
5.43714
20
30.48
11
5.48476
21
30.5276
0
LINE
8
BLACK
6
CONTINUOUS
10
5.48476
20
30.5276
11
5.53238
21
30.48
0
LINE
8
BLACK
6
CONTINUOUS
10
5.53238
20
30.48
11
5.48476
21
30.4324
0
LINE
8
BLACK
6
CONTINUOUS
10
5.48476
20
30.4324
11
5.43714
21
30.48
0
LINE
8
BLACK
6
CONTINUOUS
10
5.43714
20
30.48
11
5.53238
21
30.48
0
LINE
8
BLACK
6
CONTINUOUS
10
5.43714
20
30.9562
11
5.48476
21
31.0038
0
LINE
8
BLACK
6
CONTINUOUS
10
5.48476
20
31.0038
11
5.53238
21
30.9562
0
LINE
8
BLACK
6
CONTINUOUS
10
5.53238
20
30.9562
11
5.48476
21
30.9086
0
LINE
8
BLACK
6
CONTINUOUS
10
5.48476
20
30.9086
11
5.43714
21
30.9562
0
LINE
8
BLACK
6
CONTINUOUS
10
5.43714
20
30.9562
11
5.53238
21
30.9562
0
LINE
8
BLACK
6
CONTINUOUS
10
5.43714
20
31.4324
11
5.48476
21
31.48
0
LINE
8
BLACK
6
CONTINUOUS
10
5.48476
20
31.48
11
5.53238
21
31.4324
0
LINE
8
BLACK
6
CONTINUOUS
10
5.53238
20
31.4324
11
5.48476
21
31.3848
0
LINE
8
BLACK
6
CONTINUOUS
10
5.48476
20
31.3848
11
5.43714
21
31.4324
0
LINE
8
BLACK
6
CONTINUOUS
10
5.43714
20
31.4324
11
5.53238
21
31.4324
0
LINE
8
BLACK
6
CONTINUOUS
10
5.53238
20
32.4324
11
5.53238
21
31.861
0
LINE
8
BLACK
6
CONTINUOUS
10
5.53238
20
32.1467
11
4.53238
21
32.1467
0
LINE
8
BLACK
6
CONTINUOUS
10
4.53238
20
32.1467
11
4.67524
21
32.0514
0
LINE
8
BLACK
6
CONTINUOUS
10
4.67524
20
32.0514
11
4.77048
21
31.9562
0
LINE
8
BLACK
6
CONTINUOUS
10
4.77048
20
31.9562
11
4.81809
21
31.861
0
LINE
8
BLACK
6
CONTINUOUS
10
4.62762
20
32.8133
11
4.58
21
32.861
0
LINE
8
BLACK
6
CONTINUOUS
10
4.58
20
32.861
11
4.53238
21
32.9562
0
LINE
8
BLACK
6
CONTINUOUS
10
4.53238
20
32.9562
11
4.53238
21
33.1943
0
LINE
8
BLACK
6
CONTINUOUS
10
4.53238
20
33.1943
11
4.58
21
33.2895
0
LINE
8
BLACK
6
CONTINUOUS
10
4.58
20
33.2895
11
4.62762
21
33.3371
0
LINE
8
BLACK
6
CONTINUOUS
10
4.62762
20
33.3371
11
4.72286
21
33.3848
0
LINE
8
BLACK
6
CONTINUOUS
10
4.72286
20
33.3848
11
4.81809
21
33.3848
0
LINE
8
BLACK
6
CONTINUOUS
10
4.81809
20
33.3848
11
4.96095
21
33.3371
0
LINE
8
BLACK
6
CONTINUOUS
10
4.96095
20
33.3371
11
5.53238
21
32.7657
0
LINE
8
BLACK
6
CONTINUOUS
10
5.53238
20
32.7657
11
5.53238
21
33.3848
0
LINE
8
BLACK
6
CONTINUOUS
10
4.53238
20
33.6705
11
5.53238
21
34.0038
0
LINE
8
BLACK
6
CONTINUOUS
10
5.53238
20
34.0038
11
4.53238
21
34.3371
0
LINE
8
BLACK
6
CONTINUOUS
10
16.0719
20
12.0905
11
16.7195
21
12.0905
0
LINE
8
BLACK
6
CONTINUOUS
10
16.7195
20
12.0905
11
16.7957
21
12.1286
0
LINE
8
BLACK
6
CONTINUOUS
10
16.7957
20
12.1286
11
16.8338
21
12.1667
0
LINE
8
BLACK
6
CONTINUOUS
10
16.8338
20
12.1667
11
16.8719
21
12.2429
0
LINE
8
BLACK
6
CONTINUOUS
10
16.8719
20
12.2429
11
16.8719
21
12.3952
0
LINE
8
BLACK
6
CONTINUOUS
10
16.8719
20
12.3952
11
16.8338
21
12.4714
0
LINE
8
BLACK
6
CONTINUOUS
10
16.8338
20
12.4714
11
16.7957
21
12.5095
0
LINE
8
BLACK
6
CONTINUOUS
10
16.7957
20
12.5095
11
16.7195
21
12.5476
0
LINE
8
BLACK
6
CONTINUOUS
10
16.7195
20
12.5476
11
16.0719
21
12.5476
0
LINE
8
BLACK
6
CONTINUOUS
10
16.8719
20
13.3476
11
16.8719
21
12.8905
0
LINE
8
BLACK
6
CONTINUOUS
10
16.8719
20
13.119
11
16.0719
21
13.119
0
LINE
8
BLACK
6
CONTINUOUS
10
16.0719
20
13.119
11
16.1862
21
13.0429
0
LINE
8
BLACK
6
CONTINUOUS
10
16.1862
20
13.0429
11
16.2624
21
12.9667
0
LINE
8
BLACK
6
CONTINUOUS
10
16.2624
20
12.9667
11
16.3005
21
12.8905
  0
ENDSEC
  0
EOF
