  0
SECTION
  2
HEADER
  9
$ANGBASE
  50
0.0
  9
$ANGDIR
  70
1
  9
$MEASUREMENT
  70
1
  0
ENDSEC
  0
SECTION
  2
TABLES
  0
TABLE
  2
LTYPE
  70
4
  0
LTYPE
  5
40F
  2
CONTINUOUS
  70
0
  3
Solid line
  72
65
  73
0
  40
0.0
  0
LTYPE
  5
410
  2
DASHDOT
 70
0
  3
Dash Dot ____ _ ____ _
 72
65
 73
4
 40
2.0
 49
1.25
 49
-0.25
 49
0.25
 49
-0.25
  0
LTYPE
  5
411
  2
DASHED
 70
0
  3
Dashed __ __ __ __ __
 72
65
 73
2
 40
0.75
 49
0.5
 49
-0.25
  0
LTYPE
  5
43B
  2
DOTTED
 70
0
  3
Dotted .  .  .  .
 72
65
 73
2
 40
0.2
 49
0.0
 49
-0.2
  0
ENDTAB
  0
TABLE
  2
STYLE
  70
4
  0
STYLE
  2
KICAD
  70
0
  40
0
  41
1
  42
1
  50
0
  71
0
  3
isocp.shx
  0
STYLE
  2
KICADB
  70
0
  40
0
  41
1
  42
1
  50
0
  71
0
  3
isocp.shx
  0
STYLE
  2
KICADI
  70
0
  40
0
  41
1
  42
1
  50
15
  71
0
  3
isocp.shx
  0
STYLE
  2
KICADBI
  70
0
  40
0
  41
1
  42
1
  50
15
  71
0
  3
isocp.shx
  0
ENDTAB
  0
TABLE
  2
LAYER
  70
1
  0
LAYER
  2
BLACK
  70
0
  62
7
  6
CONTINUOUS
  0
ENDTAB
  0
ENDSEC
  0
SECTION
  2
ENTITIES
0
CIRCLE
8
BLACK
10
15.22
20
5.08
40
2.75
0
CIRCLE
8
BLACK
10
20.34
20
21.59
40
2.75
0
LINE
8
BLACK
6
CONTINUOUS
10
25.42
20
14.07
11
27.92
21
14.07
0
LINE
8
BLACK
6
CONTINUOUS
10
27.92
20
14.07
11
27.92
21
21.57
0
LINE
8
BLACK
6
CONTINUOUS
10
27.92
20
21.57
11
25.42
21
21.57
0
LINE
8
BLACK
6
CONTINUOUS
10
25.42
20
21.57
11
25.42
21
14.07
0
LINE
8
BLACK
6
CONTINUOUS
10
3.73
20
21.92
11
3.73
21
18.72
0
LINE
8
BLACK
6
CONTINUOUS
10
3.73
20
18.72
11
16.59
21
18.72
0
LINE
8
BLACK
6
CONTINUOUS
10
16.59
20
18.72
11
16.59
21
21.92
0
LINE
8
BLACK
6
CONTINUOUS
10
16.59
20
21.92
11
3.73
21
21.92
0
CIRCLE
8
BLACK
10
3.175
20
15.875
40
2.15
0
CIRCLE
8
BLACK
10
26.035
20
33.655
40
2.15
0
CIRCLE
8
BLACK
10
26.035
20
3.175
40
2.15
0
LINE
8
BLACK
6
CONTINUOUS
10
14.605
20
34.98
11
0.74
21
34.98
0
LINE
8
BLACK
6
CONTINUOUS
10
0.74
20
34.98
11
0.74
21
25.98
0
LINE
8
BLACK
6
CONTINUOUS
10
14.605
20
34.98
11
14.605
21
33.655
0
LINE
8
BLACK
6
CONTINUOUS
10
14.605
20
33.655
11
16.51
21
33.655
0
LINE
8
BLACK
6
CONTINUOUS
10
16.51
20
33.655
11
16.51
21
27.305
0
LINE
8
BLACK
6
CONTINUOUS
10
16.51
20
27.305
11
14.605
21
27.305
0
LINE
8
BLACK
6
CONTINUOUS
10
14.605
20
27.305
11
14.605
21
24.13
0
LINE
8
BLACK
6
CONTINUOUS
10
14.605
20
24.13
11
8.255
21
24.13
0
LINE
8
BLACK
6
CONTINUOUS
10
8.255
20
24.13
11
8.255
21
25.98
0
LINE
8
BLACK
6
CONTINUOUS
10
8.255
20
25.98
11
0.74
21
25.98
0
LINE
8
BLACK
6
CONTINUOUS
10
5.08
20
1.11
11
-1.42
21
1.11
0
LINE
8
BLACK
6
CONTINUOUS
10
-1.42
20
1.11
11
-1.42
21
12.51
0
LINE
8
BLACK
6
CONTINUOUS
10
-1.42
20
12.51
11
5.08
21
12.51
0
LINE
8
BLACK
6
CONTINUOUS
10
5.08
20
1.11
11
6.58
21
1.11
0
LINE
8
BLACK
6
CONTINUOUS
10
6.58
20
1.11
11
6.58
21
12.51
0
LINE
8
BLACK
6
CONTINUOUS
10
6.58
20
12.51
11
5.08
21
12.51
0
LINE
8
BLACK
6
CONTINUOUS
10
20.91
20
16.3
11
12.11
21
16.3
0
LINE
8
BLACK
6
CONTINUOUS
10
20.91
20
9.1
11
20.91
21
16.3
0
LINE
8
BLACK
6
CONTINUOUS
10
12.11
20
9.1
11
20.91
21
9.1
0
LINE
8
BLACK
6
CONTINUOUS
10
12.11
20
16.3
11
12.11
21
9.1
  0
ENDSEC
  0
EOF
