  0
SECTION
  2
HEADER
  9
$ANGBASE
  50
0.0
  9
$ANGDIR
  70
1
  9
$MEASUREMENT
  70
1
  0
ENDSEC
  0
SECTION
  2
TABLES
  0
TABLE
  2
LTYPE
  70
4
  0
LTYPE
  5
40F
  2
CONTINUOUS
  70
0
  3
Solid line
  72
65
  73
0
  40
0.0
  0
LTYPE
  5
410
  2
DASHDOT
 70
0
  3
Dash Dot ____ _ ____ _
 72
65
 73
4
 40
2.0
 49
1.25
 49
-0.25
 49
0.25
 49
-0.25
  0
LTYPE
  5
411
  2
DASHED
 70
0
  3
Dashed __ __ __ __ __
 72
65
 73
2
 40
0.75
 49
0.5
 49
-0.25
  0
LTYPE
  5
43B
  2
DOTTED
 70
0
  3
Dotted .  .  .  .
 72
65
 73
2
 40
0.2
 49
0.0
 49
-0.2
  0
ENDTAB
  0
TABLE
  2
STYLE
  70
4
  0
STYLE
  2
KICAD
  70
0
  40
0
  41
1
  42
1
  50
0
  71
0
  3
isocp.shx
  0
STYLE
  2
KICADB
  70
0
  40
0
  41
1
  42
1
  50
0
  71
0
  3
isocp.shx
  0
STYLE
  2
KICADI
  70
0
  40
0
  41
1
  42
1
  50
15
  71
0
  3
isocp.shx
  0
STYLE
  2
KICADBI
  70
0
  40
0
  41
1
  42
1
  50
15
  71
0
  3
isocp.shx
  0
ENDTAB
  0
TABLE
  2
LAYER
  70
1
  0
LAYER
  2
BLACK
  70
0
  62
7
  6
CONTINUOUS
  0
ENDTAB
  0
ENDSEC
  0
SECTION
  2
ENTITIES
0
LINE
8
BLACK
6
CONTINUOUS
10
26.5892
20
5.00198
11
26.935
21
4.85876
0
LINE
8
BLACK
6
CONTINUOUS
10
26.935
20
4.85876
11
27.2462
21
4.65083
0
LINE
8
BLACK
6
CONTINUOUS
10
27.2462
20
4.65083
11
27.5108
21
4.38618
0
LINE
8
BLACK
6
CONTINUOUS
10
27.5108
20
4.38618
11
27.7188
21
4.07499
0
LINE
8
BLACK
6
CONTINUOUS
10
27.7188
20
4.07499
11
27.862
21
3.72921
0
LINE
8
BLACK
6
CONTINUOUS
10
27.862
20
3.72921
11
27.935
21
3.36213
0
LINE
8
BLACK
6
CONTINUOUS
10
27.935
20
3.36213
11
27.935
21
2.98787
0
LINE
8
BLACK
6
CONTINUOUS
10
27.935
20
2.98787
11
27.862
21
2.62079
0
LINE
8
BLACK
6
CONTINUOUS
10
27.862
20
2.62079
11
27.7188
21
2.27501
0
LINE
8
BLACK
6
CONTINUOUS
10
27.7188
20
2.27501
11
27.5108
21
1.96382
0
LINE
8
BLACK
6
CONTINUOUS
10
27.5108
20
1.96382
11
27.2462
21
1.69917
0
LINE
8
BLACK
6
CONTINUOUS
10
27.2462
20
1.69917
11
26.935
21
1.49124
0
LINE
8
BLACK
6
CONTINUOUS
10
26.935
20
1.49124
11
26.5892
21
1.34802
0
LINE
8
BLACK
6
CONTINUOUS
10
26.5892
20
1.34802
11
26.2221
21
1.275
0
LINE
8
BLACK
6
CONTINUOUS
10
26.2221
20
1.275
11
25.8479
21
1.275
0
LINE
8
BLACK
6
CONTINUOUS
10
25.8479
20
1.275
11
25.4808
21
1.34802
0
LINE
8
BLACK
6
CONTINUOUS
10
25.4808
20
1.34802
11
25.135
21
1.49124
0
LINE
8
BLACK
6
CONTINUOUS
10
25.135
20
1.49124
11
24.8238
21
1.69917
0
LINE
8
BLACK
6
CONTINUOUS
10
24.8238
20
1.69917
11
24.5592
21
1.96382
0
LINE
8
BLACK
6
CONTINUOUS
10
24.5592
20
1.96382
11
24.3512
21
2.27501
0
LINE
8
BLACK
6
CONTINUOUS
10
24.3512
20
2.27501
11
24.208
21
2.62079
0
LINE
8
BLACK
6
CONTINUOUS
10
24.208
20
2.62079
11
24.135
21
2.98787
0
LINE
8
BLACK
6
CONTINUOUS
10
24.135
20
2.98787
11
24.135
21
3.36213
0
LINE
8
BLACK
6
CONTINUOUS
10
24.135
20
3.36213
11
24.208
21
3.72921
0
LINE
8
BLACK
6
CONTINUOUS
10
24.208
20
3.72921
11
24.3512
21
4.07499
0
LINE
8
BLACK
6
CONTINUOUS
10
24.3512
20
4.07499
11
24.5592
21
4.38618
0
LINE
8
BLACK
6
CONTINUOUS
10
24.5592
20
4.38618
11
24.8238
21
4.65083
0
LINE
8
BLACK
6
CONTINUOUS
10
24.8238
20
4.65083
11
25.135
21
4.85876
0
LINE
8
BLACK
6
CONTINUOUS
10
25.135
20
4.85876
11
25.4808
21
5.00198
0
LINE
8
BLACK
6
CONTINUOUS
10
25.4808
20
5.00198
11
25.8479
21
5.075
0
LINE
8
BLACK
6
CONTINUOUS
10
25.8479
20
5.075
11
26.2221
21
5.075
0
LINE
8
BLACK
6
CONTINUOUS
10
26.2221
20
5.075
11
26.5892
21
5.00198
0
LINE
8
BLACK
6
CONTINUOUS
10
5.3819
20
4.80523
11
5.57026
21
4.7272
0
LINE
8
BLACK
6
CONTINUOUS
10
5.57026
20
4.7272
11
5.73977
21
4.61394
0
LINE
8
BLACK
6
CONTINUOUS
10
5.73977
20
4.61394
11
5.88394
21
4.46977
0
LINE
8
BLACK
6
CONTINUOUS
10
5.88394
20
4.46977
11
5.99721
21
4.30026
0
LINE
8
BLACK
6
CONTINUOUS
10
5.99721
20
4.30026
11
6.07523
21
4.1119
0
LINE
8
BLACK
6
CONTINUOUS
10
6.07523
20
4.1119
11
6.115
21
3.91194
0
LINE
8
BLACK
6
CONTINUOUS
10
6.115
20
3.91194
11
6.115
21
3.70806
0
LINE
8
BLACK
6
CONTINUOUS
10
6.115
20
3.70806
11
6.07523
21
3.5081
0
LINE
8
BLACK
6
CONTINUOUS
10
6.07523
20
3.5081
11
5.99721
21
3.31974
0
LINE
8
BLACK
6
CONTINUOUS
10
5.99721
20
3.31974
11
5.88394
21
3.15023
0
LINE
8
BLACK
6
CONTINUOUS
10
5.88394
20
3.15023
11
5.73977
21
3.00606
0
LINE
8
BLACK
6
CONTINUOUS
10
5.73977
20
3.00606
11
5.57026
21
2.8928
0
LINE
8
BLACK
6
CONTINUOUS
10
5.57026
20
2.8928
11
5.3819
21
2.81477
0
LINE
8
BLACK
6
CONTINUOUS
10
5.3819
20
2.81477
11
5.18194
21
2.775
0
LINE
8
BLACK
6
CONTINUOUS
10
5.18194
20
2.775
11
4.97806
21
2.775
0
LINE
8
BLACK
6
CONTINUOUS
10
4.97806
20
2.775
11
4.7781
21
2.81477
0
LINE
8
BLACK
6
CONTINUOUS
10
4.7781
20
2.81477
11
4.58974
21
2.8928
0
LINE
8
BLACK
6
CONTINUOUS
10
4.58974
20
2.8928
11
4.42023
21
3.00606
0
LINE
8
BLACK
6
CONTINUOUS
10
4.42023
20
3.00606
11
4.27606
21
3.15023
0
LINE
8
BLACK
6
CONTINUOUS
10
4.27606
20
3.15023
11
4.1628
21
3.31974
0
LINE
8
BLACK
6
CONTINUOUS
10
4.1628
20
3.31974
11
4.08477
21
3.5081
0
LINE
8
BLACK
6
CONTINUOUS
10
4.08477
20
3.5081
11
4.045
21
3.70806
0
LINE
8
BLACK
6
CONTINUOUS
10
4.045
20
3.70806
11
4.045
21
3.91194
0
LINE
8
BLACK
6
CONTINUOUS
10
4.045
20
3.91194
11
4.08477
21
4.1119
0
LINE
8
BLACK
6
CONTINUOUS
10
4.08477
20
4.1119
11
4.1628
21
4.30026
0
LINE
8
BLACK
6
CONTINUOUS
10
4.1628
20
4.30026
11
4.27606
21
4.46977
0
LINE
8
BLACK
6
CONTINUOUS
10
4.27606
20
4.46977
11
4.42023
21
4.61394
0
LINE
8
BLACK
6
CONTINUOUS
10
4.42023
20
4.61394
11
4.58974
21
4.7272
0
LINE
8
BLACK
6
CONTINUOUS
10
4.58974
20
4.7272
11
4.7781
21
4.80523
0
LINE
8
BLACK
6
CONTINUOUS
10
4.7781
20
4.80523
11
4.97806
21
4.845
0
LINE
8
BLACK
6
CONTINUOUS
10
4.97806
20
4.845
11
5.18194
21
4.845
0
LINE
8
BLACK
6
CONTINUOUS
10
5.18194
20
4.845
11
5.3819
21
4.80523
0
LINE
8
BLACK
6
CONTINUOUS
10
14.36
20
9.65
11
13.86
21
9.65
0
LINE
8
BLACK
6
CONTINUOUS
10
13.86
20
9.65
11
13.86
21
7.69711
0
LINE
8
BLACK
6
CONTINUOUS
10
13.86
20
7.69711
11
14.3062
21
7.25092
0
LINE
8
BLACK
6
CONTINUOUS
10
14.3062
20
7.25092
11
14.3253
21
7.23526
0
LINE
8
BLACK
6
CONTINUOUS
10
14.3253
20
7.23526
11
14.3877
21
7.15913
0
LINE
8
BLACK
6
CONTINUOUS
10
14.3877
20
7.15913
11
14.4342
21
7.07227
0
LINE
8
BLACK
6
CONTINUOUS
10
14.4342
20
7.07227
11
14.4628
21
6.97802
0
LINE
8
BLACK
6
CONTINUOUS
10
14.4628
20
6.97802
11
14.47
21
6.90456
0
LINE
8
BLACK
6
CONTINUOUS
10
14.47
20
6.90456
11
14.47
21
6.90455
0
LINE
8
BLACK
6
CONTINUOUS
10
14.47
20
6.90455
11
14.4724
21
6.88
0
LINE
8
BLACK
6
CONTINUOUS
10
14.4724
20
6.88
11
14.47
21
6.85545
0
LINE
8
BLACK
6
CONTINUOUS
10
14.47
20
6.85545
11
14.47
21
5.88
0
LINE
8
BLACK
6
CONTINUOUS
10
14.47
20
5.88
11
14.77
21
5.88
0
LINE
8
BLACK
6
CONTINUOUS
10
14.77
20
5.88
11
14.77
21
4.28
0
LINE
8
BLACK
6
CONTINUOUS
10
14.77
20
4.28
11
13.17
21
4.28
0
LINE
8
BLACK
6
CONTINUOUS
10
13.17
20
4.28
11
13.17
21
5.88
0
LINE
8
BLACK
6
CONTINUOUS
10
13.17
20
5.88
11
13.47
21
5.88
0
LINE
8
BLACK
6
CONTINUOUS
10
13.47
20
5.88
11
13.47
21
6.67289
0
LINE
8
BLACK
6
CONTINUOUS
10
13.47
20
6.67289
11
13.0238
21
7.11908
0
LINE
8
BLACK
6
CONTINUOUS
10
13.0238
20
7.11908
11
13.0047
21
7.13474
0
LINE
8
BLACK
6
CONTINUOUS
10
13.0047
20
7.13474
11
12.9423
21
7.21087
0
LINE
8
BLACK
6
CONTINUOUS
10
12.9423
20
7.21087
11
12.8958
21
7.29773
0
LINE
8
BLACK
6
CONTINUOUS
10
12.8958
20
7.29773
11
12.8817
21
7.34417
0
LINE
8
BLACK
6
CONTINUOUS
10
12.8817
20
7.34417
11
12.8672
21
7.39198
0
LINE
8
BLACK
6
CONTINUOUS
10
12.8672
20
7.39198
11
12.8576
21
7.49
0
LINE
8
BLACK
6
CONTINUOUS
10
12.8576
20
7.49
11
12.86
21
7.51457
0
LINE
8
BLACK
6
CONTINUOUS
10
12.86
20
7.51457
11
12.86
21
9.65
0
LINE
8
BLACK
6
CONTINUOUS
10
12.86
20
9.65
11
12.36
21
9.65
0
LINE
8
BLACK
6
CONTINUOUS
10
12.36
20
9.65
11
12.36
21
11.15
0
LINE
8
BLACK
6
CONTINUOUS
10
12.36
20
11.15
11
14.36
21
11.15
0
LINE
8
BLACK
6
CONTINUOUS
10
14.36
20
11.15
11
14.36
21
9.65
0
LINE
8
BLACK
6
CONTINUOUS
10
16.7034
20
5.84926
11
16.8489
21
5.78895
0
LINE
8
BLACK
6
CONTINUOUS
10
16.8489
20
5.78895
11
16.98
21
5.7014
0
LINE
8
BLACK
6
CONTINUOUS
10
16.98
20
5.7014
11
17.0914
21
5.58997
0
LINE
8
BLACK
6
CONTINUOUS
10
17.0914
20
5.58997
11
17.179
21
5.45894
0
LINE
8
BLACK
6
CONTINUOUS
10
17.179
20
5.45894
11
17.2393
21
5.31335
0
LINE
8
BLACK
6
CONTINUOUS
10
17.2393
20
5.31335
11
17.27
21
5.15879
0
LINE
8
BLACK
6
CONTINUOUS
10
17.27
20
5.15879
11
17.27
21
5.00121
0
LINE
8
BLACK
6
CONTINUOUS
10
17.27
20
5.00121
11
17.2393
21
4.84665
0
LINE
8
BLACK
6
CONTINUOUS
10
17.2393
20
4.84665
11
17.179
21
4.70106
0
LINE
8
BLACK
6
CONTINUOUS
10
17.179
20
4.70106
11
17.0914
21
4.57003
0
LINE
8
BLACK
6
CONTINUOUS
10
17.0914
20
4.57003
11
16.98
21
4.4586
0
LINE
8
BLACK
6
CONTINUOUS
10
16.98
20
4.4586
11
16.8489
21
4.37105
0
LINE
8
BLACK
6
CONTINUOUS
10
16.8489
20
4.37105
11
16.7034
21
4.31074
0
LINE
8
BLACK
6
CONTINUOUS
10
16.7034
20
4.31074
11
16.5488
21
4.28
0
LINE
8
BLACK
6
CONTINUOUS
10
16.5488
20
4.28
11
16.3912
21
4.28
0
LINE
8
BLACK
6
CONTINUOUS
10
16.3912
20
4.28
11
16.2366
21
4.31074
0
LINE
8
BLACK
6
CONTINUOUS
10
16.2366
20
4.31074
11
16.0911
21
4.37105
0
LINE
8
BLACK
6
CONTINUOUS
10
16.0911
20
4.37105
11
15.96
21
4.4586
0
LINE
8
BLACK
6
CONTINUOUS
10
15.96
20
4.4586
11
15.8486
21
4.57003
0
LINE
8
BLACK
6
CONTINUOUS
10
15.8486
20
4.57003
11
15.761
21
4.70106
0
LINE
8
BLACK
6
CONTINUOUS
10
15.761
20
4.70106
11
15.7007
21
4.84665
0
LINE
8
BLACK
6
CONTINUOUS
10
15.7007
20
4.84665
11
15.67
21
5.00121
0
LINE
8
BLACK
6
CONTINUOUS
10
15.67
20
5.00121
11
15.67
21
5.15879
0
LINE
8
BLACK
6
CONTINUOUS
10
15.67
20
5.15879
11
15.7007
21
5.31335
0
LINE
8
BLACK
6
CONTINUOUS
10
15.7007
20
5.31335
11
15.761
21
5.45894
0
LINE
8
BLACK
6
CONTINUOUS
10
15.761
20
5.45894
11
15.8486
21
5.58997
0
LINE
8
BLACK
6
CONTINUOUS
10
15.8486
20
5.58997
11
15.96
21
5.7014
0
LINE
8
BLACK
6
CONTINUOUS
10
15.96
20
5.7014
11
16.0911
21
5.78895
0
LINE
8
BLACK
6
CONTINUOUS
10
16.0911
20
5.78895
11
16.2366
21
5.84926
0
LINE
8
BLACK
6
CONTINUOUS
10
16.2366
20
5.84926
11
16.3912
21
5.88
0
LINE
8
BLACK
6
CONTINUOUS
10
16.3912
20
5.88
11
16.5488
21
5.88
0
LINE
8
BLACK
6
CONTINUOUS
10
16.5488
20
5.88
11
16.7034
21
5.84926
0
LINE
8
BLACK
6
CONTINUOUS
10
6.18
20
19.22
11
5.58
21
19.22
0
LINE
8
BLACK
6
CONTINUOUS
10
5.58
20
19.22
11
5.58
21
18.4271
0
LINE
8
BLACK
6
CONTINUOUS
10
5.58
20
18.4271
11
7.35989
21
16.6472
0
LINE
8
BLACK
6
CONTINUOUS
10
7.35989
20
16.6472
11
7.37896
21
16.6316
0
LINE
8
BLACK
6
CONTINUOUS
10
7.37896
20
16.6316
11
7.44145
21
16.5554
0
LINE
8
BLACK
6
CONTINUOUS
10
7.44145
20
16.5554
11
7.48787
21
16.4686
0
LINE
8
BLACK
6
CONTINUOUS
10
7.48787
20
16.4686
11
7.50987
21
16.396
0
LINE
8
BLACK
6
CONTINUOUS
10
7.50987
20
16.396
11
7.51646
21
16.3743
0
LINE
8
BLACK
6
CONTINUOUS
10
7.51646
20
16.3743
11
7.52612
21
16.2763
0
LINE
8
BLACK
6
CONTINUOUS
10
7.52612
20
16.2763
11
7.5237
21
16.2517
0
LINE
8
BLACK
6
CONTINUOUS
10
7.5237
20
16.2517
11
7.5237
21
8.77826
0
LINE
8
BLACK
6
CONTINUOUS
10
7.5237
20
8.77826
11
7.52612
21
8.7537
0
LINE
8
BLACK
6
CONTINUOUS
10
7.52612
20
8.7537
11
7.5237
21
8.72914
0
LINE
8
BLACK
6
CONTINUOUS
10
7.5237
20
8.72914
11
7.5237
21
8.72914
0
LINE
8
BLACK
6
CONTINUOUS
10
7.5237
20
8.72914
11
7.51646
21
8.65568
0
LINE
8
BLACK
6
CONTINUOUS
10
7.51646
20
8.65568
11
7.48787
21
8.56143
0
LINE
8
BLACK
6
CONTINUOUS
10
7.48787
20
8.56143
11
7.44145
21
8.47457
0
LINE
8
BLACK
6
CONTINUOUS
10
7.44145
20
8.47457
11
7.37896
21
8.39844
0
LINE
8
BLACK
6
CONTINUOUS
10
7.37896
20
8.39844
11
7.35989
21
8.38278
0
LINE
8
BLACK
6
CONTINUOUS
10
7.35989
20
8.38278
11
6.07751
21
7.10041
0
LINE
8
BLACK
6
CONTINUOUS
10
6.07751
20
7.10041
11
6.115
21
6.91194
0
LINE
8
BLACK
6
CONTINUOUS
10
6.115
20
6.91194
11
6.115
21
6.70806
0
LINE
8
BLACK
6
CONTINUOUS
10
6.115
20
6.70806
11
6.07523
21
6.5081
0
LINE
8
BLACK
6
CONTINUOUS
10
6.07523
20
6.5081
11
5.99721
21
6.31974
0
LINE
8
BLACK
6
CONTINUOUS
10
5.99721
20
6.31974
11
5.88394
21
6.15023
0
LINE
8
BLACK
6
CONTINUOUS
10
5.88394
20
6.15023
11
5.73977
21
6.00606
0
LINE
8
BLACK
6
CONTINUOUS
10
5.73977
20
6.00606
11
5.57026
21
5.89279
0
LINE
8
BLACK
6
CONTINUOUS
10
5.57026
20
5.89279
11
5.3819
21
5.81477
0
LINE
8
BLACK
6
CONTINUOUS
10
5.3819
20
5.81477
11
5.18194
21
5.775
0
LINE
8
BLACK
6
CONTINUOUS
10
5.18194
20
5.775
11
4.97806
21
5.775
0
LINE
8
BLACK
6
CONTINUOUS
10
4.97806
20
5.775
11
4.7781
21
5.81477
0
LINE
8
BLACK
6
CONTINUOUS
10
4.7781
20
5.81477
11
4.58974
21
5.89279
0
LINE
8
BLACK
6
CONTINUOUS
10
4.58974
20
5.89279
11
4.42023
21
6.00606
0
LINE
8
BLACK
6
CONTINUOUS
10
4.42023
20
6.00606
11
4.27606
21
6.15023
0
LINE
8
BLACK
6
CONTINUOUS
10
4.27606
20
6.15023
11
4.1628
21
6.31974
0
LINE
8
BLACK
6
CONTINUOUS
10
4.1628
20
6.31974
11
4.08477
21
6.5081
0
LINE
8
BLACK
6
CONTINUOUS
10
4.08477
20
6.5081
11
4.045
21
6.70806
0
LINE
8
BLACK
6
CONTINUOUS
10
4.045
20
6.70806
11
4.045
21
6.91194
0
LINE
8
BLACK
6
CONTINUOUS
10
4.045
20
6.91194
11
4.08477
21
7.1119
0
LINE
8
BLACK
6
CONTINUOUS
10
4.08477
20
7.1119
11
4.1628
21
7.30026
0
LINE
8
BLACK
6
CONTINUOUS
10
4.1628
20
7.30026
11
4.27606
21
7.46977
0
LINE
8
BLACK
6
CONTINUOUS
10
4.27606
20
7.46977
11
4.42023
21
7.61394
0
LINE
8
BLACK
6
CONTINUOUS
10
4.42023
20
7.61394
11
4.58974
21
7.7272
0
LINE
8
BLACK
6
CONTINUOUS
10
4.58974
20
7.7272
11
4.7781
21
7.80523
0
LINE
8
BLACK
6
CONTINUOUS
10
4.7781
20
7.80523
11
4.97806
21
7.845
0
LINE
8
BLACK
6
CONTINUOUS
10
4.97806
20
7.845
11
5.18194
21
7.845
0
LINE
8
BLACK
6
CONTINUOUS
10
5.18194
20
7.845
11
5.37041
21
7.80751
0
LINE
8
BLACK
6
CONTINUOUS
10
5.37041
20
7.80751
11
6.5237
21
8.96081
0
LINE
8
BLACK
6
CONTINUOUS
10
6.5237
20
8.96081
11
6.5237
21
16.0692
0
LINE
8
BLACK
6
CONTINUOUS
10
6.5237
20
16.0692
11
4.74382
21
17.8491
0
LINE
8
BLACK
6
CONTINUOUS
10
4.74382
20
17.8491
11
4.72474
21
17.8647
0
LINE
8
BLACK
6
CONTINUOUS
10
4.72474
20
17.8647
11
4.66226
21
17.9409
0
LINE
8
BLACK
6
CONTINUOUS
10
4.66226
20
17.9409
11
4.61583
21
18.0277
0
LINE
8
BLACK
6
CONTINUOUS
10
4.61583
20
18.0277
11
4.58723
21
18.122
0
LINE
8
BLACK
6
CONTINUOUS
10
4.58723
20
18.122
11
4.57758
21
18.22
0
LINE
8
BLACK
6
CONTINUOUS
10
4.57758
20
18.22
11
4.58
21
18.2446
0
LINE
8
BLACK
6
CONTINUOUS
10
4.58
20
18.2446
11
4.58
21
19.22
0
LINE
8
BLACK
6
CONTINUOUS
10
4.58
20
19.22
11
3.98
21
19.22
0
LINE
8
BLACK
6
CONTINUOUS
10
3.98
20
19.22
11
3.98
21
21.42
0
LINE
8
BLACK
6
CONTINUOUS
10
3.98
20
21.42
11
6.18
21
21.42
0
LINE
8
BLACK
6
CONTINUOUS
10
6.18
20
21.42
11
6.18
21
19.22
0
LINE
8
BLACK
6
CONTINUOUS
10
5.3819
20
10.8052
11
5.57026
21
10.7272
0
LINE
8
BLACK
6
CONTINUOUS
10
5.57026
20
10.7272
11
5.73977
21
10.6139
0
LINE
8
BLACK
6
CONTINUOUS
10
5.73977
20
10.6139
11
5.88394
21
10.4698
0
LINE
8
BLACK
6
CONTINUOUS
10
5.88394
20
10.4698
11
5.99721
21
10.3003
0
LINE
8
BLACK
6
CONTINUOUS
10
5.99721
20
10.3003
11
6.07523
21
10.1119
0
LINE
8
BLACK
6
CONTINUOUS
10
6.07523
20
10.1119
11
6.115
21
9.91194
0
LINE
8
BLACK
6
CONTINUOUS
10
6.115
20
9.91194
11
6.115
21
9.70806
0
LINE
8
BLACK
6
CONTINUOUS
10
6.115
20
9.70806
11
6.07523
21
9.5081
0
LINE
8
BLACK
6
CONTINUOUS
10
6.07523
20
9.5081
11
5.99721
21
9.31974
0
LINE
8
BLACK
6
CONTINUOUS
10
5.99721
20
9.31974
11
5.88394
21
9.15023
0
LINE
8
BLACK
6
CONTINUOUS
10
5.88394
20
9.15023
11
5.73977
21
9.00606
0
LINE
8
BLACK
6
CONTINUOUS
10
5.73977
20
9.00606
11
5.57026
21
8.89279
0
LINE
8
BLACK
6
CONTINUOUS
10
5.57026
20
8.89279
11
5.3819
21
8.81477
0
LINE
8
BLACK
6
CONTINUOUS
10
5.3819
20
8.81477
11
5.18194
21
8.775
0
LINE
8
BLACK
6
CONTINUOUS
10
5.18194
20
8.775
11
4.97806
21
8.775
0
LINE
8
BLACK
6
CONTINUOUS
10
4.97806
20
8.775
11
4.7781
21
8.81477
0
LINE
8
BLACK
6
CONTINUOUS
10
4.7781
20
8.81477
11
4.58974
21
8.89279
0
LINE
8
BLACK
6
CONTINUOUS
10
4.58974
20
8.89279
11
4.42023
21
9.00606
0
LINE
8
BLACK
6
CONTINUOUS
10
4.42023
20
9.00606
11
4.27606
21
9.15023
0
LINE
8
BLACK
6
CONTINUOUS
10
4.27606
20
9.15023
11
4.1628
21
9.31974
0
LINE
8
BLACK
6
CONTINUOUS
10
4.1628
20
9.31974
11
4.08477
21
9.5081
0
LINE
8
BLACK
6
CONTINUOUS
10
4.08477
20
9.5081
11
4.045
21
9.70806
0
LINE
8
BLACK
6
CONTINUOUS
10
4.045
20
9.70806
11
4.045
21
9.91194
0
LINE
8
BLACK
6
CONTINUOUS
10
4.045
20
9.91194
11
4.08477
21
10.1119
0
LINE
8
BLACK
6
CONTINUOUS
10
4.08477
20
10.1119
11
4.1628
21
10.3003
0
LINE
8
BLACK
6
CONTINUOUS
10
4.1628
20
10.3003
11
4.27606
21
10.4698
0
LINE
8
BLACK
6
CONTINUOUS
10
4.27606
20
10.4698
11
4.42023
21
10.6139
0
LINE
8
BLACK
6
CONTINUOUS
10
4.42023
20
10.6139
11
4.58974
21
10.7272
0
LINE
8
BLACK
6
CONTINUOUS
10
4.58974
20
10.7272
11
4.7781
21
10.8052
0
LINE
8
BLACK
6
CONTINUOUS
10
4.7781
20
10.8052
11
4.97806
21
10.845
0
LINE
8
BLACK
6
CONTINUOUS
10
4.97806
20
10.845
11
5.18194
21
10.845
0
LINE
8
BLACK
6
CONTINUOUS
10
5.18194
20
10.845
11
5.3819
21
10.8052
0
LINE
8
BLACK
6
CONTINUOUS
10
26.5892
20
35.482
11
26.935
21
35.3388
0
LINE
8
BLACK
6
CONTINUOUS
10
26.935
20
35.3388
11
27.2462
21
35.1308
0
LINE
8
BLACK
6
CONTINUOUS
10
27.2462
20
35.1308
11
27.5108
21
34.8662
0
LINE
8
BLACK
6
CONTINUOUS
10
27.5108
20
34.8662
11
27.7188
21
34.555
0
LINE
8
BLACK
6
CONTINUOUS
10
27.7188
20
34.555
11
27.862
21
34.2092
0
LINE
8
BLACK
6
CONTINUOUS
10
27.862
20
34.2092
11
27.935
21
33.8421
0
LINE
8
BLACK
6
CONTINUOUS
10
27.935
20
33.8421
11
27.935
21
33.4679
0
LINE
8
BLACK
6
CONTINUOUS
10
27.935
20
33.4679
11
27.862
21
33.1008
0
LINE
8
BLACK
6
CONTINUOUS
10
27.862
20
33.1008
11
27.7188
21
32.755
0
LINE
8
BLACK
6
CONTINUOUS
10
27.7188
20
32.755
11
27.5108
21
32.4438
0
LINE
8
BLACK
6
CONTINUOUS
10
27.5108
20
32.4438
11
27.2462
21
32.1792
0
LINE
8
BLACK
6
CONTINUOUS
10
27.2462
20
32.1792
11
26.935
21
31.9712
0
LINE
8
BLACK
6
CONTINUOUS
10
26.935
20
31.9712
11
26.5892
21
31.828
0
LINE
8
BLACK
6
CONTINUOUS
10
26.5892
20
31.828
11
26.2221
21
31.755
0
LINE
8
BLACK
6
CONTINUOUS
10
26.2221
20
31.755
11
25.8479
21
31.755
0
LINE
8
BLACK
6
CONTINUOUS
10
25.8479
20
31.755
11
25.4808
21
31.828
0
LINE
8
BLACK
6
CONTINUOUS
10
25.4808
20
31.828
11
25.135
21
31.9712
0
LINE
8
BLACK
6
CONTINUOUS
10
25.135
20
31.9712
11
25.0891
21
32.002
0
LINE
8
BLACK
6
CONTINUOUS
10
25.0891
20
32.002
11
22.09
21
29.0029
0
LINE
8
BLACK
6
CONTINUOUS
10
22.09
20
29.0029
11
22.09
21
22.39
0
LINE
8
BLACK
6
CONTINUOUS
10
22.09
20
22.39
11
22.39
21
22.39
0
LINE
8
BLACK
6
CONTINUOUS
10
22.39
20
22.39
11
22.39
21
20.79
0
LINE
8
BLACK
6
CONTINUOUS
10
22.39
20
20.79
11
22.09
21
20.79
0
LINE
8
BLACK
6
CONTINUOUS
10
22.09
20
20.79
11
22.09
21
15.82
0
LINE
8
BLACK
6
CONTINUOUS
10
22.09
20
15.82
11
26.0419
21
15.82
0
LINE
8
BLACK
6
CONTINUOUS
10
26.0419
20
15.82
11
26.0486
21
15.83
0
LINE
8
BLACK
6
CONTINUOUS
10
26.0486
20
15.83
11
26.16
21
15.9414
0
LINE
8
BLACK
6
CONTINUOUS
10
26.16
20
15.9414
11
26.2911
21
16.029
0
LINE
8
BLACK
6
CONTINUOUS
10
26.2911
20
16.029
11
26.4366
21
16.0893
0
LINE
8
BLACK
6
CONTINUOUS
10
26.4366
20
16.0893
11
26.5912
21
16.12
0
LINE
8
BLACK
6
CONTINUOUS
10
26.5912
20
16.12
11
26.7488
21
16.12
0
LINE
8
BLACK
6
CONTINUOUS
10
26.7488
20
16.12
11
26.9034
21
16.0893
0
LINE
8
BLACK
6
CONTINUOUS
10
26.9034
20
16.0893
11
27.0489
21
16.029
0
LINE
8
BLACK
6
CONTINUOUS
10
27.0489
20
16.029
11
27.18
21
15.9414
0
LINE
8
BLACK
6
CONTINUOUS
10
27.18
20
15.9414
11
27.2914
21
15.83
0
LINE
8
BLACK
6
CONTINUOUS
10
27.2914
20
15.83
11
27.379
21
15.6989
0
LINE
8
BLACK
6
CONTINUOUS
10
27.379
20
15.6989
11
27.4393
21
15.5534
0
LINE
8
BLACK
6
CONTINUOUS
10
27.4393
20
15.5534
11
27.47
21
15.3988
0
LINE
8
BLACK
6
CONTINUOUS
10
27.47
20
15.3988
11
27.47
21
15.2412
0
LINE
8
BLACK
6
CONTINUOUS
10
27.47
20
15.2412
11
27.4393
21
15.0866
0
LINE
8
BLACK
6
CONTINUOUS
10
27.4393
20
15.0866
11
27.379
21
14.9411
0
LINE
8
BLACK
6
CONTINUOUS
10
27.379
20
14.9411
11
27.2914
21
14.81
0
LINE
8
BLACK
6
CONTINUOUS
10
27.2914
20
14.81
11
27.18
21
14.6986
0
LINE
8
BLACK
6
CONTINUOUS
10
27.18
20
14.6986
11
27.0489
21
14.611
0
LINE
8
BLACK
6
CONTINUOUS
10
27.0489
20
14.611
11
26.9034
21
14.5507
0
LINE
8
BLACK
6
CONTINUOUS
10
26.9034
20
14.5507
11
26.7488
21
14.52
0
LINE
8
BLACK
6
CONTINUOUS
10
26.7488
20
14.52
11
26.5912
21
14.52
0
LINE
8
BLACK
6
CONTINUOUS
10
26.5912
20
14.52
11
26.4366
21
14.5507
0
LINE
8
BLACK
6
CONTINUOUS
10
26.4366
20
14.5507
11
26.2911
21
14.611
0
LINE
8
BLACK
6
CONTINUOUS
10
26.2911
20
14.611
11
26.16
21
14.6986
0
LINE
8
BLACK
6
CONTINUOUS
10
26.16
20
14.6986
11
26.0486
21
14.81
0
LINE
8
BLACK
6
CONTINUOUS
10
26.0486
20
14.81
11
26.0419
21
14.82
0
LINE
8
BLACK
6
CONTINUOUS
10
26.0419
20
14.82
11
21.6146
21
14.82
0
LINE
8
BLACK
6
CONTINUOUS
10
21.6146
20
14.82
11
21.59
21
14.8176
0
LINE
8
BLACK
6
CONTINUOUS
10
21.59
20
14.8176
11
21.5654
21
14.82
0
LINE
8
BLACK
6
CONTINUOUS
10
21.5654
20
14.82
11
21.0371
21
14.82
0
LINE
8
BLACK
6
CONTINUOUS
10
21.0371
20
14.82
11
20.66
21
14.4429
0
LINE
8
BLACK
6
CONTINUOUS
10
20.66
20
14.4429
11
20.66
21
10.8
0
LINE
8
BLACK
6
CONTINUOUS
10
20.66
20
10.8
11
18.66
21
10.8
0
LINE
8
BLACK
6
CONTINUOUS
10
18.66
20
10.8
11
18.66
21
13.65
0
LINE
8
BLACK
6
CONTINUOUS
10
18.66
20
13.65
11
17.0171
21
13.65
0
LINE
8
BLACK
6
CONTINUOUS
10
17.0171
20
13.65
11
15.7309
21
12.3638
0
LINE
8
BLACK
6
CONTINUOUS
10
15.7309
20
12.3638
11
15.7153
21
12.3447
0
LINE
8
BLACK
6
CONTINUOUS
10
15.7153
20
12.3447
11
15.6391
21
12.2823
0
LINE
8
BLACK
6
CONTINUOUS
10
15.6391
20
12.2823
11
15.5523
21
12.2358
0
LINE
8
BLACK
6
CONTINUOUS
10
15.5523
20
12.2358
11
15.458
21
12.2072
0
LINE
8
BLACK
6
CONTINUOUS
10
15.458
20
12.2072
11
15.3846
21
12.2
0
LINE
8
BLACK
6
CONTINUOUS
10
15.3846
20
12.2
11
15.36
21
12.1976
0
LINE
8
BLACK
6
CONTINUOUS
10
15.36
20
12.1976
11
15.3354
21
12.2
0
LINE
8
BLACK
6
CONTINUOUS
10
15.3354
20
12.2
11
14.36
21
12.2
0
LINE
8
BLACK
6
CONTINUOUS
10
14.36
20
12.2
11
14.36
21
11.95
0
LINE
8
BLACK
6
CONTINUOUS
10
14.36
20
11.95
11
12.36
21
11.95
0
LINE
8
BLACK
6
CONTINUOUS
10
12.36
20
11.95
11
12.36
21
13.45
0
LINE
8
BLACK
6
CONTINUOUS
10
12.36
20
13.45
11
14.36
21
13.45
0
LINE
8
BLACK
6
CONTINUOUS
10
14.36
20
13.45
11
14.36
21
13.2
0
LINE
8
BLACK
6
CONTINUOUS
10
14.36
20
13.2
11
15.1529
21
13.2
0
LINE
8
BLACK
6
CONTINUOUS
10
15.1529
20
13.2
11
16.4391
21
14.4862
0
LINE
8
BLACK
6
CONTINUOUS
10
16.4391
20
14.4862
11
16.4547
21
14.5053
0
LINE
8
BLACK
6
CONTINUOUS
10
16.4547
20
14.5053
11
16.5309
21
14.5677
0
LINE
8
BLACK
6
CONTINUOUS
10
16.5309
20
14.5677
11
16.6177
21
14.6142
0
LINE
8
BLACK
6
CONTINUOUS
10
16.6177
20
14.6142
11
16.712
21
14.6428
0
LINE
8
BLACK
6
CONTINUOUS
10
16.712
20
14.6428
11
16.7854
21
14.65
0
LINE
8
BLACK
6
CONTINUOUS
10
16.7854
20
14.65
11
16.81
21
14.6524
0
LINE
8
BLACK
6
CONTINUOUS
10
16.81
20
14.6524
11
16.8346
21
14.65
0
LINE
8
BLACK
6
CONTINUOUS
10
16.8346
20
14.65
11
19.4529
21
14.65
0
LINE
8
BLACK
6
CONTINUOUS
10
19.4529
20
14.65
11
20.4591
21
15.6562
0
LINE
8
BLACK
6
CONTINUOUS
10
20.4591
20
15.6562
11
20.4747
21
15.6753
0
LINE
8
BLACK
6
CONTINUOUS
10
20.4747
20
15.6753
11
20.5509
21
15.7377
0
LINE
8
BLACK
6
CONTINUOUS
10
20.5509
20
15.7377
11
20.6377
21
15.7842
0
LINE
8
BLACK
6
CONTINUOUS
10
20.6377
20
15.7842
11
20.732
21
15.8128
0
LINE
8
BLACK
6
CONTINUOUS
10
20.732
20
15.8128
11
20.8054
21
15.82
0
LINE
8
BLACK
6
CONTINUOUS
10
20.8054
20
15.82
11
20.83
21
15.8224
0
LINE
8
BLACK
6
CONTINUOUS
10
20.83
20
15.8224
11
20.8546
21
15.82
0
LINE
8
BLACK
6
CONTINUOUS
10
20.8546
20
15.82
11
21.09
21
15.82
0
LINE
8
BLACK
6
CONTINUOUS
10
21.09
20
15.82
11
21.09
21
20.79
0
LINE
8
BLACK
6
CONTINUOUS
10
21.09
20
20.79
11
20.79
21
20.79
0
LINE
8
BLACK
6
CONTINUOUS
10
20.79
20
20.79
11
20.79
21
22.39
0
LINE
8
BLACK
6
CONTINUOUS
10
20.79
20
22.39
11
21.09
21
22.39
0
LINE
8
BLACK
6
CONTINUOUS
10
21.09
20
22.39
11
21.09
21
29.1854
0
LINE
8
BLACK
6
CONTINUOUS
10
21.09
20
29.1854
11
21.0876
21
29.21
0
LINE
8
BLACK
6
CONTINUOUS
10
21.0876
20
29.21
11
21.0972
21
29.308
0
LINE
8
BLACK
6
CONTINUOUS
10
21.0972
20
29.308
11
21.1077
21
29.3426
0
LINE
8
BLACK
6
CONTINUOUS
10
21.1077
20
29.3426
11
21.1258
21
29.4023
0
LINE
8
BLACK
6
CONTINUOUS
10
21.1258
20
29.4023
11
21.1723
21
29.4891
0
LINE
8
BLACK
6
CONTINUOUS
10
21.1723
20
29.4891
11
21.2347
21
29.5653
0
LINE
8
BLACK
6
CONTINUOUS
10
21.2347
20
29.5653
11
21.2538
21
29.5809
0
LINE
8
BLACK
6
CONTINUOUS
10
21.2538
20
29.5809
11
24.3819
21
32.7091
0
LINE
8
BLACK
6
CONTINUOUS
10
24.3819
20
32.7091
11
24.3512
21
32.755
0
LINE
8
BLACK
6
CONTINUOUS
10
24.3512
20
32.755
11
24.208
21
33.1008
0
LINE
8
BLACK
6
CONTINUOUS
10
24.208
20
33.1008
11
24.135
21
33.4679
0
LINE
8
BLACK
6
CONTINUOUS
10
24.135
20
33.4679
11
24.135
21
33.8421
0
LINE
8
BLACK
6
CONTINUOUS
10
24.135
20
33.8421
11
24.208
21
34.2092
0
LINE
8
BLACK
6
CONTINUOUS
10
24.208
20
34.2092
11
24.3512
21
34.555
0
LINE
8
BLACK
6
CONTINUOUS
10
24.3512
20
34.555
11
24.5592
21
34.8662
0
LINE
8
BLACK
6
CONTINUOUS
10
24.5592
20
34.8662
11
24.8238
21
35.1308
0
LINE
8
BLACK
6
CONTINUOUS
10
24.8238
20
35.1308
11
25.135
21
35.3388
0
LINE
8
BLACK
6
CONTINUOUS
10
25.135
20
35.3388
11
25.4808
21
35.482
0
LINE
8
BLACK
6
CONTINUOUS
10
25.4808
20
35.482
11
25.8479
21
35.555
0
LINE
8
BLACK
6
CONTINUOUS
10
25.8479
20
35.555
11
26.2221
21
35.555
0
LINE
8
BLACK
6
CONTINUOUS
10
26.2221
20
35.555
11
26.5892
21
35.482
0
LINE
8
BLACK
6
CONTINUOUS
10
19.3234
20
22.3593
11
19.4689
21
22.299
0
LINE
8
BLACK
6
CONTINUOUS
10
19.4689
20
22.299
11
19.6
21
22.2114
0
LINE
8
BLACK
6
CONTINUOUS
10
19.6
20
22.2114
11
19.7114
21
22.1
0
LINE
8
BLACK
6
CONTINUOUS
10
19.7114
20
22.1
11
19.799
21
21.9689
0
LINE
8
BLACK
6
CONTINUOUS
10
19.799
20
21.9689
11
19.8593
21
21.8234
0
LINE
8
BLACK
6
CONTINUOUS
10
19.8593
20
21.8234
11
19.89
21
21.6688
0
LINE
8
BLACK
6
CONTINUOUS
10
19.89
20
21.6688
11
19.89
21
21.5112
0
LINE
8
BLACK
6
CONTINUOUS
10
19.89
20
21.5112
11
19.8593
21
21.3566
0
LINE
8
BLACK
6
CONTINUOUS
10
19.8593
20
21.3566
11
19.799
21
21.2111
0
LINE
8
BLACK
6
CONTINUOUS
10
19.799
20
21.2111
11
19.7114
21
21.08
0
LINE
8
BLACK
6
CONTINUOUS
10
19.7114
20
21.08
11
19.6
21
20.9686
0
LINE
8
BLACK
6
CONTINUOUS
10
19.6
20
20.9686
11
19.4689
21
20.881
0
LINE
8
BLACK
6
CONTINUOUS
10
19.4689
20
20.881
11
19.3694
21
20.8398
0
LINE
8
BLACK
6
CONTINUOUS
10
19.3694
20
20.8398
11
14.9434
21
16.4138
0
LINE
8
BLACK
6
CONTINUOUS
10
14.9434
20
16.4138
11
14.9278
21
16.3947
0
LINE
8
BLACK
6
CONTINUOUS
10
14.9278
20
16.3947
11
14.8516
21
16.3323
0
LINE
8
BLACK
6
CONTINUOUS
10
14.8516
20
16.3323
11
14.7648
21
16.2858
0
LINE
8
BLACK
6
CONTINUOUS
10
14.7648
20
16.2858
11
14.6705
21
16.2572
0
LINE
8
BLACK
6
CONTINUOUS
10
14.6705
20
16.2572
11
14.5971
21
16.25
0
LINE
8
BLACK
6
CONTINUOUS
10
14.5971
20
16.25
11
14.5725
21
16.2476
0
LINE
8
BLACK
6
CONTINUOUS
10
14.5725
20
16.2476
11
14.5479
21
16.25
0
LINE
8
BLACK
6
CONTINUOUS
10
14.5479
20
16.25
11
13.86
21
16.25
0
LINE
8
BLACK
6
CONTINUOUS
10
13.86
20
16.25
11
13.86
21
15.75
0
LINE
8
BLACK
6
CONTINUOUS
10
13.86
20
15.75
11
14.36
21
15.75
0
LINE
8
BLACK
6
CONTINUOUS
10
14.36
20
15.75
11
14.36
21
14.25
0
LINE
8
BLACK
6
CONTINUOUS
10
14.36
20
14.25
11
12.36
21
14.25
0
LINE
8
BLACK
6
CONTINUOUS
10
12.36
20
14.25
11
12.36
21
15.75
0
LINE
8
BLACK
6
CONTINUOUS
10
12.36
20
15.75
11
12.86
21
15.75
0
LINE
8
BLACK
6
CONTINUOUS
10
12.86
20
15.75
11
12.86
21
16.7254
0
LINE
8
BLACK
6
CONTINUOUS
10
12.86
20
16.7254
11
12.8576
21
16.75
0
LINE
8
BLACK
6
CONTINUOUS
10
12.8576
20
16.75
11
12.8672
21
16.848
0
LINE
8
BLACK
6
CONTINUOUS
10
12.8672
20
16.848
11
12.8958
21
16.9423
0
LINE
8
BLACK
6
CONTINUOUS
10
12.8958
20
16.9423
11
12.9423
21
17.0291
0
LINE
8
BLACK
6
CONTINUOUS
10
12.9423
20
17.0291
11
13.0047
21
17.1053
0
LINE
8
BLACK
6
CONTINUOUS
10
13.0047
20
17.1053
11
13.0809
21
17.1677
0
LINE
8
BLACK
6
CONTINUOUS
10
13.0809
20
17.1677
11
13.1677
21
17.2142
0
LINE
8
BLACK
6
CONTINUOUS
10
13.1677
20
17.2142
11
13.262
21
17.2428
0
LINE
8
BLACK
6
CONTINUOUS
10
13.262
20
17.2428
11
13.3354
21
17.25
0
LINE
8
BLACK
6
CONTINUOUS
10
13.3354
20
17.25
11
13.36
21
17.2524
0
LINE
8
BLACK
6
CONTINUOUS
10
13.36
20
17.2524
11
13.3846
21
17.25
0
LINE
8
BLACK
6
CONTINUOUS
10
13.3846
20
17.25
11
14.3654
21
17.25
0
LINE
8
BLACK
6
CONTINUOUS
10
14.3654
20
17.25
11
18.3651
21
21.2497
0
LINE
8
BLACK
6
CONTINUOUS
10
18.3651
20
21.2497
11
18.3207
21
21.3566
0
LINE
8
BLACK
6
CONTINUOUS
10
18.3207
20
21.3566
11
18.29
21
21.5112
0
LINE
8
BLACK
6
CONTINUOUS
10
18.29
20
21.5112
11
18.29
21
21.6688
0
LINE
8
BLACK
6
CONTINUOUS
10
18.29
20
21.6688
11
18.3207
21
21.8234
0
LINE
8
BLACK
6
CONTINUOUS
10
18.3207
20
21.8234
11
18.381
21
21.9689
0
LINE
8
BLACK
6
CONTINUOUS
10
18.381
20
21.9689
11
18.4686
21
22.1
0
LINE
8
BLACK
6
CONTINUOUS
10
18.4686
20
22.1
11
18.58
21
22.2114
0
LINE
8
BLACK
6
CONTINUOUS
10
18.58
20
22.2114
11
18.7111
21
22.299
0
LINE
8
BLACK
6
CONTINUOUS
10
18.7111
20
22.299
11
18.8566
21
22.3593
0
LINE
8
BLACK
6
CONTINUOUS
10
18.8566
20
22.3593
11
19.0112
21
22.39
0
LINE
8
BLACK
6
CONTINUOUS
10
19.0112
20
22.39
11
19.1688
21
22.39
0
LINE
8
BLACK
6
CONTINUOUS
10
19.1688
20
22.39
11
19.3234
21
22.3593
0
LINE
8
BLACK
6
CONTINUOUS
10
3.49586
20
16.9327
11
3.69604
21
16.8498
0
LINE
8
BLACK
6
CONTINUOUS
10
3.69604
20
16.8498
11
3.87621
21
16.7294
0
LINE
8
BLACK
6
CONTINUOUS
10
3.87621
20
16.7294
11
4.02942
21
16.5762
0
LINE
8
BLACK
6
CONTINUOUS
10
4.02942
20
16.5762
11
4.14981
21
16.396
0
LINE
8
BLACK
6
CONTINUOUS
10
4.14981
20
16.396
11
4.23273
21
16.1959
0
LINE
8
BLACK
6
CONTINUOUS
10
4.23273
20
16.1959
11
4.275
21
15.9833
0
LINE
8
BLACK
6
CONTINUOUS
10
4.275
20
15.9833
11
4.275
21
15.7667
0
LINE
8
BLACK
6
CONTINUOUS
10
4.275
20
15.7667
11
4.23273
21
15.5541
0
LINE
8
BLACK
6
CONTINUOUS
10
4.23273
20
15.5541
11
4.14981
21
15.354
0
LINE
8
BLACK
6
CONTINUOUS
10
4.14981
20
15.354
11
4.02942
21
15.1738
0
LINE
8
BLACK
6
CONTINUOUS
10
4.02942
20
15.1738
11
3.87621
21
15.0206
0
LINE
8
BLACK
6
CONTINUOUS
10
3.87621
20
15.0206
11
3.69604
21
14.9002
0
LINE
8
BLACK
6
CONTINUOUS
10
3.69604
20
14.9002
11
3.49586
21
14.8173
0
LINE
8
BLACK
6
CONTINUOUS
10
3.49586
20
14.8173
11
3.28334
21
14.775
0
LINE
8
BLACK
6
CONTINUOUS
10
3.28334
20
14.775
11
3.06666
21
14.775
0
LINE
8
BLACK
6
CONTINUOUS
10
3.06666
20
14.775
11
2.85414
21
14.8173
0
LINE
8
BLACK
6
CONTINUOUS
10
2.85414
20
14.8173
11
2.65395
21
14.9002
0
LINE
8
BLACK
6
CONTINUOUS
10
2.65395
20
14.9002
11
2.47379
21
15.0206
0
LINE
8
BLACK
6
CONTINUOUS
10
2.47379
20
15.0206
11
2.32057
21
15.1738
0
LINE
8
BLACK
6
CONTINUOUS
10
2.32057
20
15.1738
11
2.20019
21
15.354
0
LINE
8
BLACK
6
CONTINUOUS
10
2.20019
20
15.354
11
2.11727
21
15.5541
0
LINE
8
BLACK
6
CONTINUOUS
10
2.11727
20
15.5541
11
2.075
21
15.7667
0
LINE
8
BLACK
6
CONTINUOUS
10
2.075
20
15.7667
11
2.075
21
15.9833
0
LINE
8
BLACK
6
CONTINUOUS
10
2.075
20
15.9833
11
2.11727
21
16.1959
0
LINE
8
BLACK
6
CONTINUOUS
10
2.11727
20
16.1959
11
2.20019
21
16.396
0
LINE
8
BLACK
6
CONTINUOUS
10
2.20019
20
16.396
11
2.32057
21
16.5762
0
LINE
8
BLACK
6
CONTINUOUS
10
2.32057
20
16.5762
11
2.47379
21
16.7294
0
LINE
8
BLACK
6
CONTINUOUS
10
2.47379
20
16.7294
11
2.65395
21
16.8498
0
LINE
8
BLACK
6
CONTINUOUS
10
2.65395
20
16.8498
11
2.85414
21
16.9327
0
LINE
8
BLACK
6
CONTINUOUS
10
2.85414
20
16.9327
11
3.06666
21
16.975
0
LINE
8
BLACK
6
CONTINUOUS
10
3.06666
20
16.975
11
3.28334
21
16.975
0
LINE
8
BLACK
6
CONTINUOUS
10
3.28334
20
16.975
11
3.49586
21
16.9327
0
LINE
8
BLACK
6
CONTINUOUS
10
14.854
20
33.0016
11
15.0934
21
32.929
0
LINE
8
BLACK
6
CONTINUOUS
10
15.0934
20
32.929
11
15.314
21
32.8111
0
LINE
8
BLACK
6
CONTINUOUS
10
15.314
20
32.8111
11
15.5074
21
32.6524
0
LINE
8
BLACK
6
CONTINUOUS
10
15.5074
20
32.6524
11
15.6661
21
32.459
0
LINE
8
BLACK
6
CONTINUOUS
10
15.6661
20
32.459
11
15.784
21
32.2384
0
LINE
8
BLACK
6
CONTINUOUS
10
15.784
20
32.2384
11
15.8566
21
31.999
0
LINE
8
BLACK
6
CONTINUOUS
10
15.8566
20
31.999
11
15.875
21
31.8124
0
LINE
8
BLACK
6
CONTINUOUS
10
15.875
20
31.8124
11
15.875
21
29.1476
0
LINE
8
BLACK
6
CONTINUOUS
10
15.875
20
29.1476
11
15.8566
21
28.961
0
LINE
8
BLACK
6
CONTINUOUS
10
15.8566
20
28.961
11
15.784
21
28.7216
0
LINE
8
BLACK
6
CONTINUOUS
10
15.784
20
28.7216
11
15.74
21
28.6393
0
LINE
8
BLACK
6
CONTINUOUS
10
15.74
20
28.6393
11
15.74
21
21.3035
0
LINE
8
BLACK
6
CONTINUOUS
10
15.74
20
21.3035
11
15.761
21
21.2948
0
LINE
8
BLACK
6
CONTINUOUS
10
15.761
20
21.2948
11
15.9412
21
21.1744
0
LINE
8
BLACK
6
CONTINUOUS
10
15.9412
20
21.1744
11
16.0944
21
21.0212
0
LINE
8
BLACK
6
CONTINUOUS
10
16.0944
20
21.0212
11
16.2148
21
20.841
0
LINE
8
BLACK
6
CONTINUOUS
10
16.2148
20
20.841
11
16.2977
21
20.6409
0
LINE
8
BLACK
6
CONTINUOUS
10
16.2977
20
20.6409
11
16.34
21
20.4283
0
LINE
8
BLACK
6
CONTINUOUS
10
16.34
20
20.4283
11
16.34
21
20.2117
0
LINE
8
BLACK
6
CONTINUOUS
10
16.34
20
20.2117
11
16.2977
21
19.9991
0
LINE
8
BLACK
6
CONTINUOUS
10
16.2977
20
19.9991
11
16.2148
21
19.799
0
LINE
8
BLACK
6
CONTINUOUS
10
16.2148
20
19.799
11
16.0944
21
19.6188
0
LINE
8
BLACK
6
CONTINUOUS
10
16.0944
20
19.6188
11
15.9412
21
19.4656
0
LINE
8
BLACK
6
CONTINUOUS
10
15.9412
20
19.4656
11
15.761
21
19.3452
0
LINE
8
BLACK
6
CONTINUOUS
10
15.761
20
19.3452
11
15.5609
21
19.2623
0
LINE
8
BLACK
6
CONTINUOUS
10
15.5609
20
19.2623
11
15.3483
21
19.22
0
LINE
8
BLACK
6
CONTINUOUS
10
15.3483
20
19.22
11
15.1317
21
19.22
0
LINE
8
BLACK
6
CONTINUOUS
10
15.1317
20
19.22
11
14.9191
21
19.2623
0
LINE
8
BLACK
6
CONTINUOUS
10
14.9191
20
19.2623
11
14.719
21
19.3452
0
LINE
8
BLACK
6
CONTINUOUS
10
14.719
20
19.3452
11
14.5388
21
19.4656
0
LINE
8
BLACK
6
CONTINUOUS
10
14.5388
20
19.4656
11
14.3856
21
19.6188
0
LINE
8
BLACK
6
CONTINUOUS
10
14.3856
20
19.6188
11
14.2652
21
19.799
0
LINE
8
BLACK
6
CONTINUOUS
10
14.2652
20
19.799
11
14.1823
21
19.9991
0
LINE
8
BLACK
6
CONTINUOUS
10
14.1823
20
19.9991
11
14.14
21
20.2117
0
LINE
8
BLACK
6
CONTINUOUS
10
14.14
20
20.2117
11
14.14
21
20.4283
0
LINE
8
BLACK
6
CONTINUOUS
10
14.14
20
20.4283
11
14.1823
21
20.6409
0
LINE
8
BLACK
6
CONTINUOUS
10
14.1823
20
20.6409
11
14.2652
21
20.841
0
LINE
8
BLACK
6
CONTINUOUS
10
14.2652
20
20.841
11
14.3856
21
21.0212
0
LINE
8
BLACK
6
CONTINUOUS
10
14.3856
20
21.0212
11
14.5388
21
21.1744
0
LINE
8
BLACK
6
CONTINUOUS
10
14.5388
20
21.1744
11
14.719
21
21.2948
0
LINE
8
BLACK
6
CONTINUOUS
10
14.719
20
21.2948
11
14.74
21
21.3035
0
LINE
8
BLACK
6
CONTINUOUS
10
14.74
20
21.3035
11
14.74
21
27.9472
0
LINE
8
BLACK
6
CONTINUOUS
10
14.74
20
27.9472
11
14.605
21
27.9339
0
LINE
8
BLACK
6
CONTINUOUS
10
14.605
20
27.9339
11
14.356
21
27.9584
0
LINE
8
BLACK
6
CONTINUOUS
10
14.356
20
27.9584
11
14.1166
21
28.031
0
LINE
8
BLACK
6
CONTINUOUS
10
14.1166
20
28.031
11
13.896
21
28.1489
0
LINE
8
BLACK
6
CONTINUOUS
10
13.896
20
28.1489
11
13.7026
21
28.3076
0
LINE
8
BLACK
6
CONTINUOUS
10
13.7026
20
28.3076
11
13.5439
21
28.501
0
LINE
8
BLACK
6
CONTINUOUS
10
13.5439
20
28.501
11
13.426
21
28.7216
0
LINE
8
BLACK
6
CONTINUOUS
10
13.426
20
28.7216
11
13.3534
21
28.961
0
LINE
8
BLACK
6
CONTINUOUS
10
13.3534
20
28.961
11
13.335
21
29.1476
0
LINE
8
BLACK
6
CONTINUOUS
10
13.335
20
29.1476
11
13.335
21
31.8124
0
LINE
8
BLACK
6
CONTINUOUS
10
13.335
20
31.8124
11
13.3534
21
31.999
0
LINE
8
BLACK
6
CONTINUOUS
10
13.3534
20
31.999
11
13.426
21
32.2384
0
LINE
8
BLACK
6
CONTINUOUS
10
13.426
20
32.2384
11
13.5439
21
32.459
0
LINE
8
BLACK
6
CONTINUOUS
10
13.5439
20
32.459
11
13.7026
21
32.6524
0
LINE
8
BLACK
6
CONTINUOUS
10
13.7026
20
32.6524
11
13.896
21
32.8111
0
LINE
8
BLACK
6
CONTINUOUS
10
13.896
20
32.8111
11
14.1166
21
32.929
0
LINE
8
BLACK
6
CONTINUOUS
10
14.1166
20
32.929
11
14.356
21
33.0016
0
LINE
8
BLACK
6
CONTINUOUS
10
14.356
20
33.0016
11
14.605
21
33.0261
0
LINE
8
BLACK
6
CONTINUOUS
10
14.605
20
33.0261
11
14.854
21
33.0016
0
LINE
8
BLACK
6
CONTINUOUS
10
26.9034
20
21.0893
11
27.0489
21
21.029
0
LINE
8
BLACK
6
CONTINUOUS
10
27.0489
20
21.029
11
27.18
21
20.9414
0
LINE
8
BLACK
6
CONTINUOUS
10
27.18
20
20.9414
11
27.2914
21
20.83
0
LINE
8
BLACK
6
CONTINUOUS
10
27.2914
20
20.83
11
27.379
21
20.6989
0
LINE
8
BLACK
6
CONTINUOUS
10
27.379
20
20.6989
11
27.4393
21
20.5534
0
LINE
8
BLACK
6
CONTINUOUS
10
27.4393
20
20.5534
11
27.47
21
20.3988
0
LINE
8
BLACK
6
CONTINUOUS
10
27.47
20
20.3988
11
27.47
21
20.2412
0
LINE
8
BLACK
6
CONTINUOUS
10
27.47
20
20.2412
11
27.4393
21
20.0866
0
LINE
8
BLACK
6
CONTINUOUS
10
27.4393
20
20.0866
11
27.379
21
19.9411
0
LINE
8
BLACK
6
CONTINUOUS
10
27.379
20
19.9411
11
27.2914
21
19.81
0
LINE
8
BLACK
6
CONTINUOUS
10
27.2914
20
19.81
11
27.18
21
19.6986
0
LINE
8
BLACK
6
CONTINUOUS
10
27.18
20
19.6986
11
27.0489
21
19.611
0
LINE
8
BLACK
6
CONTINUOUS
10
27.0489
20
19.611
11
26.9034
21
19.5507
0
LINE
8
BLACK
6
CONTINUOUS
10
26.9034
20
19.5507
11
26.7488
21
19.52
0
LINE
8
BLACK
6
CONTINUOUS
10
26.7488
20
19.52
11
26.5912
21
19.52
0
LINE
8
BLACK
6
CONTINUOUS
10
26.5912
20
19.52
11
26.4366
21
19.5507
0
LINE
8
BLACK
6
CONTINUOUS
10
26.4366
20
19.5507
11
26.2911
21
19.611
0
LINE
8
BLACK
6
CONTINUOUS
10
26.2911
20
19.611
11
26.16
21
19.6986
0
LINE
8
BLACK
6
CONTINUOUS
10
26.16
20
19.6986
11
26.0486
21
19.81
0
LINE
8
BLACK
6
CONTINUOUS
10
26.0486
20
19.81
11
25.961
21
19.9411
0
LINE
8
BLACK
6
CONTINUOUS
10
25.961
20
19.9411
11
25.9007
21
20.0866
0
LINE
8
BLACK
6
CONTINUOUS
10
25.9007
20
20.0866
11
25.87
21
20.2412
0
LINE
8
BLACK
6
CONTINUOUS
10
25.87
20
20.2412
11
25.87
21
20.3988
0
LINE
8
BLACK
6
CONTINUOUS
10
25.87
20
20.3988
11
25.9007
21
20.5534
0
LINE
8
BLACK
6
CONTINUOUS
10
25.9007
20
20.5534
11
25.961
21
20.6989
0
LINE
8
BLACK
6
CONTINUOUS
10
25.961
20
20.6989
11
26.0486
21
20.83
0
LINE
8
BLACK
6
CONTINUOUS
10
26.0486
20
20.83
11
26.16
21
20.9414
0
LINE
8
BLACK
6
CONTINUOUS
10
26.16
20
20.9414
11
26.2911
21
21.029
0
LINE
8
BLACK
6
CONTINUOUS
10
26.2911
20
21.029
11
26.4366
21
21.0893
0
LINE
8
BLACK
6
CONTINUOUS
10
26.4366
20
21.0893
11
26.5912
21
21.12
0
LINE
8
BLACK
6
CONTINUOUS
10
26.5912
20
21.12
11
26.7488
21
21.12
0
LINE
8
BLACK
6
CONTINUOUS
10
26.7488
20
21.12
11
26.9034
21
21.0893
0
LINE
8
BLACK
6
CONTINUOUS
10
8.85396
20
33.0016
11
9.09336
21
32.929
0
LINE
8
BLACK
6
CONTINUOUS
10
9.09336
20
32.929
11
9.31399
21
32.8111
0
LINE
8
BLACK
6
CONTINUOUS
10
9.31399
20
32.8111
11
9.50737
21
32.6524
0
LINE
8
BLACK
6
CONTINUOUS
10
9.50737
20
32.6524
11
9.66607
21
32.459
0
LINE
8
BLACK
6
CONTINUOUS
10
9.66607
20
32.459
11
9.784
21
32.2384
0
LINE
8
BLACK
6
CONTINUOUS
10
9.784
20
32.2384
11
9.85662
21
31.999
0
LINE
8
BLACK
6
CONTINUOUS
10
9.85662
20
31.999
11
9.875
21
31.8124
0
LINE
8
BLACK
6
CONTINUOUS
10
9.875
20
31.8124
11
9.875
21
30.98
0
LINE
8
BLACK
6
CONTINUOUS
10
9.875
20
30.98
11
10.8504
21
30.98
0
LINE
8
BLACK
6
CONTINUOUS
10
10.8504
20
30.98
11
10.875
21
30.9824
0
LINE
8
BLACK
6
CONTINUOUS
10
10.875
20
30.9824
11
10.8996
21
30.98
0
LINE
8
BLACK
6
CONTINUOUS
10
10.8996
20
30.98
11
10.973
21
30.9728
0
LINE
8
BLACK
6
CONTINUOUS
10
10.973
20
30.9728
11
11.0673
21
30.9442
0
LINE
8
BLACK
6
CONTINUOUS
10
11.0673
20
30.9442
11
11.1541
21
30.8977
0
LINE
8
BLACK
6
CONTINUOUS
10
11.1541
20
30.8977
11
11.2303
21
30.8353
0
LINE
8
BLACK
6
CONTINUOUS
10
11.2303
20
30.8353
11
11.2927
21
30.7591
0
LINE
8
BLACK
6
CONTINUOUS
10
11.2927
20
30.7591
11
11.3392
21
30.6723
0
LINE
8
BLACK
6
CONTINUOUS
10
11.3392
20
30.6723
11
11.3678
21
30.578
0
LINE
8
BLACK
6
CONTINUOUS
10
11.3678
20
30.578
11
11.3774
21
30.48
0
LINE
8
BLACK
6
CONTINUOUS
10
11.3774
20
30.48
11
11.375
21
30.4554
0
LINE
8
BLACK
6
CONTINUOUS
10
11.375
20
30.4554
11
11.375
21
28.8371
0
LINE
8
BLACK
6
CONTINUOUS
10
11.375
20
28.8371
11
11.9912
21
28.2209
0
LINE
8
BLACK
6
CONTINUOUS
10
11.9912
20
28.2209
11
12.0103
21
28.2053
0
LINE
8
BLACK
6
CONTINUOUS
10
12.0103
20
28.2053
11
12.0727
21
28.1291
0
LINE
8
BLACK
6
CONTINUOUS
10
12.0727
20
28.1291
11
12.1192
21
28.0423
0
LINE
8
BLACK
6
CONTINUOUS
10
12.1192
20
28.0423
11
12.1446
21
27.9584
0
LINE
8
BLACK
6
CONTINUOUS
10
12.1446
20
27.9584
11
12.1478
21
27.948
0
LINE
8
BLACK
6
CONTINUOUS
10
12.1478
20
27.948
11
12.1574
21
27.85
0
LINE
8
BLACK
6
CONTINUOUS
10
12.1574
20
27.85
11
12.155
21
27.8254
0
LINE
8
BLACK
6
CONTINUOUS
10
12.155
20
27.8254
11
12.155
21
26.85
0
LINE
8
BLACK
6
CONTINUOUS
10
12.155
20
26.85
11
12.9874
21
26.85
0
LINE
8
BLACK
6
CONTINUOUS
10
12.9874
20
26.85
11
13.174
21
26.8316
0
LINE
8
BLACK
6
CONTINUOUS
10
13.174
20
26.8316
11
13.4134
21
26.759
0
LINE
8
BLACK
6
CONTINUOUS
10
13.4134
20
26.759
11
13.634
21
26.6411
0
LINE
8
BLACK
6
CONTINUOUS
10
13.634
20
26.6411
11
13.8274
21
26.4824
0
LINE
8
BLACK
6
CONTINUOUS
10
13.8274
20
26.4824
11
13.9861
21
26.289
0
LINE
8
BLACK
6
CONTINUOUS
10
13.9861
20
26.289
11
14.104
21
26.0684
0
LINE
8
BLACK
6
CONTINUOUS
10
14.104
20
26.0684
11
14.1766
21
25.829
0
LINE
8
BLACK
6
CONTINUOUS
10
14.1766
20
25.829
11
14.2011
21
25.58
0
LINE
8
BLACK
6
CONTINUOUS
10
14.2011
20
25.58
11
14.1766
21
25.331
0
LINE
8
BLACK
6
CONTINUOUS
10
14.1766
20
25.331
11
14.104
21
25.0916
0
LINE
8
BLACK
6
CONTINUOUS
10
14.104
20
25.0916
11
13.9861
21
24.871
0
LINE
8
BLACK
6
CONTINUOUS
10
13.9861
20
24.871
11
13.8274
21
24.6776
0
LINE
8
BLACK
6
CONTINUOUS
10
13.8274
20
24.6776
11
13.634
21
24.5189
0
LINE
8
BLACK
6
CONTINUOUS
10
13.634
20
24.5189
11
13.4134
21
24.401
0
LINE
8
BLACK
6
CONTINUOUS
10
13.4134
20
24.401
11
13.174
21
24.3284
0
LINE
8
BLACK
6
CONTINUOUS
10
13.174
20
24.3284
11
12.9874
21
24.31
0
LINE
8
BLACK
6
CONTINUOUS
10
12.9874
20
24.31
11
10.3226
21
24.31
0
LINE
8
BLACK
6
CONTINUOUS
10
10.3226
20
24.31
11
10.136
21
24.3284
0
LINE
8
BLACK
6
CONTINUOUS
10
10.136
20
24.3284
11
9.89664
21
24.401
0
LINE
8
BLACK
6
CONTINUOUS
10
9.89664
20
24.401
11
9.67601
21
24.5189
0
LINE
8
BLACK
6
CONTINUOUS
10
9.67601
20
24.5189
11
9.48263
21
24.6776
0
LINE
8
BLACK
6
CONTINUOUS
10
9.48263
20
24.6776
11
9.32392
21
24.871
0
LINE
8
BLACK
6
CONTINUOUS
10
9.32392
20
24.871
11
9.206
21
25.0916
0
LINE
8
BLACK
6
CONTINUOUS
10
9.206
20
25.0916
11
9.13338
21
25.331
0
LINE
8
BLACK
6
CONTINUOUS
10
9.13338
20
25.331
11
9.10886
21
25.58
0
LINE
8
BLACK
6
CONTINUOUS
10
9.10886
20
25.58
11
9.13338
21
25.829
0
LINE
8
BLACK
6
CONTINUOUS
10
9.13338
20
25.829
11
9.206
21
26.0684
0
LINE
8
BLACK
6
CONTINUOUS
10
9.206
20
26.0684
11
9.32392
21
26.289
0
LINE
8
BLACK
6
CONTINUOUS
10
9.32392
20
26.289
11
9.48263
21
26.4824
0
LINE
8
BLACK
6
CONTINUOUS
10
9.48263
20
26.4824
11
9.67601
21
26.6411
0
LINE
8
BLACK
6
CONTINUOUS
10
9.67601
20
26.6411
11
9.89664
21
26.759
0
LINE
8
BLACK
6
CONTINUOUS
10
9.89664
20
26.759
11
10.136
21
26.8316
0
LINE
8
BLACK
6
CONTINUOUS
10
10.136
20
26.8316
11
10.3226
21
26.85
0
LINE
8
BLACK
6
CONTINUOUS
10
10.3226
20
26.85
11
11.155
21
26.85
0
LINE
8
BLACK
6
CONTINUOUS
10
11.155
20
26.85
11
11.155
21
27.6429
0
LINE
8
BLACK
6
CONTINUOUS
10
11.155
20
27.6429
11
10.5388
21
28.2591
0
LINE
8
BLACK
6
CONTINUOUS
10
10.5388
20
28.2591
11
10.5197
21
28.2747
0
LINE
8
BLACK
6
CONTINUOUS
10
10.5197
20
28.2747
11
10.4573
21
28.3509
0
LINE
8
BLACK
6
CONTINUOUS
10
10.4573
20
28.3509
11
10.4108
21
28.4377
0
LINE
8
BLACK
6
CONTINUOUS
10
10.4108
20
28.4377
11
10.3822
21
28.532
0
LINE
8
BLACK
6
CONTINUOUS
10
10.3822
20
28.532
11
10.375
21
28.6054
0
LINE
8
BLACK
6
CONTINUOUS
10
10.375
20
28.6054
11
10.3726
21
28.63
0
LINE
8
BLACK
6
CONTINUOUS
10
10.3726
20
28.63
11
10.375
21
28.6546
0
LINE
8
BLACK
6
CONTINUOUS
10
10.375
20
28.6546
11
10.375
21
29.98
0
LINE
8
BLACK
6
CONTINUOUS
10
10.375
20
29.98
11
9.875
21
29.98
0
LINE
8
BLACK
6
CONTINUOUS
10
9.875
20
29.98
11
9.875
21
29.1476
0
LINE
8
BLACK
6
CONTINUOUS
10
9.875
20
29.1476
11
9.85662
21
28.961
0
LINE
8
BLACK
6
CONTINUOUS
10
9.85662
20
28.961
11
9.784
21
28.7216
0
LINE
8
BLACK
6
CONTINUOUS
10
9.784
20
28.7216
11
9.66607
21
28.501
0
LINE
8
BLACK
6
CONTINUOUS
10
9.66607
20
28.501
11
9.50737
21
28.3076
0
LINE
8
BLACK
6
CONTINUOUS
10
9.50737
20
28.3076
11
9.31399
21
28.1489
0
LINE
8
BLACK
6
CONTINUOUS
10
9.31399
20
28.1489
11
9.09336
21
28.031
0
LINE
8
BLACK
6
CONTINUOUS
10
9.09336
20
28.031
11
8.85396
21
27.9584
0
LINE
8
BLACK
6
CONTINUOUS
10
8.85396
20
27.9584
11
8.605
21
27.9339
0
LINE
8
BLACK
6
CONTINUOUS
10
8.605
20
27.9339
11
8.35604
21
27.9584
0
LINE
8
BLACK
6
CONTINUOUS
10
8.35604
20
27.9584
11
8.11664
21
28.031
0
LINE
8
BLACK
6
CONTINUOUS
10
8.11664
20
28.031
11
7.89601
21
28.1489
0
LINE
8
BLACK
6
CONTINUOUS
10
7.89601
20
28.1489
11
7.70263
21
28.3076
0
LINE
8
BLACK
6
CONTINUOUS
10
7.70263
20
28.3076
11
7.54392
21
28.501
0
LINE
8
BLACK
6
CONTINUOUS
10
7.54392
20
28.501
11
7.426
21
28.7216
0
LINE
8
BLACK
6
CONTINUOUS
10
7.426
20
28.7216
11
7.35338
21
28.961
0
LINE
8
BLACK
6
CONTINUOUS
10
7.35338
20
28.961
11
7.335
21
29.1476
0
LINE
8
BLACK
6
CONTINUOUS
10
7.335
20
29.1476
11
7.335
21
31.8124
0
LINE
8
BLACK
6
CONTINUOUS
10
7.335
20
31.8124
11
7.35338
21
31.999
0
LINE
8
BLACK
6
CONTINUOUS
10
7.35338
20
31.999
11
7.426
21
32.2384
0
LINE
8
BLACK
6
CONTINUOUS
10
7.426
20
32.2384
11
7.54393
21
32.459
0
LINE
8
BLACK
6
CONTINUOUS
10
7.54393
20
32.459
11
7.70263
21
32.6524
0
LINE
8
BLACK
6
CONTINUOUS
10
7.70263
20
32.6524
11
7.89601
21
32.8111
0
LINE
8
BLACK
6
CONTINUOUS
10
7.89601
20
32.8111
11
8.11664
21
32.929
0
LINE
8
BLACK
6
CONTINUOUS
10
8.11664
20
32.929
11
8.35604
21
33.0016
0
LINE
8
BLACK
6
CONTINUOUS
10
8.35604
20
33.0016
11
8.605
21
33.0261
0
LINE
8
BLACK
6
CONTINUOUS
10
8.605
20
33.0261
11
8.85396
21
33.0016
  0
ENDSEC
  0
EOF
