  0
SECTION
  2
HEADER
  9
$ANGBASE
  50
0.0
  9
$ANGDIR
  70
1
  9
$MEASUREMENT
  70
1
  0
ENDSEC
  0
SECTION
  2
TABLES
  0
TABLE
  2
LTYPE
  70
4
  0
LTYPE
  5
40F
  2
CONTINUOUS
  70
0
  3
Solid line
  72
65
  73
0
  40
0.0
  0
LTYPE
  5
410
  2
DASHDOT
 70
0
  3
Dash Dot ____ _ ____ _
 72
65
 73
4
 40
2.0
 49
1.25
 49
-0.25
 49
0.25
 49
-0.25
  0
LTYPE
  5
411
  2
DASHED
 70
0
  3
Dashed __ __ __ __ __
 72
65
 73
2
 40
0.75
 49
0.5
 49
-0.25
  0
LTYPE
  5
43B
  2
DOTTED
 70
0
  3
Dotted .  .  .  .
 72
65
 73
2
 40
0.2
 49
0.0
 49
-0.2
  0
ENDTAB
  0
TABLE
  2
STYLE
  70
4
  0
STYLE
  2
KICAD
  70
0
  40
0
  41
1
  42
1
  50
0
  71
0
  3
isocp.shx
  0
STYLE
  2
KICADB
  70
0
  40
0
  41
1
  42
1
  50
0
  71
0
  3
isocp.shx
  0
STYLE
  2
KICADI
  70
0
  40
0
  41
1
  42
1
  50
15
  71
0
  3
isocp.shx
  0
STYLE
  2
KICADBI
  70
0
  40
0
  41
1
  42
1
  50
15
  71
0
  3
isocp.shx
  0
ENDTAB
  0
TABLE
  2
LAYER
  70
1
  0
LAYER
  2
BLACK
  70
0
  62
7
  6
CONTINUOUS
  0
ENDTAB
  0
ENDSEC
  0
SECTION
  2
ENTITIES
0
LINE
8
BLACK
6
CONTINUOUS
10
13.174
20
26.8316
11
13.4134
21
26.759
0
LINE
8
BLACK
6
CONTINUOUS
10
13.4134
20
26.759
11
13.634
21
26.6411
0
LINE
8
BLACK
6
CONTINUOUS
10
13.634
20
26.6411
11
13.8274
21
26.4824
0
LINE
8
BLACK
6
CONTINUOUS
10
13.8274
20
26.4824
11
13.9861
21
26.289
0
LINE
8
BLACK
6
CONTINUOUS
10
13.9861
20
26.289
11
14.0978
21
26.08
0
LINE
8
BLACK
6
CONTINUOUS
10
14.0978
20
26.08
11
15.1704
21
26.08
0
LINE
8
BLACK
6
CONTINUOUS
10
15.1704
20
26.08
11
15.195
21
26.0824
0
LINE
8
BLACK
6
CONTINUOUS
10
15.195
20
26.0824
11
15.2196
21
26.08
0
LINE
8
BLACK
6
CONTINUOUS
10
15.2196
20
26.08
11
15.293
21
26.0728
0
LINE
8
BLACK
6
CONTINUOUS
10
15.293
20
26.0728
11
15.3873
21
26.0442
0
LINE
8
BLACK
6
CONTINUOUS
10
15.3873
20
26.0442
11
15.4741
21
25.9977
0
LINE
8
BLACK
6
CONTINUOUS
10
15.4741
20
25.9977
11
15.5503
21
25.9353
0
LINE
8
BLACK
6
CONTINUOUS
10
15.5503
20
25.9353
11
15.6127
21
25.8591
0
LINE
8
BLACK
6
CONTINUOUS
10
15.6127
20
25.8591
11
15.6592
21
25.7723
0
LINE
8
BLACK
6
CONTINUOUS
10
15.6592
20
25.7723
11
15.6785
21
25.7086
0
LINE
8
BLACK
6
CONTINUOUS
10
15.6785
20
25.7086
11
18.9994
21
22.3877
0
LINE
8
BLACK
6
CONTINUOUS
10
18.9994
20
22.3877
11
19.0112
21
22.39
0
LINE
8
BLACK
6
CONTINUOUS
10
19.0112
20
22.39
11
19.1688
21
22.39
0
LINE
8
BLACK
6
CONTINUOUS
10
19.1688
20
22.39
11
19.3234
21
22.3593
0
LINE
8
BLACK
6
CONTINUOUS
10
19.3234
20
22.3593
11
19.4689
21
22.299
0
LINE
8
BLACK
6
CONTINUOUS
10
19.4689
20
22.299
11
19.6
21
22.2114
0
LINE
8
BLACK
6
CONTINUOUS
10
19.6
20
22.2114
11
19.7114
21
22.1
0
LINE
8
BLACK
6
CONTINUOUS
10
19.7114
20
22.1
11
19.799
21
21.9689
0
LINE
8
BLACK
6
CONTINUOUS
10
19.799
20
21.9689
11
19.8593
21
21.8234
0
LINE
8
BLACK
6
CONTINUOUS
10
19.8593
20
21.8234
11
19.89
21
21.6688
0
LINE
8
BLACK
6
CONTINUOUS
10
19.89
20
21.6688
11
19.89
21
21.5112
0
LINE
8
BLACK
6
CONTINUOUS
10
19.89
20
21.5112
11
19.8593
21
21.3566
0
LINE
8
BLACK
6
CONTINUOUS
10
19.8593
20
21.3566
11
19.799
21
21.2111
0
LINE
8
BLACK
6
CONTINUOUS
10
19.799
20
21.2111
11
19.7114
21
21.08
0
LINE
8
BLACK
6
CONTINUOUS
10
19.7114
20
21.08
11
19.6
21
20.9686
0
LINE
8
BLACK
6
CONTINUOUS
10
19.6
20
20.9686
11
19.59
21
20.9619
0
LINE
8
BLACK
6
CONTINUOUS
10
19.59
20
20.9619
11
19.59
21
20.3287
0
LINE
8
BLACK
6
CONTINUOUS
10
19.59
20
20.3287
11
25.87
21
20.3287
0
LINE
8
BLACK
6
CONTINUOUS
10
25.87
20
20.3287
11
25.87
21
20.3988
0
LINE
8
BLACK
6
CONTINUOUS
10
25.87
20
20.3988
11
25.9007
21
20.5534
0
LINE
8
BLACK
6
CONTINUOUS
10
25.9007
20
20.5534
11
25.961
21
20.6989
0
LINE
8
BLACK
6
CONTINUOUS
10
25.961
20
20.6989
11
26.0486
21
20.83
0
LINE
8
BLACK
6
CONTINUOUS
10
26.0486
20
20.83
11
26.16
21
20.9414
0
LINE
8
BLACK
6
CONTINUOUS
10
26.16
20
20.9414
11
26.2911
21
21.029
0
LINE
8
BLACK
6
CONTINUOUS
10
26.2911
20
21.029
11
26.4366
21
21.0893
0
LINE
8
BLACK
6
CONTINUOUS
10
26.4366
20
21.0893
11
26.5912
21
21.12
0
LINE
8
BLACK
6
CONTINUOUS
10
26.5912
20
21.12
11
26.7488
21
21.12
0
LINE
8
BLACK
6
CONTINUOUS
10
26.7488
20
21.12
11
26.9034
21
21.0893
0
LINE
8
BLACK
6
CONTINUOUS
10
26.9034
20
21.0893
11
27.0489
21
21.029
0
LINE
8
BLACK
6
CONTINUOUS
10
27.0489
20
21.029
11
27.18
21
20.9414
0
LINE
8
BLACK
6
CONTINUOUS
10
27.18
20
20.9414
11
27.2914
21
20.83
0
LINE
8
BLACK
6
CONTINUOUS
10
27.2914
20
20.83
11
27.379
21
20.6989
0
LINE
8
BLACK
6
CONTINUOUS
10
27.379
20
20.6989
11
27.4393
21
20.5534
0
LINE
8
BLACK
6
CONTINUOUS
10
27.4393
20
20.5534
11
27.47
21
20.3988
0
LINE
8
BLACK
6
CONTINUOUS
10
27.47
20
20.3988
11
27.47
21
20.2412
0
LINE
8
BLACK
6
CONTINUOUS
10
27.47
20
20.2412
11
27.4393
21
20.0866
0
LINE
8
BLACK
6
CONTINUOUS
10
27.4393
20
20.0866
11
27.379
21
19.9411
0
LINE
8
BLACK
6
CONTINUOUS
10
27.379
20
19.9411
11
27.2914
21
19.81
0
LINE
8
BLACK
6
CONTINUOUS
10
27.2914
20
19.81
11
27.18
21
19.6986
0
LINE
8
BLACK
6
CONTINUOUS
10
27.18
20
19.6986
11
27.0489
21
19.611
0
LINE
8
BLACK
6
CONTINUOUS
10
27.0489
20
19.611
11
26.9034
21
19.5507
0
LINE
8
BLACK
6
CONTINUOUS
10
26.9034
20
19.5507
11
26.7488
21
19.52
0
LINE
8
BLACK
6
CONTINUOUS
10
26.7488
20
19.52
11
26.5912
21
19.52
0
LINE
8
BLACK
6
CONTINUOUS
10
26.5912
20
19.52
11
26.5794
21
19.5223
0
LINE
8
BLACK
6
CONTINUOUS
10
26.5794
20
19.5223
11
26.5496
21
19.4925
0
LINE
8
BLACK
6
CONTINUOUS
10
26.5496
20
19.4925
11
26.534
21
19.4734
0
LINE
8
BLACK
6
CONTINUOUS
10
26.534
20
19.4734
11
26.4578
21
19.411
0
LINE
8
BLACK
6
CONTINUOUS
10
26.4578
20
19.411
11
26.371
21
19.3645
0
LINE
8
BLACK
6
CONTINUOUS
10
26.371
20
19.3645
11
26.2767
21
19.3359
0
LINE
8
BLACK
6
CONTINUOUS
10
26.2767
20
19.3359
11
26.2033
21
19.3287
0
LINE
8
BLACK
6
CONTINUOUS
10
26.2033
20
19.3287
11
26.1787
21
19.3263
0
LINE
8
BLACK
6
CONTINUOUS
10
26.1787
20
19.3263
11
26.1541
21
19.3287
0
LINE
8
BLACK
6
CONTINUOUS
10
26.1541
20
19.3287
11
19.59
21
19.3287
0
LINE
8
BLACK
6
CONTINUOUS
10
19.59
20
19.3287
11
19.59
21
7.9071
0
LINE
8
BLACK
6
CONTINUOUS
10
19.59
20
7.9071
11
23.8221
21
3.675
0
LINE
8
BLACK
6
CONTINUOUS
10
23.8221
20
3.675
11
24.1972
21
3.675
0
LINE
8
BLACK
6
CONTINUOUS
10
24.1972
20
3.675
11
24.208
21
3.72921
0
LINE
8
BLACK
6
CONTINUOUS
10
24.208
20
3.72921
11
24.3512
21
4.07499
0
LINE
8
BLACK
6
CONTINUOUS
10
24.3512
20
4.07499
11
24.5592
21
4.38618
0
LINE
8
BLACK
6
CONTINUOUS
10
24.5592
20
4.38618
11
24.8238
21
4.65083
0
LINE
8
BLACK
6
CONTINUOUS
10
24.8238
20
4.65083
11
25.135
21
4.85876
0
LINE
8
BLACK
6
CONTINUOUS
10
25.135
20
4.85876
11
25.4808
21
5.00198
0
LINE
8
BLACK
6
CONTINUOUS
10
25.4808
20
5.00198
11
25.8479
21
5.075
0
LINE
8
BLACK
6
CONTINUOUS
10
25.8479
20
5.075
11
26.2221
21
5.075
0
LINE
8
BLACK
6
CONTINUOUS
10
26.2221
20
5.075
11
26.5892
21
5.00198
0
LINE
8
BLACK
6
CONTINUOUS
10
26.5892
20
5.00198
11
26.935
21
4.85876
0
LINE
8
BLACK
6
CONTINUOUS
10
26.935
20
4.85876
11
27.2462
21
4.65083
0
LINE
8
BLACK
6
CONTINUOUS
10
27.2462
20
4.65083
11
27.5108
21
4.38618
0
LINE
8
BLACK
6
CONTINUOUS
10
27.5108
20
4.38618
11
27.7188
21
4.07499
0
LINE
8
BLACK
6
CONTINUOUS
10
27.7188
20
4.07499
11
27.862
21
3.72921
0
LINE
8
BLACK
6
CONTINUOUS
10
27.862
20
3.72921
11
27.935
21
3.36213
0
LINE
8
BLACK
6
CONTINUOUS
10
27.935
20
3.36213
11
27.935
21
2.98787
0
LINE
8
BLACK
6
CONTINUOUS
10
27.935
20
2.98787
11
27.862
21
2.62079
0
LINE
8
BLACK
6
CONTINUOUS
10
27.862
20
2.62079
11
27.7188
21
2.27501
0
LINE
8
BLACK
6
CONTINUOUS
10
27.7188
20
2.27501
11
27.5108
21
1.96382
0
LINE
8
BLACK
6
CONTINUOUS
10
27.5108
20
1.96382
11
27.2462
21
1.69917
0
LINE
8
BLACK
6
CONTINUOUS
10
27.2462
20
1.69917
11
26.935
21
1.49124
0
LINE
8
BLACK
6
CONTINUOUS
10
26.935
20
1.49124
11
26.5892
21
1.34802
0
LINE
8
BLACK
6
CONTINUOUS
10
26.5892
20
1.34802
11
26.2221
21
1.275
0
LINE
8
BLACK
6
CONTINUOUS
10
26.2221
20
1.275
11
25.8479
21
1.275
0
LINE
8
BLACK
6
CONTINUOUS
10
25.8479
20
1.275
11
25.4808
21
1.34802
0
LINE
8
BLACK
6
CONTINUOUS
10
25.4808
20
1.34802
11
25.135
21
1.49124
0
LINE
8
BLACK
6
CONTINUOUS
10
25.135
20
1.49124
11
24.8238
21
1.69917
0
LINE
8
BLACK
6
CONTINUOUS
10
24.8238
20
1.69917
11
24.5592
21
1.96382
0
LINE
8
BLACK
6
CONTINUOUS
10
24.5592
20
1.96382
11
24.3512
21
2.27501
0
LINE
8
BLACK
6
CONTINUOUS
10
24.3512
20
2.27501
11
24.208
21
2.62079
0
LINE
8
BLACK
6
CONTINUOUS
10
24.208
20
2.62079
11
24.1972
21
2.675
0
LINE
8
BLACK
6
CONTINUOUS
10
24.1972
20
2.675
11
23.6395
21
2.675
0
LINE
8
BLACK
6
CONTINUOUS
10
23.6395
20
2.675
11
23.615
21
2.67258
0
LINE
8
BLACK
6
CONTINUOUS
10
23.615
20
2.67258
11
23.5904
21
2.675
0
LINE
8
BLACK
6
CONTINUOUS
10
23.5904
20
2.675
11
23.5904
21
2.675
0
LINE
8
BLACK
6
CONTINUOUS
10
23.5904
20
2.675
11
23.517
21
2.68223
0
LINE
8
BLACK
6
CONTINUOUS
10
23.517
20
2.68223
11
23.4227
21
2.71082
0
LINE
8
BLACK
6
CONTINUOUS
10
23.4227
20
2.71082
11
23.3359
21
2.75725
0
LINE
8
BLACK
6
CONTINUOUS
10
23.3359
20
2.75725
11
23.2597
21
2.81974
0
LINE
8
BLACK
6
CONTINUOUS
10
23.2597
20
2.81974
11
23.2441
21
2.83881
0
LINE
8
BLACK
6
CONTINUOUS
10
23.2441
20
2.83881
11
19.09
21
6.99289
0
LINE
8
BLACK
6
CONTINUOUS
10
19.09
20
6.99289
11
17.2677
21
5.17055
0
LINE
8
BLACK
6
CONTINUOUS
10
17.2677
20
5.17055
11
17.27
21
5.15879
0
LINE
8
BLACK
6
CONTINUOUS
10
17.27
20
5.15879
11
17.27
21
5.00121
0
LINE
8
BLACK
6
CONTINUOUS
10
17.27
20
5.00121
11
17.2393
21
4.84665
0
LINE
8
BLACK
6
CONTINUOUS
10
17.2393
20
4.84665
11
17.179
21
4.70106
0
LINE
8
BLACK
6
CONTINUOUS
10
17.179
20
4.70106
11
17.0914
21
4.57003
0
LINE
8
BLACK
6
CONTINUOUS
10
17.0914
20
4.57003
11
16.98
21
4.4586
0
LINE
8
BLACK
6
CONTINUOUS
10
16.98
20
4.4586
11
16.8489
21
4.37105
0
LINE
8
BLACK
6
CONTINUOUS
10
16.8489
20
4.37105
11
16.7034
21
4.31074
0
LINE
8
BLACK
6
CONTINUOUS
10
16.7034
20
4.31074
11
16.5488
21
4.28
0
LINE
8
BLACK
6
CONTINUOUS
10
16.5488
20
4.28
11
16.3912
21
4.28
0
LINE
8
BLACK
6
CONTINUOUS
10
16.3912
20
4.28
11
16.2366
21
4.31074
0
LINE
8
BLACK
6
CONTINUOUS
10
16.2366
20
4.31074
11
16.0911
21
4.37105
0
LINE
8
BLACK
6
CONTINUOUS
10
16.0911
20
4.37105
11
15.96
21
4.4586
0
LINE
8
BLACK
6
CONTINUOUS
10
15.96
20
4.4586
11
15.8486
21
4.57003
0
LINE
8
BLACK
6
CONTINUOUS
10
15.8486
20
4.57003
11
15.761
21
4.70106
0
LINE
8
BLACK
6
CONTINUOUS
10
15.761
20
4.70106
11
15.7007
21
4.84665
0
LINE
8
BLACK
6
CONTINUOUS
10
15.7007
20
4.84665
11
15.67
21
5.00121
0
LINE
8
BLACK
6
CONTINUOUS
10
15.67
20
5.00121
11
15.67
21
5.15879
0
LINE
8
BLACK
6
CONTINUOUS
10
15.67
20
5.15879
11
15.7007
21
5.31335
0
LINE
8
BLACK
6
CONTINUOUS
10
15.7007
20
5.31335
11
15.761
21
5.45894
0
LINE
8
BLACK
6
CONTINUOUS
10
15.761
20
5.45894
11
15.8486
21
5.58997
0
LINE
8
BLACK
6
CONTINUOUS
10
15.8486
20
5.58997
11
15.96
21
5.7014
0
LINE
8
BLACK
6
CONTINUOUS
10
15.96
20
5.7014
11
16.0911
21
5.78895
0
LINE
8
BLACK
6
CONTINUOUS
10
16.0911
20
5.78895
11
16.2366
21
5.84926
0
LINE
8
BLACK
6
CONTINUOUS
10
16.2366
20
5.84926
11
16.3912
21
5.88
0
LINE
8
BLACK
6
CONTINUOUS
10
16.3912
20
5.88
11
16.5488
21
5.88
0
LINE
8
BLACK
6
CONTINUOUS
10
16.5488
20
5.88
11
16.5606
21
5.87766
0
LINE
8
BLACK
6
CONTINUOUS
10
16.5606
20
5.87766
11
18.59
21
7.90711
0
LINE
8
BLACK
6
CONTINUOUS
10
18.59
20
7.90711
11
18.59
21
19.8041
0
LINE
8
BLACK
6
CONTINUOUS
10
18.59
20
19.8041
11
18.5876
21
19.8287
0
LINE
8
BLACK
6
CONTINUOUS
10
18.5876
20
19.8287
11
18.59
21
19.8533
0
LINE
8
BLACK
6
CONTINUOUS
10
18.59
20
19.8533
11
18.59
21
20.9619
0
LINE
8
BLACK
6
CONTINUOUS
10
18.59
20
20.9619
11
18.58
21
20.9686
0
LINE
8
BLACK
6
CONTINUOUS
10
18.58
20
20.9686
11
18.4686
21
21.08
0
LINE
8
BLACK
6
CONTINUOUS
10
18.4686
20
21.08
11
18.381
21
21.2111
0
LINE
8
BLACK
6
CONTINUOUS
10
18.381
20
21.2111
11
18.3207
21
21.3566
0
LINE
8
BLACK
6
CONTINUOUS
10
18.3207
20
21.3566
11
18.29
21
21.5112
0
LINE
8
BLACK
6
CONTINUOUS
10
18.29
20
21.5112
11
18.29
21
21.6688
0
LINE
8
BLACK
6
CONTINUOUS
10
18.29
20
21.6688
11
18.2923
21
21.6806
0
LINE
8
BLACK
6
CONTINUOUS
10
18.2923
20
21.6806
11
14.8929
21
25.08
0
LINE
8
BLACK
6
CONTINUOUS
10
14.8929
20
25.08
11
14.0978
21
25.08
0
LINE
8
BLACK
6
CONTINUOUS
10
14.0978
20
25.08
11
13.9861
21
24.871
0
LINE
8
BLACK
6
CONTINUOUS
10
13.9861
20
24.871
11
13.8274
21
24.6776
0
LINE
8
BLACK
6
CONTINUOUS
10
13.8274
20
24.6776
11
13.634
21
24.5189
0
LINE
8
BLACK
6
CONTINUOUS
10
13.634
20
24.5189
11
13.4134
21
24.401
0
LINE
8
BLACK
6
CONTINUOUS
10
13.4134
20
24.401
11
13.174
21
24.3284
0
LINE
8
BLACK
6
CONTINUOUS
10
13.174
20
24.3284
11
12.9874
21
24.31
0
LINE
8
BLACK
6
CONTINUOUS
10
12.9874
20
24.31
11
10.3226
21
24.31
0
LINE
8
BLACK
6
CONTINUOUS
10
10.3226
20
24.31
11
10.136
21
24.3284
0
LINE
8
BLACK
6
CONTINUOUS
10
10.136
20
24.3284
11
9.89664
21
24.401
0
LINE
8
BLACK
6
CONTINUOUS
10
9.89664
20
24.401
11
9.67601
21
24.5189
0
LINE
8
BLACK
6
CONTINUOUS
10
9.67601
20
24.5189
11
9.48263
21
24.6776
0
LINE
8
BLACK
6
CONTINUOUS
10
9.48263
20
24.6776
11
9.32392
21
24.871
0
LINE
8
BLACK
6
CONTINUOUS
10
9.32392
20
24.871
11
9.206
21
25.0916
0
LINE
8
BLACK
6
CONTINUOUS
10
9.206
20
25.0916
11
9.13338
21
25.331
0
LINE
8
BLACK
6
CONTINUOUS
10
9.13338
20
25.331
11
9.10886
21
25.58
0
LINE
8
BLACK
6
CONTINUOUS
10
9.10886
20
25.58
11
9.13338
21
25.829
0
LINE
8
BLACK
6
CONTINUOUS
10
9.13338
20
25.829
11
9.206
21
26.0684
0
LINE
8
BLACK
6
CONTINUOUS
10
9.206
20
26.0684
11
9.32392
21
26.289
0
LINE
8
BLACK
6
CONTINUOUS
10
9.32392
20
26.289
11
9.48263
21
26.4824
0
LINE
8
BLACK
6
CONTINUOUS
10
9.48263
20
26.4824
11
9.67601
21
26.6411
0
LINE
8
BLACK
6
CONTINUOUS
10
9.67601
20
26.6411
11
9.89664
21
26.759
0
LINE
8
BLACK
6
CONTINUOUS
10
9.89664
20
26.759
11
10.136
21
26.8316
0
LINE
8
BLACK
6
CONTINUOUS
10
10.136
20
26.8316
11
10.3226
21
26.85
0
LINE
8
BLACK
6
CONTINUOUS
10
10.3226
20
26.85
11
12.9874
21
26.85
0
LINE
8
BLACK
6
CONTINUOUS
10
12.9874
20
26.85
11
13.174
21
26.8316
0
LINE
8
BLACK
6
CONTINUOUS
10
14.77
20
4.28
11
13.17
21
4.28
0
LINE
8
BLACK
6
CONTINUOUS
10
13.17
20
4.28
11
13.17
21
4.58
0
LINE
8
BLACK
6
CONTINUOUS
10
13.17
20
4.58
11
12.3771
21
4.58
0
LINE
8
BLACK
6
CONTINUOUS
10
12.3771
20
4.58
11
11.2709
21
3.47382
0
LINE
8
BLACK
6
CONTINUOUS
10
11.2709
20
3.47382
11
11.2553
21
3.45474
0
LINE
8
BLACK
6
CONTINUOUS
10
11.2553
20
3.45474
11
11.1791
21
3.39225
0
LINE
8
BLACK
6
CONTINUOUS
10
11.1791
20
3.39225
11
11.0923
21
3.34583
0
LINE
8
BLACK
6
CONTINUOUS
10
11.0923
20
3.34583
11
10.998
21
3.31723
0
LINE
8
BLACK
6
CONTINUOUS
10
10.998
20
3.31723
11
10.9246
21
3.31
0
LINE
8
BLACK
6
CONTINUOUS
10
10.9246
20
3.31
11
10.9
21
3.30758
0
LINE
8
BLACK
6
CONTINUOUS
10
10.9
20
3.30758
11
10.8754
21
3.31
0
LINE
8
BLACK
6
CONTINUOUS
10
10.8754
20
3.31
11
5.99069
21
3.31
0
LINE
8
BLACK
6
CONTINUOUS
10
5.99069
20
3.31
11
5.88394
21
3.15023
0
LINE
8
BLACK
6
CONTINUOUS
10
5.88394
20
3.15023
11
5.73977
21
3.00606
0
LINE
8
BLACK
6
CONTINUOUS
10
5.73977
20
3.00606
11
5.57026
21
2.8928
0
LINE
8
BLACK
6
CONTINUOUS
10
5.57026
20
2.8928
11
5.3819
21
2.81477
0
LINE
8
BLACK
6
CONTINUOUS
10
5.3819
20
2.81477
11
5.18194
21
2.775
0
LINE
8
BLACK
6
CONTINUOUS
10
5.18194
20
2.775
11
4.97806
21
2.775
0
LINE
8
BLACK
6
CONTINUOUS
10
4.97806
20
2.775
11
4.7781
21
2.81477
0
LINE
8
BLACK
6
CONTINUOUS
10
4.7781
20
2.81477
11
4.58974
21
2.8928
0
LINE
8
BLACK
6
CONTINUOUS
10
4.58974
20
2.8928
11
4.42023
21
3.00606
0
LINE
8
BLACK
6
CONTINUOUS
10
4.42023
20
3.00606
11
4.27606
21
3.15023
0
LINE
8
BLACK
6
CONTINUOUS
10
4.27606
20
3.15023
11
4.1628
21
3.31974
0
LINE
8
BLACK
6
CONTINUOUS
10
4.1628
20
3.31974
11
4.08477
21
3.5081
0
LINE
8
BLACK
6
CONTINUOUS
10
4.08477
20
3.5081
11
4.045
21
3.70806
0
LINE
8
BLACK
6
CONTINUOUS
10
4.045
20
3.70806
11
4.045
21
3.91194
0
LINE
8
BLACK
6
CONTINUOUS
10
4.045
20
3.91194
11
4.08477
21
4.1119
0
LINE
8
BLACK
6
CONTINUOUS
10
4.08477
20
4.1119
11
4.1628
21
4.30026
0
LINE
8
BLACK
6
CONTINUOUS
10
4.1628
20
4.30026
11
4.27606
21
4.46977
0
LINE
8
BLACK
6
CONTINUOUS
10
4.27606
20
4.46977
11
4.42023
21
4.61394
0
LINE
8
BLACK
6
CONTINUOUS
10
4.42023
20
4.61394
11
4.58974
21
4.7272
0
LINE
8
BLACK
6
CONTINUOUS
10
4.58974
20
4.7272
11
4.7781
21
4.80523
0
LINE
8
BLACK
6
CONTINUOUS
10
4.7781
20
4.80523
11
4.97806
21
4.845
0
LINE
8
BLACK
6
CONTINUOUS
10
4.97806
20
4.845
11
5.18194
21
4.845
0
LINE
8
BLACK
6
CONTINUOUS
10
5.18194
20
4.845
11
5.3819
21
4.80523
0
LINE
8
BLACK
6
CONTINUOUS
10
5.3819
20
4.80523
11
5.57026
21
4.7272
0
LINE
8
BLACK
6
CONTINUOUS
10
5.57026
20
4.7272
11
5.73977
21
4.61394
0
LINE
8
BLACK
6
CONTINUOUS
10
5.73977
20
4.61394
11
5.88394
21
4.46977
0
LINE
8
BLACK
6
CONTINUOUS
10
5.88394
20
4.46977
11
5.99069
21
4.31
0
LINE
8
BLACK
6
CONTINUOUS
10
5.99069
20
4.31
11
10.6929
21
4.31
0
LINE
8
BLACK
6
CONTINUOUS
10
10.6929
20
4.31
11
11.7991
21
5.41619
0
LINE
8
BLACK
6
CONTINUOUS
10
11.7991
20
5.41619
11
11.8147
21
5.43526
0
LINE
8
BLACK
6
CONTINUOUS
10
11.8147
20
5.43526
11
11.8909
21
5.49775
0
LINE
8
BLACK
6
CONTINUOUS
10
11.8909
20
5.49775
11
11.9777
21
5.54418
0
LINE
8
BLACK
6
CONTINUOUS
10
11.9777
20
5.54418
11
12.072
21
5.57276
0
LINE
8
BLACK
6
CONTINUOUS
10
12.072
20
5.57276
11
12.1454
21
5.58
0
LINE
8
BLACK
6
CONTINUOUS
10
12.1454
20
5.58
11
12.1454
21
5.58
0
LINE
8
BLACK
6
CONTINUOUS
10
12.1454
20
5.58
11
12.17
21
5.58242
0
LINE
8
BLACK
6
CONTINUOUS
10
12.17
20
5.58242
11
12.1946
21
5.58
0
LINE
8
BLACK
6
CONTINUOUS
10
12.1946
20
5.58
11
13.17
21
5.58
0
LINE
8
BLACK
6
CONTINUOUS
10
13.17
20
5.58
11
13.17
21
5.88
0
LINE
8
BLACK
6
CONTINUOUS
10
13.17
20
5.88
11
14.77
21
5.88
0
LINE
8
BLACK
6
CONTINUOUS
10
14.77
20
5.88
11
14.77
21
4.28
0
LINE
8
BLACK
6
CONTINUOUS
10
5.3819
20
7.80523
11
5.57026
21
7.7272
0
LINE
8
BLACK
6
CONTINUOUS
10
5.57026
20
7.7272
11
5.73977
21
7.61394
0
LINE
8
BLACK
6
CONTINUOUS
10
5.73977
20
7.61394
11
5.88394
21
7.46977
0
LINE
8
BLACK
6
CONTINUOUS
10
5.88394
20
7.46977
11
5.99721
21
7.30026
0
LINE
8
BLACK
6
CONTINUOUS
10
5.99721
20
7.30026
11
6.07523
21
7.1119
0
LINE
8
BLACK
6
CONTINUOUS
10
6.07523
20
7.1119
11
6.115
21
6.91194
0
LINE
8
BLACK
6
CONTINUOUS
10
6.115
20
6.91194
11
6.115
21
6.70806
0
LINE
8
BLACK
6
CONTINUOUS
10
6.115
20
6.70806
11
6.07523
21
6.5081
0
LINE
8
BLACK
6
CONTINUOUS
10
6.07523
20
6.5081
11
5.99721
21
6.31974
0
LINE
8
BLACK
6
CONTINUOUS
10
5.99721
20
6.31974
11
5.88394
21
6.15023
0
LINE
8
BLACK
6
CONTINUOUS
10
5.88394
20
6.15023
11
5.73977
21
6.00606
0
LINE
8
BLACK
6
CONTINUOUS
10
5.73977
20
6.00606
11
5.57026
21
5.89279
0
LINE
8
BLACK
6
CONTINUOUS
10
5.57026
20
5.89279
11
5.3819
21
5.81477
0
LINE
8
BLACK
6
CONTINUOUS
10
5.3819
20
5.81477
11
5.18194
21
5.775
0
LINE
8
BLACK
6
CONTINUOUS
10
5.18194
20
5.775
11
4.97806
21
5.775
0
LINE
8
BLACK
6
CONTINUOUS
10
4.97806
20
5.775
11
4.7781
21
5.81477
0
LINE
8
BLACK
6
CONTINUOUS
10
4.7781
20
5.81477
11
4.58974
21
5.89279
0
LINE
8
BLACK
6
CONTINUOUS
10
4.58974
20
5.89279
11
4.42023
21
6.00606
0
LINE
8
BLACK
6
CONTINUOUS
10
4.42023
20
6.00606
11
4.27606
21
6.15023
0
LINE
8
BLACK
6
CONTINUOUS
10
4.27606
20
6.15023
11
4.1628
21
6.31974
0
LINE
8
BLACK
6
CONTINUOUS
10
4.1628
20
6.31974
11
4.08477
21
6.5081
0
LINE
8
BLACK
6
CONTINUOUS
10
4.08477
20
6.5081
11
4.045
21
6.70806
0
LINE
8
BLACK
6
CONTINUOUS
10
4.045
20
6.70806
11
4.045
21
6.91194
0
LINE
8
BLACK
6
CONTINUOUS
10
4.045
20
6.91194
11
4.08477
21
7.1119
0
LINE
8
BLACK
6
CONTINUOUS
10
4.08477
20
7.1119
11
4.1628
21
7.30026
0
LINE
8
BLACK
6
CONTINUOUS
10
4.1628
20
7.30026
11
4.27606
21
7.46977
0
LINE
8
BLACK
6
CONTINUOUS
10
4.27606
20
7.46977
11
4.42023
21
7.61394
0
LINE
8
BLACK
6
CONTINUOUS
10
4.42023
20
7.61394
11
4.58974
21
7.7272
0
LINE
8
BLACK
6
CONTINUOUS
10
4.58974
20
7.7272
11
4.7781
21
7.80523
0
LINE
8
BLACK
6
CONTINUOUS
10
4.7781
20
7.80523
11
4.97806
21
7.845
0
LINE
8
BLACK
6
CONTINUOUS
10
4.97806
20
7.845
11
5.18194
21
7.845
0
LINE
8
BLACK
6
CONTINUOUS
10
5.18194
20
7.845
11
5.3819
21
7.80523
0
LINE
8
BLACK
6
CONTINUOUS
10
5.3819
20
10.8052
11
5.57026
21
10.7272
0
LINE
8
BLACK
6
CONTINUOUS
10
5.57026
20
10.7272
11
5.73977
21
10.6139
0
LINE
8
BLACK
6
CONTINUOUS
10
5.73977
20
10.6139
11
5.88394
21
10.4698
0
LINE
8
BLACK
6
CONTINUOUS
10
5.88394
20
10.4698
11
5.99721
21
10.3003
0
LINE
8
BLACK
6
CONTINUOUS
10
5.99721
20
10.3003
11
6.07523
21
10.1119
0
LINE
8
BLACK
6
CONTINUOUS
10
6.07523
20
10.1119
11
6.115
21
9.91194
0
LINE
8
BLACK
6
CONTINUOUS
10
6.115
20
9.91194
11
6.115
21
9.70806
0
LINE
8
BLACK
6
CONTINUOUS
10
6.115
20
9.70806
11
6.07523
21
9.5081
0
LINE
8
BLACK
6
CONTINUOUS
10
6.07523
20
9.5081
11
5.99721
21
9.31974
0
LINE
8
BLACK
6
CONTINUOUS
10
5.99721
20
9.31974
11
5.88394
21
9.15023
0
LINE
8
BLACK
6
CONTINUOUS
10
5.88394
20
9.15023
11
5.73977
21
9.00606
0
LINE
8
BLACK
6
CONTINUOUS
10
5.73977
20
9.00606
11
5.57026
21
8.89279
0
LINE
8
BLACK
6
CONTINUOUS
10
5.57026
20
8.89279
11
5.3819
21
8.81477
0
LINE
8
BLACK
6
CONTINUOUS
10
5.3819
20
8.81477
11
5.18194
21
8.775
0
LINE
8
BLACK
6
CONTINUOUS
10
5.18194
20
8.775
11
4.97806
21
8.775
0
LINE
8
BLACK
6
CONTINUOUS
10
4.97806
20
8.775
11
4.7781
21
8.81477
0
LINE
8
BLACK
6
CONTINUOUS
10
4.7781
20
8.81477
11
4.58974
21
8.89279
0
LINE
8
BLACK
6
CONTINUOUS
10
4.58974
20
8.89279
11
4.42023
21
9.00606
0
LINE
8
BLACK
6
CONTINUOUS
10
4.42023
20
9.00606
11
4.27606
21
9.15023
0
LINE
8
BLACK
6
CONTINUOUS
10
4.27606
20
9.15023
11
4.1628
21
9.31974
0
LINE
8
BLACK
6
CONTINUOUS
10
4.1628
20
9.31974
11
4.08477
21
9.5081
0
LINE
8
BLACK
6
CONTINUOUS
10
4.08477
20
9.5081
11
4.045
21
9.70806
0
LINE
8
BLACK
6
CONTINUOUS
10
4.045
20
9.70806
11
4.045
21
9.91194
0
LINE
8
BLACK
6
CONTINUOUS
10
4.045
20
9.91194
11
4.08477
21
10.1119
0
LINE
8
BLACK
6
CONTINUOUS
10
4.08477
20
10.1119
11
4.1628
21
10.3003
0
LINE
8
BLACK
6
CONTINUOUS
10
4.1628
20
10.3003
11
4.27606
21
10.4698
0
LINE
8
BLACK
6
CONTINUOUS
10
4.27606
20
10.4698
11
4.42023
21
10.6139
0
LINE
8
BLACK
6
CONTINUOUS
10
4.42023
20
10.6139
11
4.58974
21
10.7272
0
LINE
8
BLACK
6
CONTINUOUS
10
4.58974
20
10.7272
11
4.7781
21
10.8052
0
LINE
8
BLACK
6
CONTINUOUS
10
4.7781
20
10.8052
11
4.97806
21
10.845
0
LINE
8
BLACK
6
CONTINUOUS
10
4.97806
20
10.845
11
5.18194
21
10.845
0
LINE
8
BLACK
6
CONTINUOUS
10
5.18194
20
10.845
11
5.3819
21
10.8052
0
LINE
8
BLACK
6
CONTINUOUS
10
26.9034
20
16.0893
11
27.0489
21
16.029
0
LINE
8
BLACK
6
CONTINUOUS
10
27.0489
20
16.029
11
27.18
21
15.9414
0
LINE
8
BLACK
6
CONTINUOUS
10
27.18
20
15.9414
11
27.2914
21
15.83
0
LINE
8
BLACK
6
CONTINUOUS
10
27.2914
20
15.83
11
27.379
21
15.6989
0
LINE
8
BLACK
6
CONTINUOUS
10
27.379
20
15.6989
11
27.4393
21
15.5534
0
LINE
8
BLACK
6
CONTINUOUS
10
27.4393
20
15.5534
11
27.47
21
15.3988
0
LINE
8
BLACK
6
CONTINUOUS
10
27.47
20
15.3988
11
27.47
21
15.2412
0
LINE
8
BLACK
6
CONTINUOUS
10
27.47
20
15.2412
11
27.4393
21
15.0866
0
LINE
8
BLACK
6
CONTINUOUS
10
27.4393
20
15.0866
11
27.379
21
14.9411
0
LINE
8
BLACK
6
CONTINUOUS
10
27.379
20
14.9411
11
27.2914
21
14.81
0
LINE
8
BLACK
6
CONTINUOUS
10
27.2914
20
14.81
11
27.18
21
14.6986
0
LINE
8
BLACK
6
CONTINUOUS
10
27.18
20
14.6986
11
27.0489
21
14.611
0
LINE
8
BLACK
6
CONTINUOUS
10
27.0489
20
14.611
11
26.9034
21
14.5507
0
LINE
8
BLACK
6
CONTINUOUS
10
26.9034
20
14.5507
11
26.7488
21
14.52
0
LINE
8
BLACK
6
CONTINUOUS
10
26.7488
20
14.52
11
26.5912
21
14.52
0
LINE
8
BLACK
6
CONTINUOUS
10
26.5912
20
14.52
11
26.4366
21
14.5507
0
LINE
8
BLACK
6
CONTINUOUS
10
26.4366
20
14.5507
11
26.2911
21
14.611
0
LINE
8
BLACK
6
CONTINUOUS
10
26.2911
20
14.611
11
26.16
21
14.6986
0
LINE
8
BLACK
6
CONTINUOUS
10
26.16
20
14.6986
11
26.0486
21
14.81
0
LINE
8
BLACK
6
CONTINUOUS
10
26.0486
20
14.81
11
25.961
21
14.9411
0
LINE
8
BLACK
6
CONTINUOUS
10
25.961
20
14.9411
11
25.9007
21
15.0866
0
LINE
8
BLACK
6
CONTINUOUS
10
25.9007
20
15.0866
11
25.87
21
15.2412
0
LINE
8
BLACK
6
CONTINUOUS
10
25.87
20
15.2412
11
25.87
21
15.3988
0
LINE
8
BLACK
6
CONTINUOUS
10
25.87
20
15.3988
11
25.9007
21
15.5534
0
LINE
8
BLACK
6
CONTINUOUS
10
25.9007
20
15.5534
11
25.961
21
15.6989
0
LINE
8
BLACK
6
CONTINUOUS
10
25.961
20
15.6989
11
26.0486
21
15.83
0
LINE
8
BLACK
6
CONTINUOUS
10
26.0486
20
15.83
11
26.16
21
15.9414
0
LINE
8
BLACK
6
CONTINUOUS
10
26.16
20
15.9414
11
26.2911
21
16.029
0
LINE
8
BLACK
6
CONTINUOUS
10
26.2911
20
16.029
11
26.4366
21
16.0893
0
LINE
8
BLACK
6
CONTINUOUS
10
26.4366
20
16.0893
11
26.5912
21
16.12
0
LINE
8
BLACK
6
CONTINUOUS
10
26.5912
20
16.12
11
26.7488
21
16.12
0
LINE
8
BLACK
6
CONTINUOUS
10
26.7488
20
16.12
11
26.9034
21
16.0893
0
LINE
8
BLACK
6
CONTINUOUS
10
3.49586
20
16.9327
11
3.69604
21
16.8498
0
LINE
8
BLACK
6
CONTINUOUS
10
3.69604
20
16.8498
11
3.87621
21
16.7294
0
LINE
8
BLACK
6
CONTINUOUS
10
3.87621
20
16.7294
11
4.02942
21
16.5762
0
LINE
8
BLACK
6
CONTINUOUS
10
4.02942
20
16.5762
11
4.14981
21
16.396
0
LINE
8
BLACK
6
CONTINUOUS
10
4.14981
20
16.396
11
4.23273
21
16.1959
0
LINE
8
BLACK
6
CONTINUOUS
10
4.23273
20
16.1959
11
4.275
21
15.9833
0
LINE
8
BLACK
6
CONTINUOUS
10
4.275
20
15.9833
11
4.275
21
15.7667
0
LINE
8
BLACK
6
CONTINUOUS
10
4.275
20
15.7667
11
4.23273
21
15.5541
0
LINE
8
BLACK
6
CONTINUOUS
10
4.23273
20
15.5541
11
4.14981
21
15.354
0
LINE
8
BLACK
6
CONTINUOUS
10
4.14981
20
15.354
11
4.02942
21
15.1738
0
LINE
8
BLACK
6
CONTINUOUS
10
4.02942
20
15.1738
11
3.87621
21
15.0206
0
LINE
8
BLACK
6
CONTINUOUS
10
3.87621
20
15.0206
11
3.69604
21
14.9002
0
LINE
8
BLACK
6
CONTINUOUS
10
3.69604
20
14.9002
11
3.49586
21
14.8173
0
LINE
8
BLACK
6
CONTINUOUS
10
3.49586
20
14.8173
11
3.28334
21
14.775
0
LINE
8
BLACK
6
CONTINUOUS
10
3.28334
20
14.775
11
3.06666
21
14.775
0
LINE
8
BLACK
6
CONTINUOUS
10
3.06666
20
14.775
11
2.85414
21
14.8173
0
LINE
8
BLACK
6
CONTINUOUS
10
2.85414
20
14.8173
11
2.65395
21
14.9002
0
LINE
8
BLACK
6
CONTINUOUS
10
2.65395
20
14.9002
11
2.47379
21
15.0206
0
LINE
8
BLACK
6
CONTINUOUS
10
2.47379
20
15.0206
11
2.32057
21
15.1738
0
LINE
8
BLACK
6
CONTINUOUS
10
2.32057
20
15.1738
11
2.20019
21
15.354
0
LINE
8
BLACK
6
CONTINUOUS
10
2.20019
20
15.354
11
2.11727
21
15.5541
0
LINE
8
BLACK
6
CONTINUOUS
10
2.11727
20
15.5541
11
2.075
21
15.7667
0
LINE
8
BLACK
6
CONTINUOUS
10
2.075
20
15.7667
11
2.075
21
15.9833
0
LINE
8
BLACK
6
CONTINUOUS
10
2.075
20
15.9833
11
2.11727
21
16.1959
0
LINE
8
BLACK
6
CONTINUOUS
10
2.11727
20
16.1959
11
2.20019
21
16.396
0
LINE
8
BLACK
6
CONTINUOUS
10
2.20019
20
16.396
11
2.32057
21
16.5762
0
LINE
8
BLACK
6
CONTINUOUS
10
2.32057
20
16.5762
11
2.47379
21
16.7294
0
LINE
8
BLACK
6
CONTINUOUS
10
2.47379
20
16.7294
11
2.65395
21
16.8498
0
LINE
8
BLACK
6
CONTINUOUS
10
2.65395
20
16.8498
11
2.85414
21
16.9327
0
LINE
8
BLACK
6
CONTINUOUS
10
2.85414
20
16.9327
11
3.06666
21
16.975
0
LINE
8
BLACK
6
CONTINUOUS
10
3.06666
20
16.975
11
3.28334
21
16.975
0
LINE
8
BLACK
6
CONTINUOUS
10
3.28334
20
16.975
11
3.49586
21
16.9327
0
LINE
8
BLACK
6
CONTINUOUS
10
15.5609
20
21.3777
11
15.761
21
21.2948
0
LINE
8
BLACK
6
CONTINUOUS
10
15.761
20
21.2948
11
15.9412
21
21.1744
0
LINE
8
BLACK
6
CONTINUOUS
10
15.9412
20
21.1744
11
16.0944
21
21.0212
0
LINE
8
BLACK
6
CONTINUOUS
10
16.0944
20
21.0212
11
16.2148
21
20.841
0
LINE
8
BLACK
6
CONTINUOUS
10
16.2148
20
20.841
11
16.2977
21
20.6409
0
LINE
8
BLACK
6
CONTINUOUS
10
16.2977
20
20.6409
11
16.34
21
20.4283
0
LINE
8
BLACK
6
CONTINUOUS
10
16.34
20
20.4283
11
16.34
21
20.2117
0
LINE
8
BLACK
6
CONTINUOUS
10
16.34
20
20.2117
11
16.2977
21
19.9991
0
LINE
8
BLACK
6
CONTINUOUS
10
16.2977
20
19.9991
11
16.2148
21
19.799
0
LINE
8
BLACK
6
CONTINUOUS
10
16.2148
20
19.799
11
16.0944
21
19.6188
0
LINE
8
BLACK
6
CONTINUOUS
10
16.0944
20
19.6188
11
15.9412
21
19.4656
0
LINE
8
BLACK
6
CONTINUOUS
10
15.9412
20
19.4656
11
15.761
21
19.3452
0
LINE
8
BLACK
6
CONTINUOUS
10
15.761
20
19.3452
11
15.5609
21
19.2623
0
LINE
8
BLACK
6
CONTINUOUS
10
15.5609
20
19.2623
11
15.3483
21
19.22
0
LINE
8
BLACK
6
CONTINUOUS
10
15.3483
20
19.22
11
15.1317
21
19.22
0
LINE
8
BLACK
6
CONTINUOUS
10
15.1317
20
19.22
11
14.9191
21
19.2623
0
LINE
8
BLACK
6
CONTINUOUS
10
14.9191
20
19.2623
11
14.719
21
19.3452
0
LINE
8
BLACK
6
CONTINUOUS
10
14.719
20
19.3452
11
14.5388
21
19.4656
0
LINE
8
BLACK
6
CONTINUOUS
10
14.5388
20
19.4656
11
14.3856
21
19.6188
0
LINE
8
BLACK
6
CONTINUOUS
10
14.3856
20
19.6188
11
14.2652
21
19.799
0
LINE
8
BLACK
6
CONTINUOUS
10
14.2652
20
19.799
11
14.1823
21
19.9991
0
LINE
8
BLACK
6
CONTINUOUS
10
14.1823
20
19.9991
11
14.14
21
20.2117
0
LINE
8
BLACK
6
CONTINUOUS
10
14.14
20
20.2117
11
14.14
21
20.4283
0
LINE
8
BLACK
6
CONTINUOUS
10
14.14
20
20.4283
11
14.1823
21
20.6409
0
LINE
8
BLACK
6
CONTINUOUS
10
14.1823
20
20.6409
11
14.2652
21
20.841
0
LINE
8
BLACK
6
CONTINUOUS
10
14.2652
20
20.841
11
14.3856
21
21.0212
0
LINE
8
BLACK
6
CONTINUOUS
10
14.3856
20
21.0212
11
14.5388
21
21.1744
0
LINE
8
BLACK
6
CONTINUOUS
10
14.5388
20
21.1744
11
14.719
21
21.2948
0
LINE
8
BLACK
6
CONTINUOUS
10
14.719
20
21.2948
11
14.9191
21
21.3777
0
LINE
8
BLACK
6
CONTINUOUS
10
14.9191
20
21.3777
11
15.1317
21
21.42
0
LINE
8
BLACK
6
CONTINUOUS
10
15.1317
20
21.42
11
15.3483
21
21.42
0
LINE
8
BLACK
6
CONTINUOUS
10
15.3483
20
21.42
11
15.5609
21
21.3777
0
LINE
8
BLACK
6
CONTINUOUS
10
6.18
20
19.22
11
3.98
21
19.22
0
LINE
8
BLACK
6
CONTINUOUS
10
3.98
20
19.22
11
3.98
21
21.42
0
LINE
8
BLACK
6
CONTINUOUS
10
3.98
20
21.42
11
6.18
21
21.42
0
LINE
8
BLACK
6
CONTINUOUS
10
6.18
20
21.42
11
6.18
21
19.22
0
LINE
8
BLACK
6
CONTINUOUS
10
22.39
20
20.79
11
20.79
21
20.79
0
LINE
8
BLACK
6
CONTINUOUS
10
20.79
20
20.79
11
20.79
21
22.39
0
LINE
8
BLACK
6
CONTINUOUS
10
20.79
20
22.39
11
22.39
21
22.39
0
LINE
8
BLACK
6
CONTINUOUS
10
22.39
20
22.39
11
22.39
21
20.79
0
LINE
8
BLACK
6
CONTINUOUS
10
14.854
20
33.0016
11
15.0934
21
32.929
0
LINE
8
BLACK
6
CONTINUOUS
10
15.0934
20
32.929
11
15.314
21
32.8111
0
LINE
8
BLACK
6
CONTINUOUS
10
15.314
20
32.8111
11
15.5074
21
32.6524
0
LINE
8
BLACK
6
CONTINUOUS
10
15.5074
20
32.6524
11
15.6661
21
32.459
0
LINE
8
BLACK
6
CONTINUOUS
10
15.6661
20
32.459
11
15.784
21
32.2384
0
LINE
8
BLACK
6
CONTINUOUS
10
15.784
20
32.2384
11
15.8566
21
31.999
0
LINE
8
BLACK
6
CONTINUOUS
10
15.8566
20
31.999
11
15.875
21
31.8124
0
LINE
8
BLACK
6
CONTINUOUS
10
15.875
20
31.8124
11
15.875
21
29.1476
0
LINE
8
BLACK
6
CONTINUOUS
10
15.875
20
29.1476
11
15.8566
21
28.961
0
LINE
8
BLACK
6
CONTINUOUS
10
15.8566
20
28.961
11
15.784
21
28.7216
0
LINE
8
BLACK
6
CONTINUOUS
10
15.784
20
28.7216
11
15.6661
21
28.501
0
LINE
8
BLACK
6
CONTINUOUS
10
15.6661
20
28.501
11
15.5074
21
28.3076
0
LINE
8
BLACK
6
CONTINUOUS
10
15.5074
20
28.3076
11
15.314
21
28.1489
0
LINE
8
BLACK
6
CONTINUOUS
10
15.314
20
28.1489
11
15.0934
21
28.031
0
LINE
8
BLACK
6
CONTINUOUS
10
15.0934
20
28.031
11
14.854
21
27.9584
0
LINE
8
BLACK
6
CONTINUOUS
10
14.854
20
27.9584
11
14.605
21
27.9339
0
LINE
8
BLACK
6
CONTINUOUS
10
14.605
20
27.9339
11
14.356
21
27.9584
0
LINE
8
BLACK
6
CONTINUOUS
10
14.356
20
27.9584
11
14.1166
21
28.031
0
LINE
8
BLACK
6
CONTINUOUS
10
14.1166
20
28.031
11
13.896
21
28.1489
0
LINE
8
BLACK
6
CONTINUOUS
10
13.896
20
28.1489
11
13.7026
21
28.3076
0
LINE
8
BLACK
6
CONTINUOUS
10
13.7026
20
28.3076
11
13.5439
21
28.501
0
LINE
8
BLACK
6
CONTINUOUS
10
13.5439
20
28.501
11
13.426
21
28.7216
0
LINE
8
BLACK
6
CONTINUOUS
10
13.426
20
28.7216
11
13.3534
21
28.961
0
LINE
8
BLACK
6
CONTINUOUS
10
13.3534
20
28.961
11
13.335
21
29.1476
0
LINE
8
BLACK
6
CONTINUOUS
10
13.335
20
29.1476
11
13.335
21
31.8124
0
LINE
8
BLACK
6
CONTINUOUS
10
13.335
20
31.8124
11
13.3534
21
31.999
0
LINE
8
BLACK
6
CONTINUOUS
10
13.3534
20
31.999
11
13.426
21
32.2384
0
LINE
8
BLACK
6
CONTINUOUS
10
13.426
20
32.2384
11
13.5439
21
32.459
0
LINE
8
BLACK
6
CONTINUOUS
10
13.5439
20
32.459
11
13.7026
21
32.6524
0
LINE
8
BLACK
6
CONTINUOUS
10
13.7026
20
32.6524
11
13.896
21
32.8111
0
LINE
8
BLACK
6
CONTINUOUS
10
13.896
20
32.8111
11
14.1166
21
32.929
0
LINE
8
BLACK
6
CONTINUOUS
10
14.1166
20
32.929
11
14.356
21
33.0016
0
LINE
8
BLACK
6
CONTINUOUS
10
14.356
20
33.0016
11
14.605
21
33.0261
0
LINE
8
BLACK
6
CONTINUOUS
10
14.605
20
33.0261
11
14.854
21
33.0016
0
LINE
8
BLACK
6
CONTINUOUS
10
8.85396
20
33.0016
11
9.09336
21
32.929
0
LINE
8
BLACK
6
CONTINUOUS
10
9.09336
20
32.929
11
9.31399
21
32.8111
0
LINE
8
BLACK
6
CONTINUOUS
10
9.31399
20
32.8111
11
9.50737
21
32.6524
0
LINE
8
BLACK
6
CONTINUOUS
10
9.50737
20
32.6524
11
9.66607
21
32.459
0
LINE
8
BLACK
6
CONTINUOUS
10
9.66607
20
32.459
11
9.784
21
32.2384
0
LINE
8
BLACK
6
CONTINUOUS
10
9.784
20
32.2384
11
9.85662
21
31.999
0
LINE
8
BLACK
6
CONTINUOUS
10
9.85662
20
31.999
11
9.875
21
31.8124
0
LINE
8
BLACK
6
CONTINUOUS
10
9.875
20
31.8124
11
9.875
21
29.1476
0
LINE
8
BLACK
6
CONTINUOUS
10
9.875
20
29.1476
11
9.85662
21
28.961
0
LINE
8
BLACK
6
CONTINUOUS
10
9.85662
20
28.961
11
9.784
21
28.7216
0
LINE
8
BLACK
6
CONTINUOUS
10
9.784
20
28.7216
11
9.66607
21
28.501
0
LINE
8
BLACK
6
CONTINUOUS
10
9.66607
20
28.501
11
9.50737
21
28.3076
0
LINE
8
BLACK
6
CONTINUOUS
10
9.50737
20
28.3076
11
9.31399
21
28.1489
0
LINE
8
BLACK
6
CONTINUOUS
10
9.31399
20
28.1489
11
9.09336
21
28.031
0
LINE
8
BLACK
6
CONTINUOUS
10
9.09336
20
28.031
11
8.85396
21
27.9584
0
LINE
8
BLACK
6
CONTINUOUS
10
8.85396
20
27.9584
11
8.605
21
27.9339
0
LINE
8
BLACK
6
CONTINUOUS
10
8.605
20
27.9339
11
8.35604
21
27.9584
0
LINE
8
BLACK
6
CONTINUOUS
10
8.35604
20
27.9584
11
8.11664
21
28.031
0
LINE
8
BLACK
6
CONTINUOUS
10
8.11664
20
28.031
11
7.89601
21
28.1489
0
LINE
8
BLACK
6
CONTINUOUS
10
7.89601
20
28.1489
11
7.70263
21
28.3076
0
LINE
8
BLACK
6
CONTINUOUS
10
7.70263
20
28.3076
11
7.54392
21
28.501
0
LINE
8
BLACK
6
CONTINUOUS
10
7.54392
20
28.501
11
7.426
21
28.7216
0
LINE
8
BLACK
6
CONTINUOUS
10
7.426
20
28.7216
11
7.35338
21
28.961
0
LINE
8
BLACK
6
CONTINUOUS
10
7.35338
20
28.961
11
7.335
21
29.1476
0
LINE
8
BLACK
6
CONTINUOUS
10
7.335
20
29.1476
11
7.335
21
31.8124
0
LINE
8
BLACK
6
CONTINUOUS
10
7.335
20
31.8124
11
7.35338
21
31.999
0
LINE
8
BLACK
6
CONTINUOUS
10
7.35338
20
31.999
11
7.426
21
32.2384
0
LINE
8
BLACK
6
CONTINUOUS
10
7.426
20
32.2384
11
7.54393
21
32.459
0
LINE
8
BLACK
6
CONTINUOUS
10
7.54393
20
32.459
11
7.70263
21
32.6524
0
LINE
8
BLACK
6
CONTINUOUS
10
7.70263
20
32.6524
11
7.89601
21
32.8111
0
LINE
8
BLACK
6
CONTINUOUS
10
7.89601
20
32.8111
11
8.11664
21
32.929
0
LINE
8
BLACK
6
CONTINUOUS
10
8.11664
20
32.929
11
8.35604
21
33.0016
0
LINE
8
BLACK
6
CONTINUOUS
10
8.35604
20
33.0016
11
8.605
21
33.0261
0
LINE
8
BLACK
6
CONTINUOUS
10
8.605
20
33.0261
11
8.85396
21
33.0016
0
LINE
8
BLACK
6
CONTINUOUS
10
26.5892
20
35.482
11
26.935
21
35.3388
0
LINE
8
BLACK
6
CONTINUOUS
10
26.935
20
35.3388
11
27.2462
21
35.1308
0
LINE
8
BLACK
6
CONTINUOUS
10
27.2462
20
35.1308
11
27.5108
21
34.8662
0
LINE
8
BLACK
6
CONTINUOUS
10
27.5108
20
34.8662
11
27.7188
21
34.555
0
LINE
8
BLACK
6
CONTINUOUS
10
27.7188
20
34.555
11
27.862
21
34.2092
0
LINE
8
BLACK
6
CONTINUOUS
10
27.862
20
34.2092
11
27.935
21
33.8421
0
LINE
8
BLACK
6
CONTINUOUS
10
27.935
20
33.8421
11
27.935
21
33.4679
0
LINE
8
BLACK
6
CONTINUOUS
10
27.935
20
33.4679
11
27.862
21
33.1008
0
LINE
8
BLACK
6
CONTINUOUS
10
27.862
20
33.1008
11
27.7188
21
32.755
0
LINE
8
BLACK
6
CONTINUOUS
10
27.7188
20
32.755
11
27.5108
21
32.4438
0
LINE
8
BLACK
6
CONTINUOUS
10
27.5108
20
32.4438
11
27.2462
21
32.1792
0
LINE
8
BLACK
6
CONTINUOUS
10
27.2462
20
32.1792
11
26.935
21
31.9712
0
LINE
8
BLACK
6
CONTINUOUS
10
26.935
20
31.9712
11
26.5892
21
31.828
0
LINE
8
BLACK
6
CONTINUOUS
10
26.5892
20
31.828
11
26.2221
21
31.755
0
LINE
8
BLACK
6
CONTINUOUS
10
26.2221
20
31.755
11
25.8479
21
31.755
0
LINE
8
BLACK
6
CONTINUOUS
10
25.8479
20
31.755
11
25.4808
21
31.828
0
LINE
8
BLACK
6
CONTINUOUS
10
25.4808
20
31.828
11
25.135
21
31.9712
0
LINE
8
BLACK
6
CONTINUOUS
10
25.135
20
31.9712
11
24.8238
21
32.1792
0
LINE
8
BLACK
6
CONTINUOUS
10
24.8238
20
32.1792
11
24.5592
21
32.4438
0
LINE
8
BLACK
6
CONTINUOUS
10
24.5592
20
32.4438
11
24.3512
21
32.755
0
LINE
8
BLACK
6
CONTINUOUS
10
24.3512
20
32.755
11
24.208
21
33.1008
0
LINE
8
BLACK
6
CONTINUOUS
10
24.208
20
33.1008
11
24.135
21
33.4679
0
LINE
8
BLACK
6
CONTINUOUS
10
24.135
20
33.4679
11
24.135
21
33.8421
0
LINE
8
BLACK
6
CONTINUOUS
10
24.135
20
33.8421
11
24.208
21
34.2092
0
LINE
8
BLACK
6
CONTINUOUS
10
24.208
20
34.2092
11
24.3512
21
34.555
0
LINE
8
BLACK
6
CONTINUOUS
10
24.3512
20
34.555
11
24.5592
21
34.8662
0
LINE
8
BLACK
6
CONTINUOUS
10
24.5592
20
34.8662
11
24.8238
21
35.1308
0
LINE
8
BLACK
6
CONTINUOUS
10
24.8238
20
35.1308
11
25.135
21
35.3388
0
LINE
8
BLACK
6
CONTINUOUS
10
25.135
20
35.3388
11
25.4808
21
35.482
0
LINE
8
BLACK
6
CONTINUOUS
10
25.4808
20
35.482
11
25.8479
21
35.555
0
LINE
8
BLACK
6
CONTINUOUS
10
25.8479
20
35.555
11
26.2221
21
35.555
0
LINE
8
BLACK
6
CONTINUOUS
10
26.2221
20
35.555
11
26.5892
21
35.482
  0
ENDSEC
  0
EOF
