%TF.GenerationSoftware,KiCad,Pcbnew,5.1.5+dfsg1-2build2*%
%TF.CreationDate,2020-12-20T05:39:22+01:00*%
%TF.ProjectId,PSmod1105-v2,50536d6f-6431-4313-9035-2d76322e6b69,rev?*%
%TF.SameCoordinates,PX48ab840PY77e7cd0*%
%TF.FileFunction,Other,Fab,Top*%
%FSLAX46Y46*%
G04 Gerber Fmt 4.6, Leading zero omitted, Abs format (unit mm)*
G04 Created by KiCad (PCBNEW 5.1.5+dfsg1-2build2) date 2020-12-20 05:39:22*
%MOMM*%
%LPD*%
G04 APERTURE LIST*
%ADD10C,0.100000*%
%ADD11C,0.120000*%
%ADD12C,0.150000*%
G04 APERTURE END LIST*
D10*
%TO.C,C1*%
X17720000Y5080000D02*
G75*
G03X17720000Y5080000I-2500000J0D01*
G01*
X13086395Y6167500D02*
X13586395Y6167500D01*
X13336395Y6417500D02*
X13336395Y5917500D01*
%TO.C,C2*%
X22223605Y20252500D02*
X22223605Y20752500D01*
X22473605Y20502500D02*
X21973605Y20502500D01*
X22840000Y21590000D02*
G75*
G03X22840000Y21590000I-2500000J0D01*
G01*
%TO.C,C3*%
X25670000Y14320000D02*
X27670000Y14320000D01*
X27670000Y14320000D02*
X27670000Y21320000D01*
X27670000Y21320000D02*
X25670000Y21320000D01*
X25670000Y21320000D02*
X25670000Y14320000D01*
%TO.C,D1*%
X7560000Y21670000D02*
X7560000Y18970000D01*
X7560000Y18970000D02*
X12760000Y18970000D01*
X12760000Y18970000D02*
X12760000Y21670000D01*
X12760000Y21670000D02*
X7560000Y21670000D01*
X5080000Y20320000D02*
X7560000Y20320000D01*
X15240000Y20320000D02*
X12760000Y20320000D01*
X8340000Y21670000D02*
X8340000Y18970000D01*
X8440000Y21670000D02*
X8440000Y18970000D01*
X8240000Y21670000D02*
X8240000Y18970000D01*
D11*
%TO.C,J1*%
X740000Y25980000D02*
X740000Y34980000D01*
X740000Y34980000D02*
X14605000Y34980000D01*
X14605000Y34980000D02*
X14605000Y33655000D01*
X14605000Y33655000D02*
X16510000Y33655000D01*
X16510000Y33655000D02*
X16510000Y27305000D01*
X16510000Y27305000D02*
X14605000Y27305000D01*
X14605000Y27305000D02*
X14605000Y24130000D01*
X14605000Y24130000D02*
X8255000Y24130000D01*
X8255000Y25980000D02*
X740000Y25980000D01*
X740000Y25980000D02*
X8255000Y25980000D01*
X8255000Y25980000D02*
X8255000Y24130000D01*
%TO.C,SW1*%
X5080000Y1110000D02*
X-1420000Y1110000D01*
X-1420000Y1110000D02*
X-1420000Y12510000D01*
X-1420000Y12510000D02*
X5080000Y12510000D01*
X5080000Y1110000D02*
X6580000Y1110000D01*
X6580000Y1110000D02*
X6580000Y12510000D01*
X6580000Y12510000D02*
X5080000Y12510000D01*
X3580000Y1110000D02*
X3580000Y12510000D01*
D10*
%TO.C,U1*%
X14660000Y15050000D02*
X15660000Y16050000D01*
X14660000Y15050000D02*
X14660000Y9350000D01*
X15660000Y16050000D02*
X18360000Y16050000D01*
X14660000Y9350000D02*
X18360000Y9350000D01*
X18360000Y16050000D02*
X18360000Y9350000D01*
%TD*%
%TO.C,C1*%
D12*
X15053333Y4722858D02*
X15005714Y4675239D01*
X14862857Y4627620D01*
X14767619Y4627620D01*
X14624761Y4675239D01*
X14529523Y4770477D01*
X14481904Y4865715D01*
X14434285Y5056191D01*
X14434285Y5199048D01*
X14481904Y5389524D01*
X14529523Y5484762D01*
X14624761Y5580000D01*
X14767619Y5627620D01*
X14862857Y5627620D01*
X15005714Y5580000D01*
X15053333Y5532381D01*
X16005714Y4627620D02*
X15434285Y4627620D01*
X15720000Y4627620D02*
X15720000Y5627620D01*
X15624761Y5484762D01*
X15529523Y5389524D01*
X15434285Y5341905D01*
%TO.C,C2*%
X20173333Y21232858D02*
X20125714Y21185239D01*
X19982857Y21137620D01*
X19887619Y21137620D01*
X19744761Y21185239D01*
X19649523Y21280477D01*
X19601904Y21375715D01*
X19554285Y21566191D01*
X19554285Y21709048D01*
X19601904Y21899524D01*
X19649523Y21994762D01*
X19744761Y22090000D01*
X19887619Y22137620D01*
X19982857Y22137620D01*
X20125714Y22090000D01*
X20173333Y22042381D01*
X20554285Y22042381D02*
X20601904Y22090000D01*
X20697142Y22137620D01*
X20935238Y22137620D01*
X21030476Y22090000D01*
X21078095Y22042381D01*
X21125714Y21947143D01*
X21125714Y21851905D01*
X21078095Y21709048D01*
X20506666Y21137620D01*
X21125714Y21137620D01*
%TO.C,C3*%
X27027142Y17653334D02*
X27074761Y17605715D01*
X27122380Y17462858D01*
X27122380Y17367620D01*
X27074761Y17224762D01*
X26979523Y17129524D01*
X26884285Y17081905D01*
X26693809Y17034286D01*
X26550952Y17034286D01*
X26360476Y17081905D01*
X26265238Y17129524D01*
X26170000Y17224762D01*
X26122380Y17367620D01*
X26122380Y17462858D01*
X26170000Y17605715D01*
X26217619Y17653334D01*
X26122380Y17986667D02*
X26122380Y18605715D01*
X26503333Y18272381D01*
X26503333Y18415239D01*
X26550952Y18510477D01*
X26598571Y18558096D01*
X26693809Y18605715D01*
X26931904Y18605715D01*
X27027142Y18558096D01*
X27074761Y18510477D01*
X27122380Y18415239D01*
X27122380Y18129524D01*
X27074761Y18034286D01*
X27027142Y17986667D01*
%TO.C,D1*%
X9811904Y19867620D02*
X9811904Y20867620D01*
X10050000Y20867620D01*
X10192857Y20820000D01*
X10288095Y20724762D01*
X10335714Y20629524D01*
X10383333Y20439048D01*
X10383333Y20296191D01*
X10335714Y20105715D01*
X10288095Y20010477D01*
X10192857Y19915239D01*
X10050000Y19867620D01*
X9811904Y19867620D01*
X11335714Y19867620D02*
X10764285Y19867620D01*
X11050000Y19867620D02*
X11050000Y20867620D01*
X10954761Y20724762D01*
X10859523Y20629524D01*
X10764285Y20581905D01*
X4818095Y21967620D02*
X4818095Y22967620D01*
X5389523Y21967620D02*
X4960952Y22539048D01*
X5389523Y22967620D02*
X4818095Y22396191D01*
%TO.C,H1*%
X1651190Y12522620D02*
X1651190Y13522620D01*
X1984523Y12808334D01*
X2317857Y13522620D01*
X2317857Y12522620D01*
X2746428Y13427381D02*
X2794047Y13475000D01*
X2889285Y13522620D01*
X3127380Y13522620D01*
X3222619Y13475000D01*
X3270238Y13427381D01*
X3317857Y13332143D01*
X3317857Y13236905D01*
X3270238Y13094048D01*
X2698809Y12522620D01*
X3317857Y12522620D01*
X3746428Y12617858D02*
X3794047Y12570239D01*
X3746428Y12522620D01*
X3698809Y12570239D01*
X3746428Y12617858D01*
X3746428Y12522620D01*
X4175000Y13427381D02*
X4222619Y13475000D01*
X4317857Y13522620D01*
X4555952Y13522620D01*
X4651190Y13475000D01*
X4698809Y13427381D01*
X4746428Y13332143D01*
X4746428Y13236905D01*
X4698809Y13094048D01*
X4127380Y12522620D01*
X4746428Y12522620D01*
X2713095Y15422620D02*
X2713095Y16422620D01*
X2713095Y15946429D02*
X3284523Y15946429D01*
X3284523Y15422620D02*
X3284523Y16422620D01*
X4284523Y15422620D02*
X3713095Y15422620D01*
X3998809Y15422620D02*
X3998809Y16422620D01*
X3903571Y16279762D01*
X3808333Y16184524D01*
X3713095Y16136905D01*
%TO.C,H3*%
X25573095Y33202620D02*
X25573095Y34202620D01*
X25573095Y33726429D02*
X26144523Y33726429D01*
X26144523Y33202620D02*
X26144523Y34202620D01*
X26525476Y34202620D02*
X27144523Y34202620D01*
X26811190Y33821667D01*
X26954047Y33821667D01*
X27049285Y33774048D01*
X27096904Y33726429D01*
X27144523Y33631191D01*
X27144523Y33393096D01*
X27096904Y33297858D01*
X27049285Y33250239D01*
X26954047Y33202620D01*
X26668333Y33202620D01*
X26573095Y33250239D01*
X26525476Y33297858D01*
%TO.C,H4*%
X25573095Y2722620D02*
X25573095Y3722620D01*
X25573095Y3246429D02*
X26144523Y3246429D01*
X26144523Y2722620D02*
X26144523Y3722620D01*
X27049285Y3389286D02*
X27049285Y2722620D01*
X26811190Y3770239D02*
X26573095Y3055953D01*
X27192142Y3055953D01*
%TO.C,J1*%
X5532380Y26765715D02*
X4532380Y26765715D01*
X4532380Y27003810D01*
X4580000Y27146667D01*
X4675238Y27241905D01*
X4770476Y27289524D01*
X4960952Y27337143D01*
X5103809Y27337143D01*
X5294285Y27289524D01*
X5389523Y27241905D01*
X5484761Y27146667D01*
X5532380Y27003810D01*
X5532380Y26765715D01*
X5437142Y28337143D02*
X5484761Y28289524D01*
X5532380Y28146667D01*
X5532380Y28051429D01*
X5484761Y27908572D01*
X5389523Y27813334D01*
X5294285Y27765715D01*
X5103809Y27718096D01*
X4960952Y27718096D01*
X4770476Y27765715D01*
X4675238Y27813334D01*
X4580000Y27908572D01*
X4532380Y28051429D01*
X4532380Y28146667D01*
X4580000Y28289524D01*
X4627619Y28337143D01*
X5532380Y29575239D02*
X5532380Y29765715D01*
X5484761Y29860953D01*
X5437142Y29908572D01*
X5294285Y30003810D01*
X5103809Y30051429D01*
X4722857Y30051429D01*
X4627619Y30003810D01*
X4580000Y29956191D01*
X4532380Y29860953D01*
X4532380Y29670477D01*
X4580000Y29575239D01*
X4627619Y29527620D01*
X4722857Y29480000D01*
X4960952Y29480000D01*
X5056190Y29527620D01*
X5103809Y29575239D01*
X5151428Y29670477D01*
X5151428Y29860953D01*
X5103809Y29956191D01*
X5056190Y30003810D01*
X4960952Y30051429D01*
X5437142Y30480000D02*
X5484761Y30527620D01*
X5532380Y30480000D01*
X5484761Y30432381D01*
X5437142Y30480000D01*
X5532380Y30480000D01*
X5437142Y30956191D02*
X5484761Y31003810D01*
X5532380Y30956191D01*
X5484761Y30908572D01*
X5437142Y30956191D01*
X5532380Y30956191D01*
X5437142Y31432381D02*
X5484761Y31480000D01*
X5532380Y31432381D01*
X5484761Y31384762D01*
X5437142Y31432381D01*
X5532380Y31432381D01*
X5532380Y32432381D02*
X5532380Y31860953D01*
X5532380Y32146667D02*
X4532380Y32146667D01*
X4675238Y32051429D01*
X4770476Y31956191D01*
X4818095Y31860953D01*
X4627619Y32813334D02*
X4580000Y32860953D01*
X4532380Y32956191D01*
X4532380Y33194286D01*
X4580000Y33289524D01*
X4627619Y33337143D01*
X4722857Y33384762D01*
X4818095Y33384762D01*
X4960952Y33337143D01*
X5532380Y32765715D01*
X5532380Y33384762D01*
X4532380Y33670477D02*
X5532380Y34003810D01*
X4532380Y34337143D01*
%TO.C,U1*%
D11*
X16071904Y12090477D02*
X16719523Y12090477D01*
X16795714Y12128572D01*
X16833809Y12166667D01*
X16871904Y12242858D01*
X16871904Y12395239D01*
X16833809Y12471429D01*
X16795714Y12509524D01*
X16719523Y12547620D01*
X16071904Y12547620D01*
X16871904Y13347620D02*
X16871904Y12890477D01*
X16871904Y13119048D02*
X16071904Y13119048D01*
X16186190Y13042858D01*
X16262380Y12966667D01*
X16300476Y12890477D01*
%TD*%
M02*
