M48
; DRILL file {KiCad 5.1.5+dfsg1-2build2} date nie, 20 gru 2020, 05:39:26
; FORMAT={-:-/ absolute / inch / decimal}
; #@! TF.CreationDate,2020-12-20T05:39:26+01:00
; #@! TF.GenerationSoftware,Kicad,Pcbnew,5.1.5+dfsg1-2build2
FMAT,2
INCH
T1C0.0315
T2C0.0394
T3C0.0433
T4C0.0866
T5C0.0866
%
G90
G05
T1
X0.55Y0.2
X1.05Y0.8
X1.05Y0.6031
X0.7516Y0.85
X0.85Y0.85
X0.6484Y0.2
T2
X0.2Y0.3862
X0.2Y0.2681
X0.2Y0.15
T3
X0.2Y0.8
X0.6Y0.8
T4
X1.025Y0.125
X1.025Y1.325
T5
X0.125Y0.625
T2
G00X0.3388Y1.2394
M15
G01X0.3388Y1.1606
M16
G05
G00X0.4195Y1.0071
M15
G01X0.4982Y1.0071
M16
G05
G00X0.575Y1.2492
M15
G01X0.575Y1.1508
M16
G05
T0
M30
