%TF.GenerationSoftware,KiCad,Pcbnew,5.1.5+dfsg1-2build2*%
%TF.CreationDate,2020-12-20T05:39:21+01:00*%
%TF.ProjectId,PSmod1105-v2,50536d6f-6431-4313-9035-2d76322e6b69,rev?*%
%TF.SameCoordinates,PX48ab840PY77e7cd0*%
%TF.FileFunction,Copper,L2,Bot*%
%TF.FilePolarity,Positive*%
%FSLAX46Y46*%
G04 Gerber Fmt 4.6, Leading zero omitted, Abs format (unit mm)*
G04 Created by KiCad (PCBNEW 5.1.5+dfsg1-2build2) date 2020-12-20 05:39:21*
%MOMM*%
%LPD*%
G04 APERTURE LIST*
%TA.AperFunction,ComponentPad*%
%ADD10R,1.600000X1.600000*%
%TD*%
%TA.AperFunction,ComponentPad*%
%ADD11C,1.600000*%
%TD*%
%TA.AperFunction,ComponentPad*%
%ADD12R,2.200000X2.200000*%
%TD*%
%TA.AperFunction,ComponentPad*%
%ADD13O,2.200000X2.200000*%
%TD*%
%TA.AperFunction,ComponentPad*%
%ADD14C,3.800000*%
%TD*%
%TA.AperFunction,ComponentPad*%
%ADD15O,2.540000X5.080000*%
%TD*%
%TA.AperFunction,ComponentPad*%
%ADD16O,5.080000X2.540000*%
%TD*%
%TA.AperFunction,ComponentPad*%
%ADD17C,2.070000*%
%TD*%
%TA.AperFunction,Conductor*%
%ADD18C,1.000000*%
%TD*%
G04 APERTURE END LIST*
D10*
%TO.P,C1,1*%
%TO.N,Net-(C1-Pad1)*%
X13970000Y5080000D03*
D11*
%TO.P,C1,2*%
%TO.N,GND*%
X16470000Y5080000D03*
%TD*%
%TO.P,C2,2*%
%TO.N,GND*%
X19090000Y21590000D03*
D10*
%TO.P,C2,1*%
%TO.N,Net-(C2-Pad1)*%
X21590000Y21590000D03*
%TD*%
D11*
%TO.P,C3,1*%
%TO.N,Net-(C2-Pad1)*%
X26670000Y15320000D03*
%TO.P,C3,2*%
%TO.N,GND*%
X26670000Y20320000D03*
%TD*%
D12*
%TO.P,D1,1*%
%TO.N,Net-(D1-Pad1)*%
X5080000Y20320000D03*
D13*
%TO.P,D1,2*%
%TO.N,Net-(D1-Pad2)*%
X15240000Y20320000D03*
%TD*%
D14*
%TO.P,H3,1*%
%TO.N,Net-(C2-Pad1)*%
X26035000Y33655000D03*
%TD*%
%TO.P,H4,1*%
%TO.N,GND*%
X26035000Y3175000D03*
%TD*%
D15*
%TO.P,J1,1*%
%TO.N,Net-(D1-Pad2)*%
X14605000Y30480000D03*
%TO.P,J1,2*%
%TO.N,GND*%
X8605000Y30480000D03*
D16*
%TO.P,J1,3*%
X11655000Y25580000D03*
%TD*%
D17*
%TO.P,SW1,1*%
%TO.N,Net-(C1-Pad1)*%
X5080000Y3810000D03*
%TO.P,SW1,2*%
%TO.N,Net-(D1-Pad1)*%
X5080000Y6810000D03*
%TO.P,SW1,3*%
%TO.N,Net-(SW1-Pad3)*%
X5080000Y9810000D03*
%TD*%
D18*
%TO.N,Net-(C1-Pad1)*%
X13970000Y5080000D02*
X12170000Y5080000D01*
X5080000Y3810000D02*
X10900000Y3810000D01*
X10900000Y3810000D02*
X12170000Y5080000D01*
%TO.N,GND*%
X19090000Y7700000D02*
X16470000Y5080000D01*
X19090000Y19828700D02*
X19090000Y7700000D01*
X26035000Y3175000D02*
X23615000Y3175000D01*
X23615000Y3175000D02*
X19090000Y7700000D01*
X19090000Y21590000D02*
X19090000Y19828700D01*
X19090000Y19828700D02*
X26178700Y19828700D01*
X26178700Y19828700D02*
X26670000Y20320000D01*
X11655000Y25580000D02*
X15195000Y25580000D01*
X15195000Y25580000D02*
X15195000Y25485000D01*
X15195000Y25485000D02*
X19090000Y21590000D01*
%TD*%
M02*
