%TF.GenerationSoftware,KiCad,Pcbnew,5.1.5+dfsg1-2build2*%
%TF.CreationDate,2020-12-20T05:39:22+01:00*%
%TF.ProjectId,PSmod1105-v2,50536d6f-6431-4313-9035-2d76322e6b69,rev?*%
%TF.SameCoordinates,PX48ab840PY77e7cd0*%
%TF.FileFunction,Soldermask,Bot*%
%TF.FilePolarity,Negative*%
%FSLAX46Y46*%
G04 Gerber Fmt 4.6, Leading zero omitted, Abs format (unit mm)*
G04 Created by KiCad (PCBNEW 5.1.5+dfsg1-2build2) date 2020-12-20 05:39:22*
%MOMM*%
%LPD*%
G04 APERTURE LIST*
%ADD10C,0.150000*%
G04 APERTURE END LIST*
D10*
G36*
X26604085Y5051025D02*
G01*
X26959143Y4903955D01*
X26959145Y4903954D01*
X27278690Y4690441D01*
X27550441Y4418690D01*
X27745492Y4126775D01*
X27763955Y4099143D01*
X27911025Y3744085D01*
X27986000Y3367158D01*
X27986000Y2982842D01*
X27911025Y2605915D01*
X27763955Y2250857D01*
X27763954Y2250855D01*
X27550441Y1931310D01*
X27278690Y1659559D01*
X26959145Y1446046D01*
X26959144Y1446045D01*
X26959143Y1446045D01*
X26604085Y1298975D01*
X26227158Y1224000D01*
X25842842Y1224000D01*
X25465915Y1298975D01*
X25110857Y1446045D01*
X25110856Y1446045D01*
X25110855Y1446046D01*
X24791310Y1659559D01*
X24519559Y1931310D01*
X24306046Y2250855D01*
X24306045Y2250857D01*
X24158975Y2605915D01*
X24084000Y2982842D01*
X24084000Y3367158D01*
X24158975Y3744085D01*
X24306045Y4099143D01*
X24324508Y4126775D01*
X24519559Y4418690D01*
X24791310Y4690441D01*
X25110855Y4903954D01*
X25110857Y4903955D01*
X25465915Y5051025D01*
X25842842Y5126000D01*
X26227158Y5126000D01*
X26604085Y5051025D01*
G37*
G36*
X5396775Y4854266D02*
G01*
X5594414Y4772401D01*
X5772285Y4653552D01*
X5923552Y4502285D01*
X6042401Y4324414D01*
X6124266Y4126775D01*
X6166000Y3916962D01*
X6166000Y3703038D01*
X6124266Y3493225D01*
X6042401Y3295586D01*
X5923552Y3117715D01*
X5772285Y2966448D01*
X5594414Y2847599D01*
X5396775Y2765734D01*
X5186963Y2724000D01*
X4973037Y2724000D01*
X4763225Y2765734D01*
X4565586Y2847599D01*
X4387715Y2966448D01*
X4236448Y3117715D01*
X4117599Y3295586D01*
X4035734Y3493225D01*
X3994000Y3703038D01*
X3994000Y3916962D01*
X4035734Y4126775D01*
X4117599Y4324414D01*
X4236448Y4502285D01*
X4387715Y4653552D01*
X4565586Y4772401D01*
X4763225Y4854266D01*
X4973037Y4896000D01*
X5186963Y4896000D01*
X5396775Y4854266D01*
G37*
G36*
X14821000Y4229000D02*
G01*
X13119000Y4229000D01*
X13119000Y5931000D01*
X14821000Y5931000D01*
X14821000Y4229000D01*
G37*
G36*
X16718228Y5898297D02*
G01*
X16873100Y5834147D01*
X17012481Y5741015D01*
X17131015Y5622481D01*
X17224147Y5483100D01*
X17288297Y5328228D01*
X17321000Y5163816D01*
X17321000Y4996184D01*
X17288297Y4831772D01*
X17224147Y4676900D01*
X17131015Y4537519D01*
X17012481Y4418985D01*
X16873100Y4325853D01*
X16718228Y4261703D01*
X16553816Y4229000D01*
X16386184Y4229000D01*
X16221772Y4261703D01*
X16066900Y4325853D01*
X15927519Y4418985D01*
X15808985Y4537519D01*
X15715853Y4676900D01*
X15651703Y4831772D01*
X15619000Y4996184D01*
X15619000Y5163816D01*
X15651703Y5328228D01*
X15715853Y5483100D01*
X15808985Y5622481D01*
X15927519Y5741015D01*
X16066900Y5834147D01*
X16221772Y5898297D01*
X16386184Y5931000D01*
X16553816Y5931000D01*
X16718228Y5898297D01*
G37*
G36*
X5291868Y7875133D02*
G01*
X5396775Y7854266D01*
X5594414Y7772401D01*
X5772285Y7653552D01*
X5923552Y7502285D01*
X6042401Y7324414D01*
X6124266Y7126775D01*
X6166000Y6916962D01*
X6166000Y6703038D01*
X6124266Y6493225D01*
X6042401Y6295586D01*
X5923552Y6117715D01*
X5772285Y5966448D01*
X5594414Y5847599D01*
X5396775Y5765734D01*
X5186963Y5724000D01*
X4973037Y5724000D01*
X4763225Y5765734D01*
X4565586Y5847599D01*
X4387715Y5966448D01*
X4236448Y6117715D01*
X4117599Y6295586D01*
X4035734Y6493225D01*
X3994000Y6703038D01*
X3994000Y6916962D01*
X4035734Y7126775D01*
X4117599Y7324414D01*
X4236448Y7502285D01*
X4387715Y7653552D01*
X4565586Y7772401D01*
X4763225Y7854266D01*
X4868132Y7875133D01*
X4973037Y7896000D01*
X5186963Y7896000D01*
X5291868Y7875133D01*
G37*
G36*
X5396775Y10854266D02*
G01*
X5594414Y10772401D01*
X5772285Y10653552D01*
X5923552Y10502285D01*
X6042401Y10324414D01*
X6124266Y10126775D01*
X6166000Y9916962D01*
X6166000Y9703038D01*
X6124266Y9493225D01*
X6042401Y9295586D01*
X5923552Y9117715D01*
X5772285Y8966448D01*
X5594414Y8847599D01*
X5396775Y8765734D01*
X5291868Y8744867D01*
X5186963Y8724000D01*
X4973037Y8724000D01*
X4868132Y8744867D01*
X4763225Y8765734D01*
X4565586Y8847599D01*
X4387715Y8966448D01*
X4236448Y9117715D01*
X4117599Y9295586D01*
X4035734Y9493225D01*
X3994000Y9703038D01*
X3994000Y9916962D01*
X4035734Y10126775D01*
X4117599Y10324414D01*
X4236448Y10502285D01*
X4387715Y10653552D01*
X4565586Y10772401D01*
X4763225Y10854266D01*
X4973037Y10896000D01*
X5186963Y10896000D01*
X5396775Y10854266D01*
G37*
G36*
X26918228Y16138297D02*
G01*
X27073100Y16074147D01*
X27212481Y15981015D01*
X27331015Y15862481D01*
X27424147Y15723100D01*
X27488297Y15568228D01*
X27521000Y15403816D01*
X27521000Y15236184D01*
X27488297Y15071772D01*
X27424147Y14916900D01*
X27331015Y14777519D01*
X27212481Y14658985D01*
X27073100Y14565853D01*
X26918228Y14501703D01*
X26753816Y14469000D01*
X26586184Y14469000D01*
X26421772Y14501703D01*
X26266900Y14565853D01*
X26127519Y14658985D01*
X26008985Y14777519D01*
X25915853Y14916900D01*
X25851703Y15071772D01*
X25819000Y15236184D01*
X25819000Y15403816D01*
X25851703Y15568228D01*
X25915853Y15723100D01*
X26008985Y15862481D01*
X26127519Y15981015D01*
X26266900Y16074147D01*
X26421772Y16138297D01*
X26586184Y16171000D01*
X26753816Y16171000D01*
X26918228Y16138297D01*
G37*
G36*
X3399549Y17003884D02*
G01*
X3510734Y16981768D01*
X3720203Y16895003D01*
X3908720Y16769040D01*
X4069040Y16608720D01*
X4195003Y16420203D01*
X4281768Y16210734D01*
X4326000Y15988364D01*
X4326000Y15761636D01*
X4281768Y15539266D01*
X4195003Y15329797D01*
X4069040Y15141280D01*
X3908720Y14980960D01*
X3720203Y14854997D01*
X3510734Y14768232D01*
X3399549Y14746116D01*
X3288365Y14724000D01*
X3061635Y14724000D01*
X2950451Y14746116D01*
X2839266Y14768232D01*
X2629797Y14854997D01*
X2441280Y14980960D01*
X2280960Y15141280D01*
X2154997Y15329797D01*
X2068232Y15539266D01*
X2024000Y15761636D01*
X2024000Y15988364D01*
X2068232Y16210734D01*
X2154997Y16420203D01*
X2280960Y16608720D01*
X2441280Y16769040D01*
X2629797Y16895003D01*
X2839266Y16981768D01*
X2950451Y17003884D01*
X3061635Y17026000D01*
X3288365Y17026000D01*
X3399549Y17003884D01*
G37*
G36*
X15464549Y21448884D02*
G01*
X15575734Y21426768D01*
X15723850Y21365416D01*
X15780933Y21341772D01*
X15785203Y21340003D01*
X15973720Y21214040D01*
X16134040Y21053720D01*
X16217385Y20928985D01*
X16260004Y20865201D01*
X16346768Y20655733D01*
X16391000Y20433365D01*
X16391000Y20206635D01*
X16346768Y19984267D01*
X16261131Y19777519D01*
X16260003Y19774797D01*
X16134040Y19586280D01*
X15973720Y19425960D01*
X15785203Y19299997D01*
X15575734Y19213232D01*
X15464549Y19191116D01*
X15353365Y19169000D01*
X15126635Y19169000D01*
X15015451Y19191116D01*
X14904266Y19213232D01*
X14694797Y19299997D01*
X14506280Y19425960D01*
X14345960Y19586280D01*
X14219997Y19774797D01*
X14218870Y19777519D01*
X14133232Y19984267D01*
X14089000Y20206635D01*
X14089000Y20433365D01*
X14133232Y20655733D01*
X14219996Y20865201D01*
X14262615Y20928985D01*
X14345960Y21053720D01*
X14506280Y21214040D01*
X14694797Y21340003D01*
X14699068Y21341772D01*
X14756150Y21365416D01*
X14904266Y21426768D01*
X15015451Y21448884D01*
X15126635Y21471000D01*
X15353365Y21471000D01*
X15464549Y21448884D01*
G37*
G36*
X6231000Y19169000D02*
G01*
X3929000Y19169000D01*
X3929000Y21471000D01*
X6231000Y21471000D01*
X6231000Y19169000D01*
G37*
G36*
X26918228Y21138297D02*
G01*
X27073100Y21074147D01*
X27212481Y20981015D01*
X27331015Y20862481D01*
X27424147Y20723100D01*
X27488297Y20568228D01*
X27521000Y20403816D01*
X27521000Y20236184D01*
X27488297Y20071772D01*
X27424147Y19916900D01*
X27331015Y19777519D01*
X27212481Y19658985D01*
X27073100Y19565853D01*
X26918228Y19501703D01*
X26753816Y19469000D01*
X26586184Y19469000D01*
X26421772Y19501703D01*
X26266900Y19565853D01*
X26127519Y19658985D01*
X26008985Y19777519D01*
X25915853Y19916900D01*
X25851703Y20071772D01*
X25819000Y20236184D01*
X25819000Y20403816D01*
X25851703Y20568228D01*
X25915853Y20723100D01*
X26008985Y20862481D01*
X26127519Y20981015D01*
X26266900Y21074147D01*
X26421772Y21138297D01*
X26586184Y21171000D01*
X26753816Y21171000D01*
X26918228Y21138297D01*
G37*
G36*
X19338228Y22408297D02*
G01*
X19493100Y22344147D01*
X19632481Y22251015D01*
X19751015Y22132481D01*
X19844147Y21993100D01*
X19908297Y21838228D01*
X19941000Y21673816D01*
X19941000Y21506184D01*
X19908297Y21341772D01*
X19844147Y21186900D01*
X19751015Y21047519D01*
X19632481Y20928985D01*
X19493100Y20835853D01*
X19338228Y20771703D01*
X19173816Y20739000D01*
X19006184Y20739000D01*
X18841772Y20771703D01*
X18686900Y20835853D01*
X18547519Y20928985D01*
X18428985Y21047519D01*
X18335853Y21186900D01*
X18271703Y21341772D01*
X18239000Y21506184D01*
X18239000Y21673816D01*
X18271703Y21838228D01*
X18335853Y21993100D01*
X18428985Y22132481D01*
X18547519Y22251015D01*
X18686900Y22344147D01*
X18841772Y22408297D01*
X19006184Y22441000D01*
X19173816Y22441000D01*
X19338228Y22408297D01*
G37*
G36*
X22441000Y20739000D02*
G01*
X20739000Y20739000D01*
X20739000Y22441000D01*
X22441000Y22441000D01*
X22441000Y20739000D01*
G37*
G36*
X13054580Y26894629D02*
G01*
X13183961Y26881886D01*
X13432971Y26806349D01*
X13432973Y26806348D01*
X13662458Y26683686D01*
X13863608Y26518608D01*
X14028685Y26317459D01*
X14151349Y26087971D01*
X14226886Y25838961D01*
X14252391Y25580000D01*
X14226886Y25321039D01*
X14151349Y25072029D01*
X14151348Y25072027D01*
X14028686Y24842542D01*
X13863608Y24641392D01*
X13662458Y24476314D01*
X13432973Y24353652D01*
X13432971Y24353651D01*
X13183961Y24278114D01*
X13054580Y24265371D01*
X12989891Y24259000D01*
X10320109Y24259000D01*
X10255420Y24265371D01*
X10126039Y24278114D01*
X9877029Y24353651D01*
X9877027Y24353652D01*
X9647542Y24476314D01*
X9446392Y24641392D01*
X9281314Y24842542D01*
X9158652Y25072027D01*
X9158651Y25072029D01*
X9083114Y25321039D01*
X9057609Y25580000D01*
X9083114Y25838961D01*
X9158651Y26087971D01*
X9281315Y26317459D01*
X9446392Y26518608D01*
X9647542Y26683686D01*
X9877027Y26806348D01*
X9877029Y26806349D01*
X10126039Y26881886D01*
X10255420Y26894629D01*
X10320109Y26901000D01*
X12989891Y26901000D01*
X13054580Y26894629D01*
G37*
G36*
X14863961Y33051886D02*
G01*
X15112971Y32976349D01*
X15112973Y32976348D01*
X15342458Y32853686D01*
X15543608Y32688608D01*
X15708685Y32487459D01*
X15831349Y32257971D01*
X15906886Y32008961D01*
X15926000Y31814890D01*
X15926000Y29145110D01*
X15906886Y28951039D01*
X15831349Y28702030D01*
X15831348Y28702027D01*
X15708686Y28472541D01*
X15543607Y28271393D01*
X15342457Y28106314D01*
X15112972Y27983652D01*
X15112970Y27983651D01*
X14863960Y27908114D01*
X14605000Y27882609D01*
X14346039Y27908114D01*
X14097029Y27983651D01*
X14097027Y27983652D01*
X13867541Y28106314D01*
X13666393Y28271393D01*
X13501314Y28472543D01*
X13378652Y28702028D01*
X13378651Y28702030D01*
X13303114Y28951040D01*
X13284000Y29145111D01*
X13284001Y31814890D01*
X13303115Y32008961D01*
X13378652Y32257971D01*
X13501316Y32487459D01*
X13666393Y32688608D01*
X13867543Y32853686D01*
X14097028Y32976348D01*
X14097030Y32976349D01*
X14346040Y33051886D01*
X14605000Y33077391D01*
X14863961Y33051886D01*
G37*
G36*
X8863961Y33051886D02*
G01*
X9112971Y32976349D01*
X9112973Y32976348D01*
X9342458Y32853686D01*
X9543608Y32688608D01*
X9708685Y32487459D01*
X9831349Y32257971D01*
X9906886Y32008961D01*
X9926000Y31814890D01*
X9926000Y29145110D01*
X9906886Y28951039D01*
X9831349Y28702030D01*
X9831348Y28702027D01*
X9708686Y28472541D01*
X9543607Y28271393D01*
X9342457Y28106314D01*
X9112972Y27983652D01*
X9112970Y27983651D01*
X8863960Y27908114D01*
X8605000Y27882609D01*
X8346039Y27908114D01*
X8097029Y27983651D01*
X8097027Y27983652D01*
X7867541Y28106314D01*
X7666393Y28271393D01*
X7501314Y28472543D01*
X7378652Y28702028D01*
X7378651Y28702030D01*
X7303114Y28951040D01*
X7284000Y29145111D01*
X7284001Y31814890D01*
X7303115Y32008961D01*
X7378652Y32257971D01*
X7501316Y32487459D01*
X7666393Y32688608D01*
X7867543Y32853686D01*
X8097028Y32976348D01*
X8097030Y32976349D01*
X8346040Y33051886D01*
X8605000Y33077391D01*
X8863961Y33051886D01*
G37*
G36*
X26604085Y35531025D02*
G01*
X26959143Y35383955D01*
X26959145Y35383954D01*
X27278690Y35170441D01*
X27550441Y34898690D01*
X27763954Y34579145D01*
X27763955Y34579143D01*
X27911025Y34224085D01*
X27986000Y33847158D01*
X27986000Y33462842D01*
X27911025Y33085915D01*
X27814832Y32853686D01*
X27763954Y32730855D01*
X27550441Y32411310D01*
X27278690Y32139559D01*
X26959145Y31926046D01*
X26959144Y31926045D01*
X26959143Y31926045D01*
X26604085Y31778975D01*
X26227158Y31704000D01*
X25842842Y31704000D01*
X25465915Y31778975D01*
X25110857Y31926045D01*
X25110856Y31926045D01*
X25110855Y31926046D01*
X24791310Y32139559D01*
X24519559Y32411310D01*
X24306046Y32730855D01*
X24255168Y32853686D01*
X24158975Y33085915D01*
X24084000Y33462842D01*
X24084000Y33847158D01*
X24158975Y34224085D01*
X24306045Y34579143D01*
X24306046Y34579145D01*
X24519559Y34898690D01*
X24791310Y35170441D01*
X25110855Y35383954D01*
X25110857Y35383955D01*
X25465915Y35531025D01*
X25842842Y35606000D01*
X26227158Y35606000D01*
X26604085Y35531025D01*
G37*
M02*
